<svg height="512pt" viewBox="0 -1 512.00018 512" width="512pt" xmlns="http://www.w3.org/2000/svg" xmlns:xlink="http://www.w3.org/1999/xlink"><linearGradient id="a"><stop offset="0" stop-color="#ffd459"/><stop offset=".2296" stop-color="#ffd355"/><stop offset=".4362" stop-color="#ffcf4a"/><stop offset=".634" stop-color="#ffc838"/><stop offset=".825" stop-color="#ffbf1f"/><stop offset="1" stop-color="#ffb400"/></linearGradient><linearGradient id="b" gradientUnits="userSpaceOnUse" x1="27.9359471018" x2="578.7476912296" xlink:href="#a" y1="45.08622749" y2="618.1529145138"/><linearGradient id="c"><stop offset="0" stop-color="#e58200" stop-opacity="0"/><stop offset=".0396" stop-color="#e27f04" stop-opacity=".039216"/><stop offset=".4671" stop-color="#c15d2f" stop-opacity=".466667"/><stop offset=".8016" stop-color="#ad4949" stop-opacity=".8"/><stop offset="1" stop-color="#a64153"/></linearGradient><linearGradient id="d" gradientUnits="userSpaceOnUse" x1="374.9689934724" x2="13.83897477" xlink:href="#c" y1="340.7049145136" y2="-433.3024831656"/><linearGradient id="e" gradientUnits="userSpaceOnUse" x1="251.525539646" x2="349.5151535156" xlink:href="#c" y1="117.0387227208" y2="777.6423885346"/><linearGradient id="f" gradientUnits="userSpaceOnUse" x1="521.1740696282" x2="128.5530256298" xlink:href="#c" y1="255.36271" y2="255.36271"/><linearGradient id="g" gradientUnits="userSpaceOnUse" x1="225.818108992" x2="225.818108992" xlink:href="#a" y1="68.1284460184" y2="157.3118568884"/><linearGradient id="h" gradientUnits="userSpaceOnUse" x1="492.4595914076" x2="217.2080723512" xlink:href="#c" y1="504.2974177484" y2="413.4644626402"/><linearGradient id="i" gradientUnits="userSpaceOnUse" x1="492.4907129896" x2="255.4074048434" xlink:href="#c" y1="255.3094017418" y2="273.6595900188"/><linearGradient id="j" gradientUnits="userSpaceOnUse" x1="288.9082819834" x2="63.752470727" xlink:href="#c" y1="454.0171890848" y2="-93.1828452558"/><linearGradient id="k" gradientUnits="userSpaceOnUse" x1="198.8298746504" x2="261.2202136156" y1="318.8711168966" y2="469.3419580226"><stop offset="0" stop-color="#ff6e3a"/><stop offset=".1596" stop-color="#ff6440"/><stop offset=".4266" stop-color="#ff4b52"/><stop offset=".7662" stop-color="#ff216e"/><stop offset="1" stop-color="#ff0084"/></linearGradient><linearGradient id="l" gradientUnits="userSpaceOnUse" x1="256.00002" x2="256.00002" xlink:href="#c" y1="474.2527428778" y2="557.9323521672"/><path d="m465.863281 204.890625v-173.960937c0-17.082032-13.847656-30.929688-30.929687-30.929688h-366.902344c-17.082031 0-30.929688 13.847656-30.929688 30.929688v173.960937l-36.921874 282.253906c-1.632813 12.496094 8.09375 23.582031 20.695312 23.582031h470.25c12.863281 0 22.667969-11.53125 20.597656-24.226562zm0 0" fill="url(#b)"/><path d="m511.722656 486.5-45.859375-281.609375v-173.960937c0-17.082032-13.847656-30.929688-30.929687-30.929688h-366.902344c-17.082031 0-30.929688 13.847656-30.929688 30.929688v97.097656l379.75 382.699218h74.269532c12.867187 0 22.671875-11.53125 20.601562-24.226562zm0 0" fill="url(#d)"/><path d="m434.933594 0h-366.902344c-17.082031 0-30.929688 13.847656-30.929688 30.929688v173.960937h428.761719v-173.960937c0-17.082032-13.847656-30.929688-30.929687-30.929688zm0 0" fill="url(#e)"/><path d="m511.722656 486.5-45.859375-281.609375v-173.960937c0-17.082032-13.847656-30.929688-30.929687-30.929688h-20.699219c16.242187 0 29.40625 13.847656 29.40625 30.929688v173.960937l-42.476563 305.835937h89.957032c12.867187 0 22.671875-11.53125 20.601562-24.226562zm0 0" fill="url(#f)"/><path d="m438.015625.00390625c-6.34375 0-12.078125 2.56640575-16.238281 6.71874975-4.164063 4.160156-6.730469 9.894532-6.730469 16.238282v72.957031c0 13.730469-8.390625 26.066406-21.164063 31.109375l-.007812.003906c-7.894531 3.117188-16.675781 3.117188-24.570312 0l-8.886719-3.507812c-7.894531-3.117188-16.679688-3.117188-24.574219 0l-8.875 3.503906c-7.894531 3.117187-16.679688 3.117187-24.574219.003906l-8.886719-3.511719c-7.894531-3.117187-16.679687-3.117187-24.574218.003907l-8.875 3.503906c-7.894532 3.117187-16.679688 3.117187-24.574219 0l-8.882813-3.507813c-7.894531-3.117187-16.679687-3.117187-24.574218 0l-8.875 3.507813c-7.894532 3.117187-16.679688 3.117187-24.574219 0l-8.875-3.503906c-7.894531-3.121094-16.679687-3.121094-24.574219 0l-8.871094 3.503906c-7.898437 3.117187-16.683593 3.117187-24.578124 0l-8.871094-3.503906c-7.894532-3.121094-16.683594-3.121094-24.578125 0l-8.871094 3.503906c-7.894531 3.117187-16.683594 3.117187-24.578125 0-12.769531-5.042969-21.160156-17.382813-21.160156-31.109375v-40.828125c0-30.421875 24.664062-55.08593775 55.085937-55.08593775zm0 0" fill="url(#g)"/><path d="m506.972656 503.429688-50.390625-47.527344-55.417969 54.824218h89.957032c6.40625 0 12.050781-2.859374 15.851562-7.296874zm0 0" fill="url(#h)"/><path d="m511.722656 486.5-45.859375-281.609375v-173.960937c0-8.652344-3.554687-16.46875-9.28125-22.082032v447.054688l50.390625 47.527344c3.832032-4.472657 5.789063-10.554688 4.75-16.929688zm0 0" fill="url(#i)"/><path d="m335.957031 303.046875c-1.277343-2.023437-3.527343-3.398437-6.132812-3.398437h-229.820313c-3.675781 0-6.773437 2.753906-7.203125 6.40625l-9.300781 79.082031c-.34375 2.898437 1.074219 5.558593 3.355469 6.992187l114.554687 114.550782c1.273438 2.027343 3.523438 3.398437 6.132813 3.398437h229.820312c3.675781 0 6.773438-2.753906 7.203125-6.40625l9.300782-79.082031c.34375-2.898438-1.074219-5.558594-3.359376-6.992188zm0 0" fill="url(#j)"/><path d="m320.519531 393.234375h-229.820312c-4.339844 0-7.710938-3.789063-7.199219-8.097656l9.300781-79.085938c.429688-3.652343 3.527344-6.402343 7.203125-6.402343h229.820313c4.339843 0 7.710937 3.789062 7.203125 8.097656l-9.304688 79.085937c-.429687 3.648438-3.523437 6.402344-7.203125 6.402344zm0 0" fill="url(#k)"/><path d="m.179688 487.144531c-1.632813 12.496094 8.09375 23.582031 20.695312 23.582031h470.25c12.863281 0 22.667969-11.53125 20.597656-24.226562l-8.136718-49.972656h-496.785157zm0 0" fill="url(#l)"/></svg>