<svg height="512pt" viewBox="0 -51 512 512" width="512pt" xmlns="http://www.w3.org/2000/svg" xmlns:xlink="http://www.w3.org/1999/xlink"><linearGradient id="a" gradientUnits="userSpaceOnUse" x1="170.5559070112" x2="317.051116625" y1="-118.589769903" y2="369.7278297248"><stop offset="0" stop-color="#fffcf8"/><stop offset=".1875" stop-color="#faf8f6"/><stop offset=".4041" stop-color="#eceef2"/><stop offset=".6353" stop-color="#d5dcea"/><stop offset=".875" stop-color="#b5c4df"/><stop offset="1" stop-color="#a1b5d8"/></linearGradient><linearGradient id="b"><stop offset="0" stop-color="#45425a"/><stop offset="1" stop-color="#2d3251"/></linearGradient><linearGradient id="c" gradientUnits="userSpaceOnUse" x1="256.00011" x2="256.00011" xlink:href="#b" y1="61.4668533474" y2="132.7331678912"/><linearGradient id="d"><stop offset="0" stop-color="#a1b5d8" stop-opacity="0"/><stop offset=".0343" stop-color="#9fb3d5" stop-opacity=".035294"/><stop offset=".4515" stop-color="#8898af" stop-opacity=".45098"/><stop offset=".788" stop-color="#798898" stop-opacity=".788235"/><stop offset="1" stop-color="#748290"/></linearGradient><linearGradient id="e" gradientUnits="userSpaceOnUse" x1="256.00011" x2="256.00011" xlink:href="#d" y1="306.967746287" y2="349.1614836328"/><linearGradient id="f" gradientUnits="userSpaceOnUse" x1="28.2063932964" x2="146.8242952454" xlink:href="#b" y1="194.6463427298" y2="194.6463427298"/><linearGradient id="g" gradientUnits="userSpaceOnUse" x1="28.2063932964" x2="146.8242952454" xlink:href="#b" y1="245.3543425576" y2="245.3543425576"/><linearGradient id="h" gradientUnits="userSpaceOnUse" x1="28.2063932964" x2="122.6615993728" xlink:href="#b" y1="296.0624427776" y2="296.0624427776"/><linearGradient id="i" gradientUnits="userSpaceOnUse" x1="447.5282487678" x2="447.5282487678" xlink:href="#d" y1="19.1721214484" y2="95.1042638794"/><linearGradient id="j" gradientUnits="userSpaceOnUse" x1="459.0154254684" x2="238.8985999066" xlink:href="#d" y1="406.7579946558" y2="186.641169094"/><linearGradient id="k" gradientUnits="userSpaceOnUse" x1="214.6527792924" x2="454.156744165" xlink:href="#b" y1="289.4162783532" y2="289.4162783532"/><linearGradient id="l" gradientTransform="matrix(-1.003922 0 0 1.003922 903.056063 -51.415843)" gradientUnits="userSpaceOnUse" x1="566.4301" x2="566.4301" y1="320.6547" y2="533.8102"><stop offset="0" stop-color="#c08552" stop-opacity="0"/><stop offset=".2599" stop-color="#bc8150" stop-opacity=".258824"/><stop offset=".5412" stop-color="#af764a" stop-opacity=".541176"/><stop offset=".8314" stop-color="#996440" stop-opacity=".831373"/><stop offset="1" stop-color="#895738"/></linearGradient><linearGradient id="m" gradientTransform="matrix(-1.003922 0 0 1.003922 903.056063 -51.415843)" gradientUnits="userSpaceOnUse" x1="566.4301" x2="566.4301" y1="368.3661" y2="152.9637"><stop offset="0" stop-color="#c08552" stop-opacity="0"/><stop offset=".3127" stop-color="#bd8251" stop-opacity=".313725"/><stop offset=".5564" stop-color="#b37a4c" stop-opacity=".556863"/><stop offset=".7769" stop-color="#a36c44" stop-opacity=".776471"/><stop offset=".9824" stop-color="#8b5939" stop-opacity=".984314"/><stop offset="1" stop-color="#895738"/></linearGradient><linearGradient id="n" gradientTransform="matrix(-1.003922 0 0 1.003922 903.056063 -51.415843)" gradientUnits="userSpaceOnUse" x1="566.4301" x2="566.4301" y1="343.1071" y2="411.9961"><stop offset="0" stop-color="#c08552" stop-opacity="0"/><stop offset=".2749" stop-color="#b67d4d" stop-opacity=".27451"/><stop offset=".7436" stop-color="#9b6640" stop-opacity=".745098"/><stop offset="1" stop-color="#895738"/></linearGradient><linearGradient id="o" gradientTransform="matrix(-1.003922 0 0 1.003922 903.056063 -51.415843)" gradientUnits="userSpaceOnUse" x1="566.4301" x2="566.4301" y1="365.5595" y2="248.2519"><stop offset="0" stop-color="#c08552" stop-opacity="0"/><stop offset=".4133" stop-color="#be8351" stop-opacity=".411765"/><stop offset=".6237" stop-color="#b67d4d" stop-opacity=".623529"/><stop offset=".7882" stop-color="#a97247" stop-opacity=".788235"/><stop offset=".9281" stop-color="#96623e" stop-opacity=".929412"/><stop offset="1" stop-color="#895738"/></linearGradient><linearGradient id="p"><stop offset="0" stop-color="#ffc738"/><stop offset=".2837" stop-color="#ffc534"/><stop offset=".5391" stop-color="#ffbf29"/><stop offset=".7827" stop-color="#ffb417"/><stop offset="1" stop-color="#ffa700"/></linearGradient><radialGradient id="q" cx="522.0479" cy="307.3237" gradientTransform="matrix(-1.003922 0 0 1.003922 903.056063 -51.415843)" gradientUnits="userSpaceOnUse" r="166.9905" xlink:href="#p"/><radialGradient id="r" cx="556.958" cy="339.5006" gradientTransform="matrix(-1.003922 0 0 1.003922 903.056063 -51.415843)" gradientUnits="userSpaceOnUse" r="104.4546"><stop offset="0" stop-color="#fffcf8"/><stop offset=".9485" stop-color="#fffcf8" stop-opacity=".05098"/><stop offset="1" stop-color="#fffcf8" stop-opacity="0"/></radialGradient><radialGradient id="s" cx="362.415842" cy="279.878417" gradientUnits="userSpaceOnUse" r="169.4227802498"><stop offset="0" stop-color="#ffa700"/><stop offset=".3227" stop-color="#fca300"/><stop offset=".6649" stop-color="#f39600"/><stop offset="1" stop-color="#e58200"/></radialGradient><radialGradient id="t" cx="532.7342" cy="309.5668" gradientTransform="matrix(-1.003922 0 0 1.003922 903.056063 -51.415843)" gradientUnits="userSpaceOnUse" r="127.22" xlink:href="#p"/><linearGradient id="u" gradientUnits="userSpaceOnUse" x1="390.5958559814" x2="309.352263425" y1="312.8960060892" y2="294.1114207628"><stop offset="0" stop-color="#ffa700" stop-opacity="0"/><stop offset=".0206" stop-color="#fea600" stop-opacity=".019608"/><stop offset=".6348" stop-color="#ec8c00" stop-opacity=".635294"/><stop offset="1" stop-color="#e58200"/></linearGradient><linearGradient id="v" gradientUnits="userSpaceOnUse" x1="332.4356189218" x2="379.3689724218" xlink:href="#b" y1="277.5466073706" y2="316.6995653706"/><path d="m494.703125 332.449219h-477.40625c-9.550781 0-17.296875-7.746094-17.296875-17.296875v-297.855469c0-9.550781 7.746094-17.296875 17.296875-17.296875h477.40625c9.550781 0 17.296875 7.746094 17.296875 17.296875v297.855469c0 9.550781-7.746094 17.296875-17.296875 17.296875zm0 0" fill="url(#a)"/><path d="m0 71.722656h512v70.84375h-512zm0 0" fill="url(#c)"/><path d="m0 270.410156v44.742188c0 9.550781 7.746094 17.296875 17.296875 17.296875h477.40625c9.550781 0 17.296875-7.746094 17.296875-17.296875v-44.742188zm0 0" fill="url(#e)"/><path d="m28.207031 184.386719h118.617188v20.519531h-118.617188zm0 0" fill="url(#f)"/><path d="m28.207031 235.09375h118.617188v20.519531h-118.617188zm0 0" fill="url(#g)"/><path d="m28.207031 285.800781h94.453125v20.523438h-94.453125zm0 0" fill="url(#h)"/><path d="m410.332031 44.25h74.390625v15.359375h-74.390625zm0 0" fill="url(#i)"/><path d="m512 315.152344v-17.460938l-91.40625-91.40625c-21.78125-22.574218-52.34375-36.621094-86.191406-36.621094-66.136719 0-119.75 53.613282-119.75 119.75 0 15.171876 2.828125 29.679688 7.976562 43.035157h272.074219c9.550781 0 17.296875-7.746094 17.296875-17.296875zm0 0" fill="url(#j)"/><path d="m454.15625 289.417969c0 66.136719-53.613281 119.75-119.753906 119.75-66.136719 0-119.75-53.613281-119.75-119.75s53.613281-119.753907 119.75-119.753907c66.140625 0 119.753906 53.617188 119.753906 119.753907zm0 0" fill="url(#k)"/><path d="m454.15625 289.417969c0 42.738281-22.394531 80.246093-56.089844 101.4375h-127.324218c-33.691407-21.191407-56.089844-58.695313-56.089844-101.4375 0-42.742188 22.398437-80.246094 56.089844-101.4375h127.324218c33.695313 21.191406 56.089844 58.695312 56.089844 101.4375zm0 0" fill="url(#l)"/><path d="m454.15625 289.417969c0 30.488281-11.402344 58.3125-30.167969 79.453125h-179.167969c-18.765624-21.140625-30.167968-48.964844-30.167968-79.453125 0-30.492188 11.402344-58.316407 30.167968-79.457031h179.167969c18.765625 21.140624 30.167969 48.964843 30.167969 79.457031zm0 0" fill="url(#m)"/><path d="m454.15625 289.417969c0 17.820312-3.898438 34.726562-10.878906 49.925781h-217.746094c-6.980469-15.199219-10.878906-32.105469-10.878906-49.925781 0-17.820313 3.898437-34.730469 10.878906-49.929688h217.746094c6.980468 15.199219 10.878906 32.109375 10.878906 49.929688zm0 0" fill="url(#n)"/><path d="m454.15625 289.417969c0 10.3125-1.308594 20.320312-3.761719 29.871093h-231.980469c-2.453124-9.550781-3.761718-19.558593-3.761718-29.871093 0-10.316407 1.308594-20.324219 3.761718-29.875h231.980469c2.453125 9.550781 3.761719 19.558593 3.761719 29.875zm0 0" fill="url(#o)"/><path d="m343.914062 170.039062c61.691407 4.847657 110.242188 56.441407 110.242188 119.375 0 62.9375-48.550781 114.53125-110.242188 119.378907-61.691406-4.847657-110.242187-56.441407-110.242187-119.378907 0-62.933593 48.550781-114.527343 110.242187-119.375zm0 0" fill="url(#q)"/><path d="m337.714844 181c4.113281-.558594 8.285156-.558594 12.398437 0 53.390625 7.261719 94.535157 53.03125 94.535157 108.414062 0 55.382813-41.144532 101.15625-94.535157 108.417969-4.113281.558594-8.285156.558594-12.398437 0-53.390625-7.261719-94.535156-53.03125-94.535156-108.417969 0-55.382812 41.144531-101.152343 94.535156-108.414062zm0 0" fill="url(#r)"/><path d="m424.480469 289.417969c0-48.253907-35.855469-87.375-80.082031-87.375-44.222657 0-80.078126 39.121093-80.078126 87.375 0 48.253906 35.855469 87.371093 80.078126 87.371093 44.226562 0 80.082031-39.117187 80.082031-87.371093zm0 0" fill="url(#s)"/><path d="m322.414062 205.382812c9.96875-3.097656 20.621094-3.097656 30.589844 0 33.535156 10.425782 58.09375 44.097657 58.09375 84.03125 0 40.71875-25.527344 74.925782-60.074218 84.617188-8.695313 2.441406-17.929688 2.441406-26.628907 0-34.546875-9.691406-60.070312-43.898438-60.070312-84.617188-.003907-39.933593 24.554687-73.605468 58.089843-84.03125zm0 0" fill="url(#t)"/><path d="m424.007812 302.648438-53.007812-53.011719c-.960938-1.675781-2.960938-3.058594-6.003906-4.152344-3.121094-1.121094-6.445313-1.882813-9.96875-2.304687l-4.652344-4.148438c-.09375-.65625-.476562-1.25-1.191406-1.777344-.820313-.605468-1.707032-.910156-2.65625-.910156-1.035156 0-1.921875.304688-2.65625.910156-.734375.605469-1.101563 1.296875-1.101563 2.070313v3.761719c-6.996093.777343-12.851562 3.109374-17.558593 6.996093-4.710938 3.890625-7.066407 9.585938-7.066407 17.089844 0 2.675781.304688 5.109375.910157 7.308594.601562 2.199219 1.597656 4.117187 2.980468 5.757812 1.378906 1.636719 2.699219 3.039063 3.953125 4.203125.066407.0625.140625.125.207031.183594l16.574219 16.613281v21.679688c-3.828125-.257813-7.199219-1.25-10.117187-2.976563-2.914063-1.722656-5.207032-3.335937-6.871094-4.847656-1.671875-1.511719-3.015625-2.265625-4.042969-2.265625-1.546875 0-2.917969.820313-4.121093 2.460937-1.203126 1.636719-1.804688 3.273438-1.804688 4.914063 0 2.683594 1.558594 5.328125 4.660156 7.9375l45.550782 45.550781c30.15625-9 53.210937-36.746094 57.984374-71.042968zm0 0" fill="url(#u)"/><path d="m371.941406 297.375c-1.289062-3.148438-3.199218-5.757812-5.734375-7.824219-2.535156-2.070312-4.945312-3.6875-7.222656-4.851562-2.273437-1.164063-5.132813-2.390625-8.566406-3.6875v-26.261719c3.453125.257812 6.730469 1.121094 9.828125 2.589844 3.09375 1.472656 4.984375 2.203125 5.675781 2.203125 1.742187 0 3.136719-.839844 4.179687-2.523438 1.046876-1.6875 1.570313-3.304687 1.570313-4.863281 0-2.847656-2.226563-5.074219-6.675781-6.671875-4.449219-1.597656-9.308594-2.484375-14.578125-2.65625v-3.5c0-.777344-.410157-1.46875-1.234375-2.074219-.820313-.601562-1.707032-.90625-2.65625-.90625-1.035156 0-1.921875.304688-2.65625.90625-.734375.605469-1.101563 1.296875-1.101563 2.074219v3.757813c-6.996093.777343-12.851562 3.109374-17.558593 7-4.710938 3.886718-7.066407 9.585937-7.066407 17.089843 0 2.671875.300781 5.109375.910157 7.308594.601562 2.199219 1.597656 4.117187 2.980468 5.753906 1.378906 1.636719 2.699219 3.039063 3.953125 4.203125 1.25 1.164063 3.023438 2.285156 5.3125 3.363282 2.289063 1.078124 4.125 1.898437 5.507813 2.457031 1.382812.5625 3.371094 1.316406 5.960937 2.265625v30.390625c-3.828125-.257813-7.199219-1.25-10.113281-2.972657-2.917969-1.722656-5.207031-3.339843-6.875-4.851562-1.667969-1.507812-3.015625-2.265625-4.039062-2.265625-1.546876 0-2.921876.820313-4.125 2.460937-1.203126 1.636719-1.800782 3.273438-1.800782 4.914063 0 3.484375 2.613282 6.902344 7.839844 10.253906 5.226562 3.355469 11.597656 5.074219 19.113281 5.160157v3.941406c0 .765625.367188 1.445312 1.101563 2.039062.734375.589844 1.621094.886719 2.660156.886719.949219 0 1.832031-.296875 2.65625-.890625.820312-.59375 1.230469-1.273438 1.230469-2.035156v-4.332032c7.21875-1.039062 12.929687-3.835937 17.140625-8.390624 4.210937-4.550782 6.316406-10.6875 6.316406-18.40625 0-4.222657-.648438-7.910157-1.933594-11.054688zm-28.394531-18.820312c-4.191406-1.550782-7.332031-3.210938-9.425781-4.976563-2.097656-1.765625-3.144532-4.332031-3.144532-7.695313 0-6.222656 4.191407-9.851562 12.570313-10.886718zm6.09375 44.105468v-27.289062c3.628906 1.550781 6.433594 3.40625 8.421875 5.5625 1.988281 2.152344 2.980469 5.128906 2.980469 8.921875 0 7.15625-3.800781 11.421875-11.402344 12.804687zm0 0" fill="url(#v)"/></svg>