<svg height="512pt" viewBox="0 0 512.00045 512" width="512pt" xmlns="http://www.w3.org/2000/svg" xmlns:xlink="http://www.w3.org/1999/xlink"><linearGradient id="a"><stop offset="0" stop-color="#ffd459"/><stop offset=".2296" stop-color="#ffd355"/><stop offset=".4362" stop-color="#ffcf4a"/><stop offset=".634" stop-color="#ffc838"/><stop offset=".825" stop-color="#ffbf1f"/><stop offset="1" stop-color="#ffb400"/></linearGradient><linearGradient id="b" gradientUnits="userSpaceOnUse" x1="178.4178954088" x2="252.7206724338" xlink:href="#a" y1="90.7645120734" y2="225.4383393528"/><linearGradient id="c" gradientUnits="userSpaceOnUse" x1="166.4410055566" x2="317.0368349716" y1="105.0092617236" y2="345.1663782494"><stop offset="0" stop-color="#c6e56f"/><stop offset=".3371" stop-color="#c4e56f"/><stop offset=".4953" stop-color="#bce36e"/><stop offset=".6162" stop-color="#afe16d"/><stop offset=".7182" stop-color="#9ddd6b"/><stop offset=".8083" stop-color="#85d968"/><stop offset=".8899" stop-color="#68d365"/><stop offset=".9635" stop-color="#46cd61"/><stop offset="1" stop-color="#32c95f"/></linearGradient><linearGradient id="d"><stop offset="0" stop-color="#ff6e3a"/><stop offset=".1596" stop-color="#ff6440"/><stop offset=".4266" stop-color="#ff4b52"/><stop offset=".7662" stop-color="#ff216e"/><stop offset="1" stop-color="#ff0084"/></linearGradient><linearGradient id="e" gradientUnits="userSpaceOnUse" x1="126.0085489676" x2="245.6445282168" xlink:href="#d" y1="21.921866022" y2="141.5578452712"/><linearGradient id="f" gradientUnits="userSpaceOnUse" x1="311.765441334" x2="431.4014205832" xlink:href="#d" y1="85.8896676258" y2="205.525646875"/><radialGradient id="g" cx="192.3168943222" cy="177.9267267808" gradientUnits="userSpaceOnUse" r="252.741881149" xlink:href="#a"/><radialGradient id="h" cx="277.8234408672" cy="301.173311503" gradientUnits="userSpaceOnUse" r="288.52216319"><stop offset="0" stop-color="#ffd459" stop-opacity="0"/><stop offset=".4062" stop-color="#ffd45b" stop-opacity=".407843"/><stop offset=".5525" stop-color="#ffd662" stop-opacity=".552941"/><stop offset=".6568" stop-color="#ffd96d" stop-opacity=".654902"/><stop offset=".7412" stop-color="#ffde7e" stop-opacity=".741176"/><stop offset=".8134" stop-color="#ffe394" stop-opacity=".811765"/><stop offset=".8774" stop-color="#ffeab0" stop-opacity=".878431"/><stop offset=".9353" stop-color="#fff3d0" stop-opacity=".937255"/><stop offset=".9867" stop-color="#fffcf4" stop-opacity=".988235"/><stop offset="1" stop-color="#fff"/></radialGradient><linearGradient id="i"><stop offset="0" stop-color="#e58200" stop-opacity="0"/><stop offset=".0396" stop-color="#e27f04" stop-opacity=".039216"/><stop offset=".4671" stop-color="#c15d2f" stop-opacity=".466667"/><stop offset=".8016" stop-color="#ad4949" stop-opacity=".8"/><stop offset="1" stop-color="#a64153"/></linearGradient><linearGradient id="j" gradientUnits="userSpaceOnUse" x1="245.195373514" x2="204.5058125008" xlink:href="#i" y1="290.2806574108" y2="385.8127706166"/><linearGradient id="k" gradientUnits="userSpaceOnUse" x1="255.2243535096" x2="291.491236544" xlink:href="#i" y1="265.0367375442" y2="361.4534064242"/><linearGradient id="l"><stop offset="0" stop-color="#fffcf8"/><stop offset=".1875" stop-color="#faf8f6"/><stop offset=".4041" stop-color="#eceef2"/><stop offset=".6353" stop-color="#d5dcea"/><stop offset=".875" stop-color="#b5c4df"/><stop offset="1" stop-color="#a1b5d8"/></linearGradient><linearGradient id="m" gradientUnits="userSpaceOnUse" x1="257.6807498592" x2="426.6194389206" xlink:href="#l" y1="299.0131725356" y2="532.5658877922"/><linearGradient id="n" gradientUnits="userSpaceOnUse" x1="64.8098654164" x2="170.3087154538" xlink:href="#l" y1="263.1794818442" y2="409.0283664744"/><linearGradient id="o" gradientUnits="userSpaceOnUse" x1="513.567316281" x2="300.0159398148" y1="365.5174834646" y2="151.9661069984"><stop offset="0" stop-color="#a1b5d8" stop-opacity="0"/><stop offset=".0343" stop-color="#9fb3d5" stop-opacity=".035294"/><stop offset=".4515" stop-color="#8898af" stop-opacity=".45098"/><stop offset=".788" stop-color="#798898" stop-opacity=".788235"/><stop offset="1" stop-color="#748290"/></linearGradient><linearGradient id="p" gradientUnits="userSpaceOnUse" x1="264.0763353524" x2="282.6520045106" xlink:href="#l" y1="302.7811929782" y2="429.4939187976"/><linearGradient id="q" gradientUnits="userSpaceOnUse" x1="227.3434317256" x2="173.2986963464" xlink:href="#i" y1="217.513479477" y2="163.4687440978"/><linearGradient id="r" gradientUnits="userSpaceOnUse" x1="325.6809045682" x2="277.8611883344" xlink:href="#i" y1="237.9735102292" y2="190.1537939954"/><linearGradient id="s" gradientUnits="userSpaceOnUse" x1="245.4721548094" x2="197.9237986922" xlink:href="#i" y1="272.3364551906" y2="224.7879986812"/><linearGradient id="t" gradientUnits="userSpaceOnUse" x1="326.8796878284" x2="282.97597014" xlink:href="#i" y1="280.2779801716" y2="236.3743628754"/><linearGradient id="u" gradientUnits="userSpaceOnUse" x1="303.85252813" x2="246.176707269" xlink:href="#i" y1="215.6293186674" y2="157.9534978064"/><linearGradient id="v" gradientUnits="userSpaceOnUse" x1="267.2436088702" x2="223.852995716" xlink:href="#i" y1="302.4343379272" y2="259.0438251652"/><linearGradient id="w" gradientUnits="userSpaceOnUse" x1="265.9500553732" x2="217.8449241148" xlink:href="#i" y1="244.4964934242" y2="196.3913621658"/><linearGradient id="x" gradientUnits="userSpaceOnUse" x1="207.8101213716" x2="174.388754854" xlink:href="#i" y1="276.5344554258" y2="243.112988516"/><linearGradient id="y" gradientUnits="userSpaceOnUse" x1="295.5080288582" x2="238.3678003842" xlink:href="#i" y1="274.169817547" y2="217.0294886808"/><linearGradient id="z"><stop offset="0" stop-color="#c08552"/><stop offset=".2109" stop-color="#aa7247"/><stop offset=".4564" stop-color="#97633f"/><stop offset=".7138" stop-color="#8d5a3a"/><stop offset="1" stop-color="#895738"/></linearGradient><linearGradient id="A" gradientUnits="userSpaceOnUse" x1="203.5214669798" x2="213.8952941824" xlink:href="#z" y1="198.8784785286" y2="198.8784785286"/><linearGradient id="B" gradientUnits="userSpaceOnUse" x1="269.5020318014" x2="279.875859004" xlink:href="#z" y1="253.3506838954" y2="253.3506838954"/><linearGradient id="C" gradientUnits="userSpaceOnUse" x1="302.2198497814" x2="312.593676984" xlink:href="#z" y1="219.6993188476" y2="219.6993188476"/><linearGradient id="D" gradientTransform="matrix(.788882 -.620925 .620925 .788882 -109.877736 181.174035)" gradientUnits="userSpaceOnUse" x1="213.327" x2="223.6603" xlink:href="#z" y1="261.1772" y2="261.1772"/><linearGradient id="E" gradientTransform="matrix(.788882 -.620925 .620925 .788882 -109.877736 181.174035)" gradientUnits="userSpaceOnUse" x1="272.3732" x2="282.7065" xlink:href="#z" y1="319.4243" y2="319.4243"/><linearGradient id="F" gradientTransform="matrix(.719812 .699834 -.699834 .719812 268.057574 -158.164606)" gradientUnits="userSpaceOnUse" x1="253.0514" x2="263.3847" xlink:href="#z" y1="241.7149" y2="241.7149"/><linearGradient id="G" gradientTransform="matrix(.719812 .699834 -.699834 .719812 268.057574 -158.164606)" gradientUnits="userSpaceOnUse" x1="288.7774" x2="299.1107" xlink:href="#z" y1="329.1508" y2="329.1508"/><linearGradient id="H" gradientTransform="matrix(-.323965 .950212 -.950212 -.323965 580.612491 81.459726)" gradientUnits="userSpaceOnUse" x1="238.0514" x2="248.3847" xlink:href="#z" y1="267.9335" y2="267.9335"/><linearGradient id="I" gradientTransform="matrix(.719812 .699834 -.699834 .719812 268.057574 -158.164606)" gradientUnits="userSpaceOnUse" x1="233.3012" x2="243.6346" xlink:href="#z" y1="351.9937" y2="351.9937"/><path d="m462.90625 81.113281v304.757813c-20.992188 36.222656-51.1875 66.421875-87.410156 87.414062h-239.867188c-36.222656-20.992187-66.421875-51.191406-87.410156-87.414062v-304.757813c0-12.433593 10.085938-22.515625 22.515625-22.515625h369.65625c12.433594-.003906 22.515625 10.082032 22.515625 22.515625zm0 0" fill="url(#b)"/><path d="m503.175781 236.035156-.078125.144532c-4.273437 7.109374-6.980468 14.875-8.148437 22.808593-.847657 5.71875-.886719 11.515625-.117188 17.246094-1.671875 39.832031-13.097656 77.15625-31.925781 109.636719-2.957031 5.109375-6.101562 10.097656-9.421875 14.953125-4.164063 4.21875-7.707031 9.011719-10.492187 14.238281-18.617188 23.351562-41.503907 43.160156-67.496094 58.21875-12.3125 7.140625-25.304688 13.203125-38.875 18.074219-6 .96875-11.824219 2.8125-17.277344 5.476562-20.3125 5.613281-41.703125 8.597657-63.78125 8.597657-23.207031 0-45.65625-3.300782-66.886719-9.472657-.011719 0-.011719 0-.011719 0-5.425781-2.746093-11.222656-4.667969-17.207031-5.71875-12.472656-4.667969-24.441406-10.347656-35.828125-16.957031-26.972656-15.628906-50.617187-36.367188-69.589844-60.902344-2.695312-5.1875-6.117187-9.976562-10.179687-14.195312-2.667969-4.023438-5.214844-8.121094-7.640625-12.3125-19.359375-33.386719-30.875-71.890625-32.042969-112.980469.847657-5.71875.886719-11.519531.117188-17.25-1.058594-7.933594-3.675781-15.710937-7.828125-22.859375l-.066406-.121094c-18.707032-32.203125-4.960938-73.507812 29.308593-88.074218l.09375-.042969c7.5625-3.207031 14.265625-7.828125 19.835938-13.492188 4.167969-4.21875 7.710937-9.007812 10.496093-14.234375 3.78125-7.019531 6.210938-14.808594 7.046876-23.007812 3.261718-32.28125 30.542968-55.6875 61.5-55.6875 4.617187 0 9.3125.515625 14.023437 1.605468v.011719c7.949219 1.832031 16.027344 2.042969 23.804687.785157 5.996094-.972657 11.820313-2.816407 17.273438-5.480469 7.097656-3.464844 13.574219-8.308594 19.011719-14.382813 12.316406-13.785156 29.246093-20.660156 46.148437-20.660156 17.210938 0 34.40625 7.113281 46.730469 21.296875 5.347656 6.140625 11.746094 11.066406 18.777344 14.621094h.011719c5.425781 2.746093 11.226562 4.667969 17.210937 5.71875 3.527344.621093 7.109375.941406 10.71875.941406 4.339844 0 8.71875-.453125 13.070313-1.394531l.105468-.027344c36.394532-7.851562 71.449219 17.96875 74.742188 55.066406l.011718.132813c.71875 8.226562 3.066407 16.054687 6.765626 23.140625 2.695312 5.1875 6.117187 9.976562 10.179687 14.195312 5.492187 5.757813 12.152344 10.496094 19.6875 13.828125l.144531.066407c34.050782 15.046874 47.210938 56.523437 28.078125 88.449218zm0 0" fill="url(#c)"/><path d="m286.078125 97.628906c0 46.59375-37.769531 84.363282-84.363281 84.363282s-84.363282-37.769532-84.363282-84.363282 37.769532-84.363281 84.363282-84.363281 84.363281 37.769531 84.363281 84.363281zm0 0" fill="url(#e)"/><path d="m471.835938 161.597656c0 46.59375-37.769532 84.363282-84.363282 84.363282s-84.363281-37.769532-84.363281-84.363282 37.769531-84.367187 84.363281-84.367187 84.363282 37.773437 84.363282 84.367187zm0 0" fill="url(#f)"/><path d="m488.640625 265.941406c0 128.726563-104.351563 233.078125-233.078125 233.078125s-233.078125-104.351562-233.078125-233.078125c0-128.726562 104.351563-233.082031 233.078125-233.082031s233.078125 104.355469 233.078125 233.082031zm0 0" fill="url(#g)"/><g fill="#ffb211"><path d="m75.214844 192.613281c-2.378906-2.378906-6.234375-2.378906-8.613282 0-2.378906 2.378907-2.378906 6.234375 0 8.613281 2.378907 2.378907 6.234376 2.378907 8.613282 0 2.378906-2.378906 2.378906-6.234374 0-8.613281zm0 0"/><path d="m128.179688 154.074219c-3.765626-3.765625-9.875-3.765625-13.640626 0-3.765624 3.765625-3.765624 9.875 0 13.640625 3.765626 3.765625 9.875 3.765625 13.640626 0 3.765624-3.765625 3.765624-9.875 0-13.640625zm0 0"/><path d="m95.339844 148.835938c-5.796875-5.796876-15.191406-5.796876-20.988282 0-5.792968 5.792968-5.792968 15.191406 0 20.984374 5.796876 5.796876 15.191407 5.796876 20.988282 0 5.796875-5.792968 5.796875-15.191406 0-20.984374zm0 0"/><path d="m438.042969 166.441406c-6.722657-1.945312-13.753907 1.925782-15.699219 8.652344-1.945312 6.722656 1.925781 13.75 8.652344 15.699219 6.722656 1.945312 13.75-1.925781 15.699218-8.652344 1.945313-6.722656-1.925781-13.753906-8.652343-15.699219zm0 0"/><path d="m396.929688 181.238281c-10.34375-2.996093-21.160157 2.960938-24.152344 13.308594-2.996094 10.34375 2.960937 21.15625 13.308594 24.152344 10.34375 2.996093 21.15625-2.964844 24.152343-13.308594 2.996094-10.34375-2.964843-21.15625-13.308593-24.152344zm0 0"/></g><path d="m471.835938 265.941406c0 119.445313-96.828126 216.273438-216.273438 216.273438s-216.273438-96.828125-216.273438-216.273438c0-119.445312 96.828126-216.277344 216.273438-216.277344s216.273438 96.832032 216.273438 216.277344zm0 0" fill="url(#h)"/><path d="m477.679688 336.734375-431.453126-173.371094c-15.199218 30.953125-23.742187 65.765625-23.742187 102.578125 0 128.722656 104.351563 233.078125 233.078125 233.078125 104.042969 0 192.148438-68.175781 222.117188-162.285156zm0 0" fill="url(#j)"/><path d="m458.917969 151.992188-433.441407 151.308593c17.882813 110.960938 114.078126 195.71875 230.085938 195.71875 128.726562 0 233.078125-104.355469 233.078125-233.082031 0-41.390625-10.800781-80.253906-29.722656-113.945312zm0 0" fill="url(#k)"/><path d="m498.058594 262.269531c0-11.355469-.765625-22.527343-2.242188-33.480469-.636718-4.734374-5.503906-7.660156-10.011718-6.085937l-447.222657 156.117187c-4.507812 1.574219-6.496093 6.898438-4.046875 11 43.5 72.910157 123.160156 121.746094 214.226563 121.746094 137.683593 0 249.296875-111.613281 249.296875-249.296875zm0 0" fill="url(#m)"/><path d="m38.582031 378.820312 183.054688-63.902343-196.3125-68.527344c-4.511719-1.574219-9.378907 1.351563-10.015625 6.085937-1.472656 10.949219-2.242188 22.125-2.242188 33.480469 0 35.207031 7.3125 68.699219 20.476563 99.0625.359375-2.722656 2.195312-5.207031 5.039062-6.199219zm0 0" fill="url(#n)"/><path d="m485.804688 222.703125-89.332032 31.183594v115.679687l58.605469 32.671875c27.125-39.902343 42.980469-88.082031 42.980469-139.96875 0-11.355469-.765625-22.527343-2.242188-33.480469-.636718-4.734374-5.503906-7.660156-10.011718-6.085937zm0 0" fill="url(#o)"/><path d="m495.8125 228.769531c-.632812-4.726562-5.5-7.640625-10-6.070312l-447.230469 156.121093c-2.84375.992188-4.679687 3.472657-5.039062 6.199219l176.175781-45.089843c54.382812-13.917969 111.960938-7.761719 162.171875 17.34375l27.046875 13.523437c9.71875 4.863281 21.542969 1.496094 27.246094-7.753906l62.601562-101.546875c5.980469-9.699219 8.570313-21.160156 7.066406-32.457032-.011718-.089843-.023437-.179687-.039062-.269531zm0 0" fill="url(#p)"/><path d="m211.875 190.113281c-.878906-1.445312-1.972656-2.316406-3.167969-2.316406-2.863281 0-5.1875 4.960937-5.1875 11.082031 0 5.308594 1.746094 9.734375 4.078125 10.820313l102.871094 102.871093c.878906 1.449219 1.972656 2.316407 3.167969 2.316407 2.863281 0 5.1875-4.960938 5.1875-11.078125 0-5.308594-1.746094-9.738282-4.078125-10.824219zm0 0" fill="url(#q)"/><path d="m310.574219 210.933594c-.878907-1.445313-1.972657-2.316406-3.167969-2.316406-2.863281 0-5.1875 4.960937-5.1875 11.082031 0 5.308593 1.746094 9.734375 4.078125 10.820312l102.871094 102.871094c.878906 1.449219 1.972656 2.316406 3.167969 2.316406 2.863281 0 5.1875-4.960937 5.1875-11.078125 0-5.308594-1.746094-9.738281-4.078126-10.824218zm0 0" fill="url(#r)"/><path d="m227.925781 247.34375c-3.648437-4.15625-8.027343-6.175781-10.121093-4.527344-2.25 1.773438-1.007813 7.105469 2.78125 11.914063.90625 1.15625 1.878906 2.171875 2.867187 3.03125l102.871094 102.871093c3.648437 4.15625 8.023437 6.175782 10.117187 4.527344 2.253906-1.773437 1.007813-7.105468-2.777344-11.917968zm0 0" fill="url(#s)"/><path d="m310.671875 256.625c-3.648437-4.15625-8.027344-6.175781-10.121094-4.527344-2.25 1.773438-1.003906 7.105469 2.78125 11.914063l105.738281 105.902343c3.648438 4.15625 8.027344 6.175782 10.117188 4.527344 2.253906-1.773437 1.007812-7.105468-2.777344-11.917968-.910156-1.152344-1.882812-2.167969-2.867187-3.027344zm0 0" fill="url(#t)"/><path d="m292.476562 188.582031c-2.054687-1.996093-7.175781-.058593-11.445312 4.332031-4.265625 4.386719-6.058594 9.5625-4.003906 11.558594l104.929687 104.929688c2.050781 1.996094 7.175781.058594 11.441407-4.328125 4.265624-4.386719 6.058593-9.5625 4.007812-11.558594zm0 0" fill="url(#u)"/><path d="m257 276.519531c-2.054688-1.996093-7.175781-.058593-11.445312 4.328125-4.265626 4.390625-6.058594 9.566406-4.003907 11.5625l104.929688 104.929688c2.050781 1.996094 7.175781.058594 11.441406-4.332032 4.265625-4.386718 6.058594-9.5625 4.007813-11.558593zm0 0" fill="url(#v)"/><path d="m256.886719 226.03125c-1.429688-1.960938-4.339844-3.925781-7.984375-5.167969-5.792969-1.976562-11.238282-1.378906-12.164063 1.332031-.550781 1.613282.628907 3.605469 2.886719 5.375l102.871094 102.871094c1.429687 1.960938 4.339844 3.925782 7.984375 5.167969 5.792969 1.976563 11.238281 1.378906 12.164062-1.332031.546875-1.613282-.632812-3.605469-2.886719-5.375zm0 0" fill="url(#w)"/><path d="m201.082031 254.136719c-2.054687-1.996094-7.175781-.058594-11.445312 4.328125-4.265625 4.390625-6.058594 9.5625-4.003907 11.5625l104.929688 104.925781c2.054688 2 7.175781.0625 11.441406-4.328125 4.269532-4.386719 6.0625-9.5625 4.007813-11.558594zm0 0" fill="url(#x)"/><path d="m277.855469 244.585938c-.878907-1.445313-1.972657-2.316407-3.167969-2.316407-2.863281 0-5.1875 4.960938-5.1875 11.082031 0 5.304688 1.746094 9.734376 4.078125 10.820313l102.871094 102.871094c.878906 1.449219 1.972656 2.316406 3.167969 2.316406 2.863281 0 5.1875-4.960937 5.1875-11.082031 0-5.304688-1.746094-9.734375-4.078126-10.820313zm0 0" fill="url(#y)"/><path d="m213.894531 198.878906c0-6.121094-2.320312-11.082031-5.1875-11.082031-2.863281 0-5.1875 4.960937-5.1875 11.082031s2.324219 11.082032 5.1875 11.082032c2.867188 0 5.1875-4.960938 5.1875-11.082032zm0 0" fill="url(#A)"/><path d="m279.875 253.351562c0-6.121093-2.320312-11.082031-5.1875-11.082031-2.863281 0-5.1875 4.960938-5.1875 11.082031 0 6.121094 2.324219 11.082032 5.1875 11.082032 2.867188 0 5.1875-4.960938 5.1875-11.082032zm0 0" fill="url(#B)"/><path d="m312.59375 219.699219c0-6.121094-2.324219-11.082031-5.1875-11.082031s-5.1875 4.960937-5.1875 11.082031c0 6.121093 2.324219 11.082031 5.1875 11.082031s5.1875-4.960938 5.1875-11.082031zm0 0" fill="url(#C)"/><path d="m228.734375 248.316406c3.785156 4.808594 5.03125 10.140625 2.78125 11.914063-2.253906 1.773437-7.144531-.6875-10.929687-5.5-3.789063-4.808594-5.03125-10.140625-2.78125-11.914063 2.25-1.773437 7.144531.691406 10.929687 5.5zm0 0" fill="url(#D)"/><path d="m311.480469 257.597656c3.789062 4.808594 5.03125 10.144532 2.78125 11.914063-2.25 1.773437-7.144531-.6875-10.929688-5.496094-3.785156-4.808594-5.03125-10.144531-2.78125-11.917969 2.253907-1.769531 7.144531.691406 10.929688 5.5zm0 0" fill="url(#E)"/><path d="m288.46875 200.144531c-4.265625 4.386719-9.386719 6.324219-11.441406 4.328125-2.054688-1.996094-.261719-7.171875 4.003906-11.558594 4.269531-4.390624 9.390625-6.328124 11.445312-4.332031 2.054688 2 .261719 7.175781-4.007812 11.5625zm0 0" fill="url(#F)"/><path d="m252.992188 288.082031c-4.265626 4.386719-9.390626 6.324219-11.441407 4.328125-2.054687-1.996094-.261719-7.171875 4.003907-11.5625 4.265624-4.386718 9.390624-6.324218 11.445312-4.328125 2.050781 1.996094.257812 7.175781-4.007812 11.5625zm0 0" fill="url(#G)"/><path d="m245.550781 230.683594c-5.789062-1.976563-9.738281-5.773438-8.8125-8.488282.925781-2.710937 6.371094-3.308593 12.164063-1.332031 5.792968 1.972657 9.738281 5.773438 8.8125 8.484375-.925782 2.714844-6.371094 3.308594-12.164063 1.335938zm0 0" fill="url(#H)"/><path d="m197.078125 265.695312c-4.269531 4.390626-9.390625 6.328126-11.445313 4.332032-2.054687-2-.261718-7.175782 4.003907-11.5625 4.269531-4.386719 9.390625-6.324219 11.445312-4.328125 2.054688 1.996093.261719 7.171875-4.003906 11.558593zm0 0" fill="url(#I)"/></svg>