<svg height="511pt" viewBox="-60 1 511 511.99999" width="511pt" xmlns="http://www.w3.org/2000/svg" xmlns:xlink="http://www.w3.org/1999/xlink"><radialGradient id="a" cx="251.7219" cy="441.4105" gradientTransform="matrix(1.003922 0 0 .264031 -59.736303 326.580104)" gradientUnits="userSpaceOnUse" r="195.7518"><stop offset="0" stop-color="#45425a"/><stop offset=".4759" stop-color="#424059"/><stop offset=".7742" stop-color="#3a3b56"/><stop offset="1" stop-color="#2d3251"/></radialGradient><linearGradient id="b" gradientUnits="userSpaceOnUse" x1="291.9527328222" x2="182.8797196804" y1="489.0829897606" y2="416.21100237"><stop offset="0" stop-color="#3b395f" stop-opacity="0"/><stop offset=".0633" stop-color="#37355a" stop-opacity=".062745"/><stop offset=".4033" stop-color="#232543" stop-opacity=".403922"/><stop offset=".7232" stop-color="#171b35" stop-opacity=".721569"/><stop offset="1" stop-color="#131830"/></linearGradient><linearGradient id="c" gradientUnits="userSpaceOnUse" x1="-16.9010594962" x2="359.2125954484" y1="14.5770478322" y2="360.6016545538"><stop offset="0" stop-color="#ff6e3a"/><stop offset=".1596" stop-color="#ff6440"/><stop offset=".4266" stop-color="#ff4b52"/><stop offset=".7662" stop-color="#ff216e"/><stop offset="1" stop-color="#ff0084"/></linearGradient><linearGradient id="d" gradientUnits="userSpaceOnUse" x1="373.768761703" x2="147.9794756646" y1="373.2679376434" y2="147.478651605"><stop offset="0" stop-color="#e4003d" stop-opacity="0"/><stop offset=".5838" stop-color="#bd294b" stop-opacity=".584314"/><stop offset="1" stop-color="#a64153"/></linearGradient><linearGradient id="e" gradientUnits="userSpaceOnUse" x1="67.558998756" x2="324.9547611204" y1="195.7560558786" y2="195.7560558786"><stop offset="0" stop-color="#8be1e2"/><stop offset=".1873" stop-color="#87e1e1"/><stop offset=".3558" stop-color="#7ce2dd"/><stop offset=".5172" stop-color="#6ae2d7"/><stop offset=".6741" stop-color="#50e4ce"/><stop offset=".8278" stop-color="#2fe5c2"/><stop offset=".9772" stop-color="#07e7b4"/><stop offset="1" stop-color="#00e7b2"/></linearGradient><linearGradient id="f"><stop offset=".0029" stop-color="#00e7b2" stop-opacity="0"/><stop offset=".4308" stop-color="#1bc4b7" stop-opacity=".427451"/><stop offset="1" stop-color="#3b9abe"/></linearGradient><linearGradient id="g" gradientUnits="userSpaceOnUse" x1="255.040930295" x2="89.854098532" xlink:href="#f" y1="293.1267518352" y2="127.9399200722"/><linearGradient id="h" gradientUnits="userSpaceOnUse" x1="297.6782003804" x2="138.3483499576" xlink:href="#f" y1="251.4130899898" y2="92.083239567"/><linearGradient id="i"><stop offset="0" stop-color="#fffcf8"/><stop offset=".1875" stop-color="#faf8f6"/><stop offset=".4041" stop-color="#eceef2"/><stop offset=".6353" stop-color="#d5dcea"/><stop offset=".875" stop-color="#b5c4df"/><stop offset="1" stop-color="#a1b5d8"/></linearGradient><linearGradient id="j" gradientUnits="userSpaceOnUse" x1="123.4169176594" x2="188.8380971426" xlink:href="#i" y1="195.756758624" y2="195.756758624"/><linearGradient id="k" gradientUnits="userSpaceOnUse" x1="203.6755623416" x2="269.0969426092" xlink:href="#i" y1="195.756758624" y2="195.756758624"/><path d="m357.898438 467.589844c0-24.527344-72.367188-44.414063-161.632813-44.414063-89.269531 0-161.636719 19.886719-161.636719 44.414063s72.367188 44.410156 161.636719 44.410156c89.265625 0 161.632813-19.882812 161.632813-44.410156zm0 0" fill="url(#a)"/><path d="m357.898438 467.589844c0-24.527344-72.367188-44.414063-161.632813-44.414063-22.414063 0-43.757813 1.253907-63.160156 3.519531 14.644531 16.695313 28.101562 31.195313 38.792969 42.410157l42.632812 42.609375c80.664062-2.492188 143.367188-21.296875 143.367188-44.125zm0 0" fill="url(#b)"/><path d="m196.257812 0c-108.113281 0-195.757812 87.644531-195.757812 195.757812 0 84.28125 118.957031 218.332032 171.398438 273.351563 13.265624 13.914063 35.453124 13.914063 48.714843 0 52.457031-55.015625 171.414063-189.070313 171.414063-273.351563 0-108.113281-87.644532-195.757812-195.769532-195.757812zm0 0" fill="url(#c)"/><path d="m391.152344 208.707031-101.621094-101.621093c-23.445312-24.65625-56.5625-40.027344-93.273438-40.027344-71.078124 0-128.699218 57.621094-128.699218 128.695312 0 36.710938 15.371094 69.832032 40.027344 93.277344l145.183593 145.183594c54.34375-61.011719 129.527344-156.367188 138.382813-225.507813zm0 0" fill="url(#d)"/><path d="m324.953125 195.753906c0 71.078125-57.617187 128.699219-128.695313 128.699219-71.078124 0-128.699218-57.621094-128.699218-128.699219 0-71.074218 57.621094-128.695312 128.699218-128.695312 71.078126 0 128.695313 57.621094 128.695313 128.695312zm0 0" fill="url(#e)"/><path d="m313.542969 248.800781c-12.550781 27.71875-34.648438 50.191407-62.085938 63.242188-16.726562 7.953125-35.445312 12.410156-55.203125 12.410156-4.503906 0-8.941406-.234375-13.324218-.6875l-38.136719-38.136719c-4.589844-3.601562-7.417969-9.300781-7.035157-15.597656l5.03125-81.261719c-.335937-.347656-.675781-.703125-.996093-1.070312-1.136719-.996094-2.21875-2.089844-3.253907-3.253907-9.09375-7.957031-15.121093-21.871093-15.121093-37.726562 0-24.726562 14.640625-44.773438 32.703125-44.773438 7.957031 0 15.242187 3.890626 20.914062 10.34375zm0 0" fill="url(#g)"/><path d="m313.542969 248.800781c-12.550781 27.71875-34.648438 50.191407-62.085938 63.242188l-26.410156-26.414063c-4.578125-3.601562-7.417969-9.296875-7.023437-15.597656l5.019531-81.261719c-.328125-.347656-.667969-.703125-.996094-1.070312-1.128906-.996094-2.21875-2.085938-3.253906-3.253907-9.082031-7.953124-15.121094-21.871093-15.121094-37.722656 0-2.316406.132813-4.824218.378906-7.421875 1.25-13.105469 5.535157-28.6875 11.667969-35.542969 2.171875-2.414062 6.101562-1.03125 6.449219 2.058594 1.597656.207032 7.832031 6.855469 8.378906 7.28125v-5.238281c0-3.214844 2.566406-5.90625 5.78125-5.914063h.113281c2.425782.007813 4.484375 1.539063 5.339844 3.675782 1.476562.59375 8.171875 7.4375 8.78125 8.171875v-7.53125c0-3.40625 4.214844-5.042969 6.488281-2.503907l65.078125 65.078126c1.851563 8.679687 2.820313 17.6875 2.820313 26.921874.003906 18.910157-4.078125 36.867188-11.40625 53.042969zm0 0" fill="url(#h)"/><path d="m188.835938 146.71875c0-24.726562-14.644532-44.769531-32.710938-44.769531-18.0625 0-32.707031 20.046875-32.707031 44.769531 0 18.257812 7.988281 33.953125 19.441406 40.917969l-5.097656 82.390625c-.65625 10.585937 7.753906 19.535156 18.363281 19.535156 10.613281 0 19.023438-8.945312 18.367188-19.535156l-5.097657-82.390625c11.453125-6.964844 19.441407-22.660157 19.441407-40.917969zm0 0" fill="url(#j)"/><path d="m269.097656 146.71875c0-13.996094-4.695312-34.746094-12.042968-42.953125-2.273438-2.539063-6.488282-.910156-6.488282 2.5v46.125c0 2.28125-1.757812 4.273437-4.042968 4.34375-2.363282.070313-4.296876-1.824219-4.296876-4.171875v-44.707031c0-3.210938-2.566406-5.898438-5.78125-5.90625-.019531 0-.039062 0-.058593 0s-.042969 0-.0625 0c-3.210938.007812-5.777344 2.695312-5.777344 5.90625v44.535156c0 2.28125-1.761719 4.273437-4.042969 4.34375-2.363281.070313-4.300781-1.824219-4.300781-4.171875v-46.296875c0-3.410156-4.210937-5.039063-6.484375-2.5-7.351562 8.207031-12.046875 28.957031-12.046875 42.953125 0 18.257812 7.992187 33.953125 19.445313 40.917969l-5.097657 82.390625c-.65625 10.585937 7.753907 19.535156 18.363281 19.535156 10.609376 0 19.023438-8.945312 18.367188-19.535156l-5.097656-82.390625c11.453125-6.964844 19.445312-22.660157 19.445312-40.917969zm0 0" fill="url(#k)"/></svg>