<svg height="512pt" viewBox="-6 0 512 512.00074" width="512pt" xmlns="http://www.w3.org/2000/svg" xmlns:xlink="http://www.w3.org/1999/xlink"><linearGradient id="a"><stop offset="0" stop-color="#fffcf8"/><stop offset=".1875" stop-color="#faf8f6"/><stop offset=".4041" stop-color="#eceef2"/><stop offset=".6353" stop-color="#d5dcea"/><stop offset=".875" stop-color="#b5c4df"/><stop offset="1" stop-color="#a1b5d8"/></linearGradient><linearGradient id="b" gradientTransform="matrix(.807253 .596831 -.596831 .807253 192.258545 -102.041428)" gradientUnits="userSpaceOnUse" x1="241.0757" x2="241.0757" xlink:href="#a" y1="491.3994" y2="513.6435"/><linearGradient id="c"><stop offset="0" stop-color="#a1b5d8" stop-opacity="0"/><stop offset=".0343" stop-color="#9fb3d5" stop-opacity=".035294"/><stop offset=".4515" stop-color="#8898af" stop-opacity=".45098"/><stop offset=".788" stop-color="#798898" stop-opacity=".788235"/><stop offset="1" stop-color="#748290"/></linearGradient><linearGradient id="d" gradientTransform="matrix(.807253 .596831 -.596831 .807253 192.258545 -102.041428)" gradientUnits="userSpaceOnUse" x1="260.7398" x2="193.2733" xlink:href="#c" y1="559.489" y2="300.0497"/><radialGradient id="e" cx="203.522" cy="18.6573" gradientTransform="matrix(.807253 .596831 -.596831 .807253 192.258545 -102.041428)" gradientUnits="userSpaceOnUse" r="267.2322" xlink:href="#a"/><linearGradient id="f" gradientTransform="matrix(.807253 .596831 -.596831 .807253 192.258545 -102.041428)" gradientUnits="userSpaceOnUse" x1="191.098" x2="401.3297" xlink:href="#a" y1="314.9781" y2="314.9781"/><linearGradient id="g"><stop offset="0" stop-color="#8be1e2"/><stop offset=".1873" stop-color="#87e1e1"/><stop offset=".3558" stop-color="#7ce2dd"/><stop offset=".5172" stop-color="#6ae2d7"/><stop offset=".6741" stop-color="#50e4ce"/><stop offset=".8278" stop-color="#2fe5c2"/><stop offset=".9772" stop-color="#07e7b4"/><stop offset="1" stop-color="#00e7b2"/></linearGradient><linearGradient id="h" gradientTransform="matrix(.807253 .596831 -.596831 .807253 192.258545 -102.041428)" gradientUnits="userSpaceOnUse" x1="174.512" x2="174.512" xlink:href="#g" y1="254.1511" y2="296.0169"/><linearGradient id="i"><stop offset=".0029" stop-color="#00e7b2" stop-opacity="0"/><stop offset=".1297" stop-color="#10d3b5" stop-opacity=".12549"/><stop offset=".3255" stop-color="#23bab9" stop-opacity=".321569"/><stop offset=".5302" stop-color="#30a8bc" stop-opacity=".529412"/><stop offset=".7478" stop-color="#389dbd" stop-opacity=".74902"/><stop offset="1" stop-color="#3b9abe"/></linearGradient><linearGradient id="j" gradientTransform="matrix(.807253 .596831 -.596831 .807253 192.258545 -102.041428)" gradientUnits="userSpaceOnUse" x1="211.399" x2="154.9146" xlink:href="#i" y1="293.2435" y2="242.9518"/><linearGradient id="k" gradientTransform="matrix(.807253 .596831 -.596831 .807253 192.258545 -102.041428)" gradientUnits="userSpaceOnUse" x1="188.1736" x2="349.7509" xlink:href="#g" y1="363.1716" y2="384.5928"/><linearGradient id="l" gradientTransform="matrix(.807253 .596831 -.596831 .807253 192.258545 -102.041428)" gradientUnits="userSpaceOnUse" x1="160.8695" x2="160.8695" xlink:href="#i" y1="192.6565" y2="616.8104"/><linearGradient id="m" gradientTransform="matrix(.807253 .596831 -.596831 .807253 192.258545 -102.041428)" gradientUnits="userSpaceOnUse" x1="212.077" x2="212.077" xlink:href="#i" y1="192.6565" y2="616.8104"/><linearGradient id="n" gradientTransform="matrix(.807253 .596831 -.596831 .807253 192.258545 -102.041428)" gradientUnits="userSpaceOnUse" x1="175.0167" x2="175.0167" xlink:href="#i" y1="192.6565" y2="616.8104"/><linearGradient id="o" gradientTransform="matrix(.807253 .596831 -.596831 .807253 192.258545 -102.041428)" gradientUnits="userSpaceOnUse" x1="323.359" x2="323.359" xlink:href="#i" y1="231.3997" y2="655.5536"/><linearGradient id="p" gradientTransform="matrix(.807253 .596831 -.596831 .807253 192.258545 -102.041428)" gradientUnits="userSpaceOnUse" x1="279.7013" x2="279.7013" xlink:href="#i" y1="231.3997" y2="655.5536"/><linearGradient id="q" gradientTransform="matrix(.807253 .596831 -.596831 .807253 192.258545 -102.041428)" gradientUnits="userSpaceOnUse" x1="269.4186" x2="202.7699" xlink:href="#c" y1="271.405" y2="-25.8564"/><linearGradient id="r" gradientTransform="matrix(.807253 .596831 -.596831 .807253 192.258545 -102.041428)" gradientUnits="userSpaceOnUse" x1="241.0757" x2="241.0757" xlink:href="#c" y1="7.708" y2="-30.075"/><linearGradient id="s" gradientTransform="matrix(.807253 .596831 -.596831 .807253 192.258545 -102.041428)" gradientUnits="userSpaceOnUse" x1="135.5303" x2="231.3262" y1="29.5133" y2="97.939"><stop offset="0" stop-color="#ff6e3a"/><stop offset=".1596" stop-color="#ff6440"/><stop offset=".4266" stop-color="#ff4b52"/><stop offset=".7662" stop-color="#ff216e"/><stop offset="1" stop-color="#ff0084"/></linearGradient><linearGradient id="t" gradientTransform="matrix(.807253 .596831 -.596831 .807253 192.258545 -102.041428)" gradientUnits="userSpaceOnUse" x1="241.0757" x2="241.0757" xlink:href="#c" y1="452.0854" y2="535.4509"/><linearGradient id="u"><stop offset="0" stop-color="#e4003d" stop-opacity="0"/><stop offset=".5838" stop-color="#bd294b" stop-opacity=".584314"/><stop offset="1" stop-color="#a64153"/></linearGradient><linearGradient id="v" gradientTransform="matrix(.807253 .596831 -.596831 .807253 192.258545 -102.041428)" gradientUnits="userSpaceOnUse" x1="241.6973" x2="238.5071" xlink:href="#u" y1="-5.6219" y2="10.1412"/><linearGradient id="w" gradientTransform="matrix(.807253 .596831 -.596831 .807253 192.258545 -102.041428)" gradientUnits="userSpaceOnUse" x1="250.5251" x2="235.7472" xlink:href="#u" y1="-13.7718" y2="1.1469"/><linearGradient id="x" gradientTransform="matrix(.807253 .596831 -.596831 .807253 192.258545 -102.041428)" gradientUnits="userSpaceOnUse" x1="244.1033" x2="143.3322" y1="116.4203" y2="12.8343"><stop offset="0" stop-color="#fff" stop-opacity="0"/><stop offset=".9156" stop-color="#fff" stop-opacity=".913725"/><stop offset="1" stop-color="#fff"/></linearGradient><path d="m161.707031 510.070312-156.460937-115.664062c-4.375-3.238281-5.2968752-9.40625-2.066406-13.78125l14.15625-19.144531 172.304687 127.378906-14.15625 19.144531c-3.230469 4.375-9.402344 5.300782-13.777344 2.066406zm0 0" fill="url(#b)"/><path d="m17.335938 361.480469-10.765626 14.5625.375.21875 3.269532 21.816406 151.492187 111.992187c4.375 3.234376 10.542969 2.308594 13.777344-2.066406l14.15625-19.144531zm0 0" fill="url(#d)"/><path d="m427.777344 245.453125c-50.539063 68.363281-298.105469-114.652344-247.566406-183.015625 50.539062-68.363281 146.925781-82.8125 215.289062-32.277344 68.363281 50.539063 82.8125 146.925782 32.277344 215.292969zm0 0" fill="url(#e)"/><path d="m178.554688 503.125-171.609376-126.863281c-7.132812-5.273438-9.058593-15.125-4.433593-22.695313l178.753906-292.558594 247.566406 183.015626-227.28125 256.683593c-5.882812 6.644531-15.863281 7.695313-22.996093 2.417969zm0 0" fill="url(#f)"/><path d="m118.761719 185.703125s9.035156-11.101563 51.398437 20.214844c42.363282 31.316406 47.140625 59.269531 47.140625 59.269531s-23.800781-2.507812-43.691406-11.878906c-34.316406-16.164063-71.007813-45.742188-54.847656-67.605469zm0 0" fill="url(#h)"/><path d="m173.609375 253.308594c7.304687 3.441406 15.132813 5.953125 22.117187 7.761718l14.820313-12.167968c-6.269531-11.03125-18.140625-26.539063-40.386719-42.984375-1.117187-.828125-2.210937-1.617188-3.28125-2.386719l-2.265625 1.859375s-4.761719 3.917969-8.195312 6.753906c-1.195313.988281-1.605469 2.519531-1.25 3.894531l4.5 30.011719c4.601562 2.628907 9.292969 5.066407 13.941406 7.257813zm0 0" fill="url(#j)"/><path d="m329.675781 338.367188-1.730469 1.976562-129.46875 147.726562c-5.703124 6.507813-15.109374 7.769532-21.667968 2.925782l-157.753906-116.621094c-6.554688-4.847656-8.105469-14.210938-3.554688-21.570312l103.261719-167.097657c-3.183594 9.464844 14.8125 32.015625 42.105469 52.191407 28.949218 21.398437 98.109374 26.03125 127.058593 47.433593 28.132813 20.796875 46.378907 44.105469 41.75 53.035157zm0 0" fill="url(#k)"/><path d="m98.472656 304.898438c0 3.425781-2.777344 6.207031-6.207031 6.207031s-6.207031-2.78125-6.207031-6.207031c0-3.429688 2.777344-6.207032 6.207031-6.207032s6.207031 2.777344 6.207031 6.207032zm0 0" fill="url(#l)"/><path d="m165.257812 305.9375c0 5.429688-4.402343 9.828125-9.832031 9.828125-5.429687 0-9.828125-4.398437-9.828125-9.828125s4.398438-9.828125 9.828125-9.828125c5.429688 0 9.832031 4.398437 9.832031 9.828125zm0 0" fill="url(#m)"/><path d="m141.578125 282.535156c0 8.351563-6.769531 15.121094-15.121094 15.121094-8.351562 0-15.121093-6.769531-15.121093-15.121094 0-8.351562 6.769531-15.121094 15.121093-15.121094 8.351563 0 15.121094 6.769532 15.121094 15.121094zm0 0" fill="url(#n)"/><path d="m224.3125 418.160156c0 7.132813-5.785156 12.914063-12.917969 12.914063-7.128906 0-12.914062-5.78125-12.914062-12.914063 0-7.132812 5.785156-12.914062 12.914062-12.914062 7.132813 0 12.917969 5.78125 12.917969 12.914062zm0 0" fill="url(#o)"/><path d="m183.089844 409.601562c0 10.972657-8.898438 19.867188-19.871094 19.867188s-19.867188-8.894531-19.867188-19.867188c0-10.976562 8.894532-19.871093 19.867188-19.871093s19.871094 8.894531 19.871094 19.871093zm0 0" fill="url(#p)"/><path d="m226.015625 473.078125 202.816406-229.054687-247.566406-183.015626-13.671875 22.375zm0 0" fill="url(#q)"/><path d="m411.75 61.417969c-2.371094 3.210937-15.6875-2.613281-29.746094-13.003907-14.054687-10.390624-23.527344-21.414062-21.152344-24.625 2.371094-3.207031 15.6875 2.617188 29.742188 13.007813 14.058594 10.390625 23.53125 21.414063 21.15625 24.621094zm0 0" fill="url(#r)"/><path d="m482.414062 72.355469-87.15625-19.773438-217.046874 178.210938c-1.234376 1.015625-2.984376 1.152343-4.363282.335937-1.910156-1.125-3.707031-2.300781-5.371094-3.53125-4.285156-3.167968-8.335937-6.394531-12.109374-9.621094-1.800782-1.539062-1.777344-4.324218.050781-5.832031 3.433593-2.835937 8.195312-6.753906 8.195312-6.753906l218.066407-179.03125c3.367187-2.765625 7.832031-3.824219 12.082031-2.863281l93.914062 21.296875c7.605469 1.730469 12.367188 9.300781 10.648438 16.910156-1.726563 7.605469-9.296875 12.371094-16.910157 10.652344zm0 0" fill="url(#s)"/><path d="m41.609375 289.582031-39.097656 63.984375c-4.625 7.570313-2.699219 17.421875 4.433593 22.695313l171.609376 126.863281c7.132812 5.277344 17.117187 4.226562 22.996093-2.417969l49.710938-56.136719zm0 0" fill="url(#t)"/><path d="m382.679688 26.359375-5.304688 4.355469 17.882812 21.871094-5.296874-29.335938c-2.640626.316406-5.175782 1.378906-7.28125 3.109375zm0 0" fill="url(#v)"/><path d="m394.761719 23.496094c-1.59375-.359375-3.214844-.4375-4.800781-.246094l5.296874 29.332031 10.390626-26.617187zm0 0" fill="url(#w)"/><path d="m420.425781 235.765625c-46.707031 63.183594-275.507812-105.960937-228.800781-169.140625s135.789062-76.535156 198.96875-29.828125c63.183594 46.703125 76.539062 135.789063 29.832031 198.96875zm0 0" fill="url(#x)"/></svg>