<svg height="512pt" viewBox="-17 0 512 512.00201" width="512pt" xmlns="http://www.w3.org/2000/svg" xmlns:xlink="http://www.w3.org/1999/xlink"><linearGradient id="a" gradientTransform="matrix(.707965 -.71178 .71178 .707965 451.800145 1348.09078)" gradientUnits="userSpaceOnUse" x1="461.1793" x2="1039.2002" y1="-998.3848" y2="-658.1843"><stop offset="0" stop-color="#ffd459"/><stop offset=".2296" stop-color="#ffd355"/><stop offset=".4362" stop-color="#ffcf4a"/><stop offset=".634" stop-color="#ffc838"/><stop offset=".825" stop-color="#ffbf1f"/><stop offset="1" stop-color="#ffb400"/></linearGradient><radialGradient id="b" cx="1796.7942" cy="-1595.0842" gradientTransform="matrix(.0213835 -1.003721 1.003721 .0213835 1689.900073 1966.524637)" gradientUnits="userSpaceOnUse" r="55.5258"><stop offset="0" stop-color="#a64153"/><stop offset=".1984" stop-color="#ad4949" stop-opacity=".8"/><stop offset=".5329" stop-color="#c15d2f" stop-opacity=".466667"/><stop offset=".9604" stop-color="#e27f04" stop-opacity=".039216"/><stop offset="1" stop-color="#e58200" stop-opacity="0"/></radialGradient><linearGradient id="c" gradientUnits="userSpaceOnUse" x1="316.315751754" x2="-.2964501726" y1="264.8042047634" y2="294.6909627034"><stop offset="0" stop-color="#e58200" stop-opacity="0"/><stop offset=".0396" stop-color="#e27f04" stop-opacity=".039216"/><stop offset=".4671" stop-color="#c15d2f" stop-opacity=".466667"/><stop offset=".8016" stop-color="#ad4949" stop-opacity=".8"/><stop offset="1" stop-color="#a64153"/></linearGradient><linearGradient id="d"><stop offset="0" stop-color="#ff6e3a"/><stop offset=".1596" stop-color="#ff6440"/><stop offset=".4266" stop-color="#ff4b52"/><stop offset=".7662" stop-color="#ff216e"/><stop offset="1" stop-color="#ff0084"/></linearGradient><linearGradient id="e" gradientUnits="userSpaceOnUse" x1="-46.2261828492" x2="534.0617151206" xlink:href="#d" y1="216.4256051522" y2="557.9603715132"/><linearGradient id="f" gradientUnits="userSpaceOnUse" x1="247.4367637262" x2="-193.6494179598" xlink:href="#d" y1="443.496096447" y2="133.887555569"/><linearGradient id="g"><stop offset="0" stop-color="#e58200" stop-opacity="0"/><stop offset=".2413" stop-color="#da760f" stop-opacity=".243137"/><stop offset=".7044" stop-color="#bc5737" stop-opacity=".705882"/><stop offset="1" stop-color="#a64153"/></linearGradient><linearGradient id="h" gradientUnits="userSpaceOnUse" x1="130.6665802182" x2="64.2613563906" xlink:href="#g" y1="374.9690834724" y2="308.563960037"/><linearGradient id="i" gradientUnits="userSpaceOnUse" x1="195.648343042" x2="92.8332776872" xlink:href="#g" y1="427.510646441" y2="324.6955810862"/><linearGradient id="j" gradientUnits="userSpaceOnUse" x1="219.7490969272" x2="152.4317095704" xlink:href="#g" y1="441.1088703232" y2="373.7914829664"/><radialGradient id="k" cx="126.8518774026" cy="128.2609743278" gradientUnits="userSpaceOnUse" r="56.0436444734"><stop offset="0" stop-color="#a64153"/><stop offset=".4088" stop-color="#bd294b" stop-opacity=".592157"/><stop offset="1" stop-color="#e4003d" stop-opacity="0"/></radialGradient><linearGradient id="l" gradientUnits="userSpaceOnUse" x1="134.3119213924" x2="76.2871372442" xlink:href="#g" y1="167.7249473634" y2="107.3156476808"/><linearGradient id="m" gradientUnits="userSpaceOnUse" x1="17.3187668082" x2="158.9036935278" y1="70.7924633598" y2="70.7924633598"><stop offset="0" stop-color="#45425a"/><stop offset="1" stop-color="#2d3251"/></linearGradient><path d="m289.285156 116.496094-82.566406-35.765625c-5.390625-2.335938-11.65625-1.125-15.792969 3.03125l-3.285156 3.304687c-5.578125 5.605469-14.640625 5.613282-20.214844.023438-.71875-.710938-1.464843-1.425782-2.230469-2.117188-22.492187-20.308594-57.417968-19.527344-79.039062 1.703125-22.980469 22.554688-23.046875 59.464844-.285156 82.109375l.109375.105469c5.605469 5.5625 5.640625 14.699219.074219 20.296875l-3.246094 3.257812c-4.132813 4.160157-5.3125 10.429688-2.945313 15.808594l36.195313 82.378906c2.699218 6.132813 6.515625 11.699219 11.265625 16.425782l164.382812 163.519531c10.042969 9.988281 26.269531 9.945313 36.257813-.09375l142.28125-143.03125c9.988281-10.042969 9.945312-26.269531-.09375-36.257813l-164.382813-163.523437c-4.75-4.726563-10.335937-8.511719-16.484375-11.175781zm-141.507812 32.460937c-11.648438 11.710938-30.578125 11.761719-42.289063.109375-11.703125-11.640625-11.753906-30.570312-.105469-42.28125 11.652344-11.710937 30.582032-11.761718 42.285157-.121094 11.710937 11.652344 11.761719 30.578126.109375 42.292969zm0 0" fill="url(#a)"/><path d="m187.640625 87.066406c-5.574219 5.605469-14.640625 5.613282-20.214844.023438-.71875-.710938-1.460937-1.425782-2.230469-2.117188-22.492187-20.308594-57.417968-19.527344-79.035156 1.703125-22.980468 22.554688-23.050781 59.464844-.285156 82.109375l.105469.105469c5.605469 5.5625 5.644531 14.699219.074219 20.296875l-3.242188 3.257812c-4.136719 4.160157-5.3125 10.429688-2.949219 15.808594l20.023438 45.566406 152.503906-153.308593-45.671875-19.78125c-5.390625-2.335938-11.65625-1.125-15.789062 3.03125zm-39.863281 61.890625c-11.648438 11.710938-30.578125 11.761719-42.289063.109375-11.703125-11.640625-11.753906-30.570312-.105469-42.28125 11.652344-11.710937 30.582032-11.761718 42.285157-.121094 11.710937 11.652344 11.761719 30.578126.109375 42.292969zm0 0" fill="url(#b)"/><path d="m82.8125 192.445312c-4.136719 4.160157-5.3125 10.429688-2.949219 15.808594l36.195313 82.378906c2.699218 6.132813 6.515625 11.699219 11.265625 16.425782l164.382812 163.519531c10.042969 9.988281 26.269531 9.945313 36.257813-.09375l111.078125-111.664063-268.984375-268.980468c-.628906-.726563-1.28125-1.433594-1.945313-2.128906-.234375-.203126-.46875-.398438-.6875-.621094-.71875-.710938-1.460937-1.425782-2.230469-2.117188-22.492187-20.308594-57.417968-19.527344-79.035156 1.703125-22.980468 22.554688-23.050781 59.464844-.285156 82.109375l.105469.105469c5.605469 5.5625 5.644531 14.699219.074219 20.296875zm22.570312-85.664062c11.652344-11.710938 30.582032-11.757812 42.285157-.117188 11.710937 11.652344 11.761719 30.578126.109375 42.292969-11.648438 11.710938-30.578125 11.761719-42.289063.109375-11.703125-11.644531-11.753906-30.570312-.105469-42.285156zm0 0" fill="url(#c)"/><path d="m249.324219 234.925781-32.875-83.757812c-2.144531-5.46875-7.421875-9.058594-13.285157-9.058594h-4.660156c-7.90625 0-14.304687-6.417969-14.273437-14.3125 0-1.011719-.023438-2.042969-.074219-3.074219-1.464844-30.269531-26.648438-54.480468-56.945312-54.835937-32.199219-.382813-58.414063 25.597656-58.414063 57.707031v.152344c.011719 7.894531-6.441406 14.363281-14.335937 14.363281h-4.597657c-5.867187 0-11.140625 3.589844-13.285156 9.058594l-32.875 83.757812c-2.449219 6.238281-3.703125 12.871094-3.703125 19.574219v231.863281c0 14.164063 11.476562 25.640625 25.640625 25.640625h201.746094c14.164062 0 25.636719-11.476562 25.636719-25.640625v-231.863281c0-6.703125-1.253907-13.335938-3.699219-19.574219zm-122.8125-77.429687c-16.519531 0-29.902344-13.382813-29.902344-29.902344 0-16.507812 13.382813-29.894531 29.902344-29.894531s29.902343 13.386719 29.902343 29.894531c.003907 16.519531-13.382812 29.902344-29.902343 29.902344zm0 0" fill="url(#e)"/><path d="m208.6875 487.441406h-164.351562c-9.660157 0-17.492188-7.828125-17.492188-17.492187v-222.667969c0-9.660156 7.832031-17.492188 17.492188-17.492188h164.351562c9.660156 0 17.492188 7.832032 17.492188 17.492188v222.667969c0 9.664062-7.832032 17.492187-17.492188 17.492187zm0 0" fill="url(#f)"/><path d="m249.914062 435.550781-150.632812-150.597656c-5.421875-4.339844-12.609375-6.511719-21.550781-6.511719-19.644531 0-29.46875 9.050782-29.46875 27.148438v32.667968c0 9.800782 2.90625 16.921876 8.664062 21.417969l109.117188 108.84375c30.484375-5.347656 58.867187-16.769531 83.871093-32.96875zm0 0" fill="url(#h)"/><path d="m253.023438 352.621094v80.867187c-36.152344 24.292969-79.671876 38.46875-126.511719 38.46875-6.652344 0-13.222657-.304687-19.734375-.871093l-26.152344-26.152344c-1.636719-1.699219-2.445312-3.570313-2.445312-5.628906 0-1.175782.292968-2.285157.878906-3.316407l80.734375-162.179687c1.171875-2.648438 3.375-3.972656 6.601562-3.972656 2.375 0 4.519531.808593 6.449219 2.425781zm0 0" fill="url(#i)"/><path d="m253.023438 415.726562v17.742188c-20.644532 13.878906-43.695313 24.445312-68.390626 30.957031l-30.371093-30.359375c-5.75-4.5-8.652344-11.628906-8.652344-21.421875v-32.664062c0-18.109375 9.816406-27.15625 29.457031-27.15625 8.949219 0 16.136719 2.175781 21.554688 6.511719zm0 0" fill="url(#j)"/><g fill="#fffcf8"><path d="m48.261719 338.257812v-32.667968c0-18.097656 9.824219-27.148438 29.46875-27.148438 8.945312 0 16.128906 2.171875 21.554687 6.511719 5.417969 4.34375 8.132813 11.222656 8.132813 20.636719v32.667968c0 9.421876-2.714844 16.300782-8.132813 20.640626-5.425781 4.339843-12.609375 6.511718-21.554687 6.511718-19.644531 0-29.46875-9.050781-29.46875-27.152344zm15.675781-.367187c0 8.488281 4.59375 12.730469 13.792969 12.730469 9.34375 0 14.015625-4.242188 14.015625-12.730469v-31.929687c0-8.484376-4.671875-12.730469-14.015625-12.730469-9.199219 0-13.792969 4.246093-13.792969 12.730469zm0 0"/><path d="m78.175781 439.300781c0-1.175781.292969-2.28125.878907-3.3125l80.738281-162.183593c1.171875-2.648438 3.375-3.972657 6.601562-3.972657 2.375 0 4.523438.8125 6.449219 2.429688 1.929688 1.621093 2.894531 3.605469 2.894531 5.957031 0 1.179688-.21875 2.355469-.660156 3.53125l-80.742187 161.523438c-1.324219 2.792968-3.816407 4.195312-7.484376 4.195312-2.523437 0-4.597656-.847656-6.230468-2.539062-1.628906-1.691407-2.445313-3.570313-2.445313-5.628907zm0 0"/><path d="m196.625 359.390625c-5.425781-4.371094-12.609375-6.5625-21.550781-6.5625-19.644531 0-29.46875 9.117187-29.46875 27.355469v32.917968c0 18.238282 9.824219 27.355469 29.46875 27.355469 8.941406 0 16.125-2.1875 21.550781-6.558593 5.421875-4.375 8.136719-11.308594 8.136719-20.796876v-32.917968c0-9.488282-2.714844-16.417969-8.136719-20.792969zm-7.535156 53.402344c0 8.585937-4.671875 12.875-14.015625 12.875-9.199219 0-13.796875-4.289063-13.796875-12.875v-32.300781c0-8.582032 4.597656-12.875 13.796875-12.875 9.34375 0 14.015625 4.292968 14.015625 12.875zm0 0"/></g><path d="m198.503906 142.109375c-7.90625 0-14.304687-6.417969-14.277344-14.3125 0-1.011719-.019531-2.042969-.070312-3.074219-1.464844-30.269531-26.648438-54.480468-56.949219-54.835937-32.195312-.382813-58.410156 25.597656-58.410156 57.707031v.152344c.007813 7.894531-6.441406 14.363281-14.335937 14.363281h-4.601563c-5.863281 0-11.140625 3.589844-13.28125 9.058594l-18.1875 46.332031h216.242187l-18.183593-46.332031c-2.144531-5.46875-7.421875-9.058594-13.285157-9.058594zm-71.992187 15.386719c-16.519531 0-29.902344-13.382813-29.902344-29.902344 0-16.507812 13.382813-29.894531 29.902344-29.894531s29.902343 13.386719 29.902343 29.894531c.003907 16.519531-13.382812 29.902344-29.902343 29.902344zm0 0" fill="url(#k)"/><path d="m150.902344 144.886719c-5.417969 7.628906-14.316406 12.609375-24.390625 12.609375-14.886719 0-27.222657-10.871094-29.515625-25.105469h-28.984375c-.679688 1.980469-1.777344 3.765625-3.195313 5.253906l59.855469 59.855469h78.84375zm0 0" fill="url(#l)"/><path d="m88.117188 25.273438c24.929687 0 45.25 20.167968 45.511718 45.046874 9.039063 1.125 17.460938 4.378907 24.738282 9.230469.355468-2.871093.539062-5.792969.539062-8.753906-.003906-39.042969-31.757812-70.796875-70.789062-70.796875-39.042969 0-70.796876 31.753906-70.796876 70.796875 0 30.875 19.875 57.199219 47.503907 66.855469 7.296875 2.546875 15.132812 3.933594 23.292969 3.933594 3.910156 0 7.742187-.324219 11.484374-.941407 20.753907-3.386719 38.496094-15.851562 49.042969-33.160156 0-.007813 0-.007813 0-.007813-5.480469-6.007812-13.367187-9.777343-22.132812-9.777343-.585938 0-1.171875.019531-1.746094.058593-6.136719 8.3125-15.035156 14.476563-25.316406 17.128907-3.628907.925781-7.417969 1.421875-11.332031 1.421875-6.167969 0-12.050782-1.230469-17.421876-3.457032-16.488281-6.851562-28.101562-23.128906-28.101562-42.054687 0-25.101563 20.421875-45.523437 45.523438-45.523437zm0 0" fill="url(#m)"/></svg>