<svg height="511pt" viewBox="1 -6 511.9995 511" width="511pt" xmlns="http://www.w3.org/2000/svg" xmlns:xlink="http://www.w3.org/1999/xlink"><linearGradient id="a" gradientUnits="userSpaceOnUse" x1="157.434044079" x2="511.999718" y1="182.4203584078" y2="182.4203584078"><stop offset="0" stop-color="#8be1e2"/><stop offset=".1873" stop-color="#87e1e1"/><stop offset=".3558" stop-color="#7ce2dd"/><stop offset=".5172" stop-color="#6ae2d7"/><stop offset=".6741" stop-color="#50e4ce"/><stop offset=".8278" stop-color="#2fe5c2"/><stop offset=".9772" stop-color="#07e7b4"/><stop offset="1" stop-color="#00e7b2"/></linearGradient><linearGradient id="b"><stop offset=".0029" stop-color="#00e7b2" stop-opacity="0"/><stop offset=".4308" stop-color="#1bc4b7" stop-opacity=".427451"/><stop offset="1" stop-color="#3b9abe"/></linearGradient><linearGradient id="c" gradientUnits="userSpaceOnUse" x1="436.823528835" x2="198.2167690538" xlink:href="#b" y1="333.0222113548" y2="94.4153511814"/><linearGradient id="d" gradientUnits="userSpaceOnUse" x1="489.8238841576" x2="251.2171243764" xlink:href="#b" y1="280.0218560322" y2="41.415096251"/><linearGradient id="e"><stop offset="0" stop-color="#fffcf8"/><stop offset=".1875" stop-color="#faf8f6"/><stop offset=".4041" stop-color="#eceef2"/><stop offset=".6353" stop-color="#d5dcea"/><stop offset=".875" stop-color="#b5c4df"/><stop offset="1" stop-color="#a1b5d8"/></linearGradient><linearGradient id="f" gradientUnits="userSpaceOnUse" x1="243.174002489" x2="325.393206445" xlink:href="#e" y1="182.4203584078" y2="182.4203584078"/><linearGradient id="g" gradientUnits="userSpaceOnUse" x1="344.0404552418" x2="426.25975959" xlink:href="#e" y1="182.4203584078" y2="182.4203584078"/><linearGradient id="h" gradientUnits="userSpaceOnUse" x1="527.3630375426" x2="364.6870147016" xlink:href="#b" y1="237.7608559124" y2="222.2004664812"/><linearGradient id="i"><stop offset="0" stop-color="#45425a"/><stop offset="1" stop-color="#2d3251"/></linearGradient><linearGradient id="j" gradientTransform="matrix(.709873 .709873 -.709873 .709873 1749.640031 -378.681125)" gradientUnits="userSpaceOnUse" x1="-619.0487" x2="-606.5567" xlink:href="#i" y1="1825.7631" y2="1825.7631"/><linearGradient id="k" gradientTransform="matrix(.709873 .709873 -.709873 .709873 1749.640031 -378.681125)" gradientUnits="userSpaceOnUse" x1="-598.694" x2="-619.937" y1="1832.1621" y2="1810.9191"><stop offset="0" stop-color="#2d3251" stop-opacity="0"/><stop offset="1" stop-color="#131830"/></linearGradient><linearGradient id="l" gradientTransform="matrix(.709873 .709873 -.709873 .709873 292.677371 -9.995848)" gradientUnits="userSpaceOnUse" x1="123.2679" x2="178.9432" y1="455.5814" y2="455.5814"><stop offset="0" stop-color="#ffd459"/><stop offset=".2296" stop-color="#ffd355"/><stop offset=".4362" stop-color="#ffcf4a"/><stop offset=".634" stop-color="#ffc838"/><stop offset=".825" stop-color="#ffbf1f"/><stop offset="1" stop-color="#ffb400"/></linearGradient><linearGradient id="m" gradientTransform="matrix(.709873 .709873 -.709873 .709873 1749.640031 -378.681125)" gradientUnits="userSpaceOnUse" x1="-593.2174" x2="-628.3705" y1="1704.3878" y2="1653.6112"><stop offset="0" stop-color="#e58200" stop-opacity="0"/><stop offset=".0396" stop-color="#e27f04" stop-opacity=".039216"/><stop offset=".4671" stop-color="#c15d2f" stop-opacity=".466667"/><stop offset=".8016" stop-color="#ad4949" stop-opacity=".8"/><stop offset="1" stop-color="#a64153"/></linearGradient><linearGradient id="n" gradientTransform="matrix(.709873 .709873 -.709873 .709873 292.677371 -9.995848)" gradientUnits="userSpaceOnUse" x1="149.6229" x2="169.3496" xlink:href="#e" y1="364.5868" y2="408.9718"/><linearGradient id="o" gradientTransform="matrix(.709873 .709873 -.709873 .709873 1749.640031 -378.681125)" gradientUnits="userSpaceOnUse" x1="-600.7831" x2="-631.2557" y1="1668.9578" y2="1624.9418"><stop offset="0" stop-color="#a1b5d8" stop-opacity="0"/><stop offset=".0343" stop-color="#9fb3d5" stop-opacity=".035294"/><stop offset=".4515" stop-color="#8898af" stop-opacity=".45098"/><stop offset=".788" stop-color="#798898" stop-opacity=".788235"/><stop offset="1" stop-color="#748290"/></linearGradient><radialGradient id="p" cx="266.4491896114" cy="267.589277918" gradientUnits="userSpaceOnUse" r="158.8554972778"><stop offset="0" stop-color="#a1b5d8" stop-opacity="0"/><stop offset=".4804" stop-color="#a0b4d6" stop-opacity=".482353"/><stop offset=".6535" stop-color="#9cafcf" stop-opacity=".654902"/><stop offset=".7768" stop-color="#94a6c4" stop-opacity=".776471"/><stop offset=".8765" stop-color="#8a9bb3" stop-opacity=".878431"/><stop offset=".961" stop-color="#7c8b9d" stop-opacity=".960784"/><stop offset="1" stop-color="#748290"/></radialGradient><linearGradient id="q" gradientUnits="userSpaceOnUse" x1="82.6978649312" x2="423.2003986918" xlink:href="#i" y1="246.2197980616" y2="246.2197980616"/><linearGradient id="r" gradientUnits="userSpaceOnUse" x1="108.1978853" x2="397.7004787152" xlink:href="#i" y1="246.2239141418" y2="246.2239141418"/><path d="m512 177.78125c0-97.910156-79.371094-177.28125-177.28125-177.28125-97.820312 0-177.285156 79.464844-177.285156 177.285156 0 97.910156 79.375 177.28125 177.285156 177.28125 24.949219 0 48.6875-5.164062 70.222656-14.46875 3.101563-1.335937 6.695313-.675781 9.082032 1.710938l19.617187 19.613281c5.160156 5.164063 13.992187 1.507813 13.992187-5.792969v-37.871094c0-2.367187 1.015626-4.625 2.808594-6.171874 37.695313-32.507813 61.558594-80.617188 61.558594-134.304688zm0 0" fill="url(#a)"/><path d="m450.4375 312.089844c17.089844-14.738282 31.320312-32.6875 41.789062-52.898438l-181.667968-181.667968c-7.125-8.113282-16.28125-12.996094-26.273438-12.996094-22.707031 0-41.109375 25.191406-41.109375 56.265625 0 19.929687 7.582031 37.417969 19.003907 47.414062 1.296874 1.46875 2.660156 2.839844 4.085937 4.085938.410156.464843.832031.910156 1.253906 1.351562l-6.316406 102.117188c-.492187 7.917969 3.070313 15.085937 8.832031 19.609375l59.621094 59.621094c1.679688.046874 3.367188.074218 5.0625.074218 24.949219 0 48.6875-5.164062 70.222656-14.464844 3.097656-1.339843 6.695313-.679687 9.082032 1.707032l19.617187 19.617187c5.160156 5.164063 13.992187 1.507813 13.992187-5.796875v-37.867187c0-2.371094 1.015626-4.628907 2.804688-6.171875zm0 0" fill="url(#c)"/><path d="m402.972656 69.949219v9.464843c-.769531-.917968-9.183594-9.527343-11.035156-10.273437-1.085938-2.679687-3.664062-4.605469-6.710938-4.613281-.027343 0-.050781 0-.078124 0-.023438 0-.046876 0-.074219 0-4.039063.007812-7.261719 3.382812-7.261719 7.421875v6.585937c-.683594-.53125-8.515625-8.890625-10.527344-9.148437-.445312-3.890625-5.382812-5.625-8.109375-2.578125-9.238281 10.316406-15.136719 36.390625-15.136719 53.980468 0 19.933594 7.582032 37.421876 19.007813 47.414063 1.296875 1.472656 2.660156 2.839844 4.085937 4.085937.410157.464844.828126.914063 1.253907 1.355469l-6.320313 102.113281c-.488281 7.921876 3.074219 15.085938 8.835938 19.609376l57.199218 57.203124c1.179688 1.53125 2.566407 2.890626 4.085938 4.085938 1.179688 1.53125 2.5625 2.890625 4.085938 4.085938 1.019531 1.324218 2.214843 2.496093 3.5 3.566406 4.066406-.199219 7.859374-3.398438 7.859374-8.183594v-37.867188c0-2.367187 1.015626-4.625 2.804688-6.171874 37.699219-32.507813 61.5625-80.617188 61.5625-134.304688 0-3.496094-.113281-6.964844-.3125-10.410156l-100.5625-100.5625c-2.859375-3.191406-8.152344-1.140625-8.152344 3.140625zm0 0" fill="url(#d)"/><path d="m325.390625 120.792969c0-31.074219-18.402344-56.265625-41.109375-56.265625-22.703125 0-41.109375 25.191406-41.109375 56.265625 0 22.945312 10.042969 42.667969 24.433594 51.425781l-6.40625 103.542969c-.824219 13.308593 9.75 24.554687 23.082031 24.554687 13.335938 0 23.90625-11.246094 23.082031-24.554687l-6.40625-103.542969c14.394531-8.757812 24.433594-28.480469 24.433594-51.425781zm0 0" fill="url(#f)"/><path d="m426.257812 120.792969c0-17.59375-5.894531-43.667969-15.132812-53.984375-2.859375-3.191406-8.152344-1.140625-8.152344 3.140625v57.96875c0 2.871093-2.214844 5.371093-5.082031 5.457031-2.96875.089844-5.402344-2.289062-5.402344-5.238281v-56.1875c0-4.039063-3.226562-7.414063-7.261719-7.421875-.027343 0-.050781 0-.078124 0-.023438 0-.046876 0-.074219 0-4.039063.007812-7.261719 3.382812-7.261719 7.421875v55.96875c0 2.871093-2.210938 5.371093-5.082031 5.457031-2.96875.089844-5.402344-2.289062-5.402344-5.238281v-58.1875c0-4.28125-5.292969-6.332031-8.152344-3.140625-9.238281 10.316406-15.136719 36.390625-15.136719 53.984375 0 22.945312 10.042969 42.667969 24.433594 51.425781l-6.40625 103.542969c-.824218 13.308593 9.75 24.554687 23.082032 24.554687 13.335937 0 23.90625-11.246094 23.082031-24.554687l-6.40625-103.542969c14.394531-8.757812 24.433593-28.480469 24.433593-51.425781zm0 0" fill="url(#g)"/><path d="m496.90625 249.4375c-10.714844 24.210938-26.683594 45.578125-46.46875 62.648438-1.792969 1.550781-2.8125 3.808593-2.8125 6.175781v37.863281c0 7.300781-8.824219 10.960938-13.980469 5.792969l-19.617187-19.613281c-2.386719-2.378907-5.984375-3.046876-9.082032-1.710938-4.574218 1.976562-9.242187 3.769531-13.992187 5.359375-17.675781 5.910156-36.582031 9.113281-56.242187 9.113281-2.769532 0-5.527344-.0625-8.273438-.191406 34.796875-23.582031 57.671875-63.441406 57.671875-108.648438 0-72.441406-58.722656-131.164062-131.164063-131.164062-36.878906 0-70.203124 15.226562-94.03125 39.722656 2.886719-22.226562 9.910157-43.171875 20.253907-62.042968 4.191406-2.015626 8.464843-3.863282 12.835937-5.539063.425782-.167969.859375-.328125 1.296875-.488281.371094-.148438.742188-.277344 1.113281-.414063 2.152344-.796875 4.328126-1.535156 6.515626-2.238281.71875-.234375 1.441406-.457031 2.164062-.679688.753906-.230468 1.507812-.453124 2.257812-.667968 2.273438-.667969 4.554688-1.273438 6.855469-1.835938.761719-.1875 1.527344-.371094 2.292969-.550781h.019531c.773438-.179687 1.550781-.351563 2.324219-.519531.773438-.167969 1.546875-.328125 2.332031-.488282.734375-.148437 1.464844-.285156 2.195313-.425781.488281-.09375.976562-.1875 1.464844-.261719.691406-.128906 1.378906-.257812 2.070312-.363281.644531-.105469 1.28125-.210937 1.917969-.304687 3.585937-.554688 7.214843-1 10.863281-1.316406.628906-.0625 1.265625-.117188 1.890625-.160157.136719-.007812.273437-.019531.402344-.03125.679687-.054687 1.359375-.09375 2.027343-.136719.667969-.042968 1.335938-.085937 2.003907-.117187 1.324219-.074219 2.664062-.128906 4-.160156.816406-.03125 1.632812-.042969 2.460937-.050781.828125-.011719 1.644532-.023438 2.472656-.023438 2.9375 0 5.855469.074219 8.761719.222656 1.445313.074219 2.898438.160156 4.339844.277344.054687 0 .117187.011719.179687.011719 1.378907.105469 2.757813.230469 4.128907.371093.804687.085938 1.601562.167969 2.40625.265626.722656.085937 1.445312.167968 2.164062.265624 4.445313.570313 8.851563 1.3125 13.179688 2.226563.570312.117187 1.144531.242187 1.71875.371094.6875.148437 1.386719.308593 2.089843.476562.6875.160157 1.386719.332031 2.078126.5 2.078124.507813 4.136718 1.0625 6.175781 1.65625 2.046875.582031 4.074219 1.21875 6.089843 1.878907 2.015626.667968 4.007813 1.367187 5.980469 2.097656.660157.246094 1.316407.488281 1.976563.742187.65625.257813 1.304687.511719 1.960937.777344 3.257813 1.304687 6.460938 2.703125 9.625 4.199219 5.675781 2.695312 11.179688 5.699218 16.496094 8.976562 11.808594 7.296875 22.648437 15.996094 32.304687 25.855469l.878907.878906zm0 0" fill="url(#h)"/><path d="m8.722656 493.425781-3.082031-3.082031c-7.519531-7.523438-7.519531-19.722656 0-27.246094l7.28125-7.28125 30.328125 30.328125-7.28125 7.28125c-7.523438 7.523438-19.722656 7.523438-27.246094 0zm0 0" fill="url(#j)"/><path d="m35.96875 493.425781 7.28125-7.28125-30.328125-30.328125-7.28125 7.28125c-.28125.28125-.546875.570313-.808594.863282v25.515624c.261719.292969.527344.582032.808594.863282l3.082031 3.082031c7.523438 7.527344 19.722656 7.527344 27.246094.003906zm0 0" fill="url(#k)"/><path d="m139.300781 392.625c9.335938-6.195312 13.421875-18.167969 4.335938-26.730469-4.1875-4.1875-6.277344-6.277343-10.464844-10.464843-8.5625-9.085938-20.535156-5-26.730469 4.335937-28.679687 33.226563-70.820312 48.933594-99.496094 82.15625-6.839843 10.980469-4.148437 26.097656 4.335938 35.398437 4.1875 4.1875 6.28125 6.277344 10.464844 10.464844 9.300781 8.488282 24.417968 11.175782 35.402344 4.335938 33.21875-28.675782 48.925781-70.816406 82.152343-99.496094zm0 0" fill="url(#l)"/><path d="m100.382812 366.3125v64.742188l49.6875-49.6875-32.371093-32.371094zm0 0" fill="url(#m)"/><path d="m129.46875 396.097656-26.5-26.5c-6.25-6.25-6.25-16.386718 0-22.636718l22.546875-22.546876 49.136719 49.140626-22.546875 22.542968c-6.25 6.25-16.386719 6.25-22.636719 0zm0 0" fill="url(#n)"/><path d="m110.585938 339.355469v37.859375l18.882812 18.882812c6.25 6.25 16.386719 6.25 22.636719 0l22.546875-22.546875-49.136719-49.136719-14.929687 14.925782zm0 0" fill="url(#o)"/><path d="m384.109375 246.222656c0 72.4375-58.722656 131.15625-131.160156 131.15625s-131.15625-58.71875-131.15625-131.15625 58.71875-131.160156 131.15625-131.160156 131.160156 58.722656 131.160156 131.160156zm0 0" fill="url(#p)"/><path d="m252.949219 75.96875c-94.027344 0-170.25 76.226562-170.25 170.25 0 94.035156 76.222656 170.25 170.25 170.25 94.023437 0 170.25-76.214844 170.25-170.25 0-94.023438-76.226563-170.25-170.25-170.25zm0 301.410156c-72.433594 0-131.160157-58.71875-131.160157-131.160156 0-72.433594 58.726563-131.160156 131.160157-131.160156 72.433593 0 131.160156 58.726562 131.160156 131.160156 0 72.441406-58.726563 131.160156-131.160156 131.160156zm0 0" fill="url(#q)"/><path d="m252.949219 390.980469c79.941406 0 144.75-64.808594 144.75-144.753907 0-79.941406-64.808594-144.757812-144.75-144.757812-79.945313 0-144.753907 64.816406-144.753907 144.757812 0 79.945313 64.808594 144.753907 144.753907 144.753907zm0-275.910157c72.433593 0 131.160156 58.714844 131.160156 131.160157 0 72.433593-58.726563 131.15625-131.160156 131.15625-72.433594 0-131.160157-58.722657-131.160157-131.15625 0-72.445313 58.726563-131.160157 131.160157-131.160157zm0 0" fill="url(#r)"/></svg>