<svg height="512pt" viewBox="0 -8 512 512" width="512pt" xmlns="http://www.w3.org/2000/svg" xmlns:xlink="http://www.w3.org/1999/xlink"><linearGradient id="a" gradientUnits="userSpaceOnUse" x1="41.7095457652" x2="192.2066896476" y1="287.4257961256" y2="437.9230404002"><stop offset="0" stop-color="#45425a"/><stop offset="1" stop-color="#2d3251"/></linearGradient><linearGradient id="b"><stop offset="0" stop-color="#ffd459"/><stop offset=".2296" stop-color="#ffd355"/><stop offset=".4362" stop-color="#ffcf4a"/><stop offset=".634" stop-color="#ffc838"/><stop offset=".825" stop-color="#ffbf1f"/><stop offset="1" stop-color="#ffb400"/></linearGradient><linearGradient id="c" gradientUnits="userSpaceOnUse" x1="258.1050332574" x2="471.7420442702" xlink:href="#b" y1="260.8243729306" y2="474.4612835512"/><linearGradient id="d"><stop offset="0" stop-color="#e58200" stop-opacity="0"/><stop offset=".0396" stop-color="#e27f04" stop-opacity=".039216"/><stop offset=".4671" stop-color="#c15d2f" stop-opacity=".466667"/><stop offset=".8016" stop-color="#ad4949" stop-opacity=".8"/><stop offset="1" stop-color="#a64153"/></linearGradient><linearGradient id="e" gradientUnits="userSpaceOnUse" x1="365.1198055148" x2="-164.519725594" xlink:href="#d" y1="315.2400574888" y2="315.2400574888"/><linearGradient id="f" gradientUnits="userSpaceOnUse" x1="47.4977584484" x2="367.1069687216" y1="214.6698621182" y2="447.4286758572"><stop offset="0" stop-color="#fffcf8"/><stop offset=".1875" stop-color="#faf8f6"/><stop offset=".4041" stop-color="#eceef2"/><stop offset=".6353" stop-color="#d5dcea"/><stop offset=".875" stop-color="#b5c4df"/><stop offset="1" stop-color="#a1b5d8"/></linearGradient><linearGradient id="g" gradientUnits="userSpaceOnUse" x1="248.506836192" x2="100.9635320102" y1="278.3424102618" y2="130.79910608"><stop offset="0" stop-color="#a1b5d8" stop-opacity="0"/><stop offset=".0343" stop-color="#9fb3d5" stop-opacity=".035294"/><stop offset=".4515" stop-color="#8898af" stop-opacity=".45098"/><stop offset=".788" stop-color="#798898" stop-opacity=".788235"/><stop offset="1" stop-color="#748290"/></linearGradient><linearGradient id="h" gradientUnits="userSpaceOnUse" x1="156.497384892" x2="212.7149086558" xlink:href="#b" y1="186.3293448426" y2="242.5468686064"/><linearGradient id="i" gradientUnits="userSpaceOnUse" x1="193.1511794652" x2="134.5470319308" xlink:href="#d" y1="195.993298799" y2="168.3042265092"/><linearGradient id="j" gradientUnits="userSpaceOnUse" x1="208.0865270592" x2="184.9674081056" xlink:href="#d" y1="206.0407509594" y2="150.6625059876"/><linearGradient id="k" gradientTransform="matrix(-1.003922 0 0 1.003922 1661.346535 -8.38464)" gradientUnits="userSpaceOnUse" x1="1485.6841" x2="1462.6553" xlink:href="#d" y1="209.2027" y2="154.0408"/><linearGradient id="l"><stop offset="0" stop-color="#e58200" stop-opacity="0"/><stop offset=".2413" stop-color="#da760f" stop-opacity=".243137"/><stop offset=".7044" stop-color="#bc5737" stop-opacity=".705882"/><stop offset="1" stop-color="#a64153"/></linearGradient><linearGradient id="m" gradientUnits="userSpaceOnUse" x1="176.6667802252" x2="206.058504227" xlink:href="#l" y1="237.5110954622" y2="272.9962244352"/><linearGradient id="n" gradientUnits="userSpaceOnUse" x1="204.3015403348" x2="237.7132692012" xlink:href="#l" y1="232.8700644484" y2="209.00462988"/><linearGradient id="o" gradientUnits="userSpaceOnUse" x1="196.9176940248" x2="162.5883804504" y1="226.8256508708" y2="181.606594578"><stop offset="0" stop-color="#ffd459" stop-opacity="0"/><stop offset=".1903" stop-color="#ffd55c" stop-opacity=".192157"/><stop offset=".3461" stop-color="#ffd766" stop-opacity=".345098"/><stop offset=".4896" stop-color="#ffdc78" stop-opacity=".490196"/><stop offset=".6259" stop-color="#ffe290" stop-opacity=".627451"/><stop offset=".757" stop-color="#ffeaaf" stop-opacity=".756863"/><stop offset=".8824" stop-color="#fff4d4" stop-opacity=".882353"/><stop offset="1" stop-color="#fff"/></linearGradient><linearGradient id="p" gradientUnits="userSpaceOnUse" x1="311.424133815" x2="492.5128892736" xlink:href="#d" y1="96.5619525452" y2="257.1332529132"/><path d="m12.925781 482.894531h122.117188v-331.746093h-122.117188c-7.140625 0-12.925781 5.789062-12.925781 12.925781v305.898437c0 7.136719 5.785156 12.921875 12.925781 12.921875zm0 0" fill="url(#a)"/><path d="m394.085938 151.148438v-78.488282c0-35.917968-26.191407-66.472656-61.691407-71.960937l-2.167969-.335938c-18.371093-2.839843-34.945312 11.367188-34.945312 29.957031v51.976563c0 38.027344-30.828125 68.851563-68.851562 68.851563h-100.558594v331.746093h273.460937c62.226563 0 112.667969-50.441406 112.667969-112.667969v-171.246093c0-26.417969-21.414062-47.832031-47.832031-47.832031zm0 0" fill="url(#c)"/><path d="m505.605469 407.65625-256.765625-259.90625-.546875-.167969c-6.871094 2.300781-14.21875 3.566407-21.863281 3.566407h-100.558594v331.746093h273.460937c49.101563 0 90.839844-31.417969 106.273438-75.238281zm0 0" fill="url(#e)"/><path d="m236.359375 495.230469h-96.632813c-7.652343 0-13.855468-6.207031-13.855468-13.859375v-328.699219c0-7.652344 6.203125-13.855469 13.855468-13.855469h96.632813c7.652344 0 13.855469 6.203125 13.855469 13.855469v328.699219c0 7.65625-6.203125 13.859375-13.855469 13.859375zm0 0" fill="url(#f)"/><path d="m250.214844 219.375-20.171875-20.171875c-1.167969-1.667969-2.984375-2.921875-5.3125-3.257813l-8.914063-1.296874c-.046875-.03125-.097656-.0625-.140625-.097657l-21.144531-21.140625c-3.328125-4.824218-10.867188-4.476562-13.585938 1.035156l-7.304687 14.796876c-1.152344 2.335937-3.378906 3.957031-5.957031 4.328124l-16.328125 2.375c-6.492188.941407-9.085938 8.921876-4.386719 13.5l12.941406 12.902344c1.058594 1.648438 1.488282 3.648438 1.152344 5.621094l-2.789062 16.261719c-.5625 3.28125.910156 6.160156 3.253906 7.808593l88.6875 88.6875zm0 0" fill="url(#g)"/><path d="m195.140625 174.445312 7.300781 14.796876c1.152344 2.335937 3.382813 3.957031 5.960938 4.328124l16.328125 2.375c6.492187.941407 9.082031 8.921876 4.386719 13.5l-11.816407 11.515626c-1.867187 1.820312-2.714843 4.441406-2.277343 7.007812l2.789062 16.261719c1.109375 6.464843-5.675781 11.394531-11.484375 8.34375l-14.601563-7.679688c-2.308593-1.210937-5.0625-1.210937-7.367187 0l-14.605469 7.679688c-5.804687 3.050781-12.59375-1.878907-11.484375-8.34375l2.789063-16.261719c.441406-2.570312-.410156-5.1875-2.273438-7.007812l-11.816406-11.515626c-4.695312-4.578124-2.105469-12.558593 4.386719-13.5l16.328125-2.375c2.578125-.371093 4.804687-1.992187 5.957031-4.328124l7.304687-14.796876c2.902344-5.882812 11.292969-5.882812 14.195313 0zm0 0" fill="url(#h)"/><path d="m204.972656 192.195312c-1.058594-.75-1.9375-1.753906-2.53125-2.953124l-7.300781-14.796876c-1.453125-2.941406-4.273437-4.410156-7.097656-4.410156v47.945313zm0 0" fill="url(#i)"/><path d="m188.042969 217.980469 27.289062 6.117187c.394531-1.167968 1.058594-2.246094 1.96875-3.136718l11.816407-11.515626c4.695312-4.578124 2.105468-12.558593-4.386719-13.5l-16.328125-2.375c-1.253906-.179687-2.421875-.660156-3.429688-1.375zm0 0" fill="url(#j)"/><path d="m188.042969 217.980469-27.289063 6.117187c-.398437-1.167968-1.058594-2.246094-1.96875-3.136718l-11.816406-11.515626c-4.699219-4.578124-2.105469-12.558593 4.386719-13.5l16.328125-2.375c1.253906-.179687 2.421875-.660156 3.429687-1.375zm0 0" fill="url(#k)"/><path d="m160.753906 224.097656c.414063 1.230469.53125 2.554688.304688 3.871094l-2.789063 16.261719c-1.109375 6.464843 5.679688 11.394531 11.484375 8.34375l14.605469-7.679688c1.152344-.605469 2.417969-.910156 3.683594-.910156v-26.003906zm0 0" fill="url(#m)"/><path d="m206.328125 252.574219c5.808594 3.050781 12.59375-1.878907 11.484375-8.34375l-2.789062-16.261719c-.222657-1.316406-.105469-2.640625.308593-3.871094l-27.289062-6.117187v26.003906c1.265625 0 2.53125.304687 3.683593.910156zm0 0" fill="url(#n)"/><path d="m194.078125 180.035156 6.207031 12.578125c.980469 1.988281 2.875 3.363281 5.066406 3.683594l13.886719 2.015625c5.519531.804688 7.722657 7.585938 3.726563 11.480469l-10.046875 9.792969c-1.585938 1.546874-2.308594 3.773437-1.933594 5.957031l2.371094 13.828125c.941406 5.496094-4.828125 9.6875-9.765625 7.09375l-12.417969-6.53125c-1.960937-1.027344-4.300781-1.027344-6.261719 0l-12.417968 6.53125c-4.9375 2.59375-10.707032-1.597656-9.765626-7.09375l2.371094-13.828125c.375-2.183594-.347656-4.410157-1.933594-5.957031l-10.046874-9.792969c-3.996094-3.894531-1.792969-10.675781 3.726562-11.480469l13.886719-2.015625c2.191406-.320313 4.085937-1.695313 5.066406-3.683594l6.207031-12.578125c2.472656-5.003906 9.605469-5.003906 12.074219 0zm0 0" fill="url(#o)"/><path d="m332.394531.699219-2.167969-.335938c-18.371093-2.839843-34.945312 11.367188-34.945312 29.957031v51.976563c0 38.027344-30.828125 68.851563-68.851562 68.851563h167.65625v-78.488282c0-35.917968-26.191407-66.472656-61.691407-71.960937zm0 0" fill="url(#p)"/></svg>