<svg height="511pt" viewBox="-52 0 511 511.99891" width="511pt" xmlns="http://www.w3.org/2000/svg" xmlns:xlink="http://www.w3.org/1999/xlink"><linearGradient id="a"><stop offset="0" stop-color="#fffcf8"/><stop offset=".1875" stop-color="#faf8f6"/><stop offset=".4041" stop-color="#eceef2"/><stop offset=".6353" stop-color="#d5dcea"/><stop offset=".875" stop-color="#b5c4df"/><stop offset="1" stop-color="#a1b5d8"/></linearGradient><linearGradient id="b" gradientUnits="userSpaceOnUse" x1="130.3694876668" x2="368.2401718376" xlink:href="#a" y1="279.753908364" y2="631.8958134004"/><linearGradient id="c" gradientUnits="userSpaceOnUse" x1="248.3021124586" x2="194.3428108416" y1="443.7645451118" y2="283.4507507368"><stop offset="0" stop-color="#a1b5d8" stop-opacity="0"/><stop offset=".0343" stop-color="#9fb3d5" stop-opacity=".035294"/><stop offset=".4515" stop-color="#8898af" stop-opacity=".45098"/><stop offset=".788" stop-color="#798898" stop-opacity=".788235"/><stop offset="1" stop-color="#748290"/></linearGradient><linearGradient id="d" gradientUnits="userSpaceOnUse" x1="71.4658701998" x2="231.8833697174" y1="308.5710878052" y2="546.0519490634"><stop offset="0" stop-color="#ff6e3a"/><stop offset=".1596" stop-color="#ff6440"/><stop offset=".4266" stop-color="#ff4b52"/><stop offset=".7662" stop-color="#ff216e"/><stop offset="1" stop-color="#ff0084"/></linearGradient><linearGradient id="e" gradientUnits="userSpaceOnUse" x1="223.2099855984" x2="159.8278720894" y1="413.325228503" y2="349.943114994"><stop offset="0" stop-color="#e4003d" stop-opacity="0"/><stop offset=".5838" stop-color="#bd294b" stop-opacity=".584314"/><stop offset="1" stop-color="#a64153"/></linearGradient><linearGradient id="f" gradientUnits="userSpaceOnUse" x1="233.37750683" x2="406.246349737" y1="306.8409286304" y2="562.7546009462"><stop offset="0" stop-color="#8be1e2"/><stop offset=".1873" stop-color="#87e1e1"/><stop offset=".3558" stop-color="#7ce2dd"/><stop offset=".5172" stop-color="#6ae2d7"/><stop offset=".6741" stop-color="#50e4ce"/><stop offset=".8278" stop-color="#2fe5c2"/><stop offset=".9772" stop-color="#07e7b4"/><stop offset="1" stop-color="#00e7b2"/></linearGradient><linearGradient id="g"><stop offset="0" stop-color="#ffc738"/><stop offset=".4873" stop-color="#ffc636"/><stop offset=".6746" stop-color="#ffc22f"/><stop offset=".8103" stop-color="#ffbb23"/><stop offset=".9203" stop-color="#ffb112"/><stop offset="1" stop-color="#ffa700"/></linearGradient><radialGradient id="h" cx="205.4445" cy="237.5246" gradientTransform="matrix(-1.003922 0 0 -1.003922 460.2486 511.998996)" gradientUnits="userSpaceOnUse" r="268.3217" xlink:href="#g"/><radialGradient id="i" cx="156.1682752228" cy="136.2957635846" gradientUnits="userSpaceOnUse" r="260.334543235" xlink:href="#g"/><linearGradient id="j" gradientTransform="matrix(-1.003922 0 0 -1.003922 -2744.269047 -2692.518651)" gradientUnits="userSpaceOnUse" x1="-3010.1736" x2="-2810.4995" y1="-2958.127" y2="-2758.4529"><stop offset="0" stop-color="#fff465"/><stop offset="1" stop-color="#ffe600"/></linearGradient><radialGradient id="k" cx="204.24871" cy="203.7483792348" gradientUnits="userSpaceOnUse" r="154.8789622358"><stop offset="0" stop-color="#fffcf8"/><stop offset=".9485" stop-color="#fffcf8" stop-opacity=".05098"/><stop offset="1" stop-color="#fffcf8" stop-opacity="0"/></radialGradient><radialGradient id="l" cx="204.24871" cy="203.7483792348" gradientUnits="userSpaceOnUse" r="129.0347974054" xlink:href="#g"/><radialGradient id="m" cx="190.4634554492" cy="100.3142955748" gradientUnits="userSpaceOnUse" r="218.9261740698" xlink:href="#g"/><linearGradient id="n"><stop offset="0" stop-color="#e58200" stop-opacity="0"/><stop offset=".0396" stop-color="#e27f04" stop-opacity=".039216"/><stop offset=".4671" stop-color="#c15d2f" stop-opacity=".466667"/><stop offset=".8016" stop-color="#ad4949" stop-opacity=".8"/><stop offset="1" stop-color="#a64153"/></linearGradient><linearGradient id="o" gradientUnits="userSpaceOnUse" x1="263.025833295" x2="97.839001532" xlink:href="#n" y1="301.4648259282" y2="136.2779941652"/><linearGradient id="p" gradientUnits="userSpaceOnUse" x1="305.6631033804" x2="146.3332529576" xlink:href="#n" y1="259.7511640828" y2="100.42131366"/><linearGradient id="q" gradientUnits="userSpaceOnUse" x1="131.4018206594" x2="196.8230001426" xlink:href="#a" y1="204.094832717" y2="204.094832717"/><linearGradient id="r" gradientUnits="userSpaceOnUse" x1="211.6604653416" x2="277.0818456092" xlink:href="#a" y1="204.094832717" y2="204.094832717"/><path d="m305.621094 511.480469-93.070313-38.570313c-5.316406-2.203125-11.289062-2.203125-16.601562 0l-93.074219 38.570313c-4.429688 1.835937-9.304688-1.421875-9.304688-6.21875v-234.34375h221.359376v234.34375c0 4.796875-4.875 8.054687-9.308594 6.21875zm0 0" fill="url(#b)"/><path d="m314.929688 270.917969v234.34375c0 4.800781-4.878907 8.050781-9.304688 6.214843l-93.074219-38.570312c-2.902343-1.195312-5.992187-1.746094-9.066406-1.625l-81.257813-81.78125c-.039062-.039062-.089843-.078125-.128906-.121094l-.984375-.992187c-.730469-.792969-1.363281-1.675781-1.90625-2.652344l-13.03125-23.398437c-2.25-4.039063-6.292969-6.746094-10.882812-7.289063l-1.726563-.203125v-83.925781zm0 0" fill="url(#c)"/><path d="m158.191406 270.917969h-64.625v234.34375c0 4.796875 4.875 8.054687 9.308594 6.21875l55.316406-22.925781zm0 0" fill="url(#d)"/><path d="m158.191406 270.917969h-64.625v83.925781l1.726563.203125c4.589843.542969 8.632812 3.25 10.882812 7.289063l13.03125 23.398437c.542969.976563 1.175781 1.859375 1.90625 2.652344l.984375.992187c.039063.042969.089844.082032.128906.121094l35.964844 36.195312zm0 0" fill="url(#e)"/><path d="m250.304688 270.917969v217.636719l55.316406 22.925781c4.433594 1.835937 9.308594-1.421875 9.308594-6.21875v-234.34375zm0 0" fill="url(#f)"/><path d="m3.589844 194.839844 16.621094-21.042969c2.859374-3.621094 3.804687-8.398437 2.546874-12.835937l-7.324218-25.769532c-1.824219-6.414062 1.003906-13.238281 6.832031-16.484375l23.402344-13.03125c4.035156-2.246093 6.742187-6.296875 7.28125-10.882812l3.121093-26.625c.773438-6.613281 5.988282-11.828125 12.601563-12.601563l26.625-3.117187c4.585937-.539063 8.636719-3.246094 10.882813-7.28125l13.03125-23.402344c3.242187-5.828125 10.070312-8.65625 16.484374-6.832031l25.765626 7.324218c4.441406 1.261719 9.214843.3125 12.835937-2.546874l21.042969-16.617188c5.222656-4.125 12.59375-4.125 17.816406 0l21.042969 16.617188c3.621093 2.859374 8.394531 3.808593 12.835937 2.546874l25.765625-7.324218c6.414063-1.824219 13.242188 1.003906 16.484375 6.832031l13.035156 23.402344c2.246094 4.035156 6.296876 6.742187 10.882813 7.28125l26.625 3.117187c6.613281.777344 11.828125 5.992188 12.601563 12.601563l3.117187 26.625c.539063 4.589843 3.246094 8.636719 7.28125 10.886719l23.402344 13.027343c5.824219 3.246094 8.65625 10.070313 6.832031 16.484375l-7.324219 25.769532c-1.261719 4.4375-.316406 9.214843 2.546875 12.835937l16.617188 21.042969c4.125 5.222656 4.125 12.59375 0 17.8125l-16.617188 21.046875c-2.863281 3.621093-3.808594 8.394531-2.546875 12.832031l7.324219 25.769531c1.820312 6.414063-1.007812 13.242188-6.832031 16.484375l-23.402344 13.03125c-4.035156 2.25-6.746094 6.296875-7.285156 10.886719l-3.117188 26.625c-.777343 6.609375-5.988281 11.824219-12.601562 12.597656l-26.625 3.121094c-4.585938.539063-8.636719 3.246094-10.882813 7.28125l-13.03125 23.402344c-3.246094 5.824219-10.070312 8.65625-16.484375 6.832031l-25.769531-7.324219c-4.4375-1.261719-9.210938-.3125-12.832031 2.546875l-21.046875 16.617188c-5.21875 4.125-12.589844 4.125-17.8125 0l-21.042969-16.617188c-3.625-2.863281-8.398437-3.808594-12.835937-2.546875l-25.769532 7.324219c-6.414062 1.824219-13.242187-1.007812-16.484375-6.832031l-13.03125-23.402344c-2.246093-4.035156-6.296875-6.742187-10.882812-7.28125l-26.625-3.121094c-6.613281-.773437-11.828125-5.988281-12.601563-12.597656l-3.121094-26.625c-.535156-4.585937-3.246093-8.636719-7.28125-10.882813l-23.398437-13.03125c-5.828125-3.246093-8.65625-10.070312-6.832031-16.484374l7.320312-25.769532c1.261719-4.4375.316406-9.214844-2.542968-12.835937l-16.621094-21.042969c-4.121094-5.222656-4.121094-12.59375 0-17.816406zm0 0" fill="url(#h)"/><path d="m398.171875 212.355469-16.0625 20.339843c-2.761719 3.5-3.679687 8.113282-2.460937 12.402344l7.078124 24.90625c1.761719 6.199219-.972656 12.792969-6.601562 15.929688l-22.617188 12.59375c-3.898437 2.171875-6.519531 6.085937-7.035156 10.519531l-3.015625 25.730469c-.75 6.390625-5.789062 11.429687-12.179687 12.179687l-25.730469 3.011719c-4.433594.519531-8.347656 3.136719-10.519531 7.039062l-12.59375 22.617188c-3.136719 5.628906-9.734375 8.363281-15.933594 6.601562l-24.902344-7.078124c-4.289062-1.21875-8.90625-.304688-12.402344 2.460937l-20.339843 16.058594c-5.046875 3.988281-12.167969 3.988281-17.214844 0l-20.339844-16.058594c-3.5-2.765625-8.113281-3.679687-12.402343-2.460937l-24.90625 7.078124c-6.199219 1.761719-12.792969-.972656-15.929688-6.601562l-12.59375-22.617188c-2.171875-3.902343-6.085938-6.519531-10.519531-7.039062l-25.730469-3.015625c-6.390625-.746094-11.429688-5.789063-12.179688-12.175781l-3.011718-25.734375c-.519532-4.433594-3.136719-8.34375-7.039063-10.519531l-22.617187-12.589844c-5.628906-3.136719-8.363282-9.730469-6.601563-15.929688l7.078125-24.90625c1.21875-4.289062.304688-8.902344-2.460937-12.402344l-16.0625-20.339843c-3.984375-5.046875-3.984375-12.167969 0-17.214844l16.0625-20.335937c2.765625-3.503907 3.679687-8.117188 2.460937-12.40625l-7.078125-24.90625c-1.761719-6.199219.972657-12.792969 6.601563-15.929688l22.617187-12.59375c3.902344-2.171875 6.519531-6.085938 7.039063-10.519531l3.015625-25.730469c.746093-6.390625 5.785156-11.429688 12.175781-12.179688l25.734375-3.011718c4.429687-.519532 8.34375-3.140625 10.515625-7.039063l12.597656-22.617187c3.132813-5.628906 9.730469-8.363282 15.929688-6.601563l24.902344 7.078125c4.289062 1.21875 8.90625.304688 12.40625-2.460937l20.335937-16.058594c5.046875-3.984375 12.167969-3.984375 17.214844 0l20.339843 16.058594c3.5 2.765625 8.113282 3.679687 12.402344 2.460937l24.90625-7.078125c6.199219-1.761719 12.796875.972657 15.929688 6.601563l12.59375 22.617187c2.171875 3.902344 6.085937 6.519531 10.519531 7.039063l25.730469 3.015625c6.390625.75 11.429687 5.789062 12.179687 12.179687l3.015625 25.730469c.515625 4.433594 3.136719 8.347656 7.035156 10.519531l22.617188 12.59375c5.628906 3.132813 8.363281 9.730469 6.601562 15.929688l-7.078124 24.902344c-1.21875 4.292968-.304688 8.90625 2.460937 12.40625l16.0625 20.335937c3.984375 5.046875 3.984375 12.167969 0 17.214844zm0 0" fill="url(#i)"/><path d="m333.285156 203.746094c0 71.265625-57.773437 129.035156-129.035156 129.035156-71.265625 0-129.035156-57.769531-129.035156-129.035156 0-71.261719 57.769531-129.035156 129.035156-129.035156 71.261719 0 129.035156 57.773437 129.035156 129.035156zm0 0" fill="url(#j)"/><path d="m379.472656 203.746094c0 96.777344-78.449218 175.226562-175.222656 175.226562s-175.226562-78.449218-175.226562-175.226562c0-96.773438 78.453124-175.222656 175.226562-175.222656s175.222656 78.449218 175.222656 175.222656zm0 0" fill="url(#k)"/><path d="m333.285156 203.746094c0 71.265625-57.773437 129.035156-129.035156 129.035156-71.265625 0-129.035156-57.769531-129.035156-129.035156 0-71.261719 57.769531-129.035156 129.035156-129.035156 71.261719 0 129.035156 57.773437 129.035156 129.035156zm0 0" fill="url(#l)"/><path d="m309.386719 203.746094c0 58.070312-47.070313 105.140625-105.136719 105.140625-58.070312 0-105.140625-47.070313-105.140625-105.140625 0-58.066406 47.070313-105.136719 105.140625-105.136719 58.066406 0 105.136719 47.070313 105.136719 105.136719zm0 0" fill="url(#m)"/><path d="m321.53125 257.136719c-12.554688 27.71875-34.652344 50.191406-62.089844 63.242187-16.726562 7.957032-35.445312 12.414063-55.203125 12.414063-4.503906 0-8.941406-.234375-13.324219-.6875l-38.136718-38.136719c-4.589844-3.601562-7.417969-9.300781-7.035156-15.601562l5.03125-81.257813c-.335938-.347656-.675782-.707031-.996094-1.074219-1.136719-.996094-2.21875-2.085937-3.253906-3.253906-9.09375-7.953125-15.121094-21.871094-15.121094-37.722656 0-24.730469 14.640625-44.777344 32.703125-44.777344 7.957031 0 15.242187 3.894531 20.914062 10.34375zm0 0" fill="url(#o)"/><path d="m321.53125 257.136719c-12.554688 27.71875-34.652344 50.191406-62.089844 63.242187l-26.410156-26.410156c-4.578125-3.601562-7.417969-9.300781-7.023438-15.597656l5.019532-81.261719c-.328125-.347656-.667969-.703125-.996094-1.070313-1.128906-1-2.21875-2.089843-3.253906-3.253906-9.082032-7.957031-15.121094-21.871094-15.121094-37.726562 0-2.3125.132812-4.824219.378906-7.417969 1.25-13.105469 5.539063-28.6875 11.667969-35.542969 2.171875-2.417968 6.101563-1.035156 6.449219 2.058594 1.597656.207031 7.832031 6.855469 8.378906 7.277344v-5.238282c0-3.214843 2.566406-5.902343 5.78125-5.914062h.113281c2.425781.011719 4.484375 1.542969 5.339844 3.679688 1.476563.589843 8.171875 7.4375 8.78125 8.167968v-7.53125c0-3.402344 4.214844-5.039062 6.488281-2.5l65.078125 65.078125c1.851563 8.679688 2.820313 17.6875 2.820313 26.917969.003906 18.910156-4.078125 36.871094-11.402344 53.042969zm0 0" fill="url(#p)"/><path d="m196.824219 155.058594c0-24.726563-14.648438-44.769532-32.710938-44.769532-18.066406 0-32.710937 20.042969-32.710937 44.769532 0 18.257812 7.988281 33.949218 19.441406 40.917968l-5.097656 82.386719c-.65625 10.589844 7.753906 19.539063 18.367187 19.539063 10.609375 0 19.019531-8.949219 18.367188-19.539063l-5.101563-82.386719c11.453125-6.96875 19.445313-22.660156 19.445313-40.917968zm0 0" fill="url(#q)"/><path d="m277.082031 155.058594c0-14-4.691406-34.746094-12.042969-42.957032-2.273437-2.539062-6.488281-.90625-6.488281 2.5v46.125c0 2.285157-1.757812 4.277344-4.042969 4.34375-2.359374.070313-4.296874-1.824218-4.296874-4.167968v-44.710938c0-3.210937-2.566407-5.894531-5.78125-5.90625-.019532 0-.039063 0-.058594 0-.019532 0-.039063 0-.0625 0-3.210938.007813-5.777344 2.695313-5.777344 5.90625v44.535156c0 2.285157-1.761719 4.277344-4.042969 4.34375-2.363281.070313-4.300781-1.824218-4.300781-4.167968v-46.300782c0-3.40625-4.210938-5.039062-6.484375-2.5-7.351563 8.210938-12.042969 28.957032-12.042969 42.957032 0 18.257812 7.988282 33.949218 19.441406 40.917968l-5.097656 82.386719c-.65625 10.589844 7.753906 19.539063 18.367188 19.539063 10.609375 0 19.019531-8.949219 18.363281-19.539063l-5.097656-82.386719c11.457031-6.96875 19.445312-22.660156 19.445312-40.917968zm0 0" fill="url(#r)"/></svg>