<svg height="512pt" viewBox="-41 0 512 512.00276" width="512pt" xmlns="http://www.w3.org/2000/svg" xmlns:xlink="http://www.w3.org/1999/xlink"><linearGradient id="a"><stop offset="0" stop-color="#ffd459"/><stop offset=".3188" stop-color="#ffcb40"/><stop offset=".9931" stop-color="#ffb401"/><stop offset="1" stop-color="#ffb400"/></linearGradient><linearGradient id="b" gradientUnits="userSpaceOnUse" x1="215.316565" x2="215.316565" xlink:href="#a" y1="228.140270578" y2="661.9111738266"/><linearGradient id="c"><stop offset="0" stop-color="#e58200" stop-opacity="0"/><stop offset=".0396" stop-color="#e27f04" stop-opacity=".039216"/><stop offset=".4671" stop-color="#c15d2f" stop-opacity=".466667"/><stop offset=".8016" stop-color="#ad4949" stop-opacity=".8"/><stop offset="1" stop-color="#a64153"/></linearGradient><linearGradient id="d" gradientUnits="userSpaceOnUse" x1="369.1837746442" x2="-72.1862157912" xlink:href="#c" y1="347.4623234178" y2="681.4192857384"/><linearGradient id="e" gradientUnits="userSpaceOnUse" x1="258.7700236714" x2="258.7700236714" xlink:href="#a" y1="180.162336237" y2="322.3993102956"/><linearGradient id="f" gradientUnits="userSpaceOnUse" x1="302.298876885" x2="224.180192338" xlink:href="#c" y1="203.0470394036" y2="414.4555443608"/><linearGradient id="g" gradientUnits="userSpaceOnUse" x1="86.0561863212" x2="56.0293812622" xlink:href="#c" y1="246.62849813" y2="341.1031802932"/><linearGradient id="h" gradientUnits="userSpaceOnUse" x1="77.7107835196" x2="55.9026863058" xlink:href="#c" y1="322.4227016782" y2="417.4670091842"/><linearGradient id="i" gradientUnits="userSpaceOnUse" x1="104.6585598046" x2="68.2845582928" xlink:href="#c" y1="424.2135658086" y2="492.567301846"/><linearGradient id="j" gradientUnits="userSpaceOnUse" x1="305.912494124" x2="181.573742658" xlink:href="#c" y1="224.0901480534" y2="53.5312292762"/><linearGradient id="k" gradientUnits="userSpaceOnUse" x1="122.5806757408" x2="350.4460724752" y1="116.913242393" y2="116.913242393"><stop offset="0" stop-color="#8be1e2"/><stop offset=".1873" stop-color="#87e1e1"/><stop offset=".3558" stop-color="#7ce2dd"/><stop offset=".5172" stop-color="#6ae2d7"/><stop offset=".6741" stop-color="#50e4ce"/><stop offset=".8278" stop-color="#2fe5c2"/><stop offset=".9772" stop-color="#07e7b4"/><stop offset="1" stop-color="#00e7b2"/></linearGradient><linearGradient id="l"><stop offset=".0029" stop-color="#00e7b2" stop-opacity="0"/><stop offset=".4308" stop-color="#1bc4b7" stop-opacity=".427451"/><stop offset="1" stop-color="#3b9abe"/></linearGradient><linearGradient id="m" gradientUnits="userSpaceOnUse" x1="302.1333301472" x2="148.790167787" xlink:href="#l" y1="213.6990533924" y2="60.3558910322"/><linearGradient id="n" gradientUnits="userSpaceOnUse" x1="336.1945965476" x2="182.8514341874" xlink:href="#l" y1="179.637786992" y2="26.2946246318"/><linearGradient id="o"><stop offset="0" stop-color="#fffcf8"/><stop offset=".1875" stop-color="#faf8f6"/><stop offset=".4041" stop-color="#eceef2"/><stop offset=".6353" stop-color="#d5dcea"/><stop offset=".875" stop-color="#b5c4df"/><stop offset="1" stop-color="#a1b5d8"/></linearGradient><linearGradient id="p" gradientUnits="userSpaceOnUse" x1="177.6824405938" x2="230.521465651" xlink:href="#o" y1="116.913242393" y2="116.913242393"/><linearGradient id="q" gradientUnits="userSpaceOnUse" x1="242.505282565" x2="295.3444080144" xlink:href="#o" y1="116.913242393" y2="116.913242393"/><linearGradient id="r"><stop offset="0" stop-color="#3b395f"/><stop offset=".8022" stop-color="#1b1f3a"/><stop offset="1" stop-color="#131830"/></linearGradient><linearGradient id="s" gradientUnits="userSpaceOnUse" x1="309.7666510742" x2="309.7666510742" xlink:href="#r" y1="453.5977603954" y2="501.393282109"/><linearGradient id="t" gradientUnits="userSpaceOnUse" x1="309.7666510742" x2="309.7666510742" xlink:href="#r" y1="423.446268224" y2="453.2221931752"/><path d="m258.769531 273.242188-171.859375-51.507813h-48.054687c-11.210938 0-20.300781 9.089844-20.300781 20.300781 0 11.210938 9.089843 20.300782 20.300781 20.300782h12.792969c10.046874 1.460937 17.714843 10.253906 17.34375 20.792968-.382813 10.996094-9.738282 19.566406-20.746094 19.566406h-27.457032c-11.007812 0-20.382812 8.558594-20.773437 19.558594-.410156 11.550782 8.828125 21.039063 20.285156 21.039063h66.609375v44.410156c0 7.125-5.777344 12.898437-12.902344 12.898437-11.210937 0-20.300781 9.089844-20.300781 20.300782 0 11.210937 9.089844 20.300781 20.300781 20.300781h5.84375c3.898438 0 7.058594 3.160156 7.058594 7.058594 0 9.296875 6.101563 17.496093 15.007813 20.167969l134.417969 40.285156c14.636718 4.382812 30.234374 4.382812 44.867187 0l134.417969-40.285156c8.90625-2.671876 15.007812-10.867188 15.007812-20.167969v-226.527344zm0 0" fill="url(#b)"/><path d="m258.769531 273.242188v238.757812c7.558594 0 15.117188-1.097656 22.433594-3.289062l122.746094-36.789063 11.671875-3.496094c8.90625-2.671875 15.007812-10.867187 15.007812-20.167969v-226.523437zm0 0" fill="url(#d)"/><path d="m243.375 180.078125-156.464844 41.65625 171.859375 51.507813 171.859375-51.507813-156.460937-41.65625c-10.089844-2.6875-20.707031-2.6875-30.792969 0zm0 0" fill="url(#e)"/><path d="m335.476562 250.253906 95.152344-28.519531-156.460937-41.65625c-10.089844-2.6875-20.707031-2.6875-30.796875 0l-75.226563 20.027344zm0 0" fill="url(#f)"/><path d="m151.03125 262.332031h-112.175781c-11.210938 0-20.300781-9.085937-20.300781-20.296875 0-11.210937 9.089843-20.300781 20.300781-20.300781h48.054687l64.121094 19.21875zm0 0" fill="url(#g)"/><path d="m151.03125 343.292969h-130.730469c-11.210937 0-20.300781-9.089844-20.300781-20.300781 0-11.210938 9.089844-20.296876 20.300781-20.296876h130.730469zm0 0" fill="url(#h)"/><path d="m151.03125 441.199219h-77.023438c-11.210937 0-20.300781-9.089844-20.300781-20.300781 0-11.210938 9.089844-20.296876 20.300781-20.296876h77.023438zm0 0" fill="url(#i)"/><path d="m274.167969 180.078125c-10.089844-2.6875-20.707031-2.6875-30.796875 0l-80.378906 21.402344 61.488281 61.488281 34.289062 10.273438 171.859375-51.503907zm0 0" fill="url(#j)"/><path d="m350.445312 113.933594c0-62.921875-51.007812-113.933594-113.929687-113.933594-62.863281 0-113.933594 51.070312-113.933594 113.933594 0 62.921875 51.007813 113.929687 113.933594 113.929687 16.035156 0 31.289063-3.316406 45.132813-9.296875 1.988281-.859375 4.300781-.433594 5.832031 1.101563l12.609375 12.605469c3.316406 3.316406 8.992187.96875 8.992187-3.726563v-24.335937c0-1.519532.652344-2.972657 1.804688-3.964844 24.222656-20.894532 39.558593-51.8125 39.558593-86.3125zm0 0" fill="url(#k)"/><path d="m310.882812 200.246094c10.980469-9.472656 20.128907-21.007813 26.855469-33.996094l-116.75-116.75c-4.578125-5.214844-10.464843-8.351562-16.886719-8.351562-14.589843 0-26.417968 16.1875-26.417968 36.160156 0 12.808594 4.871094 24.046875 12.210937 30.46875.835938.945312 1.710938 1.824218 2.628907 2.625.261718.300781.53125.585937.804687.871094l-4.0625 65.625c-.3125 5.089843 1.976563 9.695312 5.679687 12.601562l38.3125 38.316406c1.082032.03125 2.167969.046875 3.253907.046875 16.035156 0 31.292969-3.316406 45.132812-9.296875 1.992188-.859375 4.300781-.433594 5.835938 1.101563l12.605469 12.605469c3.320312 3.316406 8.992187.964843 8.992187-3.726563v-24.335937c0-1.519532.652344-2.972657 1.804687-3.964844zm0 0" fill="url(#m)"/><path d="m280.378906 44.632812v6.082032c-.496094-.589844-5.902344-6.125-7.09375-6.601563-.695312-1.722656-2.351562-2.960937-4.3125-2.964843-.015625 0-.03125 0-.046875 0s-.03125 0-.050781 0c-2.59375.007812-4.667969 2.175781-4.667969 4.769531v4.230469c-.4375-.339844-5.472656-5.710938-6.765625-5.878907-.28125-2.5-3.457031-3.613281-5.207031-1.65625-5.9375 6.632813-9.730469 23.386719-9.730469 34.691407 0 12.808593 4.875 24.050781 12.214844 30.472656.835938.945312 1.710938 1.824218 2.625 2.625.265625.300781.535156.585937.808594.871094l-4.0625 65.625c-.3125 5.089843 1.976562 9.695312 5.679687 12.601562l36.761719 36.761719c.757812.984375 1.644531 1.855469 2.625 2.625.757812.984375 1.648438 1.859375 2.625 2.625.65625.851562 1.425781 1.605469 2.25 2.292969 2.613281-.125 5.046875-2.183594 5.046875-5.257813v-24.335937c0-1.519532.652344-2.972657 1.804687-3.964844 24.226563-20.894532 39.5625-51.8125 39.5625-86.3125 0-2.246094-.070312-4.476563-.199218-6.691406l-64.628906-64.628907c-1.835938-2.050781-5.238282-.734375-5.238282 2.019531zm0 0" fill="url(#n)"/><path d="m230.523438 77.308594c0-19.972656-11.828126-36.160156-26.421876-36.160156-14.589843 0-26.417968 16.1875-26.417968 36.160156 0 14.746094 6.453125 27.421875 15.703125 33.046875l-4.117188 66.542969c-.53125 8.554687 6.261719 15.78125 14.832031 15.78125 8.570313 0 15.363282-7.226563 14.835938-15.78125l-4.117188-66.542969c9.246094-5.625 15.703126-18.300781 15.703126-33.046875zm0 0" fill="url(#p)"/><path d="m295.34375 77.308594c0-11.308594-3.789062-28.0625-9.726562-34.695313-1.835938-2.046875-5.238282-.734375-5.238282 2.019531v37.253907c0 1.84375-1.421875 3.453125-3.265625 3.507812-1.90625.058594-3.472656-1.472656-3.472656-3.367187v-36.109375c0-2.59375-2.074219-4.765625-4.667969-4.769531-.015625 0-.03125 0-.046875 0s-.03125 0-.050781 0c-2.59375.007812-4.667969 2.175781-4.667969 4.769531v35.96875c0 1.84375-1.421875 3.453125-3.265625 3.507812-1.90625.058594-3.46875-1.472656-3.46875-3.367187v-37.394532c0-2.753906-3.402344-4.070312-5.238281-2.019531-5.9375 6.632813-9.730469 23.386719-9.730469 34.695313 0 14.746094 6.453125 27.421875 15.703125 33.046875l-4.117187 66.542969c-.527344 8.554687 6.265625 15.78125 14.835937 15.78125 8.570313 0 15.363281-7.226563 14.832031-15.78125l-4.117187-66.542969c9.25-5.625 15.703125-18.300781 15.703125-33.046875zm0 0" fill="url(#q)"/><path d="m338.109375 434.832031-59.625 17.867188c-2.167969.652343-3.652344 2.644531-3.652344 4.90625v24.730469c0 3.429687 3.304688 5.886718 6.589844 4.90625l59.628906-17.871094c2.164063-.648438 3.648438-2.644532 3.648438-4.90625v-24.730469c0-3.429687-3.304688-5.886719-6.589844-4.902344zm0 0" fill="url(#s)"/><path d="m338.109375 411.835938-59.625 17.871093c-2.167969.648438-3.652344 2.644531-3.652344 4.902344v4.808594c0 3.429687 3.304688 5.886719 6.589844 4.902343l59.628906-17.867187c2.164063-.652344 3.648438-2.644531 3.648438-4.90625v-4.804687c0-3.429688-3.304688-5.890626-6.589844-4.90625zm0 0" fill="url(#t)"/></svg>