<svg height="512pt" viewBox="-2 0 512 512.00011" width="512pt" xmlns="http://www.w3.org/2000/svg" xmlns:xlink="http://www.w3.org/1999/xlink"><linearGradient id="a" gradientUnits="userSpaceOnUse" x1="85.9085815718" x2="130.5437568294" y1="310.373400442" y2="500.4863103664"><stop offset="0" stop-color="#fffcf8"/><stop offset=".1875" stop-color="#faf8f6"/><stop offset=".4041" stop-color="#eceef2"/><stop offset=".6353" stop-color="#d5dcea"/><stop offset=".875" stop-color="#b5c4df"/><stop offset="1" stop-color="#a1b5d8"/></linearGradient><linearGradient id="b" gradientUnits="userSpaceOnUse" x1="168.6226186816" x2="150.531141104" y1="375.7639603042" y2="313.9512780578"><stop offset="0" stop-color="#a1b5d8" stop-opacity="0"/><stop offset=".0343" stop-color="#9fb3d5" stop-opacity=".035294"/><stop offset=".4515" stop-color="#8898af" stop-opacity=".45098"/><stop offset=".788" stop-color="#798898" stop-opacity=".788235"/><stop offset="1" stop-color="#748290"/></linearGradient><linearGradient id="c" gradientUnits="userSpaceOnUse" x1="212.0447549866" x2="314.1846827964" y1="39.7189406158" y2="247.85315397"><stop offset="0" stop-color="#ffd459"/><stop offset=".2296" stop-color="#ffd355"/><stop offset=".4362" stop-color="#ffcf4a"/><stop offset=".634" stop-color="#ffc838"/><stop offset=".825" stop-color="#ffbf1f"/><stop offset="1" stop-color="#ffb400"/></linearGradient><path d="m55.574219 498.929688c-4.792969-4.726563-8.304688-10.257813-10.535157-16.164063-2.644531-6.996094-8.164062-12.433594-15.195312-14.976563-5.9375-2.148437-11.519531-5.578124-16.3125-10.304687-17.546875-17.296875-18.101562-45.183594-1.230469-63.140625 12.753907-13.570312 31.785157-17.476562 48.152344-11.65625 11.476563 4.082031 24.265625 1.296875 32.816406-7.378906l16.761719-17.003906 54.875-55.667969 43.328125 42.707031-54.875 55.667969-16.761719 17.003906c-8.550781 8.675781-11.152344 21.507813-6.90625 32.921875 6.054688 16.28125 2.421875 35.367188-10.964844 48.3125-17.714843 17.128906-45.605468 16.976562-63.152343-.320312zm0 0" fill="url(#a)"/><path d="m113.863281 354.417969 51.042969-51.78125 43.328125 42.707031-54.878906 55.667969-12.449219 12.632812zm0 0" fill="url(#b)"/><path d="m143.464844 377.375c.78125-4.363281-.59375-8.742188-3.785156-11.824219-.066407-.0625-.136719-.128906-.203126-.199219-.570312-.5625-1.109374-1.144531-1.621093-1.742187-2.167969-2.542969-5.246094-4.035156-8.582031-4.246094-7.929688-.503906-15.695313-4.285156-21.078126-11.398437-7.386718-9.761719-7.625-23.527344-.5625-33.523438.769532-1.09375 1.597657-2.113281 2.472657-3.058594 10.027343-10.835937 15.855469-24.875 17.921875-39.492187 11.363281-80.421875 65.691406-182.039063 107.476562-224.425781 61.75-62.648438 162.597656-63.375 225.242188-1.621094 62.648437 61.753906 63.371094 162.597656 1.617187 225.246094-42.871093 43.496094-147.917969 101.089844-229.101562 111.574218-15.835938 2.042969-30.308594 9.390626-41.835938 20.4375-.875.835938-1.8125 1.632813-2.816406 2.382813-10.042969 7.480469-24.148437 7.425781-34.136719-.128906-9.160156-6.921875-12.828125-17.839844-11.007812-27.980469zm0 0" fill="url(#c)"/></svg>