<svg height="512pt" viewBox="-52 0 512 512" width="512pt" xmlns="http://www.w3.org/2000/svg" xmlns:xlink="http://www.w3.org/1999/xlink"><linearGradient id="a"><stop offset="0" stop-color="#fffcf8"/><stop offset=".1875" stop-color="#faf8f6"/><stop offset=".4041" stop-color="#eceef2"/><stop offset=".6353" stop-color="#d5dcea"/><stop offset=".875" stop-color="#b5c4df"/><stop offset="1" stop-color="#a1b5d8"/></linearGradient><linearGradient id="b" gradientUnits="userSpaceOnUse" x1="86.1964641654" x2="444.3699325778" xlink:href="#a" y1="85.8289058992" y2="624.244221171"/><linearGradient id="c"><stop offset="0" stop-color="#a1b5d8" stop-opacity="0"/><stop offset=".0343" stop-color="#9fb3d5" stop-opacity=".035294"/><stop offset=".4515" stop-color="#8898af" stop-opacity=".45098"/><stop offset=".788" stop-color="#798898" stop-opacity=".788235"/><stop offset="1" stop-color="#748290"/></linearGradient><linearGradient id="d" gradientUnits="userSpaceOnUse" x1="171.4650811964" x2="17.918022278" xlink:href="#c" y1="208.6780379016" y2="152.7076797342"/><linearGradient id="e" gradientUnits="userSpaceOnUse" x1="223.2536022728" x2="57.3236674454" xlink:href="#c" y1="209.0639455184" y2="146.6545320352"/><linearGradient id="f" gradientUnits="userSpaceOnUse" x1="278.5033452286" x2="131.8905763486" xlink:href="#c" y1="213.8516495364" y2="155.900051302"/><linearGradient id="g" gradientUnits="userSpaceOnUse" x1="307.9810049536" x2="176.2276871644" xlink:href="#c" y1="207.4065706886" y2="165.3049933824"/><linearGradient id="h" gradientUnits="userSpaceOnUse" x1="319.1836701594" x2="194.9143900958" xlink:href="#c" y1="580.6962934394" y2="456.4270133758"/><linearGradient id="i" gradientUnits="userSpaceOnUse" x1="190.9226958316" x2="190.9226958316" xlink:href="#a" y1="455.8248609602" y2="537.6297463068"/><linearGradient id="j"><stop offset="0" stop-color="#3b395f"/><stop offset=".8022" stop-color="#1b1f3a"/><stop offset="1" stop-color="#131830"/></linearGradient><linearGradient id="k" gradientUnits="userSpaceOnUse" x1="213.6901409086" x2="419.8667063628" xlink:href="#j" y1="190.161399357" y2="396.337864419"/><linearGradient id="l" gradientUnits="userSpaceOnUse" x1="181.917716276" x2="388.0942817302" xlink:href="#j" y1="221.9338239896" y2="428.1102890516"/><linearGradient id="m" gradientUnits="userSpaceOnUse" x1="139.831298192" x2="346.007763254" xlink:href="#j" y1="264.0203424658" y2="470.1968075278"/><linearGradient id="n" gradientUnits="userSpaceOnUse" x1="129.0458629694" x2="335.2223280314" xlink:href="#j" y1="274.8056772962" y2="480.9821423582"/><linearGradient id="o" gradientUnits="userSpaceOnUse" x1="97.2734383368" x2="303.4499033988" xlink:href="#j" y1="306.5781019288" y2="512.7545669908"/><linearGradient id="p" gradientUnits="userSpaceOnUse" x1="65.5010137042" x2="271.6774787662" xlink:href="#j" y1="338.3505265614" y2="544.5270920156"/><linearGradient id="q" gradientUnits="userSpaceOnUse" x1="206.2635275214" x2="226.4062185294" y1="58.5722228148" y2="162.2577889358"><stop offset="0" stop-color="#8be1e2"/><stop offset=".1873" stop-color="#87e1e1"/><stop offset=".3558" stop-color="#7ce2dd"/><stop offset=".5172" stop-color="#6ae2d7"/><stop offset=".6741" stop-color="#50e4ce"/><stop offset=".8278" stop-color="#2fe5c2"/><stop offset=".9772" stop-color="#07e7b4"/><stop offset="1" stop-color="#00e7b2"/></linearGradient><linearGradient id="r"><stop offset=".0029" stop-color="#00e7b2" stop-opacity="0"/><stop offset=".4308" stop-color="#1bc4b7" stop-opacity=".427451"/><stop offset="1" stop-color="#3b9abe"/></linearGradient><linearGradient id="s" gradientUnits="userSpaceOnUse" x1="184.2987180834" x2="46.9302637638" xlink:href="#r" y1="136.4238641098" y2="-.9445902098"/><linearGradient id="t" gradientUnits="userSpaceOnUse" x1="351.2786549306" x2="213.910200611" xlink:href="#r" y1="136.4238641098" y2="-.9445902098"/><linearGradient id="u"><stop offset="0" stop-color="#45425a"/><stop offset="1" stop-color="#2d3251"/></linearGradient><linearGradient id="v" gradientUnits="userSpaceOnUse" x1="55.5946125848" x2="153.4288193288" xlink:href="#u" y1="49.0508257824" y2="49.0508257824"/><linearGradient id="w" gradientUnits="userSpaceOnUse" x1="222.574549432" x2="320.4088565682" xlink:href="#u" y1="49.0508257824" y2="49.0508257824"/><linearGradient id="x"><stop offset="0" stop-color="#ff6e3a"/><stop offset=".1596" stop-color="#ff6440"/><stop offset=".4266" stop-color="#ff4b52"/><stop offset=".7662" stop-color="#ff216e"/><stop offset="1" stop-color="#ff0084"/></linearGradient><linearGradient id="y" gradientUnits="userSpaceOnUse" x1="146.5943191372" x2="146.5943191372" xlink:href="#x" y1="155.6273860868" y2="257.2813152564"/><linearGradient id="z" gradientUnits="userSpaceOnUse" x1="196.388247984" x2="196.388247984" xlink:href="#x" y1="155.6273860868" y2="257.2813152564"/><linearGradient id="A" gradientUnits="userSpaceOnUse" x1="238.7344810816" x2="238.7344810816" xlink:href="#x" y1="155.6273860868" y2="257.2813152564"/><linearGradient id="B" gradientUnits="userSpaceOnUse" x1="285.3188712944" x2="285.3188712944" xlink:href="#x" y1="155.6273860868" y2="257.2813152564"/><path d="m379.074219 43.945312h-330.117188c-15.375 0-27.828125 12.449219-27.828125 27.824219v412.398438c0 15.375 12.453125 27.828125 27.828125 27.828125h330.117188c15.375 0 27.828125-12.453125 27.828125-27.828125v-412.398438c0-15.375-12.453125-27.824219-27.828125-27.824219zm-100.460938 35.859376c3.359375-6.625 10.125-11.234376 17.992188-11.542969.277343-.007813.5625-.019531.839843-.019531 6.210938 0 11.800782 2.6875 15.671876 6.945312 3.398437 3.753906 5.46875 8.738281 5.46875 14.195312 0 11.671876-9.460938 21.128907-21.136719 21.128907-8.726563 0-16.21875-5.289063-19.4375-12.835938-1.089844-2.546875-1.691407-5.351562-1.691407-8.292969-.003906-3.445312.816407-6.703124 2.292969-9.578124zm-166.980469 0c3.371094-6.617188 10.125-11.234376 17.992188-11.542969.285156-.007813.5625-.019531.851562-.019531 6.210938 0 11.789063 2.6875 15.660157 6.945312 3.398437 3.753906 5.46875 8.738281 5.46875 14.195312 0 11.671876-9.460938 21.128907-21.128907 21.128907-8.726562 0-16.214843-5.289063-19.445312-12.835938-1.089844-2.546875-1.695312-5.351562-1.695312-8.292969 0-3.445312.824218-6.703124 2.296874-9.578124zm0 0" fill="url(#b)"/><path d="m134.214844 143.917969c-1.507813-2.074219-3.042969-2.71875-5.40625-2.71875-2.140625 0-4.199219 1.109375-4.199219 4.199219v50.941406c0 1.113281.800781 1.898437 1.894531 2.34375l90.808594 90.804687c.371094 1.476563 2.269531 2.25 4.117188 2.25 2.140624 0 4.199218-.953125 4.199218-2.773437v-26.722656c.003906 0 .007813.003906.011719.003906l27.242187 27.242187c.371094 1.476563 2.269532 2.25 4.117188 2.25 2.140625 0 4.199219-.953125 4.199219-2.773437v-50.941406c0-2.082032-.90625-3.25-2.171875-3.800782l-90.808594-90.804687c-.667969-1.597657-2.1875-2.21875-3.839844-2.21875-3.011718 0-4.597656 1.03125-6.578125 4.753906l-7.492187 13.980469zm0 0" fill="url(#d)"/><path d="m213.421875 143.097656c-.402344-1.0625-1.199219-1.898437-2.457031-1.898437h-28.203125c-1.820313 0-3.722657.949219-3.722657 2.773437v52.367188c0 1.195312.820313 2.007812 1.898438 2.429687l90.804688 90.808594c.375 1.417969 2.039062 2.160156 3.644531 2.160156h28.203125c1.902344 0 2.773437-1.902343 2.773437-3.644531 0-1.808594-.792969-3.371094-2.164062-3.726562l-18.160157-18.160157c-.019531-.046875-.03125-.09375-.050781-.140625h6.269531c1.902344 0 2.773438-1.742187 2.773438-3.246094 0-1.5625-.761719-2.945312-2.078125-3.308593l-12.714844-12.710938c-.054687-.148437-.109375-.292969-.179687-.429687v-5.101563h23.53125c1.742187 0 2.773437-1.742187 2.773437-3.800781 0-1.53125-.679687-3.1875-2.136719-3.5625zm0 0" fill="url(#e)"/><path d="m256.925781 143.386719c-.339843-1.53125-2.195312-2.1875-4.128906-2.1875-2.058594 0-4.199219.792969-4.199219 2.695312v18.59375l-18.882812-18.707031c-1.367188-1.929688-2.742188-2.582031-5.042969-2.582031-2.140625 0-4.199219.792969-4.199219 2.773437v52.367188c0 1.113281.804688 1.898437 1.894532 2.34375l90.808593 90.804687c.371094 1.476563 2.269531 2.25 4.121094 2.25 2.136719 0 4.195313-.953125 4.195313-2.773437v-18.863282l19.238281 19.03125c1.121093 1.726563 2.800781 2.605469 4.6875 2.605469 2.140625 0 4.199219-.953125 4.199219-2.773437v-52.445313c0-1.175781-.785157-1.921875-1.886719-2.324219zm0 0" fill="url(#f)"/><path d="m275.542969 143.402344c-.34375-1.542969-2.257813-2.203125-4.128907-2.203125-2.136718 0-4.195312.792969-4.195312 2.695312v38.027344c0 6.59375 2.101562 11.066406 5.511719 13.863281l90.808593 90.808594c3.269532 3.945312 8.429688 5.617188 14.363282 5.617188 10.222656 0 18.144531-4.832032 18.144531-17.667969v-38.027344c0-1.160156-.800781-1.898437-1.890625-2.308594l-90.804688-90.804687c-.34375-1.542969-2.261718-2.203125-4.128906-2.203125-2.140625 0-4.199218.792969-4.199218 2.695312v18.53125zm0 0" fill="url(#g)"/><path d="m48.957031 512h330.117188c15.371093 0 27.832031-12.460938 27.832031-27.828125v-28.769531l-52.953125-52.949219c-5.089844-5.601563-12.433594-9.117187-20.597656-9.117187h-312.226563v90.835937c0 15.367187 12.457032 27.828125 27.828125 27.828125zm0 0" fill="url(#h)"/><path d="m333.355469 393.335938h-305.527344c-15.367187 0-27.828125 12.460937-27.828125 27.832031v36.679687c0 29.90625 24.246094 54.152344 54.152344 54.152344h327.691406c-11.410156 0-20.660156-9.25-20.660156-20.660156v-70.171875c0-15.371094-12.457032-27.832031-27.828125-27.832031zm0 0" fill="url(#i)"/><path d="m159.308594 228.132812h202.53125v17.828126h-202.53125zm0 0" fill="url(#k)"/><path d="m159.308594 291.675781h202.53125v17.832031h-202.53125zm0 0" fill="url(#l)"/><path d="m159.308594 355.21875h161.277344v17.832031h-161.277344zm0 0" fill="url(#m)"/><path d="m107.738281 262.144531h-32.902343c-4.773438 0-8.644532-3.871093-8.644532-8.644531v-32.90625c0-4.773438 3.871094-8.640625 8.644532-8.640625h32.902343c4.773438 0 8.644531 3.867187 8.644531 8.640625v32.90625c0 4.773438-3.871093 8.644531-8.644531 8.644531zm0 0" fill="url(#n)"/><path d="m107.738281 325.6875h-32.902343c-4.773438 0-8.644532-3.871094-8.644532-8.644531v-32.902344c0-4.773437 3.871094-8.644531 8.644532-8.644531h32.902343c4.773438 0 8.644531 3.871094 8.644531 8.644531v32.902344c0 4.773437-3.871093 8.644531-8.644531 8.644531zm0 0" fill="url(#o)"/><path d="m107.738281 389.234375h-32.902343c-4.773438 0-8.644532-3.871094-8.644532-8.644531v-32.90625c0-4.773438 3.871094-8.640625 8.644532-8.640625h32.902343c4.773438 0 8.644531 3.867187 8.644531 8.640625v32.90625c0 4.773437-3.871093 8.644531-8.644531 8.644531zm0 0" fill="url(#p)"/><path d="m379.074219 43.945312h-330.117188c-15.375 0-27.828125 12.449219-27.828125 27.824219v56.121094h385.773438v-56.121094c0-15.375-12.453125-27.824219-27.828125-27.824219zm-248.597657 66.570313c-8.726562 0-16.21875-5.292969-19.445312-12.839844-1.089844-2.546875-1.695312-5.351562-1.695312-8.292969 0-3.445312.824218-6.703124 2.296874-9.578124 3.371094-6.617188 10.125-11.234376 17.992188-11.542969.285156-.007813.5625-.019531.851562-.019531 6.210938 0 11.789063 2.6875 15.660157 6.945312 3.398437 3.753906 5.46875 8.738281 5.46875 14.195312 0 11.671876-9.460938 21.132813-21.128907 21.132813zm166.96875 0c-8.726562 0-16.214843-5.292969-19.433593-12.839844-1.089844-2.546875-1.695313-5.351562-1.695313-8.292969 0-3.445312.820313-6.703124 2.296875-9.578124 3.359375-6.625 10.125-11.234376 17.992188-11.542969.277343-.007813.5625-.019531.839843-.019531 6.210938 0 11.800782 2.6875 15.671876 6.945312 3.398437 3.753906 5.46875 8.738281 5.46875 14.195312 0 11.671876-9.460938 21.132813-21.140626 21.132813zm0 0" fill="url(#q)"/><path d="m178.410156 107.503906c.011719-.011718.011719-.011718.023438-.019531-.121094-.128906-.238282-.25-.359375-.367187 4.03125-1.882813 8.519531-2.933594 13.257812-2.933594 1.890625 0 3.742188.167968 5.546875.496094.027344.148437.058594.296874.078125.445312l25.5 25.5h17.652344l-86.679687-86.679688h-97.570313c-.175781 1.683594-.265625 3.386719-.265625 5.109376 0 13.988281 5.894531 26.640624 15.335938 35.582031l83.28125 83.285156c.554687.574219 1.109374 1.148437 1.695312 1.691406 5.308594 5.550781 11.894531 9.859375 19.285156 12.445313 5.054688 1.761718 10.480469 2.722656 16.136719 2.722656 2.171875 0 4.289063-.148438 6.382813-.425781.523437-.058594 1.046874-.136719 1.574218-.226563 14.097656-2.296875 26.179688-10.640625 33.53125-22.257812l-27.0625-27.046875zm-67.378906-9.828125c-1.089844-2.546875-1.695312-5.351562-1.695312-8.292969 0-3.445312.824218-6.703124 2.296874-9.578124 3.371094-6.617188 10.125-11.234376 17.992188-11.542969.285156-.007813.5625-.019531.851562-.019531 6.210938 0 11.789063 2.6875 15.660157 6.945312 3.398437 3.753906 5.46875 8.738281 5.46875 14.195312 0 11.671876-9.460938 21.128907-21.128907 21.128907-8.726562.003906-16.21875-5.289063-19.445312-12.835938zm0 0" fill="url(#s)"/><path d="m345.390625 107.503906c.011719-.011718.011719-.011718.023437-.019531-.121093-.128906-.238281-.25-.359374-.367187 4.03125-1.882813 8.519531-2.933594 13.257812-2.933594 1.890625 0 3.742188.167968 5.546875.496094.027344.148437.058594.296874.078125.445312l25.5 25.5h17.652344l-86.679688-86.679688h-97.566406c-.179688 1.683594-.269531 3.386719-.269531 5.109376 0 13.988281 5.894531 26.640624 15.335937 35.582031l83.28125 83.285156c.554688.574219 1.109375 1.148437 1.695313 1.691406 5.308593 5.550781 11.898437 9.859375 19.285156 12.445313 5.054687 1.761718 10.484375 2.722656 16.140625 2.722656 2.167969 0 4.289062-.148438 6.378906-.425781.523438-.058594 1.050782-.136719 1.574219-.226563 14.097656-2.296875 26.183594-10.640625 33.53125-22.257812l-27.0625-27.046875zm-67.378906-9.828125c-1.089844-2.546875-1.695313-5.351562-1.695313-8.292969 0-3.445312.820313-6.703124 2.296875-9.578124 3.371094-6.617188 10.125-11.234376 17.992188-11.542969.285156-.007813.5625-.019531.851562-.019531 6.210938 0 11.785157 2.6875 15.660157 6.945312 3.398437 3.753906 5.46875 8.738281 5.46875 14.195312 0 11.671876-9.460938 21.128907-21.128907 21.128907-8.726562.003906-16.21875-5.289063-19.445312-12.835938zm0 0" fill="url(#t)"/><path d="m130.476562 68.246094c-.289062 0-.566406.007812-.851562.019531-4.222656 5.496094-10.214844 9.558594-17.121094 11.332031-.285156.070313-.574218.148438-.871094.207032-2.246093.515624-4.574218.78125-6.984374.78125-4.269532 0-8.347657-.851563-12.066407-2.394532-11.429687-4.746094-19.472656-16.03125-19.472656-29.136718 0-1.742188.136719-3.445313.414063-5.109376 2.445312-14.980468 15.472656-26.441406 31.125-26.441406 15.652343 0 28.679687 11.472656 31.125 26.441406h17.652343c-2.550781-24.65625-23.457031-43.945312-48.773437-43.945312-25.332032 0-46.234375 19.289062-48.789063 43.945312-.179687 1.683594-.269531 3.386719-.269531 5.109376 0 21.386718 13.769531 39.625 32.921875 46.324218 5.050781 1.761719 10.480469 2.722656 16.136719 2.722656 2.167968 0 4.289062-.148437 6.378906-.425781.523438-.058593 1.050781-.136719 1.574219-.226562 14.097656-2.296875 26.183593-10.640625 33.535156-22.257813-3.875-4.261718-9.453125-6.945312-15.664063-6.945312zm0 0" fill="url(#v)"/><path d="m297.445312 68.246094c-.277343 0-.5625.007812-.839843.019531-4.222657 5.496094-10.226563 9.558594-17.128907 11.332031-.289062.070313-.574218.136719-.863281.207032-2.246093.503906-4.585937.78125-6.984375.78125-4.277344 0-8.347656-.851563-12.074218-2.394532-11.421876-4.746094-19.476563-16.03125-19.476563-29.136718 0-1.742188.136719-3.445313.414063-5.109376 2.449218-14.980468 15.484374-26.441406 31.136718-26.441406 15.640625 0 28.667969 11.472656 31.125 26.441406h17.652344c-2.554688-24.65625-23.457031-43.945312-48.777344-43.945312-25.328125 0-46.230468 19.289062-48.789062 43.945312-.175782 1.683594-.265625 3.386719-.265625 5.109376 0 21.386718 13.769531 39.625 32.910156 46.324218 5.058594 1.761719 10.488281 2.722656 16.144531 2.722656 2.160156 0 4.289063-.148437 6.382813-.425781.535156-.070312 1.046875-.136719 1.574219-.226562 14.085937-2.296875 26.171874-10.640625 33.53125-22.257813-3.875-4.261718-9.460938-6.945312-15.671876-6.945312zm0 0" fill="url(#w)"/><path d="m149.566406 177.960938c-.871094 1.425781-1.980468 1.902343-3.089844 1.902343-1.03125 0-2.140624-.476562-2.855468-1.902343l-10.613282-20.125v38.503906c0 1.820312-2.0625 2.773437-4.199218 2.773437-2.058594 0-4.199219-.953125-4.199219-2.773437v-50.941406c0-3.089844 2.058594-4.199219 4.199219-4.199219 3.011718 0 4.671875 1.03125 6.65625 4.753906l11.089844 20.996094 11.25-20.996094c1.980468-3.722656 3.566406-4.753906 6.574218-4.753906 2.21875 0 4.199219 1.109375 4.199219 4.199219v50.941406c0 1.820312-2.058594 2.773437-4.199219 2.773437-2.058594 0-4.195312-.953125-4.195312-2.773437v-38.027344zm0 0" fill="url(#y)"/><path d="m187.4375 166.789062h12.199219c1.742187 0 2.773437 1.585938 2.773437 3.40625 0 1.503907-.871094 3.25-2.773437 3.25h-12.199219v18.21875h23.527344c1.742187 0 2.773437 1.742188 2.773437 3.804688 0 1.742188-.871093 3.644531-2.773437 3.644531h-28.203125c-1.820313 0-3.722657-.953125-3.722657-2.773437v-52.367188c0-1.824218 1.902344-2.773437 3.722657-2.773437h28.203125c1.902344 0 2.773437 1.902343 2.773437 3.644531 0 2.058594-1.03125 3.804688-2.773437 3.804688h-23.527344zm0 0" fill="url(#z)"/><path d="m247.804688 196.023438-18.933594-36.046876v36.363282c0 1.820312-2.0625 2.773437-4.199219 2.773437-2.058594 0-4.199219-.953125-4.199219-2.773437v-52.367188c0-1.980468 2.0625-2.773437 4.199219-2.773437 3.011719 0 4.4375 1.109375 6.335937 4.753906l17.589844 34.304687v-36.363281c0-1.902343 2.140625-2.695312 4.199219-2.695312 2.136719 0 4.199219.792969 4.199219 2.695312v52.445313c0 1.820312-2.0625 2.773437-4.199219 2.773437-2.058594 0-3.882813-1.03125-4.992187-3.089843zm0 0" fill="url(#A)"/><path d="m295.023438 143.894531c0-1.902343 2.058593-2.695312 4.199218-2.695312 2.058594 0 4.199219.792969 4.199219 2.695312v38.027344c0 12.832031-7.925781 17.667969-18.144531 17.667969-10.140625 0-18.0625-4.835938-18.0625-17.667969v-38.027344c0-1.902343 2.0625-2.695312 4.199218-2.695312 2.058594 0 4.199219.792969 4.199219 2.695312v38.027344c0 6.972656 3.644531 10.21875 9.664063 10.21875 6.101562 0 9.746094-3.246094 9.746094-10.21875zm0 0" fill="url(#B)"/></svg>