<svg height="512pt" viewBox="-2 0 512 512.00024" width="512pt" xmlns="http://www.w3.org/2000/svg" xmlns:xlink="http://www.w3.org/1999/xlink"><linearGradient id="a" gradientTransform="matrix(.865581 .508587 -.508587 .865581 150.337197 -102.142056)" gradientUnits="userSpaceOnUse" x1="195.8987" x2="217.7197" y1="43.0004" y2="68.8624"><stop offset="0" stop-color="#ffd459"/><stop offset=".2296" stop-color="#ffd355"/><stop offset=".4362" stop-color="#ffcf4a"/><stop offset=".634" stop-color="#ffc838"/><stop offset=".825" stop-color="#ffbf1f"/><stop offset="1" stop-color="#ffb400"/></linearGradient><linearGradient id="b"><stop offset="0" stop-color="#e58200" stop-opacity="0"/><stop offset=".0396" stop-color="#e27f04" stop-opacity=".039216"/><stop offset=".4671" stop-color="#c15d2f" stop-opacity=".466667"/><stop offset=".8016" stop-color="#ad4949" stop-opacity=".8"/><stop offset="1" stop-color="#a64153"/></linearGradient><linearGradient id="c" gradientTransform="matrix(.865581 .508587 -.508587 .865581 150.337197 -102.142056)" gradientUnits="userSpaceOnUse" x1="279.5457" x2="262.1248" xlink:href="#b" y1="-9.3051" y2="18.5325"/><linearGradient id="d" gradientTransform="matrix(.865581 .508587 -.508587 .865581 150.337197 -102.142056)" gradientUnits="userSpaceOnUse" x1="284.1399" x2="264.5638" xlink:href="#b" y1="-12.3346" y2="8.1395"/><linearGradient id="e"><stop offset="0" stop-color="#45425a"/><stop offset="1" stop-color="#2d3251"/></linearGradient><linearGradient id="f" gradientTransform="matrix(.865581 .508587 -.508587 .865581 150.337197 -102.142056)" gradientUnits="userSpaceOnUse" x1="223.6051" x2="235.8321" xlink:href="#e" y1="507.5886" y2="549.9125"/><linearGradient id="g" gradientTransform="matrix(.865581 .508587 -.508587 .865581 150.337197 -102.142056)" gradientUnits="userSpaceOnUse" x1="141.2027" x2="310.6028" y1="303.2025" y2="303.2025"><stop offset="0" stop-color="#ff6e3a"/><stop offset=".1596" stop-color="#ff6440"/><stop offset=".4266" stop-color="#ff4b52"/><stop offset=".7662" stop-color="#ff216e"/><stop offset="1" stop-color="#ff0084"/></linearGradient><linearGradient id="h"><stop offset="0" stop-color="#e58200" stop-opacity="0"/><stop offset=".2413" stop-color="#da760f" stop-opacity=".243137"/><stop offset=".7044" stop-color="#bc5737" stop-opacity=".705882"/><stop offset="1" stop-color="#a64153"/></linearGradient><linearGradient id="i" gradientTransform="matrix(.865581 .508587 -.508587 .865581 150.337197 -102.142056)" gradientUnits="userSpaceOnUse" x1="373.0536" x2="154.9156" xlink:href="#h" y1="252.4555" y2="34.3175"/><linearGradient id="j"><stop offset="0" stop-color="#fffcf8"/><stop offset=".1875" stop-color="#faf8f6"/><stop offset=".4041" stop-color="#eceef2"/><stop offset=".6353" stop-color="#d5dcea"/><stop offset=".875" stop-color="#b5c4df"/><stop offset="1" stop-color="#a1b5d8"/></linearGradient><linearGradient id="k" gradientTransform="matrix(.865581 .508587 -.508587 .865581 150.337197 -102.142056)" gradientUnits="userSpaceOnUse" x1="79.7804" x2="369.7787" xlink:href="#j" y1="308.2974" y2="308.2974"/><linearGradient id="l" gradientTransform="matrix(.865581 .508587 -.508587 .865581 150.337197 -102.142056)" gradientUnits="userSpaceOnUse" x1="79.7804" x2="369.7787" xlink:href="#j" y1="410.1614" y2="410.1614"/><linearGradient id="m" gradientTransform="matrix(.865581 .508587 -.508587 .865581 150.337197 -102.142056)" gradientUnits="userSpaceOnUse" x1="79.7804" x2="369.7787" xlink:href="#j" y1="210.8138" y2="210.8138"/><linearGradient id="n"><stop offset="0" stop-color="#a1b5d8" stop-opacity="0"/><stop offset=".0343" stop-color="#9fb3d5" stop-opacity=".035294"/><stop offset=".4515" stop-color="#8898af" stop-opacity=".45098"/><stop offset=".788" stop-color="#798898" stop-opacity=".788235"/><stop offset="1" stop-color="#748290"/></linearGradient><linearGradient id="o" gradientTransform="matrix(.865581 .508587 -.508587 .865581 150.337197 -102.142056)" gradientUnits="userSpaceOnUse" x1="323.1285" x2="14.5159" xlink:href="#n" y1="315.6707" y2="7.0581"/><linearGradient id="p" gradientTransform="matrix(.865581 .508587 -.508587 .865581 150.337197 -102.142056)" gradientUnits="userSpaceOnUse" x1="371.5147" x2="62.9021" xlink:href="#n" y1="267.2845" y2="-41.3281"/><linearGradient id="q" gradientTransform="matrix(.865581 .508587 -.508587 .865581 150.337197 -102.142056)" gradientUnits="userSpaceOnUse" x1="379.4242" x2="70.8116" xlink:href="#n" y1="259.3751" y2="-49.2375"/><linearGradient id="r" gradientTransform="matrix(.865581 .508587 -.508587 .865581 150.337197 -102.142056)" gradientUnits="userSpaceOnUse" x1="208.8763" x2="222.7662" xlink:href="#e" y1="50.2372" y2="98.3437"/><linearGradient id="s" gradientTransform="matrix(.865581 .508587 -.508587 .865581 150.337197 -102.142056)" gradientUnits="userSpaceOnUse" x1="221.4453" x2="241.2638" xlink:href="#e" y1="88.6037" y2="157.2064"/><linearGradient id="t" gradientTransform="matrix(.865581 .508587 -.508587 .865581 150.337197 -102.142056)" gradientUnits="userSpaceOnUse" x1="225.2542" x2="225.2542" xlink:href="#h" y1="476.0449" y2="515.9738"/><path d="m487.917969 80.535156-91.238281-30.824218-252.347657 167.039062c-1.441406.953125-3.324219.902344-4.714843-.121094-1.925782-1.417968-3.71875-2.878906-5.367188-4.382812-4.242188-3.867188-8.226562-7.773438-11.917969-11.648438-1.757812-1.847656-1.425781-4.832031.699219-6.246094 3.996094-2.660156 9.53125-6.335937 9.53125-6.335937l253.53125-167.804687c3.917969-2.59375 8.816406-3.234376 13.269531-1.730469l98.3125 33.203125c7.960938 2.695312 12.230469 11.335937 9.542969 19.304687-2.691406 7.964844-11.332031 12.234375-19.300781 9.546875zm0 0" fill="url(#a)"/><path d="m386.09375 20.210938-6.167969 4.082031 16.753907 25.417969-2.4375-32.027344c-2.867188.046875-5.699219.90625-8.148438 2.527344zm0 0" fill="url(#c)"/><path d="m399.359375 18.480469c-1.667969-.566407-3.398437-.828125-5.117187-.796875l2.4375 32.027344 14.078124-27.382813zm0 0" fill="url(#d)"/><path d="m146.59375 510.804688-139.914062-82.203126c-4.121094-2.417968-5.496094-7.722656-3.078126-11.84375l7.125-12.125 154.835938 90.96875-7.125 12.125c-2.421875 4.121094-7.726562 5.5-11.84375 3.078126zm0 0" fill="url(#f)"/><path d="m154.007812 501.476562-142.785156-83.890624c-10.386718-6.105469-14.210937-19.25-8.71875-29.972657l185.890625-362.773437 222.445313 130.695312-226.410156 338.964844c-6.691407 10.019531-20.035157 13.078125-30.421876 6.976562zm0 0" fill="url(#g)"/><path d="m174.066406 52.796875.132813.996094 85.300781 328.316406 151.339844-226.574219-222.445313-130.695312zm0 0" fill="url(#i)"/><path d="m393.550781 181.410156-84.90625 127.128906-306.398437 79.605469c.082031-.179687.171875-.351562.261718-.527343l61.828126-120.675782zm0 0" fill="url(#k)"/><path d="m291.355469 334.417969-23.597657 35.316406-234.335937 60.890625-22.199219-13.042969c-3.515625-2.066406-6.277344-4.941406-8.183594-8.257812zm0 0" fill="url(#l)"/><path d="m409.894531 154.976562-332.441406 86.375 17.261719-33.675781 280.734375-72.9375zm0 0" fill="url(#m)"/><path d="m291.355469 334.417969-23.597657 35.316406-10.75 2.792969-7.097656-27.34375zm0 0" fill="url(#o)"/><path d="m393.550781 181.410156-84.90625 127.128906-63.9375 16.609376-25.574219-98.425782zm0 0" fill="url(#p)"/><path d="m409.894531 154.976562-196.167969 50.96875-7.097656-27.34375 168.820313-43.863281zm0 0" fill="url(#q)"/><path d="m402.199219 170.378906-222.566407-130.765625 42.324219-35.636719c5.480469-4.617187 13.277344-5.277343 19.457031-1.644531l163.28125 95.933594c6.179688 3.628906 9.398438 10.761719 8.035157 17.796875zm0 0" fill="url(#r)"/><path d="m398.050781 184.996094-229.164062-134.644532c-4.980469-2.925781-6.648438-9.335937-3.722657-14.316406l9.5625-16.273437c2.929688-4.980469 9.335938-6.644531 14.316407-3.71875l229.164062 134.644531c4.980469 2.925781 6.648438 9.335938 3.722657 14.3125l-9.5625 16.277344c-2.925782 4.980468-9.335938 6.644531-14.316407 3.71875zm0 0" fill="url(#s)"/><path d="m13.273438 366.601562-10.769532 21.011719c-5.492187 10.722657-1.667968 23.867188 8.71875 29.972657l142.785156 83.890624c10.386719 6.101563 23.730469 3.042969 30.421876-6.976562l13.113281-19.632812zm0 0" fill="url(#t)"/></svg>