<svg height="511pt" viewBox="-14 0 511 511.99975" width="511pt" xmlns="http://www.w3.org/2000/svg" xmlns:xlink="http://www.w3.org/1999/xlink"><linearGradient id="a"><stop offset="0" stop-color="#fffcf8"/><stop offset=".1875" stop-color="#faf8f6"/><stop offset=".4041" stop-color="#eceef2"/><stop offset=".6353" stop-color="#d5dcea"/><stop offset=".875" stop-color="#b5c4df"/><stop offset="1" stop-color="#a1b5d8"/></linearGradient><linearGradient id="b" gradientUnits="userSpaceOnUse" x1="76.1708036806" x2="406.3961879272" xlink:href="#a" y1="327.0375303278" y2="327.0375303278"/><linearGradient id="c"><stop offset="0" stop-color="#a1b5d8" stop-opacity="0"/><stop offset=".0343" stop-color="#9fb3d5" stop-opacity=".035294"/><stop offset=".4515" stop-color="#8898af" stop-opacity=".45098"/><stop offset=".788" stop-color="#798898" stop-opacity=".788235"/><stop offset="1" stop-color="#748290"/></linearGradient><linearGradient id="d" gradientUnits="userSpaceOnUse" x1="286.426906574" x2="132.7923056572" xlink:href="#c" y1="405.5475436704" y2="-53.435756294"/><linearGradient id="e" gradientUnits="userSpaceOnUse" x1="208.210841593" x2="270.188970185" xlink:href="#a" y1="361.6249522484" y2="573.7063861222"/><linearGradient id="f" gradientUnits="userSpaceOnUse" x1="241.5898426022" x2="239.8899014796" xlink:href="#c" y1="445.3127936982" y2="742.8125293732"/><linearGradient id="g" gradientUnits="userSpaceOnUse" x1="241.4544135244" x2="240.604392767" xlink:href="#c" y1="474.2682131988" y2="630.6681172646"/><linearGradient id="h"><stop offset="0" stop-color="#fff" stop-opacity="0"/><stop offset=".2603" stop-color="#fcfdfd" stop-opacity=".258824"/><stop offset=".4265" stop-color="#f4f5f6" stop-opacity=".427451"/><stop offset=".5664" stop-color="#e5e8ea" stop-opacity=".564706"/><stop offset=".6917" stop-color="#d0d5da" stop-opacity=".690196"/><stop offset=".8071" stop-color="#b5bcc4" stop-opacity=".807843"/><stop offset=".9139" stop-color="#949faa" stop-opacity=".913725"/><stop offset="1" stop-color="#748290"/></linearGradient><radialGradient id="i" cx="361.4683694066" cy="315.782159217" gradientUnits="userSpaceOnUse" r="177.1984573164" xlink:href="#h"/><linearGradient id="j" gradientUnits="userSpaceOnUse" x1="40.2578031512" x2="393.7945574144" xlink:href="#a" y1="318.0820441268" y2="439.812706629"/><linearGradient id="k" gradientUnits="userSpaceOnUse" x1="157.8266066102" x2="511.3633608734" xlink:href="#a" y1="-23.3675896486" y2="98.3629724614"/><linearGradient id="l" gradientUnits="userSpaceOnUse" x1="156.8182673534" x2="510.3550216166" xlink:href="#a" y1="-20.4390487824" y2="101.2915133276"/><linearGradient id="m" gradientUnits="userSpaceOnUse" x1="157.251258912" x2="510.7881135674" xlink:href="#a" y1="-21.6968626562" y2="100.033799846"/><linearGradient id="n" gradientUnits="userSpaceOnUse" x1="153.5775067452" x2="507.1142610084" xlink:href="#a" y1="-11.0273804246" y2="110.7032820776"/><linearGradient id="o" gradientUnits="userSpaceOnUse" x1="157.6665814434" x2="511.2034360988" xlink:href="#a" y1="-22.9030749392" y2="98.8274871708"/><linearGradient id="p" gradientUnits="userSpaceOnUse" x1="155.8995783312" x2="509.4363325944" xlink:href="#a" y1="-17.7710256752" y2="103.9595364348"/><linearGradient id="q" gradientUnits="userSpaceOnUse" x1="158.465502571" x2="512.0022568342" xlink:href="#a" y1="-25.2231386812" y2="96.507523821"/><linearGradient id="r" gradientUnits="userSpaceOnUse" x1="158.7176877774" x2="512.2544420406" xlink:href="#a" y1="-25.9556001724" y2="95.7749619376"/><linearGradient id="s" gradientUnits="userSpaceOnUse" x1="158.6280375428" x2="512.1648921982" xlink:href="#a" y1="-25.69538359" y2="96.0352789122"/><linearGradient id="t" gradientUnits="userSpaceOnUse" x1="150.6828984426" x2="504.2196527058" xlink:href="#a" y1="-2.620738381" y2="119.1099241212"/><linearGradient id="u" gradientUnits="userSpaceOnUse" x1="157.9766929492" x2="511.5134472124" xlink:href="#a" y1="-23.803492581" y2="97.9271699212"/><linearGradient id="v" gradientUnits="userSpaceOnUse" x1="158.2676295448" x2="511.804383808" xlink:href="#a" y1="-24.6484937284" y2="97.0820683816"/><linearGradient id="w" gradientUnits="userSpaceOnUse" x1="132.5636122256" x2="486.1003664888" xlink:href="#a" y1="50.0024434462" y2="171.7330055562"/><linearGradient id="x" gradientUnits="userSpaceOnUse" x1="122.8390213804" x2="476.3757756436" xlink:href="#a" y1="78.2452791112" y2="199.9758412212"/><linearGradient id="y" gradientUnits="userSpaceOnUse" x1="158.7587481872" x2="512.2955024504" xlink:href="#a" y1="-26.0747657138" y2="95.6557963962"/><linearGradient id="z" gradientUnits="userSpaceOnUse" x1="129.581160748" x2="483.1179150112" xlink:href="#a" y1="58.6643828544" y2="180.3949449644"/><linearGradient id="A" gradientUnits="userSpaceOnUse" x1="98.0235754234" x2="451.5603296866" xlink:href="#a" y1="150.3156347848" y2="272.0461968948"/><linearGradient id="B" gradientUnits="userSpaceOnUse" x1="119.0923844764" x2="472.6291387396" xlink:href="#a" y1="89.1262877082" y2="210.8568498182"/><linearGradient id="C" gradientUnits="userSpaceOnUse" x1="148.6946309216" x2="502.2313851848" xlink:href="#a" y1="3.153820963" y2="124.8844834652"/><linearGradient id="D" gradientUnits="userSpaceOnUse" x1="142.9796041522" x2="496.5163584154" xlink:href="#a" y1="19.751663389" y2="141.4823258912"/><linearGradient id="E" gradientUnits="userSpaceOnUse" x1="39.5597761846" x2="393.0965304478" xlink:href="#a" y1="320.1092638214" y2="441.8399263236"/><linearGradient id="F" gradientUnits="userSpaceOnUse" x1="140.436569334" x2="493.9733235972" xlink:href="#a" y1="27.137517543" y2="148.868079653"/><linearGradient id="G" gradientUnits="userSpaceOnUse" x1="137.7619203416" x2="491.2986746048" xlink:href="#a" y1="34.905364018" y2="156.635926128"/><linearGradient id="H" gradientUnits="userSpaceOnUse" x1="96.329758225" x2="449.8666128804" xlink:href="#a" y1="155.2347521926" y2="276.9653143026"/><linearGradient id="I" gradientUnits="userSpaceOnUse" x1="151.2887653696" x2="504.825620025" xlink:href="#a" y1="-4.3802120782" y2="117.3503500318"/><linearGradient id="J" gradientUnits="userSpaceOnUse" x1="149.4752806688" x2="503.012034932" xlink:href="#a" y1=".8866639104" y2="122.6173264126"/><linearGradient id="K" gradientUnits="userSpaceOnUse" x1="150.4218787226" x2="503.9586329858" xlink:href="#a" y1="-1.8623757022" y2="119.8682868"/><linearGradient id="L" gradientUnits="userSpaceOnUse" x1="152.9209417572" x2="506.4576960204" xlink:href="#a" y1="-9.1203301934" y2="112.6102319166"/><linearGradient id="M" gradientUnits="userSpaceOnUse" x1="153.64617501" x2="507.1829292732" xlink:href="#a" y1="-11.2266589416" y2="110.5039031684"/><linearGradient id="N" gradientUnits="userSpaceOnUse" x1="147.49213315" x2="501.0289878054" xlink:href="#a" y1="6.6461644244" y2="128.3768269266"/><linearGradient id="O" gradientUnits="userSpaceOnUse" x1="146.4744574186" x2="500.0112116818" xlink:href="#a" y1="9.6019115768" y2="131.332574079"/><linearGradient id="P" gradientUnits="userSpaceOnUse" x1="148.5433398762" x2="502.0799937472" xlink:href="#a" y1="3.5933380146" y2="125.3240005168"/><linearGradient id="Q" gradientUnits="userSpaceOnUse" x1="96.9340188768" x2="450.47077314" xlink:href="#a" y1="153.4797961444" y2="275.2104586466"/><linearGradient id="R" gradientUnits="userSpaceOnUse" x1="154.3627745336" x2="507.8995287968" xlink:href="#a" y1="-13.3078896398" y2="108.4226724702"/><linearGradient id="S" gradientUnits="userSpaceOnUse" x1="155.606332715" x2="509.142986586" xlink:href="#a" y1="-16.9193986426" y2="104.8112638596"/><linearGradient id="T" gradientUnits="userSpaceOnUse" x1="158.357078995" x2="511.8939336504" xlink:href="#a" y1="-24.9084091342" y2="96.8221529758"/><linearGradient id="U" gradientUnits="userSpaceOnUse" x1="158.105596534" x2="511.6424511894" xlink:href="#a" y1="-24.1780558792" y2="97.5525062308"/><linearGradient id="V" gradientUnits="userSpaceOnUse" x1="158.53025554" x2="512.0670098032" xlink:href="#a" y1="-25.4113740562" y2="96.319288446"/><linearGradient id="W" gradientUnits="userSpaceOnUse" x1="157.479651167" x2="485.9040997378" xlink:href="#a" y1="-22.3599531372" y2="90.7238287868"/><linearGradient id="X" gradientUnits="userSpaceOnUse" x1="158.668294815" x2="512.2050490782" xlink:href="#a" y1="-25.8122401108" y2="95.9184223914"/><linearGradient id="Y" gradientUnits="userSpaceOnUse" x1="157.0818972706" x2="510.618751926" xlink:href="#a" y1="-21.2049408762" y2="100.5256212338"/><linearGradient id="Z" gradientUnits="userSpaceOnUse" x1="158.7372642564" x2="512.2740185196" xlink:href="#a" y1="-26.0124221576" y2="95.7181399524"/><linearGradient id="aa" gradientUnits="userSpaceOnUse" x1="154.979885387" x2="508.5166396502" xlink:href="#a" y1="-15.099990802" y2="106.6306717002"/><linearGradient id="ab" gradientUnits="userSpaceOnUse" x1="156.1299784302" x2="509.6667326934" xlink:href="#a" y1="-18.4401396882" y2="103.290522814"/><linearGradient id="ac" gradientUnits="userSpaceOnUse" x1="156.6421794346" x2="510.1788333056" xlink:href="#a" y1="-19.9277513078" y2="101.8029111944"/><linearGradient id="ad" gradientUnits="userSpaceOnUse" x1="145.3790781244" x2="498.9159327798" xlink:href="#a" y1="12.782938826" y2="134.5136013282"/><linearGradient id="ae" gradientUnits="userSpaceOnUse" x1="37.2244528282" x2="390.7612070914" xlink:href="#a" y1="326.8918612456" y2="448.6224233556"/><linearGradient id="af" gradientUnits="userSpaceOnUse" x1="6.3189148426" x2="6.3312630832" xlink:href="#a" y1="224.1364288576" y2="224.14064533"/><linearGradient id="ag" gradientUnits="userSpaceOnUse" x1="7.8057233246" x2="7.8173688198" xlink:href="#a" y1="220.4399880536" y2="220.4440037416"/><linearGradient id="ah" gradientUnits="userSpaceOnUse" x1="70.6887872074" x2="300.040590855" xlink:href="#a" y1="229.7026743866" y2="308.6735883194"/><linearGradient id="ai" gradientUnits="userSpaceOnUse" x1="11.2294989134" x2="11.2370283284" xlink:href="#a" y1="213.3337261766" y2="213.3363363738"/><linearGradient id="aj" gradientUnits="userSpaceOnUse" x1="56.3782806662" x2="409.9150349294" xlink:href="#a" y1="271.264242049" y2="392.9949045512"/><linearGradient id="ak" gradientUnits="userSpaceOnUse" x1="4.9774742662" x2="4.9853048578" xlink:href="#a" y1="227.9561512832" y2="227.9588618726"/><linearGradient id="al" gradientUnits="userSpaceOnUse" x1="59.0344574938" x2="412.571211757" xlink:href="#a" y1="263.5500050088" y2="385.2805671188"/><linearGradient id="am" gradientUnits="userSpaceOnUse" x1="60.3588313962" x2="413.8955856594" xlink:href="#a" y1="259.703578258" y2="381.434140368"/><linearGradient id="an" gradientUnits="userSpaceOnUse" x1="62.943328193" x2="240.7834924518" xlink:href="#a" y1="252.1976550328" y2="313.431977815"/><linearGradient id="ao" gradientUnits="userSpaceOnUse" x1="37.7449863852" x2="391.2817406484" xlink:href="#a" y1="325.380155498" y2="447.110717608"/><linearGradient id="ap" gradientUnits="userSpaceOnUse" x1="57.7009479012" x2="411.2377021644" xlink:href="#a" y1="267.422734516" y2="389.153296626"/><linearGradient id="aq" gradientUnits="userSpaceOnUse" x1="95.867452144" x2="449.4042064072" xlink:href="#a" y1="156.5773974754" y2="278.3080599776"/><linearGradient id="ar" gradientUnits="userSpaceOnUse" x1="38.3117003542" x2="391.8484546174" xlink:href="#a" y1="323.7340245946" y2="445.4646870968"/><linearGradient id="as" gradientUnits="userSpaceOnUse" x1="93.775780657" x2="447.3125349202" xlink:href="#a" y1="162.6521294974" y2="284.3827919996"/><linearGradient id="at" gradientUnits="userSpaceOnUse" x1="94.8160446334" x2="448.3527988966" xlink:href="#a" y1="159.6309266306" y2="281.3615891328"/><linearGradient id="au" gradientUnits="userSpaceOnUse" x1="15.2581375072" x2="15.2693814336" xlink:href="#a" y1="206.5477154176" y2="206.5516307134"/><radialGradient id="av" cx="172.6683886738" cy="167.4854115742" gradientUnits="userSpaceOnUse" r="228.7639069244" xlink:href="#h"/><linearGradient id="aw" gradientUnits="userSpaceOnUse" x1="113.9994881704" x2="467.5362424336" xlink:href="#a" y1="103.917472103" y2="225.6481346052"/><radialGradient id="ax" cx="97.2025680118" cy="224.7111742026" gradientUnits="userSpaceOnUse" r="179.1742762046" xlink:href="#h"/><linearGradient id="ay" gradientUnits="userSpaceOnUse" x1="62.9379070142" x2="416.4746612774" xlink:href="#a" y1="252.213316216" y2="373.9439787182"/><linearGradient id="az" gradientUnits="userSpaceOnUse" x1="81.6339464202" x2="435.1707006834" xlink:href="#a" y1="197.915190924" y2="319.6458534262"/><linearGradient id="aA" gradientUnits="userSpaceOnUse" x1="237.2691630986" x2="286.5691623214" xlink:href="#c" y1="458.533844085" y2="615.7837689082"/><linearGradient id="aB" gradientUnits="userSpaceOnUse" x1="291.7922673108" x2="150.6656309842" xlink:href="#c" y1="512.6143190874" y2="371.4875823686"/><linearGradient id="aC" gradientUnits="userSpaceOnUse" x1="203.5177070274" x2="270.8212402606" y1="424.3318278202" y2="491.6353610534"><stop offset="0" stop-color="#ffd459"/><stop offset=".2296" stop-color="#ffd355"/><stop offset=".4362" stop-color="#ffcf4a"/><stop offset=".634" stop-color="#ffc838"/><stop offset=".825" stop-color="#ffbf1f"/><stop offset="1" stop-color="#ffb400"/></linearGradient><linearGradient id="aD"><stop offset="0" stop-color="#e58200" stop-opacity="0"/><stop offset=".0396" stop-color="#e27f04" stop-opacity=".039216"/><stop offset=".4671" stop-color="#c15d2f" stop-opacity=".466667"/><stop offset=".8016" stop-color="#ad4949" stop-opacity=".8"/><stop offset="1" stop-color="#a64153"/></linearGradient><linearGradient id="aE" gradientUnits="userSpaceOnUse" x1="247.3995392162" x2="177.238843971" xlink:href="#aD" y1="435.9015269092" y2="402.7521228614"/><linearGradient id="aF" gradientUnits="userSpaceOnUse" x1="265.2800927816" x2="237.6020636338" xlink:href="#aD" y1="447.9303195288" y2="381.6316118254"/><linearGradient id="aG" gradientTransform="matrix(-1.003922 0 0 1.003922 1646.629971 0)" gradientUnits="userSpaceOnUse" x1="1421.5681" x2="1393.9982" xlink:href="#aD" y1="440.9306" y2="374.8909"/><linearGradient id="aH"><stop offset="0" stop-color="#e58200" stop-opacity="0"/><stop offset=".2413" stop-color="#da760f" stop-opacity=".243137"/><stop offset=".7044" stop-color="#bc5737" stop-opacity=".705882"/><stop offset="1" stop-color="#a64153"/></linearGradient><linearGradient id="aI" gradientUnits="userSpaceOnUse" x1="227.6645409324" x2="262.8522078168" xlink:href="#aH" y1="485.6065082668" y2="528.0891743642"/><linearGradient id="aJ" gradientUnits="userSpaceOnUse" x1="260.7488908346" x2="300.7492593948" xlink:href="#aH" y1="480.0503019578" y2="451.4785814456"/><linearGradient id="aK" gradientUnits="userSpaceOnUse" x1="251.9089560558" x2="210.809995651" y1="472.8139317896" y2="418.6777391162"><stop offset="0" stop-color="#ffd459" stop-opacity="0"/><stop offset=".1903" stop-color="#ffd55c" stop-opacity=".192157"/><stop offset=".3461" stop-color="#ffd766" stop-opacity=".345098"/><stop offset=".4896" stop-color="#ffdc78" stop-opacity=".490196"/><stop offset=".6259" stop-color="#ffe290" stop-opacity=".627451"/><stop offset=".757" stop-color="#ffeaaf" stop-opacity=".756863"/><stop offset=".8824" stop-color="#fff4d4" stop-opacity=".882353"/><stop offset="1" stop-color="#fff"/></linearGradient><path d="m76.171875 196.796875h330.222656v260.480469h-330.222656zm0 0" fill="url(#b)"/><path d="m76.171875 344.566406.089844.09375 112.617187 112.617188h217.515625v-260.480469h-330.222656zm0 0" fill="url(#d)"/><path d="m415.707031 500.863281c-116.152343 14.847657-232.691406 14.847657-348.847656 0-6.445313-.824219-10.980469-6.742187-10.066406-13.175781 2.6875-18.886719 5.375-37.769531 8.0625-56.65625.894531-6.273438 6.648437-10.699219 12.933593-9.898438 108.894532 13.871094 218.09375 13.871094 326.988282 0 6.285156-.800781 12.039062 3.625 12.933594 9.898438 2.6875 18.886719 5.375 37.769531 8.0625 56.65625.914062 6.433594-3.621094 12.355469-10.066407 13.175781zm0 0" fill="url(#e)"/><path d="m380.546875 504.890625c-16.261719 1.667969-32.535156 3.039063-48.808594 4.109375-18.953125 1.261719-37.910156 2.113281-56.875 2.582031-22.378906.554688-44.78125.554688-67.160156 0-18.964844-.46875-37.921875-1.320312-56.871094-2.582031-16.277343-1.070312-32.550781-2.441406-48.8125-4.109375-.539062-2.5625-.742187-5.410156-.515625-8.332031 1.816406-24.011719 3.652344-48.027344 5.46875-72.039063 15.816406 1.65625 31.644532 3.015625 47.472656 4.074219 17.753907 1.214844 35.503907 2.042969 53.257813 2.5 22.390625.589844 44.769531.589844 67.160156 0 17.753907-.457031 35.503907-1.285156 53.257813-2.5 15.828125-1.058594 31.65625-2.414062 47.472656-4.074219 1.816406 24.011719 3.65625 48.027344 5.46875 72.039063.230469 2.921875.023438 5.769531-.515625 8.332031zm0 0" fill="url(#f)"/><path d="m331.738281 509c-18.953125 1.261719-37.910156 2.113281-56.875 2.582031-22.378906.554688-44.78125.554688-67.160156 0-18.964844-.46875-37.921875-1.320312-56.871094-2.582031-.132812-1.804688-.160156-3.703125-.0625-5.636719 1.226563-24.929687 2.453125-49.84375 3.675781-74.769531 17.753907 1.210938 35.503907 2.042969 53.257813 2.5 22.390625.585938 44.769531.585938 67.160156 0 17.753907-.457031 35.503907-1.289062 53.257813-2.5 1.226562 24.925781 2.449218 49.839844 3.675781 74.769531.097656 1.933594.074219 3.832031-.058594 5.636719zm0 0" fill="url(#g)"/><path d="m482.066406 256.1875c0 50.148438-40.652344 90.800781-90.800781 90.800781s-90.800781-40.652343-90.800781-90.800781 40.652344-90.800781 90.800781-90.800781 90.800781 40.652343 90.800781 90.800781zm0 0" fill="url(#i)"/><path d="m115.09375 343.832031c-.019531.003907-.042969.011719-.0625.015625.019531-.007812.042969-.011718.0625-.015625zm0 0" fill="url(#j)"/><path d="m281.191406 19.007812c.28125.164063.558594.328126.835938.492188-.277344-.164062-.554688-.328125-.835938-.492188zm0 0" fill="url(#k)"/><path d="m215.878906.0820312c.40625.015625.8125.0312498 1.214844.0468748-.402344-.015625-.808594-.0312498-1.214844-.0468748zm0 0" fill="url(#l)"/><path d="m220.964844.339844c.238281.015625.472656.027344.710937.046875-.238281-.019531-.472656-.03125-.710937-.046875zm0 0" fill="url(#m)"/><path d="m186.917969 2.152344c2.261719-.402344 4.542969-.75 6.84375-1.046875-2.300781.292969-4.582031.644531-6.84375 1.046875zm0 0" fill="url(#n)"/><path d="m226.109375.792969c.371094.039062.742187.082031 1.109375.125-.367188-.042969-.738281-.085938-1.109375-.125zm0 0" fill="url(#o)"/><path d="m204.226562.179688c2.347657-.1210942 4.710938-.179688 7.09375-.179688-2.382812 0-4.746093.0585938-7.09375.179688zm0 0" fill="url(#p)"/><path d="m240.605469 3.128906c.359375.078125.722656.15625 1.085937.234375-.363281-.078125-.726562-.15625-1.085937-.234375zm0 0" fill="url(#q)"/><path d="m250.203125 5.570312c.359375.105469.722656.210938 1.082031.320313-.359375-.105469-.71875-.214844-1.082031-.320313zm0 0" fill="url(#r)"/><path d="m245.941406 4.386719c.160156.039062.320313.085937.480469.128906-.160156-.042969-.320313-.085937-.480469-.128906zm0 0" fill="url(#s)"/><path d="m170.324219 6.195312c2.160156-.667968 4.339843-1.289062 6.542969-1.855468-2.203126.566406-4.382813 1.1875-6.542969 1.855468zm0 0" fill="url(#t)"/><path d="m230.824219 1.378906c.328125.046875.65625.089844.984375.140625-.328125-.050781-.65625-.09375-.984375-.140625zm0 0" fill="url(#u)"/><path d="m236.140625 2.234375c.300781.054687.597656.113281.894531.171875-.296875-.058594-.59375-.117188-.894531-.171875zm0 0" fill="url(#v)"/><path d="m109.277344 45.164062c1.484375-1.632812 3.003906-3.230468 4.5625-4.789062-1.558594 1.5625-3.078125 3.15625-4.5625 4.789062zm0 0" fill="url(#w)"/><path d="m90.101562 72.144531c1.59375-2.929687 3.289063-5.796875 5.082032-8.59375-1.792969 2.796875-3.488282 5.664063-5.082032 8.59375zm0 0" fill="url(#x)"/><path d="m255.273438 7.160156c.058593.019532.113281.035156.171874.054688-.058593-.019532-.113281-.035156-.171874-.054688zm0 0" fill="url(#y)"/><path d="m102.867188 52.746094c1.363281-1.738282 2.769531-3.441406 4.214843-5.105469-1.445312 1.664063-2.851562 3.367187-4.214843 5.105469zm0 0" fill="url(#z)"/><path d="m73.542969 142.269531c-.007813-.257812-.023438-.519531-.03125-.777343.007812.257812.023437.519531.03125.777343zm0 0" fill="url(#A)"/><path d="m85.640625 81.121094c.921875-2.035156 1.890625-4.042969 2.90625-6.027344-1.015625 1.984375-1.984375 3.992188-2.90625 6.027344zm0 0" fill="url(#B)"/><path d="m160.769531 9.5625c2.089844-.824219 4.199219-1.597656 6.335938-2.320312-2.136719.722656-4.246094 1.496093-6.335938 2.320312zm0 0" fill="url(#C)"/><path d="m137.015625 21.71875c2.796875-1.792969 5.664063-3.488281 8.59375-5.082031-2.929687 1.59375-5.796875 3.289062-8.59375 5.082031zm0 0" fill="url(#D)"/><path d="m111.277344 344.777344c-.03125.007812-.0625.011718-.09375.019531.03125-.007813.0625-.011719.09375-.019531zm0 0" fill="url(#E)"/><path d="m128.839844 27.386719c2.652344-1.984375 5.378906-3.875 8.175781-5.667969-2.796875 1.792969-5.523437 3.683594-8.175781 5.667969zm0 0" fill="url(#F)"/><path d="m121.105469 33.617188c2.5-2.167969 5.078125-4.246094 7.734375-6.230469-2.65625 1.984375-5.234375 4.0625-7.734375 6.230469zm0 0" fill="url(#G)"/><path d="m417.875 169.355469c2.617188-7.320313 4.054688-15.203125 4.054688-23.425781 0-38.425782-31.152344-69.578126-69.578126-69.578126-5.738281 0-11.304687.710938-16.640624 2.019532v-.003906c8.628906 18.007812 13.460937 38.183593 13.460937 59.484374 0 76.136719-61.71875 137.855469-137.851563 137.855469-10.53125 0-20.785156-1.1875-30.640624-3.421875-3.867188 21.613282-15.382813 40.578125-31.648438 53.988282 17.59375 23.878906 45.898438 39.378906 77.832031 39.378906 39.976563 0 74.285157-24.28125 88.980469-58.902344 16.300781 24.265625 43.996094 40.234375 75.421875 40.234375 50.148437 0 90.800781-40.652344 90.800781-90.800781 0-40.886719-27.03125-75.453125-64.191406-86.828125zm0 0" fill="url(#H)"/><path d="m320.457031 53.636719c.160157.207031.316407.417969.476563.625-.160156-.207031-.316406-.417969-.476563-.625zm0 0" fill="url(#I)"/><path d="m326.089844 61.476562c.125.191407.25.382813.375.574219-.125-.191406-.25-.382812-.375-.574219zm0 0" fill="url(#J)"/><path d="m323.472656 57.6875c.023438.03125.046875.0625.070313.09375-.023438-.03125-.046875-.0625-.070313-.09375zm0 0" fill="url(#K)"/><path d="m314.316406 46.242188c.179688.203124.359375.402343.535156.601562-.175781-.199219-.355468-.398438-.535156-.601562zm0 0" fill="url(#L)"/><path d="m311.351562 43.007812c.0625.066407.125.132813.1875.199219-.0625-.066406-.125-.132812-.1875-.199219zm0 0" fill="url(#M)"/><path d="m331.183594 69.730469c.078125.136719.152344.273437.230468.410156-.078124-.136719-.152343-.273437-.230468-.410156zm0 0" fill="url(#N)"/><path d="m333.351562 73.695312c.109376.207032.21875.410157.328126.617188-.109376-.207031-.21875-.410156-.328126-.617188zm0 0" fill="url(#O)"/><path d="m328.628906 65.429688c.089844.144531.179688.289062.269532.433593-.089844-.144531-.179688-.289062-.269532-.433593zm0 0" fill="url(#P)"/><path d="m73.699219 145.808594c-.011719-.222656-.03125-.449219-.042969-.671875.011719.222656.03125.449219.042969.671875zm0 0" fill="url(#Q)"/><path d="m307.726562 39.332031c.175782.171875.351563.34375.527344.515625-.175781-.171875-.351562-.34375-.527344-.515625zm0 0" fill="url(#R)"/><path d="m300.742188 32.945312c.140624.121094.285156.242188.429687.363282-.144531-.121094-.289063-.242188-.429687-.363282zm0 0" fill="url(#S)"/><path d="m272.726562 14.410156c.269532.132813.539063.265625.804688.398438-.269531-.132813-.535156-.265625-.804688-.398438zm0 0" fill="url(#T)"/><path d="m277.359375 16.824219c.1875.101562.371094.210937.558594.3125-.1875-.105469-.371094-.210938-.558594-.3125zm0 0" fill="url(#U)"/><path d="m268.621094 12.445312c.28125.125.558594.257813.839844.390626-.28125-.128907-.558594-.265626-.839844-.390626zm0 0" fill="url(#V)"/><path d="m285.742188 21.796875c.011718.007813.023437.015625.035156.027344-.011719-.011719-.023438-.019531-.035156-.027344zm0 0" fill="url(#W)"/><path d="m264.027344 10.445312c.210937.085938.421875.171876.628906.257813-.207031-.089844-.417969-.171875-.628906-.257813zm0 0" fill="url(#X)"/><path d="m289.335938 24.199219c.261718.179687.523437.359375.78125.539062-.257813-.179687-.519532-.359375-.78125-.539062zm0 0" fill="url(#Y)"/><path d="m259.554688 8.683594c.335937.125.667968.253906 1.003906.382812-.335938-.128906-.667969-.257812-1.003906-.382812zm0 0" fill="url(#Z)"/><path d="m304.453125 36.226562c.160156.148438.320313.296876.480469.449219-.160156-.152343-.320313-.300781-.480469-.449219zm0 0" fill="url(#aa)"/><path d="m297.101562 29.945312c.226563.179688.445313.359376.667969.539063-.222656-.179687-.441406-.359375-.667969-.539063zm0 0" fill="url(#ab)"/><path d="m293.511719 27.175781c.039062.03125.078125.058594.113281.085938-.035156-.027344-.074219-.054688-.113281-.085938zm0 0" fill="url(#ac)"/><path d="m145.609375 16.636719c2.929687-1.589844 5.925781-3.078125 8.976563-4.460938-3.050782 1.382813-6.046876 2.871094-8.976563 4.460938zm0 0" fill="url(#ad)"/><path d="m95.578125 346.882812c-.175781.007813-.351563.015626-.527344.019532.175781-.007813.351563-.011719.527344-.019532zm0 0" fill="url(#ae)"/><path d="m6.253906 224.332031c.046875-.128906.097656-.257812.144532-.382812-.046876.125-.097657.253906-.144532.382812zm0 0" fill="url(#af)"/><path d="m7.78125 220.511719c.019531-.046875.042969-.09375.0625-.140625-.019531.046875-.042969.09375-.0625.140625zm0 0" fill="url(#ag)"/><path d="m13.136719 209.964844c.027343-.042969.050781-.085938.078125-.132813-.027344.046875-.050782.089844-.078125.132813zm0 0" fill="url(#ah)"/><path d="m11.222656 213.359375c.007813-.015625.015625-.03125.023438-.046875-.007813.015625-.015625.03125-.023438.046875zm0 0" fill="url(#ai)"/><path d="m.589844 252.285156c.003906-.152344.007812-.304687.015625-.457031-.007813.152344-.007813.304687-.015625.457031zm0 0" fill="url(#aj)"/><path d="m4.910156 228.179688c.046875-.148438.09375-.296876.144532-.445313-.050782.148437-.097657.296875-.144532.445313zm0 0" fill="url(#ak)"/><path d="m1.320312 243.984375c.023438-.195313.054688-.390625.082032-.585937-.027344.195312-.058594.390624-.082032.585937zm0 0" fill="url(#al)"/><path d="m1.976562 239.808594c.023438-.128906.050782-.261719.074219-.390625-.023437.128906-.050781.261719-.074219.390625zm0 0" fill="url(#am)"/><path d="m3.761719 232.003906c.03125-.113281.0625-.222656.09375-.335937-.035157.113281-.0625.222656-.09375.335937zm0 0" fill="url(#an)"/><path d="m99.726562 346.59375c-.195312.019531-.394531.035156-.589843.050781.195312-.015625.394531-.03125.589843-.050781zm0 0" fill="url(#ao)"/><path d="m.855469 248.164062c.019531-.203124.035156-.40625.054687-.609374-.019531.203124-.035156.40625-.054687.609374zm0 0" fill="url(#ap)"/><path d="m73.9375 149.265625c-.011719-.164063-.03125-.328125-.042969-.492187.011719.164062.03125.328124.042969.492187zm0 0" fill="url(#aq)"/><path d="m103.660156 346.144531c-.121094.019531-.246094.035157-.367187.054688.121093-.019531.246093-.035157.367187-.054688zm0 0" fill="url(#ar)"/><path d="m74.671875 156.136719c-.003906-.042969-.011719-.085938-.015625-.128907.003906.042969.011719.085938.015625.128907zm0 0" fill="url(#as)"/><path d="m74.261719 152.695312c-.011719-.097656-.023438-.195312-.035157-.296874.011719.101562.027344.199218.035157.296874zm0 0" fill="url(#at)"/><path d="m15.25 206.570312c.007812-.011718.019531-.027343.027344-.039062-.007813.011719-.019532.023438-.027344.039062zm0 0" fill="url(#au)"/><g fill="url(#av)"><path d="m301.171875 33.308594c1.109375.957031 2.203125 1.929687 3.28125 2.917968-1.078125-.988281-2.171875-1.960937-3.28125-2.917968zm0 0"/><path d="m227.21875.917969c1.207031.140625 2.410156.292969 3.605469.460937-1.195313-.167968-2.398438-.320312-3.605469-.460937zm0 0"/><path d="m237.035156 2.40625c1.195313.226562 2.386719.464844 3.570313.722656-1.183594-.257812-2.375-.5-3.570313-.722656zm0 0"/><path d="m221.675781.386719c1.484375.109375 2.960938.246093 4.433594.40625-1.472656-.160157-2.949219-.296875-4.433594-.40625zm0 0"/><path d="m73.65625 145.136719c-.050781-.953125-.082031-1.910157-.113281-2.867188.03125.957031.0625 1.914063.113281 2.867188zm0 0"/><path d="m73.511719 141.492188c-.03125-1.210938-.046875-2.421876-.046875-3.640626 0 1.21875.015625 2.429688.046875 3.640626zm0 0"/><path d="m269.460938 12.835938c1.097656.511718 2.183593 1.035156 3.265624 1.574218-1.082031-.539062-2.167968-1.0625-3.265624-1.574218zm0 0"/><path d="m211.320312 0c1.523438 0 3.042969.0351562 4.558594.0820312-1.515625-.046875-3.035156-.0820312-4.558594-.0820312zm0 0"/><path d="m231.808594 1.519531c1.453125.214844 2.898437.453125 4.335937.714844-1.4375-.261719-2.882812-.5-4.335937-.714844zm0 0"/><path d="m260.558594 9.0625c1.164062.449219 2.320312.90625 3.46875 1.382812-1.148438-.476562-2.304688-.933593-3.46875-1.382812zm0 0"/><path d="m264.65625 10.703125c1.332031.558594 2.652344 1.140625 3.964844 1.742187-1.3125-.601562-2.632813-1.183593-3.964844-1.742187zm0 0"/><path d="m255.445312 7.214844c1.382813.464844 2.75.960937 4.109376 1.46875-1.359376-.507813-2.726563-1.003906-4.109376-1.46875zm0 0"/><path d="m251.285156 5.890625c1.339844.40625 2.667969.824219 3.988282 1.269531-1.320313-.445312-2.652344-.863281-3.988282-1.269531zm0 0"/><path d="m246.421875 4.515625c1.265625.332031 2.527344.6875 3.78125 1.054687-1.253906-.367187-2.515625-.722656-3.78125-1.054687zm0 0"/><path d="m241.691406 3.363281c1.425782.320313 2.84375.660157 4.25 1.023438-1.40625-.363281-2.824218-.703125-4.25-1.023438zm0 0"/><path d="m217.09375.128906c1.296875.054688 2.585938.125 3.871094.210938-1.285156-.085938-2.574219-.15625-3.871094-.210938zm0 0"/><path d="m320.933594 54.261719c.863281 1.128906 1.710937 2.269531 2.539062 3.425781-.828125-1.15625-1.675781-2.296875-2.539062-3.425781zm0 0"/><path d="m331.414062 70.140625c.664063 1.175781 1.308594 2.359375 1.9375 3.554687-.628906-1.195312-1.273437-2.378906-1.9375-3.554687zm0 0"/><path d="m323.539062 57.78125c.871094 1.214844 1.71875 2.449219 2.550782 3.695312-.832032-1.246093-1.679688-2.480468-2.550782-3.695312zm0 0"/><path d="m326.464844 62.050781c.734375 1.113281 1.457031 2.242188 2.164062 3.378907-.707031-1.136719-1.425781-2.265626-2.164062-3.378907zm0 0"/><path d="m328.898438 65.863281c.78125 1.273438 1.542968 2.5625 2.285156 3.867188-.742188-1.304688-1.503906-2.59375-2.285156-3.867188zm0 0"/><path d="m314.851562 46.84375c1.9375 2.203125 3.808594 4.46875 5.601563 6.792969-1.792969-2.324219-3.664063-4.589844-5.601563-6.792969zm0 0"/><path d="m74.65625 156.007812c-.144531-1.097656-.273438-2.203124-.394531-3.3125.117187 1.109376.25 2.214844.394531 3.3125zm0 0"/><path d="m333.679688 74.3125c.695312 1.339844 1.375 2.691406 2.027343 4.054688-.652343-1.363282-1.332031-2.714844-2.027343-4.054688zm0 0"/><path d="m74.230469 152.398438c-.109375-1.039063-.207031-2.085938-.292969-3.132813.085938 1.046875.183594 2.09375.292969 3.132813zm0 0"/><path d="m74.671875 156.136719c.46875 3.53125 1.074219 7.019531 1.804687 10.460937-.730468-3.441406-1.332031-6.933594-1.804687-10.460937zm0 0"/><path d="m73.894531 148.769531c-.078125-.980469-.136719-1.972656-.195312-2.960937.054687.992187.117187 1.980468.195312 2.960937zm0 0"/><path d="m311.539062 43.207031c.941407.996094 1.867188 2.011719 2.777344 3.035157-.910156-1.023438-1.835937-2.039063-2.777344-3.035157zm0 0"/><path d="m308.253906 39.847656c1.050782 1.035156 2.082032 2.089844 3.097656 3.160156-1.015624-1.070312-2.046874-2.125-3.097656-3.160156zm0 0"/><path d="m290.117188 24.738281c1.144531.796875 2.277343 1.609375 3.394531 2.4375-1.117188-.828125-2.25-1.640625-3.394531-2.4375zm0 0"/><path d="m293.625 27.261719c1.175781.875 2.332031 1.773437 3.476562 2.683593-1.144531-.910156-2.300781-1.808593-3.476562-2.683593zm0 0"/><path d="m297.769531 30.484375c1.003907.808594 1.996094 1.628906 2.972657 2.460937-.980469-.832031-1.96875-1.652343-2.972657-2.460937zm0 0"/><path d="m304.933594 36.675781c.941406.871094 1.875 1.757813 2.792968 2.65625-.917968-.898437-1.851562-1.785156-2.792968-2.65625zm0 0"/><path d="m273.53125 14.808594c1.289062.652344 2.5625 1.324218 3.828125 2.015625-1.265625-.691407-2.539063-1.363281-3.828125-2.015625zm0 0"/><path d="m282.027344 19.5c1.25.75 2.492187 1.511719 3.714844 2.296875-1.222657-.785156-2.464844-1.546875-3.714844-2.296875zm0 0"/><path d="m285.777344 21.820312c1.203125.773438 2.386718 1.570313 3.558594 2.378907-1.171876-.808594-2.355469-1.605469-3.558594-2.378907zm0 0"/><path d="m277.917969 17.136719c1.101562.609375 2.191406 1.234375 3.273437 1.871093-1.082031-.636718-2.171875-1.261718-3.273437-1.871093zm0 0"/></g><path d="m91.300781 165.386719c50.148438 0 90.800781 40.652343 90.800781 90.800781 0 5.492188-.488281 10.871094-1.421874 16.097656 9.851562 2.234375 20.109374 3.421875 30.640624 3.421875 76.132813 0 137.851563-61.71875 137.851563-137.851562 0-21.304688-4.832031-41.476563-13.460937-59.488281-.65625-1.363282-1.335938-2.714844-2.03125-4.054688-.109376-.203125-.21875-.410156-.328126-.617188-.628906-1.195312-1.273437-2.378906-1.9375-3.554687-.078124-.136719-.152343-.273437-.226562-.410156-.742188-1.300781-1.507812-2.589844-2.289062-3.867188-.089844-.144531-.179688-.285156-.269532-.429687-.703125-1.140625-1.425781-2.265625-2.164062-3.382813-.125-.191406-.25-.382812-.375-.570312-.832032-1.246094-1.679688-2.480469-2.546875-3.699219-.023438-.03125-.046875-.0625-.070313-.089844-.828125-1.160156-1.675781-2.300781-2.539062-3.429687-.160156-.207031-.316406-.414063-.476563-.621094-1.796875-2.324219-3.667969-4.589844-5.605469-6.792969-.175781-.203125-.355468-.402344-.53125-.601562-.914062-1.027344-1.839843-2.039063-2.78125-3.039063-.0625-.066406-.121093-.132812-.1875-.199219-1.011718-1.070312-2.046874-2.121093-3.097656-3.160156-.171875-.171875-.351562-.34375-.527344-.515625-.917968-.898437-1.847656-1.785156-2.789062-2.65625-.160156-.148437-.320312-.300781-.484375-.449219-1.078125-.988281-2.171875-1.960937-3.28125-2.917968-.140625-.121094-.285156-.238282-.429687-.359375-.976563-.835938-1.96875-1.65625-2.96875-2.464844-.222657-.179687-.445313-.359375-.667969-.539063-1.144531-.910156-2.300781-1.808593-3.476563-2.683593-.039062-.027344-.078125-.054688-.117187-.082031-1.117188-.832032-2.25-1.644532-3.390625-2.441407-.261719-.179687-.519532-.359375-.78125-.539062-1.175782-.808594-2.359375-1.605469-3.558594-2.375-.011719-.007813-.023438-.015625-.039062-.027344-1.222657-.785156-2.460938-1.546875-3.710938-2.296875-.277344-.164062-.558594-.328125-.835938-.492188-1.082031-.636718-2.171874-1.261718-3.273437-1.871093-.1875-.101563-.371094-.210938-.558594-.3125-1.265625-.691407-2.542969-1.363281-3.832031-2.015625-.265625-.132813-.535156-.265625-.800781-.398438-1.082031-.539062-2.171875-1.0625-3.269531-1.574218-.277344-.132813-.554688-.265626-.835938-.390626-1.3125-.601562-2.632812-1.183593-3.964844-1.742187-.207031-.085937-.421875-.171875-.628906-.257813-1.148438-.476562-2.304688-.933593-3.46875-1.378906-.335938-.128906-.667969-.257812-1.003906-.382812-1.359375-.507813-2.726563-1-4.109375-1.46875-.058594-.019532-.117188-.035156-.171875-.054688-1.320313-.445312-2.652344-.863281-3.988282-1.269531-.359374-.109375-.722656-.214844-1.082031-.320313-1.253906-.367187-2.515625-.722656-3.785156-1.054687-.15625-.042969-.316406-.089844-.476563-.128906-1.40625-.363281-2.828124-.703125-4.25-1.023438-.363281-.082031-.726562-.15625-1.089843-.234375-1.183594-.257812-2.371094-.5-3.566407-.722656-.296874-.058594-.59375-.117188-.894531-.171875-1.4375-.261719-2.878906-.5-4.332031-.71875-.328125-.046875-.65625-.089844-.984375-.136719-1.195313-.167968-2.398437-.324218-3.605469-.460937-.367187-.042969-.738281-.085938-1.109375-.125-1.472656-.160157-2.949219-.296875-4.433593-.40625-.238282-.019531-.476563-.03125-.710938-.046875-1.285156-.089844-2.574219-.15625-3.871094-.210938-.402344-.015625-.808594-.035156-1.214844-.0468748-1.519531-.046875-3.039062-.0820312-4.5625-.0820312-2.382812 0-4.746093.0585938-7.09375.179688-3.527343.179687-7.015624.488281-10.464843.929687-2.300781.292969-4.582031.640625-6.84375 1.046875-3.394531.605469-6.75 1.335938-10.050781 2.183594-2.203126.566406-4.382813 1.1875-6.542969 1.859375-1.078125.335937-2.152344.683593-3.21875 1.042969-2.136719.722656-4.246094 1.496093-6.335938 2.320312-2.085937.824219-4.148437 1.695312-6.183593 2.613281-3.050782 1.382813-6.046876 2.871094-8.976563 4.460938-2.929687 1.59375-5.796875 3.289062-8.59375 5.082031s-5.523437 3.683594-8.175781 5.667969-5.234375 4.0625-7.734375 6.230469c-2.503907 2.164062-4.925781 4.421874-7.265625 6.757812-1.558594 1.5625-3.078125 3.15625-4.5625 4.789062-.742188.816407-1.472656 1.640626-2.195313 2.476563-1.445312 1.664063-2.851562 3.367187-4.214843 5.105469-2.726563 3.46875-5.292969 7.078125-7.683594 10.804687-1.792969 2.796875-3.488282 5.664063-5.082032 8.59375-.527343.976563-1.046874 1.960938-1.554687 2.953125-1.015625 1.980469-1.984375 3.988282-2.90625 6.023438-7.820313 17.304687-12.175781 36.511718-12.175781 56.734375 0 1.214843.015625 2.425781.046875 3.636719.007812.261718.023437.519531.03125.78125.03125.957031.0625 1.910156.113281 2.863281.011719.226562.03125.449219.042969.675781.058593.988281.117187 1.976562.195312 2.960938.015625.167968.03125.332031.046875.496093.085938 1.046875.179688 2.089844.289063 3.132813.007812.097656.023437.195312.035156.296875.117187 1.105469.246094 2.210937.394531 3.3125.003906.039062.011719.082031.015625.125.46875 3.53125 1.070313 7.019531 1.800781 10.460937 4.824219-.792968 9.773438-1.210937 14.824219-1.210937zm0 0" fill="url(#aw)"/><path d="m24.089844 317.238281c2.929687 3.222657 6.089844 6.238281 9.453125 9.015625-3.363281-2.777344-6.523438-5.789062-9.453125-9.015625zm0 0" fill="url(#ax)"/><path d="m.589844 252.285156c-.054688 1.296875-.089844 2.59375-.089844 3.902344 0 9.402344 1.429688 18.46875 4.082031 27-2.652343-8.53125-4.082031-17.597656-4.082031-27 0-1.308594.035156-2.605469.089844-3.902344zm0 0" fill="url(#ax)"/><path d="m76.476562 166.609375c0-.003906 0-.007813 0-.011719-25.582031 4.203125-47.558593 19.089844-61.199218 39.933594 13.640625-20.835938 35.625-35.71875 61.199218-39.921875zm0 0" fill="url(#ax)"/><path d="m115.09375 343.832031c12.613281-3.417969 24.136719-9.476562 33.9375-17.558593-.007812-.007813-.011719-.015626-.015625-.023438-9.796875 8.085938-21.3125 14.160156-33.921875 17.582031zm0 0" fill="url(#ax)"/><path d="m51.933594 338.03125c-1.320313-.636719-2.628906-1.304688-3.914063-2.003906 1.285157.699218 2.59375 1.367187 3.914063 2.003906zm0 0" fill="url(#ax)"/><path d="m82.015625 346.519531c-3.050781-.3125-6.058594-.773437-9.011719-1.378906 2.953125.605469 5.960938 1.066406 9.011719 1.378906zm0 0" fill="url(#ax)"/><path d="m73 345.140625c-3.691406-.753906-7.304688-1.734375-10.820312-2.925781 3.515624 1.191406 7.128906 2.171875 10.820312 2.925781zm0 0" fill="url(#ax)"/><path d="m62.179688 342.214844c-1.40625-.476563-2.796876-.984375-4.171876-1.527344 1.375.542969 2.765626 1.050781 4.171876 1.527344zm0 0" fill="url(#ax)"/><path d="m36.972656 328.949219c-1.164062-.871094-2.308594-1.769531-3.429687-2.695313 1.121093.921875 2.265625 1.824219 3.429687 2.695313zm0 0" fill="url(#ax)"/><path d="m48.019531 336.027344c-1.929687-1.046875-3.816406-2.164063-5.660156-3.347656 1.84375 1.183593 3.730469 2.300781 5.660156 3.347656zm0 0" fill="url(#ax)"/><path d="m42.359375 332.679688c-1.839844-1.179688-3.636719-2.425782-5.386719-3.730469 1.75 1.304687 3.546875 2.550781 5.386719 3.730469zm0 0" fill="url(#ax)"/><path d="m91.300781 346.988281c-3.132812 0-6.230469-.160156-9.285156-.46875 3.054687.308594 6.152344.46875 9.285156.46875zm0 0" fill="url(#ax)"/><path d="m111.183594 344.796875c-2.46875.554687-4.980469 1-7.523438 1.347656 2.542969-.34375 5.050782-.796875 7.523438-1.347656zm0 0" fill="url(#ax)"/><path d="m22.640625 315.609375c-1.902344-2.195313-3.699219-4.484375-5.386719-6.859375 1.6875 2.375 3.484375 4.664062 5.386719 6.859375zm0 0" fill="url(#ax)"/><path d="m115.03125 343.847656c-1.242188.335938-2.492188.644532-3.753906.929688 1.261718-.285156 2.511718-.59375 3.753906-.929688zm0 0" fill="url(#ax)"/><path d="m103.292969 346.199219c-1.179688.15625-2.371094.285156-3.566407.394531 1.195313-.109375 2.386719-.242188 3.566407-.394531zm0 0" fill="url(#ax)"/><path d="m95.050781 346.902344c-1.246093.050781-2.492187.085937-3.75.085937 1.257813 0 2.503907-.035156 3.75-.085937zm0 0" fill="url(#ax)"/><path d="m99.136719 346.644531c-1.179688.101563-2.367188.183594-3.558594.238281 1.191406-.054687 2.378906-.136718 3.558594-.238281zm0 0" fill="url(#ax)"/><path d="m11.460938 299.464844c-.699219-1.285156-1.367188-2.589844-2.007813-3.914063.640625 1.324219 1.308594 2.628907 2.007813 3.914063zm0 0" fill="url(#ax)"/><path d="m6.398438 223.945312c.4375-1.15625.898437-2.300781 1.382812-3.433593-.484375 1.132812-.945312 2.28125-1.382812 3.433593zm0 0" fill="url(#ax)"/><path d="m5.054688 227.734375c.375-1.144531.777343-2.28125 1.199218-3.402344-.421875 1.121094-.824218 2.257813-1.199218 3.402344zm0 0" fill="url(#ax)"/><path d="m3.855469 231.667969c.328125-1.171875.679687-2.335938 1.054687-3.488281-.375 1.152343-.730468 2.316406-1.054687 3.488281zm0 0" fill="url(#ax)"/><path d="m2.050781 239.417969c.46875-2.507813 1.042969-4.980469 1.710938-7.414063-.667969 2.433594-1.242188 4.90625-1.710938 7.414063zm0 0" fill="url(#ax)"/><path d="m11.246094 213.3125c.605468-1.128906 1.238281-2.246094 1.890625-3.347656-.652344 1.101562-1.285157 2.214844-1.890625 3.347656zm0 0" fill="url(#ax)"/><path d="m7.84375 220.371094c1.027344-2.390625 2.152344-4.730469 3.378906-7.011719-1.226562 2.28125-2.351562 4.621094-3.378906 7.011719zm0 0" fill="url(#ax)"/><path d="m9.453125 295.550781c-1.910156-3.96875-3.542969-8.097656-4.871094-12.363281 1.328125 4.265625 2.960938 8.394531 4.871094 12.363281zm0 0" fill="url(#ax)"/><path d="m13.214844 209.835938c.65625-1.105469 1.332031-2.195313 2.035156-3.265626-.703125 1.070313-1.378906 2.160157-2.035156 3.265626zm0 0" fill="url(#ax)"/><path d="m.605469 251.828125c.058593-1.226563.144531-2.449219.25-3.664063-.105469 1.214844-.191407 2.4375-.25 3.664063zm0 0" fill="url(#ax)"/><path d="m16.007812 306.953125c-1.222656-1.808594-2.382812-3.667969-3.476562-5.570313 1.09375 1.902344 2.253906 3.757813 3.476562 5.570313zm0 0" fill="url(#ax)"/><path d="m.910156 247.554688c.113282-1.195313.25-2.386719.410156-3.570313-.160156 1.183594-.296874 2.375-.410156 3.570313zm0 0" fill="url(#ax)"/><path d="m1.402344 243.398438c.167968-1.203126.359375-2.402344.574218-3.589844-.214843 1.1875-.40625 2.386718-.574218 3.589844zm0 0" fill="url(#ax)"/><path d="m180.675781 272.285156c-52.15625-11.839844-93.074219-53.25-104.199219-105.675781-25.578124 4.203125-47.558593 19.085937-61.199218 39.917969-.011719.015625-.019532.027344-.027344.042968-.703125 1.070313-1.378906 2.160157-2.035156 3.261719-.027344.042969-.050782.089844-.078125.132813-.652344 1.101562-1.285157 2.214844-1.890625 3.347656-.007813.015625-.015625.03125-.023438.046875-1.226562 2.277344-2.351562 4.617187-3.382812 7.011719-.019532.046875-.039063.09375-.058594.140625-.484375 1.132812-.945312 2.277343-1.382812 3.433593-.050782.128907-.097657.257813-.148438.382813-.421875 1.125-.820312 2.261719-1.199219 3.40625-.046875.148437-.09375.296875-.144531.445313-.371094 1.152343-.726562 2.3125-1.054688 3.484374-.03125.113282-.058593.226563-.089843.339844-.671875 2.429688-1.242188 4.90625-1.710938 7.414063-.023437.128906-.050781.257812-.074219.390625-.21875 1.1875-.40625 2.386718-.574218 3.589844-.027344.195312-.058594.390624-.085938.585937-.15625 1.183594-.292968 2.371094-.40625 3.570313-.019531.199218-.035156.402343-.054687.605468-.105469 1.21875-.191407 2.4375-.25 3.667969-.007813.152344-.011719.304687-.015625.457031-.058594 1.292969-.089844 2.589844-.089844 3.898438 0 9.402344 1.429688 18.472656 4.082031 27 1.324219 4.265625 2.957031 8.394531 4.871094 12.367187.636719 1.320313 1.308594 2.628907 2.003906 3.914063.351563.644531.707031 1.28125 1.074219 1.914062 1.09375 1.902344 2.253906 3.761719 3.476562 5.570313.40625.605469.824219 1.203125 1.246094 1.796875 1.6875 2.375 3.484375 4.664062 5.386719 6.859375.476563.550781.960937 1.09375 1.449219 1.628906 2.929687 3.226563 6.089844 6.238281 9.453125 9.015625 1.121093.925781 2.265625 1.824219 3.429687 2.695312 1.75 1.308594 3.546875 2.554688 5.390625 3.734376 1.839844 1.179687 3.726563 2.296874 5.660157 3.347656 1.285156.695312 2.589843 1.367187 3.914062 2.003906 1.984375.957031 4.007812 1.839844 6.070312 2.65625 1.375.539062 2.765626 1.050781 4.171876 1.523438 3.515624 1.191406 7.128906 2.171874 10.824218 2.929687 2.957032.601563 5.964844 1.066406 9.015625 1.375s6.148438.46875 9.285157.46875c1.253906 0 2.503906-.03125 3.75-.082031.175781-.007813.351562-.011719.527343-.019532 1.191407-.058593 2.375-.136718 3.558594-.238281.195313-.015625.394531-.035156.589844-.050781 1.195312-.113281 2.386719-.242188 3.566406-.398438.121094-.015624.242187-.035156.367187-.050781 2.542969-.347656 5.050782-.796875 7.523438-1.351562.03125-.003907.0625-.011719.09375-.019531 1.261719-.28125 2.511719-.59375 3.753906-.929688.019532-.003906.042969-.011719.0625-.015625 12.609375-3.421875 24.125-9.492187 33.917969-17.578125.007813.007812.011719.015625.019531.023438 16.261719-13.410157 27.777344-32.375 31.640625-53.988282zm0 0" fill="url(#ay)"/><path d="m91.300781 165.386719c-5.050781 0-10 .417969-14.824219 1.210937v.011719c11.128907 52.425781 52.042969 93.835937 104.199219 105.675781.9375-5.226562 1.425781-10.605468 1.425781-16.097656 0-50.148438-40.652343-90.800781-90.800781-90.800781zm0 0" fill="url(#az)"/><path d="m274.863281 431.09375v80.488281c-22.378906.554688-44.78125.554688-67.160156 0v-80.488281c22.390625.585938 44.769531.585938 67.160156 0zm0 0" fill="url(#aA)"/><path d="m358.769531 506.945312c-46.789062 4.027344-93.617187 5.648438-140.429687 4.855469l-8.796875-8.796875c-2.8125-1.972656-4.582031-5.421875-3.90625-9.351562l3.339843-19.472656c.410157-2.355469-.109374-4.757813-1.371093-6.730469l-15.492188-15.441407c-5.625-5.480468-2.523437-15.035156 5.253907-16.167968l19.542968-2.835938c1.488282-.203125 2.894532-.78125 4.097656-1.632812 1.273438-.902344 2.332032-2.117188 3.039063-3.546875l8.738281-17.714844c3.257813-6.597656 12.28125-7.019531 16.261719-1.25l25.3125 25.3125c.058594.046875.121094.082031.167969.121094l10.671875 1.546875c2.789062.410156 4.964843 1.914062 6.371093 3.90625zm0 0" fill="url(#aB)"/><path d="m249.78125 410.105469 8.742188 17.710937c1.378906 2.796875 4.046874 4.738282 7.132812 5.183594l19.550781 2.839844c7.769531 1.132812 10.875 10.683594 5.25 16.164062l-14.144531 13.789063c-2.234375 2.175781-3.253906 5.3125-2.726562 8.386719l3.339843 19.46875c1.328125 7.742187-6.796875 13.644531-13.75 9.988281l-17.484375-9.191407c-2.757812-1.449218-6.058594-1.449218-8.816406 0l-17.484375 9.191407c-6.953125 3.65625-15.078125-2.246094-13.75-9.988281l3.339844-19.46875c.527343-3.074219-.492188-6.210938-2.726563-8.386719l-14.144531-13.789063c-5.625-5.480468-2.523437-15.03125 5.25-16.164062l19.550781-2.839844c3.085938-.449219 5.753906-2.386719 7.132813-5.183594l8.742187-17.710937c3.476563-7.042969 13.519532-7.042969 16.996094 0zm0 0" fill="url(#aC)"/><path d="m261.550781 431.355469c-1.269531-.898438-2.320312-2.101563-3.027343-3.535157l-8.742188-17.714843c-1.738281-3.519531-5.117188-5.28125-8.496094-5.28125v57.398437zm0 0" fill="url(#aE)"/><path d="m241.285156 462.222656 32.667969 7.328125c.472656-1.402343 1.269531-2.695312 2.359375-3.757812l14.144531-13.789063c5.625-5.480468 2.519531-15.03125-5.25-16.160156l-19.550781-2.839844c-1.5-.21875-2.902344-.796875-4.105469-1.648437zm0 0" fill="url(#aF)"/><path d="m241.285156 462.222656-32.671875 7.328125c-.472656-1.402343-1.269531-2.695312-2.359375-3.757812l-14.144531-13.789063c-5.625-5.480468-2.519531-15.03125 5.25-16.160156l19.550781-2.839844c1.5-.21875 2.902344-.796875 4.105469-1.648437zm0 0" fill="url(#aG)"/><path d="m208.613281 469.550781c.496094 1.46875.636719 3.054688.367188 4.628907l-3.339844 19.46875c-1.328125 7.742187 6.796875 13.644531 13.75 9.992187l17.484375-9.191406c1.378906-.726563 2.894531-1.089844 4.410156-1.089844v-31.136719zm0 0" fill="url(#aI)"/><path d="m263.175781 503.640625c6.953125 3.652344 15.078125-2.25 13.75-9.992187l-3.339843-19.46875c-.269532-1.574219-.128907-3.160157.367187-4.628907l-32.667969-7.328125v31.136719c1.511719 0 3.027344.359375 4.40625 1.085937zm0 0" fill="url(#aJ)"/><path d="m248.507812 416.796875 7.433594 15.058594c1.175782 2.378906 3.441406 4.027343 6.066406 4.410156l16.621094 2.414063c6.609375.960937 9.246094 9.082031 4.464844 13.742187l-12.027344 11.722656c-1.898437 1.851563-2.765625 4.519531-2.316406 7.132813l2.839844 16.554687c1.128906 6.582031-5.78125 11.601563-11.691406 8.492188l-14.867188-7.8125c-2.347656-1.234375-5.148438-1.234375-7.496094 0l-14.867187 7.8125c-5.914063 3.109375-12.820313-1.910157-11.691407-8.492188l2.839844-16.554687c.449219-2.613282-.417968-5.28125-2.316406-7.132813l-12.027344-11.722656c-4.785156-4.660156-2.144531-12.78125 4.464844-13.742187l16.621094-2.414063c2.625-.382813 4.890625-2.03125 6.066406-4.410156l7.433594-15.058594c2.957031-5.988281 11.496094-5.988281 14.449218 0zm0 0" fill="url(#aK)"/></svg>