<svg height="512pt" viewBox="-14 0 512 512" width="512pt" xmlns="http://www.w3.org/2000/svg" xmlns:xlink="http://www.w3.org/1999/xlink"><linearGradient id="a"><stop offset="0" stop-color="#3b395f"/><stop offset=".0633" stop-color="#37355a"/><stop offset=".4033" stop-color="#232543"/><stop offset=".7232" stop-color="#171b35"/><stop offset="1" stop-color="#131830"/></linearGradient><linearGradient id="b" gradientUnits="userSpaceOnUse" x1="242.337741" x2="242.337741" xlink:href="#a" y1="480.266747541" y2="534.7598344854"/><linearGradient id="c"><stop offset="0" stop-color="#ff6e3a"/><stop offset=".1596" stop-color="#ff6440"/><stop offset=".4266" stop-color="#ff4b52"/><stop offset=".7662" stop-color="#ff216e"/><stop offset="1" stop-color="#ff0084"/></linearGradient><linearGradient id="d" gradientUnits="userSpaceOnUse" x1="161.877408388" x2="470.1104757338" xlink:href="#c" y1="241.0176784642" y2="549.25074581"/><linearGradient id="e" gradientUnits="userSpaceOnUse" x1="109.2646673496" x2="33.7841894264" xlink:href="#c" y1="367.8940435696" y2="376.8671987978"/><linearGradient id="f" gradientUnits="userSpaceOnUse" x1="427.0638062568" x2="345.7771454466" xlink:href="#c" y1="374.7387837656" y2="363.1264179916"/><linearGradient id="g" gradientUnits="userSpaceOnUse" x1="190.7615494266" x2="99.9738712006" xlink:href="#c" y1="368.6390540858" y2="373.3895125976"/><linearGradient id="h" gradientUnits="userSpaceOnUse" x1="360.8274421096" x2="268.4561773208" xlink:href="#c" y1="372.4623906306" y2="366.6562077436"/><linearGradient id="i" gradientUnits="userSpaceOnUse" x1="265.316511658" x2="188.1640016438" xlink:href="#c" y1="370.5403819616" y2="370.5403819616"/><linearGradient id="j"><stop offset="0" stop-color="#e4003d" stop-opacity="0"/><stop offset=".5838" stop-color="#bd294b" stop-opacity=".584314"/><stop offset="1" stop-color="#a64153"/></linearGradient><linearGradient id="k" gradientUnits="userSpaceOnUse" x1="270.2344243594" x2="198.4119370276" xlink:href="#j" y1="382.206156386" y2="-51.0467231106"/><linearGradient id="l" gradientUnits="userSpaceOnUse" x1="223.8317440286" x2="88.7041440052" xlink:href="#j" y1="387.8609478354" y2="254.8446961702"/><linearGradient id="m" gradientUnits="userSpaceOnUse" x1="242.337741" x2="242.337741" xlink:href="#a" y1="193.3169269874" y2="261.5935618152"/><linearGradient id="n" gradientUnits="userSpaceOnUse" x1="236.9067237644" x2="271.5953410226" y1="62.6163218074" y2="97.3050394578"><stop offset="0" stop-color="#8be1e2"/><stop offset=".1873" stop-color="#87e1e1"/><stop offset=".3558" stop-color="#7ce2dd"/><stop offset=".5172" stop-color="#6ae2d7"/><stop offset=".6741" stop-color="#50e4ce"/><stop offset=".8278" stop-color="#2fe5c2"/><stop offset=".9772" stop-color="#07e7b4"/><stop offset="1" stop-color="#00e7b2"/></linearGradient><linearGradient id="o" gradientUnits="userSpaceOnUse" x1="242.337741" x2="242.337741" xlink:href="#j" y1="467.178616427" y2="524.1285012898"/><linearGradient id="p" gradientUnits="userSpaceOnUse" x1="316.6597933274" x2="168.0571506512" y1="333.800551273" y2="185.1978082046"><stop offset="0" stop-color="#3b395f" stop-opacity="0"/><stop offset=".0633" stop-color="#37355a" stop-opacity=".062745"/><stop offset=".4033" stop-color="#232543" stop-opacity=".403922"/><stop offset=".7232" stop-color="#171b35" stop-opacity=".721569"/><stop offset="1" stop-color="#131830"/></linearGradient><linearGradient id="q" gradientTransform="matrix(.709873 .709873 -.709873 .709873 204.004091 -121.916938)" gradientUnits="userSpaceOnUse" x1="245.7" x2="279.3495" y1="358.0634" y2="358.0634"><stop offset="0" stop-color="#ffd459"/><stop offset=".2296" stop-color="#ffd355"/><stop offset=".4362" stop-color="#ffcf4a"/><stop offset=".634" stop-color="#ffc838"/><stop offset=".825" stop-color="#ffbf1f"/><stop offset="1" stop-color="#ffb400"/></linearGradient><path d="m363.605469 512h-242.535157c-13.769531 0-24.933593-11.164062-24.933593-24.933594h292.402343c0 13.769532-11.164062 24.933594-24.933593 24.933594zm0 0" fill="url(#b)"/><path d="m380.621094 499.847656h-276.570313c-22.941406 0-42.574219-16.457031-46.585937-39.046875l-43.828125-246.875h457.402343l-43.828124 246.875c-4.011719 22.589844-23.648438 39.046875-46.589844 39.046875zm0 0" fill="url(#d)"/><path d="m99.207031 467.660156h-.003906c-9.4375 0-17.476563-6.851562-18.960937-16.171875-5.53125-34.730469-18.265626-116.429687-24.410157-155.925781-1.8125-11.640625 7.191407-22.144531 18.972657-22.144531h5.832031c9.730469 0 17.921875 7.269531 19.066406 16.933593 4.1875 35.328126 13.855469 116.84375 18.566406 155.816407 1.378907 11.433593-7.546875 21.492187-19.0625 21.492187zm0 0" fill="url(#e)"/><path d="m428.847656 295.5625c-6.148437 39.496094-18.882812 121.195312-24.414062 155.925781-1.484375 9.320313-9.523438 16.175781-18.960938 16.175781-11.515625 0-20.441406-10.0625-19.058594-21.496093 4.707032-38.972657 14.375-120.488281 18.5625-155.816407 1.144532-9.660156 9.335938-16.929687 19.066407-16.929687h5.832031c11.78125-.003906 20.785156 10.5 18.972656 22.140625zm0 0" fill="url(#f)"/><path d="m164.808594 467.660156h-5.425782c-9.863281 0-18.121093-7.46875-19.105468-17.285156-3.566406-35.667969-11.558594-117.238281-15.34375-155.894531-1.105469-11.289063 7.769531-21.0625 19.109375-21.0625h12.023437c10.1875 0 18.597656 7.949219 19.167969 18.121093 2.027344 36.320313 6.578125 117.789063 8.742187 155.839844.625 11.015625-8.136718 20.28125-19.167968 20.28125zm0 0" fill="url(#g)"/><path d="m359.746094 294.480469c-3.785156 38.65625-11.777344 120.226562-15.347656 155.894531-.980469 9.8125-9.238282 17.285156-19.101563 17.285156h-5.4375c-11.03125 0-19.792969-9.265625-19.167969-20.28125 2.164063-38.050781 6.714844-119.519531 8.742188-155.839844.566406-10.171874 8.980468-18.121093 19.171875-18.121093h12.03125c11.339843 0 20.210937 9.773437 19.109375 21.0625zm0 0" fill="url(#h)"/><path d="m267.742188 293.023438c-.792969 37.511718-2.519532 118.980468-3.316407 155.855468-.226562 10.4375-8.753906 18.785156-19.195312 18.785156h-5.789063c-10.441406 0-18.96875-8.347656-19.195312-18.785156-.792969-36.875-2.515625-118.34375-3.308594-155.855468-.230469-10.761719 8.433594-19.605469 19.195312-19.605469h12.414063c10.761719 0 19.421875 8.84375 19.195313 19.605469zm0 0" fill="url(#i)"/><path d="m268.78125 499.847656h111.84375c22.941406 0 42.574219-16.457031 46.585938-39.046875l43.828124-246.875h-457.402343l6.640625 37.417969zm0 0" fill="url(#k)"/><path d="m439.40625 392.085938-12.191406 68.714843c-4.011719 22.589844-23.648438 39.046875-46.589844 39.046875h-257.136719l-71.847656-71.859375-7.351563-41.359375 172.710938-172.707031h44.242188zm0 0" fill="url(#l)"/><path d="m445.351562 256.261719h-406.027343c-21.71875 0-39.324219-17.605469-39.324219-39.324219v-7.265625c0-21.71875 17.605469-39.324219 39.324219-39.324219h406.027343c21.71875 0 39.324219 17.605469 39.324219 39.324219v7.265625c0 21.71875-17.605469 39.324219-39.324219 39.324219zm0 0" fill="url(#m)"/><path d="m187.964844 82.140625 38.710937 68.402344c6.890625 12.179687 24.433594 12.179687 31.324219 0l38.710938-68.402344c6.789062-11.996094-1.878907-26.859375-15.664063-26.859375h-8.933594l6.402344-45.160156c.757813-5.34375-3.390625-10.121094-8.789063-10.121094h-54.777343c-5.398438 0-9.546875 4.777344-8.789063 10.121094l6.398438 45.160156h-8.929688c-13.785156 0-22.453125 14.863281-15.664062 26.859375zm0 0" fill="url(#n)"/><path d="m52.136719 430.789062 5.328125 30.011719c4.011718 22.589844 23.644531 39.046875 46.585937 39.046875h276.574219c22.941406 0 42.574219-16.457031 46.585938-39.046875l5.328124-30.011719zm0 0" fill="url(#o)"/><path d="m266.898438 213.304688c0 13.992187-11.34375 25.335937-25.335938 25.335937s-25.335938-11.34375-25.335938-25.335937c0-13.992188 11.34375-25.335938 25.335938-25.335938s25.335938 11.34375 25.335938 25.335938zm0 0" fill="#fff"/><path d="m303.582031 256.261719c-29.792969-29.792969-52.242187-52.242188-52.515625-52.519531-6.597656-6.59375-17.292968-6.59375-23.886718 0l-52.519532 52.519531zm0 0" fill="url(#p)"/><path d="m21.300781 433.507812c-6.59375-6.597656-6.59375-17.289062 0-23.886718l205.875-205.878906c6.597657-6.59375 17.292969-6.59375 23.890625 0 6.59375 6.597656 6.59375 17.292968 0 23.890624l-205.878906 205.875c-6.597656 6.597657-17.289062 6.597657-23.886719 0zm0 0" fill="url(#q)"/></svg>