<svg height="511pt" viewBox="1 -98 511.999 511" width="511pt" xmlns="http://www.w3.org/2000/svg" xmlns:xlink="http://www.w3.org/1999/xlink"><linearGradient id="a"><stop offset="0" stop-color="#8be1e2"/><stop offset=".1873" stop-color="#87e1e1"/><stop offset=".3558" stop-color="#7ce2dd"/><stop offset=".5172" stop-color="#6ae2d7"/><stop offset=".6741" stop-color="#50e4ce"/><stop offset=".8278" stop-color="#2fe5c2"/><stop offset=".9772" stop-color="#07e7b4"/><stop offset="1" stop-color="#00e7b2"/></linearGradient><linearGradient id="b" gradientTransform="matrix(1.003922 .00006954 -.00006954 1.003922 .01777 -97.541171)" gradientUnits="userSpaceOnUse" x1="93.854" x2="362.9635" xlink:href="#a" y1="128.4467" y2="397.5562"/><linearGradient id="c" gradientTransform="matrix(1.003922 .00006954 -.00006954 1.003922 .01777 -97.541171)" gradientUnits="userSpaceOnUse" x1="375.1547" x2="547.9385" xlink:href="#a" y1="165.3566" y2="338.1404"/><linearGradient id="d" gradientUnits="userSpaceOnUse" x1="541.045189343" x2="464.8604601368" y1="171.2655699658" y2="162.3025543498"><stop offset=".0029" stop-color="#00e7b2" stop-opacity="0"/><stop offset=".4308" stop-color="#1bc4b7" stop-opacity=".427451"/><stop offset="1" stop-color="#3b9abe"/></linearGradient><linearGradient id="e"><stop offset="0" stop-color="#ff6e3a"/><stop offset=".1596" stop-color="#ff6440"/><stop offset=".4266" stop-color="#ff4b52"/><stop offset=".7662" stop-color="#ff216e"/><stop offset="1" stop-color="#ff0084"/></linearGradient><linearGradient id="f" gradientTransform="matrix(1.003922 .00006954 -.00006954 1.003922 .01777 -97.541171)" gradientUnits="userSpaceOnUse" x1="72.6535" x2="341.763" xlink:href="#e" y1="175.3196" y2="444.4291"/><linearGradient id="g" gradientTransform="matrix(1.003922 .00006954 -.00006954 1.003922 .01777 -97.541171)" gradientUnits="userSpaceOnUse" x1="353.9542" x2="526.738" xlink:href="#e" y1="212.2295" y2="385.0133"/><linearGradient id="h" gradientUnits="userSpaceOnUse" x1="245.3501038552" x2="245.3501038552" y1="269.3928215416" y2="318.7015548858"><stop offset="0" stop-color="#e58200" stop-opacity="0"/><stop offset=".2413" stop-color="#da760f" stop-opacity=".243137"/><stop offset=".7044" stop-color="#bc5737" stop-opacity=".705882"/><stop offset="1" stop-color="#a64153"/></linearGradient><linearGradient id="i" gradientUnits="userSpaceOnUse" x1="144.3704087008" x2="413.7083252162" y1="78.7856808166" y2="348.1609432304"><stop offset="0" stop-color="#fffcf8"/><stop offset=".1875" stop-color="#faf8f6"/><stop offset=".4041" stop-color="#eceef2"/><stop offset=".6353" stop-color="#d5dcea"/><stop offset=".875" stop-color="#b5c4df"/><stop offset="1" stop-color="#a1b5d8"/></linearGradient><linearGradient id="j"><stop offset="0" stop-color="#3b395f"/><stop offset=".8022" stop-color="#1b1f3a"/><stop offset="1" stop-color="#131830"/></linearGradient><linearGradient id="k" gradientUnits="userSpaceOnUse" x1="348.9397954252" x2="446.8604398534" xlink:href="#j" y1="89.1740648882" y2="187.1082622634"/><linearGradient id="l" gradientUnits="userSpaceOnUse" x1="304.6264775608" x2="399.1686232824" xlink:href="#j" y1="134.0860214412" y2="228.6412181488"/><linearGradient id="m" gradientUnits="userSpaceOnUse" x1="259.7095013978" x2="357.630145826" xlink:href="#j" y1="178.3941189112" y2="276.3284166786"/><linearGradient id="n"><stop offset="0" stop-color="#a1b5d8" stop-opacity="0"/><stop offset=".0343" stop-color="#9fb3d5" stop-opacity=".035294"/><stop offset=".4515" stop-color="#8898af" stop-opacity=".45098"/><stop offset=".788" stop-color="#798898" stop-opacity=".788235"/><stop offset="1" stop-color="#748290"/></linearGradient><linearGradient id="o" gradientUnits="userSpaceOnUse" x1="408.098308688" x2="375.0484937026" xlink:href="#n" y1="192.068942042" y2="159.0192274488"/><linearGradient id="p" gradientUnits="userSpaceOnUse" x1="440.439655918" x2="389.268747656" xlink:href="#n" y1="218.2188011214" y2="167.0478928594"/><linearGradient id="q" gradientUnits="userSpaceOnUse" x1="452.434515974" x2="418.9307274602" xlink:href="#n" y1="224.9865405" y2="191.4828523784"/><linearGradient id="r" gradientUnits="userSpaceOnUse" x1="140.9392040892" x2="-3.9612754276" xlink:href="#n" y1="231.6534861098" y2="130.4473061522"/><linearGradient id="s" gradientUnits="userSpaceOnUse" x1="194.7937966416" x2="48.399581581" xlink:href="#n" y1="215.4182603102" y2="150.8105588236"/><linearGradient id="t" gradientUnits="userSpaceOnUse" x1="253.3717418118" x2="133.8662724226" xlink:href="#n" y1="214.2042174356" y2="160.0532671088"/><linearGradient id="u" gradientUnits="userSpaceOnUse" x1="328.9254056488" x2="220.6235049952" xlink:href="#n" y1="209.4415110754" y2="133.630140461"/><linearGradient id="v" gradientUnits="userSpaceOnUse" x1="54.5697865852" x2="126.7723587862" xlink:href="#j" y1="181.6021516622" y2="181.6021516622"/><linearGradient id="w" gradientUnits="userSpaceOnUse" x1="146.7155704928" x2="163.7609613464" xlink:href="#j" y1="181.6021516622" y2="181.6021516622"/><linearGradient id="x" gradientUnits="userSpaceOnUse" x1="179.0378432048" x2="251.2404154058" xlink:href="#j" y1="182.0043228154" y2="182.0043228154"/><linearGradient id="y" gradientUnits="userSpaceOnUse" x1="266.1973473228" x2="338.3999195238" xlink:href="#j" y1="182.0845361832" y2="182.0845361832"/><path d="m374.207031 18.292969-.015625 233.328125c0 9.8125-7.96875 17.769531-17.769531 17.765625l-317.367187-.019531c-9.8125-.003907-17.769532-7.957032-17.765626-17.773438v-48.320312c0-5.722657 4.640626-10.363282 10.367188-10.363282 5.722656 0 10.363281-4.636718 10.363281-10.363281l.007813-95.230469c0-5.722656-4.640625-10.363281-10.363282-10.363281-5.722656 0-10.363281-4.640625-10.363281-10.363281l.003907-48.324219c0-9.8125 7.957031-17.765625 17.769531-17.765625l317.367187.023438c9.800782 0 17.765625 7.957031 17.765625 17.769531zm0 0" fill="url(#b)"/><path d="m491.269531 87.347656-.007812 95.230469c0 5.726563 4.636719 10.363281 10.363281 10.367187 5.722656 0 10.363281 4.640626 10.359375 10.363282v48.320312c-.003906 9.816406-7.957031 17.769532-17.773437 17.769532l-102.265626-.007813c-9.800781 0-17.757812-7.957031-17.753906-17.769531l.015625-233.328125c0-9.8125 7.953125-17.769531 17.757813-17.765625l102.265625.003906c9.816406.003906 17.769531 7.957031 17.769531 17.773438l-.003906 48.320312c0 5.722656-4.640625 10.363281-10.363282 10.363281-5.722656-.003906-10.363281 4.636719-10.363281 10.359375zm0 0" fill="url(#c)"/><path d="m511.984375 251.628906.003906-48.320312c0-5.722656-4.640625-10.363282-10.363281-10.367188-5.722656 0-10.363281-4.636718-10.363281-10.363281l.007812-95.230469c0-5.722656 4.640625-10.363281 10.363281-10.363281 2.265626 0 4.355469-.734375 6.058594-1.964844l-21.75-21.753906c-3.242187-3.484375-7.859375-5.679687-12.996094-5.679687l-98.738281-.007813-.015625 204.039063c0 9.816406 7.953125 17.769531 17.757813 17.773437l102.265625.003906c9.8125.003907 17.769531-7.953125 17.769531-17.765625zm0 0" fill="url(#d)"/><path d="m352.917969 65.347656-.015625 233.328125c0 9.8125-7.964844 17.769531-17.769532 17.765625l-317.367187-.019531c-9.8125 0-17.765625-7.957031-17.765625-17.769531l.00390625-48.324219c0-5.722656 4.64062475-10.363281 10.36328175-10.359375 5.722656 0 10.363281-4.640625 10.363281-10.363281l.007812-95.230469c0-5.726562-4.636719-10.363281-10.363281-10.367188-5.722656 0-10.3632812-4.640624-10.359375-10.363281v-48.320312c.0039062-9.816407 7.957031-17.769531 17.773437-17.769531l317.363282.023437c9.804687 0 17.769531 7.957031 17.765625 17.769531zm0 0" fill="url(#f)"/><path d="m469.980469 134.40625-.003907 95.230469c0 5.722656 4.636719 10.363281 10.359376 10.363281 5.726562 0 10.363281 4.640625 10.363281 10.363281l-.003907 48.324219c0 9.8125-7.957031 17.765625-17.769531 17.765625l-102.265625-.007813c-9.804687 0-17.757812-7.953124-17.757812-17.769531l.015625-233.328125c.003906-9.8125 7.957031-17.765625 17.761719-17.765625l102.265624.007813c9.8125 0 17.769532 7.957031 17.765626 17.769531v48.320313c0 5.722656-4.640626 10.363281-10.367188 10.363281-5.722656 0-10.363281 4.636719-10.363281 10.363281zm0 0" fill="url(#g)"/><path d="m.00390625 253.707031-.00390625 44.945313c0 9.8125 7.953125 17.769531 17.765625 17.769531l317.367187.023437c9.804688 0 17.769532-7.953124 17.769532-17.769531 0 9.816407 7.953125 17.769531 17.757812 17.769531l102.265625.007813c9.8125 0 17.769531-7.953125 17.769531-17.765625l.003907-44.976562h-490.69531275zm0 0" fill="url(#h)"/><path d="m440.753906 283.578125h-386.359375c-6.433593 0-11.652343-5.214844-11.652343-11.652344v-179.84375c0-6.4375 5.21875-11.652343 11.652343-11.652343h386.359375c6.4375 0 11.65625 5.214843 11.65625 11.652343v179.84375c-.003906 6.4375-5.21875 11.652344-11.65625 11.652344zm0 0" fill="url(#i)"/><path d="m353.285156 100.546875c-2.21875 0-4.015625-1.796875-4.015625-4.015625v-6.023438c0-2.21875 1.796875-4.015624 4.015625-4.015624s4.015625 1.796874 4.015625 4.015624v6.023438c0 2.21875-1.796875 4.015625-4.015625 4.015625zm0 0" fill="url(#k)"/><path d="m353.285156 261.488281c-2.21875 0-4.015625-1.796875-4.015625-4.015625v-11.492187c0-2.21875 1.796875-4.015625 4.015625-4.015625s4.015625 1.796875 4.015625 4.015625v11.492187c0 2.21875-1.796875 4.015625-4.015625 4.015625zm0-22.988281c-2.21875 0-4.015625-1.800781-4.015625-4.015625v-11.496094c0-2.21875 1.796875-4.015625 4.015625-4.015625s4.015625 1.796875 4.015625 4.015625v11.496094c0 2.214844-1.796875 4.015625-4.015625 4.015625zm0-22.992188c-2.21875 0-4.015625-1.796874-4.015625-4.015624v-11.496094c0-2.21875 1.796875-4.015625 4.015625-4.015625s4.015625 1.796875 4.015625 4.015625v11.496094c0 2.21875-1.796875 4.015624-4.015625 4.015624zm0-22.992187c-2.21875 0-4.015625-1.800781-4.015625-4.015625v-11.496094c0-2.21875 1.796875-4.015625 4.015625-4.015625s4.015625 1.796875 4.015625 4.015625v11.496094c0 2.214844-1.796875 4.015625-4.015625 4.015625zm0-22.992187c-2.21875 0-4.015625-1.796876-4.015625-4.015626v-11.496093c0-2.21875 1.796875-4.015625 4.015625-4.015625s4.015625 1.796875 4.015625 4.015625v11.496093c0 2.21875-1.796875 4.015626-4.015625 4.015626zm0-22.992188c-2.21875 0-4.015625-1.796875-4.015625-4.015625v-11.496094c0-2.21875 1.796875-4.015625 4.015625-4.015625s4.015625 1.796875 4.015625 4.015625v11.496094c0 2.21875-1.796875 4.015625-4.015625 4.015625zm0-22.992188c-2.21875 0-4.015625-1.796874-4.015625-4.015624v-11.496094c0-2.21875 1.796875-4.015625 4.015625-4.015625s4.015625 1.796875 4.015625 4.015625v11.496094c0 2.21875-1.796875 4.015624-4.015625 4.015624zm0 0" fill="url(#l)"/><path d="m353.285156 279.011719c-2.21875 0-4.015625-1.800781-4.015625-4.015625v-6.023438c0-2.21875 1.796875-4.015625 4.015625-4.015625s4.015625 1.796875 4.015625 4.015625v6.023438c0 2.214844-1.796875 4.015625-4.015625 4.015625zm0 0" fill="url(#m)"/><path d="m467.445312 222.21875-74.96875-74.949219c-2.699218-2.160156-6.273437-3.242187-10.722656-3.242187-9.777344 0-14.667968 4.503906-14.667968 13.511718v16.257813c0 4.878906 1.445312 8.421875 4.3125 10.660156l54.308593 54.171875c15.167969-2.660156 29.296875-8.347656 41.738281-16.410156zm0 0" fill="url(#o)"/><path d="m468.996094 180.949219v40.246093c-17.992188 12.089844-39.65625 19.144532-62.964844 19.144532-3.3125 0-6.582031-.152344-9.824219-.433594l-13.015625-13.015625c-.816406-.847656-1.21875-1.777344-1.21875-2.804687 0-.582032.148438-1.136719.4375-1.648438l40.183594-80.714844c.582031-1.320312 1.679688-1.980468 3.285156-1.980468 1.183594 0 2.25.402343 3.210938 1.207031zm0 0" fill="url(#p)"/><path d="m468.996094 212.355469v8.828125c-10.273438 6.910156-21.746094 12.167968-34.039063 15.40625l-15.113281-15.109375c-2.863281-2.238281-4.308594-5.785157-4.308594-10.660157v-16.257812c0-9.011719 4.886719-13.515625 14.664063-13.515625 4.449219 0 8.027343 1.082031 10.726562 3.242187zm0 0" fill="url(#q)"/><g fill="#fffcf8"><path d="m367.085938 173.796875v-16.257813c0-9.007812 4.890624-13.511718 14.667968-13.511718 4.449219 0 8.023438 1.082031 10.722656 3.242187 2.699219 2.160157 4.050782 5.585938 4.050782 10.269531v16.257813c0 4.6875-1.351563 8.113281-4.050782 10.273437-2.699218 2.160157-6.273437 3.238282-10.722656 3.238282-9.777344 0-14.667968-4.503906-14.667968-13.511719zm7.800781-.183594c0 4.226563 2.289062 6.335938 6.867187 6.335938 4.648438 0 6.972656-2.109375 6.972656-6.335938v-15.890625c0-4.222656-2.324218-6.335937-6.972656-6.335937-4.578125 0-6.867187 2.113281-6.867187 6.335937zm0 0"/><path d="m381.972656 224.085938c0-.585938.148438-1.132813.4375-1.648438l40.1875-80.71875c.582032-1.316406 1.675782-1.976562 3.285156-1.976562 1.179688 0 2.25.402343 3.207032 1.207031.960937.808593 1.441406 1.796875 1.441406 2.96875 0 .585937-.109375 1.171875-.328125 1.757812l-40.1875 80.386719c-.65625 1.390625-1.898437 2.089844-3.722656 2.089844-1.257813 0-2.289063-.425782-3.101563-1.265625-.8125-.839844-1.21875-1.773438-1.21875-2.800781zm0 0"/><path d="m440.925781 184.316406c-2.699219-2.175781-6.277343-3.269531-10.726562-3.269531-9.777344 0-14.667969 4.539063-14.667969 13.617187v16.382813c0 9.074219 4.890625 13.613281 14.667969 13.613281 4.449219 0 8.027343-1.085937 10.726562-3.265625 2.699219-2.175781 4.046875-5.625 4.046875-10.347656v-16.382813c.003906-4.722656-1.347656-8.171874-4.046875-10.347656zm-3.75 26.578125c0 4.273438-2.328125 6.40625-6.976562 6.40625-4.578125 0-6.867188-2.132812-6.867188-6.40625v-16.078125c0-4.269531 2.289063-6.40625 6.867188-6.40625 4.652343 0 6.976562 2.136719 6.976562 6.40625zm0 0"/></g><path d="m118.160156 132.765625c-6.5625-6.976563-16.359375-9.9375-27.570312-9.9375h-28.460938c-4.503906 0-7.558594 2.570313-7.558594 5.464844v106.617187c0 1.445313.765626 2.8125 2.089844 3.820313l57.667969 57.664062c1.230469 1.636719 3.59375 2.800781 6.617187 2.800781h28.464844c20.421875 0 36.179688-9.808593 36.179688-35.859374v-45.828126c0-12.570312-3.675782-21.347656-9.765625-27.078124zm0 0" fill="url(#r)"/><path d="m162.957031 125.707031c-1.414062-2.003906-4.519531-2.878906-7.71875-2.878906-4.179687 0-8.523437 1.609375-8.523437 5.46875v106.453125c0 1.570312.789062 2.820312 2.011718 3.742188l57.667969 57.664062c1.464844 2.003906 4.605469 3.042969 7.664063 3.042969 4.339844 0 8.519531-1.929688 8.519531-5.628907v-106.457031c0-1.636719-.757813-2.863281-1.957031-3.742187zm0 0" fill="url(#s)"/><path d="m246.777344 129.859375c-4.71875-5.644531-19.058594-7.515625-27.699219-7.515625-17.207031 0-37.144531 7.078125-37.144531 30.875 0 9.914062 3.453125 16.542969 8.574218 21.410156l41.523438 41.523438c.195312.210937.398438.417968.601562.621094-2.996093 6.390624-10.035156 9.453124-18.699218 9.453124-17.851563 0-21.707032-12.703124-27.5-12.703124-4.019532 0-7.394532 5.304687-7.394532 9.164062 0 2.765625 1.730469 5.875 4.855469 8.761719l57.664063 57.667969c5.605468 5.984374 17.175781 11.363281 31.835937 11.363281 21.226563 0 36.664063-11.253907 36.664063-34.25 0-11.84375-4.007813-19.578125-9.804688-25.082031l-39.214844-39.214844c-.078124-.085938-.160156-.171875-.242187-.257813 3.433594-4.011719 9.5625-5.878906 17.101563-5.878906 13.667968 0 17.847656 6.109375 22.191406 6.109375 4.824218 0 7.074218-5.949219 7.074218-9.164062 0-2.058594-1.027343-3.78125-2.71875-5.21875zm0 0" fill="url(#t)"/><path d="m331.238281 133.617188c-6.34375-6.730469-16.570312-10.789063-29.34375-10.789063-19.457031 0-35.699219 9.808594-35.699219 35.859375v46.796875c0 12.59375 3.769532 21.382813 9.851563 27.113281l57.667969 57.664063c6.542968 6.945312 16.179687 9.898437 26.839844 9.898437 22.03125 0 36.664062-12.378906 36.664062-30.070312 0-3.9375-.847656-6.226563-2.625-7.488282l-51.878906-51.882812c1.945312-9.339844 8.277344-13.816406 18.222656-13.941406.175781.167968.367188.324218.570312.472656l19.582032 19.589844c1.3125 1.871094 3.976562 2.757812 7.605468 2.757812 5.789063 0 8.523438-1.609375 8.523438-8.84375 0-7.742187-2.992188-14.449218-8.316406-19.472656zm0 0" fill="url(#u)"/><path d="m90.589844 122.828125c20.421875 0 36.183594 9.808594 36.183594 35.859375v45.828125c0 26.050781-15.761719 35.863281-36.183594 35.863281h-28.460938c-4.503906 0-7.558594-2.574218-7.558594-5.46875v-106.617187c0-2.894531 3.054688-5.464844 7.558594-5.464844zm-18.976563 15.113281v87.320313h18.976563c12.058594 0 19.136718-6.59375 19.136718-20.746094v-45.828125c0-14.152344-7.078124-20.742188-19.136718-20.742188h-18.976563zm0 0" fill="url(#v)"/><path d="m146.714844 128.292969c0-3.859375 4.34375-5.464844 8.523437-5.464844 4.34375 0 8.523438 1.605469 8.523438 5.464844v106.457031c0 3.695312-4.179688 5.625-8.523438 5.625-4.179687 0-8.523437-1.929688-8.523437-5.625zm0 0" fill="url(#w)"/><path d="m234.195312 209.179688c0-28.460938-52.261718-17.367188-52.261718-55.960938 0-23.796875 19.9375-30.875 37.144531-30.875 10.453125 0 29.269531 2.734375 29.269531 11.578125 0 3.21875-2.253906 9.167969-7.078125 9.167969-4.339843 0-8.523437-6.113282-22.191406-6.113282-11.738281 0-20.101563 4.503907-20.101563 14.636719 0 23.796875 52.265626 13.023438 52.265626 55.800781 0 22.992188-15.4375 34.25-36.664063 34.25-20.90625 0-35.539063-10.933593-35.539063-18.976562 0-3.859375 3.375-9.164062 7.394532-9.164062 5.789062 0 9.648437 12.703124 27.5 12.703124 11.578125 0 20.261718-5.46875 20.261718-17.046874zm0 0" fill="url(#x)"/><path d="m302.539062 137.941406c-12.382812 0-19.296874 6.59375-19.296874 20.746094v46.792969c0 14.152343 6.914062 20.746093 19.617187 20.746093 16.402344 0 17.851563-11.097656 18.496094-18.171874.320312-4.183594 3.699219-5.628907 8.359375-5.628907 5.953125 0 8.683594 1.769531 8.683594 8.84375 0 17.691407-14.632813 30.070313-36.664063 30.070313-19.457031 0-35.539063-9.808594-35.539063-35.859375v-46.792969c0-26.050781 16.242188-35.859375 35.699219-35.859375 22.03125 0 36.503907 12.058594 36.503907 29.105469 0 7.234375-2.730469 8.84375-8.519532 8.84375-5.148437 0-8.363281-1.769532-8.523437-5.628906-.324219-5.628907-2.253907-17.207032-18.816407-17.207032zm0 0" fill="url(#y)"/></svg>