<svg height="511pt" viewBox="-10 0 511 511.99996" width="511pt" xmlns="http://www.w3.org/2000/svg" xmlns:xlink="http://www.w3.org/1999/xlink"><radialGradient id="a" cx="228.772" cy="485.5539" gradientTransform="matrix(1.003922 0 0 .36101 -10.312255 312.150798)" gradientUnits="userSpaceOnUse" r="92.6082"><stop offset="0" stop-color="#fffcf8"/><stop offset=".2378" stop-color="#fcf9f7"/><stop offset=".4365" stop-color="#f1f2f3"/><stop offset=".621" stop-color="#e0e5ed"/><stop offset=".797" stop-color="#c8d2e5"/><stop offset=".9655" stop-color="#a8bbdb"/><stop offset="1" stop-color="#a1b5d8"/></radialGradient><radialGradient id="b" cx="143.7098598088" cy="162.0597745174" gradientUnits="userSpaceOnUse" r="394.9788552076"><stop offset="0" stop-color="#fffcf8"/><stop offset=".4554" stop-color="#fdfbf7"/><stop offset=".6194" stop-color="#f6f5f5"/><stop offset=".7363" stop-color="#ebedf1"/><stop offset=".8309" stop-color="#dae0eb"/><stop offset=".9118" stop-color="#c4cfe4"/><stop offset=".9822" stop-color="#a9bbdb"/><stop offset="1" stop-color="#a1b5d8"/></radialGradient><linearGradient id="c"><stop offset="0" stop-color="#fffcf8"/><stop offset=".1875" stop-color="#faf8f6"/><stop offset=".4041" stop-color="#eceef2"/><stop offset=".6353" stop-color="#d5dcea"/><stop offset=".875" stop-color="#b5c4df"/><stop offset="1" stop-color="#a1b5d8"/></linearGradient><linearGradient id="d" gradientUnits="userSpaceOnUse" x1="211.0918997424" x2="241.1198091156" xlink:href="#c" y1="223.4523154068" y2="409.7792346848"/><linearGradient id="e" gradientUnits="userSpaceOnUse" x1="219.9344447184" x2="219.9344447184" xlink:href="#c" y1="358.3959969198" y2="141.6263476982"/><linearGradient id="f"><stop offset="0" stop-color="#ff6e3a"/><stop offset=".1596" stop-color="#ff6440"/><stop offset=".4266" stop-color="#ff4b52"/><stop offset=".7662" stop-color="#ff216e"/><stop offset="1" stop-color="#ff0084"/></linearGradient><linearGradient id="g" gradientUnits="userSpaceOnUse" x1="161.6110941674" x2="362.5951742532" xlink:href="#f" y1="357.8127182378" y2="357.8127182378"/><linearGradient id="h" gradientUnits="userSpaceOnUse" x1="161.6110941674" x2="362.5951742532" xlink:href="#f" y1="329.3324550198" y2="329.3324550198"/><linearGradient id="i"><stop offset="0" stop-color="#c6e56f"/><stop offset=".3371" stop-color="#c4e56f"/><stop offset=".4953" stop-color="#bce36e"/><stop offset=".6162" stop-color="#afe16d"/><stop offset=".7182" stop-color="#9ddd6b"/><stop offset=".8083" stop-color="#85d968"/><stop offset=".8899" stop-color="#68d365"/><stop offset=".9635" stop-color="#46cd61"/><stop offset="1" stop-color="#32c95f"/></linearGradient><linearGradient id="j" gradientUnits="userSpaceOnUse" x1="112.6677884312" x2="125.0772682732" xlink:href="#i" y1="238.4775140198" y2="287.5758253128"/><linearGradient id="k"><stop offset="0" stop-color="#ffd459"/><stop offset=".2296" stop-color="#ffd355"/><stop offset=".4362" stop-color="#ffcf4a"/><stop offset=".634" stop-color="#ffc838"/><stop offset=".825" stop-color="#ffbf1f"/><stop offset="1" stop-color="#ffb400"/></linearGradient><linearGradient id="l" gradientUnits="userSpaceOnUse" x1="153.640756625" x2="265.364224239" xlink:href="#k" y1="215.6390916574" y2="369.5601115208"/><linearGradient id="m"><stop offset="0" stop-color="#e58200" stop-opacity="0"/><stop offset=".0396" stop-color="#e27f04" stop-opacity=".039216"/><stop offset=".4671" stop-color="#c15d2f" stop-opacity=".466667"/><stop offset=".8016" stop-color="#ad4949" stop-opacity=".8"/><stop offset="1" stop-color="#a64153"/></linearGradient><linearGradient id="n" gradientUnits="userSpaceOnUse" x1="193.1015171102" x2="226.3054341226" xlink:href="#m" y1="228.6056478172" y2="359.9776760308"/><linearGradient id="o" gradientUnits="userSpaceOnUse" x1="190.439015574" x2="227.3021278842" xlink:href="#m" y1="256.8562136816" y2="340.9829698298"/><linearGradient id="p" gradientUnits="userSpaceOnUse" x1="265.6946149692" x2="278.1040948112" xlink:href="#i" y1="235.3014059884" y2="284.3998176736"/><linearGradient id="q" gradientTransform="matrix(.97792 .226987 -.226987 .97792 13.963874 -91.095683)" gradientUnits="userSpaceOnUse" x1="337.0315" x2="349.1107" xlink:href="#f" y1="109.3848" y2="120.3137"/><linearGradient id="r" gradientTransform="matrix(.964267 .279492 -.279492 .964267 21.683729 -108.217164)" gradientUnits="userSpaceOnUse" x1="364.2236" x2="376.3029" xlink:href="#f" y1="120.9103" y2="131.8392"/><linearGradient id="s" gradientUnits="userSpaceOnUse" x1="184.0454379248" x2="201.6579443162" xlink:href="#k" y1="174.5093108472" y2="254.4873593304"/><linearGradient id="t" gradientUnits="userSpaceOnUse" x1="253.2588323708" x2="338.4921113474" xlink:href="#k" y1="236.7490615124" y2="354.1748060864"/><linearGradient id="u" gradientUnits="userSpaceOnUse" x1="289.8372324018" x2="316.6890337436" xlink:href="#m" y1="247.871814527" y2="394.5464250022"/><linearGradient id="v" gradientUnits="userSpaceOnUse" x1="291.517898222" x2="330.2076466112" xlink:href="#m" y1="289.5339751738" y2="356.519265133"/><linearGradient id="w" gradientUnits="userSpaceOnUse" x1="87.7334781094" x2="178.6847956214" xlink:href="#k" y1="237.5967732492" y2="362.900193365"/><linearGradient id="x" gradientUnits="userSpaceOnUse" x1="130.1999810626" x2="135.9745404066" xlink:href="#m" y1="261.668714573" y2="384.9562593128"/><linearGradient id="y" gradientUnits="userSpaceOnUse" x1="124.113904722" x2="155.8741818984" xlink:href="#m" y1="293.0114605896" y2="346.4264356982"/><linearGradient id="z" gradientUnits="userSpaceOnUse" x1="218.824910124" x2="223.8572699334" xlink:href="#i" y1="297.8130187312" y2="317.7236029728"/><linearGradient id="A" gradientUnits="userSpaceOnUse" x1="397.8796192184" x2="404.884284189" xlink:href="#i" y1="270.9455562062" y2="298.6596261538"/><radialGradient id="B" cx="194.7668229238" cy="191.0793446338" gradientUnits="userSpaceOnUse" r="13.9172702938"><stop offset="0" stop-color="#a64153"/><stop offset="1" stop-color="#ffc738" stop-opacity="0"/></radialGradient><path d="m279.988281 493.234375c0-10.367187-26.886719-18.769531-60.054687-18.769531-33.167969 0-60.054688 8.402344-60.054688 18.769531 0 10.363281 26.886719 18.765625 60.054688 18.765625 33.167968 0 60.054687-8.402344 60.054687-18.765625zm0 0" fill="url(#a)"/><path d="m439.371094 281.421875c0 121.183594-98.25 219.433594-219.4375 219.433594-121.183594 0-219.433594-98.25-219.433594-219.433594 0-.753906.011719-1.492187.058594-2.230469.035156-.914062.105468-1.824218.195312-2.726562 5.542969-20.292969 101.566406-36.4375 219.179688-36.4375 117.617187 0 213.636718 16.148437 219.183594 36.4375.089843.902344.160156 1.8125.195312 2.726562.042969.738282.058594 1.480469.058594 2.230469zm0 0" fill="url(#b)"/><path d="m439.367188 278.320312c0-21.148437-98.242188-38.292968-219.433594-38.292968s-219.433594 17.144531-219.433594 38.292968c0 21.152344 98.242188 38.296876 219.433594 38.296876s219.433594-17.144532 219.433594-38.296876zm0 0" fill="url(#d)"/><path d="m425.761719 278.320312c0-17.007812-92.152344-30.800781-205.828125-30.800781-113.675782 0-205.828125 13.792969-205.828125 30.800781 0 17.011719 92.152343 30.800782 205.828125 30.800782 113.675781 0 205.828125-13.789063 205.828125-30.800782zm0 0" fill="url(#e)"/><path d="m432.945312 334.328125c-1.824218 7.390625-4.027343 14.621094-6.582031 21.6875-30.523437 14.738281-111.425781 25.28125-206.429687 25.28125s-175.90625-10.542969-206.429688-25.28125c-2.550781-7.066406-4.757812-14.296875-6.582031-21.6875 23.652344 16.6875 110.0625 29.066406 213.011719 29.066406 102.949218 0 189.359375-12.378906 213.011718-29.066406zm0 0" fill="url(#g)"/><path d="m437.996094 306.042969c-.890625 8.039062-2.21875 15.949219-3.972656 23.710937-44.210938 13.722656-123.554688 22.867188-214.089844 22.867188-90.53125 0-169.875-9.144532-214.085938-22.867188-1.753906-7.761718-3.082031-15.671875-3.972656-23.710937 43.308594 14.425781 124.753906 24.148437 218.058594 24.148437 93.308594 0 174.75-9.722656 218.0625-24.148437zm0 0" fill="url(#h)"/><path d="m137.261719 257.339844c0 10.949218-8.875 19.828125-19.824219 19.828125-10.953125 0-19.828125-8.878907-19.828125-19.828125 0-10.949219 8.875-19.824219 19.828125-19.824219 10.949219 0 19.824219 8.875 19.824219 19.824219zm0 0" fill="url(#j)"/><path d="m330.75 304.289062c-4.054688.390626-8.199219.761719-12.441406 1.097657-4.710938.390625-9.550782.75-14.480469 1.082031-5.335937.347656-10.789063.671875-16.34375.960938-14.6875.761718-30.128906 1.28125-46.125 1.523437-2.804687.058594-5.636719.09375-8.488281.117187-3.582032.035157-7.195313.046876-10.832032.058594h-3.535156c-4.25 0-8.476562-.023437-12.65625-.070312-1.664062-.023438-3.328125-.035156-4.992187-.070313-2.863281-.035156-5.714844-.082031-8.53125-.136719-4.691407-.09375-9.324219-.207031-13.90625-.347656-14.367188-.4375-28.191407-1.109375-41.300781-1.964844-5.578126-.367187-11.019532-.773437-16.320313-1.210937-4.941406-.40625-9.757813-.84375-14.433594-1.304687-4.261719-.429688-8.410156-.867188-12.429687-1.339844.660156-2.449219 1.398437-4.863282 2.21875-7.242188 2.207031-6.464844 4.976562-12.691406 8.269531-18.617187 3.027344-5.484375 6.503906-10.71875 10.382813-15.636719 2.757812-3.523438 5.71875-6.894531 8.871093-10.097656.796875-.804688 1.617188-1.617188 2.445313-2.410156 22.0625-21.171876 52.46875-34.269532 86.019531-34.269532 28.332031 0 54.417969 9.332032 75.136719 25.003906 4.285156 3.222657 8.339844 6.722657 12.128906 10.488282.136719.128906.265625.253906.402344.40625 4.367187 4.339844 8.398437 9.019531 12.035156 13.984375 3.9375 5.371093 7.425781 11.0625 10.40625 17.046875 3.613281 7.265625 6.476562 14.945312 8.5 22.949218zm0 0" fill="url(#l)"/><path d="m318.308594 305.386719c-4.710938.390625-9.550782.75-14.480469 1.082031-5.335937.347656-10.789063.671875-16.34375.960938-14.6875.761718-30.128906 1.28125-46.125 1.523437-2.804687.058594-5.636719.09375-8.488281.117187-3.582032.035157-7.195313.046876-10.832032.058594h-3.535156c-4.25 0-8.476562-.023437-12.65625-.070312-1.664062-.023438-3.328125-.035156-4.992187-.070313-2.863281-.035156-5.714844-.082031-8.53125-.136719-4.691407-.09375-9.324219-.207031-13.90625-.347656-14.367188-.4375-28.191407-1.109375-41.300781-1.964844-5.578126-.367187-11.019532-.773437-16.320313-1.210937-4.941406-.40625-9.757813-.84375-14.433594-1.304687 1.257813-4.414063 2.804688-8.699219 4.628907-12.855469 2.542968-5.808594 5.601562-11.351563 9.136718-16.585938 3.3125-4.917969 7.042969-9.550781 11.132813-13.859375 3.71875-3.914062 7.75-7.5625 12.035156-10.902344.03125-.035156.082031-.066406.125-.101562 18.816406-14.621094 42.710937-23.367188 68.71875-23.367188 21.5625 0 41.667969 6.019532 58.636719 16.402344 3.09375 1.882813 6.074218 3.925782 8.949218 6.085938 1.375 1.050781 2.726563 2.113281 4.042969 3.210937 4.503907 3.753907 8.683594 7.851563 12.496094 12.253907 4.085937 4.699218 7.761719 9.746093 10.957031 15.09375 4.816406 8.050781 8.582032 16.769531 11.085938 25.988281zm0 0" fill="url(#n)"/><path d="m287.484375 307.429688c-14.6875.761718-30.128906 1.28125-46.125 1.523437-2.804687.058594-5.636719.09375-8.488281.117187-3.582032.035157-7.195313.046876-10.832032.058594h-3.535156c-4.25 0-8.476562-.023437-12.65625-.070312-1.664062-.023438-3.328125-.035156-4.992187-.070313-2.863281-.035156-5.714844-.082031-8.53125-.136719-4.691407-.09375-9.324219-.207031-13.90625-.347656-14.367188-.4375-28.191407-1.109375-41.300781-1.964844 1.929687-5.207031 4.410156-10.148437 7.402343-14.769531 3.050781-4.738281 6.617188-9.113281 10.625-13.085937 3.847657-3.800782 8.097657-7.230469 12.691407-10.199219 4.277343-2.769531 8.847656-5.148437 13.652343-7.089844 9.4375-3.808593 19.785157-5.914062 30.652344-5.914062 8.074219 0 15.855469 1.15625 23.191406 3.328125 4.882813 1.417968 9.5625 3.300781 13.996094 5.578125 4.816406 2.449219 9.332031 5.367187 13.492187 8.683593 4.363282 3.488282 8.347657 7.414063 11.871094 11.710938 5.496094 6.734375 9.847656 14.367188 12.792969 22.648438zm0 0" fill="url(#o)"/><path d="m290.289062 254.164062c0 10.949219-8.875 19.828126-19.828124 19.828126-10.949219 0-19.824219-8.878907-19.824219-19.828126 0-10.949218 8.875-19.824218 19.824219-19.824218 10.953124 0 19.828124 8.875 19.828124 19.824218zm0 0" fill="url(#p)"/><path d="m464.734375 4.832031c3.027344 4.851563 1.496094 11.242188-3.394531 14.199219l-277.253906 167.621094c-2.742188 1.65625-6.304688.804687-7.996094-1.914063-1.695313-2.714843-.890625-6.289062 1.804687-8.019531l272.597657-175.089844c4.808593-3.089844 11.21875-1.6484372 14.242187 3.203125zm0 0" fill="url(#q)"/><path d="m489.601562 30.671875c2.757813 5.011719.886719 11.308594-4.160156 13.996094l-285.914062 152.375c-2.828125 1.507812-6.339844.464843-7.882813-2.339844s-.546875-6.332031 2.234375-7.914063l281.675782-160.085937c4.96875-2.824219 11.289062-1.039063 14.046874 3.96875zm0 0" fill="url(#r)"/><path d="m216.46875 287.078125h-13.859375v-95.277344c0-3.183593-2.589844-5.777343-5.773437-5.777343-3.183594 0-5.773438 2.59375-5.773438 5.777343v83.730469h-13.859375v-83.730469c0-10.828125 8.804687-19.636719 19.632813-19.636719 10.828124 0 19.632812 8.808594 19.632812 19.636719zm0 0" fill="url(#s)"/><path d="m406.175781 291.457031c-3.707031 1.175781-7.898437 2.308594-12.542969 3.40625-4.6875 1.097657-9.835937 2.148438-15.417968 3.152344-5.796875 1.039063-12.054688 2.035156-18.71875 2.945313-8.894532 1.238281-18.515625 2.347656-28.746094 3.328124-4.054688.390626-8.199219.761719-12.441406 1.097657-4.710938.390625-9.550782.75-14.480469 1.085937-5.335937.34375-10.789063.667969-16.34375.957032-14.6875.761718-30.128906 1.28125-46.125 1.523437-2.804687.058594-5.636719.09375-8.488281.117187-3.582032.035157-7.195313.046876-10.832032.058594h-3.535156c-4.25 0-8.476562-.023437-12.65625-.070312-1.664062-.023438-3.328125-.035156-4.992187-.070313-2.863281-.03125-5.714844-.078125-8.53125-.136719.910156-2.03125 1.902343-4.042968 2.945312-6.019531 2.226563-4.238281 4.722657-8.324219 7.460938-12.253906 2.308593-3.335937 4.792969-6.546875 7.449219-9.628906 7.261718-8.464844 15.738281-15.925781 25.152343-22.140625 5.625-3.71875 11.574219-6.988282 17.820313-9.757813.808594-.371093 1.628906-.714843 2.449218-1.0625 4.898438-2.058593 9.96875-3.8125 15.175782-5.230469 5.359375-1.480468 10.867187-2.601562 16.503906-3.339843 5.507812-.75 11.144531-1.132813 16.871094-1.132813 24.554687 0 47.421875 7.011719 66.570312 19.070313 14.097656 8.878906 26.191406 20.507812 35.453125 34.101562zm0 0" fill="url(#t)"/><path d="m393.632812 294.863281c-4.6875 1.097657-9.839843 2.148438-15.417968 3.152344-5.796875 1.039063-12.054688 2.035156-18.71875 2.945313-8.894532 1.238281-18.515625 2.347656-28.75 3.328124-4.050782.390626-8.199219.761719-12.4375 1.097657-4.710938.390625-9.550782.75-14.480469 1.085937-5.335937.34375-10.789063.667969-16.34375.957032-14.691406.761718-30.132813 1.28125-46.125 1.523437-2.808594.058594-5.636719.09375-8.488281.117187-3.582032.035157-7.195313.046876-10.835938.058594h-3.53125c-4.25 0-8.476562-.023437-12.660156-.070312 1.664062-3.234375 3.5-6.375 5.488281-9.414063 2.273438-3.476562 4.757813-6.8125 7.4375-10 8.464844-10.128906 18.824219-18.722656 30.558594-25.257812 5.472656-3.0625 11.25-5.683594 17.265625-7.796875 5.53125-1.949219 11.261719-3.476563 17.175781-4.539063 5.21875-.957031 10.578125-1.546875 16.039063-1.742187 1.445312-.070313 2.890625-.09375 4.34375-.09375h.175781c5.785156.011718 11.46875.453125 17.011719 1.304687 29.757812 4.515625 55.546875 20.601563 72.292968 43.34375zm0 0" fill="url(#u)"/><path d="m359.496094 300.960938c-8.894532 1.238281-18.515625 2.34375-28.75 3.328124-4.050782.390626-8.199219.761719-12.4375 1.097657-4.710938.390625-9.550782.75-14.480469 1.082031-5.335937.347656-10.789063.671875-16.34375.960938-14.691406.761718-30.132813 1.28125-46.125 1.523437 8.636719-10.671875 20.117187-19.089844 33.328125-24.171875 5.199219-1.996094 10.671875-3.488281 16.34375-4.398438 4.273438-.683593 8.652344-1.039062 13.121094-1.039062 1.027344 0 2.054687.019531 3.070312.054688 5.152344.1875 10.175782.855468 15.027344 1.941406 14.273438 3.210937 27.070312 10.117187 37.246094 19.621094zm0 0" fill="url(#v)"/><path d="m232.871094 309.070312c-3.582032.035157-7.195313.046876-10.835938.058594h-3.53125c-4.25 0-8.476562-.023437-12.660156-.070312-1.664062-.023438-3.324219-.035156-4.988281-.070313-2.863281-.035156-5.714844-.082031-8.535157-.136719-4.6875-.09375-9.320312-.207031-13.90625-.347656-14.363281-.4375-28.1875-1.109375-41.296874-1.964844-5.578126-.367187-11.019532-.773437-16.320313-1.210937-4.941406-.40625-9.757813-.84375-14.4375-1.304687-4.261719-.429688-8.40625-.867188-12.425781-1.339844-3.382813-.394532-6.675782-.796875-9.886719-1.222656-7.78125-1.015626-15.046875-2.136719-21.710937-3.316407-6.0625-1.085937-11.628907-2.230469-16.664063-3.417969-4.898437-1.167968-9.285156-2.378906-13.132813-3.636718 14.355469-16.609375 33.34375-29.347656 55.042969-36.347656 12.117188-3.914063 25.074219-6.039063 38.539063-6.0625h.175781c5.601563 0 11.121094.367187 16.523437 1.074218.164063.023438.324219.035156.476563.070313 6.421875.851562 12.679687 2.203125 18.742187 4.007812 6.757813 1.972657 13.257813 4.527344 19.449219 7.5625 10.535157 5.175781 20.1875 11.769531 28.6875 19.554688 3.015625 2.746093 5.890625 5.644531 8.59375 8.695312 3.222657 3.59375 6.203125 7.355469 8.9375 11.308594 1.835938 2.628906 3.558594 5.332031 5.164063 8.117187zm0 0" fill="url(#w)"/><path d="m218.503906 309.125c-4.25 0-8.476562-.023438-12.660156-.066406-1.664062-.023438-3.324219-.035156-4.988281-.070313-2.863281-.035156-5.714844-.082031-8.535157-.140625-4.6875-.089844-9.320312-.207031-13.90625-.34375-14.363281-.441406-28.1875-1.109375-41.296874-1.964844-5.578126-.367187-11.019532-.773437-16.320313-1.210937-4.941406-.40625-9.757813-.84375-14.4375-1.304687-4.261719-.429688-8.40625-.867188-12.425781-1.339844-3.382813-.394532-6.675782-.796875-9.886719-1.226563-7.78125-1.015625-15.046875-2.136719-21.710937-3.3125-6.0625-1.085937-11.628907-2.230469-16.664063-3.417969 17.597656-18.433593 41.886719-30.800781 69.132813-33.539062 3.777343-.382812 7.609374-.578125 11.492187-.578125 1.660156 0 3.324219.035156 4.964844.113281 6.144531.253906 12.160156 1.007813 18.003906 2.21875 6.421875 1.316406 12.625 3.175782 18.574219 5.542969 13.082031 5.164063 24.910156 12.71875 34.890625 22.09375 3.046875 2.84375 5.921875 5.878906 8.601562 9.066406 2.574219 3.027344 4.964844 6.191407 7.171875 9.480469zm0 0" fill="url(#x)"/><path d="m178.414062 308.503906c-14.367187-.441406-28.191406-1.109375-41.300781-1.964844-5.578125-.367187-11.015625-.773437-16.316406-1.210937-4.945313-.40625-9.761719-.84375-14.4375-1.304687-4.261719-.429688-8.40625-.867188-12.425781-1.339844-3.386719-.394532-6.675782-.796875-9.886719-1.226563 3.824219-2.332031 7.878906-4.339843 12.105469-6.015625 4.734375-1.871094 9.6875-3.316406 14.839844-4.273437 4.941406-.949219 10.070312-1.433594 15.300781-1.433594.382812 0 .753906 0 1.132812.011719 5.878907.082031 11.59375.777344 17.09375 2.023437 12.75 2.886719 24.320313 8.730469 33.894531 16.734375zm0 0" fill="url(#y)"/><path d="m239.625 308.988281c-6.476562.09375-13.050781.136719-19.691406.136719-5.472656 0-10.890625-.03125-16.246094-.089844 3.152344-6.78125 10.023438-11.46875 17.980469-11.46875 7.945312 0 14.792969 4.675782 17.957031 11.421875zm0 0" fill="url(#z)"/><path d="m421.734375 284.421875c-6.191406 4.621094-19.289063 8.859375-37.617187 12.484375-.808594-2.15625-1.246094-4.492188-1.246094-6.941406 0-10.945313 8.882812-19.828125 19.828125-19.828125 9.019531 0 16.644531 6.027343 19.035156 14.285156zm0 0" fill="url(#A)"/><path d="m196.980469 174.332031c-10.363281 0-18.765625 8.402344-18.765625 18.765625 0 8.296875 5.386718 15.320313 12.847656 17.800782v-19.097657c0-3.183593 2.589844-5.777343 5.773438-5.777343 3.183593 0 5.773437 2.59375 5.773437 5.777343v19.203125c7.613281-2.390625 13.136719-9.503906 13.136719-17.90625 0-10.363281-8.402344-18.765625-18.765625-18.765625zm0 0" fill="url(#B)"/></svg>