<svg height="512pt" viewBox="0 -87 512.00006 512" width="512pt" xmlns="http://www.w3.org/2000/svg" xmlns:xlink="http://www.w3.org/1999/xlink"><linearGradient id="a"><stop offset="0" stop-color="#ffd459"/><stop offset=".2296" stop-color="#ffd355"/><stop offset=".4362" stop-color="#ffcf4a"/><stop offset=".634" stop-color="#ffc838"/><stop offset=".825" stop-color="#ffbf1f"/><stop offset="1" stop-color="#ffb400"/></linearGradient><radialGradient id="b" cx="135.5236472524" cy="97.1103463338" gradientUnits="userSpaceOnUse" r="160.8936597222" xlink:href="#a"/><linearGradient id="c" gradientUnits="userSpaceOnUse" x1="91.8294480854" x2="-1.4487598382" y1="297.3855570954" y2="354.1635705118"><stop offset="0" stop-color="#e58200" stop-opacity="0"/><stop offset=".0396" stop-color="#e27f04" stop-opacity=".039216"/><stop offset=".4671" stop-color="#c15d2f" stop-opacity=".466667"/><stop offset=".8016" stop-color="#ad4949" stop-opacity=".8"/><stop offset="1" stop-color="#a64153"/></linearGradient><linearGradient id="d" gradientUnits="userSpaceOnUse" x1="176.5911848986" x2="292.0714290288" y1="79.792290265" y2="263.9501356698"><stop offset="0" stop-color="#c6e56f"/><stop offset=".3371" stop-color="#c4e56f"/><stop offset=".4953" stop-color="#bce36e"/><stop offset=".6162" stop-color="#afe16d"/><stop offset=".7182" stop-color="#9ddd6b"/><stop offset=".8083" stop-color="#85d968"/><stop offset=".8899" stop-color="#68d365"/><stop offset=".9635" stop-color="#46cd61"/><stop offset="1" stop-color="#32c95f"/></linearGradient><linearGradient id="e"><stop offset="0" stop-color="#ff6e3a"/><stop offset=".1596" stop-color="#ff6440"/><stop offset=".4266" stop-color="#ff4b52"/><stop offset=".7662" stop-color="#ff216e"/><stop offset="1" stop-color="#ff0084"/></linearGradient><linearGradient id="f" gradientUnits="userSpaceOnUse" x1="128.2734229606" x2="249.097644289" xlink:href="#e" y1="22.134038039" y2="142.9581589752"/><linearGradient id="g" gradientUnits="userSpaceOnUse" x1="315.8752227864" x2="436.6994441148" xlink:href="#e" y1="86.7371214844" y2="207.5613428128"/><linearGradient id="h" gradientUnits="userSpaceOnUse" x1="37.3927815574" x2="158.2169024936" xlink:href="#e" y1="104.987218738" y2="225.8114400664"/><radialGradient id="i" cx="195.2403411472" cy="127.857063859" gradientUnits="userSpaceOnUse" r="211.3319057086" xlink:href="#a"/><radialGradient id="j" cx="195.236225067" cy="127.8589713108" gradientUnits="userSpaceOnUse" r="211.331604532" xlink:href="#a"/><radialGradient id="k" cx="279.5644683606" cy="288.1564017572" gradientUnits="userSpaceOnUse" r="307.1847719934"><stop offset="0" stop-color="#ffd459" stop-opacity="0"/><stop offset=".4062" stop-color="#ffd45b" stop-opacity=".407843"/><stop offset=".5525" stop-color="#ffd662" stop-opacity=".552941"/><stop offset=".6568" stop-color="#ffd96d" stop-opacity=".654902"/><stop offset=".7412" stop-color="#ffde7e" stop-opacity=".741176"/><stop offset=".8134" stop-color="#ffe394" stop-opacity=".811765"/><stop offset=".8774" stop-color="#ffeab0" stop-opacity=".878431"/><stop offset=".9353" stop-color="#fff3d0" stop-opacity=".937255"/><stop offset=".9867" stop-color="#fffcf4" stop-opacity=".988235"/><stop offset="1" stop-color="#fff"/></radialGradient><path d="m470.792969 266.066406c0 16.792969-7.382813 29.636719-20.28125 39.449219-38.628907 29.394531-126.796875 31.6875-214.671875 31.886719-88.550782.199218-176.8125-1.964844-215.5-31.527344-12.949219-9.890625-20.339844-22.84375-20.339844-39.808594 0-134.753906 105.394531-243.984375 235.394531-243.984375 130.011719 0 235.398438 109.230469 235.398438 243.984375zm0 0" fill="url(#b)"/><path d="m470.792969 266.066406c0 16.792969-7.382813 29.636719-20.28125 39.449219-38.628907 29.394531-126.796875 31.6875-214.671875 31.886719-88.550782.199218-176.8125-1.964844-215.5-31.527344-12.949219-9.890625-20.339844-22.84375-20.339844-39.808594 0-134.753906 105.394531-243.984375 235.394531-243.984375 130.011719 0 235.398438 109.230469 235.398438 243.984375zm0 0" fill="url(#c)"/><path d="m502.375 240.03125-.082031.136719c-4.386719 7.035156-7.257813 14.691406-8.613281 22.503906-.046876.246094-.082032.496094-.128907.742187-1.078125.886719-2.191406 1.738282-3.347656 2.574219-42.175781 30.472657-136.570313 32.832031-230.597656 33.039063-94.757813.207031-189.242188-2.027344-231.484375-32.671875-1.011719-.730469-1.996094-1.480469-2.941406-2.25-.125-1.582031-.316407-3.152344-.574219-4.722657-1.257813-7.816406-4.035157-15.5-8.316407-22.570312l-.0625-.121094c-19.367187-32-7.011718-73.390625 26.59375-88.085937l.085938-.042969c7.4375-3.246094 13.980469-7.917969 19.386719-13.652344 4.046875-4.289062 7.464843-9.148437 10.132812-14.457031 3.605469-7.152344 5.863281-15.085937 6.53125-23.464844 2.582031-33.136719 29.515625-57.316406 60.632813-57.316406 4.640625 0 9.371094.53125 14.117187 1.664063v.007812c8.015625 1.894531 16.140625 2.121094 23.9375.8125 6.023438-.996094 11.863281-2.910156 17.320313-5.679688 7.117187-3.589843 13.601562-8.617187 19.046875-14.929687 12.355469-14.375 29.425781-21.546875 46.496093-21.546875 17.378907 0 34.71875 7.425781 47.078126 22.203125 5.339843 6.386719 11.742187 11.496094 18.796874 15.179687h.007813c5.4375 2.851563 11.246094 4.847657 17.246094 5.929688 3.546875.644531 7.144531.976562 10.765625.976562 4.359375 0 8.773437-.46875 13.152344-1.445312l.113281-.03125c36.707031-8.136719 71.425781 18.566406 73.921875 56.640625l.015625.144531c.535156 8.394532 2.707031 16.375 6.242187 23.582032 2.566406 5.261718 5.863282 10.121093 9.808594 14.40625 5.324219 5.824218 11.820312 10.613281 19.21875 13.980468l.140625.0625c33.355469 15.167969 45.128906 56.703125 25.359375 88.402344zm0 0" fill="url(#d)"/><path d="m289.9375 98.59375c0 47.054688-38.148438 85.203125-85.203125 85.203125-47.058594 0-85.203125-38.148437-85.203125-85.203125 0-47.058594 38.144531-85.203125 85.203125-85.203125 47.054687 0 85.203125 38.144531 85.203125 85.203125zm0 0" fill="url(#f)"/><path d="m477.539062 163.195312c0 47.054688-38.148437 85.203126-85.203124 85.203126-47.058594 0-85.203126-38.148438-85.203126-85.203126 0-47.054687 38.144532-85.203124 85.203126-85.203124 47.054687 0 85.203124 38.148437 85.203124 85.203124zm0 0" fill="url(#g)"/><path d="m199.054688 181.445312c0 47.058594-38.148438 85.203126-85.203126 85.203126-47.054687 0-85.203124-38.144532-85.203124-85.203126 0-47.054687 38.148437-85.203124 85.203124-85.203124 47.054688 0 85.203126 38.148437 85.203126 85.203124zm0 0" fill="url(#h)"/><path d="m494.507812 268.574219c0 64.734375-117.738281 68.5625-234.949218 68.828125-118.179688.269531-235.839844-3.558594-235.839844-68.828125 0-130.003907 105.390625-235.394531 235.394531-235.394531 130.007813 0 235.394531 105.390624 235.394531 235.394531zm0 0" fill="url(#i)"/><path d="m494.503906 268.582031c0 16.199219-7.378906 28.589844-20.277344 38.058594-38.628906 28.359375-126.796874 30.570313-214.671874 30.761719-88.550782.195312-176.8125-1.894532-215.5-30.417969-12.949219-9.539063-20.339844-22.039063-20.339844-38.402344 0-130.015625 105.394531-235.398437 235.394531-235.398437 130.011719 0 235.394531 105.382812 235.394531 235.398437zm0 0" fill="url(#j)"/><g fill="#ffb211"><path d="m76.976562 194.519531c-2.402343-2.402343-6.296874-2.402343-8.699218 0-2.402344 2.402344-2.402344 6.296875 0 8.699219s6.296875 2.402344 8.699218 0c2.402344-2.402344 2.402344-6.296875 0-8.699219zm0 0"/><path d="m130.464844 155.597656c-3.804688-3.804687-9.972656-3.804687-13.777344 0-3.804688 3.804688-3.804688 9.972656 0 13.777344s9.972656 3.804688 13.777344 0c3.804687-3.804688 3.804687-9.972656 0-13.777344zm0 0"/><path d="m97.300781 150.304688c-5.855469-5.851563-15.34375-5.851563-21.199219 0-5.851562 5.855468-5.851562 15.34375 0 21.195312 5.855469 5.855469 15.34375 5.855469 21.199219 0 5.851563-5.851562 5.851563-15.339844 0-21.195312zm0 0"/><path d="m417.046875 135.648438c-6.789063-1.96875-13.886719 1.945312-15.855469 8.734374-1.964844 6.789063 1.945313 13.890626 8.738282 15.855469 6.789062 1.964844 13.890624-1.945312 15.855468-8.734375 1.964844-6.792968-1.945312-13.890625-8.738281-15.855468zm0 0"/><path d="m375.527344 150.589844c-10.449219-3.023438-21.371094 2.992187-24.394532 13.441406-3.027343 10.445312 2.992188 21.367188 13.441407 24.390625 10.445312 3.027344 21.367187-2.992187 24.390625-13.4375 3.027344-10.449219-2.992188-21.371094-13.4375-24.394531zm0 0"/></g><path d="m475.503906 268.582031c0 12.984375-1.132812 25.699219-3.304687 38.058594-38.628907 28.359375-126.796875 30.570313-214.671875 30.761719-88.550782.195312-176.8125-1.894532-215.5-30.417969-2.210938-12.46875-3.367188-25.304687-3.367188-38.402344 0-120.636719 97.800782-218.425781 218.421875-218.425781 120.632813 0 218.421875 97.789062 218.421875 218.425781zm0 0" fill="url(#k)"/></svg>