<svg height="511pt" viewBox="-1 0 511 511.99913" width="511pt" xmlns="http://www.w3.org/2000/svg" xmlns:xlink="http://www.w3.org/1999/xlink"><linearGradient id="a" gradientUnits="userSpaceOnUse" x1="87.4011115576" x2="87.4011115576" y1="295.4166979172" y2="407.4919398"><stop offset="0" stop-color="#ffd459"/><stop offset=".2296" stop-color="#ffd355"/><stop offset=".4362" stop-color="#ffcf4a"/><stop offset=".634" stop-color="#ffc838"/><stop offset=".825" stop-color="#ffbf1f"/><stop offset="1" stop-color="#ffb400"/></linearGradient><linearGradient id="b" gradientUnits="userSpaceOnUse" x1="93.5678028348" x2="45.7707752382" y1="377.4799927866" y2="329.68296519"><stop offset="0" stop-color="#e58200" stop-opacity="0"/><stop offset=".0396" stop-color="#e27f04" stop-opacity=".039216"/><stop offset=".4671" stop-color="#c15d2f" stop-opacity=".466667"/><stop offset=".8016" stop-color="#ad4949" stop-opacity=".8"/><stop offset="1" stop-color="#a64153"/></linearGradient><linearGradient id="c"><stop offset="0" stop-color="#e58200" stop-opacity="0"/><stop offset=".3273" stop-color="#cd6920" stop-opacity=".32549"/><stop offset=".7671" stop-color="#b14c45" stop-opacity=".768627"/><stop offset="1" stop-color="#a64153"/></linearGradient><linearGradient id="d" gradientUnits="userSpaceOnUse" x1="44.6592327998" x2="83.5900228612" xlink:href="#c" y1="334.3997923148" y2="347.1859436912"/><linearGradient id="e" gradientUnits="userSpaceOnUse" x1="148.686734754" x2="101.4601356378" xlink:href="#c" y1="315.5861936426" y2="268.3595945264"/><radialGradient id="f" cx="202.4548896222" cy="194.8988068828" gradientUnits="userSpaceOnUse" r="327.0603193572"><stop offset="0" stop-color="#ff6e3a"/><stop offset=".1874" stop-color="#ff6a3d"/><stop offset=".3792" stop-color="#ff5e45"/><stop offset=".5732" stop-color="#ff4953"/><stop offset=".7686" stop-color="#ff2c66"/><stop offset=".9633" stop-color="#ff087f"/><stop offset="1" stop-color="#ff0084"/></radialGradient><radialGradient id="g" cx="157.5949362288" cy="134.782552032" gradientUnits="userSpaceOnUse" r="185.115687385"><stop offset="0" stop-color="#3b395f"/><stop offset=".5234" stop-color="#39385d"/><stop offset=".7119" stop-color="#343356"/><stop offset=".8463" stop-color="#2a2b4b"/><stop offset=".9541" stop-color="#1b1f3a"/><stop offset="1" stop-color="#131830"/></radialGradient><linearGradient id="h"><stop offset="0" stop-color="#3b395f" stop-opacity="0"/><stop offset=".0633" stop-color="#37355a" stop-opacity=".062745"/><stop offset=".4033" stop-color="#232543" stop-opacity=".403922"/><stop offset=".7232" stop-color="#171b35" stop-opacity=".721569"/><stop offset="1" stop-color="#131830"/></linearGradient><linearGradient id="i" gradientUnits="userSpaceOnUse" x1="265.514643777" x2="52.3665427782" xlink:href="#h" y1="297.0432523416" y2="83.8951513428"/><linearGradient id="j" gradientUnits="userSpaceOnUse" x1="312.8600068658" x2="99.711905867" xlink:href="#h" y1="249.6978892528" y2="36.549788254"/><linearGradient id="k"><stop offset="0" stop-color="#fffcf8"/><stop offset=".1875" stop-color="#faf8f6"/><stop offset=".4041" stop-color="#eceef2"/><stop offset=".6353" stop-color="#d5dcea"/><stop offset=".875" stop-color="#b5c4df"/><stop offset="1" stop-color="#a1b5d8"/></linearGradient><linearGradient id="l" gradientUnits="userSpaceOnUse" x1="92.5269365052" x2="165.9735688486" xlink:href="#k" y1="162.5102753188" y2="162.5102753188"/><linearGradient id="m" gradientUnits="userSpaceOnUse" x1="182.6312450258" x2="256.0779777614" xlink:href="#k" y1="162.5102753188" y2="162.5102753188"/><path d="m154.0625 458.214844-84.535156-84.535156-5.910156 5.910156c-14.421876 14.421875-37.882813 14.421875-52.304688 0-14.417969-14.417969-14.417969-37.882813 0-52.300782 14.421875-14.421874 37.882812-14.421874 52.304688 0l5.910156 5.910157 63.355468-63.355469 20.238282 20.242188-63.355469 63.351562 84.535156 84.535156zm-116.597656-113.128906c-2.140625 0-4.28125.8125-5.910156 2.441406-3.257813 3.261718-3.257813 8.5625 0 11.820312 3.257812 3.257813 8.5625 3.257813 11.820312 0l5.910156-5.910156-5.910156-5.910156c-1.628906-1.628906-3.769531-2.441406-5.910156-2.441406zm0 0" fill="url(#a)"/><path d="m89.765625 353.4375-20.238281 20.242188 84.535156 84.535156 20.238281-20.242188zm0 0" fill="url(#b)"/><path d="m63.617188 327.289062c-12.386719-12.390624-31.445313-14.125-45.710938-5.230468l31.378906 31.378906 20.242188-20.238281zm0 0" fill="url(#d)"/><path d="m132.882812 269.84375-29.941406 29.9375 20.242188 20.242188 29.9375-29.941407zm0 0" fill="url(#e)"/><path d="m485.867188 114.132812c-1.414063-2.324218-3.058594-4.386718-4.882813-6.210937-12.53125-12.53125-33.484375-13.148437-46.691406.058594l-48.238281 48.238281c-11.828126 11.828125-11.785157 30.972656.03125 42.8125 7.25 7.269531 11.199218 16.671875 11.730468 26.277344.542969 9.609375-2.332031 19.414062-8.742187 27.445312l-1.570313 1.96875c-39.929687 50.050782-85.347656 95.46875-135.398437 135.398438l-1.960938 1.5625c-8.03125 6.410156-17.84375 9.292968-27.453125 8.75-9.605468-.535156-19.011718-4.480469-26.277344-11.730469-11.839843-11.816406-30.984374-11.859375-42.8125-.03125l-48.238281 48.238281c-13.207031 13.207032-12.582031 34.167969-.050781 46.699219 1.816406 1.816406 3.886719 3.464844 6.203125 4.875 58.683594 35.835937 133.675781 30.296875 186.457031-13.773437 69.0625-45.859376 128.261719-105.058594 174.125-174.121094l.007813-.007813c44.066406-52.78125 49.605469-127.773437 13.761719-186.449219zm0 0" fill="url(#f)"/><path d="m332.667969 158.367188c0-87.464844-70.902344-158.367188-158.363281-158.367188-87.382813 0-158.371094 70.984375-158.371094 158.367188.003906 87.464843 70.90625 158.367187 158.367187 158.367187 22.289063 0 43.496094-4.613281 62.734375-12.921875 2.769532-1.199219 5.980469-.605469 8.113282 1.523438l17.523437 17.523437c4.613281 4.613281 12.5 1.347656 12.5-5.175781v-33.828125c0-2.117188.90625-4.132813 2.507813-5.515625 33.671874-29.039063 54.988281-72.015625 54.988281-119.972656zm0 0" fill="url(#g)"/><path d="m277.675781 278.34375c15.265625-13.164062 27.976563-29.199219 37.328125-47.253906l-162.28125-162.285156c-6.367187-7.246094-14.546875-11.609376-23.472656-11.609376-20.28125 0-36.722656 22.503907-36.722656 50.261719 0 17.804688 6.773437 33.429688 16.976562 42.355469 1.160156 1.3125 2.378906 2.535156 3.648438 3.648438.367187.417968.742187.816406 1.121094 1.210937l-5.644532 91.21875c-.4375 7.074219 2.746094 13.476563 7.890625 17.515625l53.257813 53.257812c1.503906.042969 3.011718.070313 4.523437.070313 22.289063 0 43.496094-4.613281 62.734375-12.921875 2.765625-1.199219 5.980469-.605469 8.109375 1.523438l17.523438 17.523437c4.613281 4.613281 12.5 1.347656 12.5-5.175781v-33.828125c0-2.113281.910156-4.132813 2.507812-5.511719zm0 0" fill="url(#i)"/><path d="m235.273438 62.039062v8.453126c-.6875-.820313-8.199219-8.511719-9.855469-9.175782-.96875-2.394531-3.273438-4.113281-5.996094-4.121094-.023437 0-.046875 0-.066406 0-.023438 0-.046875 0-.070313 0-3.605468.007813-6.488281 3.023438-6.488281 6.628907v5.882812c-.605469-.472656-7.605469-7.941406-9.402344-8.171875-.394531-3.476562-4.808593-5.027344-7.242187-2.304687-8.253906 9.21875-13.519532 32.511719-13.519532 48.222656 0 17.804687 6.773438 33.429687 16.976563 42.355469 1.160156 1.316406 2.375 2.535156 3.648437 3.652344.367188.414062.742188.8125 1.121094 1.207031l-5.644531 91.21875c-.4375 7.074219 2.746094 13.476562 7.894531 17.519531l51.097656 51.097656c1.050782 1.367188 2.289063 2.582032 3.648438 3.648438 1.054688 1.367187 2.289062 2.582031 3.648438 3.652344.914062 1.183593 1.980468 2.226562 3.128906 3.1875 3.632812-.179688 7.019531-3.039063 7.019531-7.3125v-33.828126c0-2.113281.90625-4.132812 2.507813-5.511718 33.671874-29.042969 54.992187-72.019532 54.992187-119.976563 0-3.121093-.101563-6.21875-.28125-9.300781l-89.835937-89.828125c-2.550782-2.851563-7.28125-1.019531-7.28125 2.804687zm0 0" fill="url(#j)"/><path d="m165.972656 107.457031c0-27.757812-16.441406-50.261719-36.722656-50.261719s-36.722656 22.503907-36.722656 50.261719c0 20.496094 8.96875 38.117188 21.824218 45.9375l-5.722656 92.496094c-.734375 11.886719 8.707032 21.933594 20.621094 21.933594 11.910156 0 21.355469-10.046875 20.617188-21.933594l-5.722657-92.496094c12.859375-7.820312 21.828125-25.441406 21.828125-45.9375zm0 0" fill="url(#l)"/><path d="m256.078125 107.457031c0-15.714843-5.269531-39.007812-13.519531-48.222656-2.554688-2.851563-7.28125-1.019531-7.28125 2.804687v51.785157c0 2.5625-1.976563 4.796875-4.539063 4.875-2.652343.078125-4.828125-2.046875-4.828125-4.679688v-50.195312c0-3.605469-2.878906-6.621094-6.488281-6.628907-.019531 0-.042969 0-.066406 0-.023438 0-.046875 0-.066407 0-3.609374.007813-6.488281 3.023438-6.488281 6.628907v50c0 2.5625-1.976562 4.796875-4.539062 4.875-2.652344.078125-4.828125-2.046875-4.828125-4.679688v-51.980469c0-3.824218-4.726563-5.65625-7.28125-2.804687-8.25 9.214844-13.519532 32.507813-13.519532 48.222656 0 20.496094 8.96875 38.117188 21.828126 45.9375l-5.726563 92.496094c-.734375 11.886719 8.710937 21.933594 20.621094 21.933594 11.910156 0 21.355469-10.046875 20.621093-21.933594l-5.726562-92.496094c12.859375-7.820312 21.828125-25.441406 21.828125-45.9375zm0 0" fill="url(#m)"/></svg>