<svg height="512pt" viewBox="-89 0 512 512" width="512pt" xmlns="http://www.w3.org/2000/svg" xmlns:xlink="http://www.w3.org/1999/xlink"><linearGradient id="a"><stop offset="0" stop-color="#45425a"/><stop offset="1" stop-color="#2d3251"/></linearGradient><linearGradient id="b" gradientUnits="userSpaceOnUse" x1="112.0587151218" x2="390.6633336582" xlink:href="#a" y1="256.00011" y2="256.00011"/><linearGradient id="c" gradientUnits="userSpaceOnUse" x1="166.534635" x2="166.534635" y1="465.1439677096" y2="505.1824853058"><stop offset="0" stop-color="#2d3251" stop-opacity="0"/><stop offset="1" stop-color="#131830"/></linearGradient><linearGradient id="d" gradientUnits="userSpaceOnUse" x1="30.9159163342" x2="298.0443009198" y1="84.2056644174" y2="402.2471500954"><stop offset="0" stop-color="#8be1e2"/><stop offset=".1873" stop-color="#87e1e1"/><stop offset=".3558" stop-color="#7ce2dd"/><stop offset=".5172" stop-color="#6ae2d7"/><stop offset=".6741" stop-color="#50e4ce"/><stop offset=".8278" stop-color="#2fe5c2"/><stop offset=".9772" stop-color="#07e7b4"/><stop offset="1" stop-color="#00e7b2"/></linearGradient><linearGradient id="e"><stop offset=".0029" stop-color="#00e7b2" stop-opacity="0"/><stop offset=".4308" stop-color="#1bc4b7" stop-opacity=".427451"/><stop offset="1" stop-color="#3b9abe"/></linearGradient><linearGradient id="f" gradientUnits="userSpaceOnUse" x1="289.7295177392" x2="102.5071000372" xlink:href="#e" y1="285.4013712608" y2="98.1789535588"/><linearGradient id="g" gradientUnits="userSpaceOnUse" x1="196.7042981596" x2="169.0964431596" xlink:href="#e" y1="404.744707247" y2="258.674056247"/><linearGradient id="h"><stop offset="0" stop-color="#ff6e3a"/><stop offset=".1596" stop-color="#ff6440"/><stop offset=".4266" stop-color="#ff4b52"/><stop offset=".7662" stop-color="#ff216e"/><stop offset="1" stop-color="#ff0084"/></linearGradient><linearGradient id="i" gradientUnits="userSpaceOnUse" x1="166.534635" x2="166.534635" xlink:href="#h" y1="272.8516435154" y2="363.5262801242"/><linearGradient id="j" gradientUnits="userSpaceOnUse" x1="176.169776395" x2="133.421271752" xlink:href="#a" y1="478.8556347778" y2="436.1071301348"/><linearGradient id="k" gradientUnits="userSpaceOnUse" x1="163.9602778154" x2="163.9602778154" xlink:href="#a" y1="40.15688" y2="23.3048445236"/><linearGradient id="l"><stop offset="0" stop-color="#ffd459"/><stop offset=".2296" stop-color="#ffd355"/><stop offset=".4362" stop-color="#ffcf4a"/><stop offset=".634" stop-color="#ffc838"/><stop offset=".825" stop-color="#ffbf1f"/><stop offset="1" stop-color="#ffb400"/></linearGradient><linearGradient id="m" gradientUnits="userSpaceOnUse" x1="138.5439845414" x2="165.3513121386" xlink:href="#l" y1="107.114461712" y2="155.7025798446"/><linearGradient id="n" gradientUnits="userSpaceOnUse" x1="134.222903469" x2="188.5555636778" y1="112.2537392144" y2="198.8986329152"><stop offset="0" stop-color="#c6e56f"/><stop offset=".3371" stop-color="#c4e56f"/><stop offset=".4953" stop-color="#bce36e"/><stop offset=".6162" stop-color="#afe16d"/><stop offset=".7182" stop-color="#9ddd6b"/><stop offset=".8083" stop-color="#85d968"/><stop offset=".8899" stop-color="#68d365"/><stop offset=".9635" stop-color="#46cd61"/><stop offset="1" stop-color="#32c95f"/></linearGradient><linearGradient id="o" gradientUnits="userSpaceOnUse" x1="119.6355152402" x2="162.7983384926" xlink:href="#h" y1="82.2771302554" y2="125.4398531156"/><linearGradient id="p" gradientUnits="userSpaceOnUse" x1="186.653733841" x2="229.8165570934" xlink:href="#h" y1="105.3556907602" y2="148.5184136204"/><radialGradient id="q" cx="143.5585749314" cy="138.5612140478" gradientUnits="userSpaceOnUse" r="91.1853317302" xlink:href="#l"/><radialGradient id="r" cx="174.4079936772" cy="183.0266260952" gradientUnits="userSpaceOnUse" r="104.0942627672"><stop offset="0" stop-color="#ffd459" stop-opacity="0"/><stop offset=".4062" stop-color="#ffd45b" stop-opacity=".407843"/><stop offset=".5525" stop-color="#ffd662" stop-opacity=".552941"/><stop offset=".6568" stop-color="#ffd96d" stop-opacity=".654902"/><stop offset=".7412" stop-color="#ffde7e" stop-opacity=".741176"/><stop offset=".8134" stop-color="#ffe394" stop-opacity=".811765"/><stop offset=".8774" stop-color="#ffeab0" stop-opacity=".878431"/><stop offset=".9353" stop-color="#fff3d0" stop-opacity=".937255"/><stop offset=".9867" stop-color="#fffcf4" stop-opacity=".988235"/><stop offset="1" stop-color="#fff"/></radialGradient><linearGradient id="s"><stop offset="0" stop-color="#e58200" stop-opacity="0"/><stop offset=".0396" stop-color="#e27f04" stop-opacity=".039216"/><stop offset=".4671" stop-color="#c15d2f" stop-opacity=".466667"/><stop offset=".8016" stop-color="#ad4949" stop-opacity=".8"/><stop offset="1" stop-color="#a64153"/></linearGradient><linearGradient id="t" gradientUnits="userSpaceOnUse" x1="162.6363054818" x2="147.9561548602" xlink:href="#s" y1="179.096673034" y2="213.5632227458"/><linearGradient id="u" gradientUnits="userSpaceOnUse" x1="166.2546411542" x2="179.3390577568" xlink:href="#s" y1="169.98909265" y2="204.7746887734"/><linearGradient id="v"><stop offset="0" stop-color="#fffcf8"/><stop offset=".1875" stop-color="#faf8f6"/><stop offset=".4041" stop-color="#eceef2"/><stop offset=".6353" stop-color="#d5dcea"/><stop offset=".875" stop-color="#b5c4df"/><stop offset="1" stop-color="#a1b5d8"/></linearGradient><linearGradient id="w" gradientUnits="userSpaceOnUse" x1="167.1408031036" x2="228.0912167442" xlink:href="#v" y1="182.2472814466" y2="266.5094666726"/><linearGradient id="x" gradientUnits="userSpaceOnUse" x1="97.5560579098" x2="135.618355049" xlink:href="#v" y1="169.3190751072" y2="221.939044384"/><linearGradient id="y" gradientUnits="userSpaceOnUse" x1="259.460667086" x2="182.414673196" y1="206.2410172466" y2="129.1950233566"><stop offset="0" stop-color="#a1b5d8" stop-opacity="0"/><stop offset=".0343" stop-color="#9fb3d5" stop-opacity=".035294"/><stop offset=".4515" stop-color="#8898af" stop-opacity=".45098"/><stop offset=".788" stop-color="#798898" stop-opacity=".788235"/><stop offset="1" stop-color="#748290"/></linearGradient><linearGradient id="z" gradientUnits="userSpaceOnUse" x1="169.4482174284" x2="176.1500995238" xlink:href="#v" y1="183.6066922268" y2="229.3226899096"/><linearGradient id="A" gradientUnits="userSpaceOnUse" x1="156.1955434986" x2="136.697069238" xlink:href="#s" y1="152.8435103808" y2="133.3450361202"/><linearGradient id="B" gradientUnits="userSpaceOnUse" x1="191.6742473708" x2="174.4216470164" xlink:href="#s" y1="160.2251480624" y2="142.972547708"/><linearGradient id="C" gradientUnits="userSpaceOnUse" x1="162.7361957208" x2="145.5813773692" xlink:href="#s" y1="172.6226812326" y2="155.4679632732"/><linearGradient id="D" gradientUnits="userSpaceOnUse" x1="192.1067369684" x2="176.2669560446" xlink:href="#s" y1="175.4879750128" y2="159.648194089"/><linearGradient id="E" gradientUnits="userSpaceOnUse" x1="183.7988808496" x2="162.9903887712" xlink:href="#s" y1="152.1636544024" y2="131.355162324"/><linearGradient id="F" gradientUnits="userSpaceOnUse" x1="170.5908814488" x2="154.936324134" xlink:href="#s" y1="183.4816035456" y2="167.8269458386"/><linearGradient id="G" gradientUnits="userSpaceOnUse" x1="170.1242585032" x2="152.7686557516" xlink:href="#s" y1="162.5785420148" y2="145.2229392632"/><linearGradient id="H" gradientUnits="userSpaceOnUse" x1="149.1483122352" x2="137.0904058776" xlink:href="#s" y1="174.137298354" y2="162.0793919964"/><linearGradient id="I" gradientUnits="userSpaceOnUse" x1="180.788319556" x2="160.1729820704" xlink:href="#s" y1="173.2841654384" y2="152.6688279528"/><linearGradient id="J"><stop offset="0" stop-color="#c08552"/><stop offset=".2109" stop-color="#aa7247"/><stop offset=".4564" stop-color="#97633f"/><stop offset=".7138" stop-color="#8d5a3a"/><stop offset="1" stop-color="#895738"/></linearGradient><linearGradient id="K" gradientUnits="userSpaceOnUse" x1="147.6009672566" x2="151.3436888648" xlink:href="#J" y1="146.1202447468" y2="146.1202447468"/><linearGradient id="L" gradientUnits="userSpaceOnUse" x1="171.4057649362" x2="175.1484865444" xlink:href="#J" y1="165.7730218188" y2="165.7730218188"/><linearGradient id="M" gradientUnits="userSpaceOnUse" x1="183.20977942" x2="186.9525010282" xlink:href="#J" y1="153.6320911118" y2="153.6320911118"/><linearGradient id="N" gradientTransform="matrix(.788882 -.620925 .620925 .788882 448.438211 -1152.944991)" gradientUnits="userSpaceOnUse" x1="-1043.441" x2="-1039.713" xlink:href="#J" y1="850.9715" y2="850.9715"/><linearGradient id="O" gradientTransform="matrix(.788882 -.620925 .620925 .788882 448.438211 -1152.944991)" gradientUnits="userSpaceOnUse" x1="-1022.1381" x2="-1018.41" xlink:href="#J" y1="871.9861" y2="871.9861"/><linearGradient id="P" gradientTransform="matrix(.719812 .699834 -.699834 .719812 -1391.8718 505.50523)" gradientUnits="userSpaceOnUse" x1="868.3503" x2="872.0784" xlink:href="#J" y1="-1346.6112" y2="-1346.6112"/><linearGradient id="Q" gradientTransform="matrix(.719812 .699834 -.699834 .719812 -1391.8718 505.50523)" gradientUnits="userSpaceOnUse" x1="881.2397" x2="884.9678" xlink:href="#J" y1="-1315.0658" y2="-1315.0658"/><linearGradient id="R" gradientTransform="matrix(-.323965 .950212 -.950212 -.323965 -3144.684123 -521.05738)" gradientUnits="userSpaceOnUse" x1="-426.9795" x2="-423.2514" xlink:href="#J" y1="-3336.4294" y2="-3336.4294"/><linearGradient id="S" gradientTransform="matrix(.719812 .699834 -.699834 .719812 -1391.8718 505.50523)" gradientUnits="userSpaceOnUse" x1="861.2247" x2="864.9528" xlink:href="#J" y1="-1306.8243" y2="-1306.8243"/><path d="m288.0625 512h-243.058594c-24.855468 0-45.003906-20.148438-45.003906-45.003906v-421.992188c0-24.855468 20.148438-45.003906 45.003906-45.003906h243.058594c24.855469 0 45.007812 20.148438 45.007812 45.003906v421.992188c0 24.855468-20.152343 45.003906-45.007812 45.003906zm0 0" fill="url(#b)"/><path d="m0 426.441406v40.554688c0 24.855468 20.148438 45.003906 45.003906 45.003906h243.058594c24.855469 0 45.007812-20.148438 45.007812-45.003906v-40.554688zm0 0" fill="url(#c)"/><path d="m17.960938 426.441406h297.144531c3.886719 0 7.035156-3.152344 7.035156-7.035156v-347.46875c0-3.882812-3.148437-7.035156-7.035156-7.035156h-297.144531c-3.886719 0-7.035157 3.152344-7.035157 7.035156v347.46875c0 3.882812 3.152344 7.035156 7.035157 7.035156zm0 0" fill="url(#d)"/><path d="m240.191406 99.742188c-1.378906-2.523438-4.054687-4.234376-7.132812-4.234376h-6.964844c-5.160156-5.308593-12.863281-7.992187-20.75-6.289062l-.039062.007812c-1.570313.339844-3.148438.503907-4.714844.503907-1.300782 0-2.59375-.113281-3.867188-.339844-2.160156-.378906-4.25-1.074219-6.207031-2.0625 0 0 0 0-.007813 0-1.539062-.78125-2.980468-1.761719-4.320312-2.894531-.523438-.542969-1.074219-1.054688-1.636719-1.53125-.273437-.285156-.554687-.554688-.816406-.851563-4.445313-5.117187-10.648437-7.683593-16.859375-7.683593-5.132812 0-10.273438 1.765624-14.421875 5.289062-1.785156-.324219-3.621094-.503906-5.503906-.503906-8.472657 0-16.132813 3.464844-21.652344 9.050781-.605469-.046875-1.210937-.082031-1.8125-.082031-6.417969 0-12.390625 2.800781-16.539063 7.386718h-7.25c-4.488281 0-8.125 3.636719-8.125 8.125v20.839844c-1.171874.789063-2.425781 1.480469-3.757812 2.046875l-.03125.011719c-12.367188 5.257812-17.324219 20.160156-10.574219 31.777344l.023438.042968c1.238281 2.132813 2.074219 4.425782 2.550781 6.773438-.027344.109375-.066406.214844-.082031.332031-.53125 3.949219-.808594 7.984375-.808594 12.078125 0 12.703125 2.636719 24.785156 7.386719 35.742188-.074219.578125.03125 1.183594.355468 1.730468 4.195313 7.03125 9.332032 13.433594 15.222657 19.054688l162.148437 162.152344c14.5 15.3125 34.328125 25.527344 56.515625 27.683594 1.011719-1.21875 1.621094-2.785157 1.621094-4.492188v-237.714844zm0 0" fill="url(#f)"/><path d="m322.140625 310.148438c-15.777344-15.789063-33.230469-33.242188-33.523437-33.511719-3.847657-4.261719-9.394532-6.957031-15.585938-6.957031h-212.992188c-11.597656 0-21.003906 9.402343-21.003906 21.003906v36.15625c0 6.195312 2.699219 11.742187 6.960938 15.585937.488281.542969 76.542968 76.597657 77.085937 77.085938 3.84375 4.265625 9.390625 6.960937 15.585938 6.960937h183.472656zm0 0" fill="url(#g)"/><path d="m273.027344 347.847656h-212.988282c-11.597656 0-21.003906-9.40625-21.003906-21.007812v-36.15625c0-11.601563 9.40625-21.003906 21.003906-21.003906h212.988282c11.601562 0 21.003906 9.402343 21.003906 21.003906v36.15625c0 11.601562-9.402344 21.007812-21.003906 21.007812zm0 0" fill="url(#i)"/><path d="m192.105469 469.21875c0 14.121094-11.449219 25.570312-25.570313 25.570312s-25.570312-11.449218-25.570312-25.570312 11.449218-25.570312 25.570312-25.570312 25.570313 11.449218 25.570313 25.570312zm0 0" fill="url(#j)"/><path d="m214.582031 41.160156h-101.242187c-5.371094 0-9.726563-4.351562-9.726563-9.726562 0-5.371094 4.355469-9.726563 9.726563-9.726563h101.242187c5.371094 0 9.726563 4.355469 9.726563 9.726563 0 5.375-4.355469 9.726562-9.726563 9.726562zm0 0" fill="url(#k)"/><path d="m241.183594 103.632812v109.953126c-7.574219 13.066406-18.46875 23.960937-31.539063 31.535156h-86.539062c-13.066407-7.570313-23.964844-18.46875-31.535157-31.535156v-109.953126c0-4.488281 3.636719-8.125 8.121094-8.125h133.367188c4.484375 0 8.125 3.636719 8.125 8.125zm0 0" fill="url(#m)"/><path d="m255.710938 159.523438-.027344.054687c-1.542969 2.566406-2.519532 5.363281-2.941406 8.226563-.304688 2.066406-.320313 4.15625-.042969 6.226562-.601563 14.367188-4.722657 27.835938-11.515625 39.554688-1.070313 1.84375-2.203125 3.644531-3.398438 5.394531-1.503906 1.523437-2.78125 3.25-3.789062 5.136719-6.714844 8.425781-14.972656 15.570312-24.351563 21.003906-4.441406 2.574218-9.128906 4.761718-14.023437 6.519531-2.164063.351563-4.265625 1.015625-6.234375 1.976563-7.328125 2.027343-15.042969 3.101562-23.011719 3.101562-8.371094 0-16.46875-1.191406-24.128906-3.417969-.003906 0-.003906 0-.003906 0-1.960938-.988281-4.050782-1.683593-6.210938-2.0625-4.5-1.683593-8.816406-3.734375-12.925781-6.117187-9.730469-5.640625-18.261719-13.121094-25.105469-21.972656-.972656-1.871094-2.207031-3.601563-3.671875-5.121094-.960937-1.453125-1.882813-2.929688-2.757813-4.445313-6.984374-12.042969-11.140624-25.933593-11.5625-40.761719.308594-2.0625.320313-4.152343.042969-6.222656-.378906-2.859375-1.324219-5.667968-2.820312-8.246094l-.027344-.042968c-6.746094-11.621094-1.789063-26.519532 10.574219-31.777344l.035156-.015625c2.726562-1.15625 5.144531-2.824219 7.15625-4.867187 1.503906-1.519532 2.78125-3.25 3.785156-5.136719 1.367188-2.53125 2.242188-5.339844 2.542969-8.300781 1.179687-11.644532 11.019531-20.089844 22.1875-20.089844 1.667969 0 3.359375.1875 5.0625.578125v.007812c2.867187.660157 5.78125.734375 8.585937.28125 2.164063-.351562 4.265626-1.015625 6.230469-1.976562 2.5625-1.25 4.898438-2.996094 6.863281-5.191407 4.441407-4.972656 10.546876-7.453124 16.648438-7.453124 6.207031 0 12.410156 2.566406 16.859375 7.683593 1.929687 2.21875 4.234375 3.992188 6.773437 5.277344h.003907c1.957031.988281 4.050781 1.683594 6.210937 2.0625 1.273438.222656 2.566406.339844 3.867188.339844 1.566406 0 3.144531-.164063 4.714844-.503907l.039062-.007812c13.128906-2.835938 25.777344 6.480469 26.964844 19.863281l.003906.050781c.261719 2.964844 1.105469 5.792969 2.441406 8.347657.972656 1.871093 2.207032 3.597656 3.671875 5.121093 1.980469 2.078126 4.386719 3.789063 7.105469 4.988282l.050781.023437c12.285157 5.429688 17.03125 20.394531 10.128907 31.910157zm0 0" fill="url(#n)"/><path d="m177.386719 109.589844c0 16.8125-13.628907 30.4375-30.4375 30.4375-16.8125 0-30.4375-13.625-30.4375-30.4375 0-16.808594 13.625-30.4375 30.4375-30.4375 16.808593 0 30.4375 13.628906 30.4375 30.4375zm0 0" fill="url(#o)"/><path d="m244.40625 132.667969c0 16.8125-13.628906 30.4375-30.4375 30.4375-16.8125 0-30.4375-13.625-30.4375-30.4375 0-16.808594 13.625-30.4375 30.4375-30.4375 16.808594 0 30.4375 13.628906 30.4375 30.4375zm0 0" fill="url(#p)"/><path d="m250.46875 170.316406c0 46.441406-37.648438 84.089844-84.09375 84.089844-46.441406 0-84.089844-37.648438-84.089844-84.089844 0-46.445312 37.648438-84.09375 84.089844-84.09375 46.445312 0 84.09375 37.648438 84.09375 84.09375zm0 0" fill="url(#q)"/><g fill="#ffb211"><path d="m101.308594 143.859375c-.859375-.859375-2.25-.859375-3.109375 0-.855469.859375-.855469 2.25 0 3.105469.859375.859375 2.25.859375 3.109375 0 .859375-.855469.859375-2.246094 0-3.105469zm0 0"/><path d="m120.417969 129.957031c-1.359375-1.359375-3.5625-1.359375-4.921875 0s-1.359375 3.5625 0 4.921875 3.5625 1.359375 4.921875 0 1.359375-3.5625 0-4.921875zm0 0"/><path d="m108.570312 128.066406c-2.09375-2.089844-5.480468-2.089844-7.574218 0-2.089844 2.089844-2.089844 5.480469 0 7.570313 2.09375 2.089843 5.480468 2.089843 7.574218 0 2.089844-2.089844 2.089844-5.480469 0-7.570313zm0 0"/><path d="m232.21875 134.410156c-2.425781-.699218-4.960938.695313-5.664062 3.121094-.703126 2.425781.695312 4.964844 3.121093 5.664062 2.425781.703126 4.960938-.695312 5.664063-3.121093s-.695313-4.960938-3.121094-5.664063zm0 0"/><path d="m217.382812 139.75c-3.730468-1.082031-7.632812 1.070312-8.710937 4.800781-1.082031 3.734375 1.066406 7.632813 4.800781 8.714844 3.730469 1.078125 7.632813-1.070313 8.710938-4.800781 1.082031-3.734375-1.066406-7.632813-4.800782-8.714844zm0 0"/></g><path d="m244.40625 170.316406c0 43.09375-34.933594 78.027344-78.03125 78.027344-43.09375 0-78.027344-34.933594-78.027344-78.027344s34.933594-78.03125 78.027344-78.03125c43.097656 0 78.03125 34.9375 78.03125 78.03125zm0 0" fill="url(#r)"/><path d="m246.511719 195.855469-155.660157-62.546875c-5.484374 11.164062-8.566406 23.726562-8.566406 37.007812 0 46.441406 37.648438 84.089844 84.089844 84.089844 37.539062 0 69.324219-24.597656 80.136719-58.550781zm0 0" fill="url(#t)"/><path d="m239.746094 129.203125-156.378906 54.589844c6.449218 40.035156 41.15625 70.613281 83.007812 70.613281 46.445312 0 84.09375-37.648438 84.09375-84.089844 0-14.933594-3.898438-28.957031-10.722656-41.113281zm0 0" fill="url(#u)"/><path d="m253.867188 168.992188c0-4.097657-.277344-8.128907-.8125-12.082032-.226563-1.707031-1.984376-2.761718-3.609376-2.195312l-161.351562 56.328125c-1.628906.566406-2.34375 2.484375-1.460938 3.964843 15.695313 26.304688 44.433594 43.925782 77.289063 43.925782 49.675781 0 89.945313-40.269532 89.945313-89.941406zm0 0" fill="url(#w)"/><path d="m88.09375 211.039062 66.042969-23.054687-70.828125-24.722656c-1.625-.566407-3.382813.488281-3.609375 2.195312-.535157 3.953125-.8125 7.984375-.8125 12.078125 0 12.703125 2.640625 24.785156 7.390625 35.742188.128906-.984375.789062-1.878906 1.816406-2.238282zm0 0" fill="url(#x)"/><path d="m249.445312 154.714844-32.230468 11.25v41.738281l21.144531 11.785156c9.785156-14.394531 15.503906-31.777343 15.503906-50.496093 0-4.097657-.277343-8.128907-.808593-12.082032-.226563-1.707031-1.984376-2.761718-3.609376-2.195312zm0 0" fill="url(#y)"/><path d="m253.054688 156.902344c-.230469-1.703125-1.984376-2.753906-3.605469-2.1875l-161.355469 56.324218c-1.027344.359376-1.6875 1.253907-1.816406 2.238282l63.558594-16.269532c19.621093-5.019531 40.394531-2.796874 58.511718 6.257813l9.757813 4.878906c3.507812 1.753907 7.769531.539063 9.828125-2.796875l22.585937-36.636718c2.160157-3.5 3.09375-7.632813 2.550781-11.707032-.003906-.035156-.011718-.066406-.015624-.101562zm0 0" fill="url(#z)"/><path d="m150.613281 142.957031c-.316406-.519531-.710937-.835937-1.140625-.835937-1.035156 0-1.871094 1.792968-1.871094 4 0 1.914062.628907 3.511718 1.472657 3.902344l37.113281 37.113281c.316406.523437.710938.835937 1.140625.835937 1.035156 0 1.871094-1.789062 1.871094-3.996094 0-1.914062-.628907-3.511718-1.472657-3.902343zm0 0" fill="url(#A)"/><path d="m186.222656 150.46875c-.316406-.519531-.710937-.835938-1.140625-.835938-1.035156 0-1.871093 1.789063-1.871093 4 0 1.914063.628906 3.511719 1.46875 3.902344l37.117187 37.113282c.316406.523437.710937.835937 1.140625.835937 1.035156 0 1.871094-1.789063 1.871094-3.996094 0-1.914062-.628906-3.511719-1.472656-3.90625zm0 0" fill="url(#B)"/><path d="m156.40625 163.605469c-1.316406-1.5-2.898438-2.226563-3.652344-1.632813-.8125.640625-.363281 2.5625 1.003906 4.300782.328126.414062.675782.78125 1.03125 1.089843l37.117188 37.117188c1.316406 1.5 2.894531 2.226562 3.652344 1.632812.808594-.640625.363281-2.566406-1.003906-4.300781zm0 0" fill="url(#C)"/><path d="m186.257812 166.957031c-1.3125-1.503906-2.894531-2.230469-3.648437-1.636719-.8125.640626-.363281 2.566407 1 4.300782l38.152344 38.207031c1.316406 1.5 2.894531 2.226563 3.648437 1.632813.8125-.640626.363282-2.566407-1-4.300782-.328125-.414062-.679687-.78125-1.035156-1.089844zm0 0" fill="url(#D)"/><path d="m179.695312 142.40625c-.742187-.722656-2.589843-.019531-4.128906 1.5625-1.539062 1.582031-2.1875 3.449219-1.445312 4.171875l37.855468 37.855469c.742188.722656 2.589844.023437 4.128907-1.5625 1.539062-1.582032 2.1875-3.449219 1.445312-4.171875zm0 0" fill="url(#E)"/><path d="m166.894531 174.132812c-.742187-.722656-2.589843-.023437-4.128906 1.5625-1.539063 1.582032-2.1875 3.449219-1.445313 4.171876l37.855469 37.855468c.742188.71875 2.589844.019532 4.128907-1.5625 1.539062-1.582031 2.1875-3.449218 1.445312-4.171875zm0 0" fill="url(#F)"/><path d="m166.855469 155.917969c-.519531-.707031-1.566407-1.417969-2.882813-1.867188-2.089844-.710937-4.054687-.496093-4.386718.480469-.199219.582031.226562 1.300781 1.039062 1.941406l37.113281 37.113282c.515625.707031 1.566407 1.414062 2.882813 1.863281 2.089844.714843 4.054687.5 4.386718-.480469.199219-.582031-.226562-1.300781-1.039062-1.9375zm0 0" fill="url(#G)"/><path d="m146.722656 166.058594c-.742187-.722656-2.589844-.023438-4.128906 1.558594-1.539062 1.585937-2.1875 3.453124-1.449219 4.171874l37.859375 37.859376c.738282.71875 2.589844.019531 4.128906-1.5625 1.539063-1.585938 2.1875-3.453126 1.445313-4.171876zm0 0" fill="url(#H)"/><path d="m174.417969 162.609375c-.316407-.519531-.710938-.835937-1.140625-.835937-1.035156 0-1.871094 1.792968-1.871094 4 0 1.914062.628906 3.511718 1.472656 3.902343l37.113282 37.113281c.316406.523438.710937.839844 1.140624.839844 1.035157 0 1.871094-1.792968 1.871094-4 0-1.914062-.628906-3.511718-1.46875-3.902344zm0 0" fill="url(#I)"/><path d="m151.34375 146.121094c0-2.210938-.839844-4-1.871094-4-1.035156 0-1.871094 1.789062-1.871094 4 0 2.207031.835938 3.996094 1.871094 3.996094 1.03125 0 1.871094-1.789063 1.871094-3.996094zm0 0" fill="url(#K)"/><path d="m175.148438 165.773438c0-2.207032-.839844-4-1.871094-4-1.035156 0-1.871094 1.792968-1.871094 4 0 2.207031.835938 3.996093 1.871094 3.996093 1.03125 0 1.871094-1.789062 1.871094-3.996093zm0 0" fill="url(#L)"/><path d="m186.953125 153.632812c0-2.207031-.839844-4-1.871094-4-1.035156 0-1.871093 1.792969-1.871093 4 0 2.207032.835937 3.996094 1.871093 3.996094 1.03125 0 1.871094-1.789062 1.871094-3.996094zm0 0" fill="url(#M)"/><path d="m156.699219 163.957031c1.363281 1.734375 1.8125 3.660157 1 4.296875-.808594.640625-2.578125-.246094-3.941407-1.980468-1.367187-1.738282-1.8125-3.660157-1.003906-4.300782.8125-.640625 2.578125.25 3.945313 1.984375zm0 0" fill="url(#N)"/><path d="m186.550781 167.304688c1.367188 1.734374 1.816407 3.660156 1.003907 4.296874-.8125.640626-2.578126-.246093-3.945313-1.980468-1.363281-1.734375-1.8125-3.660156-1-4.300782.8125-.640624 2.574219.25 3.941406 1.984376zm0 0" fill="url(#O)"/><path d="m178.25 146.578125c-1.539062 1.582031-3.386719 2.28125-4.128906 1.558594-.742188-.71875-.09375-2.585938 1.445312-4.167969 1.539063-1.585938 3.386719-2.285156 4.128906-1.5625.742188.71875.09375 2.585938-1.445312 4.171875zm0 0" fill="url(#P)"/><path d="m165.449219 178.304688c-1.539063 1.582031-3.386719 2.28125-4.128907 1.5625-.742187-.722657-.09375-2.589844 1.445313-4.171876 1.539063-1.585937 3.386719-2.28125 4.128906-1.5625.742188.71875.09375 2.585938-1.445312 4.171876zm0 0" fill="url(#Q)"/><path d="m162.765625 157.59375c-2.089844-.710938-3.515625-2.082031-3.179687-3.058594.332031-.980468 2.296874-1.195312 4.386718-.480468 2.089844.710937 3.511719 2.082031 3.179688 3.058593-.332032.976563-2.296875 1.195313-4.386719.480469zm0 0" fill="url(#R)"/><path d="m145.277344 170.226562c-1.539063 1.585938-3.390625 2.285157-4.132813 1.5625-.738281-.71875-.09375-2.585937 1.449219-4.171874 1.539062-1.582032 3.386719-2.28125 4.128906-1.558594.738282.71875.09375 2.585937-1.445312 4.167968zm0 0" fill="url(#S)"/><path d="m67.082031 319.539062v-21.550781c0-11.996093 7.183594-16.515625 16.585938-16.515625 9.332031 0 16.660156 4.519532 16.660156 16.515625v21.550781c0 11.992188-7.328125 16.511719-16.660156 16.511719-9.40625 0-16.585938-4.519531-16.585938-16.511719zm25.398438-21.550781c0-6.519531-3.332031-9.554687-8.8125-9.554687-5.554688 0-8.738281 3.035156-8.738281 9.554687v21.550781c0 6.515626 3.183593 9.550782 8.738281 9.550782 5.480469 0 8.8125-3.035156 8.8125-9.550782zm0 0" fill="#fff"/><path d="m109.515625 283.992188c0-1.335938 1.035156-2.519532 2.589844-2.519532h14.070312c9.332031 0 17.03125 3.628906 17.03125 15.109375 0 8.8125-4.515625 13.179688-10.441406 14.660157l10.367187 19.476562c.222657.371094.296876.8125.296876 1.113281 0 1.996094-2.519532 3.996094-4.738282 3.996094-1.335937 0-2.371094-.886719-3.113281-2.292969l-10.8125-21.179687h-7.476563v20.660156c0 1.703125-1.925781 2.589844-3.925781 2.589844-1.925781 0-3.851562-.886719-3.851562-2.589844v-49.023437zm7.773437 4.441406v17.625h8.886719c5.554688 0 9.183594-2.367188 9.183594-8.8125 0-6.441406-3.628906-8.8125-9.183594-8.8125zm0 0" fill="#fff"/><path d="m167.496094 281.472656c9.40625 0 16.664062 4.519532 16.664062 16.515625v21.101563c0 11.996094-7.257812 16.515625-16.664062 16.515625h-13.105469c-2.074219 0-3.480469-1.183594-3.480469-2.519531v-49.09375c0-1.335938 1.40625-2.519532 3.480469-2.519532zm-8.738282 6.960938v40.210937h8.738282c5.554687 0 8.8125-3.035156 8.8125-9.554687v-21.101563c0-6.519531-3.257813-9.554687-8.8125-9.554687zm0 0" fill="#fff"/><path d="m201.191406 305.394531h11.40625c1.628906 0 2.589844 1.480469 2.589844 3.183594 0 1.40625-.8125 3.035156-2.589844 3.035156h-11.40625v17.03125h21.996094c1.628906 0 2.589844 1.628907 2.589844 3.554688 0 1.628906-.8125 3.40625-2.589844 3.40625h-26.363281c-1.703125 0-3.480469-.886719-3.480469-2.589844v-48.949219c0-1.703125 1.777344-2.59375 3.480469-2.59375h26.363281c1.773438 0 2.589844 1.777344 2.589844 3.40625 0 1.925782-.960938 3.554688-2.589844 3.554688h-21.996094zm0 0" fill="#fff"/><path d="m232.074219 283.992188c0-1.335938 1.035156-2.519532 2.589843-2.519532h14.070313c9.332031 0 17.03125 3.628906 17.03125 15.109375 0 8.8125-4.515625 13.179688-10.441406 14.660157l10.367187 19.476562c.222656.371094.296875.8125.296875 1.113281 0 1.996094-2.519531 3.996094-4.738281 3.996094-1.335938 0-2.371094-.886719-3.113281-2.292969l-10.8125-21.179687h-7.476563v20.660156c0 1.703125-1.925781 2.589844-3.925781 2.589844-1.925781 0-3.851563-.886719-3.851563-2.589844v-49.023437zm7.773437 4.441406v17.625h8.886719c5.554687 0 9.183594-2.367188 9.183594-8.8125 0-6.441406-3.628907-8.8125-9.183594-8.8125zm0 0" fill="#fff"/></svg>