<svg height="512pt" viewBox="-8 0 512 512" width="512pt" xmlns="http://www.w3.org/2000/svg" xmlns:xlink="http://www.w3.org/1999/xlink"><linearGradient id="a"><stop offset="0" stop-color="#fffcf8"/><stop offset=".1875" stop-color="#faf8f6"/><stop offset=".4041" stop-color="#eceef2"/><stop offset=".6353" stop-color="#d5dcea"/><stop offset=".875" stop-color="#b5c4df"/><stop offset="1" stop-color="#a1b5d8"/></linearGradient><linearGradient id="b" gradientUnits="userSpaceOnUse" x1="482.5302940644" x2="343.9959851262" xlink:href="#a" y1="313.2674349992" y2="162.6866644142"/><linearGradient id="c" gradientUnits="userSpaceOnUse" x1="250.7879513504" x2="494.7288498942" xlink:href="#a" y1="280.8835214764" y2="526.330202628"/><linearGradient id="d"><stop offset="0" stop-color="#a1b5d8" stop-opacity="0"/><stop offset=".0343" stop-color="#9fb3d5" stop-opacity=".035294"/><stop offset=".4515" stop-color="#8898af" stop-opacity=".45098"/><stop offset=".788" stop-color="#798898" stop-opacity=".788235"/><stop offset="1" stop-color="#748290"/></linearGradient><linearGradient id="e" gradientUnits="userSpaceOnUse" x1="420.2980728142" x2="249.419906841" xlink:href="#d" y1="301.399972645" y2="301.399972645"/><linearGradient id="f" gradientUnits="userSpaceOnUse" x1="43.8786232284" x2="545.3125641784" xlink:href="#a" y1="89.418328618" y2="643.5555643708"/><linearGradient id="g" gradientUnits="userSpaceOnUse" x1="213.4347243198" x2="140.4308215784" xlink:href="#d" y1="155.2247129726" y2="-199.8808702"/><linearGradient id="h" gradientUnits="userSpaceOnUse" x1="173.6256029006" x2="173.6256029006" xlink:href="#a" y1="48.2493948498" y2="-13.5070677646"/><linearGradient id="i" gradientUnits="userSpaceOnUse" x1="224.3895211838" x2="224.3895211838" xlink:href="#d" y1="486.90217" y2="540.110036"/><linearGradient id="j"><stop offset="0" stop-color="#ffd459"/><stop offset=".2296" stop-color="#ffd355"/><stop offset=".4362" stop-color="#ffcf4a"/><stop offset=".634" stop-color="#ffc838"/><stop offset=".825" stop-color="#ffbf1f"/><stop offset="1" stop-color="#ffb400"/></linearGradient><linearGradient id="k" gradientUnits="userSpaceOnUse" x1="121.64021272" x2="330.5837879906" xlink:href="#j" y1="284.966271466" y2="493.9098467366"/><linearGradient id="l" gradientUnits="userSpaceOnUse" x1="89.4413220218" x2="298.3849976846" xlink:href="#j" y1="317.165061772" y2="526.1087374348"/><linearGradient id="m" gradientUnits="userSpaceOnUse" x1="46.7899970284" x2="255.7336726912" xlink:href="#j" y1="359.8163867654" y2="568.7600624282"/><linearGradient id="n" gradientUnits="userSpaceOnUse" x1="249.1728416368" x2="2.0438883898" xlink:href="#d" y1="287.8300593632" y2="40.701005724"/><linearGradient id="o" gradientUnits="userSpaceOnUse" x1="147.8078412188" x2="228.5515810114" y1="189.984207124" y2="257.3425544984"><stop offset="0" stop-color="#45425a"/><stop offset="1" stop-color="#2d3251"/></linearGradient><path d="m148.496094 90.800781c5.1875 0 9.882812 2.097657 13.285156 5.496094 3.40625 3.402344 5.507812 8.097656 5.507812 13.285156v59.695313c0 11.238281 6.863282 21.332031 17.316407 25.457031l.007812.003906c6.457031 2.550781 13.644531 2.550781 20.101563 0l7.273437-2.871093c6.460938-2.550782 13.648438-2.550782 20.105469 0l7.265625 2.871093c6.457031 2.550781 13.644531 2.550781 20.105469 0l7.269531-2.871093c6.460937-2.550782 13.648437-2.550782 20.109375 0l7.261719 2.871093c6.460937 2.550781 13.648437 2.550781 20.105469 0l7.273437-2.871093c6.457031-2.550782 13.644531-2.550782 20.105469 0l7.261718 2.867187c6.460938 2.554687 13.648438 2.554687 20.109376 0l7.257812-2.867187c6.460938-2.550782 13.648438-2.550782 20.109375 0l7.261719 2.867187c6.457031 2.554687 13.648437 2.554687 20.109375 0l7.257812-2.867187c6.460938-2.550782 13.648438-2.550782 20.109375 0l7.261719 2.867187c6.457031 2.554687 13.648437 2.554687 20.109375 0 10.445312-4.125 17.3125-14.21875 17.3125-25.453125v-33.410156c0-24.890625-20.179688-45.070313-45.074219-45.070313zm0 0" fill="url(#b)"/><path d="m103.992188 90.800781c-13.984376 0-25.320313 11.335938-25.320313 25.316407l.027344 370.574218c0 13.976563 11.328125 25.308594 25.304687 25.308594h300.210938c13.976562 0 25.308594-11.332031 25.308594-25.308594l.558593-377.09375c0-10.382812 8.414063-18.796875 18.796875-18.796875zm0 0" fill="url(#c)"/><path d="m370.496094 90.800781h-266.503906c-13.984376 0-25.320313 11.335938-25.320313 25.316407l.027344 370.574218c0 13.976563 11.328125 25.308594 25.304687 25.308594h300.210938c13.976562 0 25.308594-11.332031 25.308594-25.308594l.476562-336.390625zm0 0" fill="url(#e)"/><path d="m370.597656 493.203125-.558594-467.894531c0-13.976563-11.332031-25.308594-25.308593-25.308594h-300.210938c-13.976562 0-25.304687 11.332031-25.304687 25.308594l-.027344 461.371094c0 13.984374 11.335938 25.320312 25.320312 25.320312h344.886719c-10.378906 0-18.796875-8.414062-18.796875-18.796875zm0 0" fill="url(#f)"/><path d="m344.90625.00390625h-299.835938c-.820312 0-1.636718.03124995-2.445312.07421875-13.089844.972656-23.410156 11.890625-23.410156 25.230469v79.449218l136.3125 136.316407c6.015625 1.933593 12.53125 1.742187 18.441406-.589844l7.257812-2.867187c6.460938-2.554688 13.648438-2.554688 20.109376 0l7.261718 2.867187c6.457032 2.550781 13.648438 2.550781 20.109375 0l7.257813-2.867187c6.460937-2.554688 13.648437-2.554688 20.109375 0l7.257812 2.867187c6.460938 2.550781 13.652344 2.550781 20.109375 0l7.261719-2.871094c6.460937-2.550781 13.648437-2.550781 20.109375 0l7.269531 2.871094c6.457031 2.550781 13.648438 2.550781 20.105469 0l7.265625-2.871094c6.457031-2.550781 13.644531-2.550781 20.105469 0l4.484375 1.769531v-214.074218c-.003907-13.921875-11.242188-25.2109378-25.136719-25.30468775zm0 0" fill="url(#g)"/><path d="m347.25.00390625c-5.1875 0-9.882812 2.09765575-13.285156 5.49609375-3.40625 3.40625-5.503906 8.097656-5.503906 13.289062v59.695313c0 11.234375-6.867188 21.328125-17.320313 25.453125l-.007813.003906c-6.457031 2.550782-13.644531 2.550782-20.101562 0l-7.273438-2.871094c-6.460937-2.550781-13.648437-2.550781-20.105468 0l-7.265625 2.871094c-6.457031 2.550782-13.644531 2.550782-20.105469 0l-7.269531-2.871094c-6.460938-2.550781-13.648438-2.550781-20.109375 0l-7.261719 2.871094c-6.460937 2.550782-13.644531 2.550782-20.105469 0l-7.269531-2.871094c-6.460937-2.550781-13.648437-2.550781-20.109375 0l-7.261719 2.871094c-6.457031 2.550782-13.648437 2.550782-20.109375 0l-7.257812-2.867187c-6.460938-2.554688-13.648438-2.554688-20.109375 0l-7.261719 2.867187c-6.457031 2.550782-13.648438 2.550782-20.109375 0l-7.257813-2.867187c-6.460937-2.554688-13.648437-2.554688-20.109374 0l-7.257813 2.867187c-6.460937 2.550782-13.652344 2.550782-20.109375 0-10.449219-4.128906-17.3125-14.222656-17.3125-25.457031v-33.40625c0-24.894531 20.179688-45.07421875 45.070312-45.07421875zm0 0" fill="url(#h)"/><path d="m19.191406 441.726562-.003906 44.953126c0 13.984374 11.335938 25.320312 25.320312 25.320312h359.710938c13.976562 0 25.304688-11.332031 25.304688-25.308594l.066406-44.964844zm0 0" fill="url(#i)"/><path d="m66.53125 323.445312h205.246094v18.070313h-205.246094zm0 0" fill="url(#k)"/><path d="m66.53125 387.84375h205.246094v18.070312h-205.246094zm0 0" fill="url(#l)"/><path d="m66.53125 452.242188h163.4375v18.070312h-163.4375zm0 0" fill="url(#m)"/><path d="m350.773438 278.589844-136.621094-136.621094c-1.65625-2.882812-5.097656-5.265625-10.328125-7.148438-5.367188-1.925781-11.089844-3.234374-17.148438-3.960937l-8.003906-7.136719c-.160156-1.128906-.820313-2.152344-2.050781-3.058594-1.410156-1.039062-2.933594-1.5625-4.566406-1.5625-1.785157 0-3.3125.523438-4.574219 1.5625-1.261719 1.042969-1.894531 2.230469-1.894531 3.566407v6.464843c-12.039063 1.339844-22.109376 5.351563-30.210938 12.042969-8.101562 6.6875-12.152344 16.492188-12.152344 29.402344 0 4.597656.519532 8.789063 1.5625 12.570313 1.039063 3.785156 2.746094 7.085937 5.128906 9.902343 2.375 2.820313 4.644532 5.230469 6.800782 7.230469.113281.109375.238281.214844.359375.320312l28.511719 28.578126v37.296874c-6.585938-.445312-12.386719-2.148437-17.402344-5.117187-5.019532-2.964844-8.957032-5.746094-11.828125-8.34375-2.871094-2.59375-5.1875-3.894531-6.949219-3.894531-2.664062 0-5.023438 1.410156-7.09375 4.226562-2.070312 2.820313-3.101562 5.636719-3.101562 8.457032 0 4.617187 2.679687 9.167968 8.015624 13.652343l123.789063 123.789063c51.878906-15.480469 91.542969-63.210938 99.757813-122.21875zm0 0" fill="url(#n)"/><path d="m215.773438 224.097656c-2.21875-5.414062-5.507813-9.902344-9.867188-13.460937-4.363281-3.5625-8.503906-6.34375-12.421875-8.34375-3.914063-2.003907-8.828125-4.117188-14.742187-6.34375v-45.1875c5.945312.445312 11.582031 1.933593 16.90625 4.460937 5.324218 2.527344 8.582031 3.789063 9.765624 3.789063 2.996094 0 5.398438-1.449219 7.195313-4.347657 1.796875-2.898437 2.699219-5.683593 2.699219-8.359374 0-4.90625-3.828125-8.730469-11.484375-11.484376-7.65625-2.746093-16.019531-4.269531-25.082031-4.570312v-6.019531c0-1.339844-.707032-2.527344-2.117188-3.566407-1.414062-1.039062-2.9375-1.5625-4.570312-1.5625-1.785157 0-3.308594.523438-4.570313 1.5625-1.265625 1.039063-1.898437 2.226563-1.898437 3.566407v6.464843c-12.039063 1.335938-22.109376 5.351563-30.210938 12.039063s-12.148438 16.492187-12.148438 29.402344c0 4.601562.519532 8.789062 1.558594 12.574219 1.039063 3.78125 2.75 7.082031 5.128906 9.898437 2.375 2.820313 4.644532 5.230469 6.800782 7.234375 2.152344 2 5.199218 3.933594 9.140625 5.785156 3.9375 1.851563 7.097656 3.265625 9.476562 4.226563 2.375.964843 5.796875 2.265625 10.253907 3.894531v52.285156c-6.585938-.445312-12.386719-2.148437-17.402344-5.117187-5.019532-2.964844-8.957032-5.742188-11.828125-8.34375-2.871094-2.59375-5.1875-3.894531-6.949219-3.894531-2.664062 0-5.023438 1.410156-7.09375 4.230468-2.070312 2.820313-3.101562 5.636719-3.101562 8.453125 0 5.996094 4.496093 11.878907 13.488281 17.644531 8.992187 5.769532 19.957031 8.726563 32.886719 8.878907v6.78125c0 1.316406.628906 2.484375 1.894531 3.507812 1.261719 1.015625 2.789062 1.527344 4.570312 1.527344 1.632813 0 3.15625-.511719 4.570313-1.53125 1.414062-1.023437 2.117187-2.191406 2.117187-3.507813v-7.449218c12.417969-1.789063 22.246094-6.601563 29.492188-14.429688 7.242187-7.832031 10.867187-18.386718 10.867187-31.667968 0-7.265626-1.109375-13.609376-3.324218-19.019532zm-48.847657-32.375c-7.210937-2.671875-12.617187-5.527344-16.222656-8.566406s-5.40625-7.453125-5.40625-13.242188c0-10.699218 7.207031-16.945312 21.628906-18.726562zm10.480469 75.871094v-46.945312c6.242188 2.667968 11.070312 5.863281 14.492188 9.566406 3.417968 3.707031 5.128906 8.824218 5.128906 15.351562 0 12.3125-6.542969 19.65625-19.621094 22.027344zm0 0" fill="url(#o)"/></svg>