<svg height="512pt" viewBox="-62 0 511 512" width="512pt" xmlns="http://www.w3.org/2000/svg" xmlns:xlink="http://www.w3.org/1999/xlink"><linearGradient id="a"><stop offset="0" stop-color="#ff6e3a"/><stop offset=".1596" stop-color="#ff6440"/><stop offset=".4266" stop-color="#ff4b52"/><stop offset=".7662" stop-color="#ff216e"/><stop offset="1" stop-color="#ff0084"/></linearGradient><linearGradient id="b" gradientUnits="userSpaceOnUse" x1="193.593381" x2="193.593381" xlink:href="#a" y1="144.3721153682" y2="283.6296497152"/><linearGradient id="c"><stop offset="0" stop-color="#e58200" stop-opacity="0"/><stop offset=".2413" stop-color="#da760f" stop-opacity=".243137"/><stop offset=".7044" stop-color="#bc5737" stop-opacity=".705882"/><stop offset="1" stop-color="#a64153"/></linearGradient><linearGradient id="d" gradientUnits="userSpaceOnUse" x1="193.593381" x2="193.593381" xlink:href="#c" y1="85.5352587142" y2="175.7269084488"/><linearGradient id="e" gradientUnits="userSpaceOnUse" x1="19.1651460504" x2="131.386358192" y1="148.2116150572" y2="188.7735775842"><stop offset="0" stop-color="#ffd459"/><stop offset=".1792" stop-color="#ffd152"/><stop offset=".4408" stop-color="#ffca3e"/><stop offset=".7513" stop-color="#ffbf1f"/><stop offset="1" stop-color="#ffb400"/></linearGradient><linearGradient id="f" gradientUnits="userSpaceOnUse" x1="104.6667733776" x2="169.653856988" y1="173.740247203" y2="173.740247203"><stop offset="0" stop-color="#e58200" stop-opacity="0"/><stop offset=".1923" stop-color="#de7b09" stop-opacity=".192157"/><stop offset=".5014" stop-color="#cd6920" stop-opacity=".501961"/><stop offset=".8866" stop-color="#b04b46" stop-opacity=".886275"/><stop offset="1" stop-color="#a64153"/></linearGradient><linearGradient id="g"><stop offset="0" stop-color="#e58200" stop-opacity="0"/><stop offset=".0396" stop-color="#e27f04" stop-opacity=".039216"/><stop offset=".4671" stop-color="#c15d2f" stop-opacity=".466667"/><stop offset=".8016" stop-color="#ad4949" stop-opacity=".8"/><stop offset="1" stop-color="#a64153"/></linearGradient><linearGradient id="h" gradientUnits="userSpaceOnUse" x1="89.7940705164" x2="89.7940705164" xlink:href="#g" y1="93.2390549656" y2="49.6363130928"/><linearGradient id="i" gradientUnits="userSpaceOnUse" x1="89.7940705164" x2="89.7940705164" xlink:href="#g" y1="152.7298664104" y2="121.9640743672"/><linearGradient id="j" gradientUnits="userSpaceOnUse" x1="89.7940705164" x2="89.7940705164" xlink:href="#g" y1="212.2206778552" y2="174.810930016"/><linearGradient id="k" gradientUnits="userSpaceOnUse" x1="89.7940705164" x2="89.7940705164" xlink:href="#g" y1="278.4717996558" y2="227.944505788"/><linearGradient id="l"><stop offset="0" stop-color="#ffd459"/><stop offset=".2296" stop-color="#ffd355"/><stop offset=".4362" stop-color="#ffcf4a"/><stop offset=".634" stop-color="#ffc838"/><stop offset=".825" stop-color="#ffbf1f"/><stop offset="1" stop-color="#ffb400"/></linearGradient><linearGradient id="m" gradientTransform="matrix(.0351373 1.003319 1.003319 -.0351373 714.094278 -1113.982093)" gradientUnits="userSpaceOnUse" x1="1268.8142" x2="1304.865" xlink:href="#l" y1="-581.0238" y2="-529.9982"/><linearGradient id="n" gradientTransform="matrix(.0351373 1.003319 1.003319 -.0351373 714.094278 -1113.982093)" gradientUnits="userSpaceOnUse" x1="1301.7258" x2="1269.5424" xlink:href="#g" y1="-532.6141" y2="-578.5344"/><linearGradient id="o" gradientTransform="matrix(.0351373 1.003319 1.003319 -.0351373 714.094278 -1113.982093)" gradientUnits="userSpaceOnUse" x1="1244.493" x2="1268.9752" xlink:href="#g" y1="-603.401" y2="-565.1475"/><linearGradient id="p" gradientTransform="matrix(.0351373 1.003319 1.003319 -.0351373 714.094278 -1113.982093)" gradientUnits="userSpaceOnUse" x1="1291.51" x2="1257.1152" xlink:href="#g" y1="-549.4642" y2="-597.0453"/><linearGradient id="q" gradientTransform="matrix(.0351373 1.003319 1.003319 -.0351373 714.094278 -1113.982093)" gradientUnits="userSpaceOnUse" x1="1256.7852" x2="1318.6008" xlink:href="#g" y1="-603.4402" y2="-523.3741"/><radialGradient id="r" cx="254.2417145108" cy="78.2072304674" gradientUnits="userSpaceOnUse" r="43.5306602732" xlink:href="#l"/><linearGradient id="s"><stop offset="0" stop-color="#be3f45" stop-opacity="0"/><stop offset="1" stop-color="#be3f45"/></linearGradient><linearGradient id="t" gradientTransform="matrix(.0351373 1.003319 1.003319 -.0351373 714.094278 -1113.982093)" gradientUnits="userSpaceOnUse" x1="1168.0459" x2="1168.0459" xlink:href="#s" y1="-543.9681" y2="-463.4942"/><linearGradient id="u" gradientTransform="matrix(0 1.003922 1.003922 0 702.623671 -1186.593129)" gradientUnits="userSpaceOnUse" x1="1478.8732" x2="1415.6125" xlink:href="#s" y1="-506.0221" y2="-532.0358"/><linearGradient id="v" gradientTransform="matrix(-.408596 .916982 .916982 .408596 757.444214 -1972.977343)" gradientUnits="userSpaceOnUse" x1="2169.9971" x2="2206.0479" xlink:href="#l" y1="372.5202" y2="423.5457"/><linearGradient id="w" gradientTransform="matrix(-.408596 .916982 .916982 .408596 757.444214 -1972.977343)" gradientUnits="userSpaceOnUse" x1="2202.9087" x2="2170.7251" xlink:href="#g" y1="420.9299" y2="375.0096"/><linearGradient id="x" gradientTransform="matrix(-.408596 .916982 .916982 .408596 757.444214 -1972.977343)" gradientUnits="userSpaceOnUse" x1="2145.6758" x2="2170.1582" xlink:href="#g" y1="350.143" y2="388.3965"/><linearGradient id="y" gradientTransform="matrix(-.408596 .916982 .916982 .408596 757.444214 -1972.977343)" gradientUnits="userSpaceOnUse" x1="2192.6929" x2="2158.2981" xlink:href="#g" y1="404.0797" y2="356.4987"/><linearGradient id="z" gradientTransform="matrix(-.408596 .916982 .916982 .408596 757.444214 -1972.977343)" gradientUnits="userSpaceOnUse" x1="2157.968" x2="2219.7837" xlink:href="#g" y1="350.1037" y2="430.1699"/><radialGradient id="A" cx="327.4654761702" cy="112.666150372" gradientUnits="userSpaceOnUse" r="43.9241976972" xlink:href="#l"/><linearGradient id="B" gradientTransform="matrix(-.408596 .916982 .916982 .408596 757.444214 -1972.977343)" gradientUnits="userSpaceOnUse" x1="2069.2288" x2="2069.2288" xlink:href="#s" y1="409.5758" y2="490.0498"/><linearGradient id="C" gradientUnits="userSpaceOnUse" x1="199.1235857292" x2="477.6876458168" xlink:href="#a" y1="339.192114374" y2="339.192114374"/><linearGradient id="D" gradientUnits="userSpaceOnUse" x1="193.593381" x2="193.593381" xlink:href="#c" y1="468.6863064866" y2="507.9401586476"/><linearGradient id="E" gradientUnits="userSpaceOnUse" x1="247.629984611" x2="159.0626806724" xlink:href="#c" y1="306.233355114" y2="51.7189492818"/><linearGradient id="F"><stop offset="0" stop-color="#3b395f"/><stop offset=".8022" stop-color="#1b1f3a"/><stop offset="1" stop-color="#131830"/></linearGradient><linearGradient id="G" gradientUnits="userSpaceOnUse" x1="92.8531212426" x2="111.9617725906" xlink:href="#F" y1="207.476042091" y2="207.476042091"/><linearGradient id="H" gradientUnits="userSpaceOnUse" x1="283.0205441316" x2="302.1291954796" xlink:href="#F" y1="207.476042091" y2="207.476042091"/><linearGradient id="I" gradientUnits="userSpaceOnUse" x1="371.5338370666" x2="24.5008910882" xlink:href="#c" y1="445.3752376466" y2="98.3422916682"/><linearGradient id="J" gradientUnits="userSpaceOnUse" x1="187.5575007594" x2="187.5575007594" y1="198.4202640822" y2="379.5218697424"><stop offset="0" stop-color="#8be1e2"/><stop offset=".1873" stop-color="#87e1e1"/><stop offset=".3558" stop-color="#7ce2dd"/><stop offset=".5172" stop-color="#6ae2d7"/><stop offset=".6741" stop-color="#50e4ce"/><stop offset=".8278" stop-color="#2fe5c2"/><stop offset=".9772" stop-color="#07e7b4"/><stop offset="1" stop-color="#00e7b2"/></linearGradient><path d="m362.542969 133.222656-.445313.21875c-15.109375 7.375-32.796875 7.289063-47.835937-.230468-15.234375-7.433594-33.035157-7.433594-48.257813 0l-.011718.011718c-15.234376 7.433594-33.035157 7.433594-48.269532 0l-.011718-.011718c-15.222657-7.433594-33.023438-7.433594-48.257813 0l-.011719.011718c-15.222656 7.433594-33.039062 7.433594-48.261718 0h-.011719c-7.609375-3.722656-15.867188-5.585937-24.128907-5.585937-8.34375 0-16.691406 1.902343-24.382812 5.707031-15.101562 7.464844-32.871094 7.269531-48.015625-.121094-11.148437-5.441406-24.140625 2.675782-24.140625 15.082032v288.851562c0 19.933594 16.160156 36.097656 36.097656 36.097656h313.988282c19.9375 0 36.097656-16.164062 36.097656-36.097656v-288.851562c0-12.40625-12.992188-20.523438-24.140625-15.082032zm0 0" fill="url(#b)"/><path d="m362.542969 133.222656-.445313.21875c-15.109375 7.375-32.796875 7.289063-47.835937-.230468-15.234375-7.433594-33.035157-7.433594-48.257813 0l-.011718.011718c-15.234376 7.433594-33.035157 7.433594-48.269532 0l-.011718-.011718c-15.222657-7.433594-33.023438-7.433594-48.257813 0l-.011719.011718c-15.222656 7.433594-33.039062 7.433594-48.261718 0h-.011719c-7.609375-3.722656-15.867188-5.585937-24.128907-5.585937-8.34375 0-16.691406 1.902343-24.382812 5.707031-15.101562 7.464844-32.871094 7.269531-48.015625-.121094-11.148437-5.441406-24.140625 2.675782-24.140625 15.082032v288.851562c0 19.933594 16.160156 36.097656 36.097656 36.097656h313.988282c19.9375 0 36.097656-16.164062 36.097656-36.097656v-288.851562c0-12.40625-12.992188-20.523438-24.140625-15.082032zm0 0" fill="url(#d)"/><path d="m162.46875 173.738281c0-95.953125-32.539062-173.738281-72.675781-173.738281s-72.671875 77.785156-72.671875 173.738281c0 95.957031 32.535156 173.742188 72.671875 173.742188s72.675781-77.785157 72.675781-173.742188zm0 0" fill="url(#e)"/><path d="m162.46875 173.738281c0-95.953125-32.539062-173.738281-72.675781-173.738281v347.480469c40.136719 0 72.675781-77.785157 72.675781-173.742188zm0 0" fill="url(#f)"/><path d="m110.648438 71.660156h-41.710938c-6.0625 0-10.976562 4.914063-10.976562 10.976563s4.914062 10.976562 10.976562 10.976562h41.710938c6.0625 0 10.976562-4.914062 10.976562-10.976562s-4.914062-10.976563-10.976562-10.976563zm0 0" fill="url(#h)"/><path d="m110.648438 132.394531h-41.710938c-6.0625 0-10.976562 4.914063-10.976562 10.976563s4.914062 10.976562 10.976562 10.976562h41.710938c6.0625 0 10.976562-4.914062 10.976562-10.976562s-4.914062-10.976563-10.976562-10.976563zm0 0" fill="url(#i)"/><path d="m110.648438 193.132812h-41.710938c-6.0625 0-10.976562 4.914063-10.976562 10.976563s4.914062 10.976563 10.976562 10.976563h41.710938c6.0625 0 10.976562-4.914063 10.976562-10.976563s-4.914062-10.976563-10.976562-10.976563zm0 0" fill="url(#j)"/><path d="m110.648438 253.867188h-41.710938c-6.0625 0-10.976562 4.914062-10.976562 10.976562s4.914062 10.976562 10.976562 10.976562h41.710938c6.0625 0 10.976562-4.914062 10.976562-10.976562s-4.914062-10.976562-10.976562-10.976562zm0 0" fill="url(#k)"/><path d="m298.214844 82.976562c-.140625.398438-.285156.796876-.421875 1.195313-3.949219 10.570313-13.070313 18.398437-13.164063 21.15625-.097656 2.863281-.820312 4.660156-.820312 4.660156-27.363282 108.195313-149.390625 224.28125-149.390625 224.28125-4.773438 5.679688-13.355469 6.203125-18.027344.0625-.28125-.363281-.417969-.539062-.695313-.902343-3.371093-4.371094-9.03125-5.570313-13.949218-3.199219-.402344.191406-.605469.292969-1.011719.488281-9.667969 4.605469-19.8125-6.089844-16.222656-15.6875.132812-.433594.203125-.65625.339843-1.09375 1.664063-5.277344-.246093-10.996094-4.628906-14-.355468-.25-.539062-.371094-.902344-.621094-7.6875-5.300781-6.738281-16.546875.738282-21.386718 4.128906-3.632813 6.175781-5.492188 10.234375-9.28125.527343-.726563 1.136719-1.398438 1.824219-2.015626.117187-.707031.179687-1.429687.171874-2.167968.003907-.457032 0-.679688-.003906-1.136719-.042968-4.84375 2.277344-8.71875 5.59375-11.011719 49.378906-50.855468 86.210938-110.953125 111.472656-176.5.003907-.011718.003907-.015625.003907-.023437.300781-.753907.585937-1.511719.867187-2.265625 1.195313-2.402344 3.171875-4.488282 5.964844-5.839844l1.046875-.503906c5.078125-2.453125 7.980469-7.910156 7.175781-13.496094l-.164062-1.148438c-1.609375-11.132812 10.777344-18.867187 20.074218-12.546874l.964844.652343c4.664063 3.167969 10.84375 2.949219 15.273438-.535156l.914062-.714844c8.835938-6.957031 21.730469-.105469 20.90625 11.113281l-.082031 1.15625c-.414063 5.625 2.863281 10.871094 8.097656 12.964844l1.082031.429688c6.320313 2.527344 9.003907 8.878906 7.882813 14.578125-.375 1.117187-.757813 2.230469-1.144531 3.339843zm0 0" fill="url(#m)"/><path d="m116.390625 334.332031c-.28125-.363281-.417969-.539062-.695313-.902343-3.371093-4.371094-9.03125-5.570313-13.949218-3.199219-.402344.191406-.605469.292969-1.011719.488281 0 0 82.988281-54.332031 147.195313-214.414062 13.085937-32.625 24.4375-55.09375 34.160156-69.722657.28125 1.230469.386718 2.542969.289062 3.925781l-.085937 1.15625c-.410157 5.625 2.863281 10.871094 8.101562 12.964844l1.078125.429688c6.320313 2.527344 9.003906 8.878906 7.882813 14.578125-.371094 1.121093-.753907 2.234375-1.140625 3.339843-.136719.398438-.28125.796876-.421875 1.195313-3.949219 10.570313-13.070313 18.398437-13.164063 21.15625-.097656 2.863281-.820312 4.660156-.820312 4.660156-27.363282 108.199219-149.386719 224.28125-149.386719 224.28125-4.777344 5.679688-13.359375 6.203125-18.03125.0625zm0 0" fill="url(#n)"/><path d="m92.117188 266.632812c.117187-.707031.179687-1.429687.171874-2.167968 0-.457032 0-.679688-.003906-1.136719-.046875-4.84375 2.277344-8.71875 5.59375-11.011719 49.375-50.855468 86.210938-110.953125 111.472656-176.5.003907-.011718.003907-.015625.003907-.023437.296875-.753907.585937-1.511719.867187-2.265625 1.191406-2.402344 3.171875-4.488282 5.964844-5.839844l1.046875-.503906c5.074219-2.453125 7.976563-7.910156 7.175781-13.496094l-.167968-1.148438c-.964844-6.6875 3.121093-12.140624 8.550781-14.066406-3.035157 12.074219-12.027344 28.425782-18.535157 44.378906-54.832031 134.390626-134.199218 195.078126-134.199218 195.078126 4.128906-3.632813 6.175781-5.492188 10.234375-9.28125.527343-.726563 1.136719-1.398438 1.824219-2.015626zm0 0" fill="url(#o)"/><path d="m84.511719 315.03125s85.597656-59.058594 141.679687-210.285156c9.921875-26.75 18.101563-46.898438 24.847656-61.957032 3.324219.390626 6.757813-.511718 9.515626-2.679687l.917968-.71875c7.746094-6.097656 18.613282-1.578125 20.613282 7.191406-9.722657 14.628907-21.074219 37.097657-34.15625 69.71875-64.207032 160.082031-147.195313 214.414063-147.195313 214.414063-9.667969 4.609375-19.8125-6.085938-16.222656-15.683594zm0 0" fill="url(#p)"/><path d="m84.851562 313.9375c1.660157-5.277344-.246093-10.996094-4.628906-14-.355468-.25-.539062-.371094-.902344-.621094-7.691406-5.300781-6.742187-16.546875.738282-21.386718 0 0 79.363281-60.6875 134.199218-195.078126 6.503907-15.949218 15.492188-32.296874 18.53125-44.371093 3.609376-1.285157 7.8125-1.015625 11.53125 1.511719l.960938.652343c1.761719 1.195313 3.742188 1.90625 5.757812 2.144531-6.746093 15.058594-14.925781 35.207032-24.84375 61.957032-56.085937 151.222656-141.683593 210.285156-141.683593 210.285156.132812-.433594.203125-.65625.339843-1.09375zm0 0" fill="url(#q)"/><path d="m264.167969 116.421875c9.296875 6.320313 21.683593-1.414063 20.074219-12.546875l-.164063-1.15625c-.804687-5.578125 2.097656-11.035156 7.175781-13.492188l1.046875-.507812c2.75-1.328125 4.71875-3.378906 5.914063-5.742188.542968-1.0625.921875-2.1875 1.140625-3.339843 1.121093-5.699219-1.5625-12.050781-7.882813-14.582031l-1.078125-.429688c-5.238281-2.09375-8.511719-7.335938-8.101562-12.964844l.085937-1.15625c.824219-11.214844-12.070312-18.070312-20.90625-11.113281l-.914062.71875c-4.433594 3.484375-10.613282 3.699219-15.277344.535156l-.960938-.65625c-9.300781-6.320312-21.683593 1.417969-20.078124 12.550781l.164062 1.148438c.804688 5.582031-2.097656 11.042969-7.171875 13.496094l-1.050781.503906c-2.789063 1.351562-4.769532 3.4375-5.960938 5.839844-.359375.726562-.652344 1.488281-.867187 2.265625 0 .003906 0 .011719-.007813.023437-1.628906 5.929688.984375 12.863282 7.664063 15.535156l1.082031.433594c5.234375 2.09375 8.511719 7.335938 8.097656 12.957032l-.082031 1.164062c-.828125 11.21875 12.070313 18.070312 20.90625 11.113281l.914063-.71875c4.429687-3.488281 10.609374-3.703125 15.273437-.53125zm0 0" fill="url(#r)"/><path d="m257.882812 89.835938c3.5 2.378906 8.160157-.535157 7.554688-4.722657l-.0625-.433593c-.300781-2.101563.789062-4.15625 2.703125-5.082032l.390625-.191406c1.035156-.496094 1.777344-1.269531 2.226562-2.160156.203126-.398438.347657-.824219.429688-1.257813.421875-2.144531-.589844-4.535156-2.96875-5.488281l-.40625-.160156c-1.96875-.789063-3.203125-2.761719-3.046875-4.878906l.03125-.433594c.308594-4.222656-4.542969-6.804688-7.871094-4.183594l-.34375.269531c-1.667969 1.3125-3.992187 1.390625-5.75.199219l-.359375-.246094c-3.5-2.378906-8.164062.535156-7.558594 4.722656l.0625.433594c.304688 2.101563-.789062 4.15625-2.699218 5.082032l-.394532.1875c-1.050781.511718-1.796874 1.296874-2.246093 2.199218-.136719.273438-.246094.558594-.328125.851563v.011719c-.613282 2.230468.367187 4.839843 2.882812 5.84375l.40625.164062c1.972656.789062 3.207032 2.761719 3.050782 4.878906l-.03125.4375c-.3125 4.222656 4.542968 6.800782 7.867187 4.183594l.34375-.269531c1.671875-1.316407 3.996094-1.398438 5.75-.203125zm0 0" fill="url(#t)"/><path d="m137.492188 331.277344c9.78125-9.644532 41.429687-41.757813 73.304687-83.957032h.003906c13.386719-17.722656 26.808594-37.234374 38.675781-57.597656-78.019531 57.539063-138.441406 75.558594-161.058593 80.675782-1.214844 1.125-2.269531 2.09375-3.339844 3.066406 2.980469 1.484375 5.199219 4.234375 5.929687 7.78125.011719.054687.023438.109375.027344.164062.046875.21875.078125.382813.113282.574219h.007812c.023438.113281.046875.230469.078125.378906.023437.136719.050781.265625.085937.398438.027344.105469.046876.210937.078126.320312.011718.046875.023437.09375.042968.140625.027344.125.0625.25.105469.367188.054687.167968.105469.335937.167969.5.015625.054687.035156.105468.050781.15625h.007813c.078124.199218.152343.390625.238281.582031.050781.121094.109375.246094.171875.371094.027344.066406.0625.125.09375.183593.007812.019532.011718.035157.023437.054688.007813.003906.007813.015625.011719.023438.078125.15625.160156.304687.25.445312.089844.152344.183594.304688.277344.449219.078125.125.164062.25.25.371093.21875.308594.453125.597657.703125.882813.109375.125.230469.253906.347656.375.121094.121094.242187.242187.367187.359375.125.113281.25.234375.382813.339844zm0 0" fill="url(#u)"/><path d="m364.886719 136.238281c-.296875.300781-.601563.59375-.902344.890625-8.183594 7.765625-19.816406 10.800782-21.109375 13.238282-1.34375 2.527343-2.785156 3.828124-2.785156 3.828124-72.046875 85.226563-232.628906 136.019532-232.628906 136.019532-6.78125 3.007812-14.722657-.28125-16.230469-7.851563-.089844-.449219-.132813-.667969-.226563-1.117187-1.109375-5.40625-5.671875-8.964844-11.132812-8.992188-.445313-.003906-.671875 0-1.125-.007812-10.707032-.097656-15.128906-14.164063-7.695313-21.210938.308594-.332031.46875-.5.785157-.832031 3.808593-4.015625 4.601562-9.992187 1.984374-14.613281-.214843-.382813-.324218-.570313-.542968-.953125-4.582032-8.140625 1.203125-17.828125 10.042968-18.898438 5.308594-1.453125 7.960938-2.222656 13.273438-3.851562.789062-.421875 1.632812-.761719 2.519531-1.011719.417969-.582031.792969-1.207031 1.109375-1.875.203125-.40625.296875-.609375.492188-1.023438 2.085937-4.371093 5.875-6.835937 9.859375-7.441406 66.679687-24.039062 126.144531-61.886718 177.59375-109.710937.011719-.007813.015625-.015625.015625-.019531.601562-.546876 1.191406-1.101563 1.773437-1.65625 2.128907-1.632813 4.820313-2.640626 7.921875-2.628907l1.160156.003907c5.640626.023437 10.644532-3.613282 12.371094-8.984376l.355469-1.101562c3.4375-10.710938 17.960937-12.230469 23.542969-2.46875l.582031 1.007812c2.800781 4.890626 8.449219 7.410157 13.960937 6.21875l1.136719-.242187c10.992188-2.375 19.574219 9.4375 13.910157 19.15625l-.582032 1.003906c-2.839844 4.875-2.195312 11.023438 1.59375 15.203125l.78125.859375c4.570313 5.046875 4.195313 11.929688.6875 16.5625-.824218.84375-1.65625 1.675781-2.492187 2.5zm0 0" fill="url(#v)"/><path d="m91.234375 282.363281c-.09375-.449219-.136719-.667969-.230469-1.117187-1.109375-5.40625-5.671875-8.964844-11.132812-8.992188-.445313-.003906-.671875 0-1.121094-.007812 0 0 98.40625-12.421875 226.332031-128.113282 26.070313-23.578124 46.125-38.792968 61.28125-47.675781-.289062 1.230469-.765625 2.460938-1.464843 3.65625l-.582032 1c-2.839844 4.878907-2.195312 11.027344 1.59375 15.207031l.78125.855469c4.570313 5.046875 4.195313 11.933594.691406 16.5625-.828124.839844-1.660156 1.675781-2.492187 2.5-.300781.296875-.605469.589844-.90625.886719-8.183594 7.769531-19.8125 10.800781-21.109375 13.238281-1.339844 2.53125-2.78125 3.828125-2.78125 3.828125-72.050781 85.230469-232.632812 136.023438-232.632812 136.023438-6.78125 3.011718-14.722657-.28125-16.226563-7.851563zm0 0" fill="url(#w)"/><path d="m99.113281 210.878906c.417969-.585937.792969-1.207031 1.109375-1.875.203125-.410156.296875-.613281.492188-1.023437 2.085937-4.371094 5.875-6.835938 9.859375-7.441407 66.679687-24.039062 126.144531-61.890624 177.59375-109.710937.011719-.007813.015625-.015625.015625-.019531.601562-.550782 1.191406-1.101563 1.773437-1.65625 2.128907-1.632813 4.820313-2.640625 7.921875-2.632813l1.160156.007813c5.640626.019531 10.644532-3.613282 12.371094-8.984375l.355469-1.101563c2.0625-6.433594 8.128906-9.546875 13.851563-8.894531-8.027344 9.519531-23.277344 20.269531-36.125 31.753906-108.226563 96.714844-206.167969 116.441407-206.167969 116.441407 5.304687-1.457032 7.957031-2.226563 13.269531-3.851563.789062-.425781 1.632812-.761719 2.519531-1.011719zm0 0" fill="url(#x)"/><path d="m71.050781 251.039062s102.832031-15.53125 219.566407-126.828124c20.648437-19.6875 36.835937-34.207032 49.503906-44.777344 2.820312 1.808594 6.300781 2.503906 9.730468 1.765625l1.136719-.242188c9.636719-2.082031 17.421875 6.746094 15.371094 15.503907-15.152344 8.882812-35.210937 24.09375-61.28125 47.671874-127.921875 115.691407-226.328125 128.113282-226.328125 128.113282-10.710938-.097656-15.132812-14.160156-7.699219-21.207032zm0 0" fill="url(#y)"/><path d="m71.835938 250.203125c3.808593-4.015625 4.601562-9.992187 1.984374-14.613281-.214843-.378906-.324218-.570313-.542968-.953125-4.582032-8.136719 1.203125-17.828125 10.046875-18.898438 0 0 97.945312-19.722656 206.167969-116.441406 12.847656-11.476563 28.09375-22.226563 36.121093-31.742187 3.808594.425781 7.46875 2.515624 9.699219 6.414062l.578125 1.011719c1.058594 1.84375 2.523437 3.355469 4.234375 4.449219-12.667969 10.574218-28.859375 25.09375-49.507812 44.78125-116.734376 111.296874-219.566407 126.828124-219.566407 126.828124.3125-.335937.46875-.503906.785157-.835937zm0 0" fill="url(#z)"/><path d="m319.621094 151.359375c5.582031 9.761719 20.105468 8.242187 23.546875-2.46875l.355469-1.105469c1.726562-5.367187 6.730468-9 12.367187-8.980468h1.164063c3.054687.015624 5.722656-.960938 7.835937-2.566407.953125-.710937 1.785156-1.558593 2.492187-2.496093 3.503907-4.632813 3.878907-11.515626-.691406-16.5625l-.78125-.859376c-3.789062-4.179687-4.433594-10.328124-1.59375-15.203124l.582032-1.003907c5.664062-9.71875-2.917969-21.53125-13.910157-19.15625l-1.136719.246094c-5.511718 1.1875-11.160156-1.332031-13.960937-6.222656l-.578125-1.007813c-5.585938-9.761718-20.109375-8.242187-23.546875 2.46875l-.355469 1.101563c-1.726562 5.371093-6.730468 9.007812-12.367187 8.984375l-1.164063-.003906c-3.101562-.011719-5.792968.996093-7.921875 2.628906-.640625.496094-1.238281 1.054687-1.769531 1.65625-.003906.003906-.007812.011718-.015625.019531-4.070313 4.613281-4.761719 11.992187.070313 17.320313l.78125.867187c3.785156 4.175781 4.429687 10.324219 1.59375 15.195313l-.585938 1.007812c-5.660156 9.71875 2.921875 21.535156 13.910156 19.160156l1.140625-.246094c5.511719-1.191406 11.160157 1.324219 13.960938 6.21875zm0 0" fill="url(#A)"/><path d="m325.632812 124.710938c2.101563 3.671874 7.570313 3.101562 8.863282-.929688l.136718-.417969c.648438-2.019531 2.53125-3.386719 4.652344-3.378906h.4375c1.148438.007813 2.152344-.363281 2.949219-.964844.359375-.269531.671875-.585937.9375-.941406 1.320313-1.742187 1.460937-4.332031-.261719-6.234375l-.292968-.320312c-1.425782-1.574219-1.667969-3.890626-.597657-5.722657l.21875-.378906c2.128907-3.660156-1.101562-8.105469-5.238281-7.210937l-.425781.089843c-2.074219.449219-4.199219-.5-5.253907-2.339843l-.21875-.378907c-2.101562-3.675781-7.570312-3.101562-8.863281.929688l-.132812.414062c-.648438 2.023438-2.53125 3.390625-4.65625 3.382813l-.4375-.003906c-1.167969-.003907-2.179688.375-2.980469.992187-.242188.183594-.46875.394531-.667969.621094 0 .003906-.003906.003906-.007812.007812-1.527344 1.734375-1.789063 4.515625.027343 6.519531l.292969.324219c1.425781 1.574219 1.667969 3.886719.601563 5.722657l-.21875.378906c-2.132813 3.65625 1.097656 8.105468 5.234375 7.210937l.429687-.089843c2.074219-.449219 4.199219.496093 5.253906 2.339843zm0 0" fill="url(#B)"/><path d="m362.542969 171.972656-.445313.21875c-15.109375 7.371094-32.796875 7.289063-47.835937-.230468-15.234375-7.433594-33.035157-7.433594-48.257813 0l-.011718.011718c-15.234376 7.433594-33.035157 7.433594-48.269532 0l-.011718-.011718c-15.222657-7.433594-33.023438-7.433594-48.257813 0l-.011719.011718c-15.222656 7.433594-33.039062 7.433594-48.261718 0h-.011719c-7.609375-3.722656-15.867188-5.585937-24.128907-5.585937-8.34375 0-16.691406 1.902343-24.382812 5.703125-15.101562 7.46875-32.871094 7.273437-48.015625-.117188-11.148437-5.441406-24.140625 2.675782-24.140625 15.078125v288.851563c0 19.9375 16.164062 36.097656 36.097656 36.097656h313.992188c19.933594 0 36.09375-16.160156 36.09375-36.097656v-288.851563c0-12.402343-12.992188-20.519531-24.140625-15.078125zm0 0" fill="url(#C)"/><path d="m.5 379.230469v96.671875c0 19.9375 16.164062 36.097656 36.097656 36.097656h313.992188c19.933594 0 36.09375-16.160156 36.09375-36.097656v-96.671875zm0 0" fill="url(#D)"/><path d="m362.542969 171.972656-.445313.21875c-15.109375 7.371094-32.796875 7.289063-47.835937-.230468-15.234375-7.433594-33.035157-7.433594-48.257813 0l-.011718.011718c-15.234376 7.433594-33.035157 7.433594-48.269532 0l-.011718-.011718c-15.222657-7.433594-33.023438-7.433594-48.257813 0l-.011719.011718c-15.222656 7.433594-33.039062 7.433594-48.261718 0h-.011719c-7.609375-3.722656-15.867188-5.585937-24.128907-5.585937-8.34375 0-16.691406 1.902343-24.382812 5.703125-15.101562 7.46875-32.871094 7.273437-48.015625-.117188-1.917969-.9375-3.890625-1.460937-5.839844-1.644531l340.585938 340.585937c15.679687-3.925781 27.296875-18.109374 27.296875-35.011718v-288.851563c0-12.402343-12.992188-20.519531-24.140625-15.078125zm0 0" fill="url(#E)"/><path d="m105.71875 207.476562c0 7.3125-5.929688 13.246094-13.246094 13.246094s-13.246094-5.933594-13.246094-13.246094c0-7.316406 5.929688-13.246093 13.246094-13.246093s13.246094 5.929687 13.246094 13.246093zm0 0" fill="url(#G)"/><path d="m295.886719 207.476562c0 7.3125-5.929688 13.246094-13.246094 13.246094s-13.246094-5.933594-13.246094-13.246094c0-7.316406 5.929688-13.246093 13.246094-13.246093s13.246094 5.929687 13.246094 13.246093zm0 0" fill="url(#H)"/><path d="m386.683594 474.773438v-175.703126l-90.835938-90.835937c-.394531 6.960937-6.148437 12.488281-13.207031 12.488281-3.210937 0-6.152344-1.144531-8.445313-3.046875v56.984375c0 27.890625-13.261718 52.726563-33.792968 68.582032l-134.839844-133.832032c-.9375 6.394532-6.433594 11.3125-13.089844 11.3125-3.878906 0-7.355468-1.679687-9.777344-4.335937v58.273437c0 30.199219 12.847657 57.4375 33.34375 76.589844l160.75 160.75h72.671876c20.558593 0 37.222656-16.667969 37.222656-37.226562zm0 0" fill="url(#I)"/><path d="m187.558594 379.523438c-57.820313 0-104.863282-47.042969-104.863282-104.863282v-67.128906c0-5.03125 4.078126-9.109375 9.113282-9.109375s9.113281 4.078125 9.113281 9.109375v67.128906c0 47.769532 38.863281 86.636719 86.636719 86.636719 47.773437 0 86.636718-38.867187 86.636718-86.636719v-67.128906c0-5.03125 4.078126-9.109375 9.113282-9.109375s9.113281 4.078125 9.113281 9.109375v67.128906c-.003906 57.820313-47.042969 104.863282-104.863281 104.863282zm0 0" fill="url(#J)"/></svg>