<svg height="511pt" viewBox="0 0 511.99942 511" width="511pt" xmlns="http://www.w3.org/2000/svg" xmlns:xlink="http://www.w3.org/1999/xlink"><linearGradient id="a"><stop offset="0" stop-color="#ff6e3a"/><stop offset=".1596" stop-color="#ff6440"/><stop offset=".4266" stop-color="#ff4b52"/><stop offset=".7662" stop-color="#ff216e"/><stop offset="1" stop-color="#ff0084"/></linearGradient><linearGradient id="b" gradientTransform="matrix(1.003922 -.00943686 .00943686 1.003922 -152.906893 144.611711)" gradientUnits="userSpaceOnUse" x1="375.241" x2="398.932" xlink:href="#a" y1="58.7069" y2="80.1416"/><linearGradient id="c" gradientUnits="userSpaceOnUse" x1="13.777323567" x2="226.6166181586" y1="270.6140238452" y2="483.4532180446"><stop offset="0" stop-color="#3b395f"/><stop offset=".8022" stop-color="#1b1f3a"/><stop offset="1" stop-color="#131830"/></linearGradient><linearGradient id="d" gradientUnits="userSpaceOnUse" x1="23.4574406676" x2="240.89610351" y1="280.2941409458" y2="497.7328037882"><stop offset="0" stop-color="#fffcf8"/><stop offset=".1875" stop-color="#faf8f6"/><stop offset=".4041" stop-color="#eceef2"/><stop offset=".6353" stop-color="#d5dcea"/><stop offset=".875" stop-color="#b5c4df"/><stop offset="1" stop-color="#a1b5d8"/></linearGradient><linearGradient id="e"><stop offset="0" stop-color="#a1b5d8" stop-opacity="0"/><stop offset=".0343" stop-color="#9fb3d5" stop-opacity=".035294"/><stop offset=".4515" stop-color="#8898af" stop-opacity=".45098"/><stop offset=".788" stop-color="#798898" stop-opacity=".788235"/><stop offset="1" stop-color="#748290"/></linearGradient><linearGradient id="f" gradientUnits="userSpaceOnUse" x1="127.2016358334" x2="127.2016358334" xlink:href="#e" y1="471.6771125924" y2="501.7414643342"/><linearGradient id="g" gradientUnits="userSpaceOnUse" x1="220.513475144" x2="122.7547633344" xlink:href="#e" y1="409.9426358698" y2="312.1839240602"/><linearGradient id="h" gradientUnits="userSpaceOnUse" x1="87.4719246444" x2="448.721008496" xlink:href="#e" y1="384.0382357194" y2="384.0382357194"/><linearGradient id="i" gradientUnits="userSpaceOnUse" x1="35.4320214992" x2="162.0167472636" y1="304.8575020886" y2="431.442227853"><stop offset="0" stop-color="#ffd459"/><stop offset=".2296" stop-color="#ffd355"/><stop offset=".4362" stop-color="#ffcf4a"/><stop offset=".634" stop-color="#ffc838"/><stop offset=".825" stop-color="#ffbf1f"/><stop offset="1" stop-color="#ffb400"/></linearGradient><linearGradient id="j" gradientUnits="userSpaceOnUse" x1="164.1782917218" x2="128.9403283452" y1="391.3257055174" y2="356.0877421408"><stop offset="0" stop-color="#e58200" stop-opacity="0"/><stop offset=".0396" stop-color="#e27f04" stop-opacity=".039216"/><stop offset=".4671" stop-color="#c15d2f" stop-opacity=".466667"/><stop offset=".8016" stop-color="#ad4949" stop-opacity=".8"/><stop offset="1" stop-color="#a64153"/></linearGradient><linearGradient id="k" gradientUnits="userSpaceOnUse" x1="54.1413126756" x2="144.4606612886" y1="316.48663336" y2="406.8060823652"><stop offset="0" stop-color="#c6e56f"/><stop offset=".3371" stop-color="#c4e56f"/><stop offset=".4953" stop-color="#bce36e"/><stop offset=".6162" stop-color="#afe16d"/><stop offset=".7182" stop-color="#9ddd6b"/><stop offset=".8083" stop-color="#85d968"/><stop offset=".8899" stop-color="#68d365"/><stop offset=".9635" stop-color="#46cd61"/><stop offset="1" stop-color="#32c95f"/></linearGradient><linearGradient id="l" gradientUnits="userSpaceOnUse" x1="149.2571998202" x2="130.9782900052" y1="389.0402770844" y2="351.9815003764"><stop offset=".0029" stop-color="#00e7b2" stop-opacity="0"/><stop offset=".4308" stop-color="#1bc4b7" stop-opacity=".427451"/><stop offset="1" stop-color="#3b9abe"/></linearGradient><linearGradient id="m" gradientUnits="userSpaceOnUse" x1="87.801512237" x2="140.596766295" xlink:href="#a" y1="348.924859063" y2="401.720113121"/><linearGradient id="n" gradientUnits="userSpaceOnUse" x1="139.578287426" x2="109.862698187" y1="398.8986907322" y2="369.183001101"><stop offset="0" stop-color="#e58200" stop-opacity="0"/><stop offset=".4384" stop-color="#c4602c" stop-opacity=".439216"/><stop offset=".7953" stop-color="#ae4948" stop-opacity=".796078"/><stop offset="1" stop-color="#a64153"/></linearGradient><linearGradient id="o" gradientTransform="matrix(.997496 .113845 -.113845 .997496 -150.006362 163.108163)" gradientUnits="userSpaceOnUse" x1="438.8699" x2="462.5609" xlink:href="#a" y1="-1.5072" y2="19.9275"/><path d="m421.144531 7.238281c9.367188 9.191407 9.40625 24.265625.089844 33.507813l-367.234375 358.746094c-5.21875 5.175781-13.625 5.195312-18.871094.050781-5.246094-5.148438-5.378906-13.554688-.304687-18.867188l352.820312-372.894531c9.0625-9.492188 24.136719-9.734375 33.5-.542969zm0 0" fill="url(#b)"/><path d="m173.59375 511.238281h-92.785156c-44.628906 0-80.808594-36.179687-80.808594-80.808593v-92.785157c0-44.628906 36.179688-80.808593 80.808594-80.808593h92.785156c44.628906 0 80.808594 36.179687 80.808594 80.808593v92.785157c0 44.628906-36.179688 80.808593-80.808594 80.808593zm0 0" fill="url(#c)"/><path d="m173.195312 498.421875h-91.988281c-37.769531 0-68.390625-30.617187-68.390625-68.390625v-91.988281c0-37.769531 30.621094-68.386719 68.390625-68.386719h91.988281c37.773438 0 68.390626 30.617188 68.390626 68.386719v91.988281c0 37.773438-30.617188 68.390625-68.390626 68.390625zm0 0" fill="url(#d)"/><path d="m14.175781 443.632812c6.304688 31.253907 33.917969 54.789063 67.03125 54.789063h91.988281c33.113282 0 60.726563-23.535156 67.035157-54.789063zm0 0" fill="url(#f)"/><path d="m75.648438 386.367188 110.855468 110.75c31.398438-6.191407 55.082032-33.867188 55.082032-67.085938v-91.988281c0-30.9375-20.550782-57.066407-48.746094-65.511719l-115.179688 95.070312c-5.6875 4.652344-6.585937 13.011719-2.011718 18.765626zm0 0" fill="url(#g)"/><path d="m164.527344 476.863281h-74.652344c-30.652344 0-55.5-24.847656-55.5-55.5v-74.652343c0-30.652344 24.847656-55.5 55.5-55.5h74.652344c30.652344 0 55.5 24.847656 55.5 55.5v74.652343c0 30.652344-24.847656 55.5-55.5 55.5zm0 0" fill="url(#h)"/><path d="m218.425781 433.785156c-7.609375 29.96875-34.773437 52.132813-67.125 52.132813h-24.433593c-54.753907 0-82.757813-37.988281-87.996094-68.796875-10.304688-60.695313 24.871094-107.75 78.546875-114.230469 66.394531-8.023437 93.347656 48.523437 87.308593 86.015625-.894531 5.546875-3.238281 10.664062-6.652343 15.285156-13.570313 18.347656-44.171875 28.714844-68.519531 26.289063-6.441407-.640625-12.277344-2.691407-17.378907-5.769531-19.007812-11.496094-27.703125-37.269532-18.847656-57.269532 11.226563-25.359375 60.226563-24.296875 61.445313 2.464844.089843 1.921875-.019532 3.683594-.300782 5.308594-1.792968 10.335937 10.226563 15.945312 16.066406 9.542968.761719-.820312 1.414063-1.84375 1.925782-3.082031 1.421875-3.488281 2.152344-7.742187 1.972656-12.902343-1.472656-42.035157-77.863281-60.875-103.222656 1.261718-10.5 25.722656 1.839844 63.691406 27.542968 81.621094 5.195313 3.625 10.726563 6.539062 16.464844 8.761719 36.367188 14.132812 81.046875 1.113281 103.203125-26.632813zm0 0" fill="url(#i)"/><path d="m154.769531 369.90625c.089844 1.925781-.019531 3.6875-.300781 5.308594-1.792969 10.335937 10.226562 15.945312 16.066406 9.546875.761719-.820313 1.414063-1.84375 1.925782-3.085938 1.421874-3.484375 2.152343-7.742187 1.972656-12.898437-.421875-11.839844-6.773438-21.847656-16.257813-28.714844l23.777344-18.101562c19 18.269531 26.191406 45.671874 22.765625 66.949218-.890625 5.546875-3.234375 10.664063-6.648438 15.28125-13.574218 18.347656-44.171874 28.714844-68.519531 26.292969-6.441406-.640625-12.277343-2.695313-17.378906-5.769531-12.039063-7.292969-19.941406-20.292969-21.863281-33.933594 1.433594-.460938 2.8125-1.179688 4.078125-2.152344l47.703125-36.320312c7.183594 3.304687 12.300781 9.175781 12.679687 17.597656zm0 0" fill="url(#j)"/><path d="m198.074219 374.230469v29.957031c-13.570313 18.351562-44.171875 28.714844-68.519531 26.292969-6.441407-.640625-12.277344-2.695313-17.378907-5.769531-19.007812-11.496094-27.703125-37.269532-18.847656-57.269532 11.226563-25.359375 60.226563-24.300781 61.445313 2.460938.089843 1.925781-.019532 3.6875-.300782 5.3125-1.792968 10.335937 10.226563 15.941406 16.066406 9.542968.761719-.820312 1.414063-1.84375 1.925782-3.085937 1.421875-3.484375 2.152344-7.742187 1.972656-12.898437-1.472656-42.035157-77.863281-60.878907-103.222656 1.261718-10.5 25.71875 1.839844 63.691406 27.542968 81.617188 5.195313 3.628906 10.726563 6.542968 16.464844 8.765625h-3.335937c-30.6875 0-55.558594-24.871094-55.558594-55.558594v-30.628906c0-30.6875 24.871094-55.554688 55.558594-55.554688h30.628906c30.6875 0 55.558594 24.867188 55.558594 55.554688zm0 0" fill="url(#k)"/><path d="m198.070312 374.234375v29.957031c-13.574218 18.347656-44.171874 28.714844-68.519531 26.292969-6.441406-.644531-12.277343-2.695313-17.378906-5.769531-12.039063-7.292969-19.941406-20.292969-21.863281-33.933594 1.433594-.460938 2.8125-1.183594 4.078125-2.152344l47.703125-36.320312c7.183594 3.304687 12.300781 9.175781 12.683594 17.597656.089843 1.925781-.023438 3.6875-.300782 5.308594-1.792968 10.335937 10.226563 15.945312 16.066406 9.546875.757813-.820313 1.410157-1.84375 1.921876-3.085938 1.421874-3.484375 2.152343-7.742187 1.972656-12.898437-.421875-11.839844-6.769532-21.847656-16.253906-28.714844l15.523437-11.8125c14.710937 9.996094 24.367187 26.855469 24.367187 45.984375zm0 0" fill="url(#l)"/><path d="m170.539062 384.757812c-.191406 11.679688-4.996093 22.246094-12.691406 29.929688-7.839844 7.851562-18.679687 12.699219-30.648437 12.699219-5.277344 0-10.34375-.941407-15.023438-2.671875-19.007812-11.5-27.703125-37.269532-18.847656-57.273438 11.226563-25.359375 60.226563-24.296875 61.445313 2.464844.089843 1.921875-.019532 3.683594-.300782 5.308594-1.792968 10.335937 10.230469 15.945312 16.066406 9.542968zm0 0" fill="url(#m)"/><path d="m154.472656 375.214844c.28125-1.625.390625-3.386719.300782-5.308594-1.21875-26.761719-50.21875-27.824219-61.445313-2.464844-5.355469 12.097656-4.28125 26.300782 1.601563 38.1875l20.007812 19.988282c3.890625 1.148437 8.003906 1.769531 12.261719 1.769531 11.96875 0 22.808593-4.847657 30.648437-12.699219 7.695313-7.683594 12.5-18.25 12.691406-29.929688-5.835937 6.402344-17.859374.792969-16.066406-9.542968zm0 0" fill="url(#n)"/><path d="m506.886719 44.390625c8.164062 10.269531 6.355469 25.238281-4.027344 33.265625l-408.476563 310.976562c-5.816406 4.492188-14.160156 3.484376-18.734374-2.265624-4.574219-5.753907-3.675782-14.113282 2.011718-18.765626l395.910156-326.785156c10.160157-8.304687 25.148438-6.695312 33.316407 3.574219zm0 0" fill="url(#o)"/></svg>