<svg height="512pt" viewBox="-28 0 511 512" width="512pt" xmlns="http://www.w3.org/2000/svg" xmlns:xlink="http://www.w3.org/1999/xlink"><linearGradient id="a"><stop offset="0" stop-color="#ffd459"/><stop offset=".2296" stop-color="#ffd355"/><stop offset=".4362" stop-color="#ffcf4a"/><stop offset=".634" stop-color="#ffc838"/><stop offset=".825" stop-color="#ffbf1f"/><stop offset="1" stop-color="#ffb400"/></linearGradient><radialGradient id="b" cx="255" cy="234.0067" gradientTransform="matrix(1.003922 0 0 -1.003922 -28.136862 623.419633)" gradientUnits="userSpaceOnUse" r="125.9094" xlink:href="#a"/><linearGradient id="c"><stop offset="0" stop-color="#e58200" stop-opacity="0"/><stop offset=".0396" stop-color="#e27f04" stop-opacity=".039216"/><stop offset=".4671" stop-color="#c15d2f" stop-opacity=".466667"/><stop offset=".8016" stop-color="#ad4949" stop-opacity=".8"/><stop offset="1" stop-color="#a64153"/></linearGradient><linearGradient id="d" gradientUnits="userSpaceOnUse" x1="227.863247" x2="227.863247" xlink:href="#c" y1="342.7827417992" y2="250.1410204236"/><linearGradient id="e"><stop offset="0" stop-color="#e58200" stop-opacity="0"/><stop offset=".3392" stop-color="#e38002" stop-opacity=".337255"/><stop offset=".5322" stop-color="#dd7a0b" stop-opacity=".533333"/><stop offset=".6884" stop-color="#d26f19" stop-opacity=".690196"/><stop offset=".8249" stop-color="#c35f2c" stop-opacity=".823529"/><stop offset=".9475" stop-color="#b04b46" stop-opacity=".94902"/><stop offset="1" stop-color="#a64153"/></linearGradient><radialGradient id="f" cx="256.8144" cy="237.6289" gradientTransform="matrix(1.003922 0 0 -.535291 -28.136863 512.063247)" gradientUnits="userSpaceOnUse" r="210.538" xlink:href="#e"/><linearGradient id="g"><stop offset="0" stop-color="#ff5d00"/><stop offset=".4516" stop-color="#ff5f02"/><stop offset=".6142" stop-color="#ff6608"/><stop offset=".7302" stop-color="#ff7113"/><stop offset=".8239" stop-color="#ff8223"/><stop offset=".9042" stop-color="#ff9838"/><stop offset=".974" stop-color="#ffb351"/><stop offset="1" stop-color="#ffbf5c"/></linearGradient><radialGradient id="h" cx="249.6632" cy="299.748" gradientTransform="matrix(1.003922 0 0 -1.003922 -28.136862 623.419633)" gradientUnits="userSpaceOnUse" r="189.4765" xlink:href="#g"/><linearGradient id="i"><stop offset="0" stop-color="#ff6e3a"/><stop offset=".1596" stop-color="#ff6440"/><stop offset=".4266" stop-color="#ff4b52"/><stop offset=".7662" stop-color="#ff216e"/><stop offset="1" stop-color="#ff0084"/></linearGradient><linearGradient id="j" gradientTransform="matrix(1.003922 0 0 -1.003922 -28.136862 623.419633)" gradientUnits="userSpaceOnUse" x1="215.4655" x2="243.0233" xlink:href="#i" y1="252.9894" y2="280.5473"/><linearGradient id="k" gradientTransform="matrix(1.003922 0 0 -1.003922 -28.136862 623.419633)" gradientUnits="userSpaceOnUse" x1="274.3485" x2="301.9064" xlink:href="#i" y1="252.9894" y2="280.5473"/><linearGradient id="l" gradientTransform="matrix(1.003922 0 0 -1.003922 -28.136862 623.419633)" gradientUnits="userSpaceOnUse" x1="165.8329" x2="193.3908" xlink:href="#i" y1="191.0822" y2="218.6401"/><linearGradient id="m" gradientTransform="matrix(1.003922 0 0 -1.003922 -28.136862 623.419633)" gradientUnits="userSpaceOnUse" x1="243.3949" x2="270.9528" xlink:href="#i" y1="174.538" y2="202.0959"/><linearGradient id="n" gradientTransform="matrix(1.003922 0 0 -1.003922 -28.136862 623.419633)" gradientUnits="userSpaceOnUse" x1="320.9568" x2="348.5147" xlink:href="#i" y1="191.0822" y2="218.6401"/><linearGradient id="o"><stop offset="0" stop-color="#ffbf5c" stop-opacity="0"/><stop offset="1" stop-color="#ffbf5c"/></linearGradient><linearGradient id="p" gradientTransform="matrix(1.003922 0 0 -1.003922 -28.136862 623.419633)" gradientUnits="userSpaceOnUse" x1="239.8175" x2="205.045" xlink:href="#o" y1="211.6526" y2="176.8802"/><linearGradient id="q"><stop offset="0" stop-color="#3b395f"/><stop offset=".0633" stop-color="#37355a"/><stop offset=".4033" stop-color="#232543"/><stop offset=".7232" stop-color="#171b35"/><stop offset="1" stop-color="#131830"/></linearGradient><linearGradient id="r" gradientTransform="matrix(1.003922 0 0 -1.003922 -28.136862 623.419633)" gradientUnits="userSpaceOnUse" x1="213.8734" x2="228.1337" xlink:href="#q" y1="185.7086" y2="199.9689"/><linearGradient id="s" gradientTransform="matrix(1.003922 0 0 -1.003922 -28.136862 623.419633)" gradientUnits="userSpaceOnUse" x1="320.1368" x2="285.3644" xlink:href="#o" y1="211.6526" y2="176.8802"/><linearGradient id="t" gradientTransform="matrix(1.003922 0 0 -1.003922 -28.136862 623.419633)" gradientUnits="userSpaceOnUse" x1="294.1927" x2="308.453" xlink:href="#q" y1="185.7086" y2="199.9689"/><linearGradient id="u" gradientTransform="matrix(1.003922 0 0 -1.003922 -28.136862 623.419633)" gradientUnits="userSpaceOnUse" x1="207.7965" x2="173.0241" xlink:href="#o" y1="264.4873" y2="229.7148"/><linearGradient id="v"><stop offset="0" stop-color="#c6e56f"/><stop offset=".3371" stop-color="#c4e56f"/><stop offset=".4953" stop-color="#bce36e"/><stop offset=".6162" stop-color="#afe16d"/><stop offset=".7182" stop-color="#9ddd6b"/><stop offset=".8083" stop-color="#85d968"/><stop offset=".8899" stop-color="#68d365"/><stop offset=".9635" stop-color="#46cd61"/><stop offset="1" stop-color="#32c95f"/></linearGradient><linearGradient id="w" gradientTransform="matrix(1.003922 0 0 -1.003922 -28.136862 623.419633)" gradientUnits="userSpaceOnUse" x1="181.8524" x2="196.1127" xlink:href="#v" y1="238.5432" y2="252.8035"/><linearGradient id="x" gradientTransform="matrix(1.003922 0 0 -1.003922 -28.136862 623.419633)" gradientUnits="userSpaceOnUse" x1="279.8437" x2="245.0713" xlink:href="#o" y1="254.0804" y2="219.308"/><linearGradient id="y" gradientTransform="matrix(1.003922 0 0 -1.003922 -28.136862 623.419633)" gradientUnits="userSpaceOnUse" x1="253.8997" x2="268.16" xlink:href="#v" y1="228.1364" y2="242.3967"/><linearGradient id="z" gradientTransform="matrix(1.003922 0 0 -1.003922 -28.136862 623.419633)" gradientUnits="userSpaceOnUse" x1="270.3935" x2="245.7702" xlink:href="#o" y1="318.5416" y2="293.9182"/><linearGradient id="A" gradientTransform="matrix(1.003922 0 0 -1.003922 -28.136862 623.419633)" gradientUnits="userSpaceOnUse" x1="253.8997" x2="268.16" xlink:href="#q" y1="302.0515" y2="316.3118"/><linearGradient id="B" gradientTransform="matrix(1.003922 0 0 -1.003922 -28.136862 623.419633)" gradientUnits="userSpaceOnUse" x1="337.0657" x2="318.2144" xlink:href="#o" y1="249.6582" y2="230.8069"/><linearGradient id="C" gradientTransform="matrix(1.003922 0 0 -1.003922 -28.136862 623.419633)" gradientUnits="userSpaceOnUse" x1="325.9469" x2="340.2072" xlink:href="#v" y1="238.5432" y2="252.8035"/><radialGradient id="D" cx="227.5282" cy="207.5455" gradientTransform="matrix(0 1.003922 -1.003922 0 540.080135 56.216998)" gradientUnits="userSpaceOnUse" r="125.9094" xlink:href="#a"/><linearGradient id="E" gradientTransform="matrix(-1.003922 0 0 1.003922 288.407739 0)" gradientUnits="userSpaceOnUse" x1="-16.2944" x2="4.4515" xlink:href="#c" y1="348.749" y2="369.4949"/><radialGradient id="F" cx="229.3427" cy="211.1676" gradientTransform="matrix(0 1.003922 -.535291 0 441.123887 56.216998)" gradientUnits="userSpaceOnUse" r="210.538" xlink:href="#e"/><radialGradient id="G" cx="222.1914" cy="273.2868" gradientTransform="matrix(0 1.003922 -1.003922 0 540.080135 56.216998)" gradientUnits="userSpaceOnUse" r="189.4765" xlink:href="#g"/><linearGradient id="H" gradientTransform="matrix(0 1.003922 -1.003922 0 540.080135 56.216998)" gradientUnits="userSpaceOnUse" x1="187.9937" x2="215.5516" xlink:href="#i" y1="226.5281" y2="254.086"/><linearGradient id="I" gradientTransform="matrix(0 1.003922 -1.003922 0 540.080135 56.216998)" gradientUnits="userSpaceOnUse" x1="246.8767" x2="274.4346" xlink:href="#i" y1="226.5281" y2="254.086"/><linearGradient id="J" gradientTransform="matrix(0 1.003922 -1.003922 0 540.080135 56.216998)" gradientUnits="userSpaceOnUse" x1="138.3611" x2="165.919" xlink:href="#i" y1="164.6209" y2="192.1788"/><linearGradient id="K" gradientTransform="matrix(0 1.003922 -1.003922 0 540.080135 56.216998)" gradientUnits="userSpaceOnUse" x1="215.9231" x2="243.481" xlink:href="#i" y1="148.0767" y2="175.6346"/><linearGradient id="L" gradientTransform="matrix(0 1.003922 -1.003922 0 540.080135 56.216998)" gradientUnits="userSpaceOnUse" x1="293.485" x2="321.0429" xlink:href="#i" y1="164.6209" y2="192.1788"/><linearGradient id="M" gradientTransform="matrix(0 1.003922 -1.003922 0 540.080135 56.216998)" gradientUnits="userSpaceOnUse" x1="212.3457" x2="177.5733" xlink:href="#o" y1="185.1914" y2="150.4189"/><linearGradient id="N" gradientTransform="matrix(0 1.003922 -1.003922 0 540.080135 56.216998)" gradientUnits="userSpaceOnUse" x1="186.4017" x2="200.662" xlink:href="#q" y1="159.2473" y2="173.5076"/><linearGradient id="O" gradientTransform="matrix(0 1.003922 -1.003922 0 540.080135 56.216998)" gradientUnits="userSpaceOnUse" x1="292.665" x2="257.8926" xlink:href="#o" y1="185.1914" y2="150.4189"/><linearGradient id="P" gradientTransform="matrix(0 1.003922 -1.003922 0 540.080135 56.216998)" gradientUnits="userSpaceOnUse" x1="266.721" x2="280.9813" xlink:href="#q" y1="159.2473" y2="173.5076"/><linearGradient id="Q" gradientTransform="matrix(0 1.003922 -1.003922 0 540.080135 56.216998)" gradientUnits="userSpaceOnUse" x1="180.3247" x2="145.5523" xlink:href="#o" y1="238.026" y2="203.2536"/><linearGradient id="R" gradientTransform="matrix(0 1.003922 -1.003922 0 540.080135 56.216998)" gradientUnits="userSpaceOnUse" x1="154.3807" x2="168.641" xlink:href="#v" y1="212.0819" y2="226.3422"/><linearGradient id="S" gradientTransform="matrix(0 1.003922 -1.003922 0 540.080135 56.216998)" gradientUnits="userSpaceOnUse" x1="252.372" x2="217.5995" xlink:href="#o" y1="227.6192" y2="192.8467"/><linearGradient id="T" gradientTransform="matrix(0 1.003922 -1.003922 0 540.080135 56.216998)" gradientUnits="userSpaceOnUse" x1="226.4279" x2="240.6882" xlink:href="#v" y1="201.6751" y2="215.9354"/><linearGradient id="U" gradientTransform="matrix(0 1.003922 -1.003922 0 540.080135 56.216998)" gradientUnits="userSpaceOnUse" x1="242.9218" x2="218.2984" xlink:href="#o" y1="292.0803" y2="267.4569"/><linearGradient id="V" gradientTransform="matrix(0 1.003922 -1.003922 0 540.080135 56.216998)" gradientUnits="userSpaceOnUse" x1="226.4279" x2="240.6882" xlink:href="#q" y1="275.5902" y2="289.8505"/><linearGradient id="W" gradientTransform="matrix(0 1.003922 -1.003922 0 540.080135 56.216998)" gradientUnits="userSpaceOnUse" x1="309.5939" x2="290.7426" xlink:href="#o" y1="223.197" y2="204.3456"/><linearGradient id="X" gradientTransform="matrix(0 1.003922 -1.003922 0 540.080135 56.216998)" gradientUnits="userSpaceOnUse" x1="298.4751" x2="312.7354" xlink:href="#v" y1="212.0819" y2="226.3422"/><radialGradient id="Y" cx="227.5282" cy="206.535" gradientTransform="matrix(0 1.003922 1.003922 0 -83.339398 56.216998)" gradientUnits="userSpaceOnUse" r="125.9094" xlink:href="#a"/><linearGradient id="Z" gradientUnits="userSpaceOnUse" x1="150.960311995" x2="171.7875774148" xlink:href="#c" y1="350.116793578" y2="370.9440589978"/><radialGradient id="aa" cx="229.3427" cy="210.1571" gradientTransform="matrix(0 1.003922 .535291 0 15.1433 56.216998)" gradientUnits="userSpaceOnUse" r="210.538" xlink:href="#e"/><radialGradient id="ab" cx="222.1914" cy="272.2763" gradientTransform="matrix(0 1.003922 1.003922 0 -83.339398 56.216998)" gradientUnits="userSpaceOnUse" r="189.4765" xlink:href="#g"/><linearGradient id="ac" gradientTransform="matrix(0 1.003922 1.003922 0 -83.339398 56.216998)" gradientUnits="userSpaceOnUse" x1="187.9937" x2="215.5516" xlink:href="#i" y1="225.5177" y2="253.0755"/><linearGradient id="ad" gradientTransform="matrix(0 1.003922 1.003922 0 -83.339398 56.216998)" gradientUnits="userSpaceOnUse" x1="246.8767" x2="274.4346" xlink:href="#i" y1="225.5177" y2="253.0755"/><linearGradient id="ae" gradientTransform="matrix(0 1.003922 1.003922 0 -83.339398 56.216998)" gradientUnits="userSpaceOnUse" x1="138.3611" x2="165.919" xlink:href="#i" y1="163.6104" y2="191.1683"/><linearGradient id="af" gradientTransform="matrix(0 1.003922 1.003922 0 -83.339398 56.216998)" gradientUnits="userSpaceOnUse" x1="215.9231" x2="243.481" xlink:href="#i" y1="147.0662" y2="174.6241"/><linearGradient id="ag" gradientTransform="matrix(0 1.003922 1.003922 0 -83.339398 56.216998)" gradientUnits="userSpaceOnUse" x1="293.485" x2="321.0429" xlink:href="#i" y1="163.6104" y2="191.1683"/><linearGradient id="ah" gradientTransform="matrix(0 1.003922 1.003922 0 -83.339398 56.216998)" gradientUnits="userSpaceOnUse" x1="212.3457" x2="177.5733" xlink:href="#o" y1="184.1809" y2="149.4084"/><linearGradient id="ai" gradientTransform="matrix(0 1.003922 1.003922 0 -83.339398 56.216998)" gradientUnits="userSpaceOnUse" x1="186.4017" x2="200.662" xlink:href="#q" y1="158.2368" y2="172.4971"/><linearGradient id="aj" gradientTransform="matrix(0 1.003922 1.003922 0 -83.339398 56.216998)" gradientUnits="userSpaceOnUse" x1="292.665" x2="257.8926" xlink:href="#o" y1="184.1809" y2="149.4084"/><linearGradient id="ak" gradientTransform="matrix(0 1.003922 1.003922 0 -83.339398 56.216998)" gradientUnits="userSpaceOnUse" x1="266.721" x2="280.9813" xlink:href="#q" y1="158.2368" y2="172.4971"/><linearGradient id="al" gradientTransform="matrix(0 1.003922 1.003922 0 -83.339398 56.216998)" gradientUnits="userSpaceOnUse" x1="180.3247" x2="145.5523" xlink:href="#o" y1="237.0155" y2="202.2431"/><linearGradient id="am" gradientTransform="matrix(0 1.003922 1.003922 0 -83.339398 56.216998)" gradientUnits="userSpaceOnUse" x1="154.3807" x2="168.641" xlink:href="#v" y1="211.0714" y2="225.3317"/><linearGradient id="an" gradientTransform="matrix(0 1.003922 1.003922 0 -83.339398 56.216998)" gradientUnits="userSpaceOnUse" x1="252.372" x2="217.5995" xlink:href="#o" y1="226.6087" y2="191.8362"/><linearGradient id="ao" gradientTransform="matrix(0 1.003922 1.003922 0 -83.339398 56.216998)" gradientUnits="userSpaceOnUse" x1="226.4279" x2="240.6882" xlink:href="#v" y1="200.6646" y2="214.9249"/><linearGradient id="ap" gradientTransform="matrix(0 1.003922 1.003922 0 -83.339398 56.216998)" gradientUnits="userSpaceOnUse" x1="242.9218" x2="218.2984" xlink:href="#o" y1="291.0698" y2="266.4465"/><linearGradient id="aq" gradientTransform="matrix(0 1.003922 1.003922 0 -83.339398 56.216998)" gradientUnits="userSpaceOnUse" x1="226.4279" x2="240.6882" xlink:href="#q" y1="274.5797" y2="288.84"/><linearGradient id="ar" gradientTransform="matrix(0 1.003922 1.003922 0 -83.339398 56.216998)" gradientUnits="userSpaceOnUse" x1="309.5939" x2="290.7426" xlink:href="#o" y1="222.1865" y2="203.3352"/><linearGradient id="as" gradientTransform="matrix(0 1.003922 1.003922 0 -83.339398 56.216998)" gradientUnits="userSpaceOnUse" x1="298.4751" x2="312.7354" xlink:href="#v" y1="211.0714" y2="225.3317"/><radialGradient id="at" cx="227.863247" cy="123.5047934606" gradientUnits="userSpaceOnUse" r="126.4032166668" xlink:href="#a"/><radialGradient id="au" cx="256.8144" cy="126.6445" gradientTransform="matrix(1.003922 0 0 .535291 -28.136863 59.347526)" gradientUnits="userSpaceOnUse" r="210.538" xlink:href="#e"/><radialGradient id="av" cx="222.5055160704" cy="189.5040312314" gradientUnits="userSpaceOnUse" r="190.219626833" xlink:href="#g"/><linearGradient id="aw" gradientUnits="userSpaceOnUse" x1="224.387669036" x2="181.2081806784" xlink:href="#c" y1="178.7721050514" y2="135.5926166938"/><linearGradient id="ax" gradientUnits="userSpaceOnUse" x1="188.173692691" x2="215.8395743826" xlink:href="#i" y1="142.56194361" y2="170.2279256938"/><linearGradient id="ay" gradientUnits="userSpaceOnUse" x1="277.084036777" x2="234.8469300008" xlink:href="#c" y1="172.3586497466" y2="130.1215429704"/><linearGradient id="az" gradientUnits="userSpaceOnUse" x1="247.287631817" x2="274.9536139008" xlink:href="#i" y1="142.56194361" y2="170.2279256938"/><linearGradient id="aA" gradientUnits="userSpaceOnUse" x1="175.5862174784" x2="135.144524807" xlink:href="#c" y1="117.651627024" y2="77.2099343526"/><linearGradient id="aB" gradientUnits="userSpaceOnUse" x1="138.3464336338" x2="166.0124157176" xlink:href="#i" y1="80.4119435716" y2="108.0779256554"/><linearGradient id="aC" gradientUnits="userSpaceOnUse" x1="250.8828772834" x2="216.573140188" xlink:href="#c" y1="98.4730023126" y2="64.1633656094"/><linearGradient id="aD" gradientUnits="userSpaceOnUse" x1="216.2126317978" x2="243.8786138816" xlink:href="#i" y1="63.8028572192" y2="91.468839303"/><linearGradient id="aE" gradientUnits="userSpaceOnUse" x1="326.0579621342" x2="286.6813303126" xlink:href="#c" y1="112.3924812348" y2="73.0159498054"/><linearGradient id="aF" gradientUnits="userSpaceOnUse" x1="294.0787295696" x2="321.7447116534" xlink:href="#i" y1="80.4119435716" y2="108.0779256554"/><linearGradient id="aG" gradientUnits="userSpaceOnUse" x1="212.621201235" x2="177.71232349" xlink:href="#o" y1="101.0630206804" y2="66.1542433276"/><linearGradient id="aH" gradientUnits="userSpaceOnUse" x1="186.5753484748" x2="200.8915773714" xlink:href="#q" y1="75.0172683124" y2="89.333497209"/><linearGradient id="aI" gradientUnits="userSpaceOnUse" x1="293.2555135296" x2="258.3467361768" xlink:href="#o" y1="101.0630206804" y2="66.1542433276"/><linearGradient id="aJ" gradientUnits="userSpaceOnUse" x1="267.2096607694" x2="281.525889666" xlink:href="#q" y1="75.0172683124" y2="89.333497209"/><linearGradient id="aK" gradientUnits="userSpaceOnUse" x1="180.474614873" x2="145.5658375202" xlink:href="#o" y1="154.1049383738" y2="119.1960606288"/><linearGradient id="aL" gradientUnits="userSpaceOnUse" x1="154.4287621128" x2="168.7449910094" xlink:href="#v" y1="128.0590856136" y2="142.3753145102"/><linearGradient id="aM" gradientUnits="userSpaceOnUse" x1="252.8043839914" x2="217.8956066386" xlink:href="#o" y1="143.6573229042" y2="108.7484451592"/><linearGradient id="aN" gradientUnits="userSpaceOnUse" x1="226.7586316234" x2="241.07486052" xlink:href="#v" y1="117.611470144" y2="131.9276990406"/><linearGradient id="aO" gradientUnits="userSpaceOnUse" x1="243.317120307" x2="218.5972477244" xlink:href="#o" y1="208.3712393384" y2="183.6512663636"/><linearGradient id="aP" gradientUnits="userSpaceOnUse" x1="226.7586316234" x2="241.07486052" xlink:href="#q" y1="191.8164651662" y2="206.1326940628"/><linearGradient id="aQ" gradientUnits="userSpaceOnUse" x1="310.2508086754" x2="291.3255738768" xlink:href="#o" y1="139.2177790358" y2="120.292443845"/><linearGradient id="aR" gradientUnits="userSpaceOnUse" x1="299.0884007418" x2="313.4046296384" xlink:href="#v" y1="128.0590856136" y2="142.3753145102"/><path d="m373.359375 432.09375-104.707031-112.796875-7.820313-8.4375-18.492187-19.914063c-7.820313-8.410156-21.132813-8.410156-28.953125 0l-131.019531 141.148438c40.179687 40.179688 92.835937 60.257812 145.496093 60.257812 52.660157 0 105.316407-20.078124 145.496094-60.257812zm0 0" fill="url(#b)"/><path d="m373.359375 432.09375-104.707031-112.796875-7.820313-8.4375-18.492187-19.914063c-7.820313-8.410156-21.132813-8.410156-28.953125 0l-131.019531 141.148438c40.179687 40.179688 92.835937 60.257812 145.496093 60.257812 52.660157 0 105.316407-20.078124 145.496094-60.257812zm0 0" fill="url(#d)"/><path d="m315.957031 370.257812 57.398438 61.835938c-80.351563 80.351562-210.632813 80.351562-290.984375 0l57.398437-61.835938c55.609375 26.339844 120.578125 26.339844 176.1875 0zm0 0" fill="url(#f)"/><path d="m378.054688 428.757812c6.503906 6.910157 6.144531 17.824219-.84375 24.246094-85.597657 78.660156-213.097657 78.660156-298.695313 0-6.988281-6.421875-7.347656-17.335937-.84375-24.246094 6.375-6.773437 17.011719-7.207031 23.890625-.949218 74.175781 67.445312 178.429688 67.445312 252.601562 0 6.878907-6.257813 17.515626-5.824219 23.890626.949218zm0 0" fill="url(#h)"/><path d="m221.292969 357.789062c0 11.855469-9.613281 21.464844-21.46875 21.464844s-21.464844-9.609375-21.464844-21.464844c0-11.855468 9.609375-21.46875 21.464844-21.46875s21.46875 9.613282 21.46875 21.46875zm0 0" fill="url(#j)"/><path d="m280.40625 357.789062c0 11.855469-9.613281 21.464844-21.46875 21.464844s-21.464844-9.609375-21.464844-21.464844c0-11.855468 9.609375-21.46875 21.464844-21.46875s21.46875 9.613282 21.46875 21.46875zm0 0" fill="url(#k)"/><path d="m171.464844 419.9375c0 11.855469-9.613282 21.464844-21.46875 21.464844-11.855469 0-21.464844-9.609375-21.464844-21.464844s9.609375-21.46875 21.464844-21.46875c11.855468 0 21.46875 9.613281 21.46875 21.46875zm0 0" fill="url(#l)"/><path d="m249.328125 436.546875c0 11.855469-9.609375 21.464844-21.464844 21.464844s-21.46875-9.609375-21.46875-21.464844 9.613281-21.46875 21.46875-21.46875 21.464844 9.613281 21.464844 21.46875zm0 0" fill="url(#m)"/><path d="m327.195312 419.9375c0 11.855469-9.609374 21.464844-21.464843 21.464844s-21.46875-9.609375-21.46875-21.464844 9.613281-21.46875 21.46875-21.46875 21.464843 9.613281 21.464843 21.46875zm0 0" fill="url(#n)"/><path d="m197.191406 443.203125c-2.171875 2.300781-5.246094 3.738281-8.652344 3.738281-6.574218 0-11.921874-5.347656-11.921874-11.921875 0-3.40625 1.4375-6.480469 3.738281-8.65625l23.460937-23.460937c2.171875-2.296875 5.246094-3.734375 8.652344-3.734375 6.574219 0 11.921875 5.347656 11.921875 11.917969 0 3.40625-1.4375 6.480468-3.734375 8.65625zm0 0" fill="url(#p)"/><path d="m200.460938 435.019531c0 6.574219-5.347657 11.921875-11.921876 11.921875-6.570312 0-11.921874-5.347656-11.921874-11.921875s5.351562-11.921875 11.921874-11.921875c6.574219 0 11.921876 5.347656 11.921876 11.921875zm-5.816407 0c0-3.367187-2.738281-6.105469-6.105469-6.105469-3.367187 0-6.105468 2.738282-6.105468 6.105469 0 3.367188 2.738281 6.105469 6.105468 6.105469 3.367188 0 6.105469-2.738281 6.105469-6.105469zm0 0" fill="url(#r)"/><path d="m277.828125 443.203125c-2.175781 2.300781-5.25 3.738281-8.65625 3.738281-6.574219 0-11.921875-5.347656-11.921875-11.921875 0-3.40625 1.441406-6.480469 3.738281-8.65625l23.460938-23.460937c2.175781-2.296875 5.25-3.734375 8.65625-3.734375 6.570312 0 11.917969 5.347656 11.917969 11.917969 0 3.40625-1.4375 6.480468-3.734376 8.65625zm0 0" fill="url(#s)"/><path d="m281.09375 435.019531c0 6.574219-5.347656 11.921875-11.921875 11.921875-6.570313 0-11.917969-5.347656-11.917969-11.921875s5.347656-11.921875 11.917969-11.921875c6.574219 0 11.921875 5.347656 11.921875 11.921875zm-5.8125 0c0-3.367187-2.742188-6.105469-6.109375-6.105469s-6.105469 2.738282-6.105469 6.105469c0 3.367188 2.742188 6.105469 6.105469 6.105469 3.367187 0 6.109375-2.738281 6.109375-6.105469zm0 0" fill="url(#t)"/><path d="m165.046875 390.164062c-2.175781 2.296876-5.25 3.734376-8.65625 3.734376-6.574219 0-11.917969-5.347657-11.917969-11.921876 0-3.402343 1.4375-6.480468 3.734375-8.652343l23.460938-23.460938c2.175781-2.300781 5.25-3.738281 8.65625-3.738281 6.574219 0 11.917969 5.347656 11.917969 11.921875 0 3.40625-1.4375 6.480469-3.734376 8.652344zm0 0" fill="url(#u)"/><path d="m168.3125 381.976562c0 6.574219-5.347656 11.921876-11.917969 11.921876-6.574219 0-11.921875-5.347657-11.921875-11.921876 0-6.574218 5.347656-11.921874 11.921875-11.921874 6.570313 0 11.917969 5.351562 11.917969 11.921874zm-5.8125 0c0-3.367187-2.742188-6.105468-6.105469-6.105468-3.367187 0-6.109375 2.738281-6.109375 6.105468 0 3.367188 2.742188 6.105469 6.109375 6.105469 3.363281 0 6.105469-2.738281 6.105469-6.105469zm0 0" fill="url(#w)"/><path d="m237.375 400.609375c-2.171875 2.300781-5.246094 3.738281-8.652344 3.738281-6.574218 0-11.921875-5.347656-11.921875-11.921875 0-3.40625 1.4375-6.480469 3.734375-8.65625l23.464844-23.460937c2.171875-2.296875 5.246094-3.734375 8.652344-3.734375 6.574218 0 11.921875 5.347656 11.921875 11.917969 0 3.40625-1.4375 6.480468-3.734375 8.65625zm0 0" fill="url(#x)"/><path d="m240.644531 392.425781c0 6.574219-5.347656 11.917969-11.921875 11.917969-6.574218 0-11.921875-5.347656-11.921875-11.917969 0-6.574219 5.347657-11.921875 11.921875-11.921875 6.574219 0 11.921875 5.347656 11.921875 11.921875zm-5.816406 0c0-3.367187-2.738281-6.105469-6.105469-6.105469-3.367187 0-6.105468 2.738282-6.105468 6.105469 0 3.367188 2.738281 6.105469 6.105468 6.105469 3.367188 0 6.105469-2.738281 6.105469-6.105469zm0 0" fill="url(#y)"/><path d="m257.019531 306.765625-14.683593-15.816406c-.515626-.558594-1.054688-1.078125-1.621094-1.558594l-20.175782 20.175781c-2.296874 2.175782-3.738281 5.246094-3.738281 8.652344 0 6.574219 5.347657 11.921875 11.917969 11.921875 3.410156 0 6.484375-1.4375 8.660156-3.734375zm0 0" fill="url(#z)"/><path d="m240.644531 318.21875c0 6.574219-5.347656 11.921875-11.921875 11.921875-6.574218 0-11.921875-5.347656-11.921875-11.921875s5.347657-11.917969 11.921875-11.917969c6.574219 0 11.921875 5.347657 11.921875 11.917969zm-5.816406 0c0-3.367188-2.738281-6.105469-6.105469-6.105469-3.367187 0-6.105468 2.742188-6.105468 6.105469 0 3.367188 2.738281 6.105469 6.105468 6.105469 3.367188.003906 6.105469-2.738281 6.105469-6.105469zm0 0" fill="url(#A)"/><path d="m322.527344 377.34375-16.210938-17.46875-13.449218 13.449219c-2.296876 2.175781-3.738282 5.246093-3.738282 8.652343 0 6.574219 5.347656 11.921876 11.921875 11.921876 3.40625 0 6.484375-1.4375 8.65625-3.734376zm0 0" fill="url(#B)"/><path d="m312.972656 381.976562c0 6.574219-5.347656 11.921876-11.921875 11.921876s-11.917969-5.347657-11.917969-11.921876c0-6.574218 5.347657-11.921874 11.917969-11.921874 6.574219 0 11.921875 5.351562 11.921875 11.921874zm-5.816406 0c0-3.367187-2.738281-6.105468-6.105469-6.105468-3.367187 0-6.105469 2.738281-6.105469 6.105468 0 3.367188 2.742188 6.105469 6.105469 6.105469 3.367188 0 6.105469-2.738281 6.105469-6.105469zm0 0" fill="url(#C)"/><path d="m375.316406 430.132812-112.796875-104.707031-8.433593-7.820312-19.917969-18.492188c-8.40625-7.820312-8.40625-21.132812 0-28.949219l141.148437-131.023437c40.179688 40.179687 60.261719 92.839844 60.261719 145.496094 0 52.660156-20.082031 105.316406-60.261719 145.496093zm0 0" fill="url(#D)"/><path d="m375.316406 430.132812-112.796875-104.707031-8.433593-7.820312-19.917969-18.492188c-8.40625-7.820312-8.40625-21.132812 0-28.949219l9.671875-8.980468 152.976562 143.691406c-6.382812 8.84375-13.539062 17.300781-21.5 25.257812zm0 0" fill="url(#E)"/><path d="m313.484375 372.730469 61.832031 57.398437c80.355469-80.351562 80.355469-210.632812 0-290.984375l-61.832031 57.398438c26.335937 55.609375 26.335937 120.578125 0 176.1875zm0 0" fill="url(#F)"/><path d="m371.984375 434.828125c6.910156 6.503906 17.824219 6.144531 24.246094-.84375 78.660156-85.597656 78.660156-213.097656 0-298.695313-6.421875-6.988281-17.335938-7.347656-24.246094-.84375-6.773437 6.375-7.207031 17.011719-.949219 23.890626 67.445313 74.175781 67.445313 178.429687 0 252.601562-6.257812 6.882812-5.824218 17.515625.949219 23.890625zm0 0" fill="url(#G)"/><path d="m322.480469 256.597656c0 11.855469-9.613281 21.46875-21.46875 21.46875s-21.464844-9.613281-21.464844-21.46875c0-11.855468 9.609375-21.464844 21.464844-21.464844s21.46875 9.609376 21.46875 21.464844zm0 0" fill="url(#H)"/><path d="m322.480469 315.710938c0 11.855468-9.613281 21.46875-21.46875 21.46875s-21.464844-9.613282-21.464844-21.46875c0-11.855469 9.609375-21.464844 21.464844-21.464844s21.46875 9.609375 21.46875 21.464844zm0 0" fill="url(#I)"/><path d="m384.628906 206.773438c0 11.855468-9.609375 21.464843-21.464844 21.464843-11.855468 0-21.46875-9.609375-21.46875-21.464843 0-11.859376 9.613282-21.46875 21.46875-21.46875 11.855469 0 21.464844 9.609374 21.464844 21.46875zm0 0" fill="url(#J)"/><path d="m401.238281 284.636719c0 11.855469-9.609375 21.46875-21.464843 21.46875-11.855469 0-21.46875-9.613281-21.46875-21.46875s9.613281-21.464844 21.46875-21.464844c11.855468 0 21.464843 9.609375 21.464843 21.464844zm0 0" fill="url(#K)"/><path d="m384.628906 362.503906c0 11.855469-9.609375 21.46875-21.464844 21.46875-11.855468 0-21.46875-9.613281-21.46875-21.46875 0-11.855468 9.613282-21.464844 21.46875-21.464844 11.855469 0 21.464844 9.609376 21.464844 21.464844zm0 0" fill="url(#L)"/><path d="m386.429688 253.96875c2.300781-2.175781 3.738281-5.25 3.738281-8.65625 0-6.574219-5.351563-11.917969-11.921875-11.917969-3.40625 0-6.480469 1.4375-8.65625 3.734375l-23.460938 23.460938c-2.296875 2.175781-3.734375 5.25-3.734375 8.65625 0 6.574218 5.347657 11.917968 11.917969 11.917968 3.40625 0 6.480469-1.4375 8.65625-3.734374zm0 0" fill="url(#M)"/><path d="m366.324219 245.3125c0-6.574219 5.347656-11.917969 11.921875-11.917969 6.570312 0 11.917968 5.347657 11.917968 11.917969 0 6.574219-5.347656 11.921875-11.917968 11.921875-6.574219 0-11.921875-5.347656-11.921875-11.921875zm18.027343 0c0-3.367188-2.738281-6.105469-6.105468-6.105469-3.367188 0-6.105469 2.738281-6.105469 6.105469s2.738281 6.105469 6.105469 6.105469c3.367187 0 6.105468-2.738281 6.105468-6.105469zm0 0" fill="url(#N)"/><path d="m386.429688 334.601562c2.300781-2.175781 3.738281-5.246093 3.738281-8.65625 0-6.570312-5.351563-11.917968-11.921875-11.917968-3.40625 0-6.480469 1.4375-8.65625 3.734375l-23.460938 23.460937c-2.296875 2.175782-3.734375 5.25-3.734375 8.65625 0 6.574219 5.347657 11.921875 11.917969 11.921875 3.40625 0 6.480469-1.4375 8.65625-3.738281zm0 0" fill="url(#O)"/><path d="m366.324219 325.945312c0-6.570312 5.347656-11.917968 11.921875-11.917968 6.570312 0 11.917968 5.347656 11.917968 11.917968 0 6.574219-5.347656 11.921876-11.917968 11.921876-6.574219 0-11.921875-5.347657-11.921875-11.921876zm18.027343 0c0-3.363281-2.738281-6.105468-6.105468-6.105468-3.367188 0-6.105469 2.742187-6.105469 6.105468 0 3.367188 2.738281 6.109376 6.105469 6.109376 3.367187 0 6.105468-2.742188 6.105468-6.109376zm0 0" fill="url(#P)"/><path d="m333.386719 221.820312c2.300781-2.171874 3.738281-5.246093 3.738281-8.652343 0-6.574219-5.347656-11.921875-11.921875-11.921875-3.40625 0-6.480469 1.4375-8.65625 3.734375l-23.460937 23.460937c-2.296876 2.175782-3.734376 5.25-3.734376 8.65625 0 6.574219 5.347657 11.921875 11.917969 11.921875 3.40625 0 6.480469-1.4375 8.65625-3.738281zm0 0" fill="url(#Q)"/><path d="m313.28125 213.167969c0-6.574219 5.347656-11.921875 11.921875-11.921875s11.917969 5.347656 11.917969 11.921875c0 6.570312-5.347656 11.917969-11.917969 11.917969-6.574219 0-11.921875-5.34375-11.921875-11.917969zm18.027344 0c0-3.367188-2.738282-6.105469-6.105469-6.105469s-6.105469 2.738281-6.105469 6.105469c0 3.363281 2.738282 6.105469 6.105469 6.105469s6.105469-2.738282 6.105469-6.105469zm0 0" fill="url(#R)"/><path d="m343.835938 294.152344c2.296874-2.175782 3.734374-5.25 3.734374-8.65625 0-6.574219-5.347656-11.921875-11.917968-11.921875-3.40625 0-6.480469 1.4375-8.65625 3.738281l-23.460938 23.460938c-2.296875 2.175781-3.738281 5.246093-3.738281 8.652343 0 6.574219 5.347656 11.921875 11.921875 11.921875 3.40625 0 6.480469-1.4375 8.652344-3.734375zm0 0" fill="url(#S)"/><path d="m323.730469 285.496094c0-6.574219 5.347656-11.921875 11.917969-11.921875 6.574218 0 11.921874 5.347656 11.921874 11.921875 0 6.574218-5.347656 11.921875-11.921874 11.921875-6.570313 0-11.917969-5.347657-11.917969-11.921875zm18.027343 0c0-3.367188-2.742187-6.105469-6.105468-6.105469-3.367188 0-6.105469 2.738281-6.105469 6.105469 0 3.367187 2.738281 6.105468 6.105469 6.105468 3.363281 0 6.105468-2.738281 6.105468-6.105468zm0 0" fill="url(#T)"/><path d="m249.992188 313.792969-15.816407-14.683594c-.558593-.515625-1.078125-1.054687-1.558593-1.617187l20.175781-20.179688c2.175781-2.296875 5.246093-3.738281 8.652343-3.738281 6.574219 0 11.921876 5.347656 11.921876 11.921875 0 3.40625-1.4375 6.480468-3.734376 8.65625zm0 0" fill="url(#U)"/><path d="m249.523438 285.496094c0-6.574219 5.347656-11.921875 11.921874-11.921875 6.574219 0 11.921876 5.347656 11.921876 11.921875 0 6.574218-5.347657 11.921875-11.921876 11.921875-6.574218 0-11.921874-5.347657-11.921874-11.921875zm18.027343 0c0-3.367188-2.738281-6.105469-6.105469-6.105469-3.367187 0-6.105468 2.738281-6.105468 6.105469 0 3.367187 2.742187 6.105468 6.105468 6.105468 3.367188 0 6.105469-2.738281 6.105469-6.105468zm0 0" fill="url(#V)"/><path d="m320.566406 379.304688-17.464844-16.214844 13.449219-13.445313c2.175781-2.300781 5.246094-3.742187 8.652344-3.742187 6.574219 0 11.917969 5.347656 11.917969 11.921875 0 3.40625-1.433594 6.484375-3.734375 8.660156zm0 0" fill="url(#W)"/><path d="m313.28125 357.824219c0-6.570313 5.347656-11.917969 11.921875-11.917969s11.917969 5.347656 11.917969 11.917969c0 6.574219-5.347656 11.921875-11.917969 11.921875-6.574219 0-11.921875-5.347656-11.921875-11.921875zm18.027344 0c0-3.367188-2.738282-6.105469-6.105469-6.105469s-6.105469 2.742188-6.105469 6.105469c0 3.367187 2.738282 6.105469 6.105469 6.105469 3.367187.003906 6.105469-2.738282 6.105469-6.105469zm0 0" fill="url(#X)"/><path d="m80.40625 430.132812 112.800781-104.707031 8.433594-7.820312 19.914063-18.492188c8.410156-7.820312 8.410156-21.132812 0-28.949219l-141.148438-131.023437c-40.175781 40.179687-60.257812 92.839844-60.257812 145.496094 0 52.660156 20.082031 105.316406 60.257812 145.496093zm0 0" fill="url(#Y)"/><path d="m80.40625 430.132812 112.800781-104.707031 8.433594-7.820312 19.914063-18.492188c8.410156-7.820312 8.410156-21.132812 0-28.949219l-9.671876-8.980468-152.972656 143.691406c6.382813 8.84375 13.539063 17.300781 21.496094 25.257812zm0 0" fill="url(#Z)"/><path d="m142.242188 372.730469-61.835938 57.398437c-80.3515625-80.351562-80.3515625-210.632812 0-290.984375l61.835938 57.398438c-26.335938 55.609375-26.335938 120.578125 0 176.1875zm0 0" fill="url(#aa)"/><path d="m83.742188 434.828125c-6.910157 6.503906-17.824219 6.144531-24.246094-.84375-78.660156-85.597656-78.660156-213.097656 0-298.695313 6.421875-6.988281 17.335937-7.347656 24.246094-.84375 6.773437 6.375 7.207031 17.011719.949218 23.890626-67.445312 74.175781-67.445312 178.429687 0 252.601562 6.257813 6.882812 5.824219 17.515625-.949218 23.890625zm0 0" fill="url(#ab)"/><path d="m176.179688 256.597656c0 11.855469-9.609376 21.46875-21.464844 21.46875-11.855469 0-21.46875-9.613281-21.46875-21.46875 0-11.855468 9.613281-21.464844 21.46875-21.464844 11.855468 0 21.464844 9.609376 21.464844 21.464844zm0 0" fill="url(#ac)"/><path d="m176.179688 315.710938c0 11.855468-9.609376 21.46875-21.464844 21.46875-11.855469 0-21.46875-9.613282-21.46875-21.46875 0-11.855469 9.613281-21.464844 21.46875-21.464844 11.855468 0 21.464844 9.609375 21.464844 21.464844zm0 0" fill="url(#ad)"/><path d="m114.03125 206.773438c0 11.855468-9.613281 21.464843-21.46875 21.464843s-21.464844-9.609375-21.464844-21.464843c0-11.859376 9.609375-21.46875 21.464844-21.46875s21.46875 9.609374 21.46875 21.46875zm0 0" fill="url(#ae)"/><path d="m97.421875 284.636719c0 11.855469-9.613281 21.46875-21.46875 21.46875s-21.464844-9.613281-21.464844-21.46875 9.609375-21.464844 21.464844-21.464844 21.46875 9.609375 21.46875 21.464844zm0 0" fill="url(#af)"/><path d="m114.03125 362.503906c0 11.855469-9.613281 21.46875-21.46875 21.46875s-21.464844-9.613281-21.464844-21.46875c0-11.855468 9.609375-21.464844 21.464844-21.464844s21.46875 9.609376 21.46875 21.464844zm0 0" fill="url(#ag)"/><path d="m69.296875 253.96875c-2.300781-2.175781-3.738281-5.25-3.738281-8.65625 0-6.574219 5.347656-11.917969 11.921875-11.917969 3.40625 0 6.480469 1.4375 8.65625 3.734375l23.460937 23.460938c2.296875 2.175781 3.734375 5.25 3.734375 8.65625 0 6.574218-5.347656 11.917968-11.917969 11.917968-3.40625 0-6.480468-1.4375-8.65625-3.734374zm0 0" fill="url(#ah)"/><path d="m77.480469 257.234375c-6.574219 0-11.917969-5.347656-11.917969-11.921875s5.347656-11.917969 11.917969-11.917969c6.574219 0 11.921875 5.347657 11.921875 11.917969 0 6.574219-5.347656 11.921875-11.921875 11.921875zm0-5.816406c3.367187 0 6.105469-2.738281 6.105469-6.105469s-2.738282-6.105469-6.105469-6.105469c-3.363281 0-6.105469 2.738281-6.105469 6.105469s2.738281 6.105469 6.105469 6.105469zm0 0" fill="url(#ai)"/><path d="m69.296875 334.601562c-2.300781-2.175781-3.738281-5.246093-3.738281-8.65625 0-6.570312 5.347656-11.917968 11.921875-11.917968 3.40625 0 6.480469 1.4375 8.65625 3.734375l23.460937 23.460937c2.296875 2.175782 3.734375 5.25 3.734375 8.65625 0 6.574219-5.347656 11.921875-11.917969 11.921875-3.40625 0-6.480468-1.4375-8.65625-3.738281zm0 0" fill="url(#aj)"/><path d="m77.480469 337.867188c-6.574219 0-11.917969-5.347657-11.917969-11.917969 0-6.574219 5.347656-11.921875 11.917969-11.921875 6.574219 0 11.921875 5.347656 11.921875 11.921875 0 6.570312-5.347656 11.917969-11.921875 11.917969zm0-5.8125c3.367187 0 6.105469-2.742188 6.105469-6.105469 0-3.367188-2.738282-6.105469-6.105469-6.105469-3.363281 0-6.105469 2.738281-6.105469 6.105469 0 3.363281 2.738281 6.105469 6.105469 6.105469zm0 0" fill="url(#ak)"/><path d="m122.339844 221.820312c-2.300782-2.171874-3.738282-5.246093-3.738282-8.652343 0-6.574219 5.347657-11.921875 11.921876-11.921875 3.40625 0 6.480468 1.4375 8.652343 3.734375l23.464844 23.460937c2.296875 2.175782 3.734375 5.25 3.734375 8.65625 0 6.574219-5.347656 11.921875-11.917969 11.921875-3.40625 0-6.480469-1.4375-8.65625-3.738281zm0 0" fill="url(#al)"/><path d="m130.523438 225.085938c-6.574219 0-11.921876-5.347657-11.921876-11.917969 0-6.574219 5.347657-11.921875 11.921876-11.921875 6.570312 0 11.921874 5.347656 11.921874 11.921875 0 6.570312-5.347656 11.917969-11.921874 11.917969zm0-5.8125c3.367187 0 6.105468-2.742188 6.105468-6.105469 0-3.367188-2.738281-6.105469-6.105468-6.105469-3.367188 0-6.105469 2.738281-6.105469 6.105469 0 3.363281 2.738281 6.105469 6.105469 6.105469zm0 0" fill="url(#am)"/><path d="m111.890625 294.152344c-2.296875-2.175782-3.734375-5.25-3.734375-8.65625 0-6.574219 5.347656-11.921875 11.917969-11.921875 3.40625 0 6.480469 1.4375 8.65625 3.738281l23.460937 23.460938c2.296875 2.175781 3.738282 5.246093 3.738282 8.652343 0 6.574219-5.347657 11.921875-11.921876 11.921875-3.40625 0-6.480468-1.4375-8.652343-3.734375zm0 0" fill="url(#an)"/><path d="m120.074219 297.417969c-6.574219 0-11.917969-5.347657-11.917969-11.921875 0-6.570313 5.347656-11.917969 11.917969-11.917969 6.574219 0 11.921875 5.347656 11.921875 11.917969 0 6.574218-5.347656 11.921875-11.921875 11.921875zm0-5.816407c3.367187 0 6.105469-2.738281 6.105469-6.105468 0-3.363282-2.738282-6.105469-6.105469-6.105469-3.367188 0-6.105469 2.742187-6.105469 6.105469 0 3.367187 2.738281 6.105468 6.105469 6.105468zm0 0" fill="url(#ao)"/><path d="m205.734375 313.792969 15.816406-14.683594c.558594-.515625 1.078125-1.054687 1.558594-1.617187l-20.175781-20.179688c-2.175782-2.296875-5.246094-3.738281-8.652344-3.738281-6.574219 0-11.921875 5.347656-11.921875 11.921875 0 3.40625 1.4375 6.480468 3.734375 8.65625zm0 0" fill="url(#ap)"/><path d="m194.28125 297.417969c-6.574219 0-11.921875-5.347657-11.921875-11.921875 0-6.570313 5.347656-11.917969 11.921875-11.917969s11.921875 5.347656 11.921875 11.917969c0 6.574218-5.347656 11.921875-11.921875 11.921875zm0-5.816407c3.367188 0 6.105469-2.738281 6.105469-6.105468 0-3.363282-2.738281-6.105469-6.105469-6.105469s-6.105469 2.742187-6.105469 6.105469c0 3.367187 2.738281 6.105468 6.105469 6.105468zm0 0" fill="url(#aq)"/><path d="m135.15625 379.304688 17.46875-16.214844-13.449219-13.445313c-2.175781-2.300781-5.246093-3.742187-8.652343-3.742187-6.574219 0-11.921876 5.347656-11.921876 11.921875 0 3.40625 1.4375 6.484375 3.738282 8.660156zm0 0" fill="url(#ar)"/><path d="m130.523438 369.746094c-6.574219 0-11.921876-5.347656-11.921876-11.917969 0-6.574219 5.347657-11.921875 11.921876-11.921875 6.570312 0 11.921874 5.347656 11.921874 11.921875 0 6.570313-5.347656 11.917969-11.921874 11.917969zm0-5.8125c3.367187 0 6.105468-2.742188 6.105468-6.105469 0-3.367187-2.738281-6.105469-6.105468-6.105469-3.367188 0-6.105469 2.738282-6.105469 6.105469 0 3.363281 2.738281 6.105469 6.105469 6.105469zm0 0" fill="url(#as)"/><path d="m364.84375 88.769531v87.6875c0 1.378907-1.121094 2.5-2.5 2.5-1.382812 0-2.503906-1.121093-2.503906-2.5v-63.332031c0-2.066406-2.5-3.105469-3.960938-1.640625-.4375.433594-.679687 1.023437-.679687 1.640625v39.398438c0 .789062-.640625 1.429687-1.429688 1.429687-.789062 0-1.429687-.640625-1.429687-1.429687v-8.570313c0-1.382813-1.117188-2.5-2.5-2.5-1.378906 0-2.5 1.117187-2.5 2.5v14.285156c0 1.578125-1.277344 2.859375-2.855469 2.859375s-2.859375-1.28125-2.859375-2.859375v-13.738281c0-7.320312-8.847656-10.984375-14.023438-5.808594l-4.675781 4.671875c-8.835937 8.839844-13.804687 20.828125-13.804687 33.328125v19.230469c0 3.253906-2.632813 5.890625-5.886719 5.894531h-.003906c-3.253907.003906-5.894531-2.632812-5.894531-5.886718l-.003907-16.984376c0-1.710937-2.0625-2.566406-3.273437-1.355468-1.789063 1.789062-2.796875 4.214844-2.796875 6.75v1.894531c0 3.082031-2.496094 5.582031-5.582031 5.582031h-.085938c-1.011719 0-1.832031-.820312-1.832031-1.832031v-.078125c0-1.699219-2.027344-2.570312-3.246094-1.394531-6.625 6.378906-21.863281 21.339843-31.300781 30.613281-5.140625 5.058594-12.023438 7.949219-19.234375 8.085938l-2.921875.054687 130.285156-132.605469zm0 0" fill="#ffe7a5"/><path d="m373.359375 79.90625-104.707031 112.796875-7.820313 8.4375-18.492187 19.914063c-7.820313 8.410156-21.132813 8.410156-28.953125 0l-131.019531-141.148438c40.179687-40.179688 92.835937-60.257812 145.496093-60.257812 52.660157 0 105.316407 20.078124 145.496094 60.257812zm0 0" fill="url(#at)"/><path d="m315.957031 141.742188 57.398438-61.835938c-80.351563-80.351562-210.632813-80.351562-290.984375 0l57.398437 61.835938c55.609375-26.339844 120.578125-26.339844 176.1875 0zm0 0" fill="url(#au)"/><path d="m378.054688 83.242188c6.503906-6.910157 6.144531-17.824219-.84375-24.246094-85.597657-78.660156-213.097657-78.660156-298.695313 0-6.988281 6.421875-7.347656 17.335937-.84375 24.246094 6.375 6.773437 17.011719 7.207031 23.890625.949218 74.175781-67.445312 178.429688-67.445312 252.601562 0 6.878907 6.257813 17.515626 5.824219 23.890626-.949218zm0 0" fill="url(#av)"/><path d="m268.648438 192.703125-7.816407 8.4375-44.421875-.011719-31.234375-31.230468c-4.191406-3.921876-6.820312-9.492188-6.820312-15.691407 0-11.851562 9.617187-21.460937 21.46875-21.460937 6.199219 0 11.769531 2.621094 15.691406 6.8125zm0 0" fill="url(#aw)"/><path d="m221.292969 154.210938c0 11.855468-9.613281 21.46875-21.46875 21.46875s-21.464844-9.613282-21.464844-21.46875c0-11.855469 9.609375-21.464844 21.464844-21.464844s21.46875 9.609375 21.46875 21.464844zm0 0" fill="url(#ax)"/><path d="m297.105469 162.046875-29.203125 31.464844-23.613282-23.609375c-4.195312-3.925782-6.820312-9.496094-6.820312-15.6875 0-11.859375 9.613281-21.46875 21.46875-21.46875 6.195312 0 11.765625 2.625 15.6875 6.820312zm0 0" fill="url(#ay)"/><path d="m280.40625 154.210938c0 11.855468-9.613281 21.46875-21.46875 21.46875s-21.464844-9.613282-21.464844-21.46875c0-11.855469 9.609375-21.464844 21.464844-21.464844s21.46875 9.609375 21.46875 21.464844zm0 0" fill="url(#az)"/><path d="m227.261719 138.992188-61.578125-61.578126c-3.917969-4.191406-9.496094-6.816406-15.6875-6.816406-11.855469 0-21.464844 9.609375-21.464844 21.464844 0 6.191406 2.625 11.769531 6.816406 15.6875l31.230469 31.230469zm0 0" fill="url(#aA)"/><path d="m171.464844 92.0625c0 11.855469-9.613282 21.46875-21.46875 21.46875-11.855469 0-21.464844-9.613281-21.464844-21.46875s9.609375-21.464844 21.464844-21.464844c11.855468 0 21.46875 9.609375 21.46875 21.464844zm0 0" fill="url(#aB)"/><path d="m305.125 122.382812-61.574219-61.578124c-3.917969-4.191407-9.496093-6.816407-15.6875-6.816407-11.855469 0-21.46875 9.609375-21.46875 21.464844 0 6.191406 2.628907 11.769531 6.820313 15.6875l31.230468 31.230469zm0 0" fill="url(#aC)"/><path d="m249.328125 75.453125c0 11.855469-9.609375 21.46875-21.464844 21.46875s-21.46875-9.613281-21.46875-21.46875 9.613281-21.464844 21.46875-21.464844 21.464844 9.609375 21.464844 21.464844zm0 0" fill="url(#aD)"/><path d="m349.554688 105.554688-29.207032 31.460937-29.269531-29.265625c-4.1875-3.921875-6.8125-9.496094-6.8125-15.6875 0-11.855469 9.609375-21.46875 21.460937-21.46875 6.195313 0 11.773438 2.625 15.6875 6.820312zm0 0" fill="url(#aE)"/><path d="m327.195312 92.0625c0 11.855469-9.609374 21.46875-21.464843 21.46875s-21.46875-9.613281-21.46875-21.46875 9.613281-21.464844 21.46875-21.464844 21.464843 9.609375 21.464843 21.464844zm0 0" fill="url(#aF)"/><path d="m197.191406 68.796875c-2.171875-2.300781-5.246094-3.738281-8.652344-3.738281-6.574218 0-11.921874 5.347656-11.921874 11.921875 0 3.40625 1.4375 6.480469 3.738281 8.65625l23.460937 23.460937c2.171875 2.296875 5.246094 3.734375 8.652344 3.734375 6.574219 0 11.921875-5.347656 11.921875-11.917969 0-3.40625-1.4375-6.480468-3.734375-8.65625zm0 0" fill="url(#aG)"/><path d="m188.539062 88.902344c-6.574218 0-11.921874-5.347656-11.921874-11.921875s5.347656-11.921875 11.921874-11.921875c6.570313 0 11.921876 5.347656 11.921876 11.921875s-5.347657 11.921875-11.921876 11.921875zm0-18.027344c-3.367187 0-6.105468 2.738281-6.105468 6.105469 0 3.367187 2.738281 6.105469 6.105468 6.105469 3.367188 0 6.105469-2.738282 6.105469-6.105469 0-3.367188-2.738281-6.105469-6.105469-6.105469zm0 0" fill="url(#aH)"/><path d="m277.828125 68.796875c-2.175781-2.300781-5.25-3.738281-8.65625-3.738281-6.574219 0-11.921875 5.347656-11.921875 11.921875 0 3.40625 1.441406 6.480469 3.738281 8.65625l23.460938 23.460937c2.175781 2.296875 5.25 3.734375 8.65625 3.734375 6.570312 0 11.917969-5.347656 11.917969-11.917969 0-3.40625-1.4375-6.480468-3.734376-8.65625zm0 0" fill="url(#aI)"/><path d="m269.171875 88.902344c-6.570313 0-11.917969-5.347656-11.917969-11.921875s5.347656-11.921875 11.917969-11.921875c6.574219 0 11.921875 5.347656 11.921875 11.921875s-5.347656 11.921875-11.921875 11.921875zm0-18.027344c-3.367187 0-6.105469 2.738281-6.105469 6.105469 0 3.367187 2.742188 6.105469 6.105469 6.105469 3.367187 0 6.109375-2.738282 6.109375-6.105469 0-3.367188-2.742188-6.105469-6.109375-6.105469zm0 0" fill="url(#aJ)"/><path d="m165.046875 121.835938c-2.175781-2.296876-5.25-3.734376-8.65625-3.734376-6.574219 0-11.917969 5.347657-11.917969 11.921876 0 3.402343 1.4375 6.480468 3.734375 8.652343l23.460938 23.460938c2.175781 2.300781 5.25 3.738281 8.65625 3.738281 6.574219 0 11.917969-5.347656 11.917969-11.921875 0-3.402344-1.4375-6.476563-3.734376-8.652344zm0 0" fill="url(#aK)"/><path d="m156.390625 141.945312c-6.574219 0-11.917969-5.351562-11.917969-11.921874 0-6.574219 5.347656-11.921876 11.917969-11.921876 6.574219 0 11.921875 5.347657 11.921875 11.921876 0 6.570312-5.347656 11.921874-11.921875 11.921874zm0-18.027343c-3.367187 0-6.105469 2.738281-6.105469 6.105469 0 3.367187 2.742188 6.105468 6.105469 6.105468 3.367187 0 6.105469-2.742187 6.105469-6.105468.003906-3.367188-2.738282-6.105469-6.105469-6.105469zm0 0" fill="url(#aL)"/><path d="m237.375 111.390625c-2.171875-2.300781-5.246094-3.738281-8.652344-3.738281-6.574218 0-11.921875 5.347656-11.921875 11.921875 0 3.40625 1.4375 6.480469 3.734375 8.65625l23.464844 23.460937c2.171875 2.296875 5.246094 3.734375 8.652344 3.734375 6.574218 0 11.921875-5.347656 11.921875-11.917969 0-3.40625-1.4375-6.480468-3.734375-8.65625zm0 0" fill="url(#aM)"/><path d="m228.722656 131.496094c-6.574218 0-11.921875-5.347656-11.921875-11.921875 0-6.570313 5.347657-11.917969 11.921875-11.917969 6.574219 0 11.917969 5.347656 11.917969 11.917969 0 6.574219-5.34375 11.921875-11.917969 11.921875zm0-18.027344c-3.367187 0-6.105468 2.738281-6.105468 6.105469 0 3.367187 2.738281 6.105469 6.105468 6.105469 3.367188 0 6.105469-2.738282 6.105469-6.105469 0-3.367188-2.738281-6.105469-6.105469-6.105469zm0 0" fill="url(#aN)"/><path d="m257.019531 205.234375-14.683593 15.816406c-.515626.558594-1.054688 1.078125-1.621094 1.558594l-20.175782-20.175781c-2.296874-2.175782-3.738281-5.246094-3.738281-8.652344 0-6.574219 5.347657-11.921875 11.917969-11.921875 3.410156 0 6.484375 1.4375 8.660156 3.734375zm0 0" fill="url(#aO)"/><path d="m228.722656 205.699219c-6.574218 0-11.921875-5.347657-11.921875-11.917969 0-6.574219 5.347657-11.921875 11.921875-11.921875 6.574219 0 11.917969 5.347656 11.917969 11.921875 0 6.570312-5.34375 11.917969-11.917969 11.917969zm0-18.027344c-3.367187 0-6.105468 2.742187-6.105468 6.105469 0 3.367187 2.738281 6.109375 6.105468 6.109375 3.367188 0 6.105469-2.742188 6.105469-6.109375 0-3.363282-2.738281-6.105469-6.105469-6.105469zm0 0" fill="url(#aP)"/><path d="m322.527344 134.65625-16.210938 17.46875-13.449218-13.449219c-2.296876-2.175781-3.738282-5.246093-3.738282-8.652343 0-6.574219 5.347656-11.921876 11.921875-11.921876 3.40625 0 6.484375 1.4375 8.65625 3.734376zm0 0" fill="url(#aQ)"/><path d="m301.050781 141.945312c-6.574219 0-11.917969-5.351562-11.917969-11.921874 0-6.574219 5.347657-11.921876 11.917969-11.921876 6.574219 0 11.921875 5.347657 11.921875 11.921876 0 6.570312-5.347656 11.921874-11.921875 11.921874zm0-18.027343c-3.367187 0-6.105469 2.738281-6.105469 6.105469 0 3.367187 2.742188 6.105468 6.105469 6.105468 3.367188 0 6.105469-2.742187 6.105469-6.105468 0-3.367188-2.738281-6.105469-6.105469-6.105469zm0 0" fill="url(#aR)"/></svg>