<svg height="512pt" viewBox="-83 0 512 512" width="512pt" xmlns="http://www.w3.org/2000/svg" xmlns:xlink="http://www.w3.org/1999/xlink"><linearGradient id="a" gradientUnits="userSpaceOnUse" x1="147.2042151682" x2="184.4339597928" y1="46.7985267754" y2="60.0584289436"><stop offset="0" stop-color="#8be1e2"/><stop offset=".1873" stop-color="#87e1e1"/><stop offset=".3558" stop-color="#7ce2dd"/><stop offset=".5172" stop-color="#6ae2d7"/><stop offset=".6741" stop-color="#50e4ce"/><stop offset=".8278" stop-color="#2fe5c2"/><stop offset=".9772" stop-color="#07e7b4"/><stop offset="1" stop-color="#00e7b2"/></linearGradient><linearGradient id="b"><stop offset="0" stop-color="#ffd459"/><stop offset=".2296" stop-color="#ffd355"/><stop offset=".4362" stop-color="#ffcf4a"/><stop offset=".634" stop-color="#ffc838"/><stop offset=".825" stop-color="#ffbf1f"/><stop offset="1" stop-color="#ffb400"/></linearGradient><linearGradient id="c" gradientUnits="userSpaceOnUse" x1="172.59531" x2="172.59531" xlink:href="#b" y1="497.618033428" y2="508.2763721254"/><linearGradient id="d"><stop offset="0" stop-color="#e58200" stop-opacity="0"/><stop offset=".0396" stop-color="#e27f04" stop-opacity=".039216"/><stop offset=".4671" stop-color="#c15d2f" stop-opacity=".466667"/><stop offset=".8016" stop-color="#ad4949" stop-opacity=".8"/><stop offset="1" stop-color="#a64153"/></linearGradient><linearGradient id="e" gradientUnits="userSpaceOnUse" x1="192.2878423832" x2="124.7238917832" xlink:href="#d" y1="563.1809666976" y2="303.3667562352"/><linearGradient id="f" gradientUnits="userSpaceOnUse" x1="122.5453810432" x2="333.080775037" xlink:href="#b" y1="318.3167610904" y2="318.3167610904"/><linearGradient id="g" gradientUnits="userSpaceOnUse" x1="172.59531" x2="172.59531" y1="-75.1845217176" y2="577.8367220146"><stop offset="0" stop-color="#ffd459"/><stop offset=".1795" stop-color="#ffd152"/><stop offset=".4498" stop-color="#ffca3d"/><stop offset=".7755" stop-color="#ffbe1b"/><stop offset="1" stop-color="#ffb400"/></linearGradient><linearGradient id="h" gradientUnits="userSpaceOnUse" x1="172.59531" x2="172.59531" xlink:href="#d" y1="144.8515885154" y2="1031.5226267616"/><linearGradient id="i" gradientUnits="userSpaceOnUse" x1="172.59531" x2="172.59531" xlink:href="#d" y1="121.5536710536" y2="999.1160246016"/><linearGradient id="j"><stop offset="0" stop-color="#fffcf8"/><stop offset=".1875" stop-color="#faf8f6"/><stop offset=".4041" stop-color="#eceef2"/><stop offset=".6353" stop-color="#d5dcea"/><stop offset=".875" stop-color="#b5c4df"/><stop offset="1" stop-color="#a1b5d8"/></linearGradient><linearGradient id="k" gradientUnits="userSpaceOnUse" x1="168.2933034456" x2="171.7450884582" xlink:href="#j" y1="75.1539020966" y2="133.8331429966"/><linearGradient id="l" gradientUnits="userSpaceOnUse" x1="200.9790963138" x2="134.2341452814" xlink:href="#d" y1="274.6806890072" y2="-23.0102938088"/><linearGradient id="m" gradientUnits="userSpaceOnUse" x1="71.5406218722" x2="325.0522100186" y1="330.1917528596" y2="330.1917528596"><stop offset="0" stop-color="#ff6e3a"/><stop offset=".1596" stop-color="#ff6440"/><stop offset=".4266" stop-color="#ff4b52"/><stop offset=".7662" stop-color="#ff216e"/><stop offset="1" stop-color="#ff0084"/></linearGradient><linearGradient id="n" gradientUnits="userSpaceOnUse" x1="172.59531" x2="172.59531" xlink:href="#j" y1="102.9714764024" y2="196.5665221092"/><linearGradient id="o" gradientUnits="userSpaceOnUse" x1="246.9542062648" x2="127.0069108034" y1="378.4877296902" y2="311.179176847"><stop offset="0" stop-color="#e58200" stop-opacity="0"/><stop offset=".4384" stop-color="#c4602c" stop-opacity=".439216"/><stop offset=".7953" stop-color="#ae4948" stop-opacity=".796078"/><stop offset="1" stop-color="#a64153"/></linearGradient><linearGradient id="p" gradientUnits="userSpaceOnUse" x1="162.2521024184" x2="178.2163696702" y1="303.3553115244" y2="344.775928538"><stop offset="0" stop-color="#45425a"/><stop offset="1" stop-color="#2d3251"/></linearGradient><linearGradient id="q" gradientUnits="userSpaceOnUse" x1="194.5728692474" x2="162.644435136" y1="343.9094434598" y2="323.6305202364"><stop offset="0" stop-color="#3b395f" stop-opacity="0"/><stop offset=".3793" stop-color="#252746" stop-opacity=".380392"/><stop offset=".7281" stop-color="#181c36" stop-opacity=".729412"/><stop offset="1" stop-color="#131830"/></linearGradient><linearGradient id="r" gradientUnits="userSpaceOnUse" x1="189.153497507" x2="122.4201919698" xlink:href="#d" y1="452.032445213" y2="267.940758268"/><linearGradient id="s" gradientUnits="userSpaceOnUse" x1="172.59531" x2="172.59531" xlink:href="#d" y1="455.6221691084" y2="539.108121844"/><path d="m164.75 111.683594h-5.574219c-4.460937 0-7.78125-4.121094-6.832031-8.480469l21.261719-97.699219c.699219-3.210937 3.542969-5.503906 6.832031-5.503906h5.578125c4.460937 0 7.78125 4.121094 6.832031 8.480469l-21.261718 97.699219c-.703126 3.210937-3.546876 5.503906-6.835938 5.503906zm0 0" fill="url(#a)"/><path d="m269.640625 512h-194.089844c-5.429687 0-9.828125-4.398438-9.828125-9.828125v-23.75h213.746094v23.75c0 5.429687-4.398438 9.828125-9.828125 9.828125zm0 0" fill="url(#c)"/><path d="m65.722656 478.421875v18.0625l.433594-.042969 15.554688 15.558594h187.929687c5.429687 0 9.828125-4.398438 9.828125-9.828125v-23.75zm0 0" fill="url(#e)"/><path d="m279.035156 496.441406h-212.882812c-8.847656 0-16.234375-6.761718-17.011719-15.578125l-30.101563-340.671875h307.109376l-30.097657 340.671875c-.777343 8.816407-8.164062 15.578125-17.015625 15.578125zm0 0" fill="url(#f)"/><path d="m262.917969 496.441406h-180.648438c-7.507812 0-13.773437-6.761718-14.4375-15.578125l-25.539062-340.671875h260.605469l-25.539063 340.671875c-.664063 8.816407-6.929687 15.578125-14.441406 15.578125zm0 0" fill="url(#g)"/><path d="m231.214844 496.441406h-117.242188c-4.871094 0-8.9375-6.761718-9.367187-15.578125l-16.578125-340.671875h169.132812l-16.578125 340.671875c-.425781 8.816407-4.492187 15.578125-9.367187 15.578125zm0 0" fill="url(#h)"/><path d="m192.933594 496.441406h-40.675782c-1.691406 0-3.101562-6.761718-3.25-15.578125l-5.753906-340.671875h58.679688l-5.75 340.671875c-.148438 8.816407-1.558594 15.578125-3.25 15.578125zm0 0" fill="url(#i)"/><path d="m327.992188 148.289062h-310.792969l22.199219-62.808593c2.875-8.132813 10.566406-13.574219 19.195312-13.574219h228.003906c8.628906 0 16.320313 5.441406 19.195313 13.574219zm0 0" fill="url(#k)"/><path d="m299.292969 444.191406 26.855469-304h-307.109376l2.304688 26.054688zm0 0" fill="url(#l)"/><path d="m310.441406 398.082031 12.488282-134.089843c.5-5.347657-3.707032-9.964844-9.074219-9.964844h-282.519531c-5.367188 0-9.574219 4.617187-9.074219 9.964844l12.488281 134.089843c.433594 4.6875 4.367188 8.273438 9.078125 8.273438h257.535156c4.707031 0 8.644531-3.585938 9.078125-8.273438zm0 0" fill="url(#m)"/><path d="m332.597656 165.992188h-320.007812c-6.953125 0-12.589844-5.640626-12.589844-12.59375v-22.726563c0-6.953125 5.636719-12.589844 12.589844-12.589844h320.007812c6.953125 0 12.589844 5.636719 12.589844 12.589844v22.726563c.003906 6.953124-5.632812 12.59375-12.589844 12.59375zm0 0" fill="url(#n)"/><path d="m310.441406 398.082031.273438-2.945312-107.300782-107.300781c-2.308593-2.636719-5.058593-4.765626-8.242187-6.242188-17.894531-8.3125-42.507813 6.707031-54.976563 33.546875-10.992187 23.667969-8.867187 48.617187 4.058594 59.882813l31.328125 31.332031h125.78125c4.707031 0 8.644531-3.585938 9.078125-8.273438zm0 0" fill="url(#o)"/><path d="m204.996094 345.242188c-12.46875 26.839843-37.082032 41.859374-54.976563 33.546874s-22.292969-36.808593-9.824219-63.648437 37.082032-41.859375 54.976563-33.546875c17.890625 8.3125 22.289063 36.808594 9.824219 63.648438zm0 0" fill="url(#p)"/><path d="m196.304688 282.171875-45.109376 97.109375c17.78125 7.152344 41.601563-7.78125 53.796876-34.039062 12.199218-26.261719 8.246093-54.09375-8.6875-63.070313zm0 0" fill="url(#q)"/><path d="m279.035156 496.441406c8.851563 0 16.238282-6.761718 17.015625-15.578125l6.582031-74.507812h-260.078124l90.089843 90.085937zm0 0" fill="url(#r)"/><path d="m42.554688 406.355469 6.585937 74.507812c.777344 8.816407 8.164063 15.578125 17.011719 15.578125h212.882812c8.851563 0 16.238282-6.761718 17.015625-15.578125l6.582031-74.507812zm0 0" fill="url(#s)"/></svg>