<svg height="512pt" viewBox="0 -82 512 512" width="512pt" xmlns="http://www.w3.org/2000/svg" xmlns:xlink="http://www.w3.org/1999/xlink"><radialGradient id="a" cx="173.9941" cy="105.1468" gradientTransform="matrix(1.085139 0 0 .973202 -20.702971 -74.003573)" gradientUnits="userSpaceOnUse" r="362.5401"><stop offset="0" stop-color="#fffcf8"/><stop offset=".4554" stop-color="#fdfbf7"/><stop offset=".6194" stop-color="#f6f5f5"/><stop offset=".7363" stop-color="#ebedf1"/><stop offset=".8309" stop-color="#dae0eb"/><stop offset=".9118" stop-color="#c4cfe4"/><stop offset=".9822" stop-color="#a9bbdb"/><stop offset="1" stop-color="#a1b5d8"/></radialGradient><linearGradient id="b"><stop offset="0" stop-color="#fffcf8"/><stop offset=".1875" stop-color="#faf8f6"/><stop offset=".4041" stop-color="#eceef2"/><stop offset=".6353" stop-color="#d5dcea"/><stop offset=".875" stop-color="#b5c4df"/><stop offset="1" stop-color="#a1b5d8"/></linearGradient><linearGradient id="c" gradientUnits="userSpaceOnUse" x1="256.00011" x2="256.00011" xlink:href="#b" y1="73.1688852192" y2="232.28188849"/><linearGradient id="d" gradientUnits="userSpaceOnUse" x1="256.00011" x2="256.00011" xlink:href="#b" y1="177.8669066772" y2="35.237599901"/><linearGradient id="e"><stop offset="0" stop-color="#c6e56f"/><stop offset=".3371" stop-color="#c4e56f"/><stop offset=".4953" stop-color="#bce36e"/><stop offset=".6162" stop-color="#afe16d"/><stop offset=".7182" stop-color="#9ddd6b"/><stop offset=".8083" stop-color="#85d968"/><stop offset=".8899" stop-color="#68d365"/><stop offset=".9635" stop-color="#46cd61"/><stop offset="1" stop-color="#32c95f"/></linearGradient><linearGradient id="f" gradientUnits="userSpaceOnUse" x1="255.9400754644" x2="255.9400754644" xlink:href="#e" y1="111.9047136282" y2="170.0279825246"/><linearGradient id="g" gradientUnits="userSpaceOnUse" x1="395.2267235494" x2="354.1840831688" y1="162.2215854448" y2="121.1789450642"><stop offset="0" stop-color="#a1b5d8" stop-opacity="0"/><stop offset=".0343" stop-color="#9fb3d5" stop-opacity=".035294"/><stop offset=".4515" stop-color="#8898af" stop-opacity=".45098"/><stop offset=".788" stop-color="#798898" stop-opacity=".788235"/><stop offset="1" stop-color="#748290"/></linearGradient><linearGradient id="h"><stop offset="0" stop-color="#ff6e3a"/><stop offset=".1596" stop-color="#ff6440"/><stop offset=".4266" stop-color="#ff4b52"/><stop offset=".7662" stop-color="#ff216e"/><stop offset="1" stop-color="#ff0084"/></linearGradient><linearGradient id="i" gradientUnits="userSpaceOnUse" x1="266.6194965238" x2="321.0646963888" xlink:href="#h" y1="145.0518086554" y2="145.0518086554"/><linearGradient id="j"><stop offset=".0013" stop-color="#e7eeed" stop-opacity="0"/><stop offset=".7731" stop-color="#f9fbfa" stop-opacity=".772549"/><stop offset="1" stop-color="#fff"/></linearGradient><linearGradient id="k" gradientUnits="userSpaceOnUse" x1="289.4118388664" x2="248.9818920824" xlink:href="#j" y1="145.9439941368" y2="118.6928326234"/><linearGradient id="l" gradientUnits="userSpaceOnUse" x1="344.2424443872" x2="374.3601043872" y1="79.1188297366" y2="92.5044229392"><stop offset="0" stop-color="#ffd459"/><stop offset=".2296" stop-color="#ffd355"/><stop offset=".4362" stop-color="#ffcf4a"/><stop offset=".634" stop-color="#ffc838"/><stop offset=".825" stop-color="#ffbf1f"/><stop offset="1" stop-color="#ffb400"/></linearGradient><linearGradient id="m" gradientUnits="userSpaceOnUse" x1="25.302850088" x2="136.9627694394" xlink:href="#e" y1="89.1405814938" y2="89.1405814938"/><linearGradient id="n"><stop offset=".0029" stop-color="#00e7b2" stop-opacity="0"/><stop offset=".4308" stop-color="#1bc4b7" stop-opacity=".427451"/><stop offset="1" stop-color="#3b9abe"/></linearGradient><linearGradient id="o" gradientUnits="userSpaceOnUse" x1="60.347257303" x2="111.9156182848" xlink:href="#n" y1="101.5153256346" y2="59.523978964"/><linearGradient id="p"><stop offset="0" stop-color="#97a03b"/><stop offset="1" stop-color="#6c7d47"/></linearGradient><linearGradient id="q" gradientUnits="userSpaceOnUse" x1="84.405244111" x2="88.5135941116" xlink:href="#p" y1="147.987075799" y2="148.9570652354"/><linearGradient id="r" gradientUnits="userSpaceOnUse" x1="34.796940442" x2="109.5711592382" xlink:href="#e" y1="134.2944832488" y2="94.8815094508"/><linearGradient id="s" gradientUnits="userSpaceOnUse" x1="118.5288540676" x2="121.4156317786" xlink:href="#p" y1="143.5409060454" y2="144.2225690834"/><linearGradient id="t" gradientUnits="userSpaceOnUse" x1="15.5158152944" x2="142.6896424884" xlink:href="#e" y1="125.9455667202" y2="125.9455667202"/><linearGradient id="u" gradientUnits="userSpaceOnUse" x1="78.3085261972" x2="83.3180969772" xlink:href="#n" y1="140.1566849834" y2="114.2145373658"/><linearGradient id="v" gradientUnits="userSpaceOnUse" x1="88.4842795892" x2="101.640075046" y1="162.612211495" y2="111.411185573"><stop offset="0" stop-color="#c6e56f"/><stop offset=".1955" stop-color="#c3e46f"/><stop offset=".3591" stop-color="#b8e26e"/><stop offset=".5111" stop-color="#a7df6c"/><stop offset=".6561" stop-color="#8fda69"/><stop offset=".7962" stop-color="#6fd566"/><stop offset=".9308" stop-color="#49cd61"/><stop offset="1" stop-color="#32c95f"/></linearGradient><linearGradient id="w" gradientUnits="userSpaceOnUse" x1="323.7609297042" x2="502.347008009" xlink:href="#e" y1="114.2330095306" y2="114.2330095306"/><linearGradient id="x" gradientUnits="userSpaceOnUse" x1="426.956481497" x2="403.0140461112" xlink:href="#n" y1="145.9896725878" y2="92.9479556788"/><linearGradient id="y" gradientUnits="userSpaceOnUse" x1="410.2563394192" x2="385.2087866958" xlink:href="#e" y1="171.1062951448" y2="116.2227829346"/><linearGradient id="z" gradientUnits="userSpaceOnUse" x1="124.9759407594" x2="179.4321837664" xlink:href="#h" y1="142.3056804166" y2="142.3056804166"/><linearGradient id="A" gradientUnits="userSpaceOnUse" x1="147.9338298398" x2="107.5028791338" xlink:href="#j" y1="142.8486014342" y2="115.5967371754"/><path d="m511.96875 128.300781c.007812-.179687.03125-.359375.03125-.539062 0-32.355469-114.613281-58.585938-256-58.585938-141.382812 0-256 26.230469-256 58.585938 0 .175781.0234375.351562.0273438.527343-.0039063.113282-.0273438.226563-.0273438.34375 0 53.675782 20.535156 103.042969 54.945312 142.128907.867188.984375 1.746094 1.964843 2.628907 2.9375 43.015625 47.289062 107.695312 74.367187 175.734375 75.1875 7.488281.089843 15.054687.136719 22.691406.136719s15.203125-.046876 22.691406-.136719c68.039063-.820313 132.71875-27.898438 175.734375-75.1875.882813-.972657 1.761719-1.953125 2.628907-2.9375 34.410156-39.085938 54.945312-88.453125 54.945312-142.128907 0-.113281-.023438-.222656-.03125-.332031zm0 0" fill="url(#a)"/><path d="m512 127.761719c0-32.355469-114.613281-58.585938-256-58.585938s-256 26.230469-256 58.585938 114.613281 58.582031 256 58.582031 256-26.226562 256-58.582031zm0 0" fill="url(#c)"/><path d="m478.65625 123.128906c0-22.871094-99.6875-41.410156-222.65625-41.410156s-222.65625 18.539062-222.65625 41.410156c0 22.867188 99.6875 41.40625 222.65625 41.40625s222.65625-18.539062 222.65625-41.40625zm0 0" fill="url(#d)"/><path d="m256 164.535156c75.339844 0 141.933594-6.960937 182.222656-17.609375-5.78125-9.757812-16.410156-16.304687-28.574218-16.304687-4.375 0-8.546876.855468-12.371094 2.390625-5.847656-13.4375-19.238282-22.839844-34.832032-22.839844-12.757812 0-24.035156 6.296875-30.917968 15.949219-7.023438-7.851563-17.222656-12.796875-28.585938-12.796875-5.046875 0-9.867187.988281-14.28125 2.761719-6.753906-15.523438-22.21875-26.378907-40.226562-26.378907-22.914063 0-41.699219 17.582031-43.664063 39.984375-5.644531-4.433594-12.753906-7.085937-20.488281-7.085937-4.371094 0-8.542969.855469-12.367188 2.390625-5.847656-13.441406-19.238281-22.839844-34.832031-22.839844-20.0625 0-36.476562 15.554688-37.871093 35.257812-1.871094-.460937-3.824219-.710937-5.835938-.710937-8.140625 0-15.328125 4.03125-19.722656 10.191406 40.28125 10.664063 106.929687 17.640625 182.347656 17.640625zm0 0" fill="url(#f)"/><path d="m237.691406 143.417969c-4.15625-.46875-7.902344 2.519531-8.371094 6.675781s2.519532 7.902344 6.671876 8.371094c4.15625.46875 7.90625-2.519532 8.375-6.671875.46875-4.15625-2.519532-7.90625-6.675782-8.375zm0 0" fill="#4c6606"/><path d="m193.984375 136.566406c-4.15625-.46875-7.902344 2.519532-8.371094 6.671875-.46875 4.15625 2.519531 7.902344 6.671875 8.371094 4.15625.46875 7.902344-2.519531 8.371094-6.671875.46875-4.15625-2.519531-7.902344-6.671875-8.371094zm0 0" fill="#ff5d00"/><path d="m125.535156 128.488281c-4.15625-.46875-7.902344 2.515625-8.371094 6.671875s2.519532 7.902344 6.675782 8.371094c4.152344.46875 7.902344-2.519531 8.371094-6.671875.46875-4.15625-2.519532-7.902344-6.675782-8.371094zm0 0" fill="#ff931e"/><path d="m283.757812 129.429688c-4.152343-.46875-7.902343 2.519531-8.371093 6.675781-.46875 4.152343 2.519531 7.902343 6.675781 8.371093 4.152344.46875 7.902344-2.519531 8.371094-6.675781.46875-4.152343-2.519532-7.902343-6.675782-8.371093zm0 0" fill="#ff931e"/><path d="m360.34375 120.308594c-4.152344-.46875-7.902344 2.519531-8.371094 6.675781-.46875 4.152344 2.519532 7.902344 6.675782 8.371094 4.152343.46875 7.902343-2.519531 8.371093-6.675781.46875-4.152344-2.519531-7.902344-6.675781-8.371094zm0 0" fill="#ffee95"/><path d="m403.039062 137.113281c-4.15625-.46875-7.902343 2.519531-8.371093 6.675781s2.519531 7.902344 6.671875 8.371094c4.15625.46875 7.902344-2.519531 8.371094-6.671875.46875-4.15625-2.519532-7.90625-6.671876-8.375zm0 0" fill="#ff5d00"/><path d="m323.558594 143.925781c-4.15625-.464843-7.90625 2.519531-8.371094 6.675781-.46875 4.15625 2.515625 7.902344 6.671875 8.371094s7.902344-2.519531 8.371094-6.671875c.46875-4.15625-2.519531-7.90625-6.671875-8.375zm0 0" fill="#4c6606"/><path d="m250.964844 105.152344c-4.152344-.46875-7.902344 2.519531-8.371094 6.675781-.46875 4.152344 2.519531 7.902344 6.675781 8.371094s7.902344-2.519531 8.371094-6.675781c.46875-4.152344-2.519531-7.902344-6.675781-8.371094zm0 0" fill="#ffee95"/><path d="m463.746094 138.058594c-19.371094 9.3125-56.324219 16.992187-103.265625 21.632812-1.105469.125-2.207031.222656-3.324219.332032-1.105469.101562-2.222656.210937-3.339844.308593-15.699218 1.4375-32.441406 2.53125-49.945312 3.25 13.613281-20.996093 23.28125-50.179687 32.121094-79.109375 1.226562-4.042968 2.453124-8.085937 3.660156-12.097656 23.921875 1.898438 46.242187 4.574219 66.355468 7.910156v.03125zm0 0" fill="url(#g)"/><path d="m321.0625 152.875c0 3.523438-.660156 6.886719-1.886719 9.96875-4.253906.230469-8.566406.441406-12.917969.628906-8.597656.363282-17.394531.640625-26.34375.820313-3.546874.074219-7.117187.128906-10.707031.164062h-.011719c-1.648437-3.515625-2.574218-7.4375-2.574218-11.582031 0-15.039062 12.1875-27.226562 27.214844-27.226562 15.039062 0 27.226562 12.1875 27.226562 27.226562zm0 0" fill="url(#i)"/><path d="m314.632812 148.003906c0 6.265625-3.269531 11.84375-8.375 15.46875-8.597656.363282-17.394531.640625-26.34375.820313-5.800781-3.570313-9.613281-9.539063-9.613281-16.289063 0-10.90625 9.921875-19.757812 22.164063-19.757812 12.246094 0 22.167968 8.847656 22.167968 19.757812zm0 0" fill="url(#k)"/><path d="m426.816406 36.472656c-1.085937-30.929687-37.742187-47.605468-61.757812-28.082031-2.90625 2.359375-5.128906 4.867187-6.277344 7.511719-8.273438 19.132812-15.226562 43.757812-22.789062 68.570312-8.835938 28.933594-18.507813 58.113282-32.125 79.105469 20.019531-.8125 39.015624-2.132813 56.613281-3.882813 10.359375-22.4375 25.210937-45.941406 38.964843-68.234374 9.875-16.011719 19.171876-31.402344 25.824219-45.316407 1.234375-2.597656 1.671875-5.929687 1.546875-9.671875zm0 0" fill="url(#l)"/><path d="m128.390625 157.050781c-3.316406-.429687-6.5625-.871093-9.734375-1.335937-1.4375-.210938-2.851562-.417969-4.253906-.640625-.597656-.089844-1.195313-.179688-1.792969-.277344-.804687-.121094-1.621094-.253906-2.417969-.375-2.066406-.34375-4.101562-.6875-6.101562-1.027344-5.238282-.90625-10.265625-1.867187-15.015625-2.875-.011719 0-.011719 0-.023438 0-1.457031-.308593-2.894531-.617187-4.308593-.9375-15.273438-3.414062-27.648438-7.285156-36.421876-11.503906-.433593-1.214844-.761718-2.453125-.972656-3.734375-1.925781-11.46875 22.5625-4.441406 23.734375-4.113281-.917969-.441407-17.992187-8.761719-29.4375-18.34375-5.980469-5.003907-10.421875-10.351563-10.234375-15.105469.542969-13.988281 22.699219-9.765625 23.152344-9.679688-.566406-.40625-36.015625-26.296874-28.113281-35.007812 7.855469-8.664062 21.8125 2.609375 22.1875 2.917969-.199219-.320313-4.617188-7.359375-7.425781-14.949219-.054688-.125-.097657-.246094-.140626-.378906-.011718-.03125-.023437-.0625-.035156-.109375-.132812-.339844-.242187-.683594-.363281-1.015625-.078125-.265625-.167969-.507813-.242187-.761719-.125-.367187-.222657-.707031-.320313-1.0625-.300781-1.003906-.542969-2.019531-.742187-2.996094-.03125-.195312-.078126-.394531-.109376-.59375-.035156-.1875-.066406-.386719-.089843-.574219-.03125-.1875-.054688-.386718-.078125-.574218-.03125-.222656-.054688-.429688-.074219-.640625-.011719-.167969-.023437-.320313-.035156-.488281-.03125-.375-.042969-.738282-.042969-1.09375 0-.175782 0-.363282.011719-.527344 0-.179688.011719-.355469.019531-.53125.011719-.164063.023438-.332032.046875-.496094.03125-.242188.066406-.464844.097656-.6875.042969-.261719.101563-.527344.167969-.769531.03125-.132813.0625-.265625.109375-.398438.011719-.023437.011719-.054687.019531-.066406.089844-.300781.199219-.585937.332032-.875.054687-.128906.121093-.273437.199218-.40625.066406-.132813.144532-.265625.234375-.386719.0625-.109375.128907-.222656.207031-.332031.011719-.011719.023438-.03125.035157-.042969.949219-1.328125 2.410156-2.289062 4.507812-2.753906 15.09375-3.359375 27.25 25.847656 27.679688 26.875-.175781-1.136719-4.308594-27.261719 13.128906-18.386719 17.316406 8.808594 14.355469 41.835938 14.179687 43.714844.539063-1.636719 9.191407-27.195313 18.75-6.738281 3.28125 7.015625 4.410157 15.179687 4.441407 22.9375.066406 15.230468-4.03125 28.953125-4.230469 29.628906.453125-.699219 12.210938-18.5 17.390625 4.265625 2.523437 11.066406-2.21875 23.398437-7.875 33.253906zm0 0" fill="url(#m)"/><path d="m110.191406 154.421875c-2.066406-.339844-4.101562-.683594-6.101562-1.027344-5.238282-.90625-10.265625-1.867187-15.015625-2.875-.011719 0-.011719 0-.023438 0-1.457031-.308593-2.894531-.617187-4.308593-.9375-15.273438-3.414062-27.648438-7.28125-36.421876-11.503906-.433593-1.214844-.761718-2.453125-.972656-3.734375-1.945312-11.613281 23.183594-4.265625 23.765625-4.097656-.40625-.191406-17.84375-8.621094-29.46875-18.355469-5.980469-5.007813-10.421875-10.355469-10.234375-15.105469.542969-13.992187 22.699219-9.769531 23.152344-9.679687-.566406-.410157-36.015625-26.300781-28.113281-35.007813 7.855469-8.664062 21.8125 2.605469 22.1875 2.914063-.199219-.320313-4.617188-7.359375-7.425781-14.949219-.054688-.121094-.097657-.242188-.140626-.375-.011718-.035156-.023437-.066406-.035156-.113281-.132812-.339844-.242187-.683594-.363281-1.015625-.078125-.265625-.167969-.507813-.242187-.761719-.125-.363281-.222657-.707031-.320313-1.0625-.300781-1.003906-.542969-2.019531-.742187-2.992187-.03125-.199219-.078126-.398438-.109376-.597657-.035156-.1875-.066406-.386719-.089843-.574219-.03125-.1875-.054688-.386718-.078125-.574218-.03125-.21875-.054688-.429688-.074219-.640625-.011719-.164063-.023437-.320313-.035156-.484375-.03125-.375-.042969-.742188-.042969-1.09375 0-.179688 0-.367188.011719-.53125 0-.175782.011719-.355469.019531-.53125.011719-.164063.023438-.332032.046875-.496094.03125-.242188.066406-.464844.097656-.683594.042969-.265625.101563-.53125.167969-.773437.03125-.132813.0625-.265625.109375-.398438.011719-.023437.011719-.054687.019531-.066406.089844-.296875.199219-.585937.332032-.871094.054687-.132812.121093-.277343.199218-.410156.066406-.132813.144532-.265625.234375-.386719.0625-.109375.128907-.21875.207031-.332031.011719-.007813.023438-.03125.035157-.042969 6.472656 8.308594 15.601562 20.753906 25.480469 36.488282 6.585937 10.5 13.515624 22.457031 20.199218 35.625 8.867188 17.421874 17.320313 36.960937 24.09375 58.054687zm0 0" fill="url(#o)"/><path d="m85.25 147.660156c1.0625.972656 2.355469 1.921875 3.800781 2.859375-1.457031-.308593-2.894531-.617187-4.308593-.9375-2.707032-3.191406-2.652344-4.808593.507812-1.921875zm0 0" fill="url(#q)"/><path d="m110.699219 148.644531c.652343 2.042969 1.292969 4.097657 1.910156 6.152344-.808594-.121094-1.625-.253906-2.421875-.375-2.0625-.339844-4.097656-.683594-6.097656-1.027344-.265625-.71875-.519532-1.425781-.785156-2.144531-1.292969-3.324219-2.519532-6.660156-3.777344-10-.332032-.828125-.609375-1.667969-.941406-2.496094l-.984376-2.488281-.042968-.132813c-1.207032-3.046874-3.679688-5.4375-6.796875-6.671874-23.402344-9.292969-35.152344-28.910157-26.320313-20.566407 7.316406 6.917969 22.410156 14.222657 29.25 17.339844l-2-4.863281c-1.335937-3.304688-2.652344-6.617188-4.011718-9.898438-.707032-1.648437-1.691407-3.914062-2.621094-6.035156-1.257813-2.894531-3.148438-5.503906-5.546875-7.558594-.585938-.53125-1.191407-1.007812-1.832031-1.449218-22.898438-15.777344-31.683594-40.640626-24.15625-29.359376 6.066406 9.082032 19.789062 20.5625 26.15625 25.648438-.132813-.308594-.277344-.617188-.410157-.917969-1.457031-3.257812-2.796875-6.574219-4.289062-9.824219-1.5-3.238281-2.972657-6.496093-4.429688-9.765624l-1.074219-2.464844c-.363281-.820313-.714843-1.648438-1.113281-2.445313-.761719-1.621093-1.539062-3.234375-2.289062-4.871093-.097657-.222657-.199219-.429688-.296875-.652344-.175782-.398438-.101563-.773438.121094-1.039063.398437-.53125 1.292968-.707031 1.777343-.023437.144531.1875.277344.386718.421875.585937 1.058594 1.46875 2.078125 2.960938 3.117188 4.441407.527344.742187 1.003906 1.503906 1.488281 2.265624l1.449219 2.289063c1.910156 3.058594 3.824218 6.132813 5.691406 9.226563.984375 1.523437 1.800781 3.136718 2.6875 4.707031.871094 1.578125 1.753906 3.160156 2.605469 4.738281l.574219 1.050781c.886718-8.664062 2.121093-24.929687.089843-34.964843-2.574219-12.792969 7.933594 8.796874 4.265625 34.832031-.265625 1.890625-.289062 3.792969-.066406 5.648437.277344 2.34375.9375 4.640625 1.976562 6.785156 1.09375 2.265626 2.234376 4.597657 2.917969 6.011719.398438.804688.761719 1.632813 1.117188 2.464844l1.082031 2.472656 2.164062 4.972657 1.449219 3.414062c2.808594-7.945312 6.839844-20.75 7.0625-29.335938v-.089843c.132813-4.71875 1.082031-4.121094 1.578125-.265625.707032 5.605468.453125 18.089844-4.660156 31.238281-1.074219 2.765625-1.0625 5.769531-.023438 8.464844l.628907 1.660156c.652343 1.675781 1.316406 3.355469 1.890625 5.070313 1.171875 3.414062 2.378906 6.820312 3.515625 10.246093zm0 0" fill="url(#r)"/><path d="m118.65625 155.714844c-1.4375-.210938-2.851562-.417969-4.253906-.640625 2.71875-6.242188 5.910156-14.75 6.164062-20.675781.386719-8.730469 4.929688 4.929687-1.910156 21.316406zm0 0" fill="url(#s)"/><path d="m142.6875 149.992188s-.636719.539062-1.820312 1.46875c-1.769532 1.382812-4.707032 3.601562-8.410157 6.101562-1.371093-.167969-2.71875-.332031-4.066406-.507812-3.316406-.433594-6.5625-.875-9.734375-1.339844-1.226562-.175782-2.441406-.363282-3.648438-.550782-.199218-.023437-.40625-.054687-.605468-.089843-.597656-.085938-1.195313-.175781-1.789063-.273438-.808593-.125-1.625-.253906-2.421875-.378906h-.011718c-2.066407-.339844-4.089844-.683594-6.089844-1.027344-5.234375-.90625-10.265625-1.867187-15.015625-2.871093-.011719 0-.011719 0-.023438 0-1.457031-.308594-2.894531-.621094-4.308593-.941407-1.015626-.230469-2.023438-.464843-3.015626-.695312-1.394531-.320313-2.753906-.652344-4.089843-.984375-12.035157-2.984375-21.945313-6.277344-29.316407-9.824219-4.542968-2.175781-8.109374-4.429687-10.640624-6.78125.253906-.058594.417968-.089844.453124-.101563-.046874 0-.277343-.03125-.640624-.078124-1.792969-.253907-7.019532-1.046876-11.925782-2.707032-.097656-.03125-.199218-.066406-.296875-.097656-.035156-.011719-.054687-.023438-.089843-.035156-.265626-.097656-.519532-.1875-.785157-.285156-.199219-.066407-.386719-.144532-.574219-.222657-.273437-.097656-.539062-.207031-.796874-.320312-.738282-.308594-1.46875-.652344-2.152344-1.003907-.132813-.078124-.277344-.144531-.398438-.222656-.132812-.078125-.265625-.144531-.398437-.21875-.132813-.078125-.265625-.15625-.386719-.246094-.140625-.074218-.273438-.164062-.417969-.261718-.101562-.066406-.210937-.132813-.308593-.210938-.234376-.164062-.464844-.332031-.675782-.507812-.109375-.089844-.207031-.175782-.320312-.253906-.097656-.089844-.199219-.175782-.296875-.277344-.097657-.085938-.1875-.175782-.277344-.265625-.132813-.132813-.253906-.265625-.363281-.394531-.144532-.15625-.265625-.3125-.386719-.476563-.066406-.078125-.121094-.164063-.1875-.253906 0-.023438-.023437-.035157-.023437-.042969-.140626-.199219-.253907-.410156-.363282-.621094-.054687-.097656-.097656-.207031-.144531-.320312-.054687-.109375-.085937-.207032-.132813-.328125-.03125-.089844-.066406-.191407-.085937-.289063 0-.011718-.011719-.023437-.011719-.042968-.332031-1.207032-.199218-2.542969.53125-4.035157 3.867188-7.777343 17.324219-6.265625 24.675782-4.761719 2.71875.550782 4.59375 1.105469 4.859374 1.183594-.207031-.132812-1.632812-.953125-3.335937-2.210937-4.652344-3.414063-11.394531-10.066407-1.316406-14.574219 7.679687-3.4375 16.851562.671875 23.605469 5.113281 5.46875 3.601563 9.335937 7.425781 9.523437 7.613281-.152344-.242187-3.292969-5.070312-4.097656-9.226562-.796875-4.042969.605469-7.4375 9.113281-5.335938 1.746094.429688 3.460938 1.027344 5.140625 1.769532 14.761719 6.441406 26.109375 23.027344 26.496094 23.601562-.175781-.5625-5.203125-16.320312 11.007812-8.386718 13.207031 6.484374 18.609375 26.984374 20.222657 34.886718.152343.75.273437 1.390625.363281 1.890625.152343.800781.207031 1.253907.207031 1.253907zm0 0" fill="url(#t)"/><path d="m142.6875 149.992188s-.636719.539062-1.820312 1.46875c-1.769532 1.382812-4.707032 3.601562-8.410157 6.101562-1.371093-.167969-2.71875-.332031-4.066406-.507812-3.316406-.433594-6.5625-.875-9.734375-1.339844-1.226562-.175782-2.441406-.363282-3.648438-.550782-.199218-.023437-.40625-.054687-.605468-.089843-.597656-.085938-1.195313-.175781-1.789063-.273438-.808593-.125-1.625-.253906-2.421875-.378906h-.011718c-2.066407-.339844-4.089844-.683594-6.089844-1.027344-5.234375-.90625-10.265625-1.867187-15.015625-2.871093-.011719 0-.011719 0-.023438 0-1.457031-.308594-2.894531-.621094-4.308593-.941407-1.015626-.230469-2.023438-.464843-3.015626-.695312-1.394531-.320313-2.753906-.652344-4.089843-.984375-12.035157-2.984375-21.945313-6.277344-29.316407-9.824219-4.542968-2.175781-8.109374-4.429687-10.640624-6.78125.253906-.058594.417968-.089844.453124-.101563-.046874 0-.277343-.03125-.640624-.078124-1.792969-.253907-7.019532-1.046876-11.925782-2.707032-.097656-.03125-.199218-.066406-.296875-.097656-.035156-.011719-.054687-.023438-.089843-.035156-.265626-.097656-.519532-.1875-.785157-.285156-.199219-.066407-.386719-.144532-.574219-.222657-.273437-.097656-.539062-.207031-.796874-.320312-.738282-.308594-1.46875-.652344-2.152344-1.003907-.132813-.078124-.277344-.144531-.398438-.222656-.132812-.078125-.265625-.144531-.398437-.21875-.132813-.078125-.265625-.15625-.386719-.246094-.140625-.074218-.273438-.164062-.417969-.261718-.101562-.066406-.210937-.132813-.308593-.210938-.234376-.164062-.464844-.332031-.675782-.507812-.109375-.089844-.207031-.175782-.320312-.253906-.097656-.089844-.199219-.175782-.296875-.277344-.097657-.085938-.1875-.175782-.277344-.265625-.132813-.132813-.253906-.265625-.363281-.394531-.144532-.15625-.265625-.3125-.386719-.476563-.066406-.078125-.121094-.164063-.1875-.253906 0-.023438-.023437-.035157-.023437-.042969-.140626-.199219-.253907-.410156-.363282-.621094-.054687-.097656-.097656-.207031-.144531-.320312-.054687-.109375-.085937-.207032-.132813-.328125-.03125-.089844-.066406-.191407-.085937-.289063 0-.011718-.011719-.023437-.011719-.042968 4.742188.085937 10.742188.320312 17.746094.828124 5.019531.363282 10.554688.875 16.5 1.582032 25.933594 3.101562 59.660156 10.011718 92.546875 25.117187.148437.800781.203125 1.253907.203125 1.253907zm0 0" fill="url(#u)"/><path d="m142.6875 149.992188s-.636719.539062-1.820312 1.46875c-.960938-.351563-1.914063-.695313-2.886719-1.015626l-3.898438-1.359374-.023437-.011719c-1.390625-.488281-2.929688-.289063-4.199219.53125-5.492187 3.511719-10.960937 5.046875-14.851563 5.558593-.199218-.023437-.410156-.058593-.609374-.089843-.59375-.089844-1.191407-.175781-1.789063-.277344-.808594-.121094-1.625-.253906-2.421875-.375.320312-.097656.742188-.1875 1.285156-.273437 4.9375-.753907 11.957032-4.445313 16.574219-7.152344-1.890625-.640625-3.78125-1.304688-5.667969-1.945313-2.621094-.839843-5.226562-1.710937-7.835937-2.574219-.652344-.210937-1.304688-.453124-1.957031-.652343l-1.964844-.617188-.097656-.035156c-2.410157-.75-5.039063-.429687-7.304688.839844-8.011719 4.519531-16.132812 6.34375-21.496094 6.875-1.390625-.320313-2.75-.652344-4.085937-.984375.152343-.023438.308593-.042969.484375-.066406 7.691406-1.039063 19.394531-6.550782 24.585937-9.148438l-3.890625-1.152344c-2.628906-.792968-5.257812-1.621094-7.886718-2.398437-1.328126-.375-3.160157-.871094-4.886719-1.347657-2.925781-.804687-6.03125-.816406-8.984375.054688-20.5625 6.089844-39.746094-.695312-29.324219.265625 8.386719.753906 21.933594-1.910156 28.066406-3.257813-.253906-.066406-.496093-.144531-.75-.199218-2.652343-.707032-5.292969-1.515625-7.96875-2.199219-2.675781-.664063-5.335937-1.359375-8.011719-2.078125l-2-.539062c-.660156-.1875-1.324218-.367188-2-.519532-1.347656-.332031-2.695312-.652344-4.03125-.996094-.179687-.042968-.355468-.085937-.53125-.132812-.332031-.085938-.519531-.308594-.574218-.574219-.121094-.496093.210937-1.125.851562-1.082031.175782.011719.363282.023438.550782.03125 1.394531.078125 2.785156.1875 4.179687.289062.703125.03125 1.390625.121094 2.085937.210938l2.066407.230469c2.773437.332031 5.535156.683593 8.296875 1.0625 1.394531.152343 2.753906.441406 4.136718.660156 1.367188.242187 2.738282.476563 4.109376.742187l.894531.164063c-4.761719-4.726563-13.921875-13.359375-20.929688-17.003906-8.929687-4.652344 9.128907-.5 22.964844 14.332031 2.273437 2.429688 5.179687 4.132812 8.386719 4.871094 1.886718.441406 3.84375.894531 5.015625 1.171875.683593.144531 1.359375.332031 2.019531.519531l2.023438.550781 4.023437 1.105469 2.75.796875c-3.402344-5.539063-9.136719-14.167969-14.175781-18.464844-6.90625-5.878906 7.878906.828125 17.039062 16.828125 1.128906 1.976563 2.941406 3.425782 5.0625 4.113282l1.300782.417968c1.328124.429688 2.652343.851563 3.957031 1.335938 2.621093.953125 5.25 1.878906 7.859375 2.851562 2.175781.863282 4.351562 1.726563 6.527344 2.609375-2.398438-4.773437-6.417969-12.023437-10.296876-15.4375-5.546874-4.894531 7.570313.289063 13.667969 15.328125.476563 1.171875 1.371094 2.089844 2.488281 2.597656 1.015626.441407 2.019532.894532 3.039063 1.335938l2.285156 1.0625c.15625.75.277344 1.390625.367188 1.886719.152343.808593.207031 1.261719.207031 1.261719zm0 0" fill="url(#v)"/><path d="m502.277344 89.191406c0 .023438-.007813.042969-.007813.054688-.023437.144531-.046875.277344-.078125.410156-.035156.164062-.078125.308594-.121094.472656-.046874.15625-.101562.3125-.15625.464844-.109374.308594-.242187.617188-.398437.929688-.007813.023437-.03125.042968-.03125.066406-.078125.132812-.15625.277344-.222656.40625-.140625.246094-.296875.5-.472657.742187-.144531.210938-.289062.417969-.441406.640625-.121094.144532-.242187.296875-.367187.441406-.132813.15625-.253907.308594-.386719.464844-.128906.144532-.261719.296875-.40625.441406-.277344.296876-.574219.597657-.886719.894532-.128906.132812-.273437.253906-.40625.386718-.1875.167969-.375.332032-.5625.488282-.167969.140625-.34375.296875-.507812.429687-.179688.152344-.355469.285157-.53125.429688s-.363281.289062-.550781.429687c-.917969.695313-1.914063 1.394532-2.929688 2.054688-.355469.234375-.71875.464844-1.09375.699218-.265625.152344-.53125.320313-.796875.484376-.363281.210937-.71875.421874-1.082031.628906-.042969.023437-.089844.046875-.132813.066406-.132812.078125-.265625.167969-.410156.234375-8.199219 4.628906-17.324219 7.8125-17.722656 7.953125.539062-.019531 20.761719-.882812 20.453125 11.195312-.121094 4.730469-7.644532 7.601563-16.851563 9.347657-14.429687 2.742187-32.996093 2.707031-33.472656 2.707031.265625.113281 7.867187 3.679688 11.878906 9.074219-23.558593 8.410156-62.15625 15.117187-109.175781 18.894531-3.679688.308594-7.414062.585938-11.195312.839844-1.402344.101562-2.816407.199218-4.242188.289062-1.722656.109375-3.457031.21875-5.203125.320313 1.359375-12.566407 6.097656-37.140625 22.386719-48.910157 22-15.890624 17.746094 6.289063 17.582031 7.128907.375-.71875 9.203125-17.617188 23.304687-31.152344 5.269532-5.058594 11.269532-9.65625 17.835938-12.761719 24.230469-11.480468 10.429688 16.507813 10.066406 17.238282.53125-.683594 24.300782-31.304688 45.726563-27.980469 21.382812 3.316406-2.917969 22.953125-3.589844 23.492187.769531-.394531 33.824219-17.691406 43.65625-5.511718 1.347656 1.683593 1.796875 3.382812 1.542969 5.074218zm0 0" fill="url(#w)"/><path d="m502.277344 89.191406c0 .023438-.007813.042969-.007813.054688-.023437.144531-.046875.277344-.078125.410156-.035156.164062-.078125.308594-.121094.472656-.046874.15625-.101562.3125-.15625.464844-.109374.308594-.242187.617188-.398437.929688-.007813.023437-.03125.042968-.03125.066406-.078125.132812-.15625.277344-.222656.40625-.140625.246094-.296875.5-.472657.742187-.144531.210938-.289062.417969-.441406.640625-.121094.144532-.242187.296875-.367187.441406-.132813.15625-.253907.308594-.386719.464844-.128906.144532-.261719.296875-.40625.441406-.277344.296876-.574219.597657-.886719.894532-.128906.132812-.273437.253906-.40625.386718-.1875.167969-.375.332032-.5625.488282-.167969.140625-.34375.296875-.507812.429687-.179688.152344-.355469.285157-.53125.429688s-.363281.289062-.550781.429687c-.917969.695313-1.914063 1.394532-2.929688 2.054688-.355469.234375-.71875.464844-1.09375.699218-.265625.152344-.53125.320313-.796875.484376-.363281.210937-.71875.421874-1.082031.628906-.042969.023437-.089844.046875-.132813.066406-.132812.078125-.265625.167969-.410156.234375-8.199219 4.628906-17.324219 7.8125-17.722656 7.953125.539062-.019531 20.761719-.882812 20.453125 11.195312-.121094 4.730469-7.644532 7.601563-16.851563 9.347657-14.429687 2.742187-32.996093 2.707031-33.472656 2.707031.265625.113281 7.867187 3.679688 11.878906 9.074219-23.558593 8.410156-62.15625 15.117187-109.175781 18.894531-3.679688.308594-7.414062.585938-11.195312.839844 41.925781-27.304688 85.378906-45.847656 119.753906-57.871094.144531-.054688.289062-.097656.429687-.152344 20.164063-7.015625 37.183594-11.789062 48.882813-14.75zm0 0" fill="url(#x)"/><path d="m384.582031 139.039062-5.4375 2.839844c8.035157 1.59375 26.101563 4.753906 37.484375 3.460938 13.746094-1.570313-11.160156 7.644531-37.59375 1.050781-3.523437-.886719-7.414062-.398437-10.773437 1.414063l-.144531.078124-2.742188 1.480469c-.90625.484375-1.800781 1.027344-2.707031 1.511719-3.632813 2.023438-7.25 4.066406-10.894531 6.054688-2.464844 1.394531-4.917969 2.808593-7.371094 4.199218-3.679688.3125-7.414063.585938-11.195313.84375-1.402343.097656-2.816406.195313-4.242187.285156.574218-.386718 1.160156-.785156 1.746094-1.171874 1.535156-1.027344 2.652343-2.542969 3.117187-4.230469 5.976563-21.683594 24.054687-32.941407 16.929687-24.65625-4.972656 5.78125-9.4375 16.597656-12.003906 23.648437 2.984375-1.898437 5.980469-3.777344 8.984375-5.648437 3.601563-2.164063 7.25-4.273438 10.875-6.417969 1.800781-1.082031 3.644531-2.078125 5.492188-3.09375l1.8125-.996094c2.949219-1.625 5.304687-4.132812 6.574219-7.105468 10.253906-23.980469 30.445312-37.792969 21.535156-27.769532-6.496094 7.328125-13.183594 20.542969-17.058594 28.917969l3.84375-1.976563 5.636719-2.828124 2.828125-1.402344c.941406-.476563 1.878906-.953125 2.839844-1.382813 1.65625-.761719 4.398437-2.023437 7.074218-3.25 4.519532-2.066406 8.417969-5.28125 11.257813-9.238281 4.894531-6.816406 10.445312-12.628906 15.605469-17.257812 13.058593-11.714844 23.667968-15.835938 15.015624-9.292969-3.492187 2.640625-7.292968 6.273437-11.003906 10.199219-6.320312 6.683593-12.355468 14.21875-16.15625 19.148437l1.28125-.53125c1.933594-.804687 3.878906-1.578125 5.824219-2.363281 1.957031-.773438 3.878906-1.613282 5.867187-2.296875 3.957032-1.4375 7.914063-2.84375 11.867188-4.234375l2.964844-1.015625c.992187-.34375 1.976562-.695313 2.992187-.984375 2-.609375 4-1.226563 6.011719-1.8125.101562-.035156.199219-.054688.300781-.089844.175781-.042969.339844-.097656.507813-.140625.785156-.234375 1.335937.230469 1.425781.804687.019531.097657.019531.199219.007813.308594-.03125.363282-.253907.71875-.714844.941406-.253906.121094-.5.242188-.753906.363282-1.890626.90625-3.777344 1.789062-5.667969 2.675781-.953125.429687-1.878907.894531-2.820313 1.367187l-2.792968 1.394532c-3.746094 1.84375-7.492188 3.679687-11.25 5.46875-3.746094 1.800781-7.4375 3.757812-11.160157 5.59375-.355469.164062-.695312.339844-1.050781.519531 9.171875-.355469 29.371094-1.539063 41.417969-5.417969 14.960937-4.816406-11.617188 10.609375-42.679688 9.757813-4.453125-.121094-8.960937.953125-13.058593 3.007812-2.421876 1.203125-4.984376 2.496094-6.851563 3.433594-3.671875 1.925781-7.339844 3.890625-10.996094 5.835937zm0 0" fill="url(#y)"/><path d="m179.433594 150.011719c0 4.234375-.972656 8.246093-2.6875 11.816406-4.222656-.300781-8.386719-.632813-12.476563-.972656-10.652343-.898438-20.851562-1.945313-30.53125-3.140625-.429687-.042969-.863281-.097656-1.28125-.152344-1.371093-.167969-2.71875-.332031-4.066406-.507812-.863281-.113282-1.726563-.222657-2.574219-.332032-.554687-2.144531-.84375-4.398437-.84375-6.707031 0-15.039063 12.191406-27.230469 27.230469-27.230469s27.230469 12.1875 27.230469 27.226563zm0 0" fill="url(#z)"/><path d="m173 145.140625c0 6.410156-3.425781 12.101563-8.730469 15.714844-10.652343-.898438-20.851562-1.945313-30.53125-3.140625-3.160156-3.414063-5.070312-7.800782-5.070312-12.574219 0-10.917969 9.921875-19.757813 22.164062-19.757813 12.234375 0 22.167969 8.839844 22.167969 19.757813zm0 0" fill="url(#A)"/></svg>