<svg height="512pt" viewBox="-47 0 512 512.00025" width="512pt" xmlns="http://www.w3.org/2000/svg" xmlns:xlink="http://www.w3.org/1999/xlink"><linearGradient id="a"><stop offset="0" stop-color="#ff6e3a"/><stop offset=".1596" stop-color="#ff6440"/><stop offset=".4266" stop-color="#ff4b52"/><stop offset=".7662" stop-color="#ff216e"/><stop offset="1" stop-color="#ff0084"/></linearGradient><linearGradient id="b" gradientUnits="userSpaceOnUse" x1="168.0326944882" x2="370.6620019476" xlink:href="#a" y1="422.107287276" y2="624.7366951276"/><linearGradient id="c"><stop offset="0" stop-color="#e58200" stop-opacity="0"/><stop offset=".4384" stop-color="#c4602c" stop-opacity=".439216"/><stop offset=".7953" stop-color="#ae4948" stop-opacity=".796078"/><stop offset="1" stop-color="#a64153"/></linearGradient><linearGradient id="d" gradientUnits="userSpaceOnUse" x1="225.4560289662" x2="125.7446888666" xlink:href="#c" y1="462.3890551728" y2="362.6777150732"/><linearGradient id="e" gradientUnits="userSpaceOnUse" x1="339.5020701272" x2="33.7717803274" xlink:href="#c" y1="427.2582102736" y2="427.2582102736"/><linearGradient id="f"><stop offset="0" stop-color="#ffd459"/><stop offset=".2296" stop-color="#ffd355"/><stop offset=".4362" stop-color="#ffcf4a"/><stop offset=".634" stop-color="#ffc838"/><stop offset=".825" stop-color="#ffbf1f"/><stop offset="1" stop-color="#ffb400"/></linearGradient><linearGradient id="g" gradientUnits="userSpaceOnUse" x1="144.9412837818" x2="246.7062467246" xlink:href="#f" y1="358.0994291844" y2="358.0994291844"/><linearGradient id="h"><stop offset="0" stop-color="#e58200" stop-opacity="0"/><stop offset=".0396" stop-color="#e27f04" stop-opacity=".039216"/><stop offset=".4671" stop-color="#c15d2f" stop-opacity=".466667"/><stop offset=".8016" stop-color="#ad4949" stop-opacity=".8"/><stop offset="1" stop-color="#a64153"/></linearGradient><linearGradient id="i" gradientUnits="userSpaceOnUse" x1="208.924345" x2="208.924345" xlink:href="#h" y1="400.7918145876" y2="270.631018267"/><linearGradient id="j" gradientUnits="userSpaceOnUse" x1="186.8244076608" x2="330.4598450654" xlink:href="#f" y1="177.426397826" y2="271.4422876352"/><linearGradient id="k" gradientUnits="userSpaceOnUse" x1="249.2909443058" x2="85.4159374202" xlink:href="#h" y1="204.743617407" y2="158.3886233712"/><linearGradient id="l" gradientUnits="userSpaceOnUse" x1="217.7861652784" x2="184.7065338096" xlink:href="#h" y1="279.0747050324" y2="-108.3057657338"/><linearGradient id="m"><stop offset="0" stop-color="#45425a"/><stop offset=".4759" stop-color="#424059"/><stop offset=".7742" stop-color="#3a3b56"/><stop offset="1" stop-color="#2d3251"/></linearGradient><linearGradient id="n" gradientUnits="userSpaceOnUse" x1="78.0685334788" x2="61.306650198" xlink:href="#m" y1="210.1118895176" y2="206.9895917054"/><linearGradient id="o" gradientUnits="userSpaceOnUse" x1="337.4828818086" x2="320.7209985278" xlink:href="#m" y1="210.1118895176" y2="206.9895917054"/><linearGradient id="p" gradientUnits="userSpaceOnUse" x1="115.786987333" x2="362.6214902574" xlink:href="#a" y1="22.2460582058" y2="269.0805611302"/><linearGradient id="q" gradientUnits="userSpaceOnUse" x1="141.5970188154" x2="294.2437604842" xlink:href="#c" y1="35.5358772496" y2="207.04912428"/><linearGradient id="r" gradientUnits="userSpaceOnUse" x1="122.7999848562" x2="351.0484782258" xlink:href="#a" y1="100.202709742" y2="328.4512031116"/><radialGradient id="s" cx="255.8671" cy="230.8651" gradientTransform="matrix(.96778 0 0 .315733 -37.851232 158.879373)" gradientUnits="userSpaceOnUse" r="227.7089"><stop offset="0" stop-color="#a64153"/><stop offset=".4669" stop-color="#a74251" stop-opacity=".533333"/><stop offset=".635" stop-color="#ad484a" stop-opacity=".364706"/><stop offset=".7549" stop-color="#b6513f" stop-opacity=".247059"/><stop offset=".8518" stop-color="#c25e2e" stop-opacity=".14902"/><stop offset=".9339" stop-color="#d36f18" stop-opacity=".066667"/><stop offset="1" stop-color="#e58200" stop-opacity="0"/></radialGradient><linearGradient id="t"><stop offset="0" stop-color="#ffc738"/><stop offset=".4873" stop-color="#ffc636"/><stop offset=".6746" stop-color="#ffc22f"/><stop offset=".8103" stop-color="#ffbb23"/><stop offset=".9203" stop-color="#ffb112"/><stop offset="1" stop-color="#ffa700"/></linearGradient><radialGradient id="u" cx="208.924345" cy="81.0968693756" gradientUnits="userSpaceOnUse" r="46.575455307" xlink:href="#t"/><radialGradient id="v" cx="203.9485059992" cy="43.7621145098" gradientUnits="userSpaceOnUse" r="79.0219131704" xlink:href="#t"/><linearGradient id="w" gradientUnits="userSpaceOnUse" x1="230.1400278416" x2="170.5154939864" xlink:href="#h" y1="116.367861786" y2="56.7432275386"/><linearGradient id="x" gradientUnits="userSpaceOnUse" x1="245.5301521016" x2="188.019677194" xlink:href="#h" y1="101.3112404144" y2="43.8006651146"/><linearGradient id="y"><stop offset="0" stop-color="#fffcf8"/><stop offset=".1875" stop-color="#faf8f6"/><stop offset=".4041" stop-color="#eceef2"/><stop offset=".6353" stop-color="#d5dcea"/><stop offset=".875" stop-color="#b5c4df"/><stop offset="1" stop-color="#a1b5d8"/></linearGradient><linearGradient id="z" gradientUnits="userSpaceOnUse" x1="182.630121937" x2="206.2440740444" xlink:href="#y" y1="81.2219580568" y2="81.2219580568"/><linearGradient id="A" gradientUnits="userSpaceOnUse" x1="211.5996967378" x2="235.2136488452" xlink:href="#y" y1="81.2219580568" y2="81.2219580568"/><linearGradient id="B" gradientUnits="userSpaceOnUse" x1="135.3011227768" x2="191.5121210476" xlink:href="#a" y1="372.2380642792" y2="428.44906255"/><linearGradient id="C" gradientUnits="userSpaceOnUse" x1="313.6051993918" x2="224.8123141798" xlink:href="#c" y1="435.7101291994" y2="419.170313465"/><linearGradient id="D" gradientUnits="userSpaceOnUse" x1="238.8168252954" x2="302.0127112734" xlink:href="#a" y1="364.043952523" y2="427.239838501"/><path d="m407.039062 512h-396.226562c-5.972656 0-10.8125-4.839844-10.8125-10.8125v-58.0625c0-23.609375 15.0625-44.589844 37.429688-52.136719l117.214843-39.558593c35.210938-11.886719 73.347657-11.886719 108.558594 0l117.214844 39.558593c22.371093 7.546875 37.429687 28.527344 37.429687 52.136719v58.0625c0 5.972656-4.839844 10.8125-10.808594 10.8125zm0 0" fill="url(#b)"/><path d="m208.484375 397.457031.441406-.4375-57.734375-44.425781-29.320312 9.894531c.058594.882813.25 1.773438.59375 2.636719l28.285156 70.253906c.867188 2.148438 2.351562 3.785156 4.132812 4.851563l71.769532 71.769531h97.183594zm0 0" fill="url(#d)"/><path d="m407.039062 512c5.96875 0 10.808594-4.839844 10.808594-10.8125v-58.0625c0-23.609375-15.058594-44.589844-37.429687-52.136719l-117.210938-39.558593c-17.609375-5.945313-35.945312-8.914063-54.28125-8.914063v169.484375zm0 0" fill="url(#e)"/><path d="m157.332031 371.320312c-8.625-4.296874-14.113281-13.34375-14.113281-23.269531v-28.871093h131.410156v28.871093c0 9.925781-5.488281 18.972657-14.113281 23.269531l-51.589844 25.699219zm0 0" fill="url(#g)"/><path d="m274.628906 348.050781v-28.871093h-131.410156v27.003906l36.074219 36.074218 29.632812 14.757813 51.589844-25.695313c8.625-4.296874 14.113281-13.34375 14.113281-23.269531zm0 0" fill="url(#i)"/><path d="m348.640625 175.121094c0 87.023437-62.554687 198.902344-139.714844 198.902344-77.164062 0-139.71875-111.878907-139.71875-198.902344 0-87.027344 62.554688-157.574219 139.71875-157.574219 77.164063 0 139.714844 70.546875 139.714844 157.574219zm0 0" fill="url(#j)"/><path d="m216.957031 288.496094c-4.4375 0-8.03125 3.597656-8.03125 8.03125v77.496094c77.164063 0 139.714844-111.878907 139.714844-198.902344 0-87.027344-62.554687-157.574219-139.714844-157.574219v210.734375c0 8.710938 1.777344 17.332031 5.222657 25.332031l10.1875 23.671875c2.285156 5.300782-1.605469 11.210938-7.378907 11.210938zm0 0" fill="url(#k)"/><path d="m70.65625 198.757812 169.230469 169.230469c62.261719-24.359375 108.753906-117.84375 108.753906-192.867187 0-87.027344-62.554687-157.574219-139.714844-157.574219-77.164062 0-139.71875 70.546875-139.71875 157.574219 0 7.714844.5 15.628906 1.449219 23.636718zm0 0" fill="url(#l)"/><path d="m84.101562 247.796875h-9.769531c-5.957031 0-10.785156-4.828125-10.785156-10.78125v-62.339844h31.339844v62.339844c0 5.953125-4.828125 10.78125-10.785157 10.78125zm0 0" fill="url(#n)"/><path d="m343.515625 247.796875h-9.769531c-5.957032 0-10.785156-4.828125-10.785156-10.78125v-62.339844h31.339843v62.339844c0 5.953125-4.828125 10.78125-10.785156 10.78125zm0 0" fill="url(#o)"/><path d="m161.253906 11.257812-66.238281 32.988282c-19.042969 9.484375-31.160156 29.460937-31.160156 51.378906v63.742188h290.136719v-63.742188c0-21.917969-12.117188-41.894531-31.160157-51.378906l-66.238281-32.988282c-30.132812-15.011718-65.207031-15.011718-95.339844 0zm0 0" fill="url(#p)"/><path d="m183.070312 11.257812-35.917968 32.988282c-10.328125 9.484375-16.898438 29.460937-16.898438 51.378906v63.742188h157.339844v-63.742188c0-21.917969-6.570312-41.894531-16.898438-51.378906l-35.917968-32.988282c-16.34375-15.011718-35.363282-15.011718-51.707032 0zm0 0" fill="url(#q)"/><path d="m372.742188 184.113281c5.722656 8.429688-1.601563 19.6875-11.292969 17.402344-45.546875-10.75-97.449219-16.828125-152.523438-16.828125-55.078125 0-106.980469 6.078125-152.527343 16.828125-9.691407 2.285156-17.015626-8.972656-11.292969-17.402344l18.574219-27.359375c5.425781-1.199218 10.925781-2.335937 16.503906-3.40625 39.511718-7.5625 83.039062-11.753906 128.742187-11.753906s89.230469 4.191406 128.742188 11.753906c5.574219 1.070313 11.078125 2.207032 16.5 3.40625zm0 0" fill="url(#r)"/><path d="m372.742188 184.113281c5.722656 8.429688-1.601563 19.6875-11.292969 17.402344-45.546875-10.75-97.449219-16.828125-152.523438-16.828125-55.078125 0-106.980469 6.078125-152.527343 16.828125-9.691407 2.285156-17.015626-8.972656-11.292969-17.402344l18.574219-27.359375c5.425781-1.199218 10.925781-2.335937 16.503906-3.40625 39.511718-7.5625 83.039062-11.753906 128.742187-11.753906s89.230469 4.191406 128.742188 11.753906c5.574219 1.070313 11.078125 2.207032 16.5 3.40625zm0 0" fill="url(#s)"/><path d="m255.5 81.097656c0 25.722656-20.851562 46.574219-46.574219 46.574219-25.722656 0-46.578125-20.851563-46.578125-46.574219s20.855469-46.574218 46.578125-46.574218c25.722657 0 46.574219 20.851562 46.574219 46.574218zm0 0" fill="url(#u)"/><path d="m246.875 81.097656c0 20.957032-16.992188 37.949219-37.949219 37.949219-20.960937 0-37.953125-16.992187-37.953125-37.949219 0-20.960937 16.992188-37.949218 37.953125-37.949218 20.957031 0 37.949219 16.988281 37.949219 37.949218zm0 0" fill="url(#v)"/><path d="m251.257812 100.367188c-4.53125 10.003906-12.507812 18.117187-22.410156 22.828124-6.039062 2.871094-12.796875 4.480469-19.925781 4.480469-1.625 0-3.226563-.085937-4.808594-.246093l-13.765625-13.765626c-1.65625-1.300781-2.679687-3.359374-2.539062-5.632812l1.816406-29.332031c-.125-.125-.246094-.253907-.359375-.386719-.410156-.359375-.800781-.753906-1.175781-1.171875-3.28125-2.871094-5.457032-7.894531-5.457032-13.617187 0-8.925782 5.285157-16.164063 11.804688-16.164063 2.871094 0 5.5 1.40625 7.546875 3.734375zm0 0" fill="url(#w)"/><path d="m251.257812 100.367188c-4.53125 10.003906-12.507812 18.117187-22.410156 22.828124l-9.535156-9.53125c-1.652344-1.300781-2.675781-3.359374-2.535156-5.632812l1.8125-29.332031c-.117188-.125-.238282-.253907-.359375-.386719-.40625-.359375-.800781-.753906-1.171875-1.171875-3.28125-2.871094-5.457032-7.894531-5.457032-13.617187 0-.835938.046876-1.742188.132813-2.675782.453125-4.734375 2-10.355468 4.210937-12.832031.785157-.871094 2.203126-.371094 2.328126.742187.578124.078126 2.828124 2.476563 3.023437 2.628907v-1.890625c0-1.160156.929687-2.128906 2.089844-2.132813h.039062c.875.003907 1.621094.554688 1.929688 1.324219.53125.214844 2.949219 2.6875 3.167969 2.953125v-2.71875c0-1.230469 1.523437-1.820313 2.34375-.902344l23.488281 23.488281c.667969 3.132813 1.019531 6.382813 1.019531 9.714844 0 6.824219-1.472656 13.308594-4.117188 19.144532zm0 0" fill="url(#x)"/><path d="m206.242188 63.519531c0-8.921875-5.285157-16.15625-11.804688-16.15625-6.523438 0-11.808594 7.234375-11.808594 16.15625 0 6.59375 2.886719 12.257813 7.019532 14.773438l-1.839844 29.734375c-.238282 3.824218 2.796875 7.054687 6.628906 7.054687 3.828125 0 6.863281-3.230469 6.628906-7.054687l-1.839844-29.734375c4.132813-2.515625 7.015626-8.179688 7.015626-14.773438zm0 0" fill="url(#z)"/><path d="m235.214844 63.519531c0-5.050781-1.695313-12.539062-4.347656-15.503906-.820313-.914063-2.339844-.328125-2.339844.902344v16.648437c0 .824219-.636719 1.542969-1.460938 1.570313-.851562.023437-1.550781-.660157-1.550781-1.507813v-16.136718c0-1.15625-.929687-2.125-2.085937-2.128907-.007813 0-.015626 0-.023438 0s-.011719 0-.023438 0c-1.15625.003907-2.085937.972657-2.085937 2.128907v16.078124c0 .824219-.632813 1.542969-1.457031 1.566407-.851563.023437-1.554688-.65625-1.554688-1.503907v-16.714843c0-1.226563-1.519531-1.816407-2.339844-.898438-2.652343 2.960938-4.347656 10.449219-4.347656 15.503907 0 6.589843 2.886719 12.253906 7.019532 14.769531l-1.839844 29.738281c-.238282 3.820312 2.796875 7.050781 6.628906 7.050781 3.828125 0 6.867188-3.230469 6.628906-7.050781l-1.839844-29.738281c4.132813-2.515625 7.019532-8.179688 7.019532-14.773438zm0 0" fill="url(#A)"/><path d="m208.925781 397.019531-41.71875 41.714844c-5.105469 5.105469-13.761719 3.335937-16.453125-3.355469l-28.285156-70.253906c-1.683594-4.183594.152344-8.953125 4.207031-10.921875l16.308594-7.925781zm0 0" fill="url(#B)"/><path d="m323.90625 512h83.132812c5.96875 0 10.808594-4.839844 10.808594-10.8125v-20.578125l-116.207031-116.207031-34.984375-11.808594-57.730469 44.425781zm0 0" fill="url(#C)"/><path d="m208.925781 397.019531 41.714844 41.714844c5.105469 5.105469 13.761719 3.335937 16.457031-3.355469l28.285156-70.253906c1.679688-4.183594-.15625-8.953125-4.210937-10.921875l-16.308594-7.925781zm0 0" fill="url(#D)"/></svg>