<svg height="512pt" viewBox="0 -93 512.001 512" width="512pt" xmlns="http://www.w3.org/2000/svg" xmlns:xlink="http://www.w3.org/1999/xlink"><linearGradient id="a"><stop offset="0" stop-color="#3b395f"/><stop offset=".8022" stop-color="#1b1f3a"/><stop offset="1" stop-color="#131830"/></linearGradient><linearGradient id="b" gradientUnits="userSpaceOnUse" x1="231.2623676058" x2="231.2623676058" xlink:href="#a" y1="12.8691132026" y2="266.236136581"/><linearGradient id="c" gradientUnits="userSpaceOnUse" x1="280.7378523942" x2="280.7378523942" y1="-8.4668394946" y2="195.3506096518"><stop offset=".0029" stop-color="#00e7b2"/><stop offset=".4308" stop-color="#1bc4b7"/><stop offset="1" stop-color="#3b9abe"/></linearGradient><linearGradient id="d" gradientUnits="userSpaceOnUse" x1="551.5761303386" x2="312.5358770378" y1="343.0038432926" y2="211.8168379036"><stop offset=".0029" stop-color="#00e7b2" stop-opacity="0"/><stop offset=".1297" stop-color="#10d3b5" stop-opacity=".12549"/><stop offset=".3255" stop-color="#23bab9" stop-opacity=".321569"/><stop offset=".5302" stop-color="#30a8bc" stop-opacity=".529412"/><stop offset=".7478" stop-color="#389dbd" stop-opacity=".74902"/><stop offset="1" stop-color="#3b9abe"/></linearGradient><linearGradient id="e" gradientUnits="userSpaceOnUse" x1="257.032643777" x2="257.032643777" y1="164.0975138698" y2="392.9708482922"><stop offset="0" stop-color="#8be1e2"/><stop offset=".1873" stop-color="#87e1e1"/><stop offset=".3558" stop-color="#7ce2dd"/><stop offset=".5172" stop-color="#6ae2d7"/><stop offset=".6741" stop-color="#50e4ce"/><stop offset=".8278" stop-color="#2fe5c2"/><stop offset=".9772" stop-color="#07e7b4"/><stop offset="1" stop-color="#00e7b2"/></linearGradient><linearGradient id="f"><stop offset=".0029" stop-color="#00e7b2" stop-opacity="0"/><stop offset=".4308" stop-color="#1bc4b7" stop-opacity=".427451"/><stop offset="1" stop-color="#3b9abe"/></linearGradient><linearGradient id="g" gradientUnits="userSpaceOnUse" x1="257.032643777" x2="257.032643777" xlink:href="#f" y1="266.4300943114" y2="330.7309972348"/><linearGradient id="h" gradientUnits="userSpaceOnUse" x1="50.2059384356" x2="463.8590479418" xlink:href="#a" y1="199.713253095" y2="199.713253095"/><linearGradient id="i" gradientUnits="userSpaceOnUse" x1="225.2298003078" x2="346.4627182824" xlink:href="#a" y1="167.9103092336" y2="289.1432272082"/><linearGradient id="j" gradientUnits="userSpaceOnUse" x1="100.937329646" x2="123.6665252948" xlink:href="#f" y1="77.8027881626" y2="171.6211061222"/><linearGradient id="k" gradientUnits="userSpaceOnUse" x1="380.9411142738" x2="403.6703099226" xlink:href="#f" y1="188.7671903524" y2="282.5856087042"/><path d="m437.558594 253.0625h-412.59375c-13.789063 0-24.964844-11.175781-24.964844-24.960938v-203.136718c0-13.789063 11.175781-24.964844 24.964844-24.964844h412.59375c13.789062 0 24.964844 11.175781 24.964844 24.964844v203.136718c0 13.785157-11.175782 24.960938-24.964844 24.960938zm0 0" fill="url(#b)"/><path d="m487.035156 302.539062h-412.59375c-13.789062 0-24.964844-11.175781-24.964844-24.964843v-203.136719c0-13.785156 11.175782-24.960938 24.964844-24.960938h412.59375c13.789063 0 24.964844 11.175782 24.964844 24.960938v203.136719c0 13.789062-11.175781 24.964843-24.964844 24.964843zm0 0" fill="url(#c)"/><path d="m74.441406 302.539062h412.59375c13.789063 0 24.964844-11.175781 24.964844-24.960937v-166.03125l-30.238281-30.238281c-4.5625-4.992188-11.128907-8.128906-18.429688-8.128906h-412.597656c-.410156 0-.820313.011718-1.226563.03125-.023437.40625-.03125.816406-.03125 1.230468v203.136719c0 13.785156 11.175782 24.960937 24.964844 24.960937zm0 0" fill="url(#d)"/><path d="m463.332031 326.246094h-412.597656c-13.785156 0-24.964844-11.179688-24.964844-24.964844v-203.136719c0-13.785156 11.179688-24.964843 24.964844-24.964843h412.597656c13.785157 0 24.960938 11.175781 24.960938 24.964843v203.136719c0 13.785156-11.175781 24.964844-24.960938 24.964844zm0 0" fill="url(#e)"/><path d="m25.769531 242.929688v58.351562c0 13.785156 11.179688 24.960938 24.964844 24.960938h412.597656c13.785157 0 24.964844-11.175782 24.964844-24.960938v-58.351562zm0 0" fill="url(#g)"/><path d="m452.511719 296.558594h-390.957031c-6.257813 0-11.347657-5.089844-11.347657-11.347656v-170.996094c0-6.253906 5.089844-11.347656 11.347657-11.347656h390.957031c6.257812 0 11.347656 5.09375 11.347656 11.347656v170.996094c0 6.257812-5.089844 11.347656-11.347656 11.347656zm-387.246094-15.058594h383.535156v-163.574219h-383.535156zm0 0" fill="url(#h)"/><path d="m309.578125 199.710938c0 29.019531-23.527344 52.546874-52.546875 52.546874s-52.542969-23.527343-52.542969-52.546874c0-29.019532 23.523438-52.542969 52.542969-52.542969s52.546875 23.523437 52.546875 52.542969zm0 0" fill="url(#i)"/><path d="m146.566406 156.496094h-59.070312c-3.671875 0-6.644532-2.976563-6.644532-6.648438v-11.234375c0-3.671875 2.972657-6.648437 6.644532-6.648437h59.070312c3.667969 0 6.644532 2.976562 6.644532 6.648437v11.234375c0 3.671875-2.976563 6.648438-6.644532 6.648438zm0 0" fill="url(#j)"/><path d="m426.566406 267.460938h-59.066406c-3.671875 0-6.644531-2.976563-6.644531-6.648438v-11.234375c0-3.671875 2.972656-6.648437 6.644531-6.648437h59.066406c3.671875 0 6.648438 2.976562 6.648438 6.648437v11.234375c0 3.671875-2.976563 6.648438-6.648438 6.648438zm0 0" fill="url(#k)"/></svg>