<svg height="512pt" viewBox="0 -73 512.001 512" width="512pt" xmlns="http://www.w3.org/2000/svg" xmlns:xlink="http://www.w3.org/1999/xlink"><linearGradient id="a"><stop offset="0" stop-color="#45425a"/><stop offset=".4759" stop-color="#424059"/><stop offset=".7742" stop-color="#3a3b56"/><stop offset="1" stop-color="#2d3251"/></linearGradient><linearGradient id="b" gradientUnits="userSpaceOnUse" x1="256.00011" x2="256.00011" xlink:href="#a" y1="354.1644353806" y2="291.9675521848"/><radialGradient id="c" cx="97.7605188692" cy="310.9482034778" gradientUnits="userSpaceOnUse" r="51.7774779344" xlink:href="#a"/><radialGradient id="d" cx="116.400740212" cy="327.3145414906" gradientUnits="userSpaceOnUse" r="52.4625543072" xlink:href="#a"/><linearGradient id="e"><stop offset="0" stop-color="#ffd459"/><stop offset=".2296" stop-color="#ffd355"/><stop offset=".4362" stop-color="#ffcf4a"/><stop offset=".634" stop-color="#ffc838"/><stop offset=".825" stop-color="#ffbf1f"/><stop offset="1" stop-color="#ffb400"/></linearGradient><linearGradient id="f" gradientUnits="userSpaceOnUse" x1="76.2219747124" x2="122.8008433542" xlink:href="#e" y1="314.4500841982" y2="314.4500841982"/><linearGradient id="g"><stop offset="0" stop-color="#e58200" stop-opacity="0"/><stop offset=".0396" stop-color="#e27f04" stop-opacity=".039216"/><stop offset=".4671" stop-color="#c15d2f" stop-opacity=".466667"/><stop offset=".8016" stop-color="#ad4949" stop-opacity=".8"/><stop offset="1" stop-color="#a64153"/></linearGradient><linearGradient id="h" gradientUnits="userSpaceOnUse" x1="113.5873491992" x2="92.459208356" xlink:href="#g" y1="328.525974168" y2="307.3978333248"/><radialGradient id="i" cx="99.5114592294" cy="314.4500841982" gradientUnits="userSpaceOnUse" r="12.3143080364" xlink:href="#a"/><radialGradient id="j" cx="435.9688900754" cy="310.9482034778" gradientUnits="userSpaceOnUse" r="51.7774779344" xlink:href="#a"/><radialGradient id="k" cx="454.6091114182" cy="327.3145414906" gradientUnits="userSpaceOnUse" r="52.4625543072" xlink:href="#a"/><linearGradient id="l" gradientUnits="userSpaceOnUse" x1="414.4303459186" x2="461.0093149526" xlink:href="#e" y1="314.4500841982" y2="314.4500841982"/><linearGradient id="m" gradientUnits="userSpaceOnUse" x1="451.7957204054" x2="430.6675795622" xlink:href="#g" y1="328.525974168" y2="307.3978333248"/><radialGradient id="n" cx="437.7198304356" cy="314.4500841982" gradientUnits="userSpaceOnUse" r="12.3143080364" xlink:href="#a"/><linearGradient id="o" gradientUnits="userSpaceOnUse" x1="256.00011" x2="256.00011" xlink:href="#e" y1="256.0309594884" y2="308.4715279038"/><linearGradient id="p"><stop offset="0" stop-color="#fffcf8"/><stop offset=".1875" stop-color="#faf8f6"/><stop offset=".4041" stop-color="#eceef2"/><stop offset=".6353" stop-color="#d5dcea"/><stop offset=".875" stop-color="#b5c4df"/><stop offset="1" stop-color="#a1b5d8"/></linearGradient><linearGradient id="q" gradientUnits="userSpaceOnUse" x1="53.5413688884" x2="241.2747828884" xlink:href="#p" y1="-37.4701548606" y2="232.3965273722"/><linearGradient id="r"><stop offset="0" stop-color="#a1b5d8" stop-opacity="0"/><stop offset=".3544" stop-color="#93a5c2" stop-opacity=".352941"/><stop offset="1" stop-color="#748290"/></linearGradient><linearGradient id="s" gradientUnits="userSpaceOnUse" x1="164.167348972" x2="168.6088002922" xlink:href="#r" y1="36.6845436694" y2="130.510893005"/><linearGradient id="t" gradientUnits="userSpaceOnUse" x1="164.167348972" x2="168.6088002922" xlink:href="#r" y1="91.0845670444" y2="184.91091638"/><linearGradient id="u" gradientUnits="userSpaceOnUse" x1="164.167348972" x2="168.6088002922" xlink:href="#r" y1="145.4845904194" y2="239.310939755"/><linearGradient id="v" gradientUnits="userSpaceOnUse" x1="164.167348972" x2="168.6088002922" xlink:href="#r" y1="199.8846137944" y2="293.71096313"/><linearGradient id="w" gradientUnits="userSpaceOnUse" x1="222.3966320316" x2="53.8632262816" xlink:href="#r" y1="138.0683174288" y2="-204.3318296962"/><linearGradient id="x" gradientUnits="userSpaceOnUse" x1="164.3333976708" x2="164.3333976708" xlink:href="#p" y1="-1.0358176366" y2="39.0143454548"/><linearGradient id="y" gradientUnits="userSpaceOnUse" x1="164.3333976708" x2="164.3333976708" xlink:href="#p" y1="214.4309416134" y2="254.4811047048"/><linearGradient id="z" gradientUnits="userSpaceOnUse" x1="178.1115243754" x2="146.1115106254" xlink:href="#g" y1="290.356357767" y2="134.0895737584"/><linearGradient id="A" gradientUnits="userSpaceOnUse" x1="446.2220458536" x2="482.7553697868" xlink:href="#a" y1="112.4305589616" y2="112.4305589616"/><linearGradient id="B"><stop offset="0" stop-color="#ff6e3a"/><stop offset=".1596" stop-color="#ff6440"/><stop offset=".4266" stop-color="#ff4b52"/><stop offset=".7662" stop-color="#ff216e"/><stop offset="1" stop-color="#ff0084"/></linearGradient><linearGradient id="C" gradientUnits="userSpaceOnUse" x1="375.00502388" x2="515.80508438" xlink:href="#B" y1="133.451882504" y2="362.785314379"/><linearGradient id="D" gradientUnits="userSpaceOnUse" x1="441.5958728854" x2="219.7780018868" xlink:href="#B" y1="205.022485806" y2="28.2771988804"/><linearGradient id="E"><stop offset="0" stop-color="#e58200" stop-opacity="0"/><stop offset=".4384" stop-color="#c4602c" stop-opacity=".439216"/><stop offset=".7953" stop-color="#ae4948" stop-opacity=".796078"/><stop offset="1" stop-color="#a64153"/></linearGradient><linearGradient id="F" gradientUnits="userSpaceOnUse" x1="456.5740879488" x2="513.9074710156" xlink:href="#E" y1="180.6249725776" y2="126.4915908858"/><linearGradient id="G" gradientUnits="userSpaceOnUse" x1="333.617837469" x2="431.2292739212" xlink:href="#a" y1="69.862459102" y2="167.4738955542"/><linearGradient id="H" gradientUnits="userSpaceOnUse" x1="361.4222603966" x2="361.4222603966" xlink:href="#B" y1="176.8310509474" y2="147.2935574712"/><linearGradient id="I" gradientUnits="userSpaceOnUse" x1="372.2380140636" x2="364.5047025054" xlink:href="#E" y1="184.2649929652" y2="166.3982935234"/><linearGradient id="J" gradientUnits="userSpaceOnUse" x1="361.4222603966" x2="361.4222603966" xlink:href="#a" y1="164.0310454474" y2="172.6017283458"/><linearGradient id="K" gradientUnits="userSpaceOnUse" x1="492.9567231898" x2="450.4635159114" xlink:href="#E" y1="172.4966177124" y2="130.003410434"/><linearGradient id="L" gradientTransform="matrix(-1.003922 0 0 1.003922 960.877929 -72.886214)" gradientUnits="userSpaceOnUse" x1="493.3884" x2="510.0919" xlink:href="#e" y1="208.1214" y2="208.1214"/><path d="m499.019531 243.585938h-486.039062c-7.167969 0-12.980469 5.8125-12.980469 12.980468v35.195313c0 7.167969 5.8125 12.980469 12.980469 12.980469h486.039062c7.167969 0 12.980469-5.8125 12.980469-12.980469v-35.195313c0-7.167968-5.8125-12.980468-12.980469-12.980468zm0 0" fill="url(#b)"/><path d="m99.511719 262.671875c-28.59375 0-51.777344 23.183594-51.777344 51.777344 0 28.597656 23.183594 51.777343 51.777344 51.777343s51.777343-23.179687 51.777343-51.777343c0-28.59375-23.183593-51.777344-51.777343-51.777344zm0 0" fill="url(#c)"/><path d="m99.511719 278.832031c-19.671875 0-35.617188 15.945313-35.617188 35.617188s15.945313 35.621093 35.617188 35.621093 35.617187-15.949218 35.617187-35.621093-15.945312-35.617188-35.617187-35.617188zm0 0" fill="url(#d)"/><path d="m122.800781 314.449219c0 12.863281-10.425781 23.289062-23.289062 23.289062s-23.289063-10.425781-23.289063-23.289062 10.425782-23.289063 23.289063-23.289063 23.289062 10.425782 23.289062 23.289063zm0 0" fill="url(#f)"/><path d="m122.191406 319.726562-13.722656-13.722656c-2.246094-2.378906-5.425781-3.867187-8.957031-3.867187-6.800781 0-12.3125 5.511719-12.3125 12.3125 0 3.53125 1.484375 6.710937 3.867187 8.957031l13.722656 13.726562c8.621094-2 15.40625-8.78125 17.402344-17.40625zm0 0" fill="url(#h)"/><path d="m111.824219 314.449219c0 6.800781-5.511719 12.316406-12.3125 12.316406s-12.3125-5.515625-12.3125-12.316406 5.511719-12.3125 12.3125-12.3125 12.3125 5.511719 12.3125 12.3125zm0 0" fill="url(#i)"/><path d="m437.71875 262.671875c-28.59375 0-51.777344 23.183594-51.777344 51.777344 0 28.597656 23.183594 51.777343 51.777344 51.777343 28.597656 0 51.777344-23.179687 51.777344-51.777343 0-28.59375-23.179688-51.777344-51.777344-51.777344zm0 0" fill="url(#j)"/><path d="m437.71875 278.832031c-19.671875 0-35.617188 15.945313-35.617188 35.617188s15.945313 35.621093 35.617188 35.621093 35.621094-15.949218 35.621094-35.621093-15.949219-35.617188-35.621094-35.617188zm0 0" fill="url(#k)"/><path d="m461.007812 314.449219c0 12.863281-10.425781 23.289062-23.289062 23.289062-12.859375 0-23.289062-10.425781-23.289062-23.289062s10.429687-23.289063 23.289062-23.289063c12.863281 0 23.289062 10.425782 23.289062 23.289063zm0 0" fill="url(#l)"/><path d="m460.402344 319.726562-13.726563-13.722656c-2.246093-2.378906-5.425781-3.867187-8.953125-3.867187-6.800781 0-12.316406 5.511719-12.316406 12.3125 0 3.53125 1.488281 6.710937 3.867188 8.957031l13.726562 13.726562c8.621094-2 15.402344-8.78125 17.402344-17.40625zm0 0" fill="url(#m)"/><path d="m450.035156 314.449219c0 6.800781-5.515625 12.316406-12.316406 12.316406s-12.3125-5.515625-12.3125-12.316406 5.511719-12.3125 12.3125-12.3125 12.316406 5.511719 12.316406 12.3125zm0 0" fill="url(#n)"/><path d="m499.019531 243.585938h-486.039062c-7.167969 0-12.980469 5.8125-12.980469 12.980468v35.195313c0 7.167969 5.8125 12.980469 12.980469 12.980469h25.230469c1.796874 0 3.351562-1.253907 3.738281-3.011719 5.8125-26.441407 29.371093-46.234375 57.5625-46.234375 28.1875 0 51.746093 19.792968 57.5625 46.234375.386719 1.757812 1.9375 3.011719 3.738281 3.011719h215.605469c1.800781 0 3.351562-1.253907 3.738281-3.011719 5.816406-26.441407 29.371094-46.234375 57.5625-46.234375s51.746094 19.792968 57.5625 46.234375c.386719 1.757812 1.9375 3.011719 3.738281 3.011719 7.167969 0 12.980469-5.8125 12.980469-12.980469v-35.195313c0-7.167968-5.8125-12.980468-12.980469-12.980468zm0 0" fill="url(#o)"/><path d="m4.6875 12.992188h319.292969v217.601562h-319.292969zm0 0" fill="url(#q)"/><path d="m4.6875 12.992188h319.292969v54.402343h-319.292969zm0 0" fill="url(#s)"/><path d="m4.6875 67.394531h319.292969v54.398438h-319.292969zm0 0" fill="url(#t)"/><path d="m4.6875 121.792969h319.292969v54.402343h-319.292969zm0 0" fill="url(#u)"/><path d="m4.6875 176.195312h319.292969v54.398438h-319.292969zm0 0" fill="url(#v)"/><path d="m208.066406 230.59375h115.910156v-217.601562h-319.289062v14.222656zm0 0" fill="url(#w)"/><path d="m319.074219 0h-309.480469c-5.296875 0-9.59375 4.296875-9.59375 9.59375v8.933594c0 5.296875 4.296875 9.59375 9.59375 9.59375h309.480469c5.296875 0 9.59375-4.296875 9.59375-9.59375v-8.933594c0-5.296875-4.296875-9.59375-9.59375-9.59375zm0 0" fill="url(#x)"/><path d="m319.074219 215.46875h-309.480469c-5.296875 0-9.59375 4.292969-9.59375 9.59375v8.929688c0 5.300781 4.296875 9.59375 9.59375 9.59375h309.480469c5.296875 0 9.59375-4.292969 9.59375-9.59375v-8.929688c0-5.300781-4.296875-9.59375-9.59375-9.59375zm0 0" fill="url(#y)"/><path d="m99.511719 255.496094c28.191406 0 51.746093 19.792968 57.5625 46.234375.386719 1.757812 1.9375 3.011719 3.738281 3.011719h163.277344v-61.15625h-311.109375l37.757812 37.757812c10.601563-15.597656 28.488281-25.847656 48.773438-25.847656zm0 0" fill="url(#z)"/><path d="m470.515625 138.964844h-2.425781v-8.535156h2.425781c2.042969 0 3.707031-1.664063 3.707031-3.707032v-28.585937c0-2.042969-1.664062-3.707031-3.707031-3.707031h-24.292969v-8.535157h24.292969c6.75 0 12.238281 5.492188 12.238281 12.242188v28.585937c0 6.75-5.488281 12.242188-12.238281 12.242188zm0 0" fill="url(#A)"/><path d="m459.332031 122.8125c0-28.664062-19.328125-53.722656-47.054687-61l-56.433594-14.8125c-13.742188-3.605469-27.175781 6.757812-27.175781 20.964844v175.621094h168.296875c8.304687 0 15.035156-6.730469 15.035156-15.035157v-45.203125c0-21.640625-15.816406-40.035156-37.210938-43.28125l-.714843-.105468c-8.476563-1.285157-14.742188-8.574219-14.742188-17.148438zm0 0" fill="url(#C)"/><path d="m441.941406 234.164062h-91.707031c-5.308594 0-9.613281-4.304687-9.613281-9.613281v-148.394531c0-7.4375 6.851562-12.988281 14.128906-11.449219l40.9375 8.660157c32.570312 6.890624 55.867188 35.636718 55.867188 68.921874v82.261719c0 5.308594-4.304688 9.613281-9.613282 9.613281zm0 0" fill="url(#D)"/><path d="m512 183.347656c0-21.640625-15.816406-40.035156-37.214844-43.28125l-.710937-.105468c-8.476563-1.285157-14.742188-8.574219-14.742188-17.148438v44.984375c0 8.671875 7.03125 15.699219 15.699219 15.699219h36.96875zm0 0" fill="url(#F)"/><path d="m395.710938 77.765625-38.566407-8.160156c-6.855469-1.449219-13.308593 3.78125-13.308593 10.789062v65.742188c0 4.433593 3.59375 8.027343 8.027343 8.027343h88.453125c4.433594 0 8.027344-3.59375 8.027344-8.027343v-3.441407c0-31.359374-21.949219-58.441406-52.632812-64.929687zm0 0" fill="url(#G)"/><path d="m372.769531 177.898438h-22.695312c-2.863281 0-5.1875-2.324219-5.1875-5.1875v-6.425782c0-2.867187 2.324219-5.1875 5.1875-5.1875h22.695312c2.863281 0 5.1875 2.320313 5.1875 5.1875v6.425782c0 2.863281-2.324219 5.1875-5.1875 5.1875zm0 0" fill="url(#H)"/><path d="m373.769531 165.355469c-.683593-.765625-1.667969-1.257813-2.777343-1.257813h-19.140626c-2.058593 0-3.730468 1.667969-3.730468 3.730469v3.339844c0 1.109375.496094 2.09375 1.261718 2.777343l15.292969 15.292969c.683594.765625 1.667969 1.261719 2.777344 1.261719h19.140625c2.058594 0 3.730469-1.671875 3.730469-3.730469v-3.34375c0-1.105469-.496094-2.09375-1.261719-2.773437zm0 0" fill="url(#I)"/><path d="m370.992188 174.898438h-19.140626c-2.058593 0-3.730468-1.671876-3.730468-3.730469v-3.339844c0-2.0625 1.671875-3.730469 3.730468-3.730469h19.140626c2.058593 0 3.730468 1.667969 3.730468 3.730469v3.339844c0 2.058593-1.671875 3.730469-3.730468 3.730469zm0 0" fill="url(#J)"/><path d="m474.789062 140.066406-.714843-.105468c-8.472657-1.285157-14.738281-8.574219-14.738281-17.148438 0-3.210938-.257813-6.375-.726563-9.476562-.980469-.199219-1.992187-.3125-3.027344-.3125h-1.21875c-1.550781 0-2.804687 1.253906-2.804687 2.804687v40.445313c0 1.070312.605468 1.992187 1.488281 2.464843l57.515625 57.515625c.3125.578125.824219 1.019532 1.4375 1.265625v-34.175781c0-21.636719-15.816406-40.03125-37.210938-43.277344zm0 0" fill="url(#K)"/><path d="m454.363281 159.078125h1.214844c8.542969 0 15.46875-6.925781 15.46875-15.464844v-15.121093c0-8.542969-6.925781-15.46875-15.46875-15.46875h-1.214844c-1.550781 0-2.808593 1.257812-2.808593 2.804687v40.445313c0 1.550781 1.257812 2.804687 2.808593 2.804687zm0 0" fill="url(#L)"/></svg>