<svg height="512pt" viewBox="-21 0 512 512.00014" width="512pt" xmlns="http://www.w3.org/2000/svg" xmlns:xlink="http://www.w3.org/1999/xlink"><radialGradient id="a" cx="260.282" cy="232.8753" gradientTransform="matrix(1.085139 0 0 .973202 -128.195394 -8.882662)" gradientUnits="userSpaceOnUse" r="332.6476"><stop offset="0" stop-color="#fffcf8"/><stop offset=".4554" stop-color="#fdfbf7"/><stop offset=".6194" stop-color="#f6f5f5"/><stop offset=".7363" stop-color="#ebedf1"/><stop offset=".8309" stop-color="#dae0eb"/><stop offset=".9118" stop-color="#c4cfe4"/><stop offset=".9822" stop-color="#a9bbdb"/><stop offset="1" stop-color="#a1b5d8"/></radialGradient><linearGradient id="b"><stop offset="0" stop-color="#fffcf8"/><stop offset=".1875" stop-color="#faf8f6"/><stop offset=".4041" stop-color="#eceef2"/><stop offset=".6353" stop-color="#d5dcea"/><stop offset=".875" stop-color="#b5c4df"/><stop offset="1" stop-color="#a1b5d8"/></linearGradient><linearGradient id="c" gradientUnits="userSpaceOnUse" x1="234.891725" x2="234.891725" xlink:href="#b" y1="258.8914409678" y2="404.8850911504"/><linearGradient id="d" gradientUnits="userSpaceOnUse" x1="234.891725" x2="234.891725" xlink:href="#b" y1="354.9567371478" y2="224.0876738562"/><linearGradient id="e" gradientUnits="userSpaceOnUse" x1="234.891725" x2="234.891725" xlink:href="#b" y1="354.9551308726" y2="224.086067581"/><linearGradient id="f"><stop offset="0" stop-color="#ffd459"/><stop offset=".2296" stop-color="#ffd355"/><stop offset=".4362" stop-color="#ffcf4a"/><stop offset=".634" stop-color="#ffc838"/><stop offset=".825" stop-color="#ffbf1f"/><stop offset="1" stop-color="#ffb400"/></linearGradient><linearGradient id="g" gradientUnits="userSpaceOnUse" x1="372.056583938" x2="399.6884326738" xlink:href="#f" y1="264.672626197" y2="276.9534032386"/><linearGradient id="h" gradientUnits="userSpaceOnUse" x1="358.0770704802" x2="213.298366702" y1="430.7292559808" y2="285.9505522026"><stop offset="0" stop-color="#a1b5d8" stop-opacity="0"/><stop offset=".0343" stop-color="#9fb3d5" stop-opacity=".035294"/><stop offset=".4515" stop-color="#8898af" stop-opacity=".45098"/><stop offset=".788" stop-color="#798898" stop-opacity=".788235"/><stop offset="1" stop-color="#748290"/></linearGradient><linearGradient id="i" gradientUnits="userSpaceOnUse" x1="135.892466775" x2="189.7972554274" y1="257.436356421" y2="311.3411450734"><stop offset="0" stop-color="#45425a"/><stop offset="1" stop-color="#2d3251"/></linearGradient><linearGradient id="j" gradientUnits="userSpaceOnUse" x1="212.3850988586" x2="320.3518903486" y1="258.3200085654" y2="366.2868000554"><stop offset="0" stop-color="#8be1e2"/><stop offset=".1873" stop-color="#87e1e1"/><stop offset=".3558" stop-color="#7ce2dd"/><stop offset=".5172" stop-color="#6ae2d7"/><stop offset=".6741" stop-color="#50e4ce"/><stop offset=".8278" stop-color="#2fe5c2"/><stop offset=".9772" stop-color="#07e7b4"/><stop offset="1" stop-color="#00e7b2"/></linearGradient><linearGradient id="k" gradientUnits="userSpaceOnUse" x1="345.4648987864" x2="240.1960472792" y1="310.3905313316" y2="205.1216798244"><stop offset=".0029" stop-color="#00e7b2" stop-opacity="0"/><stop offset=".4308" stop-color="#1bc4b7" stop-opacity=".427451"/><stop offset="1" stop-color="#3b9abe"/></linearGradient><linearGradient id="l" gradientUnits="userSpaceOnUse" x1="172.0827505608" x2="301.043157346" xlink:href="#f" y1="92.874466103" y2="224.9053683252"/><linearGradient id="m"><stop offset="0" stop-color="#e58200" stop-opacity="0"/><stop offset=".0396" stop-color="#e27f04" stop-opacity=".039216"/><stop offset=".4671" stop-color="#c15d2f" stop-opacity=".466667"/><stop offset=".8016" stop-color="#ad4949" stop-opacity=".8"/><stop offset="1" stop-color="#a64153"/></linearGradient><linearGradient id="n" gradientUnits="userSpaceOnUse" x1="180.492203586" x2="180.492203586" xlink:href="#m" y1="158.4371985882" y2="281.9943967772"/><linearGradient id="o" gradientUnits="userSpaceOnUse" x1="219.6142407884" x2="219.6142407884" xlink:href="#m" y1="158.4371985882" y2="281.9943967772"/><linearGradient id="p" gradientUnits="userSpaceOnUse" x1="205.7713611148" x2="205.7713611148" xlink:href="#m" y1="158.4371985882" y2="281.9943967772"/><linearGradient id="q" gradientUnits="userSpaceOnUse" x1="327.1422179722" x2="139.6749436944" xlink:href="#m" y1="173.0395452548" y2="-14.427729023"/><linearGradient id="r"><stop offset="0" stop-color="#ff6e3a"/><stop offset=".1596" stop-color="#ff6440"/><stop offset=".4266" stop-color="#ff4b52"/><stop offset=".7662" stop-color="#ff216e"/><stop offset="1" stop-color="#ff0084"/></linearGradient><linearGradient id="s" gradientUnits="userSpaceOnUse" x1="246.4997702856" x2="283.9426475508" xlink:href="#r" y1="79.9856175602" y2="117.4285952176"/><linearGradient id="t" gradientUnits="userSpaceOnUse" x1="241.510080785" x2="287.2130274818" xlink:href="#r" y1="33.9053929216" y2="33.9053929216"/><linearGradient id="u" gradientUnits="userSpaceOnUse" x1="248.598670011" x2="248.598670011" y1="56.0101531406" y2="73.9418063358"><stop offset="0" stop-color="#e58200" stop-opacity="0"/><stop offset=".4384" stop-color="#c4602c" stop-opacity=".439216"/><stop offset=".7953" stop-color="#ae4948" stop-opacity=".796078"/><stop offset="1" stop-color="#a64153"/></linearGradient><path d="m469.757812 309.476562c.003907-.164062.023438-.328124.023438-.496093 0-29.6875-105.164062-53.753907-234.890625-53.753907s-234.890625 24.066407-234.890625 53.753907c0 .164062.0195312.324219.0273438.484375-.0078126.105468-.0273438.210937-.0273438.316406 0 49.25 18.839844 94.546875 50.414062 130.410156.796876.902344 1.601563 1.804688 2.414063 2.695313 39.46875 43.386719 98.816406 68.234375 161.246094 68.988281 6.867187.082031 13.8125.125 20.816406.125 7.007813 0 13.949219-.042969 20.820313-.125 62.429687-.753906 121.777343-25.597656 161.242187-68.984375.8125-.894531 1.617187-1.792969 2.414063-2.699219 31.574218-35.863281 50.414062-81.15625 50.414062-130.410156.003906-.101562-.019531-.203125-.023438-.304688zm0 0" fill="url(#a)"/><path d="m469.78125 308.980469c0-29.6875-105.164062-53.753907-234.890625-53.753907s-234.890625 24.066407-234.890625 53.753907 105.164062 53.753906 234.890625 53.753906 234.890625-24.066406 234.890625-53.753906zm0 0" fill="url(#c)"/><path d="m439.191406 304.730469c0-20.984375-91.46875-37.992188-204.300781-37.992188-112.828125 0-204.296875 17.007813-204.296875 37.992188s91.46875 37.992187 204.296875 37.992187c112.832031 0 204.300781-17.007812 204.300781-37.992187zm0 0" fill="url(#d)"/><path d="m439.191406 304.734375c0 9.230469-17.710937 17.695313-47.152344 24.269531-15.050781 3.371094-33.171874 6.246094-53.554687 8.476563-30.378906 3.324219-65.789063 5.242187-103.589844 5.242187-112.832031 0-204.304687-17.003906-204.304687-37.988281s91.472656-38 204.304687-38c48.089844 0 92.316407 3.097656 127.21875 8.273437 22.53125 3.335938 41.183594 7.535157 54.484375 12.34375 14.441406 5.203126 22.59375 11.117188 22.59375 17.382813zm0 0" fill="url(#e)"/><path d="m445.511719 230.746094c-1.003907-28.378906-34.636719-43.679688-56.667969-25.761719-2.671875 2.164063-4.710938 4.464844-5.757812 6.886719-7.601563 17.558594-13.976563 40.15625-20.910157 62.917968-.019531.070313-.046875.144532-.066406.21875-6.789063 22.179688-14.101563 44.511719-23.625 62.472657 20.382813-2.230469 38.503906-5.101563 53.554687-8.476563 7.40625-13.871094 16.09375-27.964844 24.558594-41.652344 1.269532-2.054687 2.53125-4.109374 3.792969-6.144531 9.066406-14.691406 17.59375-28.8125 23.691406-41.589843 1.144531-2.375 1.539063-5.433594 1.429688-8.871094zm0 0" fill="url(#g)"/><path d="m392.539062 328.890625c-.167968.039063-.332031.078125-.5.113281-15.050781 3.371094-33.171874 6.246094-53.554687 8.476563-30.378906 3.324219-65.789063 5.242187-103.589844 5.242187-9.058593 0-17.972656-.109375-26.71875-.324218.953125 2.222656 1.976563 4.410156 3.097657 6.542968 3.234374 6.160156 7.140624 11.917969 11.636718 17.160156l-.359375-.230468s5.175781 9.597656 5.210938 27.679687l.054687 38.972657c.011719 3.628906 1.9375 6.929687 4.855469 8.714843l65.429687 65.421875c46.285157-8.890625 88.464844-31.285156 118.855469-64.695312.808594-.890625 1.609375-1.785156 2.414063-2.695313 10.988281-12.484375 20.429687-26.117187 28.074218-40.652343zm0 0" fill="url(#h)"/><path d="m269.019531 307.285156c-.019531 12.433594-2.503906 24.289063-7 35.105469-8.878906.21875-17.933593.332031-27.128906.332031-57.753906 0-109.910156-4.460937-147.070313-11.628906-2.070312-7.691406-3.167968-15.777344-3.148437-24.125.015625-10.09375 1.65625-19.8125 4.679687-28.90625 12.324219-37.15625 47.667969-63.804688 89.109376-63.097656 36.046874.617187 66.832031 21.683594 81.449218 52.054687 5.867188 12.171875 9.136719 25.820313 9.109375 40.265625zm0 0" fill="url(#i)"/><path d="m385.117188 306.050781c.011718 8.722657-1.183594 17.171875-3.445313 25.175781-23.480469 6.125-48.175781 10.816407-73.796875 13.898438-18.707031 2.25-32.824219 18.046875-32.828125 36.890625l-.007813 34.519531c.011719 5.621094-4.714843 10.132813-10.410156 9.773438-5.203125-.324219-9.140625-4.871094-9.152344-10.074219l-.035156-23.296875c0-1.519531-.875-2.910156-2.25-3.566406l-.074218-.039063c-2.691407-1.289062-5.804688.671875-5.789063 3.652344l.058594 39.835937c.011719 5.621094-4.714844 10.144532-10.410157 9.773438-5.207031-.320312-9.140624-4.867188-9.15625-10.074219l-.058593-38.972656c-.035157-18.082031-5.21875-27.679687-5.21875-27.679687l.359375.226562c-4.484375-5.242188-8.398438-10.996094-11.628906-17.160156-7.226563-13.734375-11.070313-29.53125-10.449219-46.269532 1.820312-48.332031 41.429687-87.402343 89.769531-88.609374 51.910156-1.28125 94.4375 40.363281 94.523438 91.996093zm0 0" fill="url(#j)"/><path d="m383.921875 306.054688c-.082031-50.878907-41.378906-92.035157-92.246094-92-.359375.007812-.71875-.007813-1.078125 0-32.597656.816406-61.199218 18.855468-76.945312 45.328124l87.261718 87.261719c2.230469-.714843 4.558594-1.230469 6.960938-1.519531 25.15625-3.027344 49.414062-7.613281 72.507812-13.574219 2.3125-8.101562 3.554688-16.652343 3.539063-25.496093zm0 0" fill="url(#k)"/><path d="m340.777344 174.660156c.085937-50.484375-40.085938-91.457031-90.5625-92.324218-51.578125-.882813-93.710938 40.617187-93.792969 92.011718-.027344 14.71875 3.40625 28.628906 9.515625 40.980469.011719.003906.019531.007813.03125.011719 36.835938 13.351562 46.726562 44.007812 46.726562 44.007812h-.183593c11.039062 4.703125 23.179687 7.3125 35.933593 7.332032h.183594c9.84375 0 17.882813 7.828124 17.867188 17.671874v.480469c-.011719 5.617188 4.71875 10.136719 10.414062 9.777344 5.199219-.328125 9.140625-4.871094 9.148438-10.078125l.039062-23.265625c.003906-1.53125.867188-2.9375 2.246094-3.601563.027344-.011718.054688-.023437.082031-.039062 2.683594-1.289062 5.796875.632812 5.789063 3.613281l-.066406 39.882813c-.007813 5.617187 4.71875 10.136718 10.417968 9.777344 5.199219-.328126 9.136719-4.871094 9.144532-10.082032l.066406-38.972656c.03125-18.085938 5.214844-27.675781 5.214844-27.675781l-.355469.226562c13.761719-16.070312 22.101562-36.921875 22.140625-59.734375zm0 0" fill="url(#l)"/><path d="m184.511719 199.914062c0 2.21875-1.800781 4.019532-4.019531 4.019532s-4.019532-1.800782-4.019532-4.019532 1.800782-4.019531 4.019532-4.019531 4.019531 1.800781 4.019531 4.019531zm0 0" fill="url(#n)"/><path d="m225.980469 211.859375c0 3.515625-2.851563 6.367187-6.367188 6.367187s-6.363281-2.851562-6.363281-6.367187 2.847656-6.363281 6.363281-6.363281 6.367188 2.847656 6.367188 6.363281zm0 0" fill="url(#o)"/><path d="m215.5625 192.117188c0 5.40625-4.382812 9.789062-9.792969 9.789062-5.40625 0-9.789062-4.382812-9.789062-9.789062 0-5.410157 4.382812-9.792969 9.789062-9.792969 5.410157 0 9.792969 4.382812 9.792969 9.792969zm0 0" fill="url(#p)"/><path d="m285.695312 90.042969h-74.003906c-2.425781 1.058593-4.792968 2.214843-7.101562 3.46875 2.546875 7.808593 7.113281 14.730469 13.078125 20.140625l109.308593 109.3125c8.707032-14.039063 13.773438-30.570313 13.800782-48.304688.039062-23.390625-8.574219-44.730468-22.839844-60.992187l-8.398438-8.398438c-7.066406-6.222656-15.085937-11.394531-23.84375-15.226562zm0 0" fill="url(#q)"/><path d="m294.867188 74.21875c-1.800782-16.894531-18.367188-28.3125-34.839844-24.148438-3.65625.925782-7.484375 1.414063-11.429688 1.414063-3.941406 0-7.769531-.488281-11.425781-1.414063-16.492187-4.167968-33.0625 7.285157-34.847656 24.199219-.230469 2.183594-.308594 4.410157-.226563 6.675781.878906 24.140626 20.511719 43.820313 44.648438 44.757813 26.542968 1.027344 48.386718-20.183594 48.386718-46.496094 0-1.6875-.089843-3.351562-.265624-4.988281zm0 0" fill="url(#s)"/><path d="m249.082031 67.8125c-3.816406 0-7.0625-2.917969-7.386719-6.792969-1.367187-16.199219 4.328126-49.710937 35.652344-60.605469 3.871094-1.347656 8.105469.699219 9.453125 4.574219 1.347657 3.871094-.703125 8.105469-4.574219 9.453125-11.632812 4.046875-19.488281 12.652344-23.34375 25.582032-3.082031 10.34375-2.394531 19.675781-2.386718 19.769531.320312 4.078125-2.722656 7.660156-6.800782 7.992187-.207031.015625-.410156.027344-.613281.027344zm0 0" fill="url(#t)"/><path d="m267.328125 59.679688c0-5.210938-8.386719-9.433594-18.730469-9.433594s-18.730468 4.222656-18.730468 9.433594c0 5.207031 8.386718 9.429687 18.730468 9.429687s18.730469-4.222656 18.730469-9.429687zm0 0" fill="url(#u)"/></svg>