<svg height="512pt" viewBox="0 -83 512 512" width="512pt" xmlns="http://www.w3.org/2000/svg" xmlns:xlink="http://www.w3.org/1999/xlink"><radialGradient id="a" cx="253.2212" cy="351.9405" gradientTransform="matrix(1.003922 0 0 .36101 0 143.471736)" gradientUnits="userSpaceOnUse" r="286.3956"><stop offset="0" stop-color="#fffcf8"/><stop offset=".2378" stop-color="#fcf9f7"/><stop offset=".4365" stop-color="#f1f2f3"/><stop offset=".621" stop-color="#e0e5ed"/><stop offset=".797" stop-color="#c8d2e5"/><stop offset=".9655" stop-color="#a8bbdb"/><stop offset="1" stop-color="#a1b5d8"/></radialGradient><linearGradient id="b" gradientUnits="userSpaceOnUse" x1="256.00011" x2="256.00011" y1="215.2009559024" y2="374.3141599576"><stop offset="0" stop-color="#fffcf8"/><stop offset=".1875" stop-color="#faf8f6"/><stop offset=".4041" stop-color="#eceef2"/><stop offset=".6353" stop-color="#d5dcea"/><stop offset=".875" stop-color="#b5c4df"/><stop offset="1" stop-color="#a1b5d8"/></linearGradient><linearGradient id="c"><stop offset="0" stop-color="#a1b5d8" stop-opacity="0"/><stop offset=".0343" stop-color="#9fb3d5" stop-opacity=".035294"/><stop offset=".4515" stop-color="#8898af" stop-opacity=".45098"/><stop offset=".788" stop-color="#798898" stop-opacity=".788235"/><stop offset="1" stop-color="#748290"/></linearGradient><linearGradient id="d" gradientUnits="userSpaceOnUse" x1="256.00011" x2="256.00011" xlink:href="#c" y1="281.062054006" y2="-32.3561700776"/><linearGradient id="e" gradientUnits="userSpaceOnUse" x1="285.879840486" x2="252.4158072834" xlink:href="#c" y1="311.210835588" y2="48.183271588"/><radialGradient id="f" cx="204.4181960712" cy="56.9725083058" gradientUnits="userSpaceOnUse" r="298.1945500912"><stop offset="0" stop-color="#fffcf8"/><stop offset=".308" stop-color="#fcfaf7"/><stop offset=".4963" stop-color="#f4f4f4"/><stop offset=".6525" stop-color="#e6e9ef"/><stop offset=".791" stop-color="#d1d9e8"/><stop offset=".9167" stop-color="#b7c6df"/><stop offset="1" stop-color="#a1b5d8"/></radialGradient><linearGradient id="g" gradientUnits="userSpaceOnUse" x1="291.0553595726" x2="249.6435770726" xlink:href="#c" y1="66.7440827006" y2="-11.0598722994"/><linearGradient id="h" gradientTransform="matrix(1.003922 0 0 -1.003922 -832.556474 1322.472809)" gradientUnits="userSpaceOnUse" x1="1079.3843" x2="1091.8763" y1="1302.5979" y2="1302.5979"><stop offset="0" stop-color="#45425a"/><stop offset="1" stop-color="#2d3251"/></linearGradient><linearGradient id="i" gradientUnits="userSpaceOnUse" x1="238.2641212026" x2="269.1165517144" y1="37.1994613782" y2="37.1994613782"><stop offset="0" stop-color="#ffd459"/><stop offset=".2296" stop-color="#ffd355"/><stop offset=".4362" stop-color="#ffcf4a"/><stop offset=".634" stop-color="#ffc838"/><stop offset=".825" stop-color="#ffbf1f"/><stop offset="1" stop-color="#ffb400"/></linearGradient><path d="m441.726562 288.398438c0-32.054688-83.152343-58.042969-185.726562-58.042969s-185.726562 25.988281-185.726562 58.042969c0 32.050781 83.152343 58.039062 185.726562 58.039062s185.726562-25.988281 185.726562-58.039062zm0 0" fill="url(#a)"/><path d="m512 269.792969c0-32.355469-114.613281-58.585938-256-58.585938s-256 26.230469-256 58.585938 114.613281 58.585937 256 58.585937 256-26.230468 256-58.585937zm0 0" fill="url(#b)"/><path d="m478.660156 261.148438c0 10.058593-19.304687 19.285156-51.390625 26.453124-16.40625 3.671876-36.152343 6.804688-58.367187 9.234376-33.109375 3.625-71.703125 5.714843-112.902344 5.714843-122.96875 0-222.660156-18.535156-222.660156-41.402343 0-22.871094 99.691406-41.414063 222.660156-41.414063 52.414062 0 100.613281 3.375 138.652344 9.015625 24.554687 3.632812 44.882812 8.210938 59.382812 13.453125 15.738282 5.671875 24.625 12.117187 24.625 18.945313zm0 0" fill="url(#d)"/><path d="m512 269.792969c0-32.355469-114.613281-58.585938-256-58.585938-85.355469 0-160.941406 9.5625-207.453125 24.257813-.703125 6.957031-1.0625 14.015625-1.0625 21.15625 0 2.578125 1.625 5.109375 4.664063 7.570312l52.921874 52.921875c42.320313 7.082031 94.488282 11.261719 150.929688 11.261719 141.386719 0 256-26.226562 256-58.582031zm0 0" fill="url(#e)"/><path d="m464.515625 256.621094c0 20.453125-102.609375 38.90625-208.515625 38.828125-102.558594-.070313-208.515625-18.003907-208.515625-38.828125 0-115.160156 93.355469-208.515625 208.515625-208.515625s208.515625 93.355469 208.515625 208.515625zm0 0" fill="url(#f)"/><path d="m369.070312 181.671875h14.800782c12.476562.101563 18.054687-3.058594 15.835937-6.117187-.480469-1.816407-.464843-3.613282-.117187-5.394532l-120.75-120.753906.019531-.046875c-7.507813-.820313-15.132813-1.253906-22.859375-1.253906-7.832031 0-15.5625.445312-23.171875 1.289062.40625 1.878907.441406 3.773438-.0625 5.6875-1.039063 1.429688-.351563 2.878907 1.925781 4.007813l118.105469 118.089844c.4375 2.457031 6.019531 4.578124 16.273437 4.492187zm0 0" fill="url(#g)"/><path d="m258.179688 0h-4.359376c-10.640624 0-19.265624 8.625-19.265624 19.265625v10.292969h42.890624v-10.292969c0-10.640625-8.625-19.265625-19.265624-19.265625zm0 0" fill="url(#h)"/><path d="m279.234375 55.082031c2.222656 3.058594-3.355469 6.222657-15.835937 6.117188-5.917969 0-8.878907 0-14.796876 0-12.480468.105469-18.058593-3.058594-15.835937-6.117188 3.214844-12.191406-15.476563-23.582031-12.261719-35.769531 2.925782-3.511719 15.519532-5.957031 28.09375-6.117188h14.800782c12.578124.160157 25.167968 2.605469 28.097656 6.117188 3.214844 12.1875-15.476563 23.578125-12.261719 35.769531zm0 0" fill="url(#i)"/></svg>