<svg height="512pt" viewBox="0 -22 512.00008 512" width="512pt" xmlns="http://www.w3.org/2000/svg" xmlns:xlink="http://www.w3.org/1999/xlink"><linearGradient id="a"><stop offset="0" stop-color="#ff6e3a"/><stop offset=".1596" stop-color="#ff6440"/><stop offset=".4266" stop-color="#ff4b52"/><stop offset=".7662" stop-color="#ff216e"/><stop offset="1" stop-color="#ff0084"/></linearGradient><linearGradient id="b" gradientUnits="userSpaceOnUse" x1="169.0676930384" x2="466.9086618012" xlink:href="#a" y1="168.142427815" y2="465.9833965778"/><linearGradient id="c" gradientTransform="matrix(-1.003922 0 0 -1.003922 1580.172549 1558.365405)" gradientUnits="userSpaceOnUse" x1="1274.6642" x2="1540.1753" xlink:href="#a" y1="1253.8639" y2="1519.3749"/><radialGradient id="d" cx="215.1698995146" cy="153.2930159442" gradientUnits="userSpaceOnUse" r="276.9169252622"><stop offset="0" stop-color="#fffcf8"/><stop offset=".2881" stop-color="#fcfaf7"/><stop offset=".4791" stop-color="#f3f3f4"/><stop offset=".642" stop-color="#e4e8ef"/><stop offset=".789" stop-color="#cfd8e8"/><stop offset=".9241" stop-color="#b4c3de"/><stop offset="1" stop-color="#a1b5d8"/></radialGradient><linearGradient id="e"><stop offset="0" stop-color="#3b395f"/><stop offset=".0633" stop-color="#37355a"/><stop offset=".4033" stop-color="#232543"/><stop offset=".7232" stop-color="#171b35"/><stop offset="1" stop-color="#131830"/></linearGradient><linearGradient id="f" gradientUnits="userSpaceOnUse" x1="233.0764546598" x2="247.906992797" xlink:href="#e" y1="115.2284097844" y2="115.2284097844"/><linearGradient id="g" gradientUnits="userSpaceOnUse" x1="233.0764546598" x2="247.906992797" xlink:href="#e" y1="359.7854152596" y2="359.7854152596"/><linearGradient id="h" gradientTransform="matrix(0 1.003922 -1.003922 0 1580.172549 -21.807144)" gradientUnits="userSpaceOnUse" x1="252.9662" x2="267.7388" xlink:href="#e" y1="1214.6985" y2="1214.6985"/><linearGradient id="i" gradientTransform="matrix(0 1.003922 -1.003922 0 1580.172549 -21.807144)" gradientUnits="userSpaceOnUse" x1="252.9662" x2="267.7388" xlink:href="#e" y1="1458.3002" y2="1458.3002"/><linearGradient id="j"><stop offset="0" stop-color="#a1b5d8" stop-opacity="0"/><stop offset=".0343" stop-color="#9fb3d5" stop-opacity=".035294"/><stop offset=".4515" stop-color="#8898af" stop-opacity=".45098"/><stop offset=".788" stop-color="#798898" stop-opacity=".788235"/><stop offset="1" stop-color="#748290"/></linearGradient><linearGradient id="k" gradientUnits="userSpaceOnUse" x1="287.7080828402" x2="-23.2911911844" xlink:href="#j" y1="280.4087160544" y2="129.6432238214"/><linearGradient id="l"><stop offset="0" stop-color="#ffd459"/><stop offset=".2296" stop-color="#ffd355"/><stop offset=".4362" stop-color="#ffcf4a"/><stop offset=".634" stop-color="#ffc838"/><stop offset=".825" stop-color="#ffbf1f"/><stop offset="1" stop-color="#ffb400"/></linearGradient><linearGradient id="m" gradientUnits="userSpaceOnUse" x1="214.7009675484" x2="262.1633879424" xlink:href="#l" y1="182.1442283412" y2="182.1442283412"/><linearGradient id="n" gradientUnits="userSpaceOnUse" x1="191.3709245826" x2="217.2293451054" xlink:href="#l" y1="269.0465276428" y2="294.9049481656"/><linearGradient id="o" gradientUnits="userSpaceOnUse" x1="226.4053929698" x2="260.0908913656" xlink:href="#e" y1="225.4801277464" y2="259.1656261422"/><linearGradient id="p" gradientUnits="userSpaceOnUse" x1="340.476632573" x2="282.6039426078" y1="406.018733949" y2="348.146144376"><stop offset="0" stop-color="#e58200" stop-opacity="0"/><stop offset=".4384" stop-color="#c4602c" stop-opacity=".439216"/><stop offset=".7953" stop-color="#ae4948" stop-opacity=".796078"/><stop offset="1" stop-color="#a64153"/></linearGradient><linearGradient id="q" gradientUnits="userSpaceOnUse" x1="353.3212122098" x2="234.1158151064" xlink:href="#j" y1="377.61326292" y2="258.4078658166"/><linearGradient id="r" gradientUnits="userSpaceOnUse" x1="303.6308881134" x2="303.6308881134" xlink:href="#l" y1="361.9843056162" y2="452.3829640672"/><linearGradient id="s" gradientUnits="userSpaceOnUse" x1="416.545810357" x2="416.545810357" xlink:href="#l" y1="361.9843056162" y2="452.3829640672"/><linearGradient id="t" gradientUnits="userSpaceOnUse" x1="153.1495058064" x2="333.7867975416" y1="153.2235445418" y2="333.860836277"><stop offset="0" stop-color="#8be1e2"/><stop offset=".1873" stop-color="#87e1e1"/><stop offset=".3558" stop-color="#7ce2dd"/><stop offset=".5172" stop-color="#6ae2d7"/><stop offset=".6741" stop-color="#50e4ce"/><stop offset=".8278" stop-color="#2fe5c2"/><stop offset=".9772" stop-color="#07e7b4"/><stop offset="1" stop-color="#00e7b2"/></linearGradient><path d="m424.15625 237.507812c0 102.574219-83.152344 185.722657-185.722656 185.722657-102.574219 0-185.726563-83.148438-185.726563-185.722657 0-102.574218 83.152344-185.726562 185.726563-185.726562 102.570312 0 185.722656 83.152344 185.722656 185.726562zm0 0" fill="url(#b)"/><path d="m404.648438 237.507812c0 91.796876-74.417969 166.214844-166.214844 166.214844s-166.214844-74.417968-166.214844-166.214844c0-91.796874 74.417969-166.214843 166.214844-166.214843s166.214844 74.417969 166.214844 166.214843zm0 0" fill="url(#c)"/><path d="m392.714844 237.507812c0 85.207032-69.074219 154.28125-154.28125 154.28125-85.207032 0-154.28125-69.074218-154.28125-154.28125 0-85.207031 69.074218-154.28125 154.28125-154.28125 85.207031 0 154.28125 69.074219 154.28125 154.28125zm0 0" fill="url(#d)"/><path d="m238.433594 133.441406c-5.609375 0-10.15625-4.546875-10.15625-10.15625v-16.113281c0-5.609375 4.546875-10.15625 10.15625-10.15625s10.15625 4.546875 10.15625 10.15625v16.113281c0 5.609375-4.546875 10.15625-10.15625 10.15625zm0 0" fill="url(#f)"/><path d="m238.433594 377.996094c-5.609375 0-10.15625-4.546875-10.15625-10.15625v-16.109375c0-5.609375 4.546875-10.15625 10.15625-10.15625s10.15625 4.546875 10.15625 10.15625v16.109375c0 5.609375-4.546875 10.15625-10.15625 10.15625zm0 0" fill="url(#g)"/><path d="m342.496094 237.507812c0-5.609374 4.550781-10.15625 10.160156-10.15625h16.109375c5.609375 0 10.15625 4.546876 10.15625 10.15625 0 5.609376-4.546875 10.15625-10.15625 10.15625h-16.109375c-5.609375 0-10.160156-4.546874-10.160156-10.15625zm0 0" fill="url(#h)"/><path d="m97.941406 237.507812c0-5.609374 4.546875-10.15625 10.15625-10.15625h16.113282c5.605468 0 10.15625 4.546876 10.15625 10.15625 0 5.609376-4.550782 10.15625-10.15625 10.15625h-16.113282c-5.609375 0-10.15625-4.546874-10.15625-10.15625zm0 0" fill="url(#i)"/><path d="m391.175781 259.289062-136.921875-136.921874c-4.199218-5.144532-9.742187-8.277344-15.820312-8.277344-13.105469 0-23.734375 14.539062-23.734375 32.480468 0 11.929688 4.710937 22.335938 11.71875 27.980469.738281.90625 1.519531 1.746094 2.335937 2.519531l-3.417968 55.226563-37.078126 41.96875c-9.449218-2.300781-21.597656 1.652344-30.964843 11.019531-7.179688 7.179688-15.414063 20.230469-15.855469 28.210938-.121094 2.171875 2.183594 3.457031 3.929688 2.546875-.0625.429687-.109376.847656-.128907 1.253906-.121093 2.171875 2.179688 3.457031 3.925781 2.542969-.058593.429687-.105468.851562-.128906 1.253906-.054687.992188.398438 1.789062 1.066406 2.289062.195313.589844.507813 1.148438.976563 1.617188.007813.011719.019531.019531.03125.03125.007813.007812.019531.019531.03125.03125l65.136719 65.136719c7.234375 1.039062 14.628906 1.589843 22.15625 1.589843 77.8125 0 142.15625-57.609374 152.742187-132.5zm0 0" fill="url(#k)"/><path d="m262.164062 146.566406c0-17.9375-10.625-32.480468-23.730468-32.480468-13.105469 0-23.734375 14.542968-23.734375 32.480468 0 13.246094 5.796875 24.632813 14.105469 29.6875l-3.699219 59.769532c-.472657 7.683593 5.628906 14.175781 13.328125 14.175781 7.695312 0 13.796875-6.492188 13.324218-14.175781l-3.699218-59.769532c8.308594-5.054687 14.105468-16.441406 14.105468-29.6875zm0 0" fill="url(#m)"/><path d="m157.292969 285.285156c-7.179688 7.179688-15.414063 20.230469-15.855469 28.210938-.136719 2.46875 2.859375 3.796875 4.609375 2.046875l23.660156-23.664063c1.171875-1.171875 3.097657-1.289062 4.304688-.152344 1.246093 1.175782 1.269531 3.140626.066406 4.34375l-22.9375 22.933594c-1.648437 1.648438-1.707031 4.34375-.0625 5.996094.007813.007812.019531.019531.03125.03125s.019531.019531.03125.03125c1.652344 1.644531 4.34375 1.582031 5.992187-.066406l22.847657-22.847656c1.171875-1.167969 3.09375-1.289063 4.300781-.152344 1.25 1.175781 1.273438 3.140625.066406 4.34375l-23.75 23.75c-1.75 1.75-.421875 4.746094 2.042969 4.609375 7.984375-.441407 21.035156-8.675781 28.214844-15.855469 9.367187-9.367188 13.320312-21.515625 11.019531-30.964844l44.878906-39.648437c5.769532-5.097657 6.042969-14.003907.601563-19.445313-5.441407-5.445312-14.347657-5.167968-19.445313.601563l-39.648437 44.878906c-9.449219-2.300781-21.601563 1.652344-30.96875 11.019531zm0 0" fill="url(#n)"/><path d="m252.519531 237.507812c0 7.78125-6.304687 14.085938-14.085937 14.085938s-14.089844-6.304688-14.089844-14.085938 6.308594-14.089843 14.089844-14.089843 14.085937 6.308593 14.085937 14.089843zm0 0" fill="url(#o)"/><path d="m294.25 381.371094 1.046875 1.054687-17.402344 12.664063c-7.835937 5.742187-14.4375 12.136718-19.792969 19.183594-2.105468 2.773437-3.789062 5.566406-5.066406 8.386718 54.871094-4.265625 103.050782-32.375 134.1875-73.980468l-22.519531-22.523438c-17.386719 24.726562-41.855469 44.109375-70.453125 55.214844zm0 0" fill="url(#p)"/><path d="m364.703125 326.160156-20.867187-20.867187c-1.027344-1.101563-2.109376-2.171875-3.265626-3.203125-10.261718-9.152344-22.699218-13.722656-37.308593-13.722656-13.792969 0-25.65625 4.0625-35.585938 12.1875-9.933593 8.128906-14.898437 18.59375-14.898437 31.398437 0 6.191406 1.617187 10.390625 4.832031 12.625l36.640625 36.792969c28.597656-11.105469 53.066406-30.488282 70.453125-55.210938zm0 0" fill="url(#q)"/><path d="m250.066406 459.777344v-23.855469c0-7.382813 2.679688-14.597656 8.035156-21.644531 5.359376-7.050782 11.957032-13.445313 19.796876-19.1875l23.636718-17.207032c7.882813-5.734374 14.570313-12.042968 20.074219-18.925781 5.496094-6.882812 8.25-13.765625 8.25-20.652343 0-6.878907-2.257813-12.898438-6.773437-18.066407-4.519532-5.160156-11.125-7.738281-19.824219-7.738281-7.390625 0-13.382813 2.039062-17.976563 6.113281-4.601562 4.074219-6.898437 10.105469-6.898437 18.089844 0 2.609375-1.273438 4.890625-3.816407 6.847656-2.546874 1.953125-5.871093 2.933594-9.972656 2.933594-7.878906 0-11.820312-4.839844-11.820312-14.53125 0-12.804687 4.964844-23.269531 14.898437-31.398437 9.933594-8.128907 21.796875-12.191407 35.585938-12.191407 14.609375 0 27.046875 4.574219 37.308593 13.726563 10.257813 9.148437 15.390626 20.972656 15.390626 35.480468 0 9.835938-2.75 19.050782-8.246094 27.65625-5.503906 8.601563-12.152344 15.894532-19.949219 21.875-7.800781 5.980469-15.597656 11.632813-23.394531 16.960938-7.800782 5.324219-14.449219 10.691406-19.949219 16.097656-5.5 5.414063-8.25 10.65625-8.25 15.734375v9.339844h72.402344c2.300781 0 4.3125 1.105469 6.035156 3.324219 1.722656 2.214844 2.585937 4.886718 2.585937 8.003906 0 3.121094-.859374 5.871094-2.570312 8.25s-3.710938 3.570312-5.992188 3.570312h-87.070312c-2.609375 0-5.179688-.820312-7.703125-2.460937-2.527344-1.632813-3.792969-3.683594-3.792969-6.144531zm0 0" fill="url(#r)"/><path d="m358.179688 418.242188c0-1.800782.492187-3.605469 1.480468-5.410157l59.59375-117.332031c2.464844-4.757812 6.238282-7.132812 11.328125-7.132812 2.789063 0 5.664063.980468 8.621094 2.953124 2.953125 1.96875 4.433594 4.351563 4.433594 7.140626 0 .984374-.414063 2.300781-1.234375 3.941406l-50.730469 101.214844h36.203125v-34.179688c0-5.78125 4.347656-8.671875 13.050781-8.671875 3.609375 0 6.6875.75 9.234375 2.234375 2.542969 1.484375 3.816406 3.628906 3.816406 6.4375v34.179688h12.066407c2.792969 0 4.964843 1.21875 6.527343 3.660156 1.558594 2.4375 2.339844 5.285156 2.339844 8.53125 0 2.921875-.90625 5.648437-2.710937 8.164062-1.808594 2.519532-3.859375 3.777344-6.15625 3.777344h-12.066407v31.960938c0 2.648437-1.316406 4.753906-3.941406 6.324218-2.625 1.570313-5.664062 2.351563-9.109375 2.351563-3.613281 0-6.691406-.78125-9.238281-2.351563-2.546875-1.570312-3.816406-3.675781-3.816406-6.324218v-31.960938h-60.582032c-2.625 0-4.800781-.847656-6.523437-2.558594-1.722656-1.707031-2.585937-4.023437-2.585937-6.949218zm0 0" fill="url(#s)"/><path d="m495.308594 202.988281h-23.8125c-16.53125-114.625-115.394532-202.988281-234.523438-202.988281-130.667968 0-236.972656 106.304688-236.972656 236.972656 0 53.914063 18.597656 106.6875 52.363281 148.589844 33.261719 41.273438 79.871094 70.515625 131.242188 82.34375 1.410156.324219 2.8125.480469 4.199219.480469 8.480468 0 16.152343-5.835938 18.136718-14.453125 2.308594-10.027344-3.949218-20.027344-13.976562-22.335938-43.269532-9.960937-82.546875-34.613281-110.589844-69.414062-28.859375-35.8125-44.117188-79.109375-44.117188-125.210938 0-110.125 89.589844-199.714844 199.714844-199.714844 98.539063 0 180.628906 71.738282 196.808594 165.730469h-19.652344c-14.839844 0-22.273437 17.945313-11.777344 28.4375l40.589844 40.589844c6.503906 6.503906 17.050782 6.503906 23.558594 0l40.585938-40.589844c10.496093-10.496093 3.0625-28.4375-11.777344-28.4375zm0 0" fill="url(#t)"/></svg>