<svg height="512pt" viewBox="-30 0 511 512" width="512pt" xmlns="http://www.w3.org/2000/svg" xmlns:xlink="http://www.w3.org/1999/xlink"><linearGradient id="a"><stop offset="0" stop-color="#c6e56f"/><stop offset=".3371" stop-color="#c4e56f"/><stop offset=".4953" stop-color="#bce36e"/><stop offset=".6162" stop-color="#afe16d"/><stop offset=".7182" stop-color="#9ddd6b"/><stop offset=".8083" stop-color="#85d968"/><stop offset=".8899" stop-color="#68d365"/><stop offset=".9635" stop-color="#46cd61"/><stop offset="1" stop-color="#32c95f"/></linearGradient><linearGradient id="b" gradientTransform="matrix(-.00000008 -.527159 1.003922 .00000008 882.813437 -878.835752)" gradientUnits="userSpaceOnUse" x1="-2143.0427" x2="-2143.0427" xlink:href="#a" y1="-842.927" y2="-816.0455"/><linearGradient id="c" gradientUnits="userSpaceOnUse" x1="467.6237147016" x2="277.1214838256" xlink:href="#a" y1="316.7859808248" y2="138.9276455778"/><linearGradient id="d" gradientUnits="userSpaceOnUse" x1="225.9167433922" x2="225.9167433922" xlink:href="#a" y1="8.0242481538" y2="39.6341378146"/><linearGradient id="e"><stop offset="0" stop-color="#ff6e3a"/><stop offset=".1596" stop-color="#ff6440"/><stop offset=".4266" stop-color="#ff4b52"/><stop offset=".7662" stop-color="#ff216e"/><stop offset="1" stop-color="#ff0084"/></linearGradient><linearGradient id="f" gradientUnits="userSpaceOnUse" x1="39.1817298212" x2="96.7903883004" xlink:href="#e" y1="235.4853654988" y2="293.094023978"/><linearGradient id="g" gradientUnits="userSpaceOnUse" x1="35.3885109364" x2="92.9971694156" xlink:href="#e" y1="112.8389253482" y2="170.4475838274"/><linearGradient id="h" gradientUnits="userSpaceOnUse" x1="417.9666204234" x2="397.696732498" xlink:href="#e" y1="259.7454418054" y2="259.7454418054"/><linearGradient id="i" gradientUnits="userSpaceOnUse" x1="443.339544267" x2="407.5518332032" xlink:href="#e" y1="188.2538471648" y2="152.4662364932"/><linearGradient id="j" gradientUnits="userSpaceOnUse" x1="-16.8280824808" x2="595.3275123194" y1="-.0852329778" y2="612.0704622146"><stop offset="0" stop-color="#ffd459"/><stop offset=".2296" stop-color="#ffd355"/><stop offset=".4362" stop-color="#ffcf4a"/><stop offset=".634" stop-color="#ffc838"/><stop offset=".825" stop-color="#ffbf1f"/><stop offset="1" stop-color="#ffb400"/></linearGradient><linearGradient id="k"><stop offset="0" stop-color="#e58200" stop-opacity="0"/><stop offset=".4384" stop-color="#c4602c" stop-opacity=".439216"/><stop offset=".7953" stop-color="#ae4948" stop-opacity=".796078"/><stop offset="1" stop-color="#a64153"/></linearGradient><linearGradient id="l" gradientUnits="userSpaceOnUse" x1="369.834885232" x2="369.834885232" xlink:href="#k" y1="-107.3991739912" y2="569.3878148548"/><linearGradient id="m" gradientUnits="userSpaceOnUse" x1="312.2675883392" x2="312.2675883392" xlink:href="#k" y1="-107.3991739912" y2="569.3878148548"/><linearGradient id="n" gradientUnits="userSpaceOnUse" x1="254.7002914464" x2="254.7002914464" xlink:href="#k" y1="-107.3991739912" y2="569.3878148548"/><linearGradient id="o" gradientUnits="userSpaceOnUse" x1="197.1329945536" x2="197.1329945536" xlink:href="#k" y1="-107.3991739912" y2="569.3878148548"/><linearGradient id="p" gradientUnits="userSpaceOnUse" x1="139.5656976608" x2="139.5656976608" xlink:href="#k" y1="-107.3991739912" y2="569.3878148548"/><linearGradient id="q" gradientUnits="userSpaceOnUse" x1="81.998400768" x2="81.998400768" xlink:href="#k" y1="-107.3991739912" y2="569.3878148548"/><linearGradient id="r" gradientUnits="userSpaceOnUse" x1="-81.1950434718" x2="636.1501933898" xlink:href="#k" y1="-108.4798960242" y2="706.132632828"/><linearGradient id="s"><stop offset="0" stop-color="#fffcf8"/><stop offset=".1875" stop-color="#faf8f6"/><stop offset=".4041" stop-color="#eceef2"/><stop offset=".6353" stop-color="#d5dcea"/><stop offset=".875" stop-color="#b5c4df"/><stop offset="1" stop-color="#a1b5d8"/></linearGradient><linearGradient id="t" gradientUnits="userSpaceOnUse" x1="55.1598511966" x2="497.0998685436" xlink:href="#s" y1="205.962629676" y2="647.902647023"/><linearGradient id="u"><stop offset="0" stop-color="#e58200" stop-opacity="0"/><stop offset=".0396" stop-color="#e27f04" stop-opacity=".039216"/><stop offset=".4671" stop-color="#c15d2f" stop-opacity=".466667"/><stop offset=".8016" stop-color="#ad4949" stop-opacity=".8"/><stop offset="1" stop-color="#a64153"/></linearGradient><linearGradient id="v" gradientUnits="userSpaceOnUse" x1="207.6901379134" x2="228.4606817402" xlink:href="#u" y1="306.7141333598" y2="365.986290593"/><linearGradient id="w" gradientUnits="userSpaceOnUse" x1="240.3915919648" x2="198.2534718978" xlink:href="#u" y1="328.6814526028" y2="409.3713821762"/><linearGradient id="x" gradientUnits="userSpaceOnUse" x1="54.5640234896" x2="496.5070526026" xlink:href="#s" y1="205.962127715" y2="647.905156828"/><linearGradient id="y" gradientUnits="userSpaceOnUse" x1="67.8204119308" x2="149.999057438" xlink:href="#s" y1="295.8423608452" y2="409.4518967206"/><linearGradient id="z" gradientUnits="userSpaceOnUse" x1="460.4701680984" x2="191.0176036906" y1="404.049491262" y2="134.5969268542"><stop offset="0" stop-color="#a1b5d8" stop-opacity="0"/><stop offset=".0343" stop-color="#9fb3d5" stop-opacity=".035294"/><stop offset=".4515" stop-color="#8898af" stop-opacity=".45098"/><stop offset=".788" stop-color="#798898" stop-opacity=".788235"/><stop offset="1" stop-color="#748290"/></linearGradient><linearGradient id="A" gradientUnits="userSpaceOnUse" x1="233.6969381078" x2="248.167068247" xlink:href="#s" y1="320.2432874084" y2="418.9500027626"/><path d="m54.898438 475.007812s-11.96875-122.566406-25.855469-134.695312l-6.230469-5.445312c-15.921875-13.910157-15.921875-42.140626 0-56.046876l.007812-.007812c15.921876-13.910156 15.921876-42.140625-.003906-56.050781-15.921875-13.910157-15.921875-42.140625 0-56.050781l6.226563-5.441407c13.886719-12.128906 16-35.785156 4.566406-51.101562l-3.335937-4.464844c-9.832032-13.167969-9.832032-32.976563 0-46.152344l24.625-32.980469zm0 0" fill="url(#b)"/><path d="m396.933594 475.007812s11.96875-122.566406 25.855468-134.695312l6.230469-5.445312c15.921875-13.910157 15.921875-42.140626.003907-56.046876l-.011719-.007812c-15.921875-13.910156-15.917969-42.140625.003906-56.050781 15.921875-13.910157 15.921875-42.140625 0-56.050781l-6.226563-5.441407c-13.886718-12.128906-16-35.785156-4.5625-51.101562l3.332032-4.464844c9.835937-13.167969 9.835937-32.976563 0-46.152344l-24.625-32.980469zm0 0" fill="url(#c)"/><path d="m420.210938 44.027344-28.574219-24.625c-11.414063-9.832032-28.582031-9.832032-39.996094 0l-3.867187 3.335937c-13.269532 11.433594-33.769532 9.320313-44.28125-4.566406l-4.71875-6.230469c-12.050782-15.921875-36.515626-15.921875-48.566407 0l-.007812.007813c-12.054688 15.921875-36.515625 15.917969-48.570313-.003907-12.050781-15.921874-36.515625-15.921874-48.566406 0l-4.714844 6.226563c-10.511718 13.886719-31.011718 16-44.28125 4.566406l-3.871094-3.335937c-11.414062-9.832032-28.578124-9.832032-39.992187 0l-28.582031 24.625zm0 0" fill="url(#d)"/><path d="m108.140625 259.746094c0 24.6875-20.011719 44.699218-44.699219 44.699218s-44.699218-20.011718-44.699218-44.699218 20.011718-44.699219 44.699218-44.699219 44.699219 20.011719 44.699219 44.699219zm0 0" fill="url(#f)"/><path d="m104.347656 137.097656c0 24.6875-20.011718 44.699219-44.699218 44.699219s-44.699219-20.011719-44.699219-44.699219 20.011719-44.699218 44.699219-44.699218 44.699218 20.011718 44.699218 44.699218zm0 0" fill="url(#g)"/><path d="m433.089844 259.746094c0 24.6875-20.011719 44.699218-44.699219 44.699218s-44.699219-20.011718-44.699219-44.699218 20.011719-44.699219 44.699219-44.699219 44.699219 20.011719 44.699219 44.699219zm0 0" fill="url(#h)"/><path d="m436.882812 137.097656c0 24.6875-20.011718 44.699219-44.699218 44.699219s-44.699219-20.011719-44.699219-44.699219 20.011719-44.699218 44.699219-44.699218 44.699218 20.011718 44.699218 44.699218zm0 0" fill="url(#i)"/><path d="m389.324219 25.070312h-326.8125c-34.25 0-62.011719 27.765626-62.011719 62.011719 0 17.457031 7.21875 33.226563 18.832031 44.492188 13.011719 12.625 21.972657 28.839843 25.101563 46.699219 14.425781 82.378906 8.15625 165.226562-6.757813 247.707031-6.433593 35.5625 21.074219 68.226562 57.21875 68.226562h263.160157c36.238281 0 63.753906-32.828125 57.171874-68.464843-15.214843-82.378907-22.230468-165.132813-7.835937-247.417969 3.128906-17.875 12.089844-34.117188 25.113281-46.75 11.609375-11.265625 18.828125-27.03125 18.828125-44.492188.003907-34.246093-27.761719-62.011719-62.007812-62.011719zm0 0" fill="url(#j)"/><g fill="url(#l)"><path d="m373.007812 120.253906c0 1.753906-1.421874 3.171875-3.171874 3.171875-1.753907 0-3.175782-1.417969-3.175782-3.171875s1.421875-3.171875 3.175782-3.171875c1.75 0 3.171874 1.417969 3.171874 3.171875zm0 0"/><path d="m373.007812 199.578125c0 1.753906-1.421874 3.175781-3.171874 3.175781-1.753907 0-3.175782-1.421875-3.175782-3.175781s1.421875-3.171875 3.175782-3.171875c1.75 0 3.171874 1.417969 3.171874 3.171875zm0 0"/><path d="m373.007812 278.902344c0 1.753906-1.421874 3.175781-3.171874 3.175781-1.753907 0-3.175782-1.421875-3.175782-3.175781 0-1.75 1.421875-3.171875 3.175782-3.171875 1.75 0 3.171874 1.421875 3.171874 3.171875zm0 0"/><path d="m373.007812 358.226562c0 1.753907-1.421874 3.175782-3.171874 3.175782-1.753907 0-3.175782-1.421875-3.175782-3.175782 0-1.75 1.421875-3.171874 3.175782-3.171874 1.75 0 3.171874 1.421874 3.171874 3.171874zm0 0"/><path d="m373.007812 437.554688c0 1.75-1.421874 3.171874-3.171874 3.171874-1.753907 0-3.175782-1.421874-3.175782-3.171874 0-1.753907 1.421875-3.175782 3.175782-3.175782 1.75 0 3.171874 1.421875 3.171874 3.175782zm0 0"/></g><path d="m315.441406 81.722656c0 1.753906-1.421875 3.175782-3.171875 3.175782-1.753906 0-3.175781-1.421876-3.175781-3.175782 0-1.75 1.421875-3.171875 3.175781-3.171875 1.75 0 3.171875 1.421875 3.171875 3.171875zm0 0" fill="url(#m)"/><path d="m315.441406 161.050781c0 1.75-1.421875 3.171875-3.171875 3.171875-1.753906 0-3.175781-1.421875-3.175781-3.171875 0-1.753906 1.421875-3.175781 3.175781-3.175781 1.75 0 3.171875 1.421875 3.171875 3.175781zm0 0" fill="url(#m)"/><path d="m315.441406 240.375c0 1.75-1.421875 3.171875-3.171875 3.171875-1.753906 0-3.175781-1.421875-3.175781-3.171875 0-1.753906 1.421875-3.175781 3.175781-3.175781 1.75 0 3.171875 1.421875 3.171875 3.175781zm0 0" fill="url(#m)"/><path d="m315.441406 319.699219c0 1.753906-1.421875 3.171875-3.171875 3.171875-1.753906 0-3.175781-1.417969-3.175781-3.171875 0-1.753907 1.421875-3.171875 3.175781-3.171875 1.75 0 3.171875 1.417968 3.171875 3.171875zm0 0" fill="url(#m)"/><path d="m315.441406 399.023438c0 1.753906-1.421875 3.175781-3.171875 3.175781-1.753906 0-3.175781-1.421875-3.175781-3.175781 0-1.75 1.421875-3.171876 3.175781-3.171876 1.75 0 3.171875 1.421876 3.171875 3.171876zm0 0" fill="url(#m)"/><path d="m257.875 120.253906c0 1.753906-1.421875 3.171875-3.175781 3.171875-1.75 0-3.171875-1.417969-3.171875-3.171875s1.421875-3.171875 3.171875-3.171875c1.753906 0 3.175781 1.417969 3.175781 3.171875zm0 0" fill="url(#n)"/><path d="m257.875 199.578125c0 1.753906-1.421875 3.175781-3.175781 3.175781-1.75 0-3.171875-1.421875-3.171875-3.175781s1.421875-3.171875 3.171875-3.171875c1.753906 0 3.175781 1.417969 3.175781 3.171875zm0 0" fill="url(#n)"/><path d="m257.875 278.902344c0 1.753906-1.421875 3.175781-3.175781 3.175781-1.75 0-3.171875-1.421875-3.171875-3.175781 0-1.75 1.421875-3.171875 3.171875-3.171875 1.753906 0 3.175781 1.421875 3.175781 3.171875zm0 0" fill="url(#n)"/><path d="m257.875 358.226562c0 1.753907-1.421875 3.175782-3.175781 3.175782-1.75 0-3.171875-1.421875-3.171875-3.175782 0-1.75 1.421875-3.171874 3.171875-3.171874 1.753906 0 3.175781 1.421874 3.175781 3.171874zm0 0" fill="url(#n)"/><path d="m257.875 437.554688c0 1.75-1.421875 3.171874-3.175781 3.171874-1.75 0-3.171875-1.421874-3.171875-3.171874 0-1.753907 1.421875-3.175782 3.171875-3.175782 1.753906 0 3.175781 1.421875 3.175781 3.175782zm0 0" fill="url(#n)"/><path d="m200.304688 81.722656c0 1.753906-1.417969 3.175782-3.171876 3.175782-1.753906 0-3.171874-1.421876-3.171874-3.175782 0-1.75 1.417968-3.171875 3.171874-3.171875 1.753907 0 3.171876 1.421875 3.171876 3.171875zm0 0" fill="url(#o)"/><path d="m200.304688 161.050781c0 1.75-1.417969 3.171875-3.171876 3.171875-1.753906 0-3.171874-1.421875-3.171874-3.171875 0-1.753906 1.417968-3.175781 3.171874-3.175781 1.753907 0 3.171876 1.421875 3.171876 3.175781zm0 0" fill="url(#o)"/><path d="m200.304688 240.375c0 1.75-1.417969 3.171875-3.171876 3.171875-1.753906 0-3.171874-1.421875-3.171874-3.171875 0-1.753906 1.417968-3.175781 3.171874-3.175781 1.753907 0 3.171876 1.421875 3.171876 3.175781zm0 0" fill="url(#o)"/><path d="m200.304688 319.699219c0 1.753906-1.417969 3.171875-3.171876 3.171875-1.753906 0-3.171874-1.417969-3.171874-3.171875 0-1.753907 1.417968-3.171875 3.171874-3.171875 1.753907 0 3.171876 1.417968 3.171876 3.171875zm0 0" fill="url(#o)"/><path d="m200.304688 399.023438c0 1.753906-1.417969 3.175781-3.171876 3.175781-1.753906 0-3.171874-1.421875-3.171874-3.175781 0-1.75 1.417968-3.171876 3.171874-3.171876 1.753907 0 3.171876 1.421876 3.171876 3.171876zm0 0" fill="url(#o)"/><path d="m142.738281 120.253906c0 1.753906-1.421875 3.171875-3.171875 3.171875-1.753906 0-3.175781-1.417969-3.175781-3.171875s1.421875-3.171875 3.175781-3.171875c1.75 0 3.171875 1.417969 3.171875 3.171875zm0 0" fill="url(#p)"/><path d="m142.738281 199.578125c0 1.753906-1.421875 3.175781-3.171875 3.175781-1.753906 0-3.175781-1.421875-3.175781-3.175781s1.421875-3.171875 3.175781-3.171875c1.75 0 3.171875 1.417969 3.171875 3.171875zm0 0" fill="url(#p)"/><path d="m142.738281 278.902344c0 1.753906-1.421875 3.175781-3.171875 3.175781-1.753906 0-3.175781-1.421875-3.175781-3.175781 0-1.75 1.421875-3.171875 3.175781-3.171875 1.75 0 3.171875 1.421875 3.171875 3.171875zm0 0" fill="url(#p)"/><path d="m142.738281 358.226562c0 1.753907-1.421875 3.175782-3.171875 3.175782-1.753906 0-3.175781-1.421875-3.175781-3.175782 0-1.75 1.421875-3.171874 3.175781-3.171874 1.75 0 3.171875 1.421874 3.171875 3.171874zm0 0" fill="url(#p)"/><path d="m142.738281 437.554688c0 1.75-1.421875 3.171874-3.171875 3.171874-1.753906 0-3.175781-1.421874-3.175781-3.171874 0-1.753907 1.421875-3.175782 3.175781-3.175782 1.75 0 3.171875 1.421875 3.171875 3.175782zm0 0" fill="url(#p)"/><path d="m85.171875 81.722656c0 1.753906-1.421875 3.175782-3.171875 3.175782-1.753906 0-3.175781-1.421876-3.175781-3.175782 0-1.75 1.421875-3.171875 3.175781-3.171875 1.75 0 3.171875 1.421875 3.171875 3.171875zm0 0" fill="url(#q)"/><path d="m85.171875 161.050781c0 1.75-1.421875 3.171875-3.171875 3.171875-1.753906 0-3.175781-1.421875-3.175781-3.171875 0-1.753906 1.421875-3.175781 3.175781-3.175781 1.75 0 3.171875 1.421875 3.171875 3.175781zm0 0" fill="url(#q)"/><path d="m85.171875 240.375c0 1.75-1.421875 3.171875-3.171875 3.171875-1.753906 0-3.175781-1.421875-3.175781-3.171875 0-1.753906 1.421875-3.175781 3.175781-3.175781 1.75 0 3.171875 1.421875 3.171875 3.175781zm0 0" fill="url(#q)"/><path d="m85.171875 319.699219c0 1.753906-1.421875 3.171875-3.171875 3.171875-1.753906 0-3.175781-1.417969-3.175781-3.171875 0-1.753907 1.421875-3.171875 3.175781-3.171875 1.75 0 3.171875 1.417968 3.171875 3.171875zm0 0" fill="url(#q)"/><path d="m85.171875 399.023438c0 1.753906-1.421875 3.175781-3.171875 3.175781-1.753906 0-3.175781-1.421875-3.175781-3.175781 0-1.75 1.421875-3.171876 3.175781-3.171876 1.75 0 3.171875 1.421876 3.171875 3.171876zm0 0" fill="url(#q)"/><path d="m389.324219 25.070312h-326.8125c-34.25 0-62.011719 27.765626-62.011719 62.011719 0 17.457031 7.21875 33.226563 18.832031 44.492188 13.011719 12.625 21.972657 28.839843 25.101563 46.699219 14.425781 82.378906 8.15625 165.226562-6.757813 247.707031-6.433593 35.5625 21.074219 68.226562 57.214844 68.226562h263.160156c36.238281 0 63.757813-32.828125 57.175781-68.464843-15.214843-82.378907-22.230468-165.132813-7.835937-247.417969 3.128906-17.875 12.085937-34.117188 25.109375-46.75 11.613281-11.265625 18.832031-27.03125 18.832031-44.492188 0-34.246093-27.761719-62.011719-62.007812-62.011719zm29.972656 92.890626c-16.230469 15.746093-26.808594 35.488281-30.585937 57.097656-12.96875 74.113281-10.46875 154.863281 7.867187 254.128906 2.097656 11.367188-.953125 23-8.371094 31.914062-7.476562 8.984376-18.46875 14.140626-30.15625 14.140626h-263.15625c-11.660156 0-22.636719-5.136719-30.117187-14.085938-7.414063-8.875-10.488282-20.46875-8.4375-31.804688 17.785156-98.355468 19.9375-179.175781 6.777344-254.347656-3.78125-21.578125-14.355469-41.300781-30.578126-57.042968-8.429687-8.175782-13.070312-19.140626-13.070312-30.878907 0-23.734375 19.308594-43.042969 43.042969-43.042969h326.8125c23.734375 0 43.042969 19.308594 43.042969 43.042969 0 11.738281-4.640626 22.703125-13.070313 30.878907zm0 0" fill="url(#r)"/><path d="m368.078125 512h-283.128906c-38.886719 0-68.472657-35.136719-61.5625-73.394531 2.886719-15.980469 5.480469-31.96875 7.691406-47.964844 5.15625-37.296875 8.246094-74.632813 8.335937-111.949219 1.46875-1.988281 4.167969-2.9375 6.710938-2.046875l152.921875 53.375 205.78125-71.835937c3.503906-1.226563 7.292969 1.054687 7.789063 4.730468.011718.070313.019531.140626.03125.214844.050781.351563.089843.707032.121093 1.074219-.039062 2.773437-.070312 5.550781-.070312 8.328125-.082031 55.277344 6.695312 110.628906 16.890625 165.820312 7.082031 38.339844-22.523438 73.648438-61.511719 73.648438zm0 0" fill="url(#t)"/><path d="m358.054688 494.207031c36.238281 0 63.753906-32.828125 57.171874-68.464843-11.964843-64.792969-18.851562-129.8125-14.25-194.65625l-351.945312 114.621093c-2.605469 26.777344-6.523438 53.542969-11.355469 80.273438-6.433593 35.5625 21.074219 68.226562 57.21875 68.226562zm0 0" fill="url(#v)"/><path d="m415.226562 425.742188c-3.472656-18.800782-6.511718-37.621094-8.96875-56.449219l-355.175781-136.480469c4.589844 64.351562-1.78125 128.871094-13.40625 193.167969-6.433593 35.5625 21.074219 68.226562 57.214844 68.226562h263.160156c36.242188 0 63.757813-32.828125 57.175781-68.464843zm0 0" fill="url(#w)"/><path d="m430.027344 448.230469c.851562 34.316406-26.929688 63.769531-62.542969 63.769531h-283.128906c-38.886719 0-68.472657-35.136719-61.5625-73.394531 2.886719-15.980469 5.480469-31.96875 7.6875-47.964844 5.160156-37.296875 8.25-74.632813 8.339843-111.949219 1.46875-1.988281 4.164063-2.9375 6.707032-2.046875l152.921875 53.375 136.195312-47.539062 69.585938-24.296875c2.261719-.792969 4.628906-.121094 6.171875 1.425781.363281.367187.675781.78125.941406 1.246094.34375.621093.578125 1.308593.679688 2.058593.007812.070313.019531.140626.027343.210938.050781.355469.09375.710938.125 1.074219-.042969 2.777343-.074219 5.554687-.074219 8.332031-.078124 55.277344 6.699219 110.628906 16.890626 165.820312.609374 3.320313.953124 6.625 1.035156 9.878907zm0 0" fill="url(#x)"/><path d="m198.449219 330.019531-142.585938 49.777344c-.039062.019531-.089843.03125-.132812.050781-.070313.03125-.140625.0625-.210938.082032-2.484375.953124-14.933593 6.128906-25.035156 10.710937 5.15625-37.296875 8.246094-74.632813 8.335937-111.949219 1.46875-1.988281 4.164063-2.9375 6.707032-2.046875zm0 0" fill="url(#y)"/><path d="m430.027344 448.230469-95.382813-75.636719v-90.113281l69.585938-24.296875c2.261719-.792969 4.632812-.121094 6.171875 1.425781.375.367187.6875.792969.941406 1.246094.34375.621093.589844 1.320312.691406 2.070312.007813.070313.019532.128907.019532.199219.050781.355469.089843.710938.121093 1.074219-.039062 2.777343-.070312 5.554687-.070312 8.332031-.082031 55.277344 6.695312 110.628906 16.886719 165.820312.609374 3.320313.953124 6.625 1.035156 9.878907zm0 0" fill="url(#z)"/><path d="m412.105469 272.53125c-.660157 5.59375-2.554688 11.023438-5.554688 15.875l-48.765625 79.101562c-4.4375 7.203126-13.648437 9.828126-21.214844 6.039063l-21.074218-10.527344c-39.109375-19.5625-83.964844-24.355469-126.324219-13.515625 0 0-135.589844 31.144532-133.441406 30.347656.042969-.023437.09375-.03125.132812-.050781l142.589844-49.78125 205.777344-71.835937c3.507812-1.222656 7.296875 1.054687 7.792969 4.734375.011718.070312.019531.140625.03125.210937.050781.355469.089843.710938.121093 1.074219.292969 2.785156.273438 5.570313-.070312 8.328125zm0 0" fill="url(#A)"/></svg>