<svg height="511pt" viewBox="-26 0 511 511.99821" width="511pt" xmlns="http://www.w3.org/2000/svg" xmlns:xlink="http://www.w3.org/1999/xlink"><linearGradient id="a" gradientUnits="userSpaceOnUse" x1="173.243912799" x2="287.531397201" y1="362.854772836" y2="362.854772836"><stop offset="0" stop-color="#fffcf8"/><stop offset=".1875" stop-color="#faf8f6"/><stop offset=".4041" stop-color="#eceef2"/><stop offset=".6353" stop-color="#d5dcea"/><stop offset=".875" stop-color="#b5c4df"/><stop offset="1" stop-color="#a1b5d8"/></linearGradient><linearGradient id="b" gradientUnits="userSpaceOnUse" x1="307.2513366548" x2="155.0542516498" y1="334.346901763" y2="182.149816758"><stop offset="0" stop-color="#a1b5d8" stop-opacity="0"/><stop offset=".3544" stop-color="#93a5c2" stop-opacity=".352941"/><stop offset="1" stop-color="#748290"/></linearGradient><radialGradient id="c" cx="255" cy="148.6299" gradientTransform="matrix(1.003922 0 0 .428875 -25.612455 85.461952)" gradientUnits="userSpaceOnUse" r="307.9764"><stop offset="0" stop-color="#ff6e3a"/><stop offset=".3837" stop-color="#ff6c3b"/><stop offset=".5518" stop-color="#ff6540"/><stop offset=".6777" stop-color="#ff5849"/><stop offset=".7826" stop-color="#ff4655"/><stop offset=".8745" stop-color="#ff2f64"/><stop offset=".9559" stop-color="#ff1377"/><stop offset="1" stop-color="#ff0084"/></radialGradient><linearGradient id="d"><stop offset="0" stop-color="#e58200" stop-opacity="0"/><stop offset=".4384" stop-color="#c4602c" stop-opacity=".439216"/><stop offset=".7953" stop-color="#ae4948" stop-opacity=".796078"/><stop offset="1" stop-color="#a64153"/></linearGradient><linearGradient id="e" gradientUnits="userSpaceOnUse" x1="119.0377467622" x2="119.0377467622" xlink:href="#d" y1="224.921411607" y2="144.9547074424"/><linearGradient id="f" gradientUnits="userSpaceOnUse" x1="185.8587950822" x2="185.8587950822" xlink:href="#d" y1="224.921411607" y2="144.9547074424"/><linearGradient id="g" gradientUnits="userSpaceOnUse" x1="254.039053398" x2="254.039053398" xlink:href="#d" y1="224.921411607" y2="144.9547074424"/><linearGradient id="h" gradientUnits="userSpaceOnUse" x1="344.752441396" x2="344.752441396" xlink:href="#d" y1="224.921411607" y2="144.9547074424"/><linearGradient id="i"><stop offset="0" stop-color="#e58200" stop-opacity="0"/><stop offset=".0396" stop-color="#e27f04" stop-opacity=".039216"/><stop offset=".4671" stop-color="#c15d2f" stop-opacity=".466667"/><stop offset=".8016" stop-color="#ad4949" stop-opacity=".8"/><stop offset="1" stop-color="#a64153"/></linearGradient><linearGradient id="j" gradientTransform="matrix(1.003922 .00973804 -.00973804 1.003922 -24.253647 -2.373254)" gradientUnits="userSpaceOnUse" x1="230.1294" x2="145.5269" xlink:href="#i" y1="203.7017" y2="-407.6925"/><linearGradient id="k" gradientTransform="matrix(1.003922 .00973804 -.00973804 1.003922 -24.253647 -2.373254)" gradientUnits="userSpaceOnUse" x1="277.548" x2="362.1505" xlink:href="#i" y1="204.2393" y2="-86.7933"/><path d="m254.597656 385.523438 5.363282 115.558593c.273437 5.945313-4.472657 10.917969-10.421876 10.917969h-38.300781c-5.953125 0-10.699219-4.972656-10.421875-10.917969l5.363282-115.558593c.554687-11.976563-3.503907-23.777344-11.570313-32.648438-13.023437-14.332031-21.363281-36.308594-21.363281-60.957031 0-24.460938 8.195312-60.699219 21.039062-75.039063 3.976563-4.4375 11.335938-1.585937 11.335938 4.359375v80.882813c0 4.097656 3.375 7.402344 7.507812 7.28125 3.988282-.113282 7.058594-3.589844 7.058594-7.589844v-77.800781c0-5.667969 4.636719-10.304688 10.304688-10.304688 5.578124 0 10.101562 4.523438 10.101562 10.101563v78.308594c0 4.101562 3.375 7.40625 7.507812 7.28125 3.984376-.113282 7.054688-3.589844 7.054688-7.585938v-80.574219c0-5.945312 7.359375-8.800781 11.335938-4.359375 12.839843 14.335938 21.039062 50.574219 21.039062 75.035156 0 24.652344-8.339844 46.628907-21.363281 60.957032-8.066407 8.875-12.128907 20.675781-11.570313 32.652344zm0 0" fill="url(#a)"/><path d="m266.492188 216.878906c-3.976563-4.4375-11.335938-1.582031-11.335938 4.363282v80.570312c0 4-3.070312 7.476562-7.054688 7.589844-4.136718.125-7.511718-3.183594-7.511718-7.28125v-78.308594c0-5.578125-4.519532-10.101562-10.101563-10.101562-5.667969 0-10.304687 4.636718-10.304687 10.304687v77.800781c0 3.996094-3.066406 7.472656-7.054688 7.585938-4.132812.125-7.507812-3.183594-7.507812-7.28125v-80.878906c0-5.945313-7.359375-8.800782-11.335938-4.359376-10.542968 11.769532-17.953125 38.292969-20.269531 60.949219l85.234375 85.234375c1.808594-3.671875 4.113281-7.109375 6.914062-10.191406 13.023438-14.332031 21.367188-36.308594 21.367188-60.957031 0-24.460938-8.199219-60.699219-21.039062-75.039063zm0 0" fill="url(#b)"/><path d="m230.386719 280.585938c71.566406 0 137.96875-12.988282 192.761719-35.167969 38.882812-15.742188 49.691406-65.664063 20.574218-95.863281-20.769531-21.542969-54.488281-24.789063-78.433594-6.84375-31.363281 23.507812-80.128906 38.613281-134.902343 38.613281-54.769531 0-103.535157-15.105469-134.898438-38.613281-23.945312-17.945313-57.667969-14.699219-78.4375 6.84375-29.117187 30.199218-18.304687 80.125 20.578125 95.863281 54.792969 22.179687 121.191406 35.167969 192.757813 35.167969zm0 0" fill="url(#c)"/><path d="m142.054688 166.929688c-20.40625 19.148437-39.816407 30.269531-44.832032 25.253906-4.359375-4.363282 3.464844-19.59375 18.175782-36.90625 8.199218 4.367187 17.121093 8.277344 26.65625 11.652344zm0 0" fill="url(#e)"/><path d="m209.257812 180.5625c-20.691406 19.570312-40.519531 31.039062-45.59375 25.96875-3.796874-3.796875 1.640626-15.832031 12.808594-30.292969 10.507813 2.039063 21.480469 3.507813 32.785156 4.324219zm0 0" fill="url(#f)"/><path d="m279.183594 177.164062c-21.890625 21.628907-43.722656 34.722657-49.089844 29.367188-3.351562-3.351562.507812-13.148438 9.160156-25.355469 13.804688-.398437 27.179688-1.777343 39.929688-4.011719zm0 0" fill="url(#g)"/><path d="m382.089844 133.972656c-5.546875 8.347656-13.601563 18.085938-23.292969 27.78125-22.265625 22.261719-44.730469 35.886719-50.179687 30.429688-3.304688-3.308594.386718-12.832032 8.742187-24.78125 18.484375-6.410156 34.746094-14.8125 47.925781-24.6875 5.222656-3.90625 10.894532-6.816406 16.804688-8.742188zm0 0" fill="url(#h)"/><path d="m210.730469 185.15625c-.839844.453125-1.890625.1875-2.410157-.609375-4.183593-6.429687-8.292968-12.898437-12.449218-19.34375l-4.957032-7.816406c-.28125-.453125-.542968-.820313-.835937-1.347657l-.875-1.566406c-2.304687-4.21875-3.476563-9.082031-3.621094-14.003906-.109375-4.929688.980469-9.9375 3.164063-14.5.601562-1.105469 1.132812-2.269531 1.863281-3.3125l1.011719-1.53125c.027344-.042969.058594-.085938.089844-.125l1.136718-1.445312c.765625-1.035157 1.707032-1.90625 2.585938-2.847657.453125-.460937.953125-.859375 1.433594-1.289062l.730468-.632813.371094-.316406.300781-.246094 9.574219-7.777344 4.789062-3.890624 1.195313-.972657.980469-.882812c.632812-.589844 1.300781-1.132813 1.90625-1.746094 9.882812-9.613281 14.207031-23.765625 12.003906-36.402344-.191406-1.5625-.636719-3.082031-.992188-4.601562-.011718-.054688-.027343-.105469-.042968-.160157-.523438-1.480468-.914063-2.992187-1.609375-4.398437-.3125-.699219-.589844-1.40625-.910157-2.097656-.023437-.046875-.050781-.097657-.078124-.148438l-1.101563-1.988281-.515625-.945312c-.03125-.054688-.0625-.113282-.101562-.164063l-.609376-.886719-1.242187-1.867187c-.035156-.050781-.070313-.101563-.109375-.144531l-1.417969-1.734376-.65625-.828124c-.039062-.054688-.085937-.105469-.132812-.152344l-.75-.753906-1.539063-1.597657c-.042968-.042969-.085937-.082031-.132812-.121093l-1.6875-1.4375-.796875-.691407c-.046875-.039062-.097657-.078125-.148438-.117187l-.867187-.605469-1.789063-1.28125c-.046875-.03125-.097656-.0625-.144531-.09375l-1.902344-1.105469c-.332031-.1875-.644531-.40625-.984375-.574218l-1.03125-.480469c-2.664062-1.398438-5.570312-2.199219-8.429687-2.863281-.054688-.015626-.109375-.023438-.164063-.03125-1.453125-.191407-2.871093-.507813-4.328125-.5-.738281-.019532-1.464844-.109376-2.195312-.097657l-2.191406.097657c-.726563-.011719-1.449219.105468-2.167969.222656-.6875.113281-1.375.183594-2.054688.296875-.058593.011719-.113281.023437-.171875.035156l-2.019531.5-1.046875.238281-1.492188.386719-5.980468 1.515625-2.992188.753906-.746094.1875c-.210937.0625-.292968.109375-.441406.164063l-.800781.292969c-4.238281 1.566406-7.746094 4.277343-10.375 7.675781-1.304687 1.703125-2.390625 3.566406-3.203125 5.558593-.433594.988282-.722656 2.03125-1.011719 3.085938-.09375.535156-.304687 1.0625-.359375 1.613281l-.117187.828125-.066407.414063-.039062.210937c-.011719.078125-.015625.242188-.023438.359375l-.425781 6.152344-.121093 1.539063-.039063.46875-.039063.300781c-.097656.410156-.070312.808593-.121093 1.222656-.085938 1.648437.25 3.367187.933593 5.089844 1.449219 3.378906 4.558594 6.558593 9.140626 7.800781 2.230468.628906 4.742187.835938 7.363281.363281 2.59375-.496093 5.285156-1.589843 7.734375-3.367187 2.484375-1.753906 4.59375-4.25 6.234375-7.316406.203125-.394532.414062-.753907.617187-1.199219l.601563-1.464844 1.234375-2.929687c.671875-1.539063 1.34375-3.078126 2.058594-4.609376.34375-.730468 1.132812-1.144531 1.925781-1.027343l.664062.09375c.796875.117187 1.433594.742187 1.550781 1.539062.25 1.671875.449219 3.339844.652344 5.003907l.34375 3.160156.15625 1.578125c.03125.566406.023438 1.210937.027344 1.824219.019531 4.960937-1.253906 10.1875-3.890625 14.863281-2.636719 4.664062-6.5 8.832031-11.292969 11.910156-1.207031.738281-2.453125 1.472656-3.753906 2.09375l-1.992188.855469-1.015624.417968-1.039063.339844c-1.390625.445313-2.804687.886719-4.261719 1.144532-.726562.140624-1.457031.300781-2.195312.410156l-2.222656.203125c-11.890626 1.132812-24.800782-4.265625-32.902344-14.242188-4.050782-4.964843-7.011719-11.003906-8.355469-17.472656-.316406-1.617187-.605469-3.25-.714844-4.894531l-.285156-3.84375-.371094-6.15625-.015625-.410156v-.5625l.007813-1.121094.035156-2.246094c.027344-1.5.242187-2.992188.386719-4.492188.394531-2.988281 1.066406-5.949218 1.988281-8.835937 1.84375-5.765625 4.734375-11.210937 8.484375-15.964844 3.738281-4.761719 8.347656-8.835937 13.503906-11.984375 5.15625-3.148437 10.875-5.34375 16.71875-6.503906l2.199219-.382812 1.0625-.171876.765625-.082031 3.066406-.335937 6.136719-.660156 1.539063-.160157 2.003906-.164062 3.933594-.2812502c.042968-.0039063.082031-.0039063.125-.0039063 1.3125-.0234375 2.632812.0195313 3.941406.0390625 1.332031.0234375 2.660156.0390625 3.980468.210937l3.957032.429688c1.3125.175781 2.605468.476562 3.902344.722656 2.605468.433594 5.105468 1.320313 7.625 2.019532 1.246093.402343 2.457031.914062 3.679687 1.375 1.21875.464843 2.433594.941406 3.597656 1.535156l3.507813 1.707031c1.140625.621094 2.242187 1.3125 3.359375 1.972656l1.660156 1c.546875.347657 1.0625.742188 1.589844 1.113281l3.082031 2.242188c.035156.023438.070312.050781.105469.082031.980469.804688 1.929687 1.644531 2.886719 2.472657l1.398437 1.230468c.035156.03125.070313.0625.101563.09375l1.304687 1.328125 2.613281 2.730469c.035156.035156.070313.074219.101563.113281l2.375 2.933594 1.148437 1.445313c.03125.039062.058594.078124.085938.117187l1.03125 1.535156 2.070312 3.128907c.027344.046874.054688.089843.082032.136718l1.789062 3.296875.859375 1.625c.019531.039063.039063.082031.058594.125l.730469 1.6875 1.449218 3.449219c.015625.039062.03125.078125.042969.117188.417969 1.171874.773437 2.363281 1.15625 3.542968.820313 2.363282 1.273437 4.835938 1.808594 7.265625.007812.039063.015625.082031.023437.121094.359375 2.472656.757813 4.929687.835938 7.417969.269531 5-.03125 10.015625-1.007813 14.875-.960937 4.851562-2.363281 9.613281-4.480469 14.042968-2.089843 4.425782-4.597656 8.640626-7.644531 12.414063-3.058593 3.757813-6.484375 7.183594-10.277343 10.109375-.941407.730469-1.953126 1.382812-2.925782 2.066406l-1.457031.992188-1.308594.8125-5.238281 3.257812-10.476562 6.511719-.324219.199219-.234375.160156-.480469.320312c-.3125.214844-.65625.402344-.957031.640626-.574219.503906-1.246094.921874-1.769532 1.496093l-.777343.742188c-.046875.042969-.085938.085937-.128907.132812l-.699218.816407c-.53125.550781-.914063 1.207031-1.375 1.816406-.035156.042968-.066406.089844-.097656.136718-.808594 1.320313-1.582032 2.707032-2.089844 4.210938-.601563 1.507812-.941406 3.113281-1.175782 4.746094-.359374 3.261718-.097656 6.707031 1.117188 9.917968l.460938 1.207032c.144531.402344.40625.917968.605468 1.371094l1.273438 2.808593 2.550781 5.621094c3.117187 7.003906 6.277344 13.988281 9.363281 21.007813.386719.875.035156 1.898437-.804687 2.351562zm0 0" fill="url(#j)"/><path d="m236.628906 164.203125c-1.3125-6.546875-1.515625-13.429687-.757812-20.28125.144531-1.726563.5-3.417969.773437-5.136719.394531-1.683594.71875-3.410156 1.210938-5.085937.484375-1.679688.953125-3.375 1.578125-5.019531.300781-.828126.574218-1.671876.910156-2.488282l1.03125-2.449218c2.828125-6.511719 6.765625-12.609376 11.519531-18.097657 1.160157-1.402343 2.480469-2.648437 3.746094-3.96875l3.542969-3.488281 1.761718-1.707031c.859376-.730469 1.722657-1.476563 2.628907-2.171875.949219-.636719 1.882812-1.3125 2.886719-1.878906 1.023437-.523438 2.023437-1.128907 3.109374-1.546876 4.273438-1.816406 8.972657-2.785156 13.753907-2.691406 1.199219-.015625 2.382812.160156 3.589843.261719 1.195313.15625 2.378907.421875 3.578126.667969 1.164062.34375 2.351562.675781 3.5 1.117187 1.128906.488281 2.308593.910157 3.386718 1.527344 4.40625 2.328125 8.246094 5.851563 10.914063 10.085937 2.703125 4.234376 4.257812 9.253907 4.453125 14.234376.210937 4.988281-.914063 9.910156-3.054688 14.195312-2.144531 4.289062-5.347656 7.945312-9.128906 10.472656-.917969.65625-1.957031 1.152344-2.921875 1.6875-1.003906.480469-2.035156.882813-3.050781 1.257813-1.6875.472656-3.320313.828125-5.011719 1.199219-3.378906.691406-6.808594 1.292968-10.46875 1.507812l-1.148437-1.941406c1.957031-3.101563 4.144531-5.8125 6.382812-8.4375 1.113281-1.289063 2.300781-2.582032 3.410156-3.785156.332032-.542969.695313-.996094.996094-1.488282.265625-.53125.558594-.996094.789062-1.496094.917969-1.996093 1.34375-3.953124 1.433594-5.792968.082032-1.835938-.136718-3.542969-.640625-5.046875-.5-1.507813-1.148437-2.796875-1.925781-4.078125-.792969-1.289063-1.667969-2.5-2.796875-3.621094-2.167969-2.320312-6.058594-3.8125-9.789063-2.925781-.476562.0625-.902343.285156-1.375.394531-.460937.152344-.882812.390625-1.347656.566406-.433594.234375-.851562.5-1.304687.734375l-1.996094 1.425781-3.953125 2.804688c-1.148438.875-2.378906 1.671875-3.46875 2.636719l-1.703125 1.382812-1.628906 1.476563c-1.117188.964844-2.101563 2.058594-3.152344 3.105468-1.035156 1.0625-1.976563 2.210938-2.964844 3.335938-.890625 1.191406-1.894531 2.324219-2.714843 3.582031-7.078126 9.785157-11.339844 21.90625-12.332032 34.84375zm0 0" fill="url(#k)"/></svg>