<svg height="512pt" viewBox="0 -26 512 511" width="512pt" xmlns="http://www.w3.org/2000/svg" xmlns:xlink="http://www.w3.org/1999/xlink"><linearGradient id="a"><stop offset="0" stop-color="#45425a"/><stop offset="1" stop-color="#2d3251"/></linearGradient><linearGradient id="b" gradientUnits="userSpaceOnUse" x1="97.842740081" x2="128.2671986442" xlink:href="#a" y1="95.3191393634" y2="166.490482886"/><linearGradient id="c"><stop offset="0" stop-color="#3b395f" stop-opacity="0"/><stop offset=".3793" stop-color="#252746" stop-opacity=".380392"/><stop offset=".7281" stop-color="#181c36" stop-opacity=".729412"/><stop offset="1" stop-color="#131830"/></linearGradient><linearGradient id="d" gradientUnits="userSpaceOnUse" x1="134.2437470946" x2="98.4147748366" xlink:href="#c" y1="144.1676748628" y2="108.3387026048"/><linearGradient id="e"><stop offset="0" stop-color="#fffcf8"/><stop offset=".1875" stop-color="#faf8f6"/><stop offset=".4041" stop-color="#eceef2"/><stop offset=".6353" stop-color="#d5dcea"/><stop offset=".875" stop-color="#b5c4df"/><stop offset="1" stop-color="#a1b5d8"/></linearGradient><linearGradient id="f" gradientUnits="userSpaceOnUse" x1="100.2058534406" x2="125.3008916746" xlink:href="#e" y1="67.4597371052" y2="67.4597371052"/><linearGradient id="g"><stop offset="0" stop-color="#a1b5d8" stop-opacity="0"/><stop offset=".0343" stop-color="#9fb3d5" stop-opacity=".035294"/><stop offset=".4515" stop-color="#8898af" stop-opacity=".45098"/><stop offset=".788" stop-color="#798898" stop-opacity=".788235"/><stop offset="1" stop-color="#748290"/></linearGradient><linearGradient id="h" gradientUnits="userSpaceOnUse" x1="199.977748673" x2="92.2179658994" xlink:href="#g" y1="119.7266918118" y2="11.9669090382"/><linearGradient id="i" gradientUnits="userSpaceOnUse" x1="384.365592608" x2="414.7900511712" xlink:href="#a" y1="95.3191393634" y2="166.490482886"/><linearGradient id="j" gradientUnits="userSpaceOnUse" x1="420.7665996216" x2="384.9376273636" xlink:href="#c" y1="144.1676748628" y2="108.3387026048"/><linearGradient id="k" gradientUnits="userSpaceOnUse" x1="386.7315169492" x2="411.8265551832" xlink:href="#e" y1="67.4597371052" y2="67.4597371052"/><linearGradient id="l" gradientUnits="userSpaceOnUse" x1="486.5006012" x2="378.7408184264" xlink:href="#g" y1="119.7266918118" y2="11.9669090382"/><linearGradient id="m" gradientTransform="matrix(1.003922 0 0 -1.003922 0 644.663162)" gradientUnits="userSpaceOnUse" x1="235.0392" x2="588.6707" xlink:href="#a" y1="306.5956" y2="660.2271"/><linearGradient id="n" gradientTransform="matrix(1.003922 0 0 -1.003922 0 644.663162)" gradientUnits="userSpaceOnUse" x1="545.8598" x2="-318.9045" xlink:href="#a" y1="367.132" y2="367.132"/><linearGradient id="o" gradientUnits="userSpaceOnUse" x1="195.1562124836" x2="609.9169491324" y1="255.9824993788" y2="670.7432360276"><stop offset="0" stop-color="#ff6e3a"/><stop offset=".1596" stop-color="#ff6440"/><stop offset=".4266" stop-color="#ff4b52"/><stop offset=".7662" stop-color="#ff216e"/><stop offset="1" stop-color="#ff0084"/></linearGradient><linearGradient id="p"><stop offset="0" stop-color="#e58200" stop-opacity="0"/><stop offset=".4384" stop-color="#c4602c" stop-opacity=".439216"/><stop offset=".7953" stop-color="#ae4948" stop-opacity=".796078"/><stop offset="1" stop-color="#a64153"/></linearGradient><linearGradient id="q" gradientUnits="userSpaceOnUse" x1="203.4997078334" x2="34.1140726976" xlink:href="#p" y1="396.5540672316" y2="227.1683317036"/><linearGradient id="r" gradientUnits="userSpaceOnUse" x1="275.5739788028" x2="150.8575518804" xlink:href="#p" y1="378.022369857" y2="253.3059429346"/><linearGradient id="s" gradientUnits="userSpaceOnUse" x1="384.0151234378" x2="228.3126439854" xlink:href="#p" y1="388.0439208298" y2="232.3414413774"/><linearGradient id="t" gradientUnits="userSpaceOnUse" x1="457.7655425784" x2="332.9190073648" xlink:href="#p" y1="371.1824484866" y2="246.335913273"/><linearGradient id="u"><stop offset="0" stop-color="#8be1e2"/><stop offset=".1873" stop-color="#87e1e1"/><stop offset=".3558" stop-color="#7ce2dd"/><stop offset=".5172" stop-color="#6ae2d7"/><stop offset=".6741" stop-color="#50e4ce"/><stop offset=".8278" stop-color="#2fe5c2"/><stop offset=".9772" stop-color="#07e7b4"/><stop offset="1" stop-color="#00e7b2"/></linearGradient><linearGradient id="v" gradientUnits="userSpaceOnUse" x1="106.0700816554" x2="122.6338911256" xlink:href="#u" y1="200.4469398296" y2="391.6845435706"/><linearGradient id="w" gradientUnits="userSpaceOnUse" x1="201.7141321642" x2="218.2779416344" xlink:href="#u" y1="192.16277627" y2="383.400380011"/><linearGradient id="x" gradientUnits="userSpaceOnUse" x1="293.0650106322" x2="309.6289204946" xlink:href="#u" y1="184.2504654192" y2="375.4880691602"/><linearGradient id="y" gradientUnits="userSpaceOnUse" x1="382.996744961" x2="399.5606548234" xlink:href="#u" y1="176.4611350134" y2="367.6987387544"/><linearGradient id="z" gradientUnits="userSpaceOnUse" x1="256.00011" x2="256.00011" y1="4.4923081794" y2="47.5501211906"><stop offset="0" stop-color="#ffd459"/><stop offset=".2296" stop-color="#ffd355"/><stop offset=".4362" stop-color="#ffcf4a"/><stop offset=".634" stop-color="#ffc838"/><stop offset=".825" stop-color="#ffbf1f"/><stop offset="1" stop-color="#ffb400"/></linearGradient><path d="m112.738281 92.949219c-20.554687 0-37.214843 16.660156-37.214843 37.214843 0 20.554688 16.660156 37.214844 37.214843 37.214844 20.554688 0 37.214844-16.660156 37.214844-37.214844 0-20.554687-16.660156-37.214843-37.214844-37.214843zm0 56.0625c-10.410156 0-18.847656-8.4375-18.847656-18.847657 0-10.410156 8.4375-18.847656 18.847656-18.847656 10.410157 0 18.847657 8.4375 18.847657 18.847656 0 10.410157-8.4375 18.847657-18.847657 18.847657zm0 0" fill="url(#b)"/><path d="m112.738281 92.949219c-.140625 0-.28125.007812-.421875.011719v18.378906c.140625-.003906.28125-.023438.421875-.023438 10.410157 0 18.847657 8.4375 18.847657 18.847656 0 10.410157-8.4375 18.847657-18.847657 18.847657-.140625 0-.28125-.019531-.421875-.019531v18.378906c.140625 0 .28125.011718.421875.011718 20.554688 0 37.214844-16.664062 37.214844-37.21875 0-20.554687-16.660156-37.214843-37.214844-37.214843zm0 0" fill="url(#d)"/><path d="m112.738281 121.730469c-6.929687 0-12.546875-5.617188-12.546875-12.546875v-83.425782c0-6.929687 5.617188-12.546874 12.546875-12.546874 6.929688 0 12.546875 5.617187 12.546875 12.546874v83.425782c0 6.929687-5.617187 12.546875-12.546875 12.546875zm0 0" fill="url(#f)"/><path d="m112.738281 13.210938c-6.929687 0-12.546875 5.617187-12.546875 12.546874v18.65625l25.09375 25.09375v-43.75c0-6.929687-5.617187-12.546874-12.546875-12.546874zm0 0" fill="url(#h)"/><path d="m399.261719 92.949219c-20.554688 0-37.214844 16.660156-37.214844 37.214843 0 20.554688 16.660156 37.214844 37.214844 37.214844 20.554687 0 37.214843-16.660156 37.214843-37.214844 0-20.554687-16.660156-37.214843-37.214843-37.214843zm0 56.0625c-10.410157 0-18.847657-8.4375-18.847657-18.847657 0-10.410156 8.4375-18.847656 18.847657-18.847656 10.410156 0 18.847656 8.4375 18.847656 18.847656 0 10.410157-8.4375 18.847657-18.847656 18.847657zm0 0" fill="url(#i)"/><path d="m399.261719 92.949219c-.140625 0-.28125.007812-.421875.011719v18.378906c.140625-.003906.277344-.023438.421875-.023438 10.410156 0 18.847656 8.4375 18.847656 18.847656 0 10.410157-8.4375 18.847657-18.847656 18.847657-.144531 0-.28125-.019531-.421875-.019531v18.378906c.140625 0 .28125.011718.421875.011718 20.554687 0 37.214843-16.664062 37.214843-37.21875 0-20.554687-16.660156-37.214843-37.214843-37.214843zm0 0" fill="url(#j)"/><path d="m399.261719 121.730469c-6.929688 0-12.546875-5.617188-12.546875-12.546875v-83.425782c0-6.929687 5.617187-12.546874 12.546875-12.546874 6.929687 0 12.546875 5.617187 12.546875 12.546874v83.425782c0 6.929687-5.617188 12.546875-12.546875 12.546875zm0 0" fill="url(#k)"/><path d="m399.261719 13.210938c-6.929688 0-12.546875 5.617187-12.546875 12.546874v18.65625l25.09375 25.09375v-43.75c0-6.929687-5.617188-12.546874-12.546875-12.546874zm0 0" fill="url(#l)"/><path d="m485.269531 459.046875h-458.539062c-14.761719 0-26.730469-11.964844-26.730469-26.730469v-230.980468c0-14.765626 11.96875-26.730469 26.730469-26.730469h33.726562c8.867188 0 17.121094-4.425781 22.125-11.75 11.765625-17.214844 31.542969-28.515625 53.96875-28.515625 3.101563 0 6.152344.21875 9.140625.636718 8.105469 1.140626 16.371094-1.152343 22.3125-6.78125 22.9375-21.730468 53.90625-35.0625 87.996094-35.0625s65.058594 13.332032 87.996094 35.0625c5.941406 5.628907 14.207031 7.921876 22.3125 6.78125 2.988281-.417968 6.039062-.636718 9.140625-.636718 22.425781 0 42.207031 11.300781 53.96875 28.515625 5.003906 7.324219 13.257812 11.75 22.125 11.75h33.726562c14.761719 0 26.730469 11.964843 26.730469 26.730469v230.980468c0 14.765625-11.96875 26.730469-26.730469 26.730469zm0 0" fill="url(#m)"/><path d="m256 122.855469c-24.003906 0-46.816406 9.253906-64.238281 26.0625-12.332031 11.894531-28.671875 18.449219-46.015625 18.449219-3.222656 0-6.476563-.234376-9.675782-.691407-1.316406-.1875-2.660156-.285156-4.003906-.285156-9.398437 0-18.191406 4.738281-23.511718 12.667969-12.554688 18.703125-33.28125 29.871094-55.441407 29.871094h-11.109375c-6.777344 0-12.273437 5.597656-12.273437 12.496093v195.410157c0 6.898437 5.492187 12.496093 12.273437 12.496093h427.992188c6.777344 0 12.273437-5.597656 12.273437-12.496093v-195.410157c0-6.902343-5.492187-12.496093-12.273437-12.496093h-11.109375c-22.160157 0-42.886719-11.167969-55.441407-29.871094-5.320312-7.933594-14.113281-12.667969-23.511718-12.667969-1.34375 0-2.6875.097656-3.988282.28125-3.214843.460937-6.46875.695313-9.691406.695313-17.34375 0-33.683594-6.554688-46.015625-18.453126-17.421875-16.804687-40.234375-26.058593-64.238281-26.058593zm0 0" fill="url(#n)"/><path d="m256 131.054688c-23.132812 0-45.121094 8.761718-61.914062 24.667968-11.886719 11.261719-27.632813 17.464844-44.347657 17.464844-3.105469 0-6.242187-.222656-9.328125-.65625-1.269531-.175781-2.5625-.265625-3.859375-.265625-9.058593 0-17.53125 4.480469-22.660156 11.988281-12.097656 17.703125-32.074219 28.273438-53.433594 28.273438h-10.707031c-6.53125 0-11.828125 5.292968-11.828125 11.824218v184.949219c0 6.53125 5.296875 11.828125 11.828125 11.828125h412.5c6.53125 0 11.828125-5.296875 11.828125-11.828125v-184.949219c0-6.53125-5.296875-11.824218-11.828125-11.824218h-10.707031c-21.359375 0-41.335938-10.570313-53.433594-28.273438-5.128906-7.507812-13.601563-11.988281-22.660156-11.988281-1.296875 0-2.589844.089844-3.84375.265625-3.101563.433594-6.238281.65625-9.339844.65625-16.714844 0-32.464844-6.203125-44.351563-17.464844-16.792968-15.90625-38.78125-24.667968-61.914062-24.667968zm0 0" fill="url(#o)"/><path d="m308.976562 421.132812h-161.652343l-58.496094-58.511718c-.371094-.300782-.742187-.601563-1.09375-.914063-6.886719-6.101562-10.332031-15.640625-10.332031-28.621093v-49.292969c0-12.980469 3.445312-22.527344 10.332031-28.621094s16.089844-9.144531 27.605469-9.144531 20.75 3.050781 27.6875 9.144531c1.15625 1.003906 2.199218 2.121094 3.152344 3.3125l28.273437 28.242187zm0 0" fill="url(#q)"/><path d="m407.382812 421.132812h-177.3125l-52.910156-52.910156c-1.804687-1.0625-2.707031-2.507812-2.707031-4.316406v-112.117188c0-1.585937.640625-2.941406 1.945313-4.066406 1.296874-1.132812 2.960937-1.695312 4.988281-1.695312h33.03125c11.292969 0 20.300781 2.992187 27.015625 8.976562 1.074218.953125 2.046875 1.996094 2.941406 3.128906l22.378906 22.378907zm0 0" fill="url(#r)"/><path d="m474.082031 383.0625v26.242188c0 6.527343-5.300781 11.828124-11.828125 11.828124h-139.644531l-53.476563-52.910156c-1.585937-1.0625-2.378906-2.507812-2.378906-4.316406v-111.957031c0-1.796875.792969-3.242188 2.378906-4.316407 1.574219-1.074218 3.433594-1.605468 5.582032-1.605468h60.292968c1.917969 0 3.394532.792968 4.40625 2.367187zm0 0" fill="url(#s)"/><path d="m474.082031 291.65625v117.648438c0 6.527343-5.300781 11.828124-11.828125 11.828124h-50.785156l-53.421875-52.910156c-1.804687-1.0625-2.707031-2.507812-2.707031-4.316406v-111.957031c0-3.945313 2.988281-5.921875 8.972656-5.921875 3.164062 0 5.703125.703125 7.621094 2.117187 1.074218.792969 2.167968 2 3.28125 3.585938l40.25 39.875v-39.816407c0-1.925781.871094-3.363281 2.617187-4.328124 1.757813-.953126 3.875-1.433594 6.355469-1.433594s4.597656.480468 6.355469 1.433594c1.464843.816406 2.320312 1.96875 2.550781 3.457031zm0 0" fill="url(#t)"/><path d="m77.402344 333.082031v-49.285156c0-12.984375 3.441406-22.527344 10.332031-28.625 6.886719-6.097656 16.089844-9.144531 27.605469-9.144531 11.519531 0 20.75 3.046875 27.691406 9.144531 6.945312 6.097656 10.417969 15.640625 10.417969 28.625v49.285156c0 12.988281-3.472657 22.527344-10.417969 28.625-6.941406 6.097657-16.171875 9.144531-27.691406 9.144531-11.515625 0-20.71875-3.046874-27.605469-9.144531-6.890625-6.097656-10.332031-15.636719-10.332031-28.625zm17.953125 0c0 14.566407 6.660156 21.847657 19.984375 21.847657 6.4375 0 11.402344-1.804688 14.90625-5.417969 3.496094-3.613281 5.25-9.085938 5.25-16.425781v-49.289063c0-7.339844-1.753906-12.8125-5.25-16.429687-3.503906-3.613282-8.46875-5.417969-14.90625-5.417969-13.324219 0-19.984375 7.28125-19.984375 21.847656zm0 0" fill="url(#v)"/><path d="m174.449219 363.910156v-112.125c0-1.578125.648437-2.933594 1.949219-4.0625 1.296874-1.128906 2.964843-1.695312 4.996093-1.695312h33.027344c11.289063 0 20.292969 2.992187 27.011719 8.976562s10.078125 15.410156 10.078125 28.285156v1.355469c0 12.871094-3.472657 22.328125-10.414063 28.367188-6.945312 6.042969-16.175781 9.0625-27.691406 9.0625h-21.003906v41.832031c0 1.808594-.875 3.25-2.625 4.320312-1.75 1.074219-3.867188 1.609376-6.351563 1.609376-2.371093 0-4.460937-.535157-6.265625-1.609376-1.808594-1.070312-2.710937-2.511718-2.710937-4.316406zm17.953125-56.0625h21c6.4375 0 11.40625-1.835937 14.90625-5.503906s5.25-9.171875 5.25-16.515625v-2.03125c0-7.339844-1.75-12.8125-5.25-16.425781-3.5-3.613282-8.46875-5.421875-14.90625-5.421875h-21zm0 0" fill="url(#w)"/><path d="m266.753906 363.910156v-111.953125c0-1.808593.789063-3.246093 2.371094-4.320312s3.445312-1.609375 5.589844-1.609375h60.296875c1.917969 0 3.386719.789062 4.402343 2.371094 1.015626 1.582031 1.523438 3.386718 1.523438 5.417968 0 2.261719-.535156 4.179688-1.609375 5.757813-1.074219 1.582031-2.511719 2.371093-4.316406 2.371093h-50.304688v38.785157h26.085938c1.804687 0 3.242187.707031 4.316406 2.117187 1.074219 1.414063 1.609375 3.132813 1.609375 5.167969 0 1.804687-.507812 3.414063-1.523438 4.824219-1.015624 1.414062-2.484374 2.117187-4.402343 2.117187h-26.085938v38.957031h50.304688c1.804687 0 3.242187.789063 4.316406 2.371094 1.074219 1.582032 1.609375 3.5 1.609375 5.757813 0 2.03125-.507812 3.839843-1.523438 5.417969-1.015624 1.582031-2.484374 2.371093-4.402343 2.371093h-60.296875c-2.144532 0-4.007813-.535156-5.589844-1.609375-1.582031-1.066406-2.371094-2.507812-2.371094-4.3125zm0 0" fill="url(#x)"/><path d="m355.335938 363.910156v-111.953125c0-3.953125 2.988281-5.929687 8.976562-5.929687 3.15625 0 5.699219.707031 7.621094 2.117187 1.917968 1.414063 3.894531 4.09375 5.925781 8.046875l37.601563 73.335938v-77.742188c0-1.917968.875-3.359375 2.625-4.320312 1.75-.957032 3.867187-1.4375 6.351562-1.4375s4.601562.480468 6.351562 1.4375c1.75.960937 2.628907 2.402344 2.628907 4.320312v112.125c0 1.804688-.878907 3.246094-2.628907 4.316406-1.75 1.074219-3.867187 1.609376-6.351562 1.609376-4.742188 0-8.296875-2.199219-10.667969-6.605469l-40.480469-77.0625v77.742187c0 1.808594-.875 3.246094-2.625 4.320313s-3.867187 1.609375-6.351562 1.609375c-2.371094 0-4.460938-.535156-6.265625-1.609375-1.808594-1.074219-2.710937-2.515625-2.710937-4.320313zm0 0" fill="url(#y)"/><path d="m485.9375 44.214844h-459.875c-12.070312 0-21.855469-9.785156-21.855469-21.859375 0-12.070313 9.785157-21.855469 21.855469-21.855469h459.871094c12.074218 0 21.859375 9.785156 21.859375 21.855469 0 12.074219-9.785157 21.859375-21.855469 21.859375zm0 0" fill="url(#z)"/></svg>