<svg height="512pt" viewBox="0 -5 512.00006 512" width="512pt" xmlns="http://www.w3.org/2000/svg" xmlns:xlink="http://www.w3.org/1999/xlink"><linearGradient id="a" gradientUnits="userSpaceOnUse" x1="256.000339" x2="256.000339" y1="220.640001668" y2="416.8015416424"><stop offset="0" stop-color="#8be1e2"/><stop offset=".1873" stop-color="#87e1e1"/><stop offset=".3558" stop-color="#7ce2dd"/><stop offset=".5172" stop-color="#6ae2d7"/><stop offset=".6741" stop-color="#50e4ce"/><stop offset=".8278" stop-color="#2fe5c2"/><stop offset=".9772" stop-color="#07e7b4"/><stop offset="1" stop-color="#00e7b2"/></linearGradient><linearGradient id="b"><stop offset=".0029" stop-color="#00e7b2" stop-opacity="0"/><stop offset=".4308" stop-color="#1bc4b7" stop-opacity=".427451"/><stop offset="1" stop-color="#3b9abe"/></linearGradient><linearGradient id="c" gradientUnits="userSpaceOnUse" x1="354.347047925" x2="216.881514348" xlink:href="#b" y1="347.731005297" y2="210.26547172"/><linearGradient id="d" gradientUnits="userSpaceOnUse" x1="256.000339" x2="256.000339" xlink:href="#b" y1="308.346643276" y2="363.4573430348"/><linearGradient id="e" gradientUnits="userSpaceOnUse" x1="78.7344181252" x2="433.2661594826" y1="251.165254" y2="251.165254"><stop offset="0" stop-color="#3b395f"/><stop offset=".8022" stop-color="#1b1f3a"/><stop offset="1" stop-color="#131830"/></linearGradient><linearGradient id="f" gradientUnits="userSpaceOnUse" x1="122.2149826906" x2="141.6955871396" xlink:href="#b" y1="146.6788592996" y2="227.088192674"/><linearGradient id="g" gradientUnits="userSpaceOnUse" x1="362.1991234558" x2="381.6797279048" xlink:href="#b" y1="241.7837033022" y2="322.1930366766"/><linearGradient id="h" gradientUnits="userSpaceOnUse" x1="241.3580362378" x2="296.7407988586" y1="237.158534256" y2="283.3602294024"><stop offset="0" stop-color="#45425a"/><stop offset="1" stop-color="#2d3251"/></linearGradient><linearGradient id="i"><stop offset="0" stop-color="#ff6e3a"/><stop offset=".1596" stop-color="#ff6440"/><stop offset=".4266" stop-color="#ff4b52"/><stop offset=".7662" stop-color="#ff216e"/><stop offset="1" stop-color="#ff0084"/></linearGradient><linearGradient id="j" gradientUnits="userSpaceOnUse" x1="199.793256025" x2="374.561017395" xlink:href="#i" y1="91.627993292" y2="266.395754662"/><linearGradient id="k" gradientUnits="userSpaceOnUse" x1="248.1367183662" x2="248.1367183662" xlink:href="#i" y1="355.036545691" y2="569.6234677002"/><path d="m432.8125 359.613281h-353.625c-11.816406 0-21.394531-9.578125-21.394531-21.394531v-174.105469c0-11.816406 9.578125-21.394531 21.394531-21.394531h353.625c11.820312 0 21.398438 9.578125 21.398438 21.394531v174.105469c0 11.816406-9.582032 21.394531-21.398438 21.394531zm0 0" fill="url(#a)"/><path d="m454.207031 164.109375v174.109375c0 10.308594-7.273437 18.894531-16.96875 20.933594-1.433593.304687-2.914062.460937-4.425781.460937h-353.625c-11.820312 0-21.394531-9.574219-21.394531-21.394531v-174.109375c0-11.820313 9.574219-21.390625 21.394531-21.390625h353.625c11.820312 0 21.394531 9.574219 21.394531 21.390625zm0 0" fill="url(#a)"/><path d="m438.039062 355.394531c-.1875 1.324219-.449218 2.574219-.800781 3.757813-1.433593.308594-2.914062.460937-4.425781.460937h-142.808594l-62.757812-62.757812c-3.660156-3.066407-5.5-6.1875-5.5-9.367188 0-1.925781.699218-3.867187 2.125-5.792969 1.414062-1.9375 3.035156-2.902343 4.863281-2.902343 1.203125 0 2.804687.886719 4.765625 2.671875 1.972656 1.785156 4.675781 3.691406 8.117188 5.71875 3.4375 2.039062 7.414062 3.207031 11.941406 3.515625v-25.589844l-19.566406-19.597656c-.074219-.074219-.164063-.140625-.238282-.21875-1.480468-1.367188-3.035156-3.023438-4.667968-4.960938-1.632813-1.929687-2.804688-4.195312-3.515626-6.792969-.710937-2.597656-1.074218-5.464843-1.074218-8.621093 0-8.851563 2.78125-15.578125 8.335937-20.167969 5.554688-4.589844 12.464844-7.335938 20.726563-8.257812v-4.4375c0-.917969.425781-1.730469 1.292968-2.441407.867188-.710937 1.917969-1.074219 3.144532-1.074219 1.117187 0 2.160156.363282 3.132812 1.074219.832032.613281 1.292969 1.324219 1.402344 2.09375l5.488281 4.894531c4.164063.503907 8.085938 1.402344 11.765625 2.71875 3.582032 1.292969 5.949219 2.921876 7.085938 4.90625zm0 0" fill="url(#c)"/><path d="m57.789062 288.207031v50.007813c0 11.816406 9.582032 21.398437 21.398438 21.398437h353.625c11.816406 0 21.394531-9.582031 21.394531-21.398437v-50.007813zm0 0" fill="url(#d)"/><path d="m423.539062 334.167969h-335.078124c-5.363282 0-9.726563-4.363281-9.726563-9.726563v-146.554687c0-5.363281 4.363281-9.726563 9.726563-9.726563h335.078124c5.363282 0 9.726563 4.363282 9.726563 9.726563v146.554687c0 5.363282-4.363281 9.726563-9.726563 9.726563zm-331.898437-12.90625h328.71875v-140.195313h-328.71875zm0 0" fill="url(#e)"/><path d="m161.320312 214.125h-50.625c-3.144531 0-5.695312-2.550781-5.695312-5.699219v-9.628906c0-3.144531 2.550781-5.695313 5.695312-5.695313h50.625c3.148438 0 5.699219 2.550782 5.699219 5.695313v9.628906c0 3.148438-2.550781 5.699219-5.699219 5.699219zm0 0" fill="url(#f)"/><path d="m401.304688 309.230469h-50.625c-3.148438 0-5.699219-2.550781-5.699219-5.699219v-9.628906c0-3.144532 2.550781-5.695313 5.699219-5.695313h50.625c3.144531 0 5.699218 2.550781 5.699218 5.695313v9.628906c0 3.148438-2.554687 5.699219-5.699218 5.699219zm0 0" fill="url(#g)"/><path d="m287.976562 260.554688c-1.519531-3.710938-3.777343-6.789063-6.769531-9.230469-2.992187-2.441407-5.832031-4.351563-8.519531-5.726563-2.683594-1.371094-6.054688-2.824218-10.109375-4.347656v-30.992188c4.074219.304688 7.941406 1.324219 11.597656 3.058594 3.648438 1.734375 5.882813 2.597656 6.695313 2.597656 2.054687 0 3.703125-.992187 4.933594-2.980468 1.234374-1.988282 1.851562-3.898438 1.851562-5.734375 0-3.363281-2.625-5.988281-7.875-7.875s-10.988281-2.929688-17.207031-3.136719v-4.128906c0-.917969-.484375-1.734375-1.449219-2.445313-.972656-.714843-2.015625-1.070312-3.136719-1.070312-1.222656 0-2.269531.355469-3.132812 1.070312-.867188.714844-1.300781 1.527344-1.300781 2.445313v4.433594c-8.257813.917968-15.167969 3.671874-20.722657 8.257812-5.558593 4.589844-8.335937 11.3125-8.335937 20.167969 0 3.15625.359375 6.03125 1.070312 8.625.714844 2.59375 1.886719 4.859375 3.519532 6.789062 1.628906 1.933594 3.183593 3.589844 4.664062 4.960938 1.476562 1.375 3.566406 2.699219 6.269531 3.96875 2.699219 1.273437 4.867188 2.238281 6.5 2.898437 1.628907.664063 3.976563 1.554688 7.035157 2.671875v35.863281c-4.519532-.304687-8.5-1.472656-11.941407-3.507812-3.4375-2.035156-6.140625-3.941406-8.109375-5.722656s-3.558594-2.671875-4.765625-2.671875c-1.828125 0-3.449219.96875-4.867187 2.898437-1.417969 1.933594-2.125 3.867188-2.125 5.800782 0 4.113281 3.082031 8.144531 9.25 12.101562 6.167968 3.957031 13.6875 5.988281 22.558594 6.089844v4.652344c0 .902343.433593 1.703124 1.300781 2.40625.863281.695312 1.910156 1.046874 3.132812 1.046874 1.121094 0 2.164063-.351562 3.136719-1.050781.964844-.703125 1.449219-1.503906 1.449219-2.402343v-5.109376c8.519531-1.226562 15.257812-4.527343 20.230469-9.898437 4.96875-5.371094 7.453124-12.613281 7.453124-21.722656 0-4.984375-.761718-9.335938-2.28125-13.050781zm-33.507812-22.203126c-4.945312-1.832031-8.652344-3.792968-11.125-5.878906-2.472656-2.082031-3.707031-5.109375-3.707031-9.078125 0-7.339843 4.945312-11.625 14.835937-12.847656v27.804687zm7.191406 52.039063v-32.199219c4.28125 1.832032 7.59375 4.019532 9.9375 6.5625 2.34375 2.542969 3.519532 6.050782 3.519532 10.527344 0 8.445312-4.488282 13.484375-13.457032 15.109375zm0 0" fill="url(#h)"/><path d="m497.246094 111.210938c-10.355469-3.789063-21.6875.535156-27.078125 9.722656-16.984375-28.035156-39.410157-52.566406-66.421875-72.386719-43.28125-31.757813-94.613282-48.546875-148.441406-48.546875-53.828126 0-105.160157 16.789062-148.441407 48.546875-42.390625 31.101563-73.507812 73.796875-89.988281 123.46875-3.90625 11.773437 2.472656 24.488281 14.25 28.398437 11.78125 3.90625 24.492188-2.472656 28.398438-14.25 13.527343-40.773437 39.089843-75.832031 73.921874-101.390624 35.519532-26.0625 77.65625-39.839844 121.859376-39.839844 44.199218 0 86.339843 13.777344 121.859374 39.839844 20.742188 15.222656 38.199219 33.8125 51.78125 54.972656-10.335937-1.550782-20.683593 4.308594-24.417968 14.503906-4.261719 11.652344 1.726562 24.558594 13.378906 28.820312l46.78125 17.117188c.113281.042969.226562.070312.339844.109375.390625.136719.785156.257813 1.1875.375.214844.0625.425781.125.640625.179687.402343.101563.8125.191407 1.21875.269532.210937.042968.417969.089844.628906.125.433594.074218.871094.125 1.3125.171875.179687.019531.359375.050781.539063.066406.613281.050781 1.226562.078125 1.847656.078125h.003906c.582031 0 1.160156-.023438 1.738281-.070312.136719-.007813.273438-.03125.414063-.046876.441406-.042968.886718-.085937 1.324218-.15625.171876-.027343.339844-.066406.511719-.097656.40625-.074218.816407-.152344 1.21875-.25.1875-.042968.375-.101562.566407-.152344.378906-.101562.757812-.203124 1.132812-.324218.058594-.019532.113281-.03125.167969-.050782.113281-.035156.214843-.085937.328125-.125.496094-.175781.984375-.363281 1.464844-.570312.207031-.089844.414062-.175781.617187-.269531.46875-.21875.929687-.457031 1.382813-.707031.144531-.082032.296874-.152344.4375-.234376.546874-.316406 1.074218-.660156 1.59375-1.023437.203124-.144531.398437-.296875.59375-.441406.347656-.261719.683593-.53125 1.019531-.808594.179687-.15625.359375-.308594.539062-.46875.375-.339844.742188-.695313 1.097657-1.066406.097656-.101563.203124-.199219.300781-.300781.460937-.496094.90625-1.019532 1.324219-1.558594.03125-.039063.054687-.078125.085937-.117188.371094-.492187.726563-1 1.0625-1.527344.085937-.140624.171875-.28125.257813-.425781.257812-.425781.503906-.859375.738281-1.308593.09375-.183594.191406-.367188.28125-.554688.203125-.417969.386719-.84375.566406-1.28125.085937-.203125.171875-.402344.25-.605469.027344-.070312.058594-.136719.085937-.207031l17.117188-46.78125c4.265625-11.65625-1.726562-24.558594-13.378906-28.820312zm0 0" fill="url(#j)"/><path d="m14.753906 391.121094c10.355469 3.789062 21.691406-.535156 27.078125-9.726563 16.984375 28.039063 39.410157 52.570313 66.421875 72.390625 43.28125 31.757813 94.613282 48.546875 148.441406 48.546875 53.828126 0 105.160157-16.789062 148.441407-48.546875 42.390625-31.105468 73.507812-73.800781 89.988281-123.46875 3.90625-11.777344-2.472656-24.492187-14.25-28.398437-11.78125-3.910157-24.492188 2.472656-28.398438 14.25-13.527343 40.769531-39.089843 75.832031-73.921874 101.386719-35.519532 26.0625-77.65625 39.839843-121.859376 39.839843-44.199218 0-86.335937-13.773437-121.855468-39.839843-20.746094-15.21875-38.199219-33.8125-51.78125-54.96875 10.335937 1.550781 20.683594-4.308594 24.414062-14.507813 4.265625-11.652344-1.726562-24.554687-13.378906-28.816406l-46.78125-17.117188c-.109375-.042969-.222656-.070312-.335938-.109375-.394531-.136718-.789062-.261718-1.191406-.375-.210937-.0625-.425781-.125-.636718-.179687-.40625-.105469-.8125-.191407-1.222657-.273438-.207031-.039062-.417969-.085937-.625-.121093-.4375-.074219-.875-.125-1.316406-.175782-.179687-.019531-.359375-.046875-.535156-.0625-.613281-.050781-1.230469-.078125-1.851563-.078125h-.003906c-.582031 0-1.164062.023438-1.738281.066407-.136719.011718-.277344.035156-.414063.046874-.441406.042969-.886718.09375-1.324218.160157-.171876.027343-.339844.066406-.511719.097656-.40625.074219-.816407.152344-1.21875.246094-.1875.046875-.375.105469-.566407.15625-.378906.101562-.761718.203125-1.132812.324219-.058594.019531-.113281.03125-.171875.050781-.109375.035156-.214844.085937-.324219.125-.496094.171875-.984375.363281-1.464844.570312-.207031.085938-.414062.175781-.617187.269531-.46875.21875-.929687.457032-1.386719.707032-.140625.078125-.292968.148437-.433594.230468-.546874.320313-1.078124.664063-1.59375 1.027344-.203124.144532-.398437.292969-.59375.441406-.347656.261719-.6875.527344-1.019531.808594-.179687.152344-.359375.308594-.539062.46875-.378907.339844-.742188.695313-1.097657 1.0625-.097656.105469-.203124.199219-.300781.304688-.460937.496094-.90625 1.015625-1.324219 1.558594-.03125.039062-.054687.078124-.085937.117187-.371094.488281-.726563 1-1.0625 1.523437-.089844.140626-.171875.285157-.257813.429688-.261718.425781-.503906.859375-.738281 1.308594-.09375.183594-.191406.367187-.28125.550781-.203125.421875-.390625.847656-.570312 1.285156-.082031.199219-.171875.398438-.246094.605469-.027344.070312-.0625.136719-.085937.207031l-17.117188 46.78125c-4.265625 11.652344 1.726562 24.554688 13.378906 28.820313zm0 0" fill="url(#k)"/></svg>