<svg height="512pt" viewBox="-52 0 512 512.00002" width="512pt" xmlns="http://www.w3.org/2000/svg" xmlns:xlink="http://www.w3.org/1999/xlink"><linearGradient id="a"><stop offset="0" stop-color="#ffd459"/><stop offset=".2296" stop-color="#ffd355"/><stop offset=".4362" stop-color="#ffcf4a"/><stop offset=".634" stop-color="#ffc838"/><stop offset=".825" stop-color="#ffbf1f"/><stop offset="1" stop-color="#ffb400"/></linearGradient><linearGradient id="b" gradientUnits="userSpaceOnUse" x1="203.931225635" x2="203.931225635" xlink:href="#a" y1="380.503002713" y2="569.2929442258"/><linearGradient id="c"><stop offset="0" stop-color="#e58200" stop-opacity="0"/><stop offset=".0396" stop-color="#e27f04" stop-opacity=".039216"/><stop offset=".4671" stop-color="#c15d2f" stop-opacity=".466667"/><stop offset=".8016" stop-color="#ad4949" stop-opacity=".8"/><stop offset="1" stop-color="#a64153"/></linearGradient><linearGradient id="d" gradientUnits="userSpaceOnUse" x1="222.7664086302" x2="187.824301067" xlink:href="#c" y1="385.8630426632" y2="171.7011812288"/><linearGradient id="e" gradientUnits="userSpaceOnUse" x1="211.7927380326" x2="-42.1132910676" xlink:href="#c" y1="459.9371262566" y2="303.40530684"/><linearGradient id="f" gradientUnits="userSpaceOnUse" x1="373.214561119" x2="231.1504624288" xlink:href="#c" y1="426.482128352" y2="338.9003746408"/><linearGradient id="g"><stop offset="0" stop-color="#45425a"/><stop offset="1" stop-color="#2d3251"/></linearGradient><linearGradient id="h" gradientUnits="userSpaceOnUse" x1="53.5739280872" x2="194.6712498914" xlink:href="#g" y1="326.5182014772" y2="494.7751271084"/><linearGradient id="i"><stop offset="0" stop-color="#8be1e2"/><stop offset=".1873" stop-color="#87e1e1"/><stop offset=".3558" stop-color="#7ce2dd"/><stop offset=".5172" stop-color="#6ae2d7"/><stop offset=".6741" stop-color="#50e4ce"/><stop offset=".8278" stop-color="#2fe5c2"/><stop offset=".9772" stop-color="#07e7b4"/><stop offset="1" stop-color="#00e7b2"/></linearGradient><linearGradient id="j" gradientUnits="userSpaceOnUse" x1="36.1133150944" x2="145.251984735" xlink:href="#i" y1="317.237344156" y2="426.3760137966"/><linearGradient id="k" gradientUnits="userSpaceOnUse" x1="269.2631564524" x2="410.3605786488" xlink:href="#g" y1="326.5182014772" y2="494.7751271084"/><linearGradient id="l" gradientUnits="userSpaceOnUse" x1="251.8025434596" x2="360.9412131002" xlink:href="#i" y1="317.237344156" y2="426.3760137966"/><linearGradient id="m"><stop offset="0" stop-color="#ff6e3a"/><stop offset=".1596" stop-color="#ff6440"/><stop offset=".4266" stop-color="#ff4b52"/><stop offset=".7662" stop-color="#ff216e"/><stop offset="1" stop-color="#ff0084"/></linearGradient><linearGradient id="n" gradientUnits="userSpaceOnUse" x1="167.833704242" x2="240.0301525188" xlink:href="#m" y1="409.8139109938" y2="409.8139109938"/><linearGradient id="o" gradientUnits="userSpaceOnUse" x1="158.8948831462" x2="248.9692747912" xlink:href="#g" y1="405.3443498576" y2="405.3443498576"/><linearGradient id="p" gradientUnits="userSpaceOnUse" x1="182.9717436878" x2="199.2742322614" xlink:href="#a" y1="378.6646207466" y2="378.6646207466"/><linearGradient id="q" gradientUnits="userSpaceOnUse" x1="203.931225635" x2="203.931225635" xlink:href="#g" y1="471.3665774422" y2="532.067616858"/><linearGradient id="r" gradientUnits="userSpaceOnUse" x1="24.541407377" x2="80.6065357812" xlink:href="#m" y1="235.2211332284" y2="291.2862616326"/><linearGradient id="s"><stop offset="0" stop-color="#fffcf8"/><stop offset=".1875" stop-color="#faf8f6"/><stop offset=".4041" stop-color="#eceef2"/><stop offset=".6353" stop-color="#d5dcea"/><stop offset=".875" stop-color="#b5c4df"/><stop offset="1" stop-color="#a1b5d8"/></linearGradient><linearGradient id="t" gradientUnits="userSpaceOnUse" x1="106.10655615" x2="162.1716845542" xlink:href="#s" y1="235.2211332284" y2="291.2862616326"/><linearGradient id="u" gradientUnits="userSpaceOnUse" x1="187.671704923" x2="243.7369337194" xlink:href="#m" y1="235.2211332284" y2="291.2862616326"/><linearGradient id="v" gradientUnits="userSpaceOnUse" x1="269.2369540882" x2="325.3020824924" xlink:href="#s" y1="235.2211332284" y2="291.2862616326"/><linearGradient id="w" gradientUnits="userSpaceOnUse" x1="350.8021028612" x2="406.8672312654" xlink:href="#m" y1="235.2211332284" y2="291.2862616326"/><linearGradient id="x" gradientUnits="userSpaceOnUse" x1="146.9269281998" x2="343.638517038" xlink:href="#m" y1="163.8092499946" y2="360.5208388328"/><linearGradient id="y"><stop offset="0" stop-color="#e58200" stop-opacity="0"/><stop offset=".4384" stop-color="#c4602c" stop-opacity=".439216"/><stop offset=".7953" stop-color="#ae4948" stop-opacity=".796078"/><stop offset="1" stop-color="#a64153"/></linearGradient><linearGradient id="z" gradientUnits="userSpaceOnUse" x1="372.595141245" x2="187.6188986258" xlink:href="#y" y1="262.094920462" y2="99.4554403818"/><linearGradient id="A" gradientUnits="userSpaceOnUse" x1="203.913657" x2="203.913657" xlink:href="#s" y1="151.380394458" y2="231.4264084606"/><linearGradient id="B" gradientUnits="userSpaceOnUse" x1="304.246625602" x2="92.2058505692" y1="230.5302072912" y2="18.4894322584"><stop offset="0" stop-color="#a1b5d8" stop-opacity="0"/><stop offset=".0343" stop-color="#9fb3d5" stop-opacity=".035294"/><stop offset=".4515" stop-color="#8898af" stop-opacity=".45098"/><stop offset=".788" stop-color="#798898" stop-opacity=".788235"/><stop offset="1" stop-color="#748290"/></linearGradient><linearGradient id="C" gradientUnits="userSpaceOnUse" x1="203.913657" x2="203.913657" xlink:href="#m" y1="151.380394458" y2="231.4264084606"/><linearGradient id="D" gradientUnits="userSpaceOnUse" x1="268.6024753842" x2="139.4681893086" xlink:href="#y" y1="217.7020919752" y2="96.24600214"/><linearGradient id="E"><stop offset="0" stop-color="#ffc738"/><stop offset=".4873" stop-color="#ffc636"/><stop offset=".6746" stop-color="#ffc22f"/><stop offset=".8103" stop-color="#ffbb23"/><stop offset=".9203" stop-color="#ffb112"/><stop offset="1" stop-color="#ffa700"/></linearGradient><radialGradient id="F" cx="203.913657" cy="83.5309284412" gradientUnits="userSpaceOnUse" r="83.5310288334" xlink:href="#E"/><radialGradient id="G" cx="194.9896939498" cy="16.572744376" gradientUnits="userSpaceOnUse" r="141.7223636414" xlink:href="#E"/><linearGradient id="H" gradientUnits="userSpaceOnUse" x1="241.9631039376" x2="135.029047009" xlink:href="#c" y1="146.787953269" y2="39.8538963404"/><linearGradient id="I" gradientUnits="userSpaceOnUse" x1="269.5645338368" x2="166.4219891256" xlink:href="#c" y1="119.7845597052" y2="16.642014994"/><linearGradient id="J" gradientUnits="userSpaceOnUse" x1="156.7560273252" x2="199.1066776796" xlink:href="#s" y1="83.7553050082" y2="83.7553050082"/><linearGradient id="K" gradientUnits="userSpaceOnUse" x1="208.7117014146" x2="251.062351769" xlink:href="#s" y1="83.7553050082" y2="83.7553050082"/><path d="m30.71875 245.308594h346.425781v266.691406h-346.425781zm0 0" fill="url(#b)"/><path d="m30.71875 295.53125 216.46875 216.46875h129.957031v-266.691406h-346.425781zm0 0" fill="url(#d)"/><path d="m147.449219 306.136719c-2-3.472657-5.742188-5.816407-10.035157-5.816407h-82.6875c-6.402343 0-11.59375 5.191407-11.59375 11.59375v130.558594c0 4.296875 2.34375 8.035156 5.8125 10.039063l59.492188 59.488281h244.878906zm0 0" fill="url(#e)"/><path d="m377.144531 320.140625v191.859375h-53.019531l-59.496094-59.492188c-3.464844-2-5.808594-5.738281-5.808594-10.03125v-130.566406c0-6.394531 5.191407-11.589844 11.589844-11.589844h82.695313c4.292969 0 8.03125 2.347657 10.03125 5.8125zm0 0" fill="url(#f)"/><path d="m137.414062 454.0625h-82.6875c-6.402343 0-11.59375-5.1875-11.59375-11.589844v-130.558594c0-6.402343 5.191407-11.59375 11.59375-11.59375h82.6875c6.402344 0 11.589844 5.191407 11.589844 11.59375v130.558594c0 6.402344-5.1875 11.589844-11.589844 11.589844zm0 0" fill="url(#h)"/><path d="m128.921875 443.722656h-65.707031c-5.335938 0-9.660156-4.324218-9.660156-9.660156v-113.738281c0-5.335938 4.324218-9.660157 9.660156-9.660157h65.707031c5.335937 0 9.660156 4.324219 9.660156 9.660157v113.738281c0 5.335938-4.324219 9.660156-9.660156 9.660156zm0 0" fill="url(#j)"/><path d="m353.101562 454.0625h-82.6875c-6.402343 0-11.589843-5.1875-11.589843-11.589844v-130.558594c0-6.402343 5.1875-11.59375 11.589843-11.59375h82.6875c6.402344 0 11.59375 5.191407 11.59375 11.59375v130.558594c0 6.402344-5.191406 11.589844-11.59375 11.589844zm0 0" fill="url(#k)"/><path d="m344.613281 443.722656h-65.710937c-5.332032 0-9.65625-4.324218-9.65625-9.660156v-113.738281c0-5.335938 4.324218-9.660157 9.65625-9.660157h65.710937c5.335938 0 9.660157 4.324219 9.660157 9.660157v113.738281c0 5.335938-4.324219 9.660156-9.660157 9.660156zm0 0" fill="url(#l)"/><path d="m167.832031 511.996094v-189.25c0-8.347656 6.769531-15.113282 15.117188-15.113282h41.964843c8.347657 0 15.117188 6.765626 15.117188 15.113282v189.25zm0 0" fill="url(#n)"/><path d="m248.96875 511.996094h-17.878906v-184.097656c0-6.230469-5.09375-11.328126-11.324219-11.328126h-31.664063c-6.257812 0-11.328124 5.074219-11.328124 11.328126v184.097656h-17.878907v-195.917969c0-9.601563 7.785157-17.382813 17.382813-17.382813h55.308594c9.601562 0 17.382812 7.78125 17.382812 17.382813zm0 0" fill="url(#o)"/><path d="m199.273438 378.664062c0 4.5-3.648438 8.152344-8.152344 8.152344-4.5 0-8.148438-3.652344-8.148438-8.152344s3.648438-8.152343 8.148438-8.152343c4.503906 0 8.152344 3.652343 8.152344 8.152343zm0 0" fill="url(#p)"/><path d="m389.4375 477.257812v21.78125c0 7.15625-5.800781 12.957032-12.957031 12.957032h-345.101563c-7.152344 0-12.953125-5.800782-12.953125-12.957032v-21.78125c0-7.15625 5.800781-12.957031 12.953125-12.957031h345.101563c7.15625 0 12.957031 5.800781 12.957031 12.957031zm0 0" fill="url(#q)"/><path d="m40.785156 295.644531c-22.527344 0-40.785156-18.257812-40.785156-40.78125v-23.691406h81.566406v23.691406c0 22.523438-18.257812 40.78125-40.78125 40.78125zm0 0" fill="url(#r)"/><path d="m122.347656 295.644531c-22.523437 0-40.78125-18.257812-40.78125-40.78125v-23.691406h81.566406v23.691406c0 22.523438-18.261718 40.78125-40.785156 40.78125zm0 0" fill="url(#t)"/><path d="m203.914062 295.644531c-22.523437 0-40.78125-18.257812-40.78125-40.78125v-23.691406h81.5625v23.691406c0 22.523438-18.257812 40.78125-40.78125 40.78125zm0 0" fill="url(#u)"/><path d="m285.480469 295.644531c-22.523438 0-40.785157-18.257812-40.785157-40.78125v-23.691406h81.566407v23.691406c0 22.523438-18.257813 40.78125-40.78125 40.78125zm0 0" fill="url(#v)"/><path d="m367.042969 295.644531c-22.523438 0-40.78125-18.257812-40.78125-40.78125v-23.691406h81.566406v23.691406c-.003906 22.523438-18.261719 40.78125-40.785156 40.78125zm0 0" fill="url(#w)"/><path d="m338.058594 140.886719c-3.855469-4.992188-9.808594-7.914063-16.117188-7.914063h-236.054687c-6.308594 0-12.261719 2.921875-16.121094 7.914063l-69.765625 90.285156h407.824219zm0 0" fill="url(#x)"/><path d="m338.058594 140.886719c-3.855469-4.992188-9.808594-7.914063-16.117188-7.914063h-185.34375c3.203125 4.351563 6.816406 8.386719 10.78125 12.039063l86.160156 86.160156h174.285157zm0 0" fill="url(#z)"/><path d="m284.425781 140.886719c-2.316406-4.992188-5.886719-7.914063-9.675781-7.914063h-141.675781c-3.785157 0-7.355469 2.921875-9.671875 7.914063l-41.871094 90.285156h244.765625zm0 0" fill="url(#A)"/><path d="m296.496094 294.125c17.167968-4.808594 29.765625-20.558594 29.765625-39.261719v-23.691406h.035156l-41.871094-90.285156c-2.316406-4.992188-5.890625-7.914063-9.675781-7.914063h-138.152344c3.203125 4.351563 6.816406 8.386719 10.78125 12.039063l86.160156 86.160156h11.15625v11.15625zm0 0" fill="url(#B)"/><path d="m230.742188 140.886719c-.769532-4.992188-1.960938-7.914063-3.222657-7.914063h-47.210937c-1.261719 0-2.453125 2.921875-3.226563 7.914063l-13.953125 90.285156h81.566406zm0 0" fill="url(#C)"/><path d="m177.085938 140.886719-4.527344 29.300781 60.984375 60.984375h11.152343l-13.953124-90.285156c-.769532-4.992188-1.960938-7.914063-3.222657-7.914063h-47.210937c-1.261719 0-2.453125 2.921875-3.222656 7.914063zm0 0" fill="url(#D)"/><path d="m287.445312 83.53125c0 46.132812-37.398437 83.53125-83.53125 83.53125-46.132812 0-83.53125-37.398438-83.53125-83.53125s37.398438-83.53125 83.53125-83.53125c46.132813 0 83.53125 37.398438 83.53125 83.53125zm0 0" fill="url(#F)"/><path d="m271.976562 83.53125c0 37.589844-30.472656 68.0625-68.0625 68.0625-37.589843 0-68.0625-30.472656-68.0625-68.0625s30.472657-68.0625 68.0625-68.0625c37.589844 0 68.0625 30.472656 68.0625 68.0625zm0 0" fill="url(#G)"/><path d="m279.835938 118.09375c-8.125 17.941406-22.429688 32.492188-40.191407 40.941406-10.828125 5.148438-22.949219 8.03125-35.738281 8.03125-2.914062 0-5.789062-.152344-8.625-.445312l-24.6875-24.6875c-2.972656-2.332032-4.804688-6.019532-4.554688-10.097656l3.257813-52.601563c-.21875-.226563-.4375-.457031-.644531-.695313-.738282-.644531-1.4375-1.351562-2.105469-2.105468-5.886719-5.148438-9.789063-14.160156-9.789063-24.421875 0-16.007813 9.476563-28.984375 21.171876-28.984375 5.148437 0 9.863281 2.519531 13.535156 6.695312zm0 0" fill="url(#H)"/><path d="m279.835938 118.09375c-8.125 17.941406-22.429688 32.492188-40.191407 40.941406l-17.097656-17.101562c-2.964844-2.328125-4.804687-6.019532-4.546875-10.097656l3.25-52.601563c-.210938-.226563-.429688-.457031-.644531-.695313-.730469-.644531-1.4375-1.351562-2.105469-2.105468-5.882812-5.148438-9.789062-14.160156-9.789062-24.421875 0-1.496094.085937-3.121094.242187-4.800781.808594-8.484376 3.585937-18.570313 7.554687-23.007813 1.40625-1.566406 3.949219-.671875 4.175782 1.332031 1.035156.132813 5.070312 4.4375 5.421875 4.710938v-3.390625c0-2.082031 1.664062-3.824219 3.746093-3.828125h.070313c1.570313.003906 2.90625.996094 3.457031 2.378906.957032.382812 5.292969 4.816406 5.6875 5.289062v-4.875c0-2.203124 2.726563-3.261718 4.199219-1.621093l42.128906 42.128906c1.199219 5.617187 1.824219 11.449219 1.824219 17.425781 0 12.242188-2.640625 23.867188-7.382812 34.339844zm0 0" fill="url(#I)"/><path d="m199.105469 52.011719c0-16.007813-9.480469-28.984375-21.175781-28.984375-11.695313 0-21.175782 12.976562-21.175782 28.984375 0 11.816406 5.171875 21.976562 12.585938 26.488281l-3.300782 53.332031c-.421874 6.855469 5.023438 12.648438 11.890626 12.648438 6.871093 0 12.316406-5.789063 11.890624-12.648438l-3.300781-53.332031c7.414063-4.511719 12.585938-14.667969 12.585938-26.488281zm0 0" fill="url(#J)"/><path d="m251.0625 52.011719c0-9.0625-3.039062-22.492188-7.796875-27.808594-1.472656-1.644531-4.199219-.585937-4.199219 1.617187v29.859376c0 1.480468-1.140625 2.769531-2.617187 2.8125-1.527344.046874-2.78125-1.179688-2.78125-2.699219v-28.941407c0-2.078124-1.664063-3.816406-3.742188-3.824218-.015625 0-.027343 0-.039062 0-.015625 0-.027344 0-.039063 0-2.082031.007812-3.742187 1.746094-3.742187 3.824218v28.828126c0 1.480468-1.140625 2.769531-2.617188 2.8125-1.527343.046874-2.78125-1.179688-2.78125-2.699219v-29.972657c0-2.203124-2.730469-3.257812-4.199219-1.617187-4.757812 5.316406-7.796874 18.746094-7.796874 27.808594 0 11.820312 5.171874 21.976562 12.585937 26.488281l-3.300781 53.335938c-.425782 6.855468 5.019531 12.648437 11.890625 12.648437 6.867187 0 12.3125-5.792969 11.886719-12.648437l-3.300782-53.335938c7.417969-4.511719 12.589844-14.667969 12.589844-26.488281zm0 0" fill="url(#K)"/></svg>