<svg height="512pt" viewBox="-39 0 512 512" width="512pt" xmlns="http://www.w3.org/2000/svg" xmlns:xlink="http://www.w3.org/1999/xlink"><linearGradient id="a" gradientUnits="userSpaceOnUse" x1="-26.2922983132" x2="495.211147731" y1="12.8186784492" y2="534.3221244934"><stop offset="0" stop-color="#ff6e3a"/><stop offset=".1596" stop-color="#ff6440"/><stop offset=".4266" stop-color="#ff4b52"/><stop offset=".7662" stop-color="#ff216e"/><stop offset="1" stop-color="#ff0084"/></linearGradient><linearGradient id="b"><stop offset="0" stop-color="#ff0084" stop-opacity="0"/><stop offset=".0154" stop-color="#fc0183" stop-opacity=".015686"/><stop offset=".2383" stop-color="#d00b72" stop-opacity=".239216"/><stop offset=".454" stop-color="#ae1364" stop-opacity=".454902"/><stop offset=".6578" stop-color="#96195b" stop-opacity=".658824"/><stop offset=".845" stop-color="#871d55" stop-opacity=".843137"/><stop offset="1" stop-color="#821e53"/></linearGradient><linearGradient id="c" gradientUnits="userSpaceOnUse" x1="430.4921112946" x2="125.4344492348" xlink:href="#b" y1="469.6031884492" y2="164.5455263894"/><linearGradient id="d" gradientUnits="userSpaceOnUse" x1="216.8891332376" x2="216.8891332376" xlink:href="#b" y1="481.88256" y2="533.1219357424"/><linearGradient id="e" gradientUnits="userSpaceOnUse" x1="318.324107019" x2="248.54701037" xlink:href="#b" y1="141.5252937528" y2="-11.8389509694"/><linearGradient id="f"><stop offset="0" stop-color="#fffcf8"/><stop offset=".1875" stop-color="#faf8f6"/><stop offset=".4041" stop-color="#eceef2"/><stop offset=".6353" stop-color="#d5dcea"/><stop offset=".875" stop-color="#b5c4df"/><stop offset="1" stop-color="#a1b5d8"/></linearGradient><linearGradient id="g" gradientUnits="userSpaceOnUse" x1="89.0059347584" x2="447.3589044244" xlink:href="#f" y1="63.7630015158" y2="602.4479702368"/><linearGradient id="h"><stop offset="0" stop-color="#a1b5d8" stop-opacity="0"/><stop offset=".0343" stop-color="#9fb3d5" stop-opacity=".035294"/><stop offset=".4515" stop-color="#8898af" stop-opacity=".45098"/><stop offset=".788" stop-color="#798898" stop-opacity=".788235"/><stop offset="1" stop-color="#748290"/></linearGradient><linearGradient id="i" gradientUnits="userSpaceOnUse" x1="280.107808245" x2="131.0328202678" xlink:href="#h" y1="180.6203254534" y2="-311.7788194576"/><linearGradient id="j" gradientUnits="userSpaceOnUse" x1="323.4680025626" x2="197.5308064882" xlink:href="#h" y1="558.271988902" y2="432.3347928276"/><linearGradient id="k" gradientUnits="userSpaceOnUse" x1="193.4855027892" x2="193.4855027892" xlink:href="#f" y1="431.724609036" y2="514.6273834818"/><linearGradient id="l" gradientUnits="userSpaceOnUse" x1="204.377454136" x2="204.377454136" y1="82.1023474352" y2="103.3695314754"><stop offset="0" stop-color="#ffd459"/><stop offset=".2296" stop-color="#ffd355"/><stop offset=".4362" stop-color="#ffcf4a"/><stop offset=".634" stop-color="#ffc838"/><stop offset=".825" stop-color="#ffbf1f"/><stop offset="1" stop-color="#ffb400"/></linearGradient><linearGradient id="m"><stop offset="0" stop-color="#3b395f"/><stop offset=".8022" stop-color="#1b1f3a"/><stop offset="1" stop-color="#131830"/></linearGradient><linearGradient id="n" gradientUnits="userSpaceOnUse" x1="204.377454136" x2="204.377454136" xlink:href="#m" y1="14.5052674092" y2="68.9944390578"/><linearGradient id="o" gradientUnits="userSpaceOnUse" x1="132.3879141834" x2="301.2883538166" xlink:href="#m" y1="151.388425834" y2="320.288765075"/><linearGradient id="p" gradientUnits="userSpaceOnUse" x1="190.6470137264" x2="277.6645632736" xlink:href="#m" y1="175.0123167692" y2="262.0299667086"/><linearGradient id="q" gradientUnits="userSpaceOnUse" x1="248.0809897776" x2="184.7820010102" y1="267.081401036" y2="203.7824122686"><stop offset="0" stop-color="#a1b5d8" stop-opacity="0"/><stop offset="1" stop-color="#748290"/></linearGradient><linearGradient id="r" gradientUnits="userSpaceOnUse" x1="201.7373400604" x2="224.6914142372" y1="217.94142698" y2="245.146207297"><stop offset="0" stop-color="#8be1e2"/><stop offset=".1873" stop-color="#87e1e1"/><stop offset=".3558" stop-color="#7ce2dd"/><stop offset=".5172" stop-color="#6ae2d7"/><stop offset=".6741" stop-color="#50e4ce"/><stop offset=".8278" stop-color="#2fe5c2"/><stop offset=".9772" stop-color="#07e7b4"/><stop offset="1" stop-color="#00e7b2"/></linearGradient><path d="m402.414062 512h-371.050781c-17.265625 0-31.261719-13.996094-31.261719-31.261719v-449.476562c0-17.265625 13.996094-31.261719 31.261719-31.261719h371.050781c17.265626 0 31.261719 13.996094 31.261719 31.261719v449.476562c0 17.265625-13.996093 31.261719-31.261719 31.261719zm0 0" fill="url(#a)"/><path d="m433.675781 480.738281v-419.410156l-27.953125-27.953125c-5.175781-6.132812-12.910156-10.027344-21.558594-10.027344h-334.550781c-15.574219 0-28.203125 12.625-28.203125 28.199219v408.90625c0 8.648437 3.898438 16.382813 10.027344 21.558594l29.992188 29.988281h340.984374c17.265626 0 31.261719-13.996094 31.261719-31.261719zm0 0" fill="url(#c)"/><path d="m.101562 402.289062v78.449219c0 17.265625 13.996094 31.261719 31.261719 31.261719h371.050781c17.265626 0 31.261719-13.996094 31.261719-31.261719v-78.449219zm0 0" fill="url(#d)"/><path d="m324.414062 6.289062c-3.261718-3.84375-8.125-6.289062-13.5625-6.289062h-144.296874c-9.828126 0-17.792969 7.96875-17.792969 17.792969v23.285156c0 5.4375 2.445312 10.296875 6.289062 13.5625l102.972657 102.96875c3.261718 3.84375 8.125 6.289063 13.5625 6.289063h144.296874c9.824219 0 17.792969-7.964844 17.792969-17.792969v-23.28125c0-5.441407-2.445312-10.300781-6.289062-13.5625zm0 0" fill="url(#e)"/><path d="m384.164062 488.652344h-334.550781c-15.574219 0-28.203125-12.625-28.203125-28.199219v-408.90625c0-15.574219 12.628906-28.199219 28.203125-28.199219h334.550781c15.574219 0 28.203126 12.625 28.203126 28.199219v408.90625c0 15.574219-12.628907 28.199219-28.203126 28.199219zm0 0" fill="url(#g)"/><path d="m412.367188 95.839844-72.496094-72.492188h-259.132813v17.730469c0 6.78125 3.800781 12.667969 9.378907 15.671875.445312.824219.953124 1.613281 1.515624 2.355469v2.273437c0 11.769532 5.679688 22.238282 14.441407 28.804688l306.289062 306.292968v-300.636718zm0 0" fill="url(#i)"/><path d="m49.613281 488.652344h334.550781c15.574219 0 28.203126-12.625 28.203126-28.199219v-29.15625l-53.664063-53.660156c-5.160156-5.675781-12.601563-9.238281-20.875-9.238281h-316.417969v92.050781c0 15.578125 12.628906 28.203125 28.203125 28.203125zm0 0" fill="url(#j)"/><path d="m337.832031 368.398438h-309.628906c-15.578125 0-28.203125 12.625-28.203125 28.203124v37.175782c0 30.304687 24.570312 54.875 54.878906 54.875h332.089844c-11.5625 0-20.9375-9.375-20.9375-20.9375v-71.113282c0-15.578124-12.625-28.203124-28.199219-28.203124zm0 0" fill="url(#k)"/><path d="m281.136719 97.367188h-153.515625c-19.84375 0-35.988282-16.144532-35.988282-35.988282v-15.800781h16.355469v15.800781c0 10.824219 8.804688 19.632813 19.632813 19.632813h153.515625c10.824219 0 19.628906-8.804688 19.628906-19.632813v-15.800781h16.355469v15.800781c0 19.84375-16.144532 35.988282-35.984375 35.988282zm0 0" fill="url(#l)"/><path d="m310.222656 58.871094h-211.691406c-9.828125 0-17.792969-7.964844-17.792969-17.792969v-23.285156c0-9.824219 7.964844-17.792969 17.792969-17.792969h211.695312c9.824219 0 17.792969 7.96875 17.792969 17.792969v23.285156c0 9.828125-7.96875 17.792969-17.796875 17.792969zm0 0" fill="url(#n)"/><path d="m216.839844 355.324219c-65.886719 0-119.488282-53.601563-119.488282-119.484375 0-65.886719 53.601563-119.488282 119.488282-119.488282 65.882812 0 119.484375 53.601563 119.484375 119.488282 0 65.882812-53.601563 119.484375-119.484375 119.484375zm0-213.875c-52.046875 0-94.390625 42.34375-94.390625 94.390625 0 52.042968 42.34375 94.386718 94.390625 94.386718 52.042968 0 94.386718-42.34375 94.386718-94.386718 0-52.046875-42.34375-94.390625-94.386718-94.390625zm0 0" fill="url(#o)"/><path d="m286.109375 248.386719h-69.269531c-6.933594 0-12.550782-5.617188-12.550782-12.546875v-69.273438c0-6.929687 5.617188-12.546875 12.550782-12.546875 6.929687 0 12.546875 5.617188 12.546875 12.546875v56.722656h56.722656c6.929687 0 12.546875 5.617188 12.546875 12.550782 0 6.929687-5.617188 12.546875-12.546875 12.546875zm0 0" fill="url(#p)"/><path d="m229.441406 224.140625c-3.140625-3.386719-7.617187-5.519531-12.601562-5.519531-9.511719 0-17.21875 7.710937-17.21875 17.21875 0 4.984375 2.132812 9.460937 5.519531 12.605468l45.425781 45.421876c3.144532 3.386718 7.621094 5.519531 12.605469 5.519531 9.507813 0 17.214844-7.707031 17.214844-17.214844 0-4.984375-2.132813-9.460937-5.519531-12.605469zm0 0" fill="url(#q)"/><path d="m234.054688 235.839844c0 9.507812-7.707032 17.214844-17.214844 17.214844-9.507813 0-17.21875-7.707032-17.21875-17.214844 0-9.507813 7.710937-17.21875 17.21875-17.21875 9.507812 0 17.214844 7.710937 17.214844 17.21875zm0 0" fill="url(#r)"/></svg>