<svg height="512pt" viewBox="0 -26 512 511" width="512pt" xmlns="http://www.w3.org/2000/svg" xmlns:xlink="http://www.w3.org/1999/xlink"><linearGradient id="a"><stop offset="0" stop-color="#45425a"/><stop offset="1" stop-color="#2d3251"/></linearGradient><linearGradient id="b" gradientUnits="userSpaceOnUse" x1="97.842740081" x2="128.2671986442" xlink:href="#a" y1="95.3191393634" y2="166.490482886"/><linearGradient id="c"><stop offset="0" stop-color="#3b395f" stop-opacity="0"/><stop offset=".3793" stop-color="#252746" stop-opacity=".380392"/><stop offset=".7281" stop-color="#181c36" stop-opacity=".729412"/><stop offset="1" stop-color="#131830"/></linearGradient><linearGradient id="d" gradientUnits="userSpaceOnUse" x1="134.2437470946" x2="98.4147748366" xlink:href="#c" y1="144.1676748628" y2="108.3387026048"/><linearGradient id="e"><stop offset="0" stop-color="#fffcf8"/><stop offset=".1875" stop-color="#faf8f6"/><stop offset=".4041" stop-color="#eceef2"/><stop offset=".6353" stop-color="#d5dcea"/><stop offset=".875" stop-color="#b5c4df"/><stop offset="1" stop-color="#a1b5d8"/></linearGradient><linearGradient id="f" gradientUnits="userSpaceOnUse" x1="100.2057534494" x2="125.3008920756" xlink:href="#e" y1="67.4597371052" y2="67.4597371052"/><linearGradient id="g"><stop offset="0" stop-color="#a1b5d8" stop-opacity="0"/><stop offset=".0343" stop-color="#9fb3d5" stop-opacity=".035294"/><stop offset=".4515" stop-color="#8898af" stop-opacity=".45098"/><stop offset=".788" stop-color="#798898" stop-opacity=".788235"/><stop offset="1" stop-color="#748290"/></linearGradient><linearGradient id="h" gradientUnits="userSpaceOnUse" x1="199.977748673" x2="92.2179658994" xlink:href="#g" y1="119.7266918118" y2="11.9669090382"/><linearGradient id="i" gradientUnits="userSpaceOnUse" x1="384.365592608" x2="414.7900511712" xlink:href="#a" y1="95.3191393634" y2="166.490482886"/><linearGradient id="j" gradientUnits="userSpaceOnUse" x1="420.7665996216" x2="384.9376273636" xlink:href="#c" y1="144.1676748628" y2="108.3387026048"/><linearGradient id="k" gradientUnits="userSpaceOnUse" x1="386.7313165658" x2="411.826455192" xlink:href="#e" y1="67.4597371052" y2="67.4597371052"/><linearGradient id="l" gradientUnits="userSpaceOnUse" x1="486.5006012" x2="378.7408184264" xlink:href="#g" y1="119.7266918118" y2="11.9669090382"/><linearGradient id="m" gradientTransform="matrix(1.003922 0 0 -1.003922 0 644.663162)" gradientUnits="userSpaceOnUse" x1="235.0392" x2="588.6707" xlink:href="#a" y1="306.5956" y2="660.2271"/><linearGradient id="n" gradientTransform="matrix(1.003922 0 0 -1.003922 0 644.663162)" gradientUnits="userSpaceOnUse" x1="545.8598" x2="-318.9045" xlink:href="#a" y1="367.132" y2="367.132"/><linearGradient id="o" gradientUnits="userSpaceOnUse" x1="195.1562124836" x2="609.9169491324" y1="255.9824993788" y2="670.7432360276"><stop offset="0" stop-color="#8be1e2"/><stop offset=".1873" stop-color="#87e1e1"/><stop offset=".3558" stop-color="#7ce2dd"/><stop offset=".5172" stop-color="#6ae2d7"/><stop offset=".6741" stop-color="#50e4ce"/><stop offset=".8278" stop-color="#2fe5c2"/><stop offset=".9772" stop-color="#07e7b4"/><stop offset="1" stop-color="#00e7b2"/></linearGradient><linearGradient id="p"><stop offset=".0029" stop-color="#00e7b2" stop-opacity="0"/><stop offset=".4308" stop-color="#1bc4b7" stop-opacity=".427451"/><stop offset="1" stop-color="#3b9abe"/></linearGradient><linearGradient id="q" gradientUnits="userSpaceOnUse" x1="142.36617882" x2="57.7443887336" xlink:href="#p" y1="367.0000090424" y2="282.378218956"/><linearGradient id="r" gradientUnits="userSpaceOnUse" x1="192.355972849" x2="87.243331605" xlink:href="#p" y1="367.2063150134" y2="262.0936737694"/><linearGradient id="s" gradientUnits="userSpaceOnUse" x1="263.349321001" x2="160.8410542094" xlink:href="#p" y1="355.4442644692" y2="252.9360980698"/><linearGradient id="t" gradientUnits="userSpaceOnUse" x1="336.0419075302" x2="245.9541637226" xlink:href="#p" y1="356.0380843322" y2="265.9504409168"/><linearGradient id="u" gradientUnits="userSpaceOnUse" x1="416.6399782406" x2="315.7145952664" xlink:href="#p" y1="365.7929936218" y2="264.8676106476"/><linearGradient id="v" gradientUnits="userSpaceOnUse" x1="472.5466877532" x2="393.078129685" xlink:href="#p" y1="358.0745401092" y2="278.605982041"/><linearGradient id="w"><stop offset="0" stop-color="#ff6e3a"/><stop offset=".1596" stop-color="#ff6440"/><stop offset=".4266" stop-color="#ff4b52"/><stop offset=".7662" stop-color="#ff216e"/><stop offset="1" stop-color="#ff0084"/></linearGradient><linearGradient id="x" gradientUnits="userSpaceOnUse" x1="83.5852406214" x2="83.5852406214" xlink:href="#w" y1="279.4680498624" y2="444.5513772672"/><linearGradient id="y" gradientUnits="userSpaceOnUse" x1="152.5442412326" x2="152.5442412326" xlink:href="#w" y1="279.4680498624" y2="444.5513772672"/><linearGradient id="z" gradientUnits="userSpaceOnUse" x1="216.3575392406" x2="216.3575392406" xlink:href="#w" y1="279.4680498624" y2="444.5513772672"/><linearGradient id="A" gradientUnits="userSpaceOnUse" x1="287.0997061082" x2="287.0997061082" xlink:href="#w" y1="279.4680498624" y2="444.5513772672"/><linearGradient id="B" gradientUnits="userSpaceOnUse" x1="358.8315392834" x2="358.8315392834" xlink:href="#w" y1="279.4680498624" y2="444.5513772672"/><linearGradient id="C" gradientUnits="userSpaceOnUse" x1="428.5840398434" x2="428.5840398434" xlink:href="#w" y1="279.4680498624" y2="444.5513772672"/><linearGradient id="D" gradientUnits="userSpaceOnUse" x1="256.00011" x2="256.00011" y1="4.4923081794" y2="47.5501211906"><stop offset="0" stop-color="#ffd459"/><stop offset=".2296" stop-color="#ffd355"/><stop offset=".4362" stop-color="#ffcf4a"/><stop offset=".634" stop-color="#ffc838"/><stop offset=".825" stop-color="#ffbf1f"/><stop offset="1" stop-color="#ffb400"/></linearGradient><path d="m112.738281 92.949219c-20.554687 0-37.214843 16.660156-37.214843 37.214843 0 20.554688 16.660156 37.214844 37.214843 37.214844 20.554688 0 37.214844-16.660156 37.214844-37.214844 0-20.554687-16.660156-37.214843-37.214844-37.214843zm0 56.0625c-10.410156 0-18.847656-8.4375-18.847656-18.847657 0-10.410156 8.4375-18.847656 18.847656-18.847656 10.410157 0 18.847657 8.4375 18.847657 18.847656 0 10.410157-8.4375 18.847657-18.847657 18.847657zm0 0" fill="url(#b)"/><path d="m112.738281 92.949219c-.140625 0-.28125.007812-.421875.011719v18.378906c.140625-.003906.28125-.023438.421875-.023438 10.410157 0 18.847657 8.4375 18.847657 18.847656 0 10.410157-8.4375 18.847657-18.847657 18.847657-.140625 0-.28125-.019531-.421875-.019531v18.378906c.140625 0 .28125.011718.421875.011718 20.554688 0 37.214844-16.664062 37.214844-37.21875 0-20.554687-16.660156-37.214843-37.214844-37.214843zm0 0" fill="url(#d)"/><path d="m112.738281 121.730469c-6.929687 0-12.546875-5.617188-12.546875-12.546875v-83.425782c0-6.929687 5.617188-12.546874 12.546875-12.546874 6.929688 0 12.546875 5.617187 12.546875 12.546874v83.425782c0 6.929687-5.617187 12.546875-12.546875 12.546875zm0 0" fill="url(#f)"/><path d="m112.738281 13.210938c-6.929687 0-12.546875 5.617187-12.546875 12.546874v18.65625l25.09375 25.09375v-43.75c0-6.929687-5.617187-12.546874-12.546875-12.546874zm0 0" fill="url(#h)"/><path d="m399.261719 92.949219c-20.554688 0-37.214844 16.660156-37.214844 37.214843 0 20.554688 16.660156 37.214844 37.214844 37.214844 20.554687 0 37.214843-16.660156 37.214843-37.214844 0-20.554687-16.660156-37.214843-37.214843-37.214843zm0 56.0625c-10.410157 0-18.847657-8.4375-18.847657-18.847657 0-10.410156 8.4375-18.847656 18.847657-18.847656 10.410156 0 18.847656 8.4375 18.847656 18.847656 0 10.410157-8.4375 18.847657-18.847656 18.847657zm0 0" fill="url(#i)"/><path d="m399.261719 92.949219c-.140625 0-.28125.007812-.421875.011719v18.378906c.140625-.003906.277344-.023438.421875-.023438 10.410156 0 18.847656 8.4375 18.847656 18.847656 0 10.410157-8.4375 18.847657-18.847656 18.847657-.144531 0-.28125-.019531-.421875-.019531v18.378906c.140625 0 .28125.011718.421875.011718 20.554687 0 37.214843-16.664062 37.214843-37.21875 0-20.554687-16.660156-37.214843-37.214843-37.214843zm0 0" fill="url(#j)"/><path d="m399.261719 121.730469c-6.929688 0-12.546875-5.617188-12.546875-12.546875v-83.425782c0-6.929687 5.617187-12.546874 12.546875-12.546874 6.929687 0 12.546875 5.617187 12.546875 12.546874v83.425782c0 6.929687-5.617188 12.546875-12.546875 12.546875zm0 0" fill="url(#k)"/><path d="m399.261719 13.210938c-6.929688 0-12.546875 5.617187-12.546875 12.546874v18.65625l25.09375 25.09375v-43.75c0-6.929687-5.617188-12.546874-12.546875-12.546874zm0 0" fill="url(#l)"/><path d="m485.269531 459.046875h-458.539062c-14.761719 0-26.730469-11.964844-26.730469-26.730469v-230.980468c0-14.765626 11.96875-26.730469 26.730469-26.730469h33.726562c8.867188 0 17.121094-4.425781 22.125-11.75 11.765625-17.214844 31.542969-28.515625 53.96875-28.515625 3.101563 0 6.152344.21875 9.140625.636718 8.105469 1.140626 16.371094-1.152343 22.3125-6.78125 22.9375-21.730468 53.90625-35.0625 87.996094-35.0625s65.058594 13.332032 87.996094 35.0625c5.941406 5.628907 14.207031 7.921876 22.3125 6.78125 2.988281-.417968 6.039062-.636718 9.140625-.636718 22.425781 0 42.207031 11.300781 53.96875 28.515625 5.003906 7.324219 13.257812 11.75 22.125 11.75h33.726562c14.761719 0 26.730469 11.964843 26.730469 26.730469v230.980468c0 14.765625-11.96875 26.730469-26.730469 26.730469zm0 0" fill="url(#m)"/><path d="m256 122.855469c-24.003906 0-46.816406 9.253906-64.238281 26.0625-12.332031 11.894531-28.671875 18.449219-46.015625 18.449219-3.222656 0-6.476563-.234376-9.675782-.691407-1.316406-.1875-2.660156-.285156-4.003906-.285156-9.398437 0-18.191406 4.738281-23.511718 12.667969-12.554688 18.703125-33.28125 29.871094-55.441407 29.871094h-11.109375c-6.777344 0-12.273437 5.597656-12.273437 12.496093v195.410157c0 6.898437 5.492187 12.496093 12.273437 12.496093h427.992188c6.777344 0 12.273437-5.597656 12.273437-12.496093v-195.410157c0-6.902343-5.492187-12.496093-12.273437-12.496093h-11.109375c-22.160157 0-42.886719-11.167969-55.441407-29.871094-5.320312-7.933594-14.113281-12.667969-23.511718-12.667969-1.34375 0-2.6875.097656-3.988282.28125-3.214843.460937-6.46875.695313-9.691406.695313-17.34375 0-33.683594-6.554688-46.015625-18.453126-17.421875-16.804687-40.234375-26.058593-64.238281-26.058593zm0 0" fill="url(#n)"/><path d="m256 131.054688c-23.132812 0-45.121094 8.761718-61.914062 24.667968-11.886719 11.261719-27.632813 17.464844-44.347657 17.464844-3.105469 0-6.242187-.222656-9.328125-.65625-1.269531-.175781-2.5625-.265625-3.859375-.265625-9.058593 0-17.53125 4.480469-22.660156 11.988281-12.097656 17.703125-32.074219 28.273438-53.433594 28.273438h-10.707031c-6.53125 0-11.828125 5.292968-11.828125 11.824218v184.949219c0 6.53125 5.296875 11.828125 11.828125 11.828125h412.5c6.53125 0 11.828125-5.296875 11.828125-11.828125v-184.949219c0-6.53125-5.296875-11.824218-11.828125-11.824218h-10.707031c-21.359375 0-41.335938-10.570313-53.433594-28.273438-5.128906-7.507812-13.601563-11.988281-22.660156-11.988281-1.296875 0-2.589844.089844-3.84375.265625-3.101563.433594-6.238281.65625-9.339844.65625-16.714844 0-32.464844-6.203125-44.351563-17.464844-16.792968-15.90625-38.78125-24.667968-61.914062-24.667968zm0 0" fill="url(#o)"/><path d="m259.644531 421.132812h-126.214843l-70.261719-70.277343c-.394531-.308594-.792969-.601563-1.164063-.921875-5.363281-4.757813-8.054687-12.1875-8.054687-22.308594v-38.410156c0-10.117188 2.710937-17.546875 8.125-22.304688 5.410156-4.75 12.46875-7.128906 21.179687-7.128906 8.976563 0 16.214844 2.226562 21.714844 6.664062 1.46875 1.195313 2.730469 2.480469 3.804688 3.847657.042968.027343.082031.058593.121093.089843l17.390625 17.386719zm0 0" fill="url(#q)"/><path d="m297.371094 421.132812h-102.289063l-66.953125-66.121093c-1.234375-.832031-1.84375-1.957031-1.84375-3.363281v-87.378907c0-1.488281.671875-2.613281 2.035156-3.363281 1.367188-.742188 3.011719-1.125 4.949219-1.125s3.585938.382812 4.949219 1.125l48.511719 48.839844zm0 0" fill="url(#r)"/><path d="m391.859375 421.132812h-125.679687l-71.398438-71.199218c-5.371094-4.757813-8.050781-12.1875-8.050781-22.308594v-38.410156c0-10.117188 2.679687-17.546875 8.050781-22.304688 5.359375-4.75 12.539062-7.128906 21.511719-7.128906 8.976562 0 16.164062 2.378906 21.578125 7.128906 1.042968.921875 1.984375 1.945313 2.839844 3.070313zm0 0" fill="url(#s)"/><path d="m467.023438 420.128906c-.050782.019532-.109376.046875-.167969.070313-.011719 0-.011719 0-.011719 0-1.40625.601562-2.960938.933593-4.589844.933593h-128.398437l-70.929688-70.9375c-3.632812-2.742187-5.460937-5.5625-5.460937-8.445312 0-1.675781.625-3.34375 1.847656-5.019531 1.234375-1.664063 2.640625-2.507813 4.226562-2.507813.964844 0 2.140626.5625 3.503907 1.695313 1.355469 1.125 2.699219 2.339843 4.015625 3.65625 1.324218 1.304687 3.324218 2.519531 6.015625 3.652343 2.679687 1.125 5.691406 1.6875 9.035156 1.6875 5.019531 0 9.042969-1.195312 12.074219-3.585937 1.507812-1.183594 2.640625-2.640625 3.40625-4.375l-32.5-32.648437c-1.765625-1.445313-3.371094-3.121094-4.828125-5.039063-2.085938-2.761719-3.441407-6.023437-4.046875-9.777344-.25-1.527343-.371094-3.132812-.371094-4.820312 0-4.648438.90625-8.683594 2.710938-12.105469 1.796874-3.425781 4.238281-6.066406 7.320312-7.902344 3.082031-1.847656 6.3125-3.183594 9.695312-4.015625 3.394532-.832031 6.980469-1.253906 10.765626-1.253906 2.378906 0 4.855468.148437 7.457031.460937 2.589843.300782 5.160156.800782 7.71875 1.496094 2.550781.703125 4.660156 1.695313 6.335937 3 1.09375.863282 1.828125 1.796875 2.199219 2.800782zm0 0" fill="url(#t)"/><path d="m474.082031 350.105469v59.199219c0 4.828124-2.902343 8.984374-7.058593 10.824218-.050782.019532-.109376.046875-.167969.070313-.011719 0-.011719 0-.011719 0-1.40625.601562-2.960938.933593-4.589844.933593h-63.757812l-66.71875-66.121093c-1.234375-.832031-1.847656-1.957031-1.847656-3.363281v-87.238282c0-1.417968.613281-2.53125 1.847656-3.375 1.234375-.832031 2.679687-1.253906 4.355468-1.253906h46.984376c1.496093 0 2.640624.621094 3.433593 1.855469l12.40625 12.539062zm0 0" fill="url(#u)"/><path d="m474.082031 291.132812v118.171876c0 4.828124-2.902343 8.984374-7.058593 10.824218-.050782.019532-.109376.046875-.167969.070313-.011719 0-.011719 0-.011719 0l-66.109375-65.257813c-1.082031-.800781-1.675781-1.753906-1.757813-2.859375-.019531-.101562-.019531-.203125-.019531-.300781v-87.511719c0-1.226562.59375-2.28125 1.777344-3.164062 1.1875-.882813 2.660156-1.324219 4.417969-1.324219h23.363281c8.972656 0 16.171875 2.378906 21.582031 7.128906 1.042969.921875 1.988282 1.945313 2.832032 3.070313zm0 0" fill="url(#v)"/><path d="m53.953125 327.625v-38.40625c0-10.117188 2.707031-17.554688 8.121094-22.304688 5.410156-4.753906 12.472656-7.128906 21.183593-7.128906 8.972657 0 16.210938 2.222656 21.710938 6.667969 5.496094 4.441406 8.246094 10.183594 8.246094 17.222656 0 2.816407-.527344 4.730469-1.582032 5.742188-1.058593 1.011719-2.859374 1.515625-5.410156 1.515625-4.578125 0-6.910156-1.539063-6.996094-4.617188-.527343-9.414062-5.675781-14.125-15.441406-14.125-10.558594 0-15.839844 5.675782-15.839844 17.027344v38.40625c0 11.351562 5.367188 17.027344 16.101563 17.027344 3.167969 0 5.808594-.460938 7.921875-1.386719 2.109375-.921875 3.628906-2.261719 4.550781-4.027344.925781-1.757812 1.5625-3.296875 1.914063-4.617187.351562-1.320313.617187-2.949219.792968-4.882813.265626-3.078125 2.550782-4.621093 6.863282-4.621093 2.550781 0 4.375.507812 5.476562 1.519531 1.097656 1.011719 1.652344 2.925781 1.652344 5.742187 0 7.304688-2.773438 13.242188-8.316406 17.816406-5.542969 4.574219-12.804688 6.863282-21.777344 6.863282-8.710938 0-15.75-2.375-21.117188-7.125-5.371093-4.753906-8.054687-12.1875-8.054687-22.308594zm0 0" fill="url(#x)"/><path d="m126.277344 351.644531v-87.371093c0-1.496094.679687-2.617188 2.046875-3.363282 1.363281-.746094 3.011719-1.125 4.949219-1.125 1.933593 0 3.585937.375 4.949218 1.125 1.363282.746094 2.046875 1.867188 2.046875 3.363282v79.585937h34.3125c1.320313 0 2.355469.617187 3.105469 1.847656.746094 1.234375 1.121094 2.683594 1.121094 4.355469s-.375 3.125-1.121094 4.355469c-.75 1.230469-1.785156 1.847656-3.105469 1.847656h-42.101562c-1.671875 0-3.125-.417969-4.355469-1.253906-1.230469-.835938-1.847656-1.957031-1.847656-3.367188zm0 0" fill="url(#y)"/><path d="m186.726562 327.625v-38.40625c0-10.117188 2.683594-17.554688 8.050782-22.304688 5.367187-4.753906 12.539062-7.128906 21.515625-7.128906 8.972656 0 16.167969 2.378906 21.578125 7.128906s8.117187 12.1875 8.117187 22.304688v38.40625c0 10.117188-2.707031 17.554688-8.117187 22.304688s-12.605469 7.128906-21.578125 7.128906c-8.976563 0-16.148438-2.378906-21.515625-7.128906-5.367188-4.75-8.050782-12.183594-8.050782-22.304688zm13.992188 0c0 11.351562 5.1875 17.023438 15.574219 17.023438 5.011719 0 8.882812-1.40625 11.613281-4.222657 2.726562-2.8125 4.09375-7.082031 4.09375-12.800781v-38.40625c0-5.71875-1.367188-9.984375-4.09375-12.804688-2.730469-2.8125-6.597656-4.222656-11.613281-4.222656-10.382813 0-15.574219 5.675782-15.574219 17.027344zm0 0" fill="url(#z)"/><path d="m257.46875 341.746094c0-1.667969.617188-3.34375 1.847656-5.015625 1.230469-1.667969 2.640625-2.507813 4.226563-2.507813.964843 0 2.128906.566406 3.496093 1.695313 1.363282 1.125 2.707032 2.34375 4.027344 3.652343 1.316406 1.304688 3.320313 2.523438 6.003906 3.652344 2.683594 1.128906 5.695313 1.691406 9.042969 1.691406 5.011719 0 9.039063-1.191406 12.074219-3.582031 3.035156-2.386719 4.554688-5.882812 4.554688-10.484375 0-4.242187-1.476563-7.78125-4.421876-10.613281-2.949218-2.828125-6.511718-5.085937-10.691406-6.769531-4.179687-1.679688-8.382812-3.492188-12.605468-5.441406-4.222657-1.945313-7.808594-4.863282-10.757813-8.757813-2.945313-3.890625-4.421875-8.753906-4.421875-14.59375 0-4.652344.902344-8.691406 2.707031-12.113281 1.804688-3.425782 4.246094-6.058594 7.324219-7.902344s6.3125-3.183594 9.699219-4.015625 6.972656-1.25 10.757812-1.25c2.375 0 4.859375.152344 7.457031.457031 2.59375.304688 5.167969.804688 7.722657 1.5 2.550781.699219 4.660156 1.699219 6.335937 3.003906 1.667969 1.304688 2.507813 2.785157 2.507813 4.4375 0 1.65625-.53125 3.320313-1.585938 5-1.054687 1.679688-2.464843 2.519532-4.222656 2.519532-.882813 0-2.070313-.417969-3.5625-1.257813-1.5-.84375-3.5-1.679687-6.007813-2.523437-2.507812-.839844-5.390624-1.257813-8.644531-1.257813-5.015625 0-9.019531.992188-12.011719 2.984375-2.988281 1.992188-4.484374 5.023438-4.484374 9.089844 0 2.65625.792968 4.933594 2.375 6.835938 1.585937 1.898437 3.628906 3.472656 6.136718 4.710937 2.507813 1.238281 5.300782 2.453125 8.382813 3.648437 3.078125 1.195313 6.136719 2.585938 9.171875 4.179688 3.035156 1.589844 5.808594 3.429688 8.316406 5.507812 2.507812 2.078126 4.554688 4.933594 6.136719 8.558594s2.375 7.828125 2.375 12.605469c0 9.09375-2.75 16.023437-8.246094 20.785156-5.5 4.765625-12.785156 7.144531-21.84375 7.144531-8.097656 0-14.980469-1.691406-20.65625-5.078124-5.675781-3.386719-8.515625-6.886719-8.515625-10.496094zm0 0" fill="url(#A)"/><path d="m329.929688 351.644531v-87.238281c0-1.40625.613281-2.527344 1.84375-3.367188 1.234374-.835937 2.683593-1.253906 4.355468-1.253906h46.988282c1.496093 0 2.636718.617188 3.429687 1.847656.792969 1.234376 1.1875 2.640626 1.1875 4.226563 0 1.757813-.417969 3.253906-1.253906 4.484375-.835938 1.234375-1.957031 1.847656-3.367188 1.847656h-39.195312v30.226563h20.324219c1.40625 0 2.527343.550781 3.367187 1.648437.832031 1.101563 1.253906 2.441406 1.253906 4.027344 0 1.40625-.398437 2.660156-1.1875 3.757812-.792969 1.101563-1.9375 1.652344-3.433593 1.652344h-20.324219v30.355469h39.199219c1.40625 0 2.527343.617187 3.363281 1.847656.835937 1.234375 1.253906 2.726563 1.253906 4.488281 0 1.582032-.394531 2.992188-1.1875 4.222657-.789063 1.234375-1.933594 1.847656-3.429687 1.847656h-46.984376c-1.675781 0-3.125-.417969-4.355468-1.253906-1.234375-.835938-1.847656-1.957031-1.847656-3.367188zm0 0" fill="url(#B)"/><path d="m398.953125 351.777344v-87.503906c0-1.230469.59375-2.289063 1.78125-3.167969 1.1875-.878907 2.664063-1.320313 4.421875-1.320313h23.363281c8.972657 0 16.167969 2.375 21.578125 7.125 5.410156 4.753906 8.117188 12.1875 8.117188 22.308594v37.613281c0 10.121094-2.707032 17.554688-8.117188 22.304688s-12.605468 7.128906-21.578125 7.128906h-23.363281c-1.757812 0-3.234375-.441406-4.421875-1.320313-1.1875-.878906-1.78125-1.933593-1.78125-3.167968zm13.992187-7.917969h15.570313c10.472656 0 15.707031-5.675781 15.707031-17.027344v-37.613281c0-11.351562-5.234375-17.027344-15.707031-17.027344h-15.570313zm0 0" fill="url(#C)"/><path d="m485.9375 44.214844h-459.875c-12.070312 0-21.855469-9.785156-21.855469-21.859375 0-12.070313 9.785157-21.855469 21.855469-21.855469h459.871094c12.074218 0 21.859375 9.785156 21.859375 21.855469 0 12.074219-9.785157 21.859375-21.855469 21.859375zm0 0" fill="url(#D)"/></svg>