<svg height="512pt" viewBox="-45 0 512 512.00042" width="512pt" xmlns="http://www.w3.org/2000/svg" xmlns:xlink="http://www.w3.org/1999/xlink"><linearGradient id="a"><stop offset="0" stop-color="#ffd459"/><stop offset=".2296" stop-color="#ffd355"/><stop offset=".4362" stop-color="#ffcf4a"/><stop offset=".634" stop-color="#ffc838"/><stop offset=".825" stop-color="#ffbf1f"/><stop offset="1" stop-color="#ffb400"/></linearGradient><linearGradient id="b" gradientUnits="userSpaceOnUse" x1="130.248307539" x2="130.248307539" xlink:href="#a" y1="16.112446139" y2="123.8231371268"/><linearGradient id="c" gradientUnits="userSpaceOnUse" x1="283.6826260168" x2="283.6826260168" xlink:href="#a" y1="6.7745660482" y2="81.0929038642"/><linearGradient id="d" gradientUnits="userSpaceOnUse" x1="171.4448491622" x2="171.4448491622" xlink:href="#a" y1="33.689614476" y2="90.3621156902"/><linearGradient id="e" gradientUnits="userSpaceOnUse" x1="314.2226360022" x2="413.8267572322" xlink:href="#a" y1="109.0943966804" y2="177.2060871236"/><linearGradient id="f" gradientUnits="userSpaceOnUse" x1="170.7124880632" x2="170.7124880632" xlink:href="#a" y1="130.913436644" y2="202.8784808998"/><linearGradient id="g" gradientUnits="userSpaceOnUse" x1="256.4012464512" x2="256.4012464512" xlink:href="#a" y1="129.2655990732" y2="194.743801326"/><linearGradient id="h"><stop offset="0" stop-color="#e58200" stop-opacity="0"/><stop offset=".0396" stop-color="#e27f04" stop-opacity=".039216"/><stop offset=".4671" stop-color="#c15d2f" stop-opacity=".466667"/><stop offset=".8016" stop-color="#ad4949" stop-opacity=".8"/><stop offset="1" stop-color="#a64153"/></linearGradient><linearGradient id="i" gradientUnits="userSpaceOnUse" x1="389.4385804784" x2="240.8004993556" xlink:href="#h" y1="152.9449065028" y2="145.1802725782"/><linearGradient id="j" gradientUnits="userSpaceOnUse" x1="271.0120260626" x2="370.6161472926" xlink:href="#a" y1="79.7991495828" y2="147.9107396338"/><linearGradient id="k" gradientUnits="userSpaceOnUse" x1="150.1688306084" x2="249.7729518384" xlink:href="#a" y1="98.8410401178" y2="166.952730561"/><linearGradient id="l" gradientUnits="userSpaceOnUse" x1="376.9050158772" x2="131.5567190816" xlink:href="#h" y1="177.038632934" y2="164.2219623288"/><linearGradient id="m" gradientUnits="userSpaceOnUse" x1="295.2175894046" x2="295.2175894046" xlink:href="#a" y1="116.0826977224" y2="232.5524073758"/><linearGradient id="n" gradientUnits="userSpaceOnUse" x1="48.5875853916" x2="48.5875853916" xlink:href="#a" y1="148.4907053732" y2="207.8772093222"/><linearGradient id="o" gradientUnits="userSpaceOnUse" x1="87.9531740712" x2="87.9531740712" xlink:href="#a" y1="85.8718737608" y2="258.5352138344"/><linearGradient id="p" gradientUnits="userSpaceOnUse" x1="183.9358474706" x2="31.7832362102" xlink:href="#h" y1="223.230088076" y2="209.2232679398"/><linearGradient id="q" gradientUnits="userSpaceOnUse" x1="128.9666003216" x2="128.9666003216" xlink:href="#a" y1="145.7442759578" y2="222.693491767"/><linearGradient id="r" gradientUnits="userSpaceOnUse" x1="310.6891317388" x2="11.2953968186" xlink:href="#h" y1="189.4583527804" y2="189.4583527804"/><radialGradient id="s" cx="256.0943" cy="287.7444" gradientTransform="matrix(1.003922 0 0 .246362 -44.182638 217.97878)" gradientUnits="userSpaceOnUse" r="409.2625"><stop offset="0" stop-color="#a64153"/><stop offset=".1984" stop-color="#ad4949" stop-opacity=".8"/><stop offset=".5329" stop-color="#c15d2f" stop-opacity=".466667"/><stop offset=".9604" stop-color="#e27f04" stop-opacity=".039216"/><stop offset="1" stop-color="#e58200" stop-opacity="0"/></radialGradient><linearGradient id="t" gradientUnits="userSpaceOnUse" x1="3.509680532" x2="392.700122272" y1="140.2582437966" y2="529.4486855366"><stop offset="0" stop-color="#ff6e3a"/><stop offset=".1596" stop-color="#ff6440"/><stop offset=".4266" stop-color="#ff4b52"/><stop offset=".7662" stop-color="#ff216e"/><stop offset="1" stop-color="#ff0084"/></linearGradient><linearGradient id="u"><stop offset="0" stop-color="#ff0084" stop-opacity="0"/><stop offset=".0737" stop-color="#f4087e" stop-opacity=".07451"/><stop offset=".3347" stop-color="#d2216b" stop-opacity=".333333"/><stop offset=".583" stop-color="#ba335e" stop-opacity=".584314"/><stop offset=".8111" stop-color="#ab3d56" stop-opacity=".811765"/><stop offset="1" stop-color="#a64153"/></linearGradient><linearGradient id="v" gradientUnits="userSpaceOnUse" x1="211.817472" x2="211.817472" xlink:href="#u" y1="402.6276365334" y2="577.3147829668"/><linearGradient id="w" gradientUnits="userSpaceOnUse" x1="285.1320886004" x2="36.8542470166" xlink:href="#u" y1="348.01960052" y2="161.261998704"/><linearGradient id="x" gradientUnits="userSpaceOnUse" x1="373.2854754984" x2="26.6446614532" xlink:href="#u" y1="518.7327217164" y2="172.0919076712"/><linearGradient id="y" gradientUnits="userSpaceOnUse" x1="134.5940850926" x2="272.3496517354" xlink:href="#a" y1="280.040026212" y2="417.795693247"/><linearGradient id="z" gradientUnits="userSpaceOnUse" x1="238.6395572506" x2="59.022551444" xlink:href="#h" y1="345.1487851688" y2="275.3892571548"/><path d="m141.964844 238.023438h-23.433594c-8.089844 0-14.648438-6.554688-14.648438-14.644532v-208.730468c0-8.089844 6.558594-14.648438 14.648438-14.648438h23.433594c8.089844 0 14.648437 6.558594 14.648437 14.648438v208.726562c0 8.089844-6.558593 14.648438-14.648437 14.648438zm0 0" fill="url(#b)"/><path d="m295.402344 256.152344h-23.4375c-8.089844 0-14.648438-6.558594-14.648438-14.648438v-208.730468c0-8.089844 6.558594-14.648438 14.648438-14.648438h23.4375c8.089844 0 14.644531 6.558594 14.644531 14.648438v208.730468c0 8.089844-6.554687 14.648438-14.644531 14.648438zm0 0" fill="url(#c)"/><path d="m183.164062 275.925781h-23.4375c-8.089843 0-14.648437-6.558593-14.648437-14.648437v-208.730469c0-8.089844 6.558594-14.644531 14.648437-14.644531h23.4375c8.089844 0 14.644532 6.554687 14.644532 14.644531v208.730469c.003906 8.089844-6.554688 14.648437-14.644532 14.648437zm0 0" fill="url(#d)"/><path d="m386.765625 269.699219h-23.4375c-8.089844 0-14.644531-6.558594-14.644531-14.648438v-208.726562c0-8.089844 6.554687-14.648438 14.644531-14.648438h23.4375c8.089844 0 14.648437 6.558594 14.648437 14.648438v208.726562c0 8.089844-6.558593 14.648438-14.648437 14.648438zm0 0" fill="url(#e)"/><path d="m182.429688 320.234375h-23.4375c-8.085938 0-14.644532-6.558594-14.644532-14.648437v-208.730469c0-8.085938 6.558594-14.644531 14.644532-14.644531h23.4375c8.089843 0 14.648437 6.558593 14.648437 14.644531v208.730469c0 8.089843-6.558594 14.648437-14.648437 14.648437zm0 0" fill="url(#f)"/><path d="m268.121094 296.796875h-23.4375c-8.089844 0-14.648438-6.554687-14.648438-14.644531v-208.730469c0-8.089844 6.558594-14.648437 14.648438-14.648437h23.4375c8.085937 0 14.644531 6.558593 14.644531 14.648437v208.730469c0 8.085937-6.558594 14.644531-14.644531 14.644531zm0 0" fill="url(#g)"/><path d="m357.5625 33.140625-2.476562 1.074219c-3.863282 2.636718-6.40625 7.078125-6.40625 12.109375v208.730469c0 8.089843 6.558593 14.644531 14.648437 14.644531h23.4375c8.089844 0 14.644531-6.554688 14.644531-14.644531v-178.0625zm0 0" fill="url(#i)"/><path d="m343.554688 240.40625h-23.4375c-8.089844 0-14.644532-6.558594-14.644532-14.648438v-208.730468c0-8.089844 6.554688-14.648438 14.644532-14.648438h23.4375c8.089843 0 14.648437 6.558594 14.648437 14.648438v208.730468c0 8.089844-6.558594 14.648438-14.648437 14.648438zm0 0" fill="url(#j)"/><path d="m222.710938 259.445312h-23.4375c-8.085938 0-14.644532-6.554687-14.644532-14.644531v-208.730469c0-8.089843 6.558594-14.648437 14.644532-14.648437h23.4375c8.089843 0 14.648437 6.558594 14.648437 14.648437v208.730469c0 8.089844-6.558594 14.644531-14.648437 14.644531zm0 0" fill="url(#k)"/><path d="m363.328125 269.699219h23.4375c8.089844 0 14.648437-6.558594 14.648437-14.648438v-86.441406l-82.902343-82.898437c-2.679688-3.460938-6.863281-5.699219-11.578125-5.699219h-1.464844v145.746093c0 8.089844 6.558594 14.648438 14.648438 14.648438h23.4375c1.804687 0 3.527343-.34375 5.125-.941406v15.585937c0 8.089844 6.558593 14.648438 14.648437 14.648438zm0 0" fill="url(#l)"/><path d="m306.9375 318.039062h-23.4375c-8.089844 0-14.648438-6.558593-14.648438-14.648437v-208.730469c0-8.089844 6.558594-14.648437 14.648438-14.648437h23.4375c8.089844 0 14.644531 6.558593 14.644531 14.648437v208.730469c0 8.089844-6.554687 14.648437-14.644531 14.648437zm0 0" fill="url(#m)"/><path d="m60.304688 318.039062h-23.4375c-8.085938 0-14.644532-6.558593-14.644532-14.648437v-208.730469c0-8.089844 6.558594-14.648437 14.644532-14.648437h23.4375c8.089843 0 14.648437 6.558593 14.648437 14.648437v208.730469c0 8.089844-6.558594 14.648437-14.648437 14.648437zm0 0" fill="url(#n)"/><path d="m99.671875 279.222656h-23.4375c-8.089844 0-14.648437-6.558594-14.648437-14.648437v-208.730469c0-8.089844 6.558593-14.648438 14.648437-14.648438h23.4375c8.089844 0 14.648437 6.558594 14.648437 14.648438v208.730469c0 8.089843-6.558593 14.648437-14.648437 14.648437zm0 0" fill="url(#o)"/><path d="m222.710938 259.445312c8.089843 0 14.648437-6.554687 14.648437-14.644531v-34.304687l-85.222656-85.21875c-1.949219-2.449219-4.667969-4.246094-7.789063-5.054688v185.363282c0 8.089843 6.558594 14.648437 14.644532 14.648437h23.4375c8.089843 0 14.648437-6.558594 14.648437-14.648437v-46.320313c.71875.105469 1.449219.179687 2.195313.179687zm0 0" fill="url(#p)"/><path d="m140.683594 357.769531h-23.4375c-8.085938 0-14.644532-6.558593-14.644532-14.648437v-208.730469c0-8.089844 6.558594-14.644531 14.644532-14.644531h23.4375c8.089844 0 14.648437 6.554687 14.648437 14.644531v208.730469c0 8.089844-6.558593 14.648437-14.648437 14.648437zm0 0" fill="url(#q)"/><path d="m237.359375 60.878906v183.921875c0 5.417969-2.949219 10.136719-7.324219 12.671875v24.675782c0 8.089843 6.558594 14.648437 14.648438 14.648437h23.4375c.246094 0 .484375-.023437.730468-.035156v6.628906c0 8.089844 6.558594 14.644531 14.648438 14.644531h23.4375c8.089844 0 14.644531-6.554687 14.644531-14.644531v-62.988281h21.972657c1.804687 0 3.527343-.339844 5.128906-.9375v15.585937c0 8.089844 6.554687 14.648438 14.644531 14.648438h23.4375c8.089844 0 14.648437-6.558594 14.648437-14.648438v-30.121093zm0 0" fill="url(#r)"/><path d="m211.816406 151.863281c-65.914062 0-129.558594 3.292969-189.59375 9.402344v142.125c0 8.089844 6.558594 14.644531 14.644532 14.644531h23.4375c8.089843 0 14.648437-6.554687 14.648437-14.644531v-24.234375c.421875.035156.847656.0625 1.28125.0625h23.4375c1.003906 0 1.980469-.101562 2.929687-.292969v64.195313c0 8.089844 6.558594 14.644531 14.644532 14.644531h23.4375c8.089844 0 14.648437-6.554687 14.648437-14.644531v-23.367188c1.171875.300782 2.394531.480469 3.660157.480469h23.4375c4.046874 0 7.707031-1.640625 10.359374-4.292969.660157-.660156 1.261719-1.386718 1.789063-2.164062.789063-1.171875 1.414063-2.460938 1.84375-3.835938.140625-.457031.261719-.925781.359375-1.402344.195312-.953124.296875-1.941406.296875-2.953124v-39.75c.46875-1.4375.734375-2.964844.734375-4.558594v-1.90625c.089844.011718.183594.007812.277344.015625.390625.035156.785156.058593 1.1875.058593h23.4375c2.667968 0 5.164062-.726562 7.320312-1.972656v24.675782c0 2.023437.410156 3.949218 1.152344 5.703124.1875.4375.390625.867188.617188 1.28125.902343 1.660157 2.113281 3.125 3.5625 4.320313 2.53125 2.089844 5.777343 3.34375 9.316406 3.34375h23.4375c.246094 0 .488281-.023437.734375-.035156v6.628906c0 1.007813.101562 1.996094.296875 2.949219.097656.476562.21875.945312.359375 1.402344.429687 1.378906 1.054687 2.667968 1.84375 3.835937.527343.777344 1.125 1.503906 1.789062 2.167969 2.652344 2.648437 6.3125 4.289062 10.359375 4.289062h23.433594c4.046875 0 7.707031-1.640625 10.359375-4.289062.660156-.664063 1.261719-1.390625 1.789063-2.167969.789062-1.167969 1.414062-2.457031 1.84375-3.835937.140624-.457032.261718-.925782.359374-1.402344.195313-.953125.296876-1.941406.296876-2.949219v-62.988281h21.972656c.46875 0 .933594-.023438 1.390625-.070313.308593-.027343.605469-.078125.90625-.125.132812-.023437.265625-.035156.394531-.0625.394531-.070312.777344-.164062 1.15625-.269531.027344-.007812.054688-.011719.078125-.019531.410156-.113281.808594-.246094 1.203125-.390625v15.585937c0 1.011719.101562 2 .296875 2.953125.097656.476563.214844.945313.359375 1.402344.429688 1.375 1.054688 2.664062 1.84375 3.835938.527344.777343 1.125 1.503906 1.789062 2.164062 2.652344 2.652344 6.3125 4.292969 10.359376 4.292969h23.433593c4.046875 0 7.707031-1.640625 10.359375-4.292969.660156-.660156 1.261719-1.386719 1.789063-2.164062.789062-1.171876 1.414062-2.460938 1.84375-3.835938.140625-.457031.261719-.925781.359375-1.402344.195312-.953125.296875-1.941406.296875-2.953125v-93.785156c-60.042969-6.109375-123.683594-9.402344-189.601563-9.402344zm0 0" fill="url(#s)"/><path d="m405.1875 230.820312c12.296875 2.234376 20.390625 14.09375 18.039062 26.371094l-42.480468 221.789063-2.828125 14.753906c-2.226563 11.628906-13.089844 19.550781-24.839844 18.09375-44.035156-5.472656-91.617187-8.460937-141.261719-8.460937-49.640625 0-97.226562 2.988281-141.261718 8.460937-11.75 1.457031-22.609376-6.464844-24.839844-18.09375l-2.824219-14.753906-42.484375-221.789063c-2.351562-12.277344 5.742188-24.136718 18.039062-26.371094 47.257813-8.578124 100.078126-14.105468 156.15625-15.8125 4.449219-.136718 8.519532 2.535157 10.160157 6.675782 4.273437 10.753906 14.773437 18.355468 27.054687 18.355468 12.285156 0 22.785156-7.601562 27.054688-18.355468 1.644531-4.140625 5.714844-6.8125 10.164062-6.675782 56.078125 1.707032 108.898438 7.234376 156.152344 15.8125zm0 0" fill="url(#t)"/><path d="m19.425781 356.488281 23.464844 122.492188 2.824219 14.753906c2.230468 11.628906 13.089844 19.550781 24.839844 18.09375 44.035156-5.472656 91.621093-8.460937 141.261718-8.460937 49.644532 0 97.226563 2.988281 141.261719 8.460937 11.75 1.457031 22.613281-6.464844 24.839844-18.09375l2.828125-14.753906 23.460937-122.492188zm0 0" fill="url(#v)"/><path d="m353.078125 511.828125c11.75 1.457031 22.613281-6.464844 24.839844-18.09375l2.828125-14.757813 42.480468-221.789062c2.351563-12.273438-5.742187-24.136719-18.039062-26.367188-47.257812-8.578124-100.074219-14.105468-156.152344-15.8125-4.449218-.136718-8.519531 2.535157-10.164062 6.675782-4.269532 10.753906-14.769532 18.355468-27.054688 18.355468v263.328126c49.644532 0 97.226563 2.988281 141.261719 8.460937zm0 0" fill="url(#w)"/><path d="m353.078125 511.828125c11.75 1.457031 22.613281-6.464844 24.839844-18.09375l2.828125-14.757813 19.058594-99.5-56.097657-56.101562c-1.949219-3.199219-5.265625-5.53125-9.273437-6.074219-81.757813-11.070312-163.476563-11.070312-245.234375 0-7.160157.96875-12.121094 7.652344-10.988281 14.789063 3.410156 21.542968 6.820312 43.082031 10.234374 64.625.613282 3.882812 2.910157 7.089844 6.035157 8.984375l97.824219 97.824219c6.464843-.101563 12.96875-.15625 19.511718-.15625 49.644532 0 97.226563 2.988281 141.261719 8.460937zm0 0" fill="url(#x)"/><path d="m320.742188 407.457031c-72.671876-9.71875-145.175782-9.714843-217.847657 0-6.941406.925781-13.355469-3.832031-14.449219-10.742187-3.410156-21.542969-6.824218-43.082032-10.234374-64.625-1.132813-7.136719 3.828124-13.820313 10.992187-14.789063 81.757813-11.070312 163.472656-11.066406 245.230469 0 7.164062.96875 12.125 7.652344 10.992187 14.789063-3.410156 21.542968-6.824219 43.082031-10.234375 64.625-1.097656 6.914062-7.511718 11.667968-14.449218 10.742187zm0 0" fill="url(#y)"/><path d="m334.433594 317.300781c-40.878906-5.535156-81.746094-8.300781-122.617188-8.300781v91.167969c36.296875 0 72.589844 2.429687 108.925782 7.289062 6.9375.925781 13.355468-3.828125 14.449218-10.742187 3.410156-21.542969 6.824219-43.082032 10.234375-64.625 1.128907-7.136719-3.832031-13.820313-10.992187-14.789063zm0 0" fill="url(#z)"/></svg>