<svg height="512pt" viewBox="-55 0 512 512" width="512pt" xmlns="http://www.w3.org/2000/svg" xmlns:xlink="http://www.w3.org/1999/xlink"><linearGradient id="a"><stop offset="0" stop-color="#fffcf8"/><stop offset=".1875" stop-color="#faf8f6"/><stop offset=".4041" stop-color="#eceef2"/><stop offset=".6353" stop-color="#d5dcea"/><stop offset=".875" stop-color="#b5c4df"/><stop offset="1" stop-color="#a1b5d8"/></linearGradient><linearGradient id="b" gradientUnits="userSpaceOnUse" x1="200.795467" x2="200.795467" xlink:href="#a" y1="498.949234" y2="514.8226463108"/><linearGradient id="c"><stop offset="0" stop-color="#a1b5d8" stop-opacity="0"/><stop offset=".0343" stop-color="#9fb3d5" stop-opacity=".035294"/><stop offset=".4515" stop-color="#8898af" stop-opacity=".45098"/><stop offset=".788" stop-color="#798898" stop-opacity=".788235"/><stop offset="1" stop-color="#748290"/></linearGradient><linearGradient id="d" gradientUnits="userSpaceOnUse" x1="223.705469001" x2="145.102392089" xlink:href="#c" y1="571.543335781" y2="269.2786851174"/><linearGradient id="e" gradientUnits="userSpaceOnUse" x1="142.567991" x2="387.5022703628" xlink:href="#a" y1="286.6712321986" y2="286.6712321986"/><linearGradient id="f"><stop offset="0" stop-color="#45425a"/><stop offset="1" stop-color="#2d3251"/></linearGradient><linearGradient id="g" gradientUnits="userSpaceOnUse" x1="177.7652955356" x2="197.2968992222" xlink:href="#f" y1="9.0982439094" y2="76.7446165056"/><linearGradient id="h" gradientUnits="userSpaceOnUse" x1="233.8168709928" x2="156.1665160588" xlink:href="#c" y1="235.905607248" y2="-110.4244929382"/><linearGradient id="i" gradientUnits="userSpaceOnUse" x1="158.3282613014" x2="44.6011661598" xlink:href="#c" y1="279.3927976986" y2="165.6656021648"/><linearGradient id="j" gradientUnits="userSpaceOnUse" x1="83.2295749148" x2="378.1619808592" y1="300.486403625" y2="300.486403625"><stop offset="0" stop-color="#ff6e3a"/><stop offset=".1596" stop-color="#ff6440"/><stop offset=".4266" stop-color="#ff4b52"/><stop offset=".7662" stop-color="#ff216e"/><stop offset="1" stop-color="#ff0084"/></linearGradient><linearGradient id="k" gradientUnits="userSpaceOnUse" x1="167.0233301356" x2="-41.2393852346" y1="288.0991104592" y2="79.836395089"><stop offset="0" stop-color="#ff0084" stop-opacity="0"/><stop offset=".0737" stop-color="#f4087e" stop-opacity=".07451"/><stop offset=".3347" stop-color="#d2216b" stop-opacity=".333333"/><stop offset=".583" stop-color="#ba335e" stop-opacity=".584314"/><stop offset=".8111" stop-color="#ab3d56" stop-opacity=".811765"/><stop offset="1" stop-color="#a64153"/></linearGradient><linearGradient id="l" gradientUnits="userSpaceOnUse" x1="138.8657274484" x2="244.2830590194" y1="238.5566640734" y2="343.9739956444"><stop offset="0" stop-color="#ffd459"/><stop offset=".2296" stop-color="#ffd355"/><stop offset=".4362" stop-color="#ffcf4a"/><stop offset=".634" stop-color="#ffc838"/><stop offset=".825" stop-color="#ffbf1f"/><stop offset="1" stop-color="#ffb400"/></linearGradient><linearGradient id="m" gradientUnits="userSpaceOnUse" x1="199.511952723" x2="43.339838559" y1="317.8535514796" y2="161.6813369234"><stop offset="0" stop-color="#e58200" stop-opacity="0"/><stop offset=".0396" stop-color="#e27f04" stop-opacity=".039216"/><stop offset=".4671" stop-color="#c15d2f" stop-opacity=".466667"/><stop offset=".8016" stop-color="#ad4949" stop-opacity=".8"/><stop offset="1" stop-color="#a64153"/></linearGradient><linearGradient id="n" gradientUnits="userSpaceOnUse" x1="74.124102767" x2="129.9755965696" y1="210.527964971" y2="210.527964971"><stop offset="0" stop-color="#8be1e2"/><stop offset=".1873" stop-color="#87e1e1"/><stop offset=".3558" stop-color="#7ce2dd"/><stop offset=".5172" stop-color="#6ae2d7"/><stop offset=".6741" stop-color="#50e4ce"/><stop offset=".8278" stop-color="#2fe5c2"/><stop offset=".9772" stop-color="#07e7b4"/><stop offset="1" stop-color="#00e7b2"/></linearGradient><linearGradient id="o" gradientUnits="userSpaceOnUse" x1="88.858164" x2="103.916994" xlink:href="#f" y1="142.556924" y2="142.556924"/><linearGradient id="p" gradientUnits="userSpaceOnUse" x1="195.4394427378" x2="223.3078154968" xlink:href="#f" y1="63.0484098362" y2="159.5158771694"/><linearGradient id="q" gradientUnits="userSpaceOnUse" x1="200.795467" x2="200.795467" xlink:href="#c" y1="446.4106827974" y2="543.5372249236"/><linearGradient id="r" gradientUnits="userSpaceOnUse" x1="220.0590235126" x2="142.42242231" xlink:href="#c" y1="442.2343672774" y2="228.0643740748"/><path d="m313.699219 512h-225.808594c-6.3125 0-11.433594-5.117188-11.433594-11.433594v-27.628906h248.671875v27.628906c.003906 6.316406-5.117187 11.433594-11.429687 11.433594zm0 0" fill="url(#b)"/><path d="m76.460938 472.9375v21.011719l.5-.050781 18.101562 18.101562h218.636719c6.3125 0 11.433593-5.117188 11.433593-11.433594v-27.628906zm0 0" fill="url(#d)"/><path d="m324.628906 493.898438h-247.667968c-10.296876 0-18.886719-7.863282-19.792969-18.121094l-35.015625-396.335938h357.285156l-35.015625 396.335938c-.90625 10.257812-9.496094 18.121094-19.792969 18.121094zm0 0" fill="url(#e)"/><path d="m381.582031 88.859375h-361.574219l25.828126-73.066406c3.34375-9.464844 12.292968-15.792969 22.332031-15.792969h265.253906c10.039063 0 18.988281 6.328125 22.335937 15.792969zm0 0" fill="url(#g)"/><path d="m348.191406 433.113281 31.246094-353.671875h-357.285156l2.675781 30.3125zm0 0" fill="url(#h)"/><path d="m127.488281 176.414062c-.816406-1.144531-1.855469-2.136718-3.082031-2.898437l-22.308594-13.859375c-3.496094-2.171875-7.921875-2.171875-11.421875 0l-22.304687 13.859375c-3.179688 1.972656-5.113282 5.449219-5.113282 9.191406v69.496094c0 3.613281 1.773438 6.800781 4.492188 8.765625l121.800781 121.800781c1.96875 2.71875 5.15625 4.492188 8.765625 4.492188h44.613282c5.976562 0 10.824218-4.84375 10.824218-10.820313v-69.496094c0-3.476562-1.683594-6.707031-4.464844-8.730468zm0 0" fill="url(#i)"/><path d="m361.164062 379.46875 14.53125-156c.578126-6.21875-4.316406-11.589844-10.5625-11.589844h-328.675781c-6.246093 0-11.140625 5.371094-10.558593 11.589844l14.527343 156c.507813 5.453125 5.085938 9.625 10.5625 9.625h299.617188c5.476562 0 10.050781-4.171875 10.558593-9.625zm0 0" fill="url(#j)"/><path d="m63.257812 252.203125c0 3.613281 1.773438 6.800781 4.492188 8.765625l121.800781 121.800781c1.96875 2.71875 5.15625 4.492188 8.765625 4.492188h44.613282c5.976562 0 10.824218-4.84375 10.824218-10.820313v-69.496094c0-3.476562-1.683594-6.707031-4.464844-8.730468l-86.332031-86.335938h-99.699219zm0 0" fill="url(#k)"/><path d="m263.199219 300.488281c0 34.464844-27.9375 62.402344-62.402344 62.402344-34.46875 0-62.40625-27.9375-62.40625-62.402344 0-34.46875 27.9375-62.40625 62.40625-62.40625 34.464844 0 62.402344 27.9375 62.402344 62.40625zm0 0" fill="url(#l)"/><path d="m253.753906 333.492188v-26.546876c0-3.476562-1.683594-6.707031-4.464844-8.730468l-59.199218-59.199219c-29.359375 5.078125-51.699219 30.65625-51.699219 61.472656 0 34.464844 27.941406 62.402344 62.40625 62.402344 22.339844 0 41.929687-11.746094 52.957031-29.398437zm0 0" fill="url(#m)"/><path d="m124.40625 173.515625-22.308594-13.859375c-3.496094-2.171875-7.921875-2.171875-11.421875 0l-22.304687 13.859375c-3.179688 1.972656-5.113282 5.449219-5.113282 9.191406v69.496094c0 5.976563 4.847657 10.824219 10.824219 10.824219h44.613281c5.976563 0 10.820313-4.847656 10.820313-10.824219v-69.496094c0-3.742187-1.933594-7.21875-5.109375-9.191406zm-28.019531 19.738281c-5.40625 0-9.789063-4.382812-9.789063-9.789062 0-5.402344 4.382813-9.785156 9.789063-9.785156s9.789062 4.382812 9.789062 9.785156c0 5.40625-4.382812 9.789062-9.789062 9.789062zm0 0" fill="url(#n)"/><path d="m96.386719 189.742188c-4.15625 0-7.527344-3.371094-7.527344-7.53125v-79.308594c0-4.160156 3.371094-7.53125 7.527344-7.53125 4.160156 0 7.53125 3.371094 7.53125 7.53125v79.308594c0 4.160156-3.371094 7.53125-7.53125 7.53125zm0 0" fill="url(#o)"/><path d="m386.941406 109.457031h-372.292968c-8.089844 0-14.648438-6.558593-14.648438-14.648437v-26.441406c0-8.089844 6.558594-14.648438 14.648438-14.648438h372.292968c8.089844 0 14.648438 6.558594 14.648438 14.648438v26.441406c0 8.089844-6.558594 14.648437-14.648438 14.648437zm0 0" fill="url(#p)"/><path d="m49.511719 389.09375 7.65625 86.683594c.90625 10.257812 9.5 18.121094 19.796875 18.121094h247.664062c10.296875 0 18.886719-7.863282 19.792969-18.121094l7.660156-86.683594zm0 0" fill="url(#q)"/><path d="m324.628906 493.898438c10.296875 0 18.886719-7.863282 19.792969-18.121094l7.660156-86.683594h-302.570312l104.804687 104.804688zm0 0" fill="url(#r)"/></svg>