<svg height="512pt" viewBox="-16 0 512 512" width="512pt" xmlns="http://www.w3.org/2000/svg" xmlns:xlink="http://www.w3.org/1999/xlink"><linearGradient id="a"><stop offset="0" stop-color="#ffd459"/><stop offset=".2296" stop-color="#ffd355"/><stop offset=".4362" stop-color="#ffcf4a"/><stop offset=".634" stop-color="#ffc838"/><stop offset=".825" stop-color="#ffbf1f"/><stop offset="1" stop-color="#ffb400"/></linearGradient><linearGradient id="b" gradientUnits="userSpaceOnUse" x1="132.0213718952" x2="576.1561635186" xlink:href="#a" y1="229.5910382602" y2="789.0300864872"/><linearGradient id="c"><stop offset="0" stop-color="#e58200" stop-opacity="0"/><stop offset=".0396" stop-color="#e27f04" stop-opacity=".039216"/><stop offset=".4671" stop-color="#c15d2f" stop-opacity=".466667"/><stop offset=".8016" stop-color="#ad4949" stop-opacity=".8"/><stop offset="1" stop-color="#a64153"/></linearGradient><linearGradient id="d" gradientUnits="userSpaceOnUse" x1="412.651603851" x2="412.651603851" xlink:href="#c" y1="99.8931503738" y2="1285.628034771"/><linearGradient id="e" gradientUnits="userSpaceOnUse" x1="172.5131602744" x2="788.8599286402" xlink:href="#c" y1="166.5336935182" y2="775.0675393112"/><linearGradient id="f" gradientUnits="userSpaceOnUse" x1="115.9663500946" x2="329.500760279" xlink:href="#a" y1="-43.9956769436" y2="169.5386328486"/><linearGradient id="g" gradientUnits="userSpaceOnUse" x1="350.5889450266" x2="350.5889450266" xlink:href="#c" y1="86.5923885802" y2="279.964732062"/><linearGradient id="h" gradientUnits="userSpaceOnUse" x1="240.232518" x2="240.232518" xlink:href="#c" y1="483.5283897268" y2="611.1648241784"/><linearGradient id="i" gradientUnits="userSpaceOnUse" x1="310.9933578168" x2="-256.7401943664" xlink:href="#c" y1="323.259370273" y2="131.8446746912"/><linearGradient id="j" gradientUnits="userSpaceOnUse" x1="177.2706462402" x2="379.3012146188" y1="186.4485946244" y2="413.096334365"><stop offset="0" stop-color="#ff6e3a"/><stop offset=".1596" stop-color="#ff6440"/><stop offset=".4266" stop-color="#ff4b52"/><stop offset=".7662" stop-color="#ff216e"/><stop offset="1" stop-color="#ff0084"/></linearGradient><linearGradient id="k"><stop offset="0" stop-color="#45425a"/><stop offset="1" stop-color="#2d3251"/></linearGradient><linearGradient id="l" gradientUnits="userSpaceOnUse" x1="33.5424464428" x2="148.1586149076" xlink:href="#k" y1="360.9911762898" y2="360.9911762898"/><linearGradient id="m" gradientUnits="userSpaceOnUse" x1="33.5424464428" x2="148.1586149076" xlink:href="#k" y1="409.9884930296" y2="409.9884930296"/><linearGradient id="n" gradientUnits="userSpaceOnUse" x1="33.5424464428" x2="124.8110033068" xlink:href="#k" y1="458.9859101616" y2="458.9859101616"/><path d="m480.464844 254.65625-80.070313-121.578125h-320.324219l-80.070312 121.578125v235.625c0 11.996094 9.722656 21.71875 21.71875 21.71875h437.027344c11.996094 0 21.71875-9.722656 21.71875-21.71875zm0 0" fill="url(#b)"/><path d="m400.394531 133.078125h-55.554687l80.066406 121.578125v235.625c0 11.996094-9.722656 21.71875-21.714844 21.71875h55.558594c11.992188 0 21.714844-9.722656 21.714844-21.71875v-235.625zm0 0" fill="url(#d)"/><path d="m400.394531 133.078125h-320.324219l-80.070312 121.578125h480.464844zm0 0" fill="url(#e)"/><path d="m353.519531 0h-226.574219c-25.886718 0-46.875 20.992188-46.875 46.878906v86.199219h320.324219v-86.199219c0-25.886718-20.988281-46.878906-46.875-46.878906zm-55.578125 62.269531c-3.773437 3.761719-8.984375 6.09375-14.738281 6.09375h-136.074219c-11.511718 0-20.832031-9.324219-20.832031-20.835937 0-5.753906 2.328125-10.964844 6.09375-14.742188 3.773437-3.761718 8.984375-6.09375 14.738281-6.09375h136.074219c11.511719 0 20.835937 9.324219 20.835937 20.835938 0 5.753906-2.332031 10.964844-6.097656 14.742187zm0 0" fill="url(#f)"/><path d="m353.519531 0h-52.738281c25.890625 0 46.878906 20.988281 46.878906 46.878906v86.199219h52.734375v-86.199219c0-25.890625-20.988281-46.878906-46.875-46.878906zm0 0" fill="url(#g)"/><path d="m0 411.476562v78.804688c0 11.996094 9.722656 21.71875 21.71875 21.71875h437.027344c11.996094 0 21.71875-9.722656 21.71875-21.71875v-78.804688zm0 0" fill="url(#h)"/><path d="m181.289062 335.253906 176.742188 176.746094h77.625c11.996094 0 21.71875-9.722656 21.71875-21.71875v-159.507812l-197.695312-197.695313h-85.074219v191.933594c0 4.578125 2.75 8.507812 6.683593 10.242187zm0 0" fill="url(#i)"/><path d="m248.480469 336.210938h-62.675781c-6.183594 0-11.199219-5.011719-11.199219-11.199219v-191.933594h85.074219v191.933594c0 6.1875-5.015626 11.199219-11.199219 11.199219zm0 0" fill="url(#j)"/><path d="m33.542969 351.078125h114.613281v19.828125h-114.613281zm0 0" fill="url(#l)"/><path d="m33.542969 400.074219h114.613281v19.828125h-114.613281zm0 0" fill="url(#m)"/><path d="m33.542969 449.070312h91.265625v19.828126h-91.265625zm0 0" fill="url(#n)"/></svg>