<svg height="512pt" viewBox="0 -1 512.00057 512" width="512pt" xmlns="http://www.w3.org/2000/svg" xmlns:xlink="http://www.w3.org/1999/xlink"><linearGradient id="a"><stop offset="0" stop-color="#ffd459"/><stop offset=".2296" stop-color="#ffd355"/><stop offset=".4362" stop-color="#ffcf4a"/><stop offset=".634" stop-color="#ffc838"/><stop offset=".825" stop-color="#ffbf1f"/><stop offset="1" stop-color="#ffb400"/></linearGradient><linearGradient id="b" gradientTransform="matrix(.709873 .709873 -.709873 .709873 273.012154 -99.645902)" gradientUnits="userSpaceOnUse" x1="-7.4875" x2="261.1159" xlink:href="#a" y1="-23.2413" y2="245.3621"/><linearGradient id="c" gradientTransform="matrix(.709873 .709873 -.709873 .709873 273.012154 -99.645902)" gradientUnits="userSpaceOnUse" x1="529.4701" x2="222.172" y1="466.7211" y2="159.4229"><stop offset="0" stop-color="#ffb211" stop-opacity="0"/><stop offset=".1624" stop-color="#ffaa14" stop-opacity=".160784"/><stop offset=".4095" stop-color="#ff951e" stop-opacity=".407843"/><stop offset=".7088" stop-color="#ff732d" stop-opacity=".709804"/><stop offset="1" stop-color="#ff4b3e"/></linearGradient><linearGradient id="d" gradientTransform="matrix(.709873 .709873 -.709873 .709873 273.012154 -99.645902)" gradientUnits="userSpaceOnUse" x1="323.9152" x2="469.4005" y1="261.1661" y2="406.6515"><stop offset="0" stop-color="#e58200" stop-opacity="0"/><stop offset=".0396" stop-color="#e27f04" stop-opacity=".039216"/><stop offset=".4671" stop-color="#c15d2f" stop-opacity=".466667"/><stop offset=".8016" stop-color="#ad4949" stop-opacity=".8"/><stop offset="1" stop-color="#a64153"/></linearGradient><linearGradient id="e" gradientTransform="matrix(.709873 .709873 -.709873 .709873 273.012154 -99.645902)" gradientUnits="userSpaceOnUse" x1="178.4184" x2="178.4184" y1="240.6587" y2="544.4731"><stop offset="0" stop-color="#c6e56f"/><stop offset=".3371" stop-color="#c4e56f"/><stop offset=".4953" stop-color="#bce36e"/><stop offset=".6162" stop-color="#afe16d"/><stop offset=".7182" stop-color="#9ddd6b"/><stop offset=".8083" stop-color="#85d968"/><stop offset=".8899" stop-color="#68d365"/><stop offset=".9635" stop-color="#46cd61"/><stop offset="1" stop-color="#32c95f"/></linearGradient><linearGradient id="f" gradientTransform="matrix(.709873 .709873 -.709873 .709873 273.012154 -99.645902)" gradientUnits="userSpaceOnUse" x1="298.6144" x2="298.6144" y1="240.6587" y2="544.4731"><stop offset="0" stop-color="#c6e56f"/><stop offset=".0271" stop-color="#bdda6b"/><stop offset=".115" stop-color="#a4be60"/><stop offset=".2136" stop-color="#8fa657"/><stop offset=".3252" stop-color="#7f9450"/><stop offset=".4576" stop-color="#74874b"/><stop offset=".6309" stop-color="#6e7f48"/><stop offset="1" stop-color="#6c7d47"/></linearGradient><linearGradient id="g" gradientTransform="matrix(.709873 .709873 -.709873 .709873 273.012154 -99.645902)" gradientUnits="userSpaceOnUse" x1="-28.9853" x2="487.4634" y1="-68.7518" y2="447.6969"><stop offset="0" stop-color="#ff6e3a"/><stop offset=".1596" stop-color="#ff6440"/><stop offset=".4266" stop-color="#ff4b52"/><stop offset=".7662" stop-color="#ff216e"/><stop offset="1" stop-color="#ff0084"/></linearGradient><linearGradient id="h" gradientTransform="matrix(.709873 .709873 -.709873 .709873 273.012154 -99.645902)" gradientUnits="userSpaceOnUse" x1="344.9544" x2="13.0311" y1="285.6281" y2="-46.2952"><stop offset="0" stop-color="#972e07" stop-opacity="0"/><stop offset="1" stop-color="#582707"/></linearGradient><linearGradient id="i" gradientTransform="matrix(.709873 .709873 -.709873 .709873 273.012154 -99.645902)" gradientUnits="userSpaceOnUse" x1="236.8904" x2="236.8904" xlink:href="#a" y1="83.4696" y2="473.0199"/><linearGradient id="j"><stop offset="0" stop-color="#fffcf8"/><stop offset=".1875" stop-color="#faf8f6"/><stop offset=".4041" stop-color="#eceef2"/><stop offset=".6353" stop-color="#d5dcea"/><stop offset=".875" stop-color="#b5c4df"/><stop offset="1" stop-color="#a1b5d8"/></linearGradient><linearGradient id="k" gradientTransform="matrix(.709873 .709873 -.709873 .709873 273.012154 -99.645902)" gradientUnits="userSpaceOnUse" x1="146.8879" x2="184.5164" xlink:href="#j" y1="227.8253" y2="292.3312"/><linearGradient id="l" gradientTransform="matrix(.709873 .709873 -.709873 .709873 273.012154 -99.645902)" gradientUnits="userSpaceOnUse" x1="107.6859" x2="395.797" xlink:href="#j" y1="373.8628" y2="373.8628"/><linearGradient id="m"><stop offset="0" stop-color="#a1b5d8" stop-opacity="0"/><stop offset=".0343" stop-color="#9fb3d5" stop-opacity=".035294"/><stop offset=".4515" stop-color="#8898af" stop-opacity=".45098"/><stop offset=".788" stop-color="#798898" stop-opacity=".788235"/><stop offset="1" stop-color="#748290"/></linearGradient><linearGradient id="n" gradientTransform="matrix(.709873 .709873 -.709873 .709873 273.012154 -99.645902)" gradientUnits="userSpaceOnUse" x1="266.471" x2="172.3999" xlink:href="#m" y1="407.4106" y2="-147.609"/><linearGradient id="o" gradientTransform="matrix(.709873 .709873 -.709873 .709873 273.012154 -99.645902)" gradientUnits="userSpaceOnUse" x1="219.9007" x2="321.4377" xlink:href="#j" y1="210.8844" y2="357.2173"/><linearGradient id="p" gradientTransform="matrix(.709873 .709873 -.709873 .709873 273.012154 -99.645902)" gradientUnits="userSpaceOnUse" x1="237.5936" x2="237.5936" xlink:href="#m" y1="509.4734" y2="663.7532"/><path d="m478.601562 194.636719-230.675781 230.675781c-15.472656 15.472656-34.285156 25.574219-54.117187 30.292969l-137.417969-137.417969c4.71875-19.832031 14.820313-38.644531 30.292969-54.117188l230.675781-230.675781c32.835937-32.835937 80.726563-41.460937 121.472656-25.859375.214844.089844.4375.171875.667969.261719 1.21875.472656 2.433594.972656 3.644531 1.496094 10.054688 4.328125 19.621094 10.179687 28.332031 17.546875 1.738282 1.46875 3.441407 2.996094 5.113282 4.589844.675781.648437 1.347656 1.296874 2.015625 1.96875 1.691406 1.691406 3.320312 3.421874 4.875 5.1875 8.171875 9.226562 14.574219 19.460937 19.230469 30.273437.519531 1.207031 1.011718 2.421875 1.496093 3.644531.082031.222656.171875.4375.253907.660156 15.605468 40.742188 6.984374 88.632813-25.859376 121.472657zm0 0" fill="url(#b)"/><path d="m478.601562 194.636719-230.675781 230.675781c-15.472656 15.472656-34.285156 25.574219-54.117187 30.292969l-70.695313-70.699219 18.671875-18.671875c.015625 0 .019532-.003906.015625-.011719l193.828125-193.832031c.015625 0 .019532-.003906.015625-.011719l64.601563-64.605468c.007812-.003907.015625-.011719.015625-.011719l64.609375-64.613281s.003906-.003907.011718-.011719l11.710938-11.707031c.671875.648437 1.347656 1.296874 2.015625 1.964843 1.691406 1.691407 3.320313 3.421875 4.871094 5.1875 8.171875 9.230469 14.578125 19.460938 19.230469 30.273438.523437 1.210937 1.011718 2.425781 1.496093 3.644531.082031.222656.171875.441406.253907.664062 15.605468 40.742188 6.984374 88.632813-25.859376 121.472657zm0 0" fill="url(#c)"/><path d="m478.601562 194.636719-230.675781 230.675781c-15.472656 15.472656-34.285156 25.574219-54.117187 30.292969l-70.695313-70.699219 18.671875-18.671875c.015625 0 .019532-.003906.015625-.011719l193.828125-193.832031c.015625 0 .019532-.003906.015625-.011719l64.601563-64.605468c.007812-.003907.015625-.011719.015625-.011719l64.609375-64.613281s.003906-.003907.011718-.011719l11.710938-11.707031c.671875.648437 1.347656 1.296874 2.015625 1.964843 1.691406 1.691407 3.320313 3.421875 4.871094 5.1875 8.171875 9.230469 14.578125 19.460938 19.230469 30.273438.523437 1.210937 1.011718 2.425781 1.496093 3.644531.082031.222656.171875.441406.253907.664062 15.605468 40.742188 6.984374 88.632813-25.859376 121.472657zm0 0" fill="url(#d)"/><path d="m447.167969 5.265625-351.847657 351.851563-17.355468-17.355469c7.921875-12.988281 21.335937-24.429688 34.757812-28.855469l5.820313-1.914062c3.414062-1.125 6.816406-2.699219 10.105469-4.625 15.957031-9.304688 29.519531-26.890626 31.503906-42.332032l1.070312-8.371094c2.746094-21.367187 27.207032-45.828124 48.570313-48.570312l.019531-.003906c21.367188-2.734375 45.835938-27.203125 48.570312-48.570313 1.367188-10.691406 8.164063-22.148437 17.292969-31.273437 9.132813-9.132813 20.59375-15.9375 31.277344-17.296875l8.355469-1.070313c18.636718-2.390625 40.375-21.660156 46.949218-41.621094l1.929688-5.816406c5.660156-17.171875 22.824219-34.339844 39.996094-40l33.046875-10.898437 2.269531-.746094zm0 0" fill="url(#e)"/><path d="m249.972656 351.84375c-15.445312 1.976562-33.023437 15.550781-42.335937 31.511719-1.921875 3.292969-3.492188 6.683593-4.617188 10.101562l-1.914062 5.816407c-4.425781 13.421874-15.875 26.839843-28.867188 34.757812l-17.351562-17.347656 351.851562-351.851563-2.53125 7.667969-.726562 2.214844c0 .015625-.003907.019531-.011719.027344l-10.902344 33.070312c-5.660156 17.171875-22.824218 34.335938-39.996094 39.996094l-5.824218 1.921875c-19.957032 6.574219-39.222656 28.320312-41.613282 46.953125l-1.074218 8.363281c-2.734375 21.371094-27.195313 45.832031-48.570313 48.574219l-.007812.003906c-21.371094 2.734375-45.835938 27.203125-48.570313 48.570312-1.367187 10.691407-8.167968 22.144532-17.292968 31.273438-9.132813 9.132812-20.59375 15.9375-31.277344 17.296875zm0 0" fill="url(#f)"/><path d="m497.203125 82.457031-338.269531 338.269531-67.664063-67.664062 338.269531-338.269531c2.390626-2.390625 4.96875-4.472657 7.691407-6.253907.527343-.347656 1.0625-.679687 1.601562-1.003906 18.378907-10.988281 42.539063-8.566406 58.371094 7.261719 4.203125 4.203125 7.460937 8.988281 9.769531 14.109375 0 .011719.011719.023438.011719.035156.496094 1.082032.949219 2.195313 1.347656 3.308594.199219.554688.386719 1.101562.574219 1.652344 0 .015625.003906.03125.011719.050781.355469 1.082031.660156 2.175781.929687 3.28125.011719.066406.023438.117187.035156.167969.136719.566406.261719 1.136718.378907 1.710937 0 .011719.003906.03125.015625.054688.109375.578125.21875 1.160156.3125 1.738281.1875 1.175781.332031 2.351562.433594 3.535156.058593.589844.101562 1.183594.128906 1.78125.003906.03125.003906.070313.003906.109375.027344.546875.039062 1.09375.050781 1.640625v.0625c.007813.195313.007813.386719.007813.589844 0 .089844 0 .191406-.007813.273438 0 .292968 0 .574218-.003906.871093 0 0 0 0-.007813.007813-.011718.519531-.03125 1.046875-.0625 1.574218 0 .101563-.003906.210938-.011718.320313-.039063.507813-.078125 1.019531-.128906 1.539063 0 .039062-.003907.070312-.011719.113281-.058594.59375-.128907 1.183593-.203125 1.769531-.082032.589844-.171875 1.175781-.273438 1.761719-.101562.585937-.214844 1.167969-.339844 1.75-.074218.355469-.152343.710937-.234374 1.058593-.054688.222657-.113282.460938-.171876.683594-.0625.289063-.144531.578125-.222656.871094-.152344.558594-.316406 1.117188-.488281 1.671875-.007813.03125-.011719.0625-.027344.101563-.085937.265624-.175781.535156-.265625.800781-.089844.28125-.183594.566406-.292968.851562-.597657 1.691407-1.296876 3.359375-2.097657 5-.128906.265625-.261719.539063-.40625.8125-.121093.234375-.25.476563-.371093.710938-.363282.667969-.738282 1.335937-1.125 1.992187-.316407.523438-.636719 1.042969-.980469 1.550782 0 .015624-.003907.019531-.011719.027343-.101562.152344-.203125.304688-.304688.457031-.28125.433594-.574218.851563-.878906 1.273438-.132812.183594-.273437.375-.414062.566406-.203125.277344-.417969.558594-.628906.832032-.140626.175781-.28125.355468-.417969.535156-.140625.175781-.285157.359375-.433594.53125-.222656.273437-.453125.554687-.6875.816406-.261719.308594-.527344.617188-.800781.914062-.28125.304688-.550782.605469-.839844.902344-.28125.296875-.566406.597656-.859375.890625zm0 0" fill="url(#g)"/><path d="m497.203125 82.457031-338.269531 338.269531-39.890625-39.890624 10.367187-2.222657 1.246094-.269531c.273438-.144531.539062-.296875.808594-.449219.257812-.148437.519531-.308593.78125-.480469.523437-.328124 1.015625-.671874 1.511718-1.042968.464844-.335938.917969-.699219 1.351563-1.078125.0625-.039063.113281-.089844.171875-.148438.222656-.195312.441406-.394531.652344-.589843 1.324218-1.234376 2.5-2.613282 3.53125-4.117188.4375-.628906.839844-1.269531 1.214844-1.9375.007812-.007812.007812-.019531.007812-.019531.1875-.332031.367188-.675781.539062-1.023438.203126-.394531.394532-.800781.558594-1.222656.132813-.296875.253906-.597656.375-.894531.425782-1.101563.777344-2.226563 1.039063-3.390625.265625-1.160157.449219-2.347657.550781-3.554688.035156-.402343.050781-.816406.066406-1.222656v-.125c.054688-1.710937.222656-3.402344.476563-5.058594.15625-.984375.34375-1.972656.570312-2.9375.070313-.324219.152344-.648437.234375-.960937-.003906-.007813-.003906-.007813 0-.011719.140625-.523437.28125-1.042969.433594-1.566406.160156-.527344.332031-1.054688.515625-1.570313.386719-1.140625.828125-2.253906 1.304687-3.339844.265626-.597656.539063-1.1875.832032-1.761718.242187-.496094.503906-.984375.769531-1.46875.515625-.933594 1.0625-1.851563 1.648437-2.742188.636719-.964844 1.308594-1.90625 2.015626-2.816406.242187-.304688.476562-.601562.726562-.902344.070312-.082031.136719-.175781.222656-.261718.355469-.433594.722656-.851563 1.105469-1.257813l-.007813-.007813c.234376-.257812.472657-.507812.714844-.761718.984375-1.023438 2.015625-2.003906 3.089844-2.925782 1.101562-.945312 2.253906-1.832031 3.449219-2.65625 4.769531-3.285156 10.246093-5.605468 16.140625-6.691406.496094-.089844.984375-.171875 1.488281-.242187.035156-.015625.082031-.019531.125-.027344.019531-.003906.039063-.011719.0625-.011719 1.59375-.34375 10.871094-2.335937 14.285156-3.066406.707031-.160156 1.164063-.261719 1.242188-.273438 1.652343-.890624 3.199219-1.964843 4.605469-3.191406.074218-.0625.144531-.121094.222656-.183594.394531-.359374.773437-.726562 1.15625-1.109374.109375-.105469.210937-.207032.3125-.324219.34375-.355469.671875-.722657.992187-1.105469.132813-.144531.253907-.304688.386719-.464844.28125-.355468.558594-.710937.828125-1.078125.15625-.222656.308594-.453125.457031-.675781.207032-.324219.433594-.648438.640625-.972656.007813-.003906.007813-.003906.007813-.019532.34375-.570312.671875-1.15625.972656-1.761718.203125-.40625.386719-.804688.566406-1.226563.277344-.648437.539063-1.316406.769532-1.992187.246093-.742188.457031-1.511719.636718-2.289063.265625-1.15625.449219-2.347656.550782-3.554687.035156-.402344.054687-.8125.066406-1.222656v-.125c.054687-1.710938.222656-3.402344.476562-5.054688.15625-.988281.34375-1.972656.570313-2.941406.070312-.324219.152343-.648438.234375-.960938-.003906-.003906-.003906-.003906 0-.011718.136718-.527344.28125-1.042969.433594-1.5625.160156-.53125.332031-1.058594.515624-1.574219.164063-.519531.355469-1.027344.554688-1.542969.203125-.523438.410156-1.039062.640625-1.546875 1.367187-3.148437 3.109375-6.085937 5.171875-8.769531.296875-.398438.609375-.789063.925781-1.171875.855469-1.042969 1.761719-2.039063 2.71875-2.992188.386719-.390625.773438-.765625 1.179688-1.132812.359375-.332031.71875-.65625 1.089843-.972657.136719-.128906.289063-.253906.4375-.375.375-.3125.75-.625 1.144532-.929687.8125-.636719 1.648437-1.242187 2.511718-1.8125.394532-.269531.792969-.53125 1.195313-.777344.09375-.058593.195313-.121093.300781-.183593.4375-.261719.890625-.523438 1.332032-.777344.007812-.007813.019531-.019532.039062-.023438.472656-.257812.949219-.515625 1.429688-.757812.3125-.160156.617187-.3125.9375-.464844.941406-.445312 1.898437-.859375 2.878906-1.242188.65625-.246093 1.3125-.480468 1.980468-.703124.667969-.222657 1.339844-.425782 2.027344-.617188.40625-.117188.820313-.222656 1.234375-.320312 1.246094-.292969 2.511719-.539063 3.789063-.722657.039062-.015625.082031-.019531.128906-.027343.011719-.011719.023438-.011719.042969-.003907 1.519531-.339843 10.863281-2.328125 14.257812-3.054687.703125-.152344 1.152344-.246094 1.222657-.265625.800781-.433594 1.570312-.898438 2.316406-1.414063.035156-.023437.070312-.042968.105468-.070312.300782-.207032.597657-.421875.886719-.640625.234375-.179688.476563-.351563.707031-.539063.1875-.152344.367188-.304687.550782-.464844 2.832031-2.449218 5.109375-5.515624 6.601562-8.992187.332032-.738281.617188-1.496094.871094-2.273437.082031-.257813.167969-.519532.234375-.78125.007813-.003907 0-.011719 0-.011719.21875-.75.394531-1.515625.535156-2.289063.078125-.394531.132813-.785156.191407-1.183594.101562-.789062.175781-1.589843.203124-2.40625v-.136718c.199219-6.191406 1.734376-12.039063 4.351563-17.273438.09375-.199218.191406-.394531.296875-.59375.089844-.175781.1875-.363281.28125-.535156.535156-.988281 1.105469-1.957031 1.71875-2.910156.082031-.132813.164062-.253906.246094-.375 2.164062-3.28125 4.785156-6.234375 7.761718-8.777344 4.316407-3.683594 9.386719-6.511719 14.9375-8.210938.375-.121093.746094-.222656 1.121094-.332031 1.640625-.441406 3.304688-.800781 5.015625-1.046875.011719 0 .03125-.007812.042969-.019531h.015625c1.074219-.300781 11.675781-4.109375 17.46875-6.136719 2.042969-.71875 3.488281-1.207031 3.722656-1.253906 2.046875-1.972656 3.765625-4.285156 5.042969-6.847656.179688-.34375.335938-.695313.496094-1.042969.023437-.066406.058594-.121094.070312-.1875.132813-.296875.253906-.597656.375-.894531.425782-1.101563.777344-2.226563 1.039063-3.390625.265625-1.15625.449219-2.347657.550781-3.554688.03125-.402343.050781-.816406.0625-1.222656.109375-3.4375.636719-6.777344 1.523438-9.964844.152343-.519531.308593-1.046875.476562-1.570312.566406-1.75 1.246094-3.460938 2.035156-5.101563.378906-.8125.792969-1.609375 1.230469-2.390625.433594-.777343.898437-1.546875 1.382813-2.296875.070312-.109375.144531-.222656.222656-.335937 1.570312-2.375 3.371094-4.578125 5.375-6.582031.386718-.390626.78125-.773438 1.1875-1.140626.402344-.375.800781-.738281 1.222656-1.09375.417969-.355468.84375-.707031 1.277344-1.050781.648437-.507812 1.308594-1.003906 1.988281-1.480469 1.363281-.941406 2.773437-1.804687 4.238281-2.59375.730469-.386718 1.480469-.757812 2.238282-1.105468 1.015624-.472656 2.046874-.890625 3.097656-1.28125 1.054687-.378906 2.128906-.730469 3.21875-1.027344 1.632812-.453125 3.304687-.800781 5.015625-1.050781.019531-.003907.039062-.011719.058593-.019531 1.082032-.292969 11.675782-4.105469 17.476563-6.144532 2.035156-.710937 3.480469-1.199218 3.714844-1.246094 2.046875-1.972656 3.765625-4.285156 5.042969-6.847656.179687-.34375.335937-.695312.496093-1.042968.027344-.066407.058594-.121094.070313-.1875.132812-.296876.253906-.597657.375-.894532.988281-2.550781 1.558594-5.296875 1.652344-8.167968.191406-6.191407 1.738281-12.050782 4.347656-17.277344.144531-.300782.289062-.585938.445312-.867188 0 0 0-.011718.003906-.019531.304688-.570313.609376-1.132813.941407-1.675781.363281-.628906.75-1.25 1.160156-1.859375.386719-.589844.792969-1.175781 1.21875-1.742188.414063-.566406.847656-1.125 1.292969-1.671875 0 0 0 0 .003906-.007812 2.238281-2.734375 4.816406-5.183594 7.671875-7.273438.613281-.464844 1.25-.910156 1.898437-1.328125.046876-.035156.089844-.066406.140626-.089843.40625-.269532.828124-.523438 1.246093-.777344.847657-.5 1.707031-.980469 2.582031-1.425782.441407-.222656.886719-.4375 1.335938-.648437.03125-.019531.078125-.035156.121094-.054687.332031-.152344.667968-.300782 1.003906-.445313.683594-.285156 1.367188-.566406 2.0625-.816406.351562-.132813.699219-.253907 1.054688-.367188.035156-.019531.0625-.023437.101562-.039062.433594-.136719.878906-.277344 1.316406-.414063.019532-.003906.039063-.011718.058594-.015625.960938-.273437 1.925781-.53125 2.910156-.738281.039063-.015625.089844-.027344.140625-.039062 1.535157-.453126 13.285157-3.847657 19.117188-5.546876 1.914062-.566406 3.199219-.933593 3.257812-.953124.171875-.132813.332031-.265626.488281-.414063.171876-.132813.324219-.273437.484376-.417969.164062-.140625.316406-.28125.464843-.441406.449219-.425781.894531-.871094 1.308594-1.332031.757813-.835938 1.449219-1.71875 2.085937-2.648438.222657-.308593.4375-.628906.636719-.964843.40625-.648438.78125-1.328126 1.125-2.015626.203125-.394531.394531-.800781.566407-1.230468.148437-.324219.28125-.660156.40625-.988282.128906-.332031.25-.667968.363281-1.011718.171875-.503906.324219-1.023438.457031-1.554688.167969-.621094.304688-1.246094.414062-1.886718.21875-1.183594.34375-2.378907.382813-3.613282.101563-3.179687 1.9375-5.894531 4.585937-7.257812 1.234376-.636719 2.644532-.964844 4.125-.921875l1.019532.101562 30.347656 2.886719c0 .015625.015625.027344.015625.039062.488281 1.085938.945313 2.195313 1.347656 3.308594.199219.550782.386719 1.097656.570313 1.652344 0 .011719.007812.03125.015625.050781.347656 1.085938.65625 2.183594.925781 3.28125.015625.0625.027344.117188.039062.167969.132813.566406.261719 1.136719.375 1.710938 0 .011718.007813.03125.019532.054687.109375.578125.214844 1.160156.3125 1.738281.183594 1.175782.332031 2.351563.433594 3.535156.058593.589844.101562 1.179688.128906 1.78125.003906.03125.003906.070313.003906.105469.027344.546875.039062 1.097657.050781 1.640625v.066406c0 .289063.007813.578126 0 .863282 0 .292968 0 .574218-.003906.871094 0 0 0 0-.007813.007812-.011718.519531-.03125 1.046875-.0625 1.574219 0 .101562-.007812.210937-.011718.320312-.039063.507813-.078125 1.019531-.128906 1.539063 0 .039062-.007813.070312-.011719.113281-.058594.59375-.128907 1.183594-.207031 1.769531-.082032.589844-.167969 1.175782-.269532 1.761719-.101562.585937-.21875 1.171875-.339844 1.75-.074218.355469-.152343.710937-.234374 1.058594-.058594.226562-.113282.460937-.171876.683593-.0625.289063-.144531.578126-.222656.871094-.152344.558594-.316406 1.117188-.488281 1.671875-.007813.03125-.015625.0625-.027344.101563-.089843.265625-.175781.535156-.265625.800781-.089844.28125-.183594.566406-.292968.851563-.597657 1.691406-1.296876 3.359374-2.097657 5-.128906.265624-.261719.539062-.410156.8125-.121094.234374-.246094.476562-.367187.710937-.363282.667969-.738282 1.335937-1.125 1.992187-.320313.523438-.636719 1.042969-.980469 1.550782 0 .015625-.003907.019531-.011719.027344-.101562.152343-.203125.304687-.304688.457031-.289062.425781-.574218.851562-.878906 1.273437-.132812.183594-.273437.375-.414062.566406-.203125.277344-.417969.558594-.628906.832032-.140626.175781-.28125.355468-.417969.535156-.140625.175781-.289063.359375-.433594.53125-.222656.273438-.453125.554688-.6875.816406-.261719.308594-.527344.617188-.800781.914063-.28125.304687-.554688.605469-.839844.90625-.28125.289062-.566406.589843-.859375.882812zm0 0" fill="url(#h)"/><path d="m184.644531 333.578125c-7.207031.273437-13.632812 3.625-18.011719 8.773437-3.542968 4.15625-5.742187 9.496094-5.925781 15.339844v.128906c-.585937 17.234376-11.644531 31.855469-26.996093 37.683594l-14.210938-14.210937c.0625 0 .121094-.003907.183594-.003907h.128906c3.160156-.109374 6.175781-.820312 8.9375-2.015624.65625-.273438 1.296875-.585938 1.90625-.929688.28125-.140625.542969-.285156.808594-.453125.261718-.144531.523437-.304687.78125-.476563.523437-.316406 1.03125-.671874 1.515625-1.042968.464843-.335938.914062-.699219 1.347656-1.082032.0625-.035156.113281-.085937.171875-.144531 1.589844-1.375 2.996094-2.957031 4.183594-4.707031.441406-.628906.839844-1.273438 1.214844-1.9375.007812-.007812.007812-.019531.007812-.019531.191406-.332031.367188-.675781.539062-1.027344.203126-.394531.394532-.800781.558594-1.21875.015625 0 .019532-.007813.015625-.011719.125-.292968.253907-.585937.363281-.886718.425782-1.097657.773438-2.226563 1.035157-3.390626.265625-1.15625.453125-2.347656.554687-3.554687.03125-.398437.050782-.8125.0625-1.21875v-.128906c.054688-1.710938.222656-3.402344.476563-5.054688.203125-1.324219.476562-2.628906.808593-3.898437-.007812-.007813-.007812-.007813 0-.015625.140626-.519531.28125-1.042969.433594-1.5625.15625-.527344.328125-1.058594.511719-1.570313.382813-1.144531.820313-2.257812 1.304687-3.339844.269532-.597656.542969-1.191406.835938-1.761718.242188-.496094.5-.988282.769531-1.46875.515625-.933594 1.0625-1.851563 1.644531-2.742188.847657-1.289062 1.757813-2.53125 2.742188-3.71875.070312-.082031.140625-.179687.222656-.261718.355469-.433594.71875-.859376 1.101563-1.265626 1.183593-1.3125 2.453125-2.542968 3.800781-3.691406 5.878906-5.035156 13.171875-8.476562 21.207031-9.613281.015625-.007813.035157-.015625.0625-.015625 1.5-.214844 3.019531-.351562 4.566407-.394531h.191406c3.132812-.121094 6.125-.820313 8.859375-2.003907 5.425781-2.332031 9.871093-6.550781 12.488281-11.828124.210938-.398438.410156-.824219.585938-1.246094.28125-.648438.527343-1.304688.75-1.972656.25-.742188.457031-1.511719.636718-2.289063.265625-1.15625.453125-2.347656.554688-3.554687.03125-.402344.050781-.8125.0625-1.222657v-.125c.058594-1.710937.222656-3.402343.476562-5.054687.203125-1.324219.476563-2.628906.808594-3.898438-.007812-.007812-.007812-.007812 0-.015625.132812-.527343.28125-1.042969.433594-1.5625.15625-.527343.328125-1.058593.511718-1.570312.167969-.523438.359376-1.03125.554688-1.546875.203125-.523438.414062-1.035156.644531-1.542969 1.367188-3.148437 3.109375-6.089844 5.167969-8.773437.300781-.398438.609375-.785157.929688-1.167969.851562-1.042969 1.761718-2.042969 2.714843-2.996094.386719-.386719.777344-.765625 1.183594-1.132813.355469-.332031.71875-.65625 1.085937-.972656.140626-.128906.292969-.253906.4375-.375.378907-.3125.753907-.625 1.144532-.929687.816406-.636719 1.648437-1.238281 2.511718-1.8125.394532-.269531.796876-.527344 1.199219-.777344.09375-.054687.195313-.121094.296875-.183594.4375-.261719.890625-.519531 1.335938-.777343.007812-.003907.019531-.019532.039062-.023438.46875-.253906.945313-.515625 1.429688-.757812 2.472656-1.265626 5.09375-2.28125 7.824218-3.027344 1.671876-.464844 3.394532-.828125 5.148438-1.070313.015625-.011719.027344-.011719.046875-.003906 1.484375-.214844 3.011719-.34375 4.550781-.394531l.199219-.007813c3.132813-.117187 6.125-.820312 8.859375-2.003906 2.359375-1.007813 4.527344-2.375 6.433594-4.042969 2.851562-2.441406 5.132812-5.527344 6.636718-9.027344.425782-.972656.785157-1.984374 1.074219-3.019531.003907-.003906 0-.011719 0-.011719.214844-.75.394531-1.515624.535157-2.289062.074218-.394531.132812-.785156.1875-1.183594.101562-.789062.179687-1.589844.207031-2.40625v-.136718c.195312-6.191407 1.734375-12.039063 4.347656-17.273438.097656-.199219.191406-.394531.300781-.59375.089844-.175781.183594-.363281.28125-.535156.527344-.996094 1.105469-1.96875 1.714844-2.910156.082031-.132813.167969-.253907.25-.375 2.160156-3.28125 4.78125-6.234376 7.757812-8.777344 4.59375-3.941406 10.0625-6.894532 16.058594-8.542969 1.648438-.460937 3.339844-.820313 5.0625-1.066406h.015625c1.542969-.222657 3.109375-.363281 4.699219-.414063l.132812-.003906c3.160157-.109375 6.175782-.820312 8.929688-2.011719 5.785156-2.492187 10.429688-7.109375 12.96875-12.851562.023438-.066407.054688-.121094.070312-.1875.011719 0 .015626-.003907.011719-.011719.128907-.292969.253907-.585938.363281-.882812.425782-1.101563.773438-2.226563 1.035157-3.390626.269531-1.160156.453125-2.347656.554687-3.554687.03125-.402344.050782-.816406.0625-1.222656.109375-3.441407.636719-6.777344 1.519532-9.964844.152343-.523437.3125-1.050781.476562-1.570313.566406-1.75 1.246094-3.460937 2.035156-5.101562.769532-1.621094 1.640625-3.191406 2.613282-4.6875.070312-.109375.148437-.222656.222656-.339844 1.632812-2.46875 3.515625-4.753906 5.617187-6.820312.699219-.6875 1.421875-1.355469 2.167969-1.992188.421875-.355468.847656-.707031 1.277344-1.050781 2.589844-2.050781 5.425781-3.796875 8.464844-5.183594 2.023437-.941406 4.128906-1.707031 6.316406-2.308593 1.636718-.449219 3.308594-.800782 5.019531-1.046876.019531-.007812.035156-.015624.054687-.019531 1.546876-.222656 3.117188-.355469 4.707032-.40625l.070312-.007812c3.1875-.105469 6.222656-.8125 8.992188-2.023438 5.777344-2.480469 10.425781-7.101562 12.964844-12.84375.023437-.066406.054687-.121093.070312-.1875.003906-.003906.011719-.011719.011719-.011719.128906-.292968.246093-.589843.363281-.882812.984375-2.550781 1.558594-5.300781 1.652344-8.167969.191406-6.195312 1.738281-12.050781 4.34375-17.28125.148437-.296875.292968-.582031.445312-.863281 0 0 0-.011719.007813-.019531.304687-.570313.609375-1.132813.941406-1.679688.363281-.628906.75-1.246093 1.15625-1.855469 3.160156-4.789062 7.28125-8.886718 12.089844-12.027343.046875-.03125.089843-.0625.140625-.089844 1.640625-1.066406 3.371094-2.023437 5.164062-2.847656.03125-.019531.074219-.039063.121094-.058594 1.328125-.617187 2.707031-1.15625 4.121094-1.628906.03125-.019531.0625-.023438.101562-.039063.433594-.136718.875-.277344 1.316406-.410156.019532-.007812.035157-.015625.054688-.019531.957031-.28125 1.929688-.527344 2.914062-.738281.039063-.015626.089844-.027344.140626-.039063 2.402343-.507813 4.882812-.8125 7.421874-.894531 3.21875-.101563 6.28125-.816406 9.074219-2.03125 2.128907-.910156 4.109375-2.125 5.875-3.574219.171875-.132813.332031-.265625.492188-.414063.171875-.132812.324219-.273437.484375-.417968.164062-.140625.316406-.28125.460937-.4375 1.273438-1.199219 2.417969-2.535156 3.398438-3.984375.222656-.308594.4375-.628907.636719-.964844.40625-.648437.78125-1.328125 1.125-2.015625.203124-.394531.394531-.800781.566406-1.230469 0 0 .003906-.003906.011718-.011719.28125-.648437.535157-1.308593.757813-1.992187.171875-.5.324219-1.023437.457031-1.550781.164063-.621094.304688-1.246094.414063-1.890625.214843-1.179688.34375-2.375.382812-3.609375.101563-3.179688 1.9375-5.898438 4.585938-7.257813 1.230469-.636719 2.644531-.964843 4.125-.921875.34375.011719.6875.039063 1.019531.101563 4.164062.628906 7.300781 4.285156 7.167969 8.605469-.039063 1.335937-.152344 2.65625-.3125 3.960937-1.195313 9.425781-5.535157 17.886719-11.929688 24.28125-7.289062 7.289063-17.242187 11.902344-28.246093 12.246094-13.140626.40625-23.734376 11-24.140626 24.117187-.675781 22.03125-18.464843 39.816406-40.488281 40.5h-.078125c-13.082031.449219-23.636718 11.019532-24.046875 24.121094-.679687 22.023438-18.460937 39.808594-40.484375 40.488281l-.136718.003907c-13.015626.464843-23.515626 10.964843-23.988282 23.980468l-.003906.144532c-.683594 22.023437-18.464844 39.804687-40.488281 40.488281l-.199219.003906c-13.03125.503906-23.523438 11.0625-23.921875 24.117187l-.007813.132813c-.746093 21.960937-18.503906 39.683594-40.488281 40.363281zm0 0" fill="url(#i)"/><g fill="#ffb211"><path d="m311.867188 89.59375c-1.824219-1.824219-4.785157-1.824219-6.609376 0-1.828124 1.828125-1.828124 4.785156 0 6.613281 1.824219 1.824219 4.785157 1.824219 6.609376 0 1.824218-1.828125 1.824218-4.785156 0-6.613281zm0 0"/><path d="m352.511719 60.023438c-2.890625-2.890626-7.578125-2.890626-10.46875 0-2.890625 2.890624-2.890625 7.578124 0 10.46875 2.890625 2.890624 7.578125 2.890624 10.46875 0 2.890625-2.890626 2.890625-7.578126 0-10.46875zm0 0"/><path d="m327.3125 56.003906c-4.449219-4.449218-11.660156-4.449218-16.105469 0-4.449219 4.445313-4.449219 11.65625 0 16.105469 4.445313 4.445313 11.65625 4.445313 16.105469 0 4.445312-4.449219 4.445312-11.660156 0-16.105469zm0 0"/></g><path d="m209.640625 144.652344 78.84375 241.121094c.65625 2.003906.128906 4.207031-1.363281 5.699218l-64.410156 64.410156c-7.902344 7.902344-20.71875 7.902344-28.621094 0l-139.28125-139.28125c-7.90625-7.902343-7.90625-20.714843 0-28.617187l145.550781-145.550781c2.949219-2.953125 7.980469-1.75 9.28125 2.21875zm0 0" fill="url(#k)"/><path d="m395.550781 271.546875-241.121093-78.847656c-2.003907-.65625-4.207032-.128907-5.699219 1.363281l-113.957031 113.953125c-46.363282 46.367187-46.363282 121.539063 0 167.902344 46.367187 46.367187 121.539062 46.367187 167.902343 0l195.09375-195.089844c2.953125-2.953125 1.75-7.984375-2.21875-9.28125zm0 0" fill="url(#l)"/><path d="m148.730469 199.140625.625 212.007813 44.734375 44.734374c7.902344 7.902344 20.714844 7.902344 28.617187 0l175.0625-175.058593c.433594-.433594.765625-.917969 1.027344-1.425781.460937-.898438.648437-1.882813.59375-2.847657-.003906-.027343-.003906-.050781-.003906-.078125-.011719-.164062-.03125-.328125-.058594-.492187-.007813-.046875-.015625-.09375-.023437-.140625-.03125-.148438-.0625-.300782-.101563-.449219-.015625-.054687-.035156-.109375-.050781-.167969-.042969-.140625-.085938-.277344-.140625-.417968-.023438-.058594-.054688-.113282-.078125-.171876-.089844-.214843-.195313-.417968-.3125-.617187-.058594-.097656-.113282-.195313-.175782-.289063-.050781-.082031-.113281-.15625-.171874-.234374-.074219-.097657-.144532-.195313-.226563-.289063-.0625-.074219-.128906-.140625-.195313-.210937-.085937-.089844-.179687-.183594-.273437-.269532-.070313-.0625-.140625-.121094-.210937-.179687-.105469-.085938-.214844-.167969-.328126-.25-.074218-.050781-.144531-.101563-.21875-.148438-.128906-.082031-.265624-.15625-.402343-.230469-.070313-.035156-.136719-.074218-.207031-.105468-.210938-.101563-.429688-.191406-.660157-.265625 0 0 0 0-.003906-.003907l-161.519531-52.816406-79.601563-26.027344c-.386719-.128906-.785156-.199218-1.183593-.238281-.246094-.023437-.492188-.03125-.734376-.023437-.890624.027344-1.761718.253906-2.542968.6875-.445313.25-.863282.5625-1.238282.9375l.707032 4.492187c-.246094.179688-.484375.371094-.703125.589844zm0 0" fill="url(#n)"/><path d="m395.550781 271.546875-241.121093-78.847656c-2.003907-.65625-4.207032-.128907-5.699219 1.363281l17.851562 113.921875c1.082031 6.925781 7.578125 11.664063 14.503907 10.585937l211.964843-33.023437 4.71875-4.71875c2.953125-2.953125 1.75-7.984375-2.21875-9.28125zm0 0" fill="url(#o)"/><path d="m47.488281 295.304688-12.714843 12.710937c-46.363282 46.367187-46.363282 121.539063 0 167.902344 46.367187 46.367187 121.539062 46.367187 167.902343 0l12.710938-12.710938zm0 0" fill="url(#p)"/></svg>