<svg height="512pt" viewBox="-66 0 512 512" width="512pt" xmlns="http://www.w3.org/2000/svg"><path d="m370 190c0 40.480469-13.359375 77.839844-35.910156 107.898438l-144.089844 204.101562-144.089844-204.101562c-22.550781-30.058594-35.910156-67.417969-35.910156-107.898438 0-99.410156 80.589844-180 180-180s180 80.589844 180 180zm0 0" fill="#fe5f51"/><path d="m190 60c-14.335938 0-31.957031 3.621094-32.441406 4.101562-53.867188 13.472657-95.085938 62.644532-97.417969 119.949219-4.445313 72.117188 54.917969 135.949219 129.859375 135.949219 74.15625 0 130-60.292969 130-130 0-71.679688-58.320312-130-130-130zm0 0" fill="#fff"/><path d="m260 220v10h-140v-10c0-38.660156 31.339844-70 70-70 38.65625 0 70 31.339844 70 70zm0 0" fill="#f5b955"/><path d="m190 110c11.050781 0 20 8.949219 20 20s-8.949219 20-20 20-20-8.949219-20-20 8.949219-20 20-20zm0 0" fill="#f5b955"/><path d="m110 100c5.519531 0 10-4.480469 10-10 0-5.5625-4.527344-10-10-10-5.519531 0-10 4.480469-10 10 0 5.417969 4.394531 10 10 10zm0 0"/><path d="m190 330c78.808594 0 140-63.84375 140-140 0-77.195312-62.804688-140-140-140-15.574219 0-32.894531 2.722656-49.828125 9.164062-5.160156 1.964844-7.753906 7.742188-5.789063 12.902344 1.964844 5.160156 7.738282 7.753906 12.902344 5.789063 13.570313-5.164063 27.785156-7.855469 42.714844-7.855469 66.167969 0 120 53.832031 120 120s-53.832031 120-120 120c-61.886719 0-114.382812-47.925781-119.519531-109.148438-2.402344-27.238281 4.527343-54.617187 19.507812-77.09375 3.066407-4.597656 1.824219-10.804687-2.769531-13.867187-4.597656-3.0625-10.804688-1.824219-13.867188 2.773437-17.5 26.246094-25.59375 58.191407-22.796874 89.902344 6.027343 71.867188 66.597656 127.433594 139.445312 127.433594zm0 0"/><path d="m100 240h180c5.523438 0 10-4.476562 10-10s-4.476562-10-10-10h-10c0-35.199219-22.636719-64.796875-53.699219-75.582031 2.355469-4.28125 3.699219-9.195313 3.699219-14.417969 0-16.542969-13.457031-30-30-30s-30 13.457031-30 30c0 5.238281 1.351562 10.164062 3.722656 14.453125-31.238281 10.898437-53.722656 40.640625-53.722656 75.546875h-10c-5.523438 0-10 4.476562-10 10s4.476562 10 10 10zm80-110c0-5.515625 4.484375-10 10-10s10 4.484375 10 10-4.484375 10-10 10-10-4.484375-10-10zm10 30c33.097656 0 60 26.777344 60 60h-120c0-33.085938 26.914062-60 60-60zm0 0"/><path d="m170.699219 492h-130.699219c-5.523438 0-10 4.476562-10 10s4.476562 10 10 10h300c5.523438 0 10-4.476562 10-10s-4.476562-10-10-10h-130.699219l132.875-188.214844c24.746094-33.039062 37.824219-72.378906 37.824219-113.785156 0-104.765625-85.234375-190-190-190s-190 85.234375-190 190c0 41.40625 13.078125 80.746094 37.824219 113.785156zm19.300781-472c93.738281 0 170 76.261719 170 170 0 37.089844-11.726562 72.328125-33.910156 101.898438-.058594.078124-.113282.15625-.167969.234374l-135.921875 192.527344-135.921875-192.527344c-.054687-.078124-.109375-.15625-.167969-.234374-22.183594-29.570313-33.910156-64.808594-33.910156-101.898438 0-93.738281 76.261719-170 170-170zm0 0"/></svg>