<svg height="512pt" viewBox="-30 0 512 512" width="512pt" xmlns="http://www.w3.org/2000/svg"><path d="m442.511719 478.710938c2.03125 12.1875-7.367188 23.289062-19.726563 23.289062h-392.78125c-12.359375 0-21.761718-11.101562-19.730468-23.289062l56.121093-336.710938h320zm0 0" fill="#ccf1ff"/><path d="m341.363281 228.96875c-26.070312-29.410156-69.050781-46.96875-114.96875-46.96875-45.921875 0-88.902343 17.558594-114.972656 46.96875-7.316406 8.261719-6.558594 20.902344 1.710937 28.242188 6.550782 5.789062 15.851563 6.519531 23.070313 2.460937l90.191406 162.328125 90.179688-162.328125c7.199219 4.039063 16.503906 3.355469 23.078125-2.460937 8.269531-7.339844 9.03125-19.980469 1.710937-28.242188zm0 0" fill="#f5b955"/><path d="m136.203125 259.671875 90.191406 162.328125 90.179688-162.328125s-32.679688-38.671875-90.179688-38.671875c-56.5 0-90.191406 38.671875-90.191406 38.671875zm0 0" fill="#ffde85"/><path d="m296.554688 295.71875-36.550782 65.769531c-19.050781-3.046875-33.609375-19.566406-33.609375-39.488281 0-22.089844 17.910157-40 40-40 12.027344 0 22.820313 5.308594 30.160157 13.71875zm0 0" fill="#fe5f51"/><path d="m173.582031 232.671875c7.882813 7.296875 12.8125 17.738281 12.8125 29.328125 0 17.808594-11.640625 32.898438-27.730469 38.078125h-.011718l-22.449219-40.40625c1.890625-1.0625 3.640625-2.453125 5.160156-4.160156 8.371094-9.453125 19.429688-17.191407 32.21875-22.839844zm0 0" fill="#a5dc69"/><path d="m286.394531 10h-120l-40 40v92h40v-92h120v92h40v-92zm0 0" fill="#ffde85"/><path d="m106.394531 472c5.519531 0 10-4.480469 10-10s-4.480469-10-10-10-10 4.480469-10 10 4.480469 10 10 10zm0 0"/><path d="m30.003906 512h392.78125c8.832032 0 17.175782-3.867188 22.890625-10.609375 5.710938-6.742187 8.152344-15.605469 6.703125-24.324219l-56.121094-336.710937c-.804687-4.820313-4.976562-8.355469-9.863281-8.355469h-50v-82c0-2.636719-1.078125-5.214844-2.917969-7.058594-.003906-.003906-.007812-.007812-.011718-.011718l-40-40c-1.875-1.875-4.417969-2.929688-7.070313-2.929688h-120c-2.652343 0-5.195312 1.054688-7.070312 2.929688-.101563.101562-40.121094 40.121093-40.011719 40.011718-1.769531 1.773438-2.917969 4.328125-2.917969 7.058594v82h-50c-4.890625 0-9.0625 3.535156-9.863281 8.355469l-56.121094 336.710937c-1.453125 8.714844.992188 17.582032 6.703125 24.324219 5.710938 6.742187 14.054688 10.609375 22.890625 10.609375zm246.390625-380h-100v-72h100zm-140-72h20v72h-20zm160 0h20v72h-20zm-125.859375-40h111.714844l20 20h-151.714844zm-150.398437 460.355469 54.730469-328.355469h303.054687l54.730469 328.351562c.488281 2.949219-.304688 5.832032-2.238282 8.113282-1.929687 2.277344-4.640624 3.535156-7.628906 3.535156h-392.78125c-2.988281 0-5.699218-1.257812-7.632812-3.535156-1.929688-2.28125-2.722656-5.164063-2.234375-8.109375zm0 0"/><path d="m346.394531 452h-200c-5.523437 0-10 4.476562-10 10s4.476563 10 10 10h200c5.519531 0 10-4.476562 10-10s-4.480469-10-10-10zm0 0"/><path d="m106.511719 264.703125c6.578125 5.816406 15.65625 8.683594 24.984375 7.082031l86.15625 155.070313c1.765625 3.175781 5.109375 5.144531 8.742187 5.144531 3.632813 0 6.976563-1.96875 8.742188-5.144531l86.148437-155.078125c9.3125 1.605468 18.375-1.226563 25.003906-7.085938 12.375-10.980468 13.523438-29.980468 2.558594-42.355468-27.941406-31.519532-73.71875-50.335938-122.453125-50.335938-48.738281 0-94.515625 18.816406-122.453125 50.335938-10.964844 12.375-9.820312 31.371093 2.570313 42.367187zm64.601562-19.714844c3.433594 4.949219 5.28125 10.808594 5.28125 17.011719 0 10.320312-5.21875 19.628906-13.527343 25.070312l-13.914063-25.042968c5.832031-6.554688 13.40625-12.367188 22.160156-17.039063zm55.28125 156.417969-53.785156-96.800781c14.582031-8.9375 23.785156-24.890625 23.785156-42.605469 0-8.71875-2.308593-17.234375-6.546875-24.699219 11.441406-3.480469 23.859375-5.300781 36.546875-5.300781 31.777344 0 60.714844 11.226562 77.433594 30.019531l-10.078125 18.140625c-8.054688-5.269531-17.542969-8.160156-27.355469-8.160156-27.570312 0-50 22.429688-50 50 0 19.992188 11.578125 37.398438 28.902344 45.378906zm28.664063-51.597656c-11.121094-4.480469-18.664063-15.300782-18.664063-27.808594 0-16.542969 13.457031-30 30-30 6.378907 0 12.523438 2.039062 17.601563 5.71875zm-136.152344-114.203125c24.203125-27.304688 64.382812-43.605469 107.488281-43.605469 43.101563 0 83.285157 16.300781 107.484375 43.601562 3.65625 4.125 3.269532 10.460938-.851562 14.117188-4.144532 3.664062-10.5 3.261719-14.117188-.839844-20.453125-23.09375-55.039062-36.878906-92.515625-36.878906-33.5625 0-69.980469 11.4375-92.507812 36.867188-3.699219 4.164062-10.019531 4.484374-14.113281.863281-4.132813-3.667969-4.519532-10.003907-.867188-14.125zm0 0"/></svg>