<svg height="512pt" viewBox="-30 0 512 512" width="512pt" xmlns="http://www.w3.org/2000/svg"><path d="m442.511719 478.710938c2.03125 12.1875-7.367188 23.289062-19.726563 23.289062h-392.78125c-12.359375 0-21.761718-11.101562-19.730468-23.289062l56.121093-336.710938h320zm0 0" fill="#ccf1ff"/><path d="m335.992188 360.03125c7.8125 7.808594 7.8125 20.480469 0 28.289062-7.808594 7.808594-20.46875 7.808594-28.277344 0 7.808594 7.808594 7.808594 20.46875 0 28.28125-7.8125 7.808594-20.480469 7.808594-28.292969 0-5.429687-5.429687-7.089844-13.222656-4.949219-20.089843 2.019532-6.53125-.488281-13.640625-5.328125-18.480469l-25.070312-25.070312 28.28125-28.28125 25.066406 25.070312c4.839844 4.839844 11.953125 7.351562 18.480469 5.328125 6.871094-2.136719 14.660156-.476563 20.089844 4.953125zm0 0" fill="#fff"/><path d="m247.535156 241.050781 24.820313 83.628907-28.28125 28.28125c-3.261719-.960938-80.109375-23.769532-83.710938-24.839844-.007812 0-.007812-.011719-.007812-.011719h-.011719c-.019531 0-.03125-.007813-.039062-.007813h-.011719c-.019531-.011718-.039063-.023437-.058594-.023437-49.820313-14.957031-67.160156-78.679687-29.300781-116.539063 37.910156-37.910156 101.761718-20.46875 116.601562 29.511719zm0 0" fill="#f5b955"/><path d="m286.394531 10h-120l-40 40v92h40v-92h120v92h40v-92zm0 0" fill="#ffde85"/><path d="m106.394531 472c5.519531 0 10-4.480469 10-10s-4.480469-10-10-10-10 4.480469-10 10 4.480469 10 10 10zm0 0"/><path d="m30.003906 512h392.78125c8.832032 0 17.175782-3.867188 22.886719-10.605469 5.710937-6.746093 8.15625-15.609375 6.707031-24.328125l-56.121094-336.710937c-.804687-4.820313-4.976562-8.355469-9.863281-8.355469h-50v-82c0-2.539062-.988281-5.125-2.921875-7.0625-.003906-.003906-.003906-.007812-.007812-.007812l-40-40c-1.875-1.875-4.417969-2.929688-7.070313-2.929688h-120c-2.652343 0-5.195312 1.054688-7.070312 2.929688l-40 40c-.003907 0-.003907.003906-.007813.007812-1.714844 1.714844-2.816406 4.070312-2.90625 6.734375-.003906.109375-.015625.214844-.015625.328125v82h-50c-4.890625 0-9.0625 3.535156-9.863281 8.355469l-56.121094 336.710937c-1.453125 8.714844.992188 17.582032 6.703125 24.324219 5.710938 6.742187 14.054688 10.609375 22.890625 10.609375zm246.390625-380h-100v-72h100zm-140-72h20v72h-20zm160 0h20v72h-20zm-125.859375-40h111.714844l20 20h-151.714844zm-150.398437 460.355469 54.726562-328.355469h303.058594l54.726563 328.351562c.492187 2.949219-.300782 5.832032-2.234376 8.113282-1.933593 2.277344-4.640624 3.535156-7.628906 3.535156h-392.78125c-2.988281 0-5.699218-1.257812-7.628906-3.535156-1.933594-2.28125-2.726562-5.164063-2.238281-8.109375zm0 0"/><path d="m146.394531 452c-5.523437 0-10 4.476562-10 10s4.476563 10 10 10h200c5.523438 0 10-4.476562 10-10s-4.476562-10-10-10zm0 0"/><path d="m157.160156 337.597656c.070313.023438.144532.039063.214844.0625.054688.015625.109375.035156.164062.054688 1.585938.46875 67.367188 19.996094 81.257813 24.113281l23.277344 23.273437c2.496093 2.496094 3.636719 5.890626 2.851562 8.433594-3.328125 10.679688-.480469 22.226563 7.425781 30.136719 11.699219 11.699219 30.734376 11.699219 42.433594 0 5.425782-5.429687 8.335938-12.433594 8.726563-19.554687 7.121093-.390626 14.125-3.296876 19.554687-8.726563 11.695313-11.699219 11.695313-30.734375 0-42.429687-7.910156-7.910157-19.457031-10.757813-30.117187-7.433594-2.5625.792968-5.957031-.351563-8.453125-2.847656l-23.277344-23.277344-24.097656-81.199219c-17.113282-57.632813-90.265625-76.726563-133.257813-33.734375-42.980469 42.980469-23.875 115.804688 33.296875 133.128906zm161.71875 27.03125c3.5625-1.109375 7.410156-.164062 10.042969 2.472656 3.902344 3.898438 3.902344 10.246094 0 14.144532-3.894531 3.898437-10.238281 3.898437-14.136719 0-3.90625-3.902344-10.238281-3.902344-14.144531 0-3.902344 3.90625-3.902344 10.238281 0 14.144531 3.898437 3.898437 3.898437 10.242187 0 14.136719-3.898437 3.902344-10.246094 3.902344-14.144531 0-2.636719-2.632813-3.585938-6.480469-2.46875-10.0625 3.015625-9.75.019531-20.671875-7.8125-28.507813l-18-17.996093 14.140625-14.140626 17.996093 18c7.835938 7.835938 18.761719 10.828126 28.527344 7.808594zm-180.875-146.019531c32.359375-32.359375 87.175782-17.707031 99.941406 25.285156l23.128907 77.921875-19.863281 19.863282c-17.9375-5.316407-71.859376-21.320313-77.746094-23.070313-.089844-.03125-.183594-.050781-.277344-.078125-.007812-.003906-.015625-.007812-.027344-.011719.074219.023438.144532.039063.214844.0625-.007812 0-.011719-.003906-.019531-.003906-.070313-.023437-.136719-.039063-.207031-.0625-.015626-.003906-.027344-.007813-.039063-.011719-.015625-.003906-.027344-.011718-.039063-.015625-.027343-.003906-.050781-.015625-.074218-.023437-42.835938-12.953125-57.21875-67.625-24.992188-99.855469zm0 0"/></svg>