<svg height="512pt" viewBox="-30 0 512 512" width="512pt" xmlns="http://www.w3.org/2000/svg"><path d="m442.511719 478.710938c2.03125 12.1875-7.367188 23.289062-19.726563 23.289062h-392.78125c-12.359375 0-21.761718-11.101562-19.730468-23.289062l56.121093-336.710938h320zm0 0" fill="#ccf1ff"/><path d="m346.394531 302v60c0 11.050781-8.949219 20-20 20h-70v-80zm0 0" fill="#fff"/><path d="m346.394531 282v20h-90v-60h50c22.089844 0 40 17.910156 40 40zm0 0" fill="#fe5f51"/><path d="m286.394531 50h40v92h-40zm0 0" fill="#ffde85"/><path d="m326.394531 50c-25.261719 0-176.265625 0-200 0l40-40h120zm0 0" fill="#ffde85"/><path d="m256.394531 382h-60c0-19.917969 0-120.050781 0-140h60zm0 0" fill="#445161"/><path d="m196.394531 305v80h-70c-11.050781 0-20-8.949219-20-20v-60zm0 0" fill="#fff"/><path d="m196.394531 242v60h-90v-20c0-22.089844 17.910157-40 40-40zm0 0" fill="#fe5f51"/><path d="m126.394531 50h40v92h-40zm0 0" fill="#ffde85"/><path d="m106.394531 452c-5.519531 0-10 4.480469-10 10s4.480469 10 10 10 10-4.480469 10-10-4.480469-10-10-10zm0 0"/><path d="m346.394531 452h-200c-5.523437 0-10 4.476562-10 10s4.476563 10 10 10h200c5.523438 0 10-4.476562 10-10s-4.476562-10-10-10zm0 0"/><path d="m116.394531 132h-50c-4.890625 0-9.0625 3.535156-9.863281 8.355469l-56.121094 336.710937c-1.453125 8.714844.992188 17.582032 6.703125 24.324219 5.710938 6.742187 14.054688 10.609375 22.890625 10.609375h392.78125c8.832032 0 17.175782-3.867188 22.886719-10.605469 5.710937-6.746093 8.15625-15.609375 6.707031-24.328125l-56.121094-336.710937c-.804687-4.820313-4.976562-8.355469-9.863281-8.355469h-50v-82c0-2.699219-1.128906-5.265625-2.921875-7.0625-.003906-.003906-.003906-.007812-.007812-.007812l-40-40c-1.875-1.875-4.417969-2.929688-7.070313-2.929688h-120c-2.652343 0-5.195312 1.054688-7.070312 2.929688l-40 40c-.003907 0-.003907.003906-.007813.007812-1.785156 1.785156-2.921875 4.339844-2.921875 7.0625zm160-72v72h-100v-72zm40 0v72h-20v-72zm-160 72h-20v-72h20zm276.253907 348.351562c.492187 2.949219-.300782 5.832032-2.234376 8.113282-1.933593 2.277344-4.640624 3.535156-7.628906 3.535156h-392.78125c-2.988281 0-5.699218-1.257812-7.628906-3.535156-1.933594-2.28125-2.726562-5.164063-2.238281-8.109375l54.726562-328.355469h303.058594zm-262.113282-460.351562h111.714844l20 20h-151.714844zm0 0"/><path d="m146.394531 232c-27.570312 0-50 22.429688-50 50v80c0 16.542969 13.457031 30 30 30h200c16.542969 0 30-13.457031 30-30 0-6.789062 0-69.230469 0-80 0-27.570312-22.429687-50-50-50zm100 140h-40v-120h40zm-100-120h40v40h-70v-10c0-16.542969 13.457031-30 30-30zm-30 110v-50h70v60h-60c-5.515625 0-10-4.484375-10-10zm220 0c0 5.515625-4.488281 10-10 10h-60v-60h70zm0-80v10h-70v-40h40c16.542969 0 30 13.457031 30 30zm0 0"/></svg>