<svg height="512pt" viewBox="-136 0 512 512" width="512pt" xmlns="http://www.w3.org/2000/svg"><path d="m230 442v40c0 11.050781-8.949219 20-20 20h-180c-11.050781 0-20-8.949219-20-20v-40zm0 0" fill="#ffde85"/><path d="m230 270v172h-220v-172zm0 0" fill="#fff"/><path d="m230 238.28125v31.71875h-220v-31.71875c0-18.109375 7.191406-35.472656 20-48.28125h180c12.808594 12.808594 20 30.171875 20 48.28125zm0 0" fill="#ffde85"/><path d="m200 10c11.050781 0 20 8.949219 20 20 0 11.039062-8.960938 20-20 20-15.726562 0-142.386719 0-160 0-11.050781 0-20-8.949219-20-20 0-11.039062 8.960938-20 20-20zm0 0" fill="#fe5f51"/><path d="m190 50c7.5 22.96875 47.011719 58.980469 20 140h-180c-27.03125-81.078125 12.46875-116.929688 20-140zm0 0" fill="#ffde85"/><path d="m150 356c0 16.570312-13.429688 30-30 30s-30-13.429688-30-30 13.429688-30 30-30 30 13.429688 30 30zm0 0" fill="#fe5f51"/><path d="m90 240c5.519531 0 10-4.480469 10-10s-4.480469-10-10-10-10 4.480469-10 10 4.480469 10 10 10zm0 0"/><path d="m0 482c0 16.542969 13.457031 30 30 30h180c16.542969 0 30-13.457031 30-30v-243.71875c0-18.820312-6.617188-36.613281-18.71875-50.765625 19.621094-64.507813-1.550781-102.605469-14.347656-125.625-.457032-.820313-.90625-1.625-1.339844-2.414063 13.722656-2.578124 24.40625-14.648437 24.40625-29.476562 0-16.542969-13.457031-30-30-30h-160c-16.578125 0-30 13.425781-30 30 0 14.632812 10.535156 26.847656 24.414062 29.472656-.449218.8125-.90625 1.640625-1.378906 2.488282-12.789062 22.988281-33.945312 61.035156-14.320312 125.554687-12.097656 14.152344-18.714844 31.945313-18.714844 50.765625zm34.332031-282h171.335938c5.160156 5.90625 9.011719 12.691406 11.417969 20h-87.085938c-5.523438 0-10 4.476562-10 10s4.476562 10 10 10h90v20h-200v-21.71875c0-14.222656 5.0625-27.667969 14.332031-38.28125zm185.667969 80v152h-200v-152zm-10 212h-180c-5.515625 0-10-4.484375-10-10v-30h200v30c0 5.515625-4.484375 10-10 10zm-180-462c0-5.519531 4.476562-10 10-10h160c5.515625 0 10 4.484375 10 10 0 5.523438-4.480469 10.101562-10 10.101562-17.519531-.003906-142.738281 0-160 0-5.515625 0-10-4.585937-10-10.101562zm26.703125 30h126.597656c11.234375 23.722656 38.707031 54.496094 19.347657 120h-165.296876c-19.378906-65.5625 8.136719-96.296875 19.351563-120zm0 0"/><path d="m120 396c22.054688 0 40-17.945312 40-40s-17.945312-40-40-40-40 17.945312-40 40 17.945312 40 40 40zm0-60c11.027344 0 20 8.972656 20 20s-8.972656 20-20 20-20-8.972656-20-20 8.972656-20 20-20zm0 0"/></svg>