<svg height="512pt" viewBox="0 0 512 512" width="512pt" xmlns="http://www.w3.org/2000/svg"><path d="m502 50v412c0 22.089844-17.910156 40-40 40h-412c-22.089844 0-40-17.910156-40-40v-412c0-22.089844 17.910156-40 40-40h412c22.089844 0 40 17.910156 40 40zm0 0" fill="#ffde85"/><path d="m369 53c49.710938 0 90 40.289062 90 90s-40.289062 90-90 90-90-40.289062-90-90 40.289062-90 90-90zm0 0" fill="#445161"/><path d="m369 193c-27.570312 0-50-22.429688-50-50s22.429688-50 50-50 50 22.429688 50 50-22.429688 50-50 50zm0 0" fill="#fff"/><path d="m459 299v140c0 11.050781-8.949219 20-20 20h-140c-11.050781 0-20-8.949219-20-20v-140c0-11.050781 8.949219-20 20-20h140c11.050781 0 20 8.949219 20 20zm0 0" fill="#445161"/><path d="m419 319v100h-100v-100zm0 0" fill="#fff"/><path d="m233 73v140c0 11.050781-8.949219 20-20 20h-140c-11.050781 0-20-8.949219-20-20v-140c0-11.050781 8.949219-20 20-20h140c11.050781 0 20 8.949219 20 20zm0 0" fill="#445161"/><path d="m193 93v100h-100v-100zm0 0" fill="#fff"/><path d="m142 280c49.710938 0 90 40.289062 90 90s-40.289062 90-90 90-90-40.289062-90-90 40.289062-90 90-90zm0 0" fill="#445161"/><path d="m142 420c-27.570312 0-50-22.429688-50-50s22.429688-50 50-50 50 22.429688 50 50-22.429688 50-50 50zm0 0" fill="#fff"/><path d="m326.570312 115.320312c3.949219 3.640626 10.109376 3.5 13.898438-.359374 3.8125-3.882813 3.820312-10.089844.050781-13.972657-.058593-.058593-.109375-.109375-.167969-.167969-3.941406-3.871093-10.273437-3.808593-14.152343.128907-3.871094 3.929687-3.808594 10.269531.128906 14.140625.082031.082031.160156.148437.242187.230468zm0 0"/><path d="m50 512h412c27.570312 0 50-22.429688 50-50v-412c0-27.570312-22.429688-50-50-50h-412c-27.570312 0-50 22.429688-50 50v412c0 27.570312 22.429688 50 50 50zm-30-462c0-16.542969 13.457031-30 30-30h412c16.542969 0 30 13.457031 30 30v412c0 16.542969-13.457031 30-30 30h-412c-16.542969 0-30-13.457031-30-30zm0 0"/><path d="m73 243h140c16.542969 0 30-13.457031 30-30v-140c0-16.542969-13.457031-30-30-30h-140c-16.542969 0-30 13.457031-30 30v140c0 16.542969 13.457031 30 30 30zm-10-170c0-5.515625 4.484375-10 10-10h140c5.515625 0 10 4.484375 10 10v140c0 5.515625-4.484375 10-10 10h-140c-5.515625 0-10-4.484375-10-10zm0 0"/><path d="m93 203h100c5.523438 0 10-4.476562 10-10v-100c0-5.523438-4.476562-10-10-10h-100c-5.523438 0-10 4.476562-10 10v100c0 5.523438 4.476562 10 10 10zm10-100h80v80h-80zm0 0"/><path d="m143 123c-11.027344 0-20 8.972656-20 20s8.972656 20 20 20 20-8.972656 20-20-8.972656-20-20-20zm0 0"/><path d="m369 243c55.140625 0 100-44.859375 100-100s-44.859375-100-100-100-100 44.859375-100 100 44.859375 100 100 100zm0-180c44.113281 0 80 35.886719 80 80s-35.886719 80-80 80-80-35.886719-80-80 35.886719-80 80-80zm0 0"/><path d="m369 203c33.085938 0 60-26.914062 60-60 0-32.542969-25.5625-58.886719-58.195312-59.976562-5.539063-.15625-10.144532 4.144531-10.328126 9.664062-.1875 5.519531 4.140626 10.144531 9.660157 10.328125 21.792969.726563 38.863281 18.289063 38.863281 39.984375 0 22.054688-17.945312 40-40 40-21.257812 0-39.179688-17.0625-39.957031-38.03125-.203125-5.519531-4.832031-9.832031-10.363281-9.621094-5.519532.203125-9.828126 4.84375-9.621094 10.363282 1.167968 31.589843 28.058594 57.289062 59.941406 57.289062zm0 0"/><path d="m369 163c11.027344 0 20-8.972656 20-20s-8.972656-20-20-20-20 8.972656-20 20 8.972656 20 20 20zm0 0"/><path d="m299 469h140c16.542969 0 30-13.457031 30-30v-140c0-16.542969-13.457031-30-30-30h-140c-16.542969 0-30 13.457031-30 30v140c0 16.542969 13.457031 30 30 30zm-10-170c0-5.515625 4.484375-10 10-10h140c5.515625 0 10 4.484375 10 10v140c0 5.515625-4.484375 10-10 10h-140c-5.515625 0-10-4.484375-10-10zm0 0"/><path d="m319 429h100c5.523438 0 10-4.476562 10-10v-100c0-5.523438-4.476562-10-10-10h-100c-5.523438 0-10 4.476562-10 10v100c0 5.523438 4.476562 10 10 10zm10-100h80v80h-80zm0 0"/><path d="m369 349c-11.027344 0-20 8.972656-20 20s8.972656 20 20 20 20-8.972656 20-20-8.972656-20-20-20zm0 0"/><path d="m142 390c11.027344 0 20-8.972656 20-20s-8.972656-20-20-20-20 8.972656-20 20 8.972656 20 20 20zm0 0"/><path d="m99.570312 342.320312c3.949219 3.640626 10.109376 3.5 13.898438-.359374 3.8125-3.882813 3.820312-10.089844.050781-13.972657-.058593-.058593-.109375-.109375-.167969-.167969-3.941406-3.871093-10.273437-3.808593-14.152343.128907-3.871094 3.929687-3.808594 10.269531.128906 14.140625.082031.082031.160156.148437.242187.230468zm0 0"/><path d="m142 470c55.140625 0 100-44.859375 100-100s-44.859375-100-100-100-100 44.859375-100 100 44.859375 100 100 100zm0-180c44.113281 0 80 35.886719 80 80s-35.886719 80-80 80-80-35.886719-80-80 35.886719-80 80-80zm0 0"/><path d="m142 430c33.085938 0 60-26.914062 60-60 0-32.542969-25.5625-58.886719-58.195312-59.976562-5.523438-.152344-10.144532 4.144531-10.328126 9.664062-.1875 5.519531 4.140626 10.144531 9.660157 10.328125 21.792969.726563 38.863281 18.289063 38.863281 39.984375 0 22.054688-17.945312 40-40 40-21.257812 0-39.179688-17.0625-39.957031-38.03125-.203125-5.519531-4.851563-9.835938-10.363281-9.621094-5.519532.203125-9.828126 4.84375-9.621094 10.363282 1.167968 31.589843 28.058594 57.289062 59.941406 57.289062zm0 0"/></svg>