<svg height="512pt" viewBox="-30 0 512 512" width="512pt" xmlns="http://www.w3.org/2000/svg"><path d="m442.511719 478.710938c2.03125 12.1875-7.367188 23.289062-19.726563 23.289062h-392.78125c-12.359375 0-21.761718-11.101562-19.730468-23.289062l56.121093-336.710938h320zm0 0" fill="#ccf1ff"/><path d="m256.394531 222c27.609375 0 50 22.390625 50 50 0 27.839844-22.628906 50-50 50-27.609375 0-50-22.390625-50-50 0-27.726562 22.5-50 50-50zm0 0" fill="#fff"/><path d="m286.394531 10h-120l-40 40v92h40v-92h120v92h40v-92zm0 0" fill="#ffde85"/><path d="m256.394531 292c11.050781 0 20-8.949219 20-20s-8.949219-20-20-20-20 8.949219-20 20 8.949219 20 20 20zm0 0"/><path d="m106.394531 472c5.519531 0 10-4.480469 10-10s-4.480469-10-10-10-10 4.480469-10 10 4.480469 10 10 10zm0 0"/><path d="m30.003906 512h392.78125c8.832032 0 17.175782-3.867188 22.890625-10.609375 5.710938-6.742187 8.152344-15.605469 6.703125-24.324219l-56.121094-336.710937c-.804687-4.820313-4.976562-8.355469-9.863281-8.355469h-50v-82c0-4.417969-2.863281-6.972656-2.929687-7.070312l-40-40c-1.875-1.875-4.417969-2.929688-7.070313-2.929688h-120c-2.652343 0-5.195312 1.054688-7.070312 2.929688-.101563.101562-40.121094 40.121093-40.011719 40.011718-1.785156 1.789063-2.917969 4.347656-2.917969 7.058594v82h-50c-4.890625 0-9.0625 3.535156-9.863281 8.355469l-56.121094 336.710937c-1.453125 8.714844.992188 17.582032 6.703125 24.324219 5.710938 6.742187 14.054688 10.609375 22.890625 10.609375zm246.390625-380h-100v-72h100zm-140-72h20v72h-20zm160 0h20v72h-20zm-125.859375-40h111.714844l20 20h-151.714844zm-150.398437 460.355469 54.730469-328.355469h303.054687l54.730469 328.351562c.488281 2.949219-.304688 5.832032-2.238282 8.113282-1.929687 2.277344-4.640624 3.535156-7.628906 3.535156h-392.78125c-2.988281 0-5.699218-1.257812-7.632812-3.535156-1.929688-2.28125-2.722656-5.164063-2.234375-8.109375zm0 0"/><path d="m146.394531 452c-5.523437 0-10 4.476562-10 10s4.476563 10 10 10h200c5.519531 0 10-4.476562 10-10s-4.480469-10-10-10zm0 0"/><path d="m112.265625 389.082031c1.160156 0 2.34375-.203125 3.492187-.632812l34.472657-12.859375-14.164063 35.460937c-2.046875 5.128907.449219 10.945313 5.578125 12.996094 5.148438 2.054687 10.957031-.46875 12.996094-5.578125l20.898437-52.324219c.117188-.042969 166.558594-62.136719 168.480469-62.855469 5.175781-1.929687 7.804688-7.6875 5.875-12.863281-1.929687-5.175781-7.691406-7.804687-12.867187-5.875l-24.71875 9.222657c2.652344-6.816407 4.085937-14.175782 4.085937-21.773438 0-33.085938-26.917969-60-60-60-7.246093 0-14.238281 1.28125-20.742187 3.652344l9.066406-22.703125c2.050781-5.128907-.445312-10.945313-5.574219-12.996094-5.128906-2.050781-10.949219.449219-12.996093 5.578125l-65.898438 164.972656-51.480469 19.207032c-5.175781 1.929687-7.804687 7.691406-5.875 12.863281 1.5 4.023437 5.316407 6.507812 9.371094 6.507812zm184.128906-117.082031c0 22.285156-18.132812 40-40 40-22.058593 0-40-17.945312-40-40 0-5.0625.933594-9.996094 2.769531-14.664062h.003907c6.066406-15.390626 20.675781-25.335938 37.226562-25.335938 22.054688 0 40 17.945312 40 40zm-93.824219 26.476562c5.605469 11.351563 14.695313 20.679688 25.867188 26.589844l-42.878906 15.996094zm0 0"/></svg>