<svg height="512pt" viewBox="0 -26 512 512" width="512pt" xmlns="http://www.w3.org/2000/svg"><path d="m482 310c11.050781 0 20 8.949219 20 20 0 11.039062-8.960938 20-20 20h-452c-11.050781 0-20-8.949219-20-20 0-11.039062 8.960938-20 20-20zm0 0" fill="#ccf1ff"/><path d="m30 350h452c0 55.230469-44.769531 100-100 100h-252c-55.230469 0-100-44.769531-100-100zm0 0" fill="#445161"/><path d="m366 190c-3.949219 0-7.839844.210938-11.679688.621094v-.011719c-18.101562-35.949219-55.332031-60.609375-98.320312-60.609375-42.523438 0-79.996094 24.234375-98.320312 60.609375v.011719c-2.078126-.261719-6.910157-.621094-11.679688-.621094-60.75 0-110 49.25-110 110v10h439.558594c5.761718-65.25-45.507813-120-109.558594-120zm0 0" fill="#ffde85"/><path d="m176 380c-5.519531 0-10 4.480469-10 10s4.480469 10 10 10 10-4.480469 10-10-4.480469-10-10-10zm0 0"/><path d="m502 20c5.523438 0 10-4.476562 10-10s-4.476562-10-10-10h-426c-5.523438 0-10 4.476562-10 10s4.476562 10 10 10h70v20h-70c-5.523438 0-10 4.476562-10 10s4.476562 10 10 10h70v120c-66.167969 0-120 53.832031-120 120v.269531c-14.636719 1.941407-26 14.464844-26 29.730469 0 13.152344 8.515625 24.351562 20.316406 28.386719 4.300782 56.75 51.851563 101.613281 109.683594 101.613281h252c57.828125 0 105.375-44.855469 109.683594-101.597656 11.648437-3.964844 20.316406-15.039063 20.316406-28.402344 0-15.183594-11.34375-27.761719-26-29.726562.230469-67.464844-54.8125-120.273438-120-120.273438-1.988281 0-3.988281.054688-5.976562.152344-21.417969-37.265625-60.667969-60.152344-104.023438-60.152344-3.339844 0-6.679688.144531-10 .417969v-60.417969h256c5.523438 0 10-4.476562 10-10s-4.476562-10-10-10h-256v-20zm-336 0h20v20h-20zm20 40v82.539062c-7.339844 5.28125-14.046875 11.355469-20 18.101563v-100.640625zm-40 140c55.472656 0 100 45.015625 100 100h-20.023438c-.09375-44.742188-36.371093-80-79.976562-80-43.6875 0-79.882812 35.339844-79.976562 80h-20.023438c0-55.140625 44.859375-100 100-100zm138.480469 11.964844c-7.40625-7.5-17.625-11.964844-28.480469-11.964844s-21.074219 4.464844-28.480469 11.964844c-4.925781-4.566406-10.207031-8.710938-15.824219-12.386719 11.289063-12.402344 27.226563-19.578125 44.304688-19.578125s33.015625 7.175781 44.300781 19.578125c-5.613281 3.675781-10.894531 7.820313-15.820312 12.386719zm-13.527344 14.78125c-6.035156 7.820312-11.046875 16.316406-14.953125 25.28125-3.90625-8.964844-8.917969-17.460938-14.953125-25.28125 3.75-4.210938 9.171875-6.746094 14.953125-6.746094s11.203125 2.535156 14.953125 6.746094zm-84.972656 73.253906c.007812-22.207031-18.0625-40-39.980469-40-21.914062 0-39.988281 17.785156-39.980469 40h-20.003906c-.054687-33.511719 27.371094-60 59.984375-60 32.589844 0 60.039062 26.46875 59.984375 60zm-59.976563 0c-.019531-11.167969 9.167969-20 19.996094-20 10.8125 0 20.015625 8.816406 19.996094 20zm255.996094 140h-252c-46.246094 0-84.449219-35.074219-89.441406-80.011719h430.882812c-4.992187 44.9375-43.195312 80.011719-89.441406 80.011719zm110-110c0 5.519531-4.476562 10-10 10h-452c-5.515625 0-10-4.484375-10-10 0-5.519531 4.476562-10 10-10h452c5.515625 0 10 4.484375 10 10zm-126-90c32.589844 0 60.039062 26.46875 59.984375 60h-20.003906c.007812-22.207031-18.0625-40-39.980469-40-21.914062 0-39.988281 17.785156-39.980469 40h-20.003906c-.054687-33.511719 27.371094-60 59.984375-60zm-19.996094 60c-.019531-11.167969 9.167969-20 19.996094-20 10.8125 0 20.015625 8.816406 19.996094 20zm119.992188 0h-20.019532c-.09375-44.742188-36.371093-80-79.976562-80-43.6875 0-79.882812 35.339844-79.976562 80h-20.023438c0-55.277344 44.828125-100 100-100 54.164062 0 100.046875 43.785156 99.996094 100zm-127.652344-116.792969c-6.859375 1.617188-13.558594 3.835938-20.046875 6.65625-15.136719-18.839843-37.832031-29.863281-62.296875-29.863281s-47.160156 11.023438-62.296875 29.863281c-6.480469-2.816406-13.167969-5.035156-20.019531-6.648437 18.128906-26.21875 48.265625-43.214844 82.316406-43.214844 33.363281 0 63.820312 16.261719 82.34375 43.207031zm-112.34375-59.425781c-6.882812 1.769531-13.5625 4.132812-20 7.09375v-70.875h20zm0-83.78125h-20v-20h20zm0 0"/><path d="m336 380h-120c-5.523438 0-10 4.476562-10 10s4.476562 10 10 10h120c5.523438 0 10-4.476562 10-10s-4.476562-10-10-10zm0 0"/></svg>