<svg height="512pt" viewBox="0 0 512 512" width="512pt" xmlns="http://www.w3.org/2000/svg"><path d="m482 196c-92.613281 0-359.738281 0-452 0-11.039062 0-20 8.960938-20 20 0 11.050781 8.949219 20 20 20h106l18.328125 226c-5.492187 0-50.914063 0-58.328125 0v20c0 11.050781 8.949219 20 20 20h280c11.050781 0 20-8.949219 20-20v-20c-15.976562 0-31.765625 0-60 0l20-226h106c11.039062 0 20-8.960938 20-20 0-11.050781-8.949219-20-20-20zm0 0" fill="#ffde85"/><path d="m463.839844 196h-135.75c1.390625-5.410156 3.46875-10.78125 6.289062-15.988281l41.5625-74.011719h40.058594c1.628906 3.011719 40.558594 72.398438 41.621094 74.171875.007812.007813.007812.007813.007812.019531.011719.007813.011719.019532.011719.019532 2.78125 5.148437 4.828125 10.449218 6.199219 15.789062zm0 0" fill="#f5b955"/><path d="m456 236-40 226c-15.976562 0-31.765625 0-60 0l20-226zm0 0" fill="#fe5f51"/><path d="m436 30c0 7.691406-4.339844 14.359375-10.699219 17.710938-6.050781 3.1875-9.300781 9.988281-9.300781 16.828124v41.460938h-40v-41.460938c0-6.839843-3.25-13.640624-9.300781-16.828124-6.359375-3.351563-10.699219-10.019532-10.699219-17.710938 0-11.050781 8.949219-20 20-20s20 8.949219 20 20c0-11.050781 8.949219-20 20-20s20 8.949219 20 20zm0 0" fill="#fff"/><path d="m323.839844 196h-135.75c1.390625-5.410156 3.46875-10.78125 6.289062-15.988281l41.5625-74.011719h40.058594c1.628906 3.011719 40.558594 72.398438 41.621094 74.171875.007812.007813.007812.007813.007812.019531.011719.007813.011719.019532.011719.019532 2.78125 5.148437 4.828125 10.449218 6.199219 15.789062zm0 0" fill="#f5b955"/><path d="m292.570312 317.519531c25.789063 8.300781 43.429688 25.101563 43.429688 44.480469 0 29.34375-38.589844 50-80 50-40.925781 0-80-20.421875-80-50 0-19.378906 17.640625-36.179688 43.429688-44.480469 10.960937-3.53125 23.390624-5.519531 36.570312-5.519531s25.609375 1.988281 36.570312 5.519531zm0 0" fill="#fff"/><path d="m216 236 3.429688 81.519531h73.140624l3.429688-81.519531zm0 0" fill="#fe5f51"/><path d="m296 30c0 7.691406-4.339844 14.359375-10.699219 17.710938-6.050781 3.1875-9.300781 9.988281-9.300781 16.828124v41.460938h-40v-41.460938c0-6.839843-3.25-13.640624-9.300781-16.828124-6.359375-3.351563-10.699219-10.019532-10.699219-17.710938 0-11.050781 8.949219-20 20-20s20 8.949219 20 20c0-11.050781 8.949219-20 20-20s20 8.949219 20 20zm0 0" fill="#fff"/><path d="m223.53125 407.710938 2.46875 54.289062h60l2.46875-54.289062zm0 0" fill="#fe5f51"/><path d="m183.839844 196h-135.75c1.390625-5.410156 3.46875-10.78125 6.289062-15.988281l41.5625-74.011719h40.058594c1.628906 3.011719 40.480469 72.269531 41.621094 74.171875.007812.007813.007812.007813.007812.019531.011719.007813.011719.019532.011719.019532 2.78125 5.148437 4.828125 10.449218 6.199219 15.789062zm0 0" fill="#f5b955"/><path d="m136 236 18.328125 226c-5.492187 0-50.914063 0-58.328125 0l-40-226zm0 0" fill="#fe5f51"/><path d="m156 30c0 7.691406-4.339844 14.359375-10.699219 17.710938-6.050781 3.1875-9.300781 9.988281-9.300781 16.828124v41.460938h-40v-41.460938c0-6.839843-3.25-13.640624-9.300781-16.828124-6.359375-3.351563-10.699219-10.019532-10.699219-17.710938 0-11.050781 8.949219-20 20-20s20 8.949219 20 20c0-11.050781 8.949219-20 20-20s20 8.949219 20 20zm0 0" fill="#fff"/><path d="m216 372c5.519531 0 10-4.480469 10-10s-4.480469-10-10-10-10 4.480469-10 10 4.480469 10 10 10zm0 0"/><path d="m256 372h40c5.523438 0 10-4.476562 10-10s-4.476562-10-10-10h-40c-5.523438 0-10 4.476562-10 10s4.476562 10 10 10zm0 0"/><path d="m482 186h-10.816406c-3.902344-10.644531-5.429688-11.265625-45.183594-82.585938v-38.875c0-3.523437 1.59375-6.734374 3.960938-7.980468 9.894531-5.210938 16.039062-15.386719 16.039062-26.558594 0-16.542969-13.457031-30-30-30-7.675781 0-14.6875 2.898438-20 7.65625-5.3125-4.757812-12.324219-7.65625-20-7.65625-16.542969 0-30 13.457031-30 30 0 11.171875 6.144531 21.347656 16.035156 26.554688 2.371094 1.25 3.964844 4.460937 3.964844 7.984374v38.738282l-40.050781 71.320312c-3.371094-5.921875-33.390625-59.417968-39.949219-71.183594v-38.875c0-3.523437 1.59375-6.734374 3.960938-7.980468 9.894531-5.210938 16.039062-15.386719 16.039062-26.558594 0-16.542969-13.457031-30-30-30-7.675781 0-14.6875 2.898438-20 7.65625-5.3125-4.757812-12.324219-7.65625-20-7.65625-16.542969 0-30 13.457031-30 30 0 11.171875 6.144531 21.347656 16.035156 26.554688 2.371094 1.25 3.964844 4.460937 3.964844 7.984374v38.738282l-40.050781 71.320312c-3.324219-5.835937-33.378907-59.394531-39.949219-71.183594v-38.875c0-3.523437 1.59375-6.734374 3.960938-7.980468 9.894531-5.210938 16.039062-15.386719 16.039062-26.558594 0-16.542969-13.457031-30-30-30-7.675781 0-14.6875 2.898438-20 7.65625-5.3125-4.757812-12.324219-7.65625-20-7.65625-16.542969 0-30 13.457031-30 30 0 11.171875 6.144531 21.347656 16.035156 26.554688 2.371094 1.25 3.964844 4.460937 3.964844 7.984374v38.738282l-40.339844 71.835937c-.023437.042969-.050781.089844-.074218.136719-1.882813 3.476562-3.496094 7.070312-4.839844 10.75h-10.746094c-16.574219 0-30 13.425781-30 30 0 16.542969 13.457031 30 30 30h17.613281l38.386719 216.878906v19.121094c0 16.542969 13.457031 30 30 30h280c16.542969 0 30-13.457031 30-30v-19.125l38.386719-216.875h17.613281c16.574219 0 30-13.425781 30-30 0-16.542969-13.457031-30-30-30zm-15.8125-10.996094c.011719.019532.023438.039063.039062.0625h-.007812c-.007812-.011718-.023438-.039062-.035156-.058594zm-90.1875-155.003906c5.515625 0 10 4.484375 10 10 0 5.523438 4.476562 10 10 10s10-4.476562 10-10c0-5.515625 4.484375-10 10-10s10 4.484375 10 10c0 3.726562-2.054688 7.121094-5.363281 8.863281-9.027344 4.761719-14.636719 14.601563-14.636719 25.675781v31.460938h-20v-31.460938c0-11.074218-5.609375-20.914062-14.640625-25.675781-3.304687-1.742187-5.359375-5.136719-5.359375-8.863281 0-5.515625 4.484375-10 10-10zm5.792969 96h28.328125c48.726562 87.175781 36.410156 64.503906 39.242187 70h-106.808593c1.378906-2.691406 10.128906-18.097656 39.238281-70zm-145.792969-96c5.515625 0 10 4.484375 10 10 0 5.523438 4.476562 10 10 10s10-4.476562 10-10c0-5.515625 4.484375-10 10-10s10 4.484375 10 10c0 3.726562-2.054688 7.121094-5.363281 8.863281-9.027344 4.761719-14.636719 14.601563-14.636719 25.675781v31.460938h-20v-31.460938c0-11.074218-5.609375-20.914062-14.640625-25.675781-3.304687-1.742187-5.359375-5.136719-5.359375-8.863281 0-5.515625 4.484375-10 10-10zm5.792969 96h28.328125c48.726562 87.175781 36.410156 64.503906 39.242187 70h-106.808593c.199218-.386719.378906-.78125.585937-1.164062zm-145.792969-96c5.515625 0 10 4.484375 10 10 0 5.523438 4.476562 10 10 10s10-4.476562 10-10c0-5.515625 4.484375-10 10-10s10 4.484375 10 10c0 3.726562-2.054688 7.121094-5.363281 8.863281-9.027344 4.761719-14.636719 14.601563-14.636719 25.675781v31.460938h-20v-31.460938c0-11.074218-5.609375-20.914062-14.640625-25.675781-3.304687-1.742187-5.359375-5.136719-5.359375-8.863281 0-5.515625 4.484375-10 10-10zm5.792969 96h28.324219c9.070312 16.238281 35.804687 63.859375 38.699218 68.917969 0 .003906.007813.011719.011719.019531.007813.015625.023437.035156.03125.054688.023437.039062.039063.078124.0625.113281.15625.296875.292969.597656.445313.894531h-106.8125c1.386718-2.703125 10.117187-18.070312 39.238281-70zm194.671875 336 1.675781-36.851562c29.304687-10.21875 47.859375-30.546876 47.859375-53.148438 0-21.441406-16.335938-40.65625-43.128906-51.382812l2.71875-64.617188h59.484375l-18.226563 206zm-60.910156 0-1.445313-31.753906c7.101563 1.160156 14.421875 1.753906 21.890625 1.753906s14.789062-.59375 21.886719-1.753906l-1.441407 31.753906zm-13.058594-124.960938c10.234375-3.296874 21.820312-5.039062 33.503906-5.039062s23.269531 1.742188 33.503906 5.039062h.003906c22.167969 7.136719 36.492188 20.855469 36.492188 34.960938 0 14.886719-16.160156 29.382812-40.210938 36.074219-9.355468 2.605469-19.378906 3.925781-29.789062 3.925781s-20.433594-1.320312-29.789062-3.925781c-24.050782-6.6875-40.210938-21.1875-40.210938-36.074219 0-14.105469 14.324219-27.824219 36.496094-34.960938zm60.605468-22.3125c-8.695312-1.796874-17.757812-2.726562-27.101562-2.726562s-18.40625.929688-27.097656 2.726562l-2.472656-58.726562h59.140624zm-76.691406-58.726562 2.722656 64.617188c-26.796874 10.726562-43.132812 29.941406-43.132812 51.382812 0 22.601562 18.554688 42.929688 47.859375 53.148438l1.675781 36.851562h-51.984375l-16.707031-206zm-79.632812 0 16.707031 206h-39.097656l-36.460938-206zm279.222656 236c0 5.515625-4.484375 10-10 10h-280c-5.515625 0-10-4.484375-10-10v-10h300zm1.613281-30h-40.6875l18.226563-206h58.921875zm74.386719-226c-11.945312 0-440.011719 0-452 0-5.515625 0-10-4.484375-10-10 0-5.519531 4.476562-10 10-10h452c5.515625 0 10 4.484375 10 10 0 5.523438-4.480469 10-10 10zm0 0"/></svg>