<svg height="512pt" viewBox="0 -66 512 512" width="512pt" xmlns="http://www.w3.org/2000/svg"><path d="m476.199219 110c-17.210938-57.828125-70.777344-100-134.199219-100h-172c-77.320312 0-140 62.679688-140 140h452c0-13.898438-2.03125-27.328125-5.800781-40zm0 0" fill="#f5b955"/><path d="m472 230c16.570312 0 30 13.429688 30 30 0 16.597656-13.460938 30-30 30h-70l60-60zm0 0" fill="#a5dc69"/><path d="m480.941406 154.761719h-449.882812c-13.871094 7.703125-21.058594 21.3125-21.058594 35.238281 0 22.089844 17.910156 40 40 40h412c22.078125 0 40-17.917969 40-40 0-13.9375-7.183594-27.53125-21.058594-35.238281zm0 0" fill="#fe5f51"/><path d="m30 290c0 55.230469 44.769531 80 100 80h252c55.230469 0 100-24.769531 100-80zm0 0" fill="#f5b955"/><path d="m462 150c6.851562 0 13.300781 1.730469 18.941406 4.761719-20.863281 10.597656-29.550781 35.238281-60.941406 35.238281-40 0-42-40-82-40zm0 0" fill="#a5dc69"/><path d="m182 230 100 100 40-40 40 40 100-100zm0 0" fill="#ffde85"/><g fill="#a5dc69"><path d="m174 150h164c-40 0-42 40-82 40s-42-40-82-40zm0 0"/><path d="m242 290h-202c-16.53125 0-30-13.394531-30-30 0-16.570312 13.429688-30 30-30h142zm0 0"/><path d="m50 150h124c-40 0-42 40-82 40-31.390625 0-40.078125-24.640625-60.941406-35.238281 5.640625-3.03125 12.089844-4.761719 18.941406-4.761719zm0 0"/></g><path d="m90 120c5.519531 0 10-4.480469 10-10s-4.480469-10-10-10-10 4.480469-10 10 4.480469 10 10 10zm0 0"/><path d="m0 260c0 14.484375 7.851562 27.667969 20.105469 34.699219 2.328125 52.753906 43.980469 85.300781 109.894531 85.300781h252c65.914062 0 107.570312-32.546875 109.894531-85.300781 12.253907-7.035157 20.105469-20.21875 20.105469-34.699219 0-13.433594-6.664062-25.332031-16.847656-32.589844 10.90625-9.691406 16.847656-23.148437 16.847656-37.410156 0-15.769531-7.53125-30.582031-20-39.976562v-.023438c0-82.667969-67-150-150-150h-172c-82.710938 0-150 67.289062-150 150v.019531c-12.75 9.59375-20 24.253907-20 39.980469 0 14.867188 6.53125 28.234375 16.863281 37.398438-10.191406 7.257812-16.863281 19.160156-16.863281 32.601562zm382 100h-252c-43.949219 0-84.167969-16.53125-89.394531-60h197.25l37.074219 37.070312c1.953124 1.953126 4.511718 2.929688 7.070312 2.929688s5.117188-.976562 7.070312-2.929688l32.929688-32.925781 32.929688 32.925781c1.953124 1.953126 4.511718 2.929688 7.070312 2.929688s5.117188-.976562 7.070312-2.929688l37.070313-37.082031h65.253906c-5.226562 43.46875-45.445312 60.011719-89.394531 60.011719zm-20-44.140625-25.855469-25.871094 50-50 51.714844.011719zm-80 0-75.855469-75.871094h151.714844c-15.613281 15.613281-59.121094 59.128907-75.859375 75.871094zm190-35.859375h-45.855469l40-40h5.855469c11.027344 0 20 8.972656 20 20 0 10.925781-8.847656 20-20 20zm-302-260h172c52.507812 0 100.039062 32.296875 120 80h-332c-5.523438 0-10 4.476562-10 10s4.476562 10 10 10h338.5c1.621094 6.875 2.695312 13.882812 3.183594 20.960938-3.183594-.625-6.429688-.960938-9.683594-.960938h-412c-3.253906 0-6.496094.332031-9.679688.960938 4.65625-67.480469 61.035157-120.960938 129.679688-120.960938zm287.40625 140c-.867188.8125-1.730469 1.621094-2.585938 2.429688-10.390624 9.816406-18.597656 17.570312-34.820312 17.570312-16 0-23.988281-7.609375-34.105469-17.242188-.957031-.910156-1.925781-1.832031-2.910156-2.757812zm-164.390625 0c-.984375.925781-1.953125 1.847656-2.914063 2.757812-10.113281 9.632813-18.101562 17.242188-34.101562 17.242188s-23.988281-7.609375-34.105469-17.242188c-.957031-.910156-1.925781-1.832031-2.910156-2.757812zm-164 0c-.984375.925781-1.953125 1.847656-2.914063 2.757812-10.113281 9.632813-18.101562 17.242188-34.101562 17.242188-16.222656 0-24.429688-7.753906-34.820312-17.570312-.855469-.808594-1.714844-1.621094-2.585938-2.429688zm-97.714844 6.5625c4.203125 2.917969 8.09375 6.582031 12.144531 10.40625 11.425782 10.796875 24.378907 23.03125 48.554688 23.03125 24 0 36.695312-12.089844 47.894531-22.757812 10.117188-9.632813 18.105469-17.242188 34.105469-17.242188s23.988281 7.609375 34.105469 17.242188c11.199219 10.667968 23.894531 22.757812 47.894531 22.757812s36.695312-12.089844 47.894531-22.757812c10.117188-9.632813 18.105469-17.242188 34.105469-17.242188s23.988281 7.609375 34.105469 17.242188c11.199219 10.667968 23.894531 22.757812 47.894531 22.757812 24.175781 0 37.128906-12.234375 48.554688-23.03125 4.046874-3.824219 7.933593-7.484375 12.148437-10.410156 7.054687 5.652344 11.296875 14.277344 11.296875 23.441406 0 16.566406-13.425781 29.996094-29.996094 30-.003906 0-.007812 0-.011718 0h-411.992188c-16.542969 0-30-13.457031-30-30 0-9.066406 4.007812-17.597656 11.300781-23.4375zm146.554688 73.4375 40 40h-177.855469c-11.148438 0-20-9.070312-20-20 0-11.027344 8.972656-20 20-20zm0 0"/></svg>