<svg height="512pt" viewBox="0 0 512 512" width="512pt" xmlns="http://www.w3.org/2000/svg"><path d="m256 10c132.550781 0 246 113.449219 246 246s-113.449219 246-246 246-246-113.449219-246-246 113.449219-246 246-246zm0 0" fill="#a5dc69"/><path d="m262.839844 73.140625c-26.425782-1.164063-54.277344 4.242187-80.449219 16.417969v.011718c-65.308594 30.417969-112.164063 98.585938-109.25 173.378907 3.933594 95.09375 87.851563 176.050781 182.859375 176.050781 98.101562 0 183-85.730469 183-183 0-95.707031-81.664062-179.003906-176.160156-182.859375zm0 0" fill="#fff"/><path d="m173 103c5.519531 0 10-4.480469 10-10 0-1.199219-.210938-2.359375-.609375-3.429688 0 0 0 0 0-.011718-1.402344-3.828125-5.082031-6.558594-9.390625-6.558594-5.519531 0-10 4.480469-10 10 0 5.476562 4.453125 10 10 10zm0 0"/><path d="m256 512c137.90625 0 256-117.695312 256-256 0-138.03125-117.816406-256-256-256-137.90625 0-256 117.695312-256 256 0 138.03125 117.816406 256 256 256zm0-492c127.925781 0 236 108.074219 236 236s-108.074219 236-236 236-236-108.074219-236-236 108.074219-236 236-236zm0 0"/><path d="m256 449c104.617188 0 193-88.382812 193-193 0-102.070312-83.730469-188.898438-185.71875-192.851562-17.460938-.765626-39.253906 1.308593-55.519531 5.289062-5.363281 1.3125-8.648438 6.726562-7.335938 12.089844 1.3125 5.363281 6.730469 8.648437 12.089844 7.335937 14.355469-3.511719 34.40625-5.417969 49.9375-4.730469 91.832031 3.558594 166.546875 81.105469 166.546875 172.867188 0 93.777344-79.226562 173-173 173-91.703125 0-169.253906-74.664062-172.867188-166.4375-2.09375-53.746094 21.707032-107.757812 62.113282-140.957031 4.269531-3.503907 4.886718-9.804688 1.382812-14.074219-3.507812-4.265625-9.808594-4.886719-14.074218-1.378906-45.144532 37.089844-71.738282 97.320312-69.40625 157.191406 4 101.558594 90.378906 185.65625 192.851562 185.65625zm0 0"/><path d="m256 106c-5.523438 0-10 4.476562-10 10v20c0 5.523438 4.476562 10 10 10s10-4.476562 10-10v-20c0-5.523438-4.476562-10-10-10zm0 0"/><path d="m246 396c0 5.523438 4.476562 10 10 10s10-4.476562 10-10v-20c0-5.523438-4.476562-10-10-10s-10 4.476562-10 10zm0 0"/><path d="m396 266c5.523438 0 10-4.476562 10-10s-4.476562-10-10-10h-20c-5.523438 0-10 4.476562-10 10s4.476562 10 10 10zm0 0"/><path d="m136 246h-20c-5.523438 0-10 4.476562-10 10s4.476562 10 10 10h20c5.523438 0 10-4.476562 10-10s-4.476562-10-10-10zm0 0"/><path d="m216.410156 268.074219c13.871094-9.132813 29.589844-19.484375 29.589844-42.074219 0-22.054688-17.945312-40-40-40s-40 17.945312-40 40c0 5.523438 4.476562 10 10 10s10-4.476562 10-10c0-11.027344 8.972656-20 20-20s20 8.972656 20 20c0 11.289062-7.058594 16.464844-20.589844 25.371094-25.140625 16.558594-39.410156 32.15625-39.410156 64.628906 0 5.523438 4.476562 10 10 10h60c5.523438 0 10-4.476562 10-10s-4.476562-10-10-10h-49.28125c2.988281-19.519531 14.425781-27.871094 29.691406-37.925781zm0 0"/><path d="m276 186c-5.523438 0-10 4.476562-10 10v60c0 5.523438 4.476562 10 10 10h50v50c0 5.523438 4.476562 10 10 10s10-4.476562 10-10v-120c0-5.523438-4.476562-10-10-10s-10 4.476562-10 10v50h-40v-50c0-5.523438-4.476562-10-10-10zm0 0"/></svg>