<svg height="512pt" viewBox="-33 0 512 512" width="512pt" xmlns="http://www.w3.org/2000/svg"><path d="m430.144531 144.140625-28.28125-28.28125c-7.808593-7.808594-20.476562-7.808594-28.289062 0l-21.640625 21.640625c-25.617188-21.121094-56.089844-36.371094-88.96875-43.308594l.039062-.191406v-44h20v-20c0-11.050781-8.949218-20-20-20h-80c-11.050781 0-20 8.949219-20 20v20h20v44l.042969.191406c-33.582031 7.089844-64.652344 22.847656-90.613281 44.679688l-20-20.011719c-7.808594-7.808594-20.480469-7.808594-28.289063 0l-28.28125 28.28125c-7.808593 7.808594-7.808593 20.480469 0 28.289063l25.671875 25.671874c-15.589844 28.6875-24.53125 61.097657-24.53125 94.898438 0 110.460938 95.542969 206 206 206 110.460938 0 206-95.539062 206-206 0-34.570312-9.347656-67.671875-25.589844-96.839844l26.730469-26.730468c7.808594-7.808594 7.808594-20.480469 0-28.289063zm0 0" fill="#ffde85"/><path d="m430.003906 297c0 114.324219-92.675781 207-207 207-114.320312 0-207-92.675781-207-207s92.679688-207 207-207c114.324219 0 207 92.675781 207 207zm0 0" fill="#ccf1ff"/><path d="m223.003906 196c55.140625 0 100 44.859375 100 100s-44.859375 100-100 100-103-44.859375-103-100 47.859375-100 103-100zm0 0" fill="#ffde85"/><path d="m223.003906 276c11.050782 0 20 8.949219 20 20s-8.949218 20-20 20c-11.050781 0-20-8.949219-20-20s8.949219-20 20-20zm0 0" fill="#fe5f51"/><path d="m376.003906 296h-53c0-55.140625-44.859375-100-100-100v-53c81.160156 0 153 71.890625 153 153zm0 0" fill="#fe5f51"/><path d="m323.003906 296h53c0 80.683594-71.441406 153-153 153v-53c55.140625 0 100-44.859375 100-100zm0 0" fill="#f5b955"/><path d="m70.003906 296h50c0-55.140625 47.859375-100 103-100v-53c-81.089844 0-153 71.816406-153 153zm0 0" fill="#fff"/><path d="m70.003906 296h50c0 55.140625 47.859375 100 103 100v53c-81.035156 0-153-71.785156-153-153zm0 0" fill="#a5dc69"/><path d="m120.003906 193c5.519532 0 10-4.480469 10-10 0-5.5625-4.527344-10-10-10-5.519531 0-10 4.480469-10 10 0 5.523438 4.496094 10 10 10zm0 0"/><path d="m93.171875 125.460938-13.664063-13.671876c-11.726562-11.722656-30.707031-11.726562-42.433593 0l-28.28125 28.277344c-11.722657 11.726563-11.726563 30.707032 0 42.433594l20.492187 20.492188c-14.589844 29.234374-22.28125 61.226562-22.28125 93.007812 0 115.953125 99.945313 216 216 216 115.757813 0 216-99.742188 216-216 0-32.523438-8.035156-65.207031-23.285156-95l21.496094-21.496094c11.699218-11.699218 11.699218-30.734375 0-42.433594l-28.277344-28.28125c-11.699219-11.699218-30.734375-11.699218-42.433594 0l-15.363281 15.363282c-23.554687-17.867188-50.273437-30.820313-78.136719-37.875v-26.277344h10c5.523438 0 10-4.476562 10-10v-20c0-16.542969-13.457031-30-30-30h-80c-16.542968 0-30 13.457031-30 30v20c0 5.523438 4.476563 10 10 10h10v26.277344c-28.554687 7.226562-55.855468 20.632812-79.832031 39.183594zm-70.234375 28.75 28.277344-28.28125c3.90625-3.902344 10.238281-3.910157 14.148437 0l12.476563 12.484374c-14.917969 13.789063-27.773438 29.351563-38.402344 46.445313l-16.5-16.5c-3.910156-3.90625-3.910156-10.242187 0-14.148437zm200.066406 337.789062c-104.410156 0-196-91.589844-196-196 0-104.621094 90.695313-196 196-196 104.699219 0 196 90.78125 196 196 0 104.410156-91.589844 196-196 196zm171.789063-369.070312 28.28125 28.28125c3.898437 3.898437 3.898437 10.246093 0 14.148437l-17.65625 17.65625c-10.796875-16.984375-23.789063-32.410156-38.816407-46.042969l14.042969-14.042968c3.90625-3.90625 10.242188-3.90625 14.148438 0zm-221.789063-92.929688c0-5.515625 4.488282-10 10-10h80c5.515625 0 10 4.484375 10 10v10h-100zm80 30v22.257812c-9.96875-1.492187-20.015625-2.257812-30-2.257812s-20.03125.765625-30 2.257812v-22.257812zm0 0"/><path d="m223.003906 133c-26.28125 0-53.753906 6.3125-75.375 17.316406-4.921875 2.507813-6.882812 8.527344-4.375 13.449219 2.503906 4.921875 8.527344 6.878906 13.449219 4.375 15.9375-8.113281 36.386719-13.414063 56.300781-14.78125v33.109375c-52.273437 4.804688-97.4375 46.027344-102.519531 99.53125h-30.132813c1.644532-24.464844 9.238282-48.738281 21.402344-67.863281 2.964844-4.660157 1.589844-10.839844-3.070312-13.804688-4.660156-2.964843-10.839844-1.589843-13.804688 3.070313-15.808594 24.851562-24.875 57.144531-24.875 88.597656 0 88.355469 74.644532 163 163 163 89.800782 0 165.191406-77.046875 162.949219-166.796875-1.4375-86.296875-76.058594-159.203125-162.949219-159.203125zm142.675782 153h-33.132813c-4.773437-52.691406-46.851563-94.769531-99.542969-99.539062v-33.085938c69.667969 5.121094 128.0625 63.140625 132.675782 132.625zm-142.675782-80c49.628906 0 90 40.375 90 90s-40.371094 90-90 90c-50.410156 0-93-41.214844-93-90s42.589844-90 93-90zm-142.625 100h30.105469c5.082031 53.519531 50.261719 94.730469 102.519531 99.53125v33.097656c-69.753906-5.09375-127.535156-62.875-132.625-132.628906zm152.625 132.628906v-33.089844c52.691406-4.769531 94.769532-46.859374 99.542969-99.550781h33.085937c-5.089843 69.757813-62.875 127.546875-132.628906 132.640625zm0 0"/><path d="m223.003906 326c16.542969 0 30-13.457031 30-30 0-13.035156-8.359375-24.152344-20-28.28125v-31.71875c0-5.523438-4.476562-10-10-10-5.523437 0-10 4.476562-10 10v31.71875c-11.636718 4.128906-20 15.246094-20 28.28125 0 16.542969 13.460938 30 30 30zm0-40c5.515625 0 10 4.484375 10 10s-4.484375 10-10 10c-5.511718 0-10-4.484375-10-10s4.484375-10 10-10zm0 0"/></svg>