<svg height="512pt" viewBox="-46 0 512 512.00022" width="512pt" xmlns="http://www.w3.org/2000/svg"><path d="m410 10v452c0 22.089844-17.910156 40-40 40h-320c22.089844 0 40-17.910156 40-40 0-17.71875 0-436.140625 0-452l40 40 40-40 40 40 40-40 40 40 40-40 40 40zm0 0" fill="#fff"/><path d="m90 402v60c0 22.089844-17.910156 40-40 40s-40-17.910156-40-40v-60zm0 0" fill="#ffde85"/><path d="m150 312c5.519531 0 10-4.480469 10-10s-4.480469-10-10-10-10 4.480469-10 10 4.480469 10 10 10zm0 0"/><path d="m150 372c5.519531 0 10-4.480469 10-10s-4.480469-10-10-10-10 4.480469-10 10 4.480469 10 10 10zm0 0"/><path d="m150 432c5.519531 0 10-4.480469 10-10s-4.480469-10-10-10-10 4.480469-10 10 4.480469 10 10 10zm0 0"/><path d="m370 512c27.570312 0 50-22.429688 50-50v-452c0-4.042969-2.4375-7.691406-6.171875-9.238281-3.738281-1.546875-8.039063-.6914065-10.898437 2.167969l-32.929688 32.929687-32.929688-32.929687c-3.902343-3.90625-10.234374-3.90625-14.140624 0l-32.929688 32.929687-32.929688-32.929687c-3.902343-3.90625-10.234374-3.90625-14.140624 0l-32.929688 32.929687-32.929688-32.929687c-3.902343-3.90625-10.234374-3.90625-14.140624 0l-32.929688 32.929687-32.929688-32.929687c-2.859374-2.8593755-7.160156-3.714844-10.894531-2.167969-3.738281 1.546875-6.175781 5.195312-6.175781 9.238281v382h-70c-5.523438 0-10 4.476562-10 10v60c0 27.570312 22.429688 50 50 50zm-270-477.855469 22.929688 22.925781c3.902343 3.90625 10.234374 3.90625 14.140624 0l32.929688-32.925781 32.929688 32.925781c3.902343 3.90625 10.234374 3.90625 14.140624 0l32.929688-32.925781 32.929688 32.925781c3.902343 3.90625 10.234374 3.90625 14.140624 0l32.929688-32.925781 32.929688 32.925781c3.902343 3.90625 10.234374 3.90625 14.140624 0l22.929688-22.925781v427.855469c0 16.542969-13.457031 30-30 30h-280.027344c6.292969-8.363281 10.027344-18.753906 10.027344-30 0-17.296875 0-399.394531 0-427.855469zm-80 427.855469v-50h60v50c0 16.542969-13.457031 30-30 30s-30-13.457031-30-30zm0 0"/><path d="m250 206c-4.273438 0-8.882812-2.6875-12.988281-7.5625-3.550781-4.230469-9.859375-4.777344-14.085938-1.21875-4.230469 3.550781-4.773437 9.859375-1.21875 14.085938 5.34375 6.359374 11.628907 10.792968 18.292969 13.023437v11.671875c0 5.523438 4.476562 10 10 10s10-4.476562 10-10v-11.71875c11.636719-4.128906 20-15.242188 20-28.28125 0-16.542969-13.457031-30-30-30-5.515625 0-10-4.484375-10-10 0-5.511719 4.484375-10 10-10 3.542969 0 7.28125 1.808594 10.816406 5.226562 3.96875 3.84375 10.300782 3.738282 14.140625-.230468 3.839844-3.96875 3.734375-10.300782-.234375-14.140625-5.074218-4.910157-10.152344-7.6875-14.722656-9.207031v-11.648438c0-5.523438-4.476562-10-10-10s-10 4.476562-10 10v11.722656c-11.640625 4.125-20 15.242188-20 28.277344 0 16.542969 13.457031 30 30 30 5.511719 0 10 4.488281 10 10 0 5.515625-4.488281 10-10 10zm0 0"/><path d="m190 312h160c5.523438 0 10-4.476562 10-10s-4.476562-10-10-10h-160c-5.523438 0-10 4.476562-10 10s4.476562 10 10 10zm0 0"/><path d="m190 372h160c5.523438 0 10-4.476562 10-10s-4.476562-10-10-10h-160c-5.523438 0-10 4.476562-10 10s4.476562 10 10 10zm0 0"/><path d="m190 432h160c5.523438 0 10-4.476562 10-10s-4.476562-10-10-10h-160c-5.523438 0-10 4.476562-10 10s4.476562 10 10 10zm0 0"/></svg>