<svg height="512pt" viewBox="0 -36 512 512" width="512pt" xmlns="http://www.w3.org/2000/svg"><path d="m387.808594 154.792969 13.953125-47-28.28125-28.289063c-3.230469.960938-79.121094 23.492188-83.628907 24.832032-.03125.007812-.070312.019531-.089843.027343-.011719 0-.011719 0-.011719 0-.019531.011719-.03125.011719-.050781.011719-.019531.011719-.039063.019531-.058594.019531-5.902344 1.769531-11.339844 4.21875-16.28125 7.230469-5.730469-.441406-11.519531-.671875-17.359375-.671875-109.140625 0-204.71875 79.480469-222.03125 183.722656l58.03125 46.277344h328l58.03125-46.277344c-9.472656-57.03125-45.859375-106.640625-90.222656-139.882812zm0 0" fill="#f5b955"/><path d="m461 370.953125h-410c-22.019531 0-41-17.847656-41-40 0-22.164063 19-40 41-40 22.089844 0 41 17.910156 41 40 0-22.089844 18.910156-40 41-40s41 17.910156 41 40c0-22.089844 18.910156-40 41-40s41 17.910156 41 40c0-22.089844 18.910156-40 41-40s41 17.910156 41 40c0-22.089844 18.910156-40 41-40s41 17.910156 41 40c0-22.089844 18.910156-40 41-40 22 0 41 17.839844 41 40 0 22.179687-19.007812 40-41 40zm0 0" fill="#a5dc69"/><path d="m35.238281 367.792969 30.023438 53.011719c3.546875 6.269531 11.1875 10.148437 18.398437 10.148437h344.679688c7.210937 0 14.851562-3.878906 18.398437-10.148437l30.023438-53.011719zm0 0" fill="#ccf1ff"/><path d="m465.398438 44.15625c7.8125 7.808594 7.8125 20.46875 0 28.277344-5.4375 5.441406-13.21875 7.089844-20.089844 4.960937-6.527344-2.03125-13.636719.492188-18.480469 5.332031l-25.066406 25.066407-28.28125-28.289063 25.070312-25.070312c4.839844-4.839844 7.347657-11.9375 5.320313-18.480469-2.132813-6.859375-.472656-14.648437 4.957031-20.089844 7.8125-7.808593 20.480469-7.808593 28.292969 0 7.808594 7.8125 7.808594 20.480469 0 28.292969 7.808594-7.8125 20.46875-7.8125 28.277344 0zm0 0" fill="#ffde85"/><path d="m174 180.953125c5.519531 0 10-4.476563 10-10 0-5.519531-4.480469-10-10-10s-10 4.480469-10 10c0 5.523437 4.480469 10 10 10zm0 0"/><path d="m28.132812 375.53125 28.425782 50.199219c5.15625 9.105469 16.046875 15.222656 27.101562 15.222656h344.679688c11.058594 0 21.949218-6.117187 27.101562-15.21875l28.429688-50.203125c17.199218-8.558594 28.128906-25.691406 28.128906-44.578125 0-17.550781-9.660156-33.855469-25-42.871094-9.921875-51.183593-41.523438-100.550781-87.652344-137.011719l11.277344-38 23.277344-23.273437c2.496094-2.5 5.890625-3.644531 8.445312-2.851563 10.679688 3.3125 22.222656.460938 30.125-7.441406 11.695313-11.695312 11.695313-30.726562 0-42.421875-5.273437-5.273437-12.164062-8.339843-19.554687-8.742187-.394531-7.117188-3.300781-14.121094-8.726563-19.546875-11.722656-11.71875-30.699218-11.730469-42.4375.007812-7.898437 7.910157-10.746094 19.453125-7.433594 30.117188.792969 2.558593-.347656 5.953125-2.84375 8.445312l-23.273437 23.277344c-6.671875 1.976563-25.453125 7.554687-43.300781 12.855469-34.542969 10.738281-41.5625 11.125-53.902344 17.945312-5.015625-.316406-10.046875-.488281-15-.488281-112.253906 0-210.722656 80.453125-231.015625 187.136719-15.335937 9.023437-24.984375 25.320312-24.984375 42.863281 0 18.882813 10.929688 36.019531 28.132812 44.578125zm409.90625 40.347656c-1.640624 2.894532-5.808593 5.074219-9.699218 5.074219h-344.679688c-3.890625 0-8.058594-2.179687-9.699218-5.078125l-19.777344-34.921875h403.632812zm-32.417968-354.371094c7.839844-7.839843 10.824218-18.765624 7.800781-28.519531-1.105469-3.558593-.152344-7.414062 2.480469-10.054687 3.90625-3.90625 10.238281-3.90625 14.144531 0 3.902344 3.902344 3.902344 10.25 0 14.148437-3.902344 3.90625-3.902344 10.238281 0 14.144531 3.90625 3.902344 10.238281 3.902344 14.144531 0 3.90625-3.910156 10.230469-3.910156 14.136719 0 3.898437 3.894532 3.898437 10.238282 0 14.136719-2.636719 2.632813-6.488281 3.582031-10.050781 2.480469-9.746094-3.027344-20.671875-.035156-28.519532 7.808594l-17.996093 17.996094-14.140625-14.144532zm-75.027344 41.160157c15.472656-4.59375 31.644531-9.394531 40.023438-11.882813l19.863281 19.871094-23.125 77.914062c-12.792969 43.085938-67.660157 57.578126-99.945313 25.285157-28.777344-28.78125-20.203125-74.605469 11.152344-93.691407 10.523438-6.410156 16.796875-6.570312 52.03125-17.496093zm-82.878906 18.457031c-25.136719 31.382812-24.171875 77.144531 5.550781 106.871094 43.085937 43.09375 116.183594 23.785156 133.261719-33.734375l6.652344-22.410157c35.839843 30.238282 61.203124 68.90625 71.730468 109.269532-1.296875-.097656-2.597656-.167969-3.910156-.167969-13.355469 0-26.042969 5.160156-35.734375 14.527344-1.929687 1.867187-3.683594 3.851562-5.265625 5.9375-1.585938-2.082031-3.335938-4.070313-5.269531-5.9375-9.6875-9.367188-22.378907-14.527344-35.730469-14.527344s-26.042969 5.160156-35.734375 14.527344c-1.929687 1.867187-3.683594 3.851562-5.265625 5.9375-1.585938-2.082031-3.335938-4.070313-5.269531-5.9375-9.6875-9.367188-22.378907-14.527344-35.730469-14.527344s-26.042969 5.160156-35.734375 14.527344c-1.929687 1.867187-3.683594 3.851562-5.265625 5.9375-1.585938-2.082031-3.335938-4.070313-5.269531-5.9375-9.6875-9.367188-22.378907-14.527344-35.730469-14.527344s-26.042969 5.160156-35.734375 14.527344c-1.929687 1.867187-3.683594 3.851562-5.265625 5.9375-1.585938-2.082031-3.335938-4.070313-5.269531-5.9375-9.6875-9.367188-22.378907-14.527344-35.730469-14.527344s-26.042969 5.160156-35.734375 14.527344c-1.929687 1.867187-3.683594 3.851562-5.265625 5.9375-1.585938-2.082031-3.335938-4.070313-5.269531-5.9375-9.6875-9.367188-22.378907-14.527344-35.730469-14.527344-1.351562 0-2.6875.070313-4.019531.175781 22.222656-89.734375 105.191406-156.34375 200.734375-160.003906zm-196.714844 179.828125c16.804688 0 31 13.738281 31 30 0 5.523437 4.476562 10 10 10s10-4.476563 10-10c0-16.261719 14.195312-30 31-30s31 13.738281 31 30c0 5.523437 4.476562 10 10 10s10-4.476563 10-10c0-16.261719 14.195312-30 31-30s31 13.738281 31 30c0 5.523437 4.476562 10 10 10s10-4.476563 10-10c0-16.261719 14.195312-30 31-30s31 13.738281 31 30c0 5.523437 4.476562 10 10 10s10-4.476563 10-10c0-16.261719 14.195312-30 31-30s31 13.738281 31 30c0 5.523437 4.476562 10 10 10s10-4.476563 10-10c0-16.261719 14.195312-30 31-30 16.429688 0 31 13.378906 31 30 0 17.035156-14.878906 30-31 30h-410c-16.105469 0-31-12.957031-31-30 0-16.597656 14.550781-30 31-30zm0 0"/><path d="m86.296875 259.902344c1.433594.714844 2.957031 1.054687 4.457031 1.054687 3.671875 0 7.207032-2.027343 8.957032-5.539062 10.167968-20.394531 25.921874-39.691407 45.554687-55.800781 4.269531-3.503907 4.886719-9.804688 1.386719-14.074219-3.503906-4.269531-9.804688-4.890625-14.074219-1.386719-21.792969 17.882812-39.347656 39.4375-50.765625 62.335938-2.464844 4.941406-.457031 10.945312 4.484375 13.410156zm0 0"/></svg>