<svg height="512pt" viewBox="0 0 512 512" width="512pt" xmlns="http://www.w3.org/2000/svg"><path d="m422 10h-332l-80 140v60h492v-60zm-76 100h-180c-16.570312 0-30-13.429688-30-30 0-16.558594 13.4375-30 30-30h180c16.570312 0 30 13.429688 30 30 0 16.558594-13.4375 30-30 30zm0 0" fill="#fe5f51"/><path d="m476 210-6.78125 66h-186.4375l-6.78125-66zm0 0" fill="#fff"/><path d="m469.21875 276-14.390625 140.03125-.257813-.03125h-157.140624l-.257813.03125-14.390625-140.03125zm0 0" fill="#fe5f51"/><path d="m454.828125 416.03125-8.828125 85.96875h-140l-8.828125-85.96875.257813-.03125h157.140624zm0 0" fill="#fff"/><path d="m406 346c0 16.570312-13.429688 30-30 30s-30-13.429688-30-30 13.429688-30 30-30 30 13.429688 30 30zm0 0" fill="#ffde85"/><path d="m236 210-6.78125 66h-186.4375l-6.78125-66zm0 0" fill="#fff"/><path d="m229.21875 276-14.390625 140.03125-.257813-.03125h-157.140624l-.257813.03125-14.390625-140.03125zm0 0" fill="#fe5f51"/><path d="m214.828125 416.03125-8.828125 85.96875h-140l-8.828125-85.96875.257813-.03125h157.140624zm0 0" fill="#fff"/><path d="m166 346c0 16.570312-13.429688 30-30 30s-30-13.429688-30-30 13.429688-30 30-30 30 13.429688 30 30zm0 0" fill="#ffde85"/><path d="m156 150c-5.519531 0-10 4.480469-10 10s4.480469 10 10 10 10-4.480469 10-10-4.480469-10-10-10zm0 0"/><path d="m376 386c22.054688 0 40-17.945312 40-40s-17.945312-40-40-40-40 17.945312-40 40 17.945312 40 40 40zm0-60c11.027344 0 20 8.972656 20 20s-8.972656 20-20 20-20-8.972656-20-20 8.972656-20 20-20zm0 0"/><path d="m136 386c22.054688 0 40-17.945312 40-40s-17.945312-40-40-40-40 17.945312-40 40 17.945312 40 40 40zm0-60c11.027344 0 20 8.972656 20 20s-8.972656 20-20 20-20-8.972656-20-20 8.972656-20 20-20zm0 0"/><path d="m10 220h16.976562c2.699219 27.457031 29.078126 283.023438 29.078126 283.023438.519531 5.097656 4.816406 8.976562 9.945312 8.976562h140c5.128906 0 9.425781-3.878906 9.945312-8.976562l29.078126-283.023438h21.953124c2.699219 27.457031 29.078126 283.023438 29.078126 283.023438.519531 5.097656 4.816406 8.976562 9.945312 8.976562h140c5.128906 0 9.425781-3.878906 9.945312-8.976562l29.078126-283.023438h16.976562c5.523438 0 10-4.476562 10-10v-60c0-1.738281-.453125-3.449219-1.316406-4.960938l-80-140c-1.78125-3.117187-5.09375-5.039062-8.683594-5.039062h-332c-3.589844 0-6.902344 1.921875-8.683594 5.039062l-80 140c-.863281 1.511719-1.316406 3.222657-1.316406 4.960938v60c0 5.523438 4.476562 10 10 10zm195.808594 186h-139.617188l-12.332031-120h164.28125zm-130.785156 86-6.78125-66h135.511718l-6.78125 66zm145.171874-226h-168.390624l-4.726563-46h177.84375zm225.613282 140h-139.617188l-12.332031-120h164.28125zm-130.785156 86-6.78125-66h135.511718l-6.78125 66zm145.171874-226h-168.390624l-4.726563-46h177.84375zm-440.195312-113.34375 75.804688-132.65625h320.390624l75.804688 132.65625v47.34375h-15.992188c-.003906 0-.011718 0-.015624 0-19.960938 0-434.324219 0-455.992188 0zm0 0"/><path d="m166 120h180c22.097656 0 40-17.898438 40-40 0-22.054688-17.945312-40-40-40h-180c-22.097656 0-40 17.898438-40 40 0 22.054688 17.945312 40 40 40zm0-60h180c11.027344 0 20 8.972656 20 20 0 11.046875-8.953125 20-20 20h-180c-11.027344 0-20-8.972656-20-20 0-11.046875 8.953125-20 20-20zm0 0"/><path d="m356 150h-160c-5.523438 0-10 4.476562-10 10s4.476562 10 10 10h160c5.523438 0 10-4.476562 10-10s-4.476562-10-10-10zm0 0"/></svg>