<svg height="512pt" viewBox="-30 0 512 512" width="512pt" xmlns="http://www.w3.org/2000/svg"><path d="m442.511719 478.710938c2.03125 12.1875-7.367188 23.289062-19.726563 23.289062h-392.78125c-12.359375 0-21.761718-11.101562-19.730468-23.289062l56.121093-336.710938h320zm0 0" fill="#e6a75a"/><path d="m326.394531 302h-200c0-22.089844 17.910157-50 40-50 4.640625 0 9.097657.789062 13.238281 2.238281 7.171876-18.839843 25.402344-32.238281 46.761719-32.238281s39.589844 13.398438 46.757813 32.238281c4.140625-1.449219 8.601562-2.238281 13.242187-2.238281 22.089844 0 40 27.910156 40 50zm0 0" fill="#ffde85"/><path d="m126.394531 302h200c0 55.226562-44.757812 100-100 100-55.230469 0-100-44.769531-100-100zm0 0" fill="#fe5f51"/><path d="m286.394531 10h-120l-40 40v92h40v-92h120v92h40v-92zm0 0" fill="#ffde85"/><path d="m106.394531 472c5.519531 0 10-4.480469 10-10s-4.480469-10-10-10-10 4.480469-10 10 4.480469 10 10 10zm0 0"/><path d="m7.113281 501.394531c5.710938 6.738281 14.054688 10.605469 22.890625 10.605469h392.78125c8.832032 0 17.175782-3.867188 22.886719-10.605469 5.710937-6.742187 8.15625-15.609375 6.707031-24.328125l-56.121094-336.710937c-.804687-4.820313-4.976562-8.355469-9.863281-8.355469h-50v-82c0-2.6875-1.117187-5.253906-2.921875-7.0625-.003906-.003906-.003906-.007812-.007812-.007812l-40-40c-1.875-1.875-4.417969-2.929688-7.070313-2.929688h-120c-2.652343 0-5.195312 1.054688-7.070312 2.929688l-40 40c-.003907 0-.003907.003906-.007813.007812-1.769531 1.769531-2.921875 4.320312-2.921875 7.0625v82h-50c-4.890625 0-9.0625 3.535156-9.863281 8.355469l-56.121094 336.710937c-1.453125 8.71875.992188 17.582032 6.703125 24.328125zm269.28125-369.394531h-100v-72h100zm-140-72h20v72h-20zm160 0h20v72h-20zm-125.859375-40h111.714844l20 20h-151.714844zm-150.398437 460.355469 54.726562-328.355469h303.058594l54.726563 328.351562c.492187 2.949219-.300782 5.832032-2.234376 8.113282-1.933593 2.277344-4.640624 3.535156-7.628906 3.535156h-392.78125c-2.988281 0-5.699218-1.257812-7.628906-3.535156-1.933594-2.28125-2.726562-5.164063-2.238281-8.109375zm0 0"/><path d="m136.394531 462c0 5.523438 4.476563 10 10 10h200c5.523438 0 10-4.476562 10-10s-4.476562-10-10-10h-200c-5.523437 0-10 4.476562-10 10zm0 0"/><path d="m226.394531 412c60.78125 0 110-49.175781 110-110 0-27.078125-21.667969-60-50-60-2.59375 0-5.164062.195312-7.699219.589844-10.519531-18.597656-30.5625-30.589844-52.300781-30.589844-21.742187 0-41.78125 11.992188-52.304687 30.589844-2.53125-.394532-5.101563-.589844-7.695313-.589844-28.074219 0-50 32.601562-50 60 0 60.652344 49.34375 110 110 110zm-60-150c3.410157 0 6.753907.5625 9.933594 1.679688 5.117187 1.789062 10.726563-.820313 12.652344-5.882813 5.871093-15.429687 20.90625-25.796875 37.414062-25.796875 16.503907 0 31.542969 10.367188 37.414063 25.796875 1.925781 5.0625 7.535156 7.675781 12.652344 5.882813 3.175781-1.117188 6.519531-1.679688 9.933593-1.679688 12.605469 0 24.605469 14.992188 28.601563 30h-177.203125c3.996093-15.007812 15.996093-30 28.601562-30zm149.453125 50c-4.859375 44.28125-42.398437 80-89.453125 80-46.246093 0-84.457031-35.0625-89.449219-80zm0 0"/><path d="m226.394531 372c19.84375 0 38.847657-8.5 52.136719-23.324219 3.683594-4.113281 3.339844-10.4375-.773438-14.121093-4.109374-3.6875-10.433593-3.34375-14.121093.769531-9.5 10.597656-23.074219 16.675781-37.242188 16.675781-5.523437 0-10 4.476562-10 10s4.476563 10 10 10zm0 0"/></svg>