<svg height="512pt" viewBox="0 0 512 512.00013" width="512pt" xmlns="http://www.w3.org/2000/svg"><path d="m333.378906 443.90625 168.621094-433.90625-433.90625 168.621094h-.011719c-4.460937-11.929688-16.269531-20.121094-29.660156-19.421875-16.539063.871093-29.25 14.992187-28.378906 31.53125 4.429687 84.277343 40.097656 159.867187 95.730469 215.496093 55.628906 55.632813 131.21875 91.300782 215.496093 95.730469 16.539063.871094 30.660157-11.839843 31.53125-28.378906.707031-13.378906-7.480469-25.199219-19.421875-29.671875zm0 0" fill="#f5b955"/><path d="m68.09375 178.621094h-.011719s-2.082031 104.378906 71.917969 178.378906c87.25 87.246094 193.378906 86.90625 193.378906 86.90625l168.621094-433.90625zm0 0" fill="#ffde85"/><path d="m452.027344 138.601562-1.667969 4.269532c-4.832031 10.058594-15.121094 17-27.03125 17-16.570313 0-30-13.429688-30-30 0-16.570313 13.429687-30 30-30 19.199219 0 34.179687 18.027344 28.949219 38.078125zm0 0" fill="#a5dc69"/><path d="m312.128906 209.871094c0 16.566406-13.429687 30-30 30-16.566406 0-30-13.433594-30-30 0-16.570313 13.433594-30 30-30 16.570313 0 30 13.429687 30 30zm0 0" fill="#fe5f51"/><path d="m292.128906 349.867188c0 16.570312-13.429687 30-30 30-16.566406 0-30-13.429688-30-30 0-16.566407 13.433594-30 30-30 16.570313 0 30 13.433593 30 30zm0 0" fill="#a5dc69"/><path d="m157.261719 143.96875c8.898437 5.203125 14.871093 14.859375 14.871093 25.902344 0 16.570312-13.433593 30-30 30-16.570312 0-30-13.429688-30-30 0-3.089844.457032-6.082032 1.339844-8.882813zm0 0" fill="#a5dc69"/><path d="m212.128906 289.867188c5.523438 0 10-4.476563 10-10 0-5.519532-4.476562-10-10-10-5.519531 0-10 4.480468-10 10 0 5.523437 4.480469 10 10 10zm0 0"/><path d="m37.898438 149.214844c-22.070313 1.160156-39.003907 19.964844-37.8437505 42.039062 4.4179685 83.992188 39.4492185 162.847656 98.6484375 222.046875 59.195313 59.195313 138.050781 94.226563 222.042969 98.640625 22.019531 1.167969 40.878906-15.730468 42.039062-37.832031.746094-14.042969-5.800781-27.042969-16.882812-34.816406.335937-.859375 163.761718-421.40625 165.417968-425.671875 1.4375-3.691406.554688-7.886719-2.25-10.691406-2.804687-2.800782-7-3.6875-10.691406-2.25-20.03125 7.785156-403.722656 156.890624-425.679687 165.421874-7.765625-11.074218-20.765625-17.621093-34.800781-16.886718zm385.429687.65625c-11.027344 0-20-8.972656-20-20s8.972656-20 20-20c6.246094 0 12.019531 2.835937 15.84375 7.789062 10.285156 13.308594.453125 32.210938-15.84375 32.210938zm31.121094-45.109375c-7.640625-9.46875-18.925781-14.890625-31.121094-14.890625-22.054687 0-40 17.941406-40 40 0 22.054687 17.945313 40 40 40 2.023437 0 4.023437-.167969 5.992187-.46875l-102.136718 262.84375c-.746094-.082032-1.496094-.148438-2.246094-.183594-132.691406-6.980469-238.019531-112.308594-245-245.015625-.039062-.746094-.109375-1.488281-.1875-2.230469l22.84375-8.875c2.933594 19.183594 19.546875 33.925782 39.539062 33.925782 22.054688 0 40-17.941407 40-40 0-8.007813-2.4375-15.722657-6.769531-22.207032l309.089844-120.109375zm-298.671875 50.511719c3.988281 3.742187 6.355468 9.023437 6.355468 14.597656 0 11.027344-8.972656 20-20 20-11.03125 0-20-8.972656-20-20 0-.519532.019532-1.035156.054688-1.542969zm-95.8125 32.839843c7.519531 142.9375 120.980468 256.398438 263.9375 263.921875 10.8125.546875 19.507812 9.722656 18.910156 21.015625-.574219 10.957031-9.898438 19.496094-21.019531 18.917969-79.046875-4.152344-153.253907-37.113281-208.953125-92.8125-55.695313-55.695312-88.65625-129.902344-92.8125-208.953125-.582032-11.027344 7.882812-20.4375 18.914062-21.015625.359375-.019531.714844-.03125 1.074219-.03125 10.738281.003906 19.378906 8.371094 19.949219 18.957031zm0 0"/><path d="m282.128906 249.871094c22.058594 0 40-17.945313 40-40 0-22.058594-17.941406-40-40-40-22.054687 0-40 17.941406-40 40 0 22.054687 17.945313 40 40 40zm0-60c11.027344 0 20 8.96875 20 20 0 11.027344-8.972656 20-20 20s-20-8.972656-20-20c0-11.03125 8.972656-20 20-20zm0 0"/><path d="m262.128906 389.867188c22.058594 0 40-17.941407 40-40 0-22.054688-17.941406-40-40-40-22.054687 0-40 17.945312-40 40 0 22.058593 17.945313 40 40 40zm0-60c11.03125 0 20 8.972656 20 20 0 11.027343-8.96875 20-20 20-11.027344 0-20-8.972657-20-20 0-11.027344 8.972656-20 20-20zm0 0"/><path d="m173 270h-20c-5.523438 0-10 4.476562-10 10s4.476562 10 10 10h20c5.523438 0 10-4.476562 10-10s-4.476562-10-10-10zm0 0"/><path d="m332 150h20c5.523438 0 10-4.476562 10-10s-4.476562-10-10-10h-20c-5.523438 0-10 4.476562-10 10s4.476562 10 10 10zm0 0"/><path d="m332 270h-20c-5.523438 0-10 4.476562-10 10s4.476562 10 10 10h20c5.523438 0 10-4.476562 10-10s-4.476562-10-10-10zm0 0"/></svg>