<svg height="512pt" viewBox="-106 0 512 512" width="512pt" xmlns="http://www.w3.org/2000/svg"><path d="m213.96875 42.078125c-14.539062-19.5-37.777344-32.078125-63.96875-32.078125s-49.429688 12.578125-63.96875 32.078125c-40.050781-10.378906-76.03125 19.570313-76.03125 57.921875v13h280v-13c0-38.351562-35.980469-68.300781-76.03125-57.921875zm0 0" fill="#a5dc69"/><path d="m190 83c-14.871094 0-28.660156 4.640625-40 12.550781-11.339844-7.910156-25.128906-12.550781-40-12.550781-25.871094 0-48.460938 14.03125-60.570312 34.890625v.007813l100.570312 77.582031 100.570312-77.582031v-.007813c-12.109374-20.859375-34.699218-34.890625-60.570312-34.890625zm0 0" fill="#fe5f51"/><path d="m170 342-20 80c22.300781 40.179688 61.378906 69.761719 107.789062 79.238281h.011719c18.359375-3.628906 32.199219-19.816406 32.199219-39.238281v-120zm0 0" fill="#fbcfab"/><path d="m290 299v43c-12.628906 0-203.460938 0-280 0v-43zm0 0" fill="#ccf1ff"/><path d="m150 195.480469 20 103.519531h120v-186c-59.308594 0-112.242188 32.453125-140 82.480469zm0 0" fill="#fbcfab"/><path d="m257.789062 501.238281c-2.519531.5-5.128906.761719-7.789062.761719h-200c-4.621094 0-9.058594-.789062-13.191406-2.230469 47.839844-8.078125 88.472656-37.378906 111.851562-77.878906l1.339844.109375c22.300781 40.179688 61.378906 69.761719 107.789062 79.238281zm0 0" fill="#a5dc69"/><path d="m170 273v26h-160v-186c88.234375 0 160 71.503906 160 160zm0 0" fill="#ffde85"/><path d="m10 342h160c0 29.101562-7.769531 56.378906-21.339844 79.890625-23.378906 40.5-64.011718 69.800781-111.851562 77.878906-15.609375-5.449219-26.808594-20.300781-26.808594-37.769531zm0 0" fill="#ffde85"/><path d="m120 253c0 5.519531 4.480469 10 10 10s10-4.480469 10-10-4.480469-10-10-10-10 4.480469-10 10zm0 0"/><path d="m217.914062 31.023438c-17.050781-19.796876-41.457031-31.023438-67.914062-31.023438s-50.863281 11.226562-67.914062 31.023438c-43.546876-7.277344-82.085938 25.839843-82.085938 68.976562v362c0 27.699219 22.515625 50 50 50h200c27.789062 0 50-22.65625 50-50v-362c0-43.109375-38.507812-76.257812-82.085938-68.976562zm-197.914062 300.976562v-23h260v23zm260-43h-100v-16c0-26.894531-6.40625-53.496094-18.566406-77.304688 24.875-41.296874 68.640625-69.0625 118.566406-72.355468zm-91.648438-152.25c-3.054687-14.910156-10.265624-28.507812-20.84375-39.390625 7.085938-2.871094 14.691407-4.359375 22.492188-4.359375 16.910156 0 32.921875 7.21875 44.167969 19.410156-16.394531 5.707032-31.867188 13.933594-45.816407 24.339844zm-18.457031 12.636719.046875 3.285156c-7.375 7.355469-14.039062 15.351563-19.933594 23.902344-20.527343-29.726563-50.148437-52.3125-84.171874-64.167969 11.246093-12.1875 27.257812-19.40625 44.164062-19.40625 31.480469 0 57.996094 24.421875 59.894531 56.386719zm-9.894531 123.613281v16h-140v-165.660156c78.1875 5.15625 140 70.222656 140 149.660156zm-140 78.988281h139.664062c-1.523437 22.851563-8.242187 45.113281-19.664062 64.902344-22.027344 38.160156-59.164062 64.464844-102.183594 72.527344-10.75-4.773438-17.816406-15.5-17.816406-27.417969zm129.148438 87.703125c14.652343 21.675782 33.9375 39.5 56.257812 52.308594h-115.242188c23.308594-12.445312 43.53125-30.273438 58.984376-52.308594zm108.582031 51.300782c-40.691407-8.914063-75.75-34.363282-96.992188-70.363282 11.074219-21.222656 17.542969-44.652344 18.953125-68.628906h100.308594v110c0 13.640625-9.257812 25.535156-22.269531 28.992188zm22.269531-390.992188v3.300781c-8.371094.484375-16.675781 1.597657-24.835938 3.296875-14.914062-20.886718-39.25-33.597656-65.164062-33.597656-14.175781 0-27.871094 3.691406-40 10.714844-12.128906-7.023438-25.824219-10.714844-40-10.714844-25.917969 0-50.25 12.710938-65.164062 33.597656-8.164063-1.699218-16.464844-2.8125-24.835938-3.296875v-3.300781c0-27.742188 22.375-49.96875 50.097656-49.96875 4.445313 0 8.953125.570312 13.425782 1.730469 3.929687 1.019531 8.09375-.445313 10.523437-3.703125 13.296875-17.832032 33.6875-28.058594 55.953125-28.058594s42.65625 10.226562 55.953125 28.058594c2.429687 3.257812 6.59375 4.722656 10.523437 3.703125 33.246094-8.617188 63.523438 15.933593 63.523438 48.238281zm0 0"/><path d="m46.65625 169.273438c25.632812 9.089843 46.941406 27.292968 60.003906 51.253906 2.640625 4.839844 8.710938 6.640625 13.566406 3.992187 4.847657-2.644531 6.636719-8.714843 3.992188-13.566406-15.421875-28.292969-40.59375-49.789063-70.878906-60.527344-5.199219-1.847656-10.917969.875-12.765625 6.082031-1.847657 5.207032.878906 10.921876 6.082031 12.765626zm0 0"/></svg>