<svg height="511pt" viewBox="0 0 511.99932 511" width="511pt" xmlns="http://www.w3.org/2000/svg"><path d="m190.398438 369.753906c-99.238282 0-180.398438-80.75-180.398438-179.996094 0-99.25 81.160156-179.257812 180.398438-179.257812 99.25 0 179.996093 80.007812 179.996093 179.257812 0 99.023438-80.519531 179.996094-179.996093 179.996094zm0 0" fill="#fe5f51"/><path d="m190.398438 50.5c-77.835938 0-140.398438 62.855469-140.398438 139.257812 0 77.167969 62.945312 139.996094 140.398438 139.996094 77.199218 0 139.996093-62.808594 139.996093-139.996094 0-76.855468-62.855469-139.257812-139.996093-139.257812zm0 0" fill="#ccf1ff"/><path d="m374.144531 336.335938-38.429687 38.429687c-12.917969-14.929687-26.109375-29.03125-37.910156-40.652344 13.582031-10.128906 25.679687-22.128906 35.941406-35.609375 11.480468 11.761719 25.519531 24.949219 40.398437 37.832032zm0 0" fill="#f5b955"/><path d="m484.273438 414.265625c21.351562 18.039063 22.941406 48.898437 7.289062 68.878906-19.886719 25.40625-57.398438 25.636719-77.738281 1.597657l-30.089844-47.160157c-12.480469-19.558593-29.988281-41.996093-48.019531-62.816406l38.429687-38.429687c20.222657 17.519531 41.960938 34.46875 60.871094 46.519531zm0 0" fill="#fe5f51"/><path d="m259.996094 220.496094v10h-139.996094v-10c0-38.660156 31.339844-70 69.996094-70 38.660156 0 70 31.339844 70 70zm0 0" fill="#f5b955"/><path d="m189.996094 110.496094c11.050781 0 20 8.953125 20 20 0 11.050781-8.949219 20-20 20-11.046875 0-20-8.949219-20-20 0-11.046875 8.953125-20 20-20zm0 0" fill="#f5b955"/><path d="m90 100.496094c5.519531 0 10-4.480469 10-10 0-5.480469-4.449219-10-10-10-5.519531 0-10 4.480468-10 10 0 5.496094 4.46875 10 10 10zm0 0"/><path d="m190.398438 379.753906c38.265624 0 74.832031-11.246094 106.300781-32.589844 8.230469 8.347657 16.804687 17.546876 25.320312 27.152344l-2.386719 2.386719c-3.902343 3.90625-3.902343 10.238281 0 14.144531 3.90625 3.902344 10.238282 3.902344 14.144532 0l1.359375-1.359375c16.210937 19.269531 30.292969 38 40.167969 53.476563l30.089843 47.15625c.242188.378906.507813.738281.796875 1.082031 24.496094 28.957031 69.511719 28.425781 93.246094-1.894531 19.003906-24.261719 16.714844-61.195313-8.710938-82.683594-.339843-.285156-.699218-.550781-1.078124-.792969l-49.261719-31.410156c-14.917969-9.507813-32.953125-23.054687-51.519531-38.667969l1.480468-1.476562c3.902344-3.90625 3.902344-10.238282 0-14.140625-3.90625-3.90625-10.238281-3.90625-14.144531 0l-2.503906 2.503906c-9.523438-8.457031-18.625-16.976563-26.871094-25.15625 21.988281-31.769531 33.566406-68.828125 33.566406-107.726563 0-104.535156-84.855469-189.257812-189.996093-189.257812-104.988282 0-190.398438 84.898438-190.398438 189.257812 0 104.761719 85.410156 189.996094 190.398438 189.996094zm239.242187 11.53125 48.660156 31.027344c15.832031 13.820312 18.285157 38.199219 5.390625 54.664062-15.640625 19.980469-45.246094 20.765626-61.816406 1.789063l-29.707031-46.5625c-13.023438-20.410156-29.566407-41.21875-42.839844-56.910156l25.347656-25.347657c15.1875 12.839844 35.257813 28.78125 54.964844 41.339844zm-93.453125-31.132812c-7.863281-8.84375-15.769531-17.34375-23.425781-25.175782 7.804687-6.589843 15.074219-13.796874 21.742187-21.554687 7.773438 7.644531 16.226563 15.539063 25.03125 23.378906zm-145.789062-339.652344c93.734374 0 169.996093 75.925781 169.996093 169.257812 0 56.277344-27.308593 105.566407-68.566406 136.34375-29.523437 22.015626-64.597656 33.652344-101.429687 33.652344-93.957032 0-170.398438-76.257812-170.398438-169.996094 0-93.332031 76.441406-169.257812 170.398438-169.257812zm0 0"/><path d="m190.398438 339.753906c82.707031 0 149.996093-67.289062 149.996093-149.996094 0-82.855468-67.289062-150.257812-149.996093-150.257812-25.117188 0-50.25 6.59375-72.683594 19.070312-4.824219 2.683594-6.5625 8.773438-3.875 13.597657 2.683594 4.828125 8.773437 6.5625 13.601562 3.878906 19.460938-10.828125 41.230469-16.550781 62.957032-16.550781 71.679687 0 129.996093 58.433594 129.996093 130.261718 0 71.679688-58.316406 129.996094-129.996093 129.996094-71.351563 0-129.398438-58.316406-129.398438-129.996094 0-22.554687 5.039062-43.300781 14.972656-61.660156 2.628906-4.859375.824219-10.925781-4.035156-13.554687-4.855469-2.628907-10.925781-.820313-13.554688 4.035156-11.535156 21.316406-17.382812 45.261719-17.382812 71.179687 0 82.707032 67.019531 149.996094 149.398438 149.996094zm0 0"/><path d="m110 220.496094h-10c-5.523438 0-10 4.476562-10 10 0 5.523437 4.476562 10 10 10h179.996094c5.523437 0 10-4.476563 10-10 0-5.523438-4.476563-10-10-10h-10c0-35.199219-22.636719-64.796875-53.699219-75.582032 2.355469-4.28125 3.699219-9.195312 3.699219-14.417968 0-16.539063-13.457032-30-30-30-16.539063 0-29.996094 13.460937-29.996094 30 0 5.238281 1.351562 10.164062 3.71875 14.457031-31.238281 10.898437-53.71875 40.632813-53.71875 75.542969zm69.996094-90c0-5.511719 4.488281-10 10-10 5.515625 0 10 4.488281 10 10 0 5.515625-4.484375 10-10 10-5.511719 0-10-4.484375-10-10zm10 30c33.097656 0 60 26.78125 60 60h-119.996094c0-33.082032 26.914062-60 59.996094-60zm0 0"/></svg>