<svg height="512pt" viewBox="-30 0 512 512" width="512pt" xmlns="http://www.w3.org/2000/svg"><path d="m442.511719 478.710938-56.117188-336.710938h-320l-56.121093 336.710938c-2.03125 12.1875 7.371093 23.289062 19.730468 23.289062h392.78125c12.359375 0 21.757813-11.101562 19.726563-23.289062zm0 0" fill="#e6a75a"/><path d="m266.394531 262c-55.230469 0-100 50-100 50s44.769531 50 100 50c9.46875 0 18.640625-1.46875 27.320313-3.910156v-92.179688c-8.679688-2.441406-17.851563-3.910156-27.320313-3.910156zm0 0" fill="#ccf1ff"/><path d="m293.714844 265.910156c41.949218 11.769532 72.679687 46.089844 72.679687 46.089844s-30.730469 34.320312-72.679687 46.089844c-10.792969-12.308594-17.320313-28.441406-17.320313-46.089844s6.527344-33.78125 17.320313-46.089844zm0 0" fill="#ccf1ff"/><path d="m286.394531 10h-120l-40 40v92h40v-92h120v92h40v-92zm0 0" fill="#ffde85"/><path d="m166.394531 312-60 50v-100zm0 0" fill="#ccf1ff"/><path d="m316.394531 322c5.519531 0 10-4.480469 10-10s-4.480469-10-10-10-10 4.480469-10 10 4.480469 10 10 10zm0 0"/><path d="m106.394531 472c5.519531 0 10-4.480469 10-10s-4.480469-10-10-10-10 4.480469-10 10 4.480469 10 10 10zm0 0"/><path d="m7.113281 501.394531c5.710938 6.738281 14.054688 10.605469 22.890625 10.605469h392.78125c8.832032 0 17.175782-3.867188 22.886719-10.605469 5.710937-6.742187 8.15625-15.609375 6.707031-24.328125l-56.121094-336.710937c-.804687-4.820313-4.976562-8.355469-9.863281-8.355469h-50v-82c0-2.742188-1.15625-5.289062-2.917969-7.0625-.722656-.722656-39.910156-39.910156-40.011718-40.007812-1.875-1.875-4.417969-2.929688-7.070313-2.929688h-120c-2.652343 0-5.195312 1.054688-7.070312 2.929688-.101563.101562-40.121094 40.121093-40.011719 40.011718-1.765625 1.769532-2.917969 4.320313-2.917969 7.058594v82h-50c-4.890625 0-9.0625 3.535156-9.863281 8.355469l-56.121094 336.710937c-1.453125 8.71875.992188 17.582032 6.703125 24.328125zm269.28125-369.394531h-100v-72h100zm-140-72h20v72h-20zm160 0h20v72h-20zm-125.859375-40h111.714844l20 20h-151.714844zm-150.398437 460.355469 54.726562-328.355469h303.058594l54.726563 328.351562c.492187 2.949219-.300782 5.832032-2.234376 8.113282-1.933593 2.277344-4.640624 3.535156-7.628906 3.535156h-392.78125c-2.988281 0-5.699218-1.257812-7.628906-3.535156-1.933594-2.28125-2.726562-5.164063-2.238281-8.109375zm0 0"/><path d="m346.394531 452h-200c-5.523437 0-10 4.476562-10 10s4.476563 10 10 10h200c5.523438 0 10-4.476562 10-10s-4.476562-10-10-10zm0 0"/><path d="m112.796875 369.683594 52.941406-44.117188c15.175781 14.464844 53.992188 46.433594 100.65625 46.433594 16.59375 0 30.5-4.417969 30.019531-4.28125 44.246094-12.414062 76.09375-47.558594 77.429688-49.046875 3.398438-3.800781 3.398438-9.542969 0-13.34375-17.621094-19.664063-48.304688-40.875-77.429688-49.046875-10.105468-2.839844-20.207031-4.28125-30.019531-4.28125-46.664062 0-85.484375 31.96875-100.65625 46.433594l-52.945312-44.117188c-2.980469-2.484375-7.128907-3.015625-10.640625-1.371094-3.515625 1.644532-5.757813 5.175782-5.757813 9.054688v100c0 8.523438 9.945313 13.0625 16.402344 7.683594zm184.507813-23.207032c-7.066407-10.042968-10.910157-22.066406-10.910157-34.476562s3.84375-24.433594 10.910157-34.476562c24.769531 8.597656 44.964843 25.203124 54.921874 34.476562-9.960937 9.277344-30.152343 25.878906-54.921874 34.476562zm-30.910157-74.476562c3.402344 0 6.863281.230469 10.355469.660156-6.734375 11.914063-10.355469 25.445313-10.355469 39.339844s3.621094 27.425781 10.355469 39.339844c-3.492188.429687-6.953125.660156-10.355469.660156-38.273437 0-71.960937-27.097656-85.824219-40 13.871094-12.90625 47.554688-40 85.824219-40zm-150 11.351562 34.378907 28.648438-34.378907 28.648438zm0 0"/></svg>