<svg height="512pt" viewBox="-36 0 512 512" width="512pt" xmlns="http://www.w3.org/2000/svg"><path d="m55.984375 307.199219-.109375.410156 49.570312 180.710937c2.71875 8.167969 10.371094 13.679688 18.980469 13.679688h191.160157c8.609374 0 16.257812-5.511719 18.980468-13.679688l49.308594-179.929687v-.011719zm0 0" fill="#f5b955"/><path d="m367.015625 190.078125c4.417969-.21875 8.957031.042969 13.578125.832031 24.25 4.140625 44.199219 23.980469 48.449219 48.21875 6.652343 37.902344-22.328125 70.871094-59.039063 70.871094h-40.390625c-6.34375 0-10.152343 3.027344-18.277343 7.191406-66.660157 34.019532-131.070313 26.070313-182.160157.238282-8.585937-4.339844-12.371093-7.429688-18.78125-7.429688h-34c-35.09375 0-64.589843-23.96875-66.308593-56.769531-1.8125-34.609375 25.707031-63.230469 59.917968-63.230469 1 0 2 .019531 2.992188.078125v-.007813c13.867187-68.5 74.417968-100.070312 147.007812-100.070312s133.140625 31.570312 147.011719 100.070312zm0 0" fill="#ff98a0"/><path d="m260.003906 50c0 22.089844-17.90625 40-40 40-22.089844 0-40-17.910156-40-40s17.910156-40 40-40c22.09375 0 40 17.910156 40 40zm0 0" fill="#fe5f51"/><path d="m220.003906 370c-5.519531 0-10 4.480469-10 10s4.480469 10 10 10c5.519532 0 10-4.480469 10-10s-4.480468-10-10-10zm0 0"/><path d="m65.035156 180.191406c-37.664062 2.605469-66.957031 34.917969-64.9374998 73.5625 1.4531248 27.710938 19.8437498 51.179688 47.4257818 61.210938l48.277343 176c.046875.171875.101563.34375.15625.515625 4.085938 12.273437 15.527344 20.519531 28.46875 20.519531h191.160157c12.941406 0 24.378906-8.246094 28.464843-20.519531.058594-.171875.109375-.34375.160157-.519531l47.828124-174.523438c32.617188-10.792969 52.945313-44.332031 46.855469-79.035156-4.96875-28.335938-28.25-51.507813-56.613281-56.347656-2.429688-.417969-4.871094-.695313-7.308594-.863282-13.855468-52.6875-56.277344-87.398437-117.367187-97.289062 7.710937-8.796875 12.398437-20.308594 12.398437-32.902344 0-27.570312-22.429687-50-50-50-27.570312 0-50 22.429688-50 50 0 12.59375 4.691406 24.105469 12.402344 32.902344-61.089844 9.890625-103.515625 44.601562-117.371094 97.289062zm49.96875 305.179688-45.4375-165.648438c2.261719.175782 4.539063.277344 6.828125.277344h34c3.105469 0 6.121094 2.074219 9.535157 3.894531l37.59375 168.105469h-33.097657c-4.242187 0-8-2.652344-9.421875-6.628906zm115 6.628906v-72c0-5.523438-4.476562-10-10-10-5.523437 0-10 4.476562-10 10v72h-31.988281l-35.210937-157.441406c26.308593 10.5625 52.425781 15.289062 77.53125 15.289062 26.019531 0 51.769531-5.121094 76.855468-15.238281l-35.199218 157.390625zm95-6.628906c-1.421875 3.976562-5.179687 6.628906-9.417968 6.628906h-33.097657l37.59375-168.097656c3.359375-1.796875 6.4375-3.902344 9.53125-3.902344h40.390625c.109375 0 .214844-.003906.320313-.003906zm-135-435.371094c0-16.542969 13.457032-30 30-30 16.542969 0 30 13.457031 30 30s-13.457031 30-30 30c-16.542968 0-30-13.457031-30-30zm30 50c70.796875 0 119.21875 29.621094 134.640625 81.726562-15.261719 3.429688-29.097656 11.917969-39.085937 24.265626-3.472656 4.292968-2.808594 10.589843 1.488281 14.0625 4.292969 3.472656 10.585937 2.808593 14.0625-1.484376 11.109375-13.738281 28.972656-21.023437 47.800781-17.804687 20.183594 3.445313 36.75 19.933594 40.285156 40.09375 4.621094 26.324219-11.90625 51.707031-37.640624 57.792969-3.75.894531-7.636719 1.347656-11.550782 1.347656h-40.390625c-9.132812 0-14.535156 4.035156-22.824219 8.28125-71.382812 36.429688-133.535156 20.230469-173.105468.226562-8.613282-4.359374-14.019532-8.507812-23.289063-8.507812h-34c-30.484375 0-54.914062-20.433594-56.324219-47.292969-1.511718-28.925781 21.429688-52.707031 49.933594-52.707031 15.332032 0 29.542969 7.007812 38.894532 18.570312 3.472656 4.292969 9.769531 4.957032 14.066406 1.484376 4.292968-3.472657 4.957031-9.769532 1.484375-14.0625-9.988281-12.347657-23.820313-20.835938-39.082031-24.269532 15.421874-52.101562 63.839843-81.722656 134.636718-81.722656zm0 0"/></svg>