<svg height="512pt" viewBox="-56 0 512 512" width="512pt" xmlns="http://www.w3.org/2000/svg"><path d="m70 370c-.519531 0-1.03125.011719-1.550781.019531l1.550781.851563v131.128906h260v-132zm0 0" fill="#fe5f51"/><path d="m310 170h-220c-22.089844 0-40 17.910156-40 40s17.910156 40 40 40h.476562c3.4375 37.960938 26.234376 70.996094 59.523438 88.011719v41.988281c0 27.609375 22.390625 50 50 50 27.597656 0 50-22.398438 50-50 0-14.675781 0-27.253906 0-41.988281 33.5-17.125 56.097656-50.269531 59.523438-88.011719h.476562c22.089844 0 40-17.910156 40-40s-17.910156-40-40-40zm0 0" fill="#fbcfab"/><path d="m390 430v72h-60v-132c33.140625 0 60 26.859375 60 60zm0 0" fill="#ffde85"/><path d="m230 50c-14.417969 0-47.929688 0-60 0-44.179688 0-80 35.820312-80 80v31.738281h.121094c2.535156 3.75 13.203125 18.265625 21.117187 30.121094 4.863281 7.289063 13.882813 10.671875 22.222657 7.992187 19.46875-6.261718 42.21875-9.851562 66.539062-9.851562s47.070312 3.589844 66.539062 9.851562c8.339844 2.679688 17.359376-.703124 22.222657-7.992187 18.675781-27.992187 18.71875-26.546875 21.117187-30.121094h.121094v-31.738281c0-44.179688-35.820312-80-80-80zm0 0" fill="#fe5f51"/><path d="m230 40c0 3.511719-.601562 6.871094-1.710938 10h-56.578124c-1.109376-3.128906-1.710938-6.488281-1.710938-10 0-16.570312 13.429688-30 30-30s30 13.429688 30 30zm0 0" fill="#ffde85"/><path d="m70 370.871094v131.128906h-60v-72c0-32.621094 26.03125-59.160156 58.449219-59.980469zm0 0" fill="#ffde85"/><path d="m290 420c5.519531 0 10-4.480469 10-10s-4.480469-10-10-10-10 4.480469-10 10 4.480469 10 10 10zm0 0"/><path d="m250 240c5.519531 0 10-4.480469 10-10s-4.480469-10-10-10-10 4.480469-10 10 4.480469 10 10 10zm0 0"/><path d="m160 230c0-5.519531-4.480469-10-10-10s-10 4.480469-10 10 4.480469 10 10 10 10-4.480469 10-10zm0 0"/><path d="m110 420c5.519531 0 10-4.480469 10-10s-4.480469-10-10-10-10 4.480469-10 10 4.480469 10 10 10zm0 0"/><path d="m180 100h40c5.523438 0 10-4.476562 10-10s-4.476562-10-10-10h-40c-5.523438 0-10 4.476562-10 10s4.476562 10 10 10zm0 0"/><path d="m400 502v-72c0-38.597656-31.402344-70-70-70h-70v-16.066406c31.140625-18.027344 52.65625-48.988282 58.4375-84.660156 23.566406-4.023438 41.5625-24.578126 41.5625-49.273438 0-24.144531-17.203125-44.347656-40-48.992188v-31.007812c0-46.25-35.070312-84.457031-80.011719-89.441406.003907-.1875.011719-.371094.011719-.558594 0-22.054688-17.945312-40-40-40s-40 17.945312-40 40c0 .1875.007812.371094.011719.558594-44.941407 4.984375-80.011719 43.191406-80.011719 89.441406v31.007812c-22.796875 4.644532-40 24.84375-40 48.992188 0 24.691406 17.996094 45.246094 41.558594 49.273438 5.761718 35.523437 27.214844 66.59375 58.441406 84.652343v16.074219c-53.421875.007812-69.949219-.011719-71.804688.023438-37.804687.957031-68.195312 31.859374-68.195312 69.976562v72c0 5.523438 4.476562 10 10 10h380c5.523438 0 10-4.476562 10-10zm-240-148.824219c12.761719 4.523438 26.15625 6.824219 40 6.824219 13.847656 0 27.242188-2.300781 40-6.824219v26.824219c0 22.09375-17.902344 40-40 40-22.054688 0-40-17.945312-40-40 0-9.292969 0-17.53125 0-26.824219zm-29.601562-162.847656c-3.957032 1.273437-8.414063-.378906-10.839844-4.019531-4.828125-7.230469-11.128906-16.089844-15.4375-22.117188l-.148438-.207031c22.90625-14.933594 58.617188-23.984375 96.027344-23.984375 37.296875 0 72.902344 8.992188 95.816406 23.847656-.074218.105469-.152344.214844-.230468.324219-3.585938 4.996094-8.539063 12.238281-15.148438 22.140625-2.421875 3.640625-6.878906 5.289062-10.835938 4.015625-21.019531-6.757813-45.085937-10.328125-69.601562-10.328125s-48.582031 3.570312-69.601562 10.328125zm209.601562 19.671875c0 13.035156-8.359375 24.152344-20 28.28125v-56.5625c11.640625 4.128906 20 15.246094 20 28.28125zm-140-190c11.027344 0 20 8.972656 20 20h-40c0-11.027344 8.972656-20 20-20zm-30 40h60c38.597656 0 70 31.402344 70 70v13.015625c-25.980469-14.601563-61.847656-23.015625-100-23.015625s-74.019531 8.414062-100 23.015625v-13.015625c0-38.597656 31.402344-70 70-70zm-110 150c0-13.035156 8.359375-24.152344 20-28.28125v56.5625c-11.640625-4.128906-20-15.246094-20-28.28125zm40 30v-46.902344c1.015625 1.476563 1.996094 2.929688 2.917969 4.308594 7.359375 11.039062 21.175781 15.960938 33.601562 11.964844 19.066407-6.132813 41.015625-9.371094 63.480469-9.371094s44.414062 3.238281 63.480469 9.371094c12.347656 3.96875 26.195312-.859375 33.597656-11.960938 1.011719-1.515625 1.984375-2.964844 2.921875-4.363281v46.953125c0 55.953125-45.261719 100-100 100-55.546875 0-100-45.101562-100-100zm100 200c33.144531 0 60-26.847656 60-60h60v112h-20v-42c0-5.523438-4.476562-10-10-10s-10 4.476562-10 10v42h-160v-42c0-5.523438-4.476562-10-10-10s-10 4.476562-10 10v42h-20v-112h60c0 33.085938 26.914062 60 60 60zm-180-10c0-24.363281 16.996094-44.4375 40-49.007812v111.007812h-40zm360 62h-40v-110.992188c22.796875 4.644532 40 24.84375 40 48.992188zm0 0"/><path d="m171.71875 308.28125c7.558594 7.558594 17.601562 11.71875 28.28125 11.71875 22.054688 0 40-17.945312 40-40 0-5.523438-4.476562-10-10-10s-10 4.476562-10 10c0 11.027344-8.972656 20-20 20-5.339844 0-10.359375-2.082031-14.140625-5.859375-3.777344-3.78125-5.859375-8.800781-5.859375-14.140625 0-5.523438-4.476562-10-10-10s-10 4.476562-10 10c0 10.679688 4.160156 20.726562 11.71875 28.28125zm0 0"/></svg>