<svg height="512pt" viewBox="0 -56 512 512" width="512pt" xmlns="http://www.w3.org/2000/svg"><path d="m124.421875 70c-8.613281 0-16.261719 5.511719-18.980469 13.679688l-36.902344 106.320312h-.007812c-3.214844 3.878906-3.792969 3.199219-40.722656 28.128906-11.128906 7.410156-17.808594 19.902344-17.808594 33.28125v58.589844c0 11.050781 8.949219 20 20 20h186v-260zm0 0" fill="#fe5f51"/><path d="m482 10h-246c-11.050781 0-20 8.949219-20 20v300h266c11.050781 0 20-8.949219 20-20v-280c0-11.050781-8.949219-20-20-20zm0 0" fill="#ffde85"/><path d="m459 340c0 27.609375-22.390625 50-50 50s-50-22.390625-50-50c0-27.449219 22.253906-50 50-50 27.761719 0 50 22.558594 50 50zm0 0" fill="#445161"/><path d="m429 200v10h-140v-10c0-38.660156 31.339844-70 70-70 38.65625 0 70 31.339844 70 70zm0 0" fill="#f5b955"/><path d="m359 90c11.050781 0 20 8.949219 20 20s-8.949219 20-20 20-20-8.949219-20-20 8.949219-20 20-20zm0 0" fill="#f5b955"/><path d="m176 120v70h-107.460938c1.589844-1.910156 2.832032-4.109375 3.632813-6.511719l21.15625-63.488281zm0 0" fill="#ccf1ff"/><path d="m170 340c0 27.609375-22.390625 50-50 50s-50-22.390625-50-50c0-27.449219 22.253906-50 50-50 27.761719 0 50 22.558594 50 50zm0 0" fill="#445161"/><path d="m409 320c-11.050781 0-20 8.949219-20 20s8.949219 20 20 20 20-8.949219 20-20-8.949219-20-20-20zm0 0"/><path d="m120 320c-11.050781 0-20 8.949219-20 20s8.949219 20 20 20 20-8.949219 20-20-8.949219-20-20-20zm0 0"/><path d="m70 240c5.519531 0 10-4.480469 10-10s-4.480469-10-10-10-10 4.480469-10 10 4.480469 10 10 10zm0 0"/><path d="m0 310c0 16.542969 13.457031 30 30 30h30c0 33.085938 26.914062 60 60 60s60-26.914062 60-60h169c0 33.085938 26.914062 60 60 60s60-26.914062 60-60h13c16.542969 0 30-13.457031 30-30v-280c0-16.542969-13.457031-30-30-30h-246c-16.542969 0-30 13.457031-30 30v30h-81.578125c-12.941406 0-24.382813 8.246094-28.46875 20.515625-5.203125 15.613281-24.640625 73.921875-33.269531 99.8125-.699219 2.101563-2.105469 3.945313-3.941406 5.160156l-36.472657 24.316407c-13.945312 9.285156-22.269531 24.839843-22.269531 41.605468zm120 70c-22.054688 0-40-17.945312-40-40 0-22.355469 18.269531-40 40-40 21.78125 0 40 17.691406 40 40 0 22.054688-17.945312 40-40 40zm289 0c-22.054688 0-40-17.945312-40-40 0-22.355469 18.269531-40 40-40 21.78125 0 40 17.691406 40 40 0 22.054688-17.945312 40-40 40zm-183-350c0-5.515625 4.484375-10 10-10h246c5.515625 0 10 4.484375 10 10v280c0 5.515625-4.484375 10-10 10h-16.433594c-8.351562-23.597656-30.957031-40-56.566406-40-25.621094 0-48.234375 16.414062-56.570312 40h-126.429688zm-125.460938 100h65.460938v50h-82.125zm-67.183593 96.449219 36.457031-24.304688c.988281-.652343 1.921875-1.378906 2.820312-2.144531h103.367188c5.523438 0 10-4.476562 10-10v-70c0-5.523438-4.476562-10-10-10h-68.792969l7.722657-23.160156c1.359374-4.09375 5.175781-6.839844 9.492187-6.839844h81.578125v240h-29.433594c-8.351562-23.597656-30.957031-40-56.566406-40-25.621094 0-48.234375 16.414062-56.570312 40h-33.429688c-5.515625 0-10-4.484375-10-10v-10h30c5.523438 0 10-4.476562 10-10s-4.476562-10-10-10h-30v-28.589844c0-10.058594 4.992188-19.390625 13.355469-24.960937zm0 0"/><path d="m269 220h180c5.523438 0 10-4.476562 10-10s-4.476562-10-10-10h-10c0-35.199219-22.636719-64.800781-53.699219-75.582031 2.355469-4.28125 3.699219-9.195313 3.699219-14.417969 0-16.542969-13.457031-30-30-30s-30 13.457031-30 30c0 5.238281 1.351562 10.164062 3.722656 14.453125-31.238281 10.898437-53.722656 40.640625-53.722656 75.546875h-10c-5.523438 0-10 4.476562-10 10s4.476562 10 10 10zm80-110c0-5.515625 4.484375-10 10-10s10 4.484375 10 10-4.484375 10-10 10-10-4.484375-10-10zm10 30c33.097656 0 60 26.777344 60 60h-120c0-33.085938 26.914062-60 60-60zm0 0"/><path d="m110 240h66c5.523438 0 10-4.476562 10-10s-4.476562-10-10-10h-66c-5.523438 0-10 4.476562-10 10s4.476562 10 10 10zm0 0"/></svg>