<svg height="511pt" viewBox="0 0 511.99973 511" width="511pt" xmlns="http://www.w3.org/2000/svg"><path d="m190.398438 369.753906c-99.238282 0-180.398438-80.746094-180.398438-179.996094s81.160156-179.257812 180.398438-179.257812c99.25 0 179.996093 80.007812 179.996093 179.257812 0 99.023438-80.519531 179.996094-179.996093 179.996094zm0 0" fill="#fe5f51"/><path d="m190.398438 50.5c-77.835938 0-140.398438 62.859375-140.398438 139.257812 0 77.171876 62.945312 140 140.398438 140 77.199218 0 139.996093-62.8125 139.996093-140 0-76.851562-62.855469-139.257812-139.996093-139.257812zm0 0" fill="#ccf1ff"/><path d="m374.144531 336.335938-38.429687 38.429687c-12.917969-14.929687-26.109375-29.03125-37.910156-40.648437 13.582031-10.132813 25.679687-22.132813 35.941406-35.609376 11.480468 11.757813 25.519531 24.949219 40.398437 37.828126zm0 0" fill="#f5b955"/><path d="m484.273438 414.265625c21.351562 18.039063 22.941406 48.898437 7.289062 68.878906-19.886719 25.410157-57.398438 25.640625-77.738281 1.601563l-30.089844-47.160156c-12.480469-19.5625-29.988281-42-48.019531-62.820313l38.429687-38.429687c20.222657 17.519531 41.960938 34.46875 60.871094 46.519531zm0 0" fill="#fe5f51"/><path d="m189.996094 110.5c-27.609375 0-49.996094 22.386719-49.996094 49.996094v10l8 40h83.996094l8-40v-10c0-27.597656-22.398438-49.996094-50-49.996094zm0 0" fill="#ffde85"/><path d="m231.996094 210.496094-12 60h-59.996094l-12-60zm0 0" fill="#f5b955"/><path d="m90 100.5c5.519531 0 10-4.480469 10-10 0-5.484375-4.449219-10-10-10-5.519531 0-10 4.480469-10 10 0 5.492188 4.46875 10 10 10zm0 0"/><path d="m340.394531 189.757812c0-82.851562-67.289062-150.257812-149.996093-150.257812-25.117188 0-50.25 6.59375-72.679688 19.070312-4.828125 2.683594-6.5625 8.773438-3.878906 13.597657 2.683594 4.828125 8.769531 6.566406 13.601562 3.878906 19.460938-10.824219 41.230469-16.546875 62.957032-16.546875 71.679687 0 129.996093 58.433594 129.996093 130.257812 0 71.683594-58.316406 130-129.996093 130-71.351563 0-129.398438-58.316406-129.398438-130 0-22.554687 5.039062-43.300781 14.972656-61.660156 2.628906-4.855468.824219-10.925781-4.035156-13.554687-4.855469-2.625-10.925781-.820313-13.554688 4.035156-11.535156 21.316406-17.382812 45.265625-17.382812 71.179687 0 82.707032 67.019531 150 149.398438 150 82.707031 0 149.996093-67.292968 149.996093-150zm0 0"/><path d="m490.726562 406.625c-.339843-.285156-.699218-.550781-1.078124-.792969l-49.261719-31.410156c-14.921875-9.507813-32.957031-23.058594-51.519531-38.664063l1.480468-1.480468c3.902344-3.90625 3.902344-10.234375 0-14.140625-3.90625-3.90625-10.238281-3.90625-14.144531 0l-2.503906 2.503906c-9.523438-8.457031-18.625-16.972656-26.871094-25.15625 21.984375-31.769531 33.566406-68.828125 33.566406-107.726563 0-104.535156-84.855469-189.257812-189.996093-189.257812-104.988282 0-190.398438 84.898438-190.398438 189.257812 0 104.765626 85.410156 189.996094 190.398438 189.996094 38.265624 0 74.832031-11.242187 106.304687-32.589844 8.226563 8.347657 16.800781 17.546876 25.320313 27.15625l-2.386719 2.386719c-3.90625 3.902344-3.90625 10.234375 0 14.140625 3.902343 3.90625 10.238281 3.90625 14.140625 0l1.359375-1.359375c16.210937 19.269531 30.296875 38 40.167969 53.476563l30.089843 47.160156c.242188.375.507813.734375.796875 1.078125 24.5 28.957031 69.511719 28.425781 93.246094-1.894531 19.003906-24.261719 16.71875-61.195313-8.710938-82.683594zm-470.726562-216.867188c0-93.328124 76.441406-169.257812 170.398438-169.257812 93.734374 0 169.996093 75.929688 169.996093 169.257812 0 93.65625-76.171875 169.996094-169.996093 169.996094-93.957032 0-170.398438-76.257812-170.398438-169.996094zm292.761719 145.21875c7.804687-6.589843 15.074219-13.792968 21.742187-21.554687 7.773438 7.644531 16.226563 15.542969 25.03125 23.382813l-23.347656 23.347656c-7.863281-8.84375-15.769531-17.34375-23.425781-25.175782zm170.929687 142.003907c-15.632812 19.96875-45.246094 20.765625-61.816406 1.785156l-29.710938-46.5625c-13.023437-20.410156-29.5625-41.21875-42.835937-56.910156l25.347656-25.34375c15.183594 12.835937 35.25 28.773437 54.964844 41.335937l48.660156 31.027344c15.832031 13.820312 18.285157 38.203125 5.390625 54.667969zm0 0"/><path d="m131.800781 180.496094c2.964844 14.824218 15.429688 77.148437 18.390625 91.960937.9375 4.675781 5.039063 8.039063 9.808594 8.039063h59.996094c4.769531 0 8.871094-3.363282 9.808594-8.039063 3.472656-17.375 14.835937-74.191406 18.390624-91.960937h11.800782c5.523437 0 10-4.476563 10-10 0-5.519532-4.476563-10-10-10h-10c0-33.144532-26.847656-59.996094-60-59.996094-33.082032 0-59.996094 26.914062-59.996094 59.996094h-10c-5.523438 0-10 4.480468-10 10 0 5.523437 4.476562 10 10 10zm92 20h-67.605469l-4-20h75.605469zm-55.605469 60-8-40h59.605469l-8 40zm21.800782-139.996094c22.09375 0 40 17.902344 40 39.996094h-79.996094c0-22.054688 17.941406-39.996094 39.996094-39.996094zm0 0"/></svg>