<svg height="511pt" viewBox="0 0 511.99951 511" width="511pt" xmlns="http://www.w3.org/2000/svg"><path d="m76 130.5 57.210938 355.289062c1.609374 9.640626 9.960937 16.710938 19.730468 16.710938h206.117188c9.773437 0 18.121094-7.070312 19.730468-16.710938l57.210938-355.289062zm0 0" fill="#fe5f51"/><path d="m436 130.5-74 92.488281c-3.789062 4.75-9.539062 7.511719-15.609375 7.511719h-180.78125c-6.070313 0-11.820313-2.761719-15.609375-7.511719l-74-92.488281zm0 0" fill="#f5b955"/><path d="m256 276.5c33.140625 0 60 26.859375 60 60s-26.859375 60-60 60-60-26.859375-60-60 26.859375-60 60-60zm0 0" fill="#ffde85"/><path d="m326 10.5c-26.589844 0-50.980469 9.441406-70 25.140625-19.007812-15.710937-43.398438-25.140625-70-25.140625-60.75 0-110 49.25-110 110v10h360v-10c0-60.75-49.25-110-110-110zm0 0" fill="#ffde85"/><path d="m176 452.5c-5.519531 0-10 4.480469-10 10s4.480469 10 10 10 10-4.480469 10-10-4.480469-10-10-10zm0 0"/><path d="m3.910156 36.566406c-4.378906 3.363282-5.203125 9.640625-1.84375 14.019532l64.460938 83.996093 56.820312 352.851563c2.425782 14.523437 14.871094 25.0625 29.59375 25.0625h206.117188c14.722656 0 27.167968-10.539063 29.605468-25.117188l56.804688-352.796875 64.464844-83.996093c3.359375-4.378907 2.535156-10.65625-1.847656-14.019532-4.378907-3.359375-10.65625-2.535156-14.019532 1.84375l-49.382812 64.347656c-8.597656-57.785156-58.542969-102.257812-118.683594-102.257812-25.128906 0-49.6875 7.949219-69.996094 22.527344-20.292968-14.578125-44.851562-22.527344-70.003906-22.527344-60.140625 0-110.085938 44.472656-118.683594 102.257812l-49.382812-64.347656c-3.363282-4.378906-9.636719-5.203125-14.023438-1.84375zm182.089844 23.933594c32.589844 0 60.039062 26.46875 59.988281 60h-20.007812c.007812-22.207031-18.0625-40-39.980469-40-21.914062 0-39.988281 17.785156-39.976562 40h-20.007813c-.054687-33.503906 27.363281-60 59.984375-60zm-19.996094 60c-.019531-11.167969 9.164063-20 19.996094-20 10.816406 0 20.015625 8.816406 19.996094 20zm249.1875 20-61.007812 76.253906c-1.898438 2.378906-4.742188 3.746094-7.792969 3.746094h-180.78125c-3.050781 0-5.894531-1.367188-7.800781-3.757812l-61-76.242188zm-29.203125-20h-20.007812c.007812-22.207031-18.0625-40-39.980469-40-9.125 0-17.542969 3.078125-24.28125 8.242188-1.8125-6.632813-4.195312-13.101563-7.125-19.328126 9.394531-5.785156 20.296875-8.914062 31.40625-8.914062 32.589844 0 60.039062 26.46875 59.988281 60zm-59.988281-20c10.816406 0 20.015625 8.816406 19.996094 20h-39.996094c0-11.03125 8.972656-20 20-20zm42.925781 383.640625c-.808593 4.84375-4.957031 8.355469-9.867187 8.355469h-206.117188c-4.910156 0-9.058594-3.511719-9.859375-8.296875l-51.171875-317.8125 50.273438 62.839843c5.714844 7.164063 14.253906 11.273438 23.425781 11.273438h180.78125c9.171875 0 17.707031-4.109375 23.417969-11.265625l50.28125-62.847656zm57.074219-363.640625h-20.023438c-.09375-44.738281-36.371093-80-79.976562-80-14.625 0-28.972656 4.070312-41.390625 11.589844-3.851563-5.546875-8.175781-10.730469-12.898437-15.550782 16.089843-10.394531 34.984374-16.039062 54.289062-16.039062 55.140625 0 100 44.859375 100 100zm-240-100c55.3125 0 100 44.84375 100 100h-20.023438c-.09375-44.738281-36.367187-80-79.976562-80-43.683594 0-79.882812 35.335938-79.976562 80h-20.023438c0-55.140625 44.859375-100 100-100zm0 0"/><path d="m336 452.5h-120c-5.523438 0-10 4.476562-10 10 0 5.519531 4.476562 10 10 10h120c5.523438 0 10-4.480469 10-10 0-5.523438-4.476562-10-10-10zm0 0"/><path d="m256 406.5c38.597656 0 70-31.402344 70-70s-31.402344-70-70-70-70 31.402344-70 70 31.402344 70 70 70zm0-120c27.570312 0 50 22.429688 50 50s-22.429688 50-50 50-50-22.429688-50-50 22.429688-50 50-50zm0 0"/></svg>