<svg height="512pt" viewBox="0 -106 512 512" width="512pt" xmlns="http://www.w3.org/2000/svg"><path d="m422 10h-356.460938c-12.25 3.921875-23.21875 14.550781-32.109374 23.429688-14.46875 14.480468-23.429688 34.480468-23.429688 56.570312 0 11.050781 8.949219 20 20 20h452c11.039062 0 20-8.960938 20-20 0-44.179688-35.820312-80-80-80zm0 0" fill="#f5b955"/><path d="m482 210c-17.242188 0-437.324219 0-452 0-11.050781 0-20 8.949219-20 20 0 33.140625 26.859375 60 60 60h372c26.128906 0 48.351562-16.691406 56.578125-40h.011719c2.210937-6.261719 3.410156-12.988281 3.410156-20 0-11.050781-8.949219-20-20-20zm0 0" fill="#f5b955"/><path d="m462 110c11.050781 0 20 8.949219 20 20 0 11.039062-8.960938 20-20 20-41.152344 0-372.441406 0-412 0-11.050781 0-20-8.949219-20-20 0-11.039062 8.960938-20 20-20zm0 0" fill="#a5dc69"/><path d="m452 150c16.570312 0 30 13.429688 30 30s-13.429688 30-30 30h-136l60-60zm0 0" fill="#fe5f51"/><g fill="#ffde85"><path d="m424.429688 24.140625c7.808593 7.808594 7.808593 20.480469 0 28.289063-7.808594 7.808593-20.480469 7.808593-28.289063 0l-42.421875-42.429688h56.5625zm0 0"/><path d="m96 150 100 100 40-40 40 40c3.527344-3.527344 96.492188-96.492188 100-100-16.941406 0-263.746094 0-280 0zm0 0"/><path d="m278.429688 24.140625c7.808593 7.808594 7.808593 20.480469 0 28.289063-7.808594 7.808593-20.480469 7.808593-28.289063 0l-42.421875-42.429688h56.5625zm0 0"/></g><path d="m156 210h-96c-16.570312 0-30-13.429688-30-30s13.429688-30 30-30h36zm0 0" fill="#fe5f51"/><path d="m132.429688 24.140625c7.808593 7.808594 7.808593 20.480469 0 28.289063-7.808594 7.808593-20.480469 7.808593-28.289063 0l-38.601563-38.609376c7.710938-2.480468 15.929688-3.820312 24.460938-3.820312h28.28125zm0 0" fill="#ffde85"/><path d="m336 240c-5.519531 0-10 4.480469-10 10s4.480469 10 10 10 10-4.480469 10-10-4.480469-10-10-10zm0 0"/><path d="m512 90c0-49.625-40.375-90-90-90h-332c-49.191406 0-90 39.773438-90 90 0 13.808594 9.382812 25.464844 22.105469 28.9375-1.378907 3.476562-2.105469 7.210938-2.105469 11.0625 0 9.164062 4.132812 17.375 10.628906 22.882812-6.589844 7.132813-10.628906 16.660157-10.628906 27.117188 0 7.417969 2.035156 14.367188 5.570312 20.328125-14.449218 2.148437-25.570312 14.636719-25.570312 29.671875 0 38.597656 31.402344 70 70 70h372c38.371094 0 70-31.140625 70-70 0-15.035156-11.121094-27.523438-25.570312-29.671875 3.535156-5.960937 5.570312-12.910156 5.570312-20.328125 0-10.453125-4.035156-19.976562-10.621094-27.109375 6.855469-5.824219 10.621094-14.09375 10.621094-22.890625 0-3.902344-.757812-7.628906-2.117188-11.050781 12.640626-3.421875 22.117188-15 22.117188-28.949219zm-94.640625-58.789062c3.90625 3.90625 3.90625 10.238281 0 14.148437-3.90625 3.90625-10.238281 3.90625-14.148437 0l-25.351563-25.359375h28.28125zm-146 0c3.90625 3.90625 3.90625 10.238281 0 14.148437-3.90625 3.90625-10.238281 3.90625-14.148437 0l-25.351563-25.359375h28.28125zm-157.21875-11.210938 11.21875 11.210938c3.90625 3.90625 3.90625 10.238281 0 14.148437-3.910156 3.90625-10.238281 3.90625-14.148437 0l-25.226563-25.234375c1.335937-.074219 2.671875-.125 4.015625-.125zm347.859375 100c5.515625 0 10 4.484375 10 10 0 5.519531-4.480469 10-10 10h-412c-5.515625 0-10-4.484375-10-10 0-5.519531 4.480469-10 10-10zm-10 80h-111.855469l40-40h71.855469c11.027344 0 20 8.972656 20 20s-8.972656 20-20 20zm-256 35.855469-75.855469-75.855469h151.714844zm-136-35.855469c-11.027344 0-20-8.972656-20-20s8.972656-20 20-20h31.855469l40 40zm240.144531-40h51.714844l-75.859375 75.855469-25.855469-25.855469zm191.855469 70c0 3.386719-.34375 6.726562-1.003906 10h-114.996094c-5.523438 0-10 4.476562-10 10s4.476562 9.988281 10 9.988281h106.003906c-9.28125 12.347657-24.007812 20.011719-40.003906 20.011719h-372c-27.570312 0-50-22.429688-50-50 0-5.515625 4.484375-10 10-10h121.855469l37.074219 37.070312c3.90625 3.90625 10.234374 3.90625 14.140624 0l32.929688-32.925781 32.929688 32.925781c3.90625 3.90625 10.234374 3.90625 14.140624 0l37.074219-37.070312h161.855469c5.515625 0 10 4.484375 10 10zm-10-130h-452c-5.515625 0-10-4.484375-10-10 0-28.929688 17.527344-53.914062 42.988281-64.585938l34.082031 34.085938c11.71875 11.722656 30.707032 11.726562 42.429688 0 10.863281-10.863281 11.589844-27.8125 2.570312-39.5h61.507813l39.488281 39.5c11.722656 11.722656 30.710938 11.726562 42.433594 0 10.863281-10.863281 11.589844-27.8125 2.566406-39.5h61.507813l39.492187 39.5c11.722656 11.722656 30.707032 11.726562 42.433594 0 10.480469-10.480469 11.53125-26.65625 3.464844-38.277344 32.421875 6.101563 57.035156 34.609375 57.035156 68.777344 0 5.519531-4.480469 10-10 10zm0 0"/></svg>