<svg height="512pt" viewBox="-96 0 512 512.0002" width="512pt" xmlns="http://www.w3.org/2000/svg"><path d="m280 170h-20c16.570312 0 30-13.429688 30-30s-13.429688-30-30-30h-60c27.609375 0 50-22.390625 50-50 0-24.191406-17.191406-45.371094-40.019531-50-.660157 21.628906-22.78125 40-49.980469 40h-60c-16.570312 0-30 13.429688-30 30s13.429688 30 30 30h-40c-16.570312 0-30 13.429688-30 30s13.429688 30 30 30h-20c-16.570312 0-30 13.429688-30 30s13.429688 30 30 30h240c16.570312 0 30-13.429688 30-30s-13.429688-30-30-30zm0 0" fill="#ff98a0"/><path d="m50 230 83.460938 253.101562c3.910156 11.308594 14.570312 18.898438 26.539062 18.898438s22.628906-7.589844 26.539062-18.898438c.140626-.425781 83.425782-253 83.460938-253.101562zm0 0" fill="#ffde85"/><path d="m214.171875 230-50.980469 53.191406-53.191406-53.191406zm0 0" fill="#f5b955"/><path d="m110 180c5.519531 0 10-4.480469 10-10s-4.480469-10-10-10-10 4.480469-10 10 4.480469 10 10 10zm0 0"/><path d="m0 200c0 22.054688 17.945312 40 40 40h2.769531l81.195313 246.230469c.011718.046875.027344.089843.042968.136719 5.300782 15.332031 19.765626 25.632812 35.992188 25.632812s30.691406-10.300781 35.992188-25.632812c.015624-.046876.03125-.089844.042968-.136719l81.195313-246.230469h2.769531c22.054688 0 40-17.945312 40-40 0-17.421875-11.203125-32.273438-26.78125-37.746094 4.28125-6.367187 6.78125-14.023437 6.78125-22.253906 0-22.054688-17.945312-40-40-40h-15.328125c9.523437-10.625 15.328125-24.644531 15.328125-40 0-29.007812-20.199219-54.15625-48.03125-59.800781-2.882812-.585938-5.886719.132812-8.199219 1.964843-2.308593 1.828126-3.695312 4.585938-3.785156 7.53125-.5 16.425782-18.8125 30.304688-39.984375 30.304688h-60c-22.054688 0-40 17.945312-40 40 0 7.28125 1.964844 14.113281 5.382812 20h-5.382812c-22.054688 0-40 17.945312-40 40 0 8.230469 2.5 15.886719 6.78125 22.253906-15.578125 5.472656-26.78125 20.324219-26.78125 37.746094zm177.066406 279.894531c-2.53125 7.242188-9.382812 12.105469-17.066406 12.105469s-14.535156-4.863281-17.066406-12.109375l-79.105469-239.890625h42.027344l113.039062 113.039062zm-42.921875-239.894531h56.589844l-27.695313 28.894531zm91.765625 91.765625-48.726562-48.722656 41.253906-43.042969h37.734375zm-145.910156-251.765625c0-11.027344 8.972656-20 20-20h60c27 0 50.261719-15.644531 57.597656-36.828125 13.257813 6.789063 22.402344 21.164063 22.402344 36.828125 0 22.054688-17.945312 40-40 40h-100c-11.027344 0-20-8.972656-20-20zm-40 100h30c5.523438 0 10-4.476562 10-10s-4.476562-10-10-10h-10c-11.027344 0-20-8.972656-20-20s8.972656-20 20-20h200c11.027344 0 20 8.972656 20 20s-8.972656 20-20 20h-110c-5.523438 0-10 4.476562-10 10s4.476562 10 10 10h130c11.027344 0 20 8.972656 20 20s-8.972656 20-20 20c-11.089844 0-232.382812 0-240 0-11.027344 0-20-8.972656-20-20s8.972656-20 20-20zm0 0"/></svg>