<svg height="512pt" viewBox="0 -56 512 512" width="512pt" xmlns="http://www.w3.org/2000/svg"><path d="m482 70c11.050781 0 20 8.949219 20 20 0 11.039062-8.960938 20-20 20h-206c-11.050781 0-20-8.949219-20-20 0-11.039062 8.960938-20 20-20zm0 0" fill="#fe5f51"/><path d="m466.558594 23.679688 15.441406 46.320312h-206l15.441406-46.320312c2.71875-8.167969 10.367188-13.679688 18.980469-13.679688h137.15625c8.613281 0 16.261719 5.511719 18.980469 13.679688zm0 0" fill="#fff"/><path d="m482 110-4.441406 40h-197.117188l-4.441406-40zm0 0" fill="#fff"/><path d="m280.441406 150 15.558594 140h166l15.558594-140zm0 0" fill="#fe5f51"/><path d="m409 260c0 16.570312-13.429688 30-30 30s-30-13.429688-30-30 13.429688-30 30-30 30 13.429688 30 30zm0 0" fill="#ffde85"/><path d="m236 70c11.050781 0 20 8.949219 20 20 0 11.039062-8.960938 20-20 20h-206c-11.050781 0-20-8.949219-20-20 0-11.039062 8.960938-20 20-20zm0 0" fill="#fe5f51"/><path d="m482 290c-41.914062 0-345.675781 0-452 0-11.039062 0-20 8.960938-20 20 0 11.050781 8.949219 20 20 20v40c0 11.050781 8.949219 20 20 20h166c11.050781 0 20-8.949219 20-20v-40h40v40c0 11.050781 8.949219 20 20 20h166c11.050781 0 20-8.949219 20-20v-40c11.039062 0 20-8.960938 20-20 0-11.050781-8.949219-20-20-20zm0 0" fill="#ccf1ff"/><path d="m220.558594 23.679688 15.441406 46.320312h-206l15.441406-46.320312c2.71875-8.167969 10.367188-13.679688 18.980469-13.679688h137.15625c8.613281 0 16.261719 5.511719 18.980469 13.679688zm0 0" fill="#fff"/><path d="m236 110-4.441406 40h-197.117188l-4.441406-40zm0 0" fill="#fff"/><path d="m34.441406 150 15.558594 140h166l15.558594-140zm0 0" fill="#fe5f51"/><path d="m163 260c0 16.570312-13.429688 30-30 30s-30-13.429688-30-30 13.429688-30 30-30 30 13.429688 30 30zm0 0" fill="#ffde85"/><path d="m339 180c-5.519531 0-10 4.480469-10 10s4.480469 10 10 10 10-4.480469 10-10-4.480469-10-10-10zm0 0"/><path d="m103 190c0-5.519531-4.480469-10-10-10s-10 4.480469-10 10 4.480469 10 10 10 10-4.480469 10-10zm0 0"/><path d="m0 310c0 13.035156 8.359375 24.152344 20 28.28125v31.71875c0 16.542969 13.457031 30 30 30h166c16.542969 0 30-13.457031 30-30v-30h20v30c0 16.542969 13.457031 30 30 30h166c16.542969 0 30-13.457031 30-30v-31.703125c11.390625-4.019531 20-14.964844 20-28.296875 0-16.542969-13.457031-30-30-30h-8.828125c2.742187-24.695312 15.296875-137.675781 17.933594-161.40625 11.929687-3.789062 20.894531-15 20.894531-28.59375 0-13.945312-9.5625-25.695312-22.472656-29.042969l-13.480469-40.433593c-4.085937-12.277344-15.527344-20.523438-28.46875-20.523438h-137.15625c-12.941406 0-24.382813 8.246094-28.46875 20.519531l-13.476563 40.433594c-4.609374 1.1875-8.875 3.460937-12.484374 6.703125-3.511719-3.144531-7.765626-5.480469-12.464844-6.699219l-13.476563-40.433593c-4.089843-12.277344-15.53125-20.523438-28.472656-20.523438h-137.15625c-12.941406 0-24.382813 8.246094-28.46875 20.519531l-13.476563 40.433594c-12.65625 3.257813-22.476562 14.808594-22.476562 29.046875 0 13.367188 8.789062 24.71875 20.894531 28.582031 2.175781 19.613281 15.683594 141.175781 17.933594 161.417969h-8.828125c-16.574219 0-30 13.425781-30 30zm226 60c0 5.515625-4.484375 10-10 10h-166c-5.515625 0-10-4.484375-10-10v-30h186zm236 10h-166c-5.515625 0-10-4.484375-10-10v-30h186v30c0 5.515625-4.484375 10-10 10zm30-70c0 5.519531-4.480469 10-10 10h-452c-5.515625 0-10-4.484375-10-10 0-5.519531 4.480469-10 10-10h452c5.515625 0 10 4.484375 10 10zm-379-50c0-11.027344 8.972656-20 20-20s20 8.972656 20 20-8.972656 20-20 20-20-8.972656-20-20zm-83-180h205.925781c.023438 0 .050781.003906.074219.003906h.03125c5.5.015625 9.96875 4.492188 9.96875 9.996094 0 5.519531-4.480469 10-10 10h-206c-5.515625 0-10-4.484375-10-10 0-5.519531 4.480469-10 10-10zm11.171875 40h183.65625l-2.222656 20h-179.210938zm203.933594-1.40625c4.003906-1.273438 7.710937-3.382812 10.902343-6.25 3.113282 2.789062 6.8125 4.9375 10.882813 6.238281 2.179687 19.613281 15.6875 141.175781 17.9375 161.417969h-57.65625c2.878906-25.921875 15.777344-142.011719 17.933594-161.40625zm223.5 21.40625h-179.210938l-2.222656-20h183.65625zm-109.605469 120c0-11.027344 8.972656-20 20-20s20 8.972656 20 20-8.972656 20-20 20-20-8.972656-20-20zm54.617188 20c3.414062-5.886719 5.382812-12.71875 5.382812-20 0-22.054688-17.945312-40-40-40s-40 17.945312-40 40c0 7.28125 1.964844 14.113281 5.382812 20h-39.433593l-13.332031-120h174.765624l-2.222656 20h-85.160156c-5.523438 0-10 4.476562-10 10s4.476562 10 10 10h82.9375l-8.886719 80zm68.382812-180h-206c-5.515625 0-10-4.484375-10-10 0-5.519531 4.480469-10 10-10h205.925781c.023438 0 .050781.003906.074219.003906h.03125c5.5.015625 9.96875 4.492188 9.96875 9.996094 0 5.519531-4.480469 10-10 10zm-171.578125-80h137.15625c4.316406 0 8.132813 2.746094 9.492187 6.84375l11.054688 33.15625h-178.25l11.054688-33.160156c1.359374-4.09375 5.175781-6.839844 9.492187-6.839844zm-246 0h137.15625c4.316406 0 8.132813 2.746094 9.492187 6.84375l11.054688 33.15625h-178.25l11.054688-33.160156c1.359374-4.09375 5.175781-6.839844 9.492187-6.839844zm-18.804687 140h174.765624l-2.222656 20h-85.160156c-5.523438 0-10 4.476562-10 10s4.476562 10 10 10h82.9375l-8.886719 80h-39.433593c3.414062-5.886719 5.382812-12.71875 5.382812-20 0-22.054688-17.945312-40-40-40s-40 17.945312-40 40c0 7.28125 1.964844 14.113281 5.382812 20h-39.433593zm0 0"/></svg>