<svg height="512pt" viewBox="0 0 512 512.00036" width="512pt" xmlns="http://www.w3.org/2000/svg"><path d="m352.003906 10c82.828125 0 149.980469 67.148438 149.980469 149.976562 0 82.832032-67.152344 149.980469-149.980469 149.980469-25.578125 0-49.664062-6.410156-70.742187-17.695312l-69.238281 27.695312 25.316406-63.292969c-22.039063-26.117187-35.316406-59.851562-35.316406-96.6875 0-82.828124 67.152343-149.976562 149.980468-149.976562zm0 0" fill="#fff"/><path d="m352.003906 89.988281c-27.605468 0-49.992187 22.386719-49.992187 49.992188v10l7.996093 39.992187h83.988282l8-39.992187v-10c0-27.59375-22.394532-49.992188-49.992188-49.992188zm0 0" fill="#ffde85"/><path d="m393.996094 189.972656-11.996094 59.992188h-59.992188l-12-59.992188zm0 0" fill="#f5b955"/><path d="m314.988281 443.878906c9.21875 9.230469 7.289063 24.675782-3.929687 31.335938l-14.757813 8.757812-77.347656-77.347656 15.246094-15.25c7.808593-7.808594 20.46875-7.808594 28.277343 0zm0 0" fill="#ffde85"/><path d="m296.300781 483.972656-11.019531 6.550782c-16.058594 9.527343-35.015625 13.738281-53.351562 10.277343-43.605469-8.238281-94.628907-36.632812-139.132813-81.148437-45.921875-45.921875-74.699219-98.777344-81.867187-143.261719-2.96875-18.367187 1.75-37.132813 11.648437-52.882813l5.121094-8.148437 78.128906 78.140625-8.890625 8.886719c-7.808594 7.8125-7.808594 20.480469 0 28.289062l84.839844 84.835938c7.808594 7.808593 20.476562 7.808593 28.285156 0l8.890625-8.886719zm0 0" fill="#fe5f51"/><path d="m121.074219 249.976562c7.808593 7.808594 7.808593 20.464844 0 28.277344l-15.246094 15.246094-78.128906-78.140625 9.335937-14.855469c6.828125-10.871094 21.988282-12.578125 31.066406-3.5zm0 0" fill="#ffde85"/><path d="m242.019531 139.980469c-5.519531 0-10 4.480469-10 10s4.480469 9.996093 10 9.996093 9.996094-4.476562 9.996094-9.996093-4.476563-10-9.996094-10zm0 0"/><path d="m290.390625 499.117188 25.769531-15.304688c16.8125-9.980469 19.753906-33.136719 5.898438-47.003906l-52.515625-52.503906c-11.691407-11.691407-30.71875-11.691407-42.414063 0-10.8125 10.8125-13.003906 13.003906-24.136718 24.136718-3.902344 3.902344-10.246094 3.902344-14.148438 0l-84.835938-84.835937c-3.910156-3.910157-3.910156-10.238281 0-14.148438 3.390626-3.390625 15.652344-15.652343 24.136719-24.136719 11.71875-11.71875 11.722657-30.691406 0-42.414062l-52.972656-52.972656c-13.632813-13.628906-36.367187-11.042969-46.601563 5.25-6.988281 14.265625-34.230468 41.238281-27.511718 82.800781 7.820312 48.539063 38.683594 102.753906 84.667968 148.738281 44.359376 44.371094 96.972657 74.953125 144.347657 83.90625 20.523437 3.871094 41.929687-.601562 60.316406-11.511718zm-34.984375-100.671876 52.507812 52.5c4.613282 4.617188 3.652344 12.339844-1.957031 15.671876l-8.078125 4.796874-64.785156-64.789062 8.175781-8.179688c3.898438-3.894531 10.238281-3.894531 14.136719 0zm-194.375-194.371093 52.972656 52.972656c3.90625 3.90625 3.90625 10.226563 0 14.136719l-8.179687 8.175781-65.417969-65.429687 5.09375-8.105469c3.429688-5.453125 11.007812-6.273438 15.53125-1.75zm-40.230469 70.722656c-2.320312-14.34375.78125-29.664063 8.734375-43.457031l62.152344 62.160156-1.820312 1.816406c-11.71875 11.722656-11.722657 30.703125 0 42.429688l84.839843 84.839844c11.695313 11.695312 30.726563 11.695312 42.425781 0l1.820313-1.820313 61.183594 61.183594c-14.671875 8.691406-31.128907 11.898437-46.351563 9.027343-43.519531-8.222656-92.328125-36.796874-133.917968-78.394531-42.445313-42.445312-72.003907-93.953125-79.066407-137.785156zm0 0"/><path d="m352.003906 0c-88.210937 0-159.980468 71.765625-159.980468 159.976562 0 35.691407 11.980468 70.40625 33.851562 98.425782l-23.136719 57.839844c-1.484375 3.714843-.613281 7.957031 2.210938 10.785156 2.84375 2.839844 7.09375 3.6875 10.785156 2.210937l65-26c22.011719 10.949219 46.546875 16.71875 71.269531 16.71875 88.210938 0 159.976563-71.765625 159.976563-159.980469 0-88.210937-71.765625-159.976562-159.976563-159.976562zm0 299.960938c-23.019531 0-45.847656-5.710938-66.019531-16.515626-2.605469-1.394531-5.691406-1.566406-8.433594-.46875l-47.578125 19.03125 16.648438-41.628906c1.375-3.433594.742187-7.339844-1.640625-10.164062-21.253907-25.1875-32.957031-57.234375-32.957031-90.238282 0-77.183593 62.796874-139.980468 139.980468-139.980468 77.1875 0 139.980469 62.796875 139.980469 139.980468 0 77.1875-62.796875 139.984376-139.980469 139.984376zm0 0"/><path d="m352.003906 59.992188c5.519532 0 9.996094-4.476563 9.996094-10 0-5.519532-4.476562-9.996094-9.996094-9.996094-47.136718 0-88.121094 27.339844-107.726562 67.171875-2.441406 4.957031-.402344 10.949219 4.554687 13.386719 4.921875 2.421874 10.929688.433593 13.386719-4.554688 17.003906-34.546875 51.40625-56.007812 89.785156-56.007812zm0 0"/><path d="m421.992188 139.980469h-9.996094c0-33.140625-26.847656-59.992188-59.992188-59.992188-33.082031 0-59.992187 26.914063-59.992187 59.992188h-10c-5.519531 0-9.996094 4.476562-9.996094 10 0 5.519531 4.476563 9.996093 9.996094 9.996093h11.800781c2.964844 14.824219 15.425781 77.136719 18.390625 91.949219.933594 4.675781 5.039063 8.039063 9.804687 8.039063h59.992188c4.765625 0 8.867188-3.363282 9.804688-8.039063 2.96875-14.847656 15.429687-77.152343 18.386718-91.949219h11.800782c5.523437 0 10-4.476562 10-9.996093 0-5.523438-4.476563-10-10-10zm-36.191407 39.996093h-67.59375l-4-20h75.59375zm-33.796875-79.988281c22.085938 0 39.992188 17.898438 39.992188 39.992188h-79.988282c0-22.050781 17.941407-39.992188 39.996094-39.992188zm-21.800781 139.980469-7.996094-39.996094h59.59375l-8 39.996094zm0 0"/></svg>