<svg height="512pt" viewBox="0 0 512 512" width="512pt" xmlns="http://www.w3.org/2000/svg"><path d="m30 170v272h452c0-15.933594 0-255.441406 0-272zm0 0" fill="#ffde85"/><path d="m482 130c11.050781 0 20 8.949219 20 20 0 11.039062-8.960938 20-20 20h-452c-11.050781 0-20-8.949219-20-20 0-11.039062 8.960938-20 20-20zm0 0" fill="#fe5f51"/><path d="m482 90v40h-452v-40zm0 0" fill="#ffde85"/><path d="m422 70v20h-332v-20c0-11.050781 8.949219-20 20-20h89.410156c8.238282-23.300781 30.46875-40 56.589844-40s48.351562 16.699219 56.589844 40h89.410156c11.050781 0 20 8.949219 20 20zm0 0" fill="#fe5f51"/><path d="m316 310v132h126v-132c-15.246094 0-110.652344 0-126 0zm0 0" fill="#ccf1ff"/><path d="m316 442c0-8.070312 0-185.742188 0-192h-120v192c-16.507812 0-149.347656 0-166 0v60h452v-60c-15.265625 0-148.574219 0-166 0zm0 0" fill="#fe5f51"/><path d="m70 310v132h126v-132c-15.246094 0-110.652344 0-126 0zm0 0" fill="#ccf1ff"/><path d="m296 220c5.519531 0 10-4.480469 10-10s-4.480469-10-10-10-10 4.480469-10 10 4.480469 10 10 10zm0 0"/><path d="m256 220c5.519531 0 10-4.480469 10-10s-4.480469-10-10-10-10 4.480469-10 10 4.480469 10 10 10zm0 0"/><path d="m256 320c-5.519531 0-10 4.480469-10 10s4.480469 10 10 10 10-4.480469 10-10-4.480469-10-10-10zm0 0"/><path d="m216 220c5.519531 0 10-4.480469 10-10s-4.480469-10-10-10-10 4.480469-10 10 4.480469 10 10 10zm0 0"/><path d="m492 178.296875c11.386719-4.015625 20-14.960937 20-28.296875 0-13.035156-8.359375-24.152344-20-28.28125v-31.71875c0-5.523438-4.476562-10-10-10h-50v-10c0-16.542969-13.457031-30-30-30h-82.734375c-11.484375-24.191406-36.074219-40-63.265625-40s-51.78125 15.808594-63.265625 40h-82.734375c-16.542969 0-30 13.457031-30 30v10h-50c-5.523438 0-10 4.476562-10 10v31.703125c-11.386719 4.015625-20 14.960937-20 28.296875 0 13.035156 8.359375 24.152344 20 28.28125v313.71875h-10c-5.523438 0-10 4.476562-10 10s4.476562 10 10 10h492c5.523438 0 10-4.476562 10-10s-4.476562-10-10-10h-10zm-103 253.703125v-112h43v112zm-63 0v-112h43v112zm-70-72c-5.523438 0-10 4.476562-10 10v122h-40v-232h100v232h-40v-122c0-5.523438-4.476562-10-10-10zm-176 72v-112h43v112zm-40 0v-172h146v40h-116c-5.523438 0-10 4.476562-10 10v122zm432-252v60h-432v-60zm-329 140h43v112h-43zm299-20h-116v-40h146v172h-20v-122c0-5.523438-4.476562-10-10-10zm-342-230c0-5.515625 4.484375-10 10-10h89.410156c4.238282 0 8.015625-2.671875 9.429688-6.664062 7.050781-19.941407 26.003906-33.335938 47.160156-33.335938s40.109375 13.394531 47.160156 33.335938c1.414063 3.992187 5.191406 6.664062 9.429688 6.664062h89.410156c5.515625 0 10 4.484375 10 10v10h-312zm372 30v20h-432v-20zm-442 40h452c5.515625 0 10 4.484375 10 10 0 5.519531-4.480469 10-10 10h-452c-5.515625 0-10-4.484375-10-10 0-5.519531 4.480469-10 10-10zm10 312h146v40h-146zm286 40v-40h146v40zm0 0"/></svg>