<svg height="512pt" viewBox="0 -56 512 512" width="512pt" xmlns="http://www.w3.org/2000/svg"><path d="m482 10h-246c-11.050781 0-20 8.949219-20 20v300h266c11.050781 0 20-8.949219 20-20v-280c0-11.050781-8.949219-20-20-20zm0 0" fill="#ffde85"/><path d="m459 340c0 27.609375-22.390625 50-50 50s-50-22.390625-50-50c0-27.449219 22.253906-50 50-50 27.761719 0 50 22.558594 50 50zm0 0" fill="#445161"/><path d="m389 110v80h20v60c0 11.050781 8.949219 20 20 20 11.039062 0 20-8.960938 20-20v-200c-33.136719 0-60 26.859375-60 60zm0 0" fill="#fff"/><path d="m329 190v60c0 11.050781-8.949219 20-20 20s-20-8.949219-20-20v-60zm0 0" fill="#fff"/><path d="m124.421875 70c-8.613281 0-16.261719 5.511719-18.980469 13.679688l-36.902344 106.320312h-.007812c-3.183594 3.839844-3.269531 2.851562-40.722656 28.128906-11.128906 7.410156-17.808594 19.902344-17.808594 33.28125v58.589844c0 11.050781 8.949219 20 20 20h186v-260zm0 0" fill="#fe5f51"/><path d="m176 120v70h-107.460938c1.589844-1.910156 2.832032-4.109375 3.632813-6.511719l21.15625-63.488281zm0 0" fill="#ccf1ff"/><path d="m173 340c0 27.609375-22.390625 50-50 50s-50-22.390625-50-50c0-27.449219 22.253906-50 50-50 27.761719 0 50 22.558594 50 50zm0 0" fill="#445161"/><path d="m409 320c-11.050781 0-20 8.949219-20 20s8.949219 20 20 20 20-8.949219 20-20-8.949219-20-20-20zm0 0"/><path d="m123 320c-11.050781 0-20 8.949219-20 20s8.949219 20 20 20 20-8.949219 20-20-8.949219-20-20-20zm0 0"/><path d="m70 220c-5.519531 0-10 4.480469-10 10s4.480469 10 10 10 10-4.480469 10-10-4.480469-10-10-10zm0 0"/><path d="m176 220h-66c-5.523438 0-10 4.476562-10 10s4.476562 10 10 10h66c5.523438 0 10-4.476562 10-10s-4.476562-10-10-10zm0 0"/><path d="m482 0h-246c-16.542969 0-30 13.457031-30 30v30h-81.578125c-12.941406 0-24.382813 8.246094-28.46875 20.515625-5.203125 15.613281-24.644531 73.933594-33.269531 99.8125-.699219 2.097656-2.105469 3.945313-3.941406 5.160156l-36.472657 24.316407c-13.945312 9.285156-22.269531 24.839843-22.269531 41.605468v58.589844c0 16.542969 13.457031 30 30 30h33c0 33.085938 26.914062 60 60 60s60-26.914062 60-60h166c0 33.085938 26.914062 60 60 60s60-26.914062 60-60h13c16.542969 0 30-13.457031 30-30v-280c0-16.542969-13.457031-30-30-30zm-381.460938 130h65.460938v50h-82.125zm22.460938 250c-22.054688 0-40-17.945312-40-40 0-22.355469 18.269531-40 40-40 21.742188 0 40 17.652344 40 40 0 22.054688-17.945312 40-40 40zm56.566406-60c-8.351562-23.597656-30.957031-40-56.566406-40-25.621094 0-48.234375 16.414062-56.570312 40h-36.429688c-5.515625 0-10-4.484375-10-10v-10h33c5.523438 0 10-4.476562 10-10s-4.476562-10-10-10h-33v-28.589844c0-10.0625 4.992188-19.390625 13.355469-24.960937l36.457031-24.300781c.988281-.65625 1.921875-1.382813 2.820312-2.148438h103.367188c5.523438 0 10-4.476562 10-10v-70c0-5.523438-4.476562-10-10-10h-68.792969l7.71875-23.160156c1.363281-4.09375 5.179688-6.839844 9.492188-6.839844h81.582031v240zm229.433594 60c-22.054688 0-40-17.945312-40-40 0-22.355469 18.269531-40 40-40 21.78125 0 40 17.691406 40 40 0 22.054688-17.945312 40-40 40zm83-70c0 5.515625-4.484375 10-10 10h-16.433594c-8.351562-23.597656-30.957031-40-56.566406-40-25.621094 0-48.234375 16.414062-56.570312 40h-126.429688c0-19.796875 0-278.265625 0-290 0-5.515625 4.484375-10 10-10h246c5.515625 0 10 4.484375 10 10zm0 0"/><path d="m449 40c-38.53125 0-70 31.164062-70 70v80c0 5.523438 4.476562 10 10 10h10v50c0 16.542969 13.457031 30 30 30 16.574219 0 30-13.425781 30-30 0-8.386719 0-185.601562 0-200 0-5.523438-4.476562-10-10-10zm-50 70c0-24.441406 17.417969-44.445312 40-49.007812v119.007812h-40zm30 150c-5.515625 0-10-4.484375-10-10v-50h20v50c0 5.519531-4.480469 10-10 10zm0 0"/><path d="m349 40c-5.523438 0-10 4.476562-10 10v40c0 13.035156-8.359375 24.152344-20 28.28125v-68.28125c0-5.523438-4.476562-10-10-10s-10 4.476562-10 10v68.296875c-11.386719-4.023437-20-14.96875-20-28.296875v-40c0-5.523438-4.476562-10-10-10s-10 4.476562-10 10v40c0 24.382812 17.382812 44.429688 40 49v41h-10c-5.523438 0-10 4.476562-10 10v60c0 16.542969 13.457031 30 30 30s30-13.457031 30-30v-60c0-5.523438-4.476562-10-10-10h-10v-41.007812c22.796875-4.644532 40-24.84375 40-48.992188v-40c0-5.523438-4.476562-10-10-10zm-30 210c0 5.515625-4.484375 10-10 10s-10-4.484375-10-10v-50h20zm0 0"/></svg>