<svg height="511pt" viewBox="0 0 511 511.999" width="511pt" xmlns="http://www.w3.org/2000/svg"><path d="m302.050781 210.445312c-10.378906-10.382812-22.480469-18.402343-35.851562-24.144531-67.070313-28.792969-166.0625-.238281-240.960938 74.660157l-7.070312 7.070312 226.296875 226.296875 7.070312-7.070313c88.3125-88.308593 113.980469-213.347656 50.515625-276.8125zm0 0" fill="#f5b955"/><path d="m490.773438 78.289062c-15.621094-15.621093-40.945313-15.621093-56.566407 0 15.621094-15.621093 15.621094-40.945312 0-56.566406-17.652343-17.652344-47.683593-15.363281-62.125 6.859375-10.210937 15.734375-8.050781 38.4375 7.300781 50.867188-13.773437 31.824219-86.910156 100.101562-113.183593 106.851562l59.996093 60c6.75-26.273437 75.027344-99.414062 106.851563-113.183593 12.433594 15.351562 35.136719 17.511718 50.867187 7.300781 22.222657-14.441407 24.511719-44.476563 6.859376-62.128907zm0 0" fill="#fff"/><path d="m173.746094 338.75c62.488281 62.488281 94.152344 132.144531 70.71875 155.578125-23.433594 23.445313-93.089844-8.21875-155.578125-70.71875-62.496094-62.488281-94.160157-132.144531-70.71875-155.578125 23.433593-23.433594 93.089843 8.230469 155.578125 70.71875zm0 0" fill="#ff98a0"/><path d="m145.464844 367.035156c23.429687 23.441406 36.09375 48.765625 28.28125 56.574219-7.808594 7.8125-33.144532-4.851563-56.574219-28.28125-23.433594-23.433594-36.097656-48.765625-28.285156-56.578125s33.132812 4.851562 56.578125 28.285156zm0 0" fill="#ffde85"/><path d="m130.113281 228.226562c-3.910156 3.910157-3.910156 10.242188 0 14.140626 3.898438 3.910156 10.230469 3.910156 14.140625 0 3.898438-3.898438 3.898438-10.230469 0-14.140626-3.910156-3.898437-10.242187-3.898437-14.140625 0zm0 0"/><path d="m455.394531 57.101562c2.140625-15.050781-2.5625-30.898437-14.117187-42.449218-22.285156-22.289063-59.789063-18.902344-77.585938 8.484375-11.90625 18.34375-10.066406 42.460937 3.453125 58.296875-17.816406 30.59375-77.496093 84.992187-100.5625 94.214844-34.351562-13.558594-77.074219-13.757813-120.832031-.472657-80.429688 24.421875-130.5625 82.472657-134.652344 85.785157-.003906 0-.003906.003906-.003906.003906-14.496094 14.492187-14.105469 40.898437 1.101562 74.351562 13.839844 30.449219 38.566407 64.316406 69.617188 95.363282 31.050781 31.054687 64.917969 55.78125 95.367188 69.621093 23.539062 10.699219 56.113281 19.34375 74.355468 1.101563.007813-.007813.011719-.015625.015625-.019532 3.460938-4.273437 61.265625-53.933593 85.769531-134.632812 13.285157-43.761719 13.085938-86.488281-.472656-120.832031 9.222656-23.070313 63.621094-82.75 94.214844-100.566407 15.835938 13.523438 39.953125 15.359376 58.300781 3.453126 27.402344-17.808594 30.757813-55.3125 8.480469-77.585938-11.550781-11.554688-27.398438-16.257812-42.449219-14.117188zm-269.933593 424.992188c-28.320313-12.875-60.105469-36.15625-89.503907-65.554688-29.398437-29.394531-52.679687-61.179687-65.550781-89.5-11.175781-24.582031-13.105469-43.996093-5.164062-51.933593 16.78125-16.789063 81.011718 10.296875 141.433593 70.71875 60.710938 60.710937 87.40625 124.742187 70.71875 141.433593h-.003906c-7.9375 7.9375-27.351563 6.007813-51.929687-5.164062zm132.71875-121.15625c-10.808594 35.597656-30.285157 70.128906-56.828126 101.03125-6.378906-44.773438-48.492187-98.25-80.53125-130.289062-32.378906-32.375-85.761718-74.1875-130.289062-80.535157 30.898438-26.542969 65.429688-46.019531 101.027344-56.828125 49.703125-15.089844 106.714844-13.507812 143.421875 23.203125 36.703125 36.699219 38.292969 93.703125 23.199219 143.417969zm160.289062-228.910156c-12.085938 7.84375-28.972656 5.507812-37.648438-5.207032-2.828124-3.488281-7.628906-4.664062-11.746093-2.882812-28.328125 12.257812-81.132813 65.339844-103.175781 100.402344-4.828126-7.609375-10.433594-14.625-16.773438-20.964844-6.34375-6.34375-13.359375-11.949219-20.96875-16.777344 35.0625-22.042968 88.144531-74.847656 100.402344-103.175781 1.785156-4.117187.605468-8.921875-2.882813-11.746094-10.714843-8.675781-13.050781-25.5625-5.210937-37.644531 11.121094-17.113281 33.6875-18.222656 46.671875-5.238281 11.695312 11.695312 11.695312 30.730469 0 42.425781-3.90625 3.902344-3.90625 10.238281 0 14.144531 3.90625 3.902344 10.234375 3.902344 14.144531 0 11.695312-11.699219 30.726562-11.699219 42.421875 0 13.113281 13.113281 11.730469 35.640625-5.234375 46.664063zm0 0"/><path d="m171.652344 209.761719c-5.378906 1.261719-8.714844 6.644531-7.453125 12.019531 1.265625 5.378906 6.648437 8.714844 12.023437 7.453125 38.589844-9.058594 70.71875-3.171875 90.464844 16.578125 3.90625 3.902344 10.238281 3.902344 14.144531 0 3.90625-3.90625 3.90625-10.238281 0-14.144531-24.828125-24.828125-63.601562-32.605469-109.179687-21.90625zm0 0"/><path d="m81.816406 331.679688c-5 4.996093-8.960937 14.945312.550782 33.972656 5.808593 11.625 15.65625 24.675781 27.730468 36.746094 12.074219 12.074218 25.125 21.921874 36.746094 27.734374 8.449219 4.222657 15.105469 5.789063 20.335938 5.789063 6.550781 0 10.859374-2.460937 13.640624-5.238281 14.648438-14.652344-3.648437-46.074219-28.285156-70.722656-24.644531-24.632813-56.070312-42.9375-70.71875-28.28125zm42.425782 56.574218c-19.546876-19.542968-26.9375-35.855468-27.640626-41.789062 5.933594.707031 22.242188 8.101562 41.789063 27.640625 19.542969 19.550781 26.933594 35.859375 27.640625 41.792969-5.933594-.707032-22.242188-8.097657-41.789062-27.644532zm0 0"/></svg>