<svg height="512pt" viewBox="-116 0 512 512" width="512pt" xmlns="http://www.w3.org/2000/svg"><path d="m270 422v60c0 11.050781-8.949219 20-20 20h-220c-11.050781 0-20-8.949219-20-20v-60zm0 0" fill="#fe5f51"/><path d="m270 70v352h-260v-352zm0 0" fill="#ccf1ff"/><path d="m270 30v40h-260v-40c0-11.050781 8.949219-20 20-20h220c11.050781 0 20 8.949219 20 20zm0 0" fill="#fe5f51"/><path d="m170 196v80h20v60c0 11.050781 8.949219 20 20 20 11.039062 0 20-8.960938 20-20v-200c-33.136719 0-60 26.859375-60 60zm0 0" fill="#ffde85"/><path d="m110 276v60c0 11.050781-8.949219 20-20 20s-20-8.949219-20-20v-60zm0 0" fill="#ffde85"/><path d="m110 472c5.519531 0 10-4.480469 10-10s-4.480469-10-10-10-10 4.480469-10 10 4.480469 10 10 10zm0 0"/><path d="m250 512c16.542969 0 30-13.457031 30-30v-452c0-16.542969-13.457031-30-30-30h-220c-16.542969 0-30 13.457031-30 30v452c0 16.542969 13.457031 30 30 30zm-230-432h240v332h-240zm10-60h220c5.515625 0 10 4.484375 10 10v30h-240v-30c0-5.515625 4.484375-10 10-10zm-10 462v-50h240v50c0 5.515625-4.484375 10-10 10h-220c-5.515625 0-10-4.484375-10-10zm0 0"/><path d="m230 126c-38.53125 0-70 31.164062-70 70v80c0 5.523438 4.476562 10 10 10h10v50c0 16.542969 13.457031 30 30 30 16.574219 0 30-13.425781 30-30 0-8.386719 0-185.601562 0-200 0-5.523438-4.476562-10-10-10zm-50 70c0-24.441406 17.417969-44.445312 40-49.007812v119.007812h-40zm30 150c-5.515625 0-10-4.484375-10-10v-50h20v50c0 5.519531-4.480469 10-10 10zm0 0"/><path d="m130 126c-5.523438 0-10 4.476562-10 10v40c0 13.035156-8.359375 24.152344-20 28.28125v-68.28125c0-5.523438-4.476562-10-10-10s-10 4.476562-10 10v68.296875c-11.386719-4.023437-20-14.96875-20-28.296875v-40c0-5.523438-4.476562-10-10-10s-10 4.476562-10 10v40c0 24.382812 17.382812 44.429688 40 49v41h-10c-5.523438 0-10 4.476562-10 10v60c0 16.542969 13.457031 30 30 30s30-13.457031 30-30v-60c0-5.523438-4.476562-10-10-10h-10v-41.007812c22.796875-4.644532 40-24.84375 40-48.992188v-40c0-5.523438-4.476562-10-10-10zm-30 210c0 5.515625-4.484375 10-10 10s-10-4.484375-10-10v-50h20zm0 0"/><path d="m150 472h20c5.523438 0 10-4.476562 10-10s-4.476562-10-10-10h-20c-5.523438 0-10 4.476562-10 10s4.476562 10 10 10zm0 0"/></svg>