<svg height="512pt" viewBox="0 0 512 512.0009" width="512pt" xmlns="http://www.w3.org/2000/svg"><path d="m352 10c82.828125 0 149.980469 67.148438 149.980469 149.976562 0 82.832032-67.152344 149.980469-149.980469 149.980469-25.574219 0-49.660156-6.410156-70.738281-17.695312l-69.242188 27.695312 25.316407-63.292969c-22.035157-26.117187-35.3125-59.851562-35.3125-96.6875 0-82.828124 67.148437-149.976562 149.976562-149.976562zm0 0" fill="#fff"/><path d="m421.992188 199.972656v10h-139.980469v-10c0-38.65625 31.335937-69.992187 69.988281-69.992187s69.992188 31.335937 69.992188 69.992187zm0 0" fill="#f5b955"/><path d="m352 89.988281c11.050781 0 20 8.949219 20 19.996094 0 11.050781-8.949219 19.996094-20 19.996094-11.046875 0-19.996094-8.945313-19.996094-19.996094 0-11.046875 8.949219-19.996094 19.996094-19.996094zm0 0" fill="#f5b955"/><path d="m314.988281 443.878906c9.21875 9.230469 7.285157 24.675782-3.929687 31.335938l-14.757813 8.757812-77.351562-77.347656 15.25-15.25c7.808593-7.808594 20.464843-7.808594 28.273437 0zm0 0" fill="#ffde85"/><path d="m296.300781 483.972656-11.019531 6.550782c-16.058594 9.527343-35.015625 13.738281-53.355469 10.277343-43.601562-8.238281-94.625-36.632812-139.128906-81.148437-45.925781-45.921875-74.699219-98.777344-81.867187-143.261719-2.972657-18.367187 1.746093-37.132813 11.648437-52.882813l5.117187-8.148437 78.128907 78.140625-8.886719 8.886719c-7.808594 7.8125-7.808594 20.480469 0 28.289062l84.835938 84.835938c7.808593 7.808593 20.476562 7.808593 28.289062 0l8.886719-8.886719zm0 0" fill="#fe5f51"/><path d="m121.074219 249.976562c7.808593 7.808594 7.808593 20.464844 0 28.277344l-15.25 15.246094-78.128907-78.140625 9.339844-14.855469c6.828125-10.871094 21.984375-12.578125 31.066406-3.5zm0 0" fill="#ffde85"/><path d="m242.015625 139.980469c-5.519531 0-9.996094 4.480469-9.996094 10s4.476563 9.996093 9.996094 9.996093 10-4.476562 10-9.996093-4.480469-10-10-10zm0 0"/><path d="m441.988281 199.972656h-9.996093c0-35.191406-22.636719-64.789062-53.695313-75.570312 2.355469-4.28125 3.699219-9.195313 3.699219-14.417969 0-16.539063-13.453125-29.996094-29.996094-29.996094-16.539062 0-29.996094 13.457031-29.996094 29.996094 0 5.238281 1.355469 10.164063 3.722656 14.453125-31.234374 10.898438-53.714843 40.632812-53.714843 75.535156h-10c-5.519531 0-9.996094 4.476563-9.996094 10 0 5.519532 4.476563 9.996094 9.996094 9.996094h179.976562c5.523438 0 10-4.476562 10-9.996094 0-5.523437-4.476562-10-10-10zm-99.984375-89.988281c0-5.511719 4.484375-9.996094 9.996094-9.996094 5.515625 0 10 4.484375 10 9.996094 0 5.515625-4.484375 10-10 10-5.511719 0-9.996094-4.484375-9.996094-10zm9.996094 29.996094c33.09375 0 59.992188 26.777343 59.992188 59.992187h-119.984376c0-33.078125 26.914063-59.992187 59.992188-59.992187zm0 0"/><path d="m128.144531 285.320312c11.71875-11.71875 11.722657-30.691406 0-42.414062l-52.972656-52.972656c-13.632813-13.628906-36.367187-11.042969-46.601563 5.25-6.988281 14.265625-34.230468 41.238281-27.511718 82.800781 7.820312 48.539063 38.683594 102.753906 84.667968 148.738281 44.359376 44.371094 96.972657 74.953125 144.347657 83.90625 20.523437 3.871094 41.929687-.601562 60.316406-11.511718l25.769531-15.304688c16.8125-9.980469 19.75-33.136719 5.894532-47.003906l-52.511719-52.503906c-11.691407-11.691407-30.722657-11.691407-42.414063 0-10.8125 10.8125-13.003906 13.003906-24.136718 24.136718-3.902344 3.902344-10.25 3.902344-14.148438 0l-84.839844-84.835937c-3.90625-3.910157-3.90625-10.238281 0-14.148438 9.964844-9.960937 16.554688-16.550781 24.140625-24.136719zm-67.113281-81.246093 52.96875 52.972656c3.910156 3.90625 3.910156 10.226563 0 14.136719l-8.175781 8.175781-65.417969-65.429687 5.09375-8.105469c3.425781-5.453125 11.007812-6.273438 15.53125-1.75zm194.375 194.371093 52.507812 52.5c4.609376 4.617188 3.648438 12.339844-1.960937 15.671876l-8.074219 4.796874-64.789062-64.789062 8.179687-8.179688c3.894531-3.894531 10.238281-3.894531 14.136719 0zm-80.703125 24.140626c11.699219 11.691406 30.730469 11.695312 42.425781 0l1.820313-1.820313 61.183593 61.183594c-14.667968 8.691406-31.128906 11.898437-46.347656 9.027343-43.519531-8.222656-92.328125-36.796874-133.917968-78.394531-42.449219-42.445312-72.003907-93.953125-79.070313-137.785156-2.316406-14.34375.785156-29.664063 8.738281-43.457031l62.148438 62.160156-1.820313 1.816406c-11.71875 11.722656-11.722656 30.703125 0 42.429688zm0 0"/><path d="m352 0c-88.210938 0-159.976562 71.765625-159.976562 159.976562 0 35.691407 11.980468 70.40625 33.847656 98.425782l-23.132813 57.839844c-1.488281 3.714843-.617187 7.957031 2.210938 10.785156 2.84375 2.839844 7.089843 3.6875 10.785156 2.210937l65-26c22.011719 10.949219 46.546875 16.71875 71.265625 16.71875 88.214844 0 159.980469-71.765625 159.980469-159.980469 0-88.210937-71.765625-159.976562-159.980469-159.976562zm0 299.960938c-23.019531 0-45.847656-5.710938-66.019531-16.515626-2.601563-1.394531-5.6875-1.566406-8.433594-.46875l-47.578125 19.03125 16.652344-41.628906c1.371094-3.433594.742187-7.339844-1.640625-10.164062-21.253907-25.1875-32.960938-57.234375-32.960938-90.238282 0-77.183593 62.796875-139.980468 139.984375-139.980468 77.183594 0 139.980469 62.796875 139.980469 139.980468 0 77.1875-62.796875 139.984376-139.984375 139.984376zm0 0"/><path d="m248.828125 120.554688c4.921875 2.421874 10.933594.429687 13.386719-4.554688 17.003906-34.546875 51.410156-56.007812 89.785156-56.007812 5.523438 0 10-4.476563 10-10 0-5.519532-4.476562-9.996094-10-9.996094-47.136719 0-88.121094 27.339844-107.726562 67.171875-2.4375 4.957031-.398438 10.949219 4.554687 13.386719zm0 0"/></svg>