<svg height="512pt" viewBox="0 -96 512 512" width="512pt" xmlns="http://www.w3.org/2000/svg"><path d="m461.019531 160.691406h-.007812c8.648437-25.230468.078125-54.179687-23.011719-68.839844-20.441406-12.972656-47.519531-23.632812-79-30.941406 0-.300781 0-.609375 0-.910156 0-16.339844-15.679688-30.859375-39.941406-39.980469-16.71875-6.289062-40.519532-10.019531-63.058594-10.019531-55.230469 0-103 22.390625-103 50v.910156c-31.480469 7.308594-58.558594 17.96875-79 30.941406-23.089844 14.660157-31.660156 43.609376-23.011719 68.839844h-.007812c-23.941407 34.296875-40.980469 76.019532-40.980469 121.027344 0 15.621094 12.660156 28.28125 28.28125 28.28125 7.507812 0 14.699219-2.980469 20-8.28125l52.539062-49.539062.007813-.019532c27.113281 14.859375 64.0625 8.011719 82.171875-22.160156l.128906-.078125c3.511719 6.207031 10.121094 10.066406 17.332032 10.066406l91.398437.011719c7.160156 0 13.582031-3.828125 17.160156-9.960938 18.121094 30.140626 55.050781 36.980469 82.152344 22.121094l.007813.019532 52.539062 49.539062c5.300781 5.300781 12.492188 8.28125 20 8.28125 15.621094 0 28.28125-12.660156 28.28125-28.28125 0-45.007812-17.039062-86.730469-40.980469-121.027344zm0 0" fill="#f5b955"/><path d="m203 50c-5.519531 0-10 4.480469-10 10s4.480469 10 10 10 10-4.480469 10-10-4.480469-10-10-10zm0 0"/><path d="m108.792969 107.066406c-6.796875 3.148438-13.089844 6.550782-18.703125 10.105469-11.671875 7.394531-15.785156 23.707031-9.363282 37.140625 2.394532 5.007812 8.378907 7.082031 13.335938 4.707031 4.980469-2.378906 7.089844-8.351562 4.707031-13.332031-2.054687-4.304688-1.132812-9.625 2.015625-11.617188 4.886719-3.09375 10.40625-6.074218 16.417969-8.859374 5.011719-2.320313 7.191406-8.265626 4.867187-13.277344-2.320312-5.011719-8.265624-7.1875-13.277343-4.867188zm0 0"/><path d="m443.359375 83.40625c-19.855469-12.597656-45.699219-23.089844-75.078125-30.527344-3.488281-17.320312-19.707031-32.445312-45.699219-42.21875-17.746093-6.675781-42.636719-10.660156-66.582031-10.660156-28.363281 0-55.546875 5.550781-76.539062 15.632812-20.242188 9.71875-32.644532 22.75-35.707032 37.238282-29.394531 7.4375-55.25 17.933594-75.113281 30.535156-25.042969 15.902344-36.355469 46.410156-28.605469 75.570312-26.207031 39-40.035156 81.34375-40.035156 122.742188 0 21.109375 17.171875 38.28125 38.28125 38.28125 10.175781 0 19.742188-3.941406 26.957031-11.097656l47.457031-44.75c9.023438 3.816406 18.460938 5.65625 27.792969 5.65625 20.289063 0 40.046875-8.691406 53.785157-24.582032 4.75 3.046876 10.34375 4.761719 16.1875 4.761719l91.398437.011719c5.804687 0 11.292969-1.652344 15.976563-4.644531 19.910156 22.921875 52.652343 30.992187 81.46875 18.800781l47.457031 44.746094c7.214843 7.15625 16.78125 11.097656 26.957031 11.097656 21.109375 0 38.28125-17.171875 38.28125-38.28125 0-41.402344-13.828125-83.742188-40.035156-122.742188 7.746094-29.171874-3.570313-59.671874-28.605469-75.570312zm-391.941406 211.039062c-.070313.066407-.140625.132813-.210938.203126-3.449219 3.453124-8.042969 5.351562-12.925781 5.351562-10.082031 0-18.28125-8.199219-18.28125-18.28125 0-40.445312 14.574219-75.335938 29.726562-100.683594l26.078126 47.296875c4.554687 9.882813 11.066406 18.371094 19.140624 25.070313zm42.425781-74.753906c-3.347656-7.367187-30.355469-53.320312-33.394531-62.246094-7.484375-21.828124.292969-45.332031 18.910156-57.152343 16.886719-10.714844 38.789063-19.820313 63.867187-26.609375 1.726563 53.679687 13.777344 102.28125 38.398438 155.371094-22.453125 30.652343-71.300781 26.890624-87.78125-9.363282zm208.015625 10.308594-91.398437.089844c-3.597657 0-7.128907-2-8.980469-5.777344-44.113281-93.230469-37.300781-158.996094-38.445313-165.246094 1.277344-18.636718 40.613282-39.066406 92.964844-39.066406 21.34375 0 44.15625 3.59375 59.539062 9.378906 20.0625 7.542969 32.734376 18.839844 33.429688 29.6875-.859375 4.667969 4.667969 84.484375-38.792969 166.246094-1.859375 2.933594-4.929687 4.6875-8.316406 4.6875zm28.765625-.597656c23.566406-46.871094 36.378906-99.167969 38.15625-155.71875 25.070312 6.789062 46.972656 15.894531 63.859375 26.609375 18.617187 11.820312 26.394531 35.324219 18.902344 57.175781-2.480469 7.289062-3.171875 6.855469-33.039063 61.535156-.125.222656-.242187.453125-.347656.6875-16.457031 36.195313-65.046875 39.902344-87.53125 9.710938zm143.09375 70.597656c-4.882812 0-9.476562-1.898438-12.929688-5.351562-.066406-.070313-.136718-.136719-.210937-.203126l-43.523437-41.042968c8.074218-6.703125 14.585937-15.191406 19.140624-25.070313l26.078126-47.296875c15.152343 25.347656 29.726562 60.234375 29.726562 100.683594 0 10.082031-8.199219 18.28125-18.28125 18.28125zm0 0"/><path d="m413.226562 145.6875c-2.378906 4.980469-.273437 10.953125 4.710938 13.335938 4.957031 2.371093 10.941406.292968 13.332031-4.710938 6.421875-13.429688 2.316407-29.742188-9.351562-37.140625-5.65625-3.582031-11.957031-6.980469-18.726563-10.109375-5.011718-2.3125-10.953125-.128906-13.269531 4.882812-2.316406 5.015626-.128906 10.957032 4.882813 13.273438 5.976562 2.761719 11.5 5.738281 16.410156 8.847656 3.148437 1.996094 4.070312 7.316406 2.011718 11.621094zm0 0"/><path d="m318.15625 63.109375c2.21875-5.058594-.078125-10.957031-5.136719-13.175781-20.125-8.835938-50.003906-11.066406-71.890625-9.53125-5.511718.390625-9.664062 5.171875-9.273437 10.679687.386719 5.511719 5.164062 9.65625 10.675781 9.273438 18.53125-1.308594 45.507812.457031 62.449219 7.890625 5.046875 2.214844 10.949219-.066406 13.175781-5.136719zm0 0"/></svg>