<svg height="512pt" viewBox="-86 0 512 512" width="512pt" xmlns="http://www.w3.org/2000/svg"><path d="m330 110v80c-10.753906 0-303.367188 0-320 0v-80l60-100h200zm-90-40c0-11.050781-8.949219-20-20-20h-100c-11.039062 0-20 8.960938-20 20 0 11.050781 8.949219 20 20 20h100c11.039062 0 20-8.960938 20-20zm0 0" fill="#fe5f51"/><path d="m290 190-6.351562 66h-227.296876l-6.351562-66zm0 0" fill="#fff"/><path d="m283.648438 256-15.378907 160.03125-.269531-.03125h-196l-.269531.03125-15.378907-160.03125zm0 0" fill="#fe5f51"/><path d="m268.269531 416.03125-8.269531 85.96875h-180l-8.269531-85.96875.269531-.03125h196zm0 0" fill="#fff"/><path d="m210 336c0 22.089844-17.910156 40-40 40s-40-17.910156-40-40 17.910156-40 40-40 40 17.910156 40 40zm0 0" fill="#ffde85"/><path d="m110 130c-5.519531 0-10 4.480469-10 10s4.480469 10 10 10 10-4.480469 10-10-4.480469-10-10-10zm0 0"/><path d="m330 200c5.523438 0 10-4.476562 10-10v-80c0-1.8125-.492188-3.589844-1.425781-5.144531l-60-100c-1.804688-3.011719-5.0625-4.855469-8.574219-4.855469h-200c-3.511719 0-6.769531 1.84375-8.574219 4.855469l-60 100c-.933593 1.554687-1.425781 3.332031-1.425781 5.144531v80c0 5.523438 4.476562 10 10 10h30.914062c28.066407 291.914062 28.886719 300.402344 29.132813 302.957031.492187 5.128907 4.800781 9.042969 9.953125 9.042969h180c5.152344 0 9.460938-3.914062 9.953125-9.042969 9.359375-97.308593-4.644531 48.355469 29.132813-302.957031zm-310-87.230469 55.660156-92.769531h188.679688l55.660156 92.769531v67.230469c-13.355469 0-254.460938 0-300 0zm239.1875 293.230469h-178.371094l-13.460937-140h205.292969zm-193.757812-160-4.421876-46h217.984376l-4.421876 46zm23.65625 246-6.347657-66h174.527344l-6.351563 66zm0 0"/><path d="m120 100h100c16.574219 0 30-13.425781 30-30 0-16.542969-13.457031-30-30-30h-100c-16.574219 0-30 13.425781-30 30 0 16.542969 13.457031 30 30 30zm0-40h100c5.515625 0 10 4.484375 10 10 0 5.519531-4.480469 10-10 10h-100c-5.515625 0-10-4.484375-10-10 0-5.519531 4.480469-10 10-10zm0 0"/><path d="m230 130h-80c-5.523438 0-10 4.476562-10 10s4.476562 10 10 10h80c5.523438 0 10-4.476562 10-10s-4.476562-10-10-10zm0 0"/><path d="m170 386c27.570312 0 50-22.429688 50-50s-22.429688-50-50-50-50 22.429688-50 50 22.429688 50 50 50zm0-80c16.542969 0 30 13.457031 30 30s-13.457031 30-30 30-30-13.457031-30-30 13.457031-30 30-30zm0 0"/></svg>