<svg height="512pt" viewBox="0 0 512 512" width="512pt" xmlns="http://www.w3.org/2000/svg"><path d="m256 10c132.550781 0 246 113.449219 246 246s-113.449219 246-246 246-246-113.449219-246-246 113.449219-246 246-246zm0 0" fill="#ccf1ff"/><path d="m256 73c-98.992188 0-186.824219 88.128906-182.859375 189.949219 3.933594 95.082031 87.832031 176.050781 182.859375 176.050781 95.703125 0 179.003906-81.660156 182.859375-176.160156 4.386719-99.460938-82.222656-189.839844-182.859375-189.839844zm0 0" fill="#fff"/><path d="m276 216v80h20v60c0 11.050781 8.949219 20 20 20 11.039062 0 20-8.960938 20-20 0-8.386719 0-185.601562 0-200-33.136719 0-60 26.859375-60 60zm0 0" fill="#f5b955"/><path d="m216 296v60c0 11.050781-8.949219 20-20 20s-20-8.949219-20-20v-60zm0 0" fill="#f5b955"/><path d="m256 83c5.421875 0 9.828125-4.320312 9.988281-9.699219.011719-.101562.011719-.199219.011719-.300781 0-5.519531-4.480469-10-10-10s-10 4.480469-10 10c0 .101562 0 .199219.011719.300781.160156 5.378907 4.566406 9.699219 9.988281 9.699219zm0 0"/><path d="m256 0c-138.011719 0-256 117.8125-256 256 0 137.914062 117.703125 256 256 256 137.914062 0 256-117.703125 256-256 0-138.011719-117.8125-256-256-256zm0 492c-127.925781 0-236-108.074219-236-236s108.074219-236 236-236 236 108.074219 236 236-108.074219 236-236 236zm0 0"/><path d="m297.96875 67.667969c-5.394531-1.230469-10.742188 2.160156-11.960938 7.546875-1.222656 5.386718 2.15625 10.738281 7.546876 11.957031 79.414062 17.972656 138.851562 94.941406 135.3125 175.28125-3.558594 91.832031-81.105469 166.546875-172.867188 166.546875-91.703125 0-169.253906-74.664062-172.867188-166.4375-3.1875-81.804688 54.984376-157.207031 135.316407-175.390625 5.386719-1.21875 8.765625-6.574219 7.542969-11.960937-1.21875-5.386719-6.570313-8.769532-11.960938-7.542969-87.761719 19.863281-154.496094 103.003906-150.882812 195.675781 4 101.578125 90.386718 185.65625 192.851562 185.65625 102.273438 0 188.90625-83.933594 192.851562-185.71875 3.992188-90.597656-61.734374-175.441406-150.882812-195.613281zm0 0"/><path d="m316 386c16.574219 0 30-13.425781 30-30 0-8.386719 0-185.601562 0-200 0-5.523438-4.476562-10-10-10-38.53125 0-70 31.164062-70 70v80c0 5.523438 4.476562 10 10 10h10v50c0 16.542969 13.457031 30 30 30zm0-20c-5.515625 0-10-4.484375-10-10v-50h20v50c0 5.519531-4.480469 10-10 10zm-30-150c0-24.441406 17.417969-44.445312 40-49.007812v119.007812h-40zm0 0"/><path d="m226 196c0 13.035156-8.359375 24.152344-20 28.28125v-68.28125c0-5.523438-4.476562-10-10-10s-10 4.476562-10 10v68.296875c-11.390625-4.023437-20-14.972656-20-28.296875v-40c0-5.523438-4.476562-10-10-10s-10 4.476562-10 10v40c0 24.382812 17.382812 44.429688 40 49v41h-10c-5.523438 0-10 4.476562-10 10v60c0 16.542969 13.457031 30 30 30s30-13.457031 30-30v-60c0-5.523438-4.476562-10-10-10h-10v-41.007812c22.796875-4.644532 40-24.84375 40-48.992188v-40c0-5.523438-4.476562-10-10-10s-10 4.476562-10 10zm-20 160c0 5.515625-4.484375 10-10 10s-10-4.484375-10-10v-50h20zm0 0"/></svg>