<svg height="512pt" viewBox="0 -66 512.00009 512" width="512pt" xmlns="http://www.w3.org/2000/svg"><path d="m462.011719 300.015625c0 38.660156-31.34375 70-70.003907 70h-56.003906v-140.003906h56.003906c38.890626 0 70.003907 31.589843 70.003907 70.003906zm0 0" fill="#fff"/><path d="m495.753906 221.53125c-24.164062-31.804688-62.136718-51.523438-103.746094-51.523438-10.511718 0-43.019531 0-56.003906 0v60.003907h56.003906c22.382813 0 42.71875 10.5625 55.703126 27.609375l.007812-.007813c5.800781 7.621094 14.710938 12.398438 24.292969 12.398438 24.949219 0 38.832031-28.601563 23.742187-48.480469zm0 0" fill="#fe5f51"/><path d="m376.007812 140.007812c0 10.738282-2.421874 20.910157-6.742187 30-10.097656 0-99.417969 0-113.265625 0v-100.003906h50.003906c38.535156 0 70.003906 31.25 70.003906 70.003906zm0 0" fill="#fff"/><path d="m256 370.015625c0-14.839844 0-192.371094 0-200.007813h80.003906v200.007813c-9.679687 0-70.261718 0-80.003906 0zm0 0" fill="#445161"/><path d="m409.589844 61.523438c-24.324219-32.003907-62.230469-51.523438-103.585938-51.523438h-50.003906v60.003906h50.003906c22.382813 0 42.71875 10.5625 55.703125 27.609375l.007813-.007812c5.800781 7.621093 14.550781 12.398437 24.132812 12.398437 24.949219 0 38.832032-28.601562 23.742188-48.480468zm0 0" fill="#fe5f51"/><path d="m200 230.011719h56v140.003906h-56c-38.664062 0-70.003906-31.339844-70.003906-70 0-38.839844 31.515625-70.003906 70.003906-70.003906zm0 0" fill="#fff"/><path d="m200 170.007812c-8.203125 0-16.222656.761719-24.003906 2.21875 0-7.453124 0-156.332031 0-162.226562h80.003906v160.007812c-6.777344 0-51.710938 0-56 0zm0 0" fill="#445161"/><path d="m200 170.007812c-35.746094 0-68.671875 14.527344-92.625 38.871094h-.011719c-3.910156 3.980469-7.570312 8.203125-10.949219 12.652344-15.089843 19.871094-1.210937 48.480469 23.742188 48.480469 9.359375 0 17.9375-4.570313 23.738281-11.890625l.011719.011718c13.125-17.566406 33.765625-28.121093 56.09375-28.121093h56v-60.003907c-6.777344 0-51.710938 0-56 0zm0 0" fill="#fe5f51"/><path d="m175.996094 70.003906v102.222656c-26.589844 4.980469-50.359375 18.09375-68.621094 36.652344h-.011719c-32.640625-5.960937-57.371093-34.519531-57.371093-68.871094 0-38.722656 31.402343-70.003906 70.003906-70.003906zm0 0" fill="#fff"/><path d="m125.996094 10c-42.015625 0-85.867188 20.09375-109.746094 51.523438-15.089844 19.871093-1.210938 48.480468 23.742188 48.480468 9.359374 0 18.089843-4.570312 23.898437-11.890625l.011719.011719c12.753906-17.074219 33.15625-28.121094 56.09375-28.121094h56v-60.003906zm0 0" fill="#fe5f51"/><path d="m296.003906 280.011719c5.519532 0 10-4.480469 10-10s-4.480468-10-10-10c-5.519531 0-10 4.480469-10 10s4.480469 10 10 10zm0 0"/><path d="m216 120.003906c5.519531 0 10-4.476562 10-10 0-5.519531-4.480469-10-10-10s-10 4.480469-10 10c0 5.523438 4.480469 10 10 10zm0 0"/><path d="m424.3125 163.765625c-.078125-.015625-.15625-.03125-.230469-.050781-.03125-.003906-.058593-.011719-.085937-.019532-10.445313-2.445312-21.207032-3.6875-31.988282-3.6875h-8.515624c1.667968-6.480468 2.515624-13.167968 2.515624-20 0-6.867187-.863281-13.59375-2.535156-20.074218 15.914063.964844 30.894532-7.511719 38.125-22.082032 6.859375-13.8125 5.308594-30.050781-4.046875-42.378906-25.847656-34.007812-66.546875-55.472656-111.546875-55.472656h-180.011718c-12.550782 0-25.335938 1.664062-38.003907 4.925781-.03125.007813-.066406.019531-.097656.027344-.140625.035156-.285156.066406-.421875.101563-.128906.035156-.253906.070312-.382812.105468-.023438.007813-.050782.011719-.078126.019532-32.210937 8.507812-60.882812 26.816406-78.722656 50.296874-9.355468 12.316407-10.90625 28.550782-4.050781 42.367188 6.785156 13.671875 20.484375 22.160156 35.753906 22.160156.855469 0 1.703125-.03125 2.546875-.085937-1.675781 6.492187-2.546875 13.222656-2.546875 20.089843 0 33 20.09375 61.933594 49.601563 74.019532-.378906.488281-.769532.964844-1.140625 1.453125-9.355469 12.316406-10.90625 28.554687-4.050781 42.371093 7.214843 14.535157 22.1875 23.070313 38.136718 22.085938-1.671875 6.488281-2.539062 13.214844-2.539062 20.074219 0 44.117187 35.886718 80.003906 80.003906 80.003906h192.007812c44.113282 0 80.003907-35.886719 80.003907-80.003906 0-6.871094-.867188-13.601563-2.539063-20.089844 15.820313 1.054687 30.980469-7.339844 38.289063-22.0625 6.859375-13.816406 5.308593-30.054687-4.046875-42.378906-19.675782-25.898438-47.875-44.261719-79.402344-51.714844zm-12.304688 17.917969v40.84375c-6.480468-1.671875-13.164062-2.519532-20-2.519532h-46.003906v-40h46.003906c6.710938 0 13.410157.570313 20 1.675782zm-146.007812-21.675782v-80.003906h40.003906c33.105469 0 60.003906 26.84375 60.003906 60.003906 0 6.910157-1.15625 13.613282-3.421874 20-11.175782 0-84.152344 0-96.585938 0zm-20 0h-20v-10c0-5.523437-4.476562-10-10-10s-10 4.476563-10 10v10h-6c-4.679688 0-9.359375.242188-14.003906.703126v-140.710938h60.003906zm-60.003906 20.8125c4.632812-.539062 9.316406-.8125 14.003906-.8125h46v40.003907h-46c-4.730469 0-9.40625.410156-14.003906 1.222656zm215.625-113.253906c4.800781 6.324219 5.574218 14.324219 2.0625 21.394532-5.949219 11.980468-22.644532 16.324218-34.277344 2.269531-6.378906-8.285157-14.378906-15.28125-23.402344-20.507813v-43.832031c21.914063 7.78125 41.351563 21.910156 55.617188 40.675781zm-75.617188-45.886718v40.839843c-6.480468-1.671875-13.164062-2.519531-20-2.519531h-40.003906v-40h40.003906c6.722656 0 13.417969.570312 20 1.679688zm-160.007812-1.679688v40.003906h-46c-6.835938 0-13.523438.84375-20.003906 2.515625v-39.835937c8.71875-1.773438 17.433593-2.683594 26.003906-2.683594zm-143.84375 68.953125c-3.507813-7.070313-2.738282-15.0625 2.058594-21.382813 12.953124-17.042968 32.855468-30.933593 55.78125-39.242187v42.394531c-15.058594 8.714844-22.410157 19.542969-23.984376 21.242188-9.734374 12.171875-27.386718 10.023437-33.855468-3.011719zm37.839844 51.054687c0-33.078124 26.808593-60.003906 60.003906-60.003906h46v84.199219c-23.105469 5.769531-44.21875 17.289063-61.71875 33.726563-25.9375-7-44.285156-30.605469-44.285156-57.921876zm42.324218 108.953126c-3.507812-7.070313-2.738281-15.0625 2.058594-21.382813 3.066406-4.03125 6.441406-7.929687 10.03125-11.59375.019531-.019531.039062-.035156.054688-.054687.011718-.011719.027343-.023438.042968-.035157 14.445313-14.6875 32.074219-25.242187 51.492188-30.972656v42.671875c-19.25 9.027344-28.300782 22.617188-29.988282 24.382812-9.78125 12.261719-27.28125 9.902344-33.691406-3.015624zm37.679688 51.054687c0-33.410156 27.148437-60.003906 60.003906-60.003906h46v120.003906h-46c-33.085938 0-60.003906-26.914063-60.003906-60zm126.003906-120.007813h60.003906v180.007813h-20v-50c0-5.523437-4.476562-10-10-10-5.523437 0-10 4.476563-10 10v50h-20.003906zm126.007812 180.007813h-46.003906v-120.003906h46.003906c32.921876 0 60.003907 26.644531 60.003907 60.003906 0 33.085937-26.917969 60-60.003907 60zm97.839844-111.050781c-6.148437 12.390625-23.089844 15.996094-34.4375 2.273437-6.378906-8.285156-14.382812-15.285156-23.402344-20.507812v-43.851563c22.015626 7.789063 41.511719 21.921875 55.777344 40.699219 4.800782 6.320313 5.574219 14.320313 2.0625 21.386719zm0 0"/></svg>