<svg height="512pt" viewBox="0 -101 512 512" width="512pt" xmlns="http://www.w3.org/2000/svg"><g fill="#a5dc69"><path d="m135.539062 60c-13.730468 12.710938-22.539062 30.410156-22.539062 50 0 6.191406.800781 12.179688 2.308594 17.890625.132812.070313.261718.128906.390625.199219l-.277344.230468.148437.191407 133.738282-48.410157c-20.523438-43.363281-77.292969-53.851562-113.769532-20.101562zm0 0"/><path d="m115.421875 128.320312c-.042969-.140624-.082031-.289062-.113281-.429687-9.738282-5.039063-23.648438-7.890625-35.308594-7.890625-10.738281 0-20.910156 2.421875-30 6.738281-23.648438 11.230469-40 35.339844-40 63.261719 0 22.398438 10.519531 42.339844 26.890625 55.148438l.160156.042968 78.519531-116.679687zm0 0"/><path d="m376.460938 60c-36.40625-33.683594-93.210938-23.332031-113.769532 20.101562l133.738282 48.410157.148437-.191407-.296875-.242187c.140625-.066406.269531-.136719.410156-.207031 6.703125-25.304688-1.421875-50.457032-20.230468-67.871094zm0 0"/><path d="m396.691406 127.871094c-.03125.148437-.070312.300781-.113281.449218l-.148437.191407 78.511718 116.679687.167969-.042968c16.371094-12.808594 26.890625-32.75 26.890625-55.148438 0-50.628906-58.03125-86.746094-105.308594-62.128906zm0 0"/></g><path d="m480.910156 277.949219c1.167969 11.78125-8.179687 22.050781-20.019531 22.050781h-409.78125c-11.839844 0-21.1875-10.269531-20.019531-22.058594 10.9375-110.277344 110.019531-197.941406 224.910156-197.941406 114.882812 0 213.972656 87.671875 224.910156 197.949219zm0 0" fill="#f5b955"/><path d="m392.261719 60h-15.800781l20.230468 67.871094 64.839844-.199219.46875-.933594c0-36.859375-32.878906-66.738281-69.738281-66.738281zm0 0" fill="#fe5f51"/><path d="m379 220c11.050781 0 20 8.949219 20 20s-8.949219 20-20 20-20-8.949219-20-20 8.949219-20 20-20zm0 0" fill="#ffde85"/><path d="m256 10c-23.050781 0-43.058594 12.988281-53.109375 32.050781l46.417969 38.050781c4.21875-.132812 9.085937-.136718 13.382812 0l46.417969-38.050781c-10.050781-19.0625-30.058594-32.050781-53.109375-32.050781zm0 0" fill="#fe5f51"/><path d="m256 140c11.050781 0 20 8.949219 20 20s-8.949219 20-20 20-20-8.949219-20-20 8.949219-20 20-20zm0 0" fill="#ffde85"/><path d="m133 220c11.050781 0 20 8.949219 20 20s-8.949219 20-20 20-20-8.949219-20-20 8.949219-20 20-20zm0 0" fill="#ffde85"/><path d="m135.539062 60c-13.730468 12.710938-22.539062 30.410156-22.539062 50 0 6.191406.800781 12.179688 2.308594 17.890625-9.738282-5.039063-23.648438-7.890625-35.308594-7.890625-10.738281 0-20.910156 2.421875-30 6.738281 0-36.859375 32.878906-66.738281 69.738281-66.738281zm0 0" fill="#fe5f51"/><path d="m359 170c5.519531 0 10-4.480469 10-10s-4.480469-10-10-10-10 4.480469-10 10 4.480469 10 10 10zm0 0"/><path d="m216 250c-5.519531 0-10 4.480469-10 10s4.480469 10 10 10 10-4.480469 10-10-4.480469-10-10-10zm0 0"/><path d="m153 150c-5.519531 0-10 4.480469-10 10s4.480469 10 10 10 10-4.480469 10-10-4.480469-10-10-10zm0 0"/><path d="m512 190c0-27.394531-15.578125-53.464844-40.183594-68.105469-2.703125-39.441406-38.023437-71.894531-79.554687-71.894531h-12.023438c-15.324219-12.925781-34.433593-20-54.238281-20-4.003906 0-7.996094.300781-11.933594.886719-12.933594-19.21875-34.554687-30.886719-58.066406-30.886719s-45.136719 11.667969-58.066406 30.886719c-3.9375-.585938-7.929688-.886719-11.933594-.886719-19.804688 0-38.914062 7.074219-54.242188 20h-12.019531c-41.054687 0-76.039062 31.714844-79.441406 70.546875-24.664063 14.140625-40.296875 40.769531-40.296875 69.453125 0 22.621094 9.34375 43.734375 25.832031 58.867188-2.179687 9.273437-3.761719 18.691406-4.695312 28.085937-1.75 17.671875 12.246093 33.046875 29.972656 33.046875h409.78125c17.710937 0 31.726563-15.355469 29.972656-33.035156-.933593-9.40625-2.519531-18.828125-4.699219-28.09375 16.492188-15.132813 25.835938-36.25 25.835938-58.871094zm-20 0c0 13.4375-4.414062 26.152344-12.386719 36.507812-12.652343-35.902343-34.828125-68.804687-64.039062-95.015624 4.355469-.988282 8.835937-1.492188 13.425781-1.492188 33.671875 0 63 27.476562 63 60zm-41.914062-77.234375c-6.910157-1.824219-14.019532-2.765625-21.085938-2.765625-6.769531 0-13.515625.863281-20.039062 2.542969.023437-.847657.039062-1.695313.039062-2.542969 0-14.132812-3.9375-27.722656-11.289062-39.742188 24.988281 2.265626 46.078124 19.875 52.375 42.507813zm-61.085938-2.765625c0 .273438-.019531.546875-.023438.820312-32.558593-21.808593-70.242187-35.503906-108.8125-39.550781 11.1875-13.277343 27.773438-21.269531 45.835938-21.269531 32.574219 0 63 26.351562 63 60zm-133-90c14.5625 0 28.109375 6.265625 37.480469 16.878906-15.410157 6.828125-28.269531 18.359375-36.777344 33.125-.46875 0-.9375 0-1.402344 0-8.511719-14.765625-21.371093-26.296875-36.777343-33.125 9.367187-10.613281 22.914062-16.878906 37.476562-16.878906zm-24.164062 51.273438c-38.574219 4.042968-76.257813 17.738281-108.8125 39.546874-.003907-.273437-.023438-.546874-.023438-.820312 0-15.363281 6.367188-29.957031 17.949219-41.316406 1.316406-.753906 2.445312-1.789063 3.300781-3.035156 11.675781-9.96875 26.742188-15.648438 41.75-15.648438 17.808594 0 34.480469 7.792969 45.835938 21.273438zm-117.546876-1.015626c-7.351562 12.019532-11.289062 25.609376-11.289062 39.742188 0 .960938.015625 1.917969.050781 2.875-13.414062-3.316406-27.375-3.964844-40.898437-.882812 6.558594-22.257813 27.4375-39.496094 52.136718-41.734376zm-94.289062 119.742188c0-23.050781 13.460938-44.335938 34.292969-54.226562 13.25-6.300782 27.097656-7.144532 41.78125-3.96875-29.035157 26.15625-51.082031 58.9375-63.691407 94.699218-7.972656-10.355468-12.382812-23.070312-12.382812-36.503906zm440.890625 100h-409.78125c-5.929687 0-10.65625-5.148438-10.070313-11.070312 1.039063-10.445313 2.945313-20.925782 5.671876-31.160157 24.394531-91.453125 112.253906-157.769531 209.289062-157.769531 97.308594 0 184.980469 66.601562 209.277344 157.769531 2.734375 10.226563 4.644531 20.710938 5.683594 31.167969.582031 5.894531-4.121094 11.0625-10.070313 11.0625zm0 0"/><path d="m286 160c0-16.542969-13.457031-30-30-30s-30 13.457031-30 30 13.457031 30 30 30 30-13.457031 30-30zm-40 0c0-5.515625 4.484375-10 10-10s10 4.484375 10 10-4.484375 10-10 10-10-4.484375-10-10zm0 0"/><path d="m379 210c-16.542969 0-30 13.457031-30 30s13.457031 30 30 30 30-13.457031 30-30-13.457031-30-30-30zm0 40c-5.515625 0-10-4.484375-10-10s4.484375-10 10-10 10 4.484375 10 10-4.484375 10-10 10zm0 0"/><path d="m133 210c-16.542969 0-30 13.457031-30 30s13.457031 30 30 30 30-13.457031 30-30-13.457031-30-30-30zm0 40c-5.515625 0-10-4.484375-10-10s4.484375-10 10-10 10 4.484375 10 10-4.484375 10-10 10zm0 0"/><path d="m296 250h-40c-5.523438 0-10 4.476562-10 10s4.476562 10 10 10h40c5.523438 0 10-4.476562 10-10s-4.476562-10-10-10zm0 0"/></svg>