<svg height="512pt" viewBox="-76 0 512 512.00044" width="512pt" xmlns="http://www.w3.org/2000/svg"><path d="m330 10h-280v432h280c11.050781 0 20-8.949219 20-20v-392c0-11.050781-8.949219-20-20-20zm0 0" fill="#ffde85"/><path d="m130 256v60c0 11.050781 8.949219 20 20 20s20-8.949219 20-20v-60c-13.988281 0-26.011719 0-40 0zm0 0" fill="#fff"/><path d="m230 176v80h20v60c0 11.050781 8.949219 20 20 20 11.039062 0 20-8.960938 20-20 0-8.386719 0-185.601562 0-200-33.136719 0-60 26.859375-60 60zm0 0" fill="#fff"/><path d="m290 442v60l-40-20-40 20v-60zm0 0" fill="#fe5f51"/><path d="m10 10h40v432h-40zm0 0" fill="#fe5f51"/><path d="m50 86c-5.519531 0-10 4.480469-10 10s4.480469 10 10 10 10-4.480469 10-10-4.480469-10-10-10zm0 0"/><path d="m330 0h-320c-5.523438 0-10 4.476562-10 10v432c0 5.523438 4.476562 10 10 10h190v50c0 3.464844 1.796875 6.683594 4.742188 8.507812 2.949218 1.820313 6.628906 1.988282 9.730468.4375l35.527344-17.765624 35.527344 17.765624c3.09375 1.546876 6.777344 1.386719 9.730468-.4375 2.949219-1.824218 4.742188-5.042968 4.742188-8.507812v-50h30c16.542969 0 30-13.457031 30-30v-392c0-16.542969-13.457031-30-30-30zm-50 485.820312-25.527344-12.765624c-1.40625-.703126-2.941406-1.054688-4.472656-1.054688s-3.0625.351562-4.472656 1.054688l-25.527344 12.765624v-33.820312h60zm60-63.820312c0 5.515625-4.484375 10-10 10-8.878906 0-260.847656 0-270 0v-296c0-5.523438-4.476562-10-10-10s-10 4.476562-10 10v296h-20v-412h20v36c0 5.523438 4.476562 10 10 10s10-4.476562 10-10v-36h270c5.515625 0 10 4.484375 10 10zm0 0"/><path d="m290 106c-38.53125 0-70 31.164062-70 70v80c0 5.523438 4.476562 10 10 10h10v50c0 16.542969 13.457031 30 30 30 16.574219 0 30-13.425781 30-30 0-8.386719 0-185.601562 0-200 0-5.523438-4.476562-10-10-10zm-50 70c0-24.441406 17.417969-44.445312 40-49.007812v119.007812h-40zm30 150c-5.515625 0-10-4.484375-10-10v-50h20v50c0 5.519531-4.480469 10-10 10zm0 0"/><path d="m190 106c-5.523438 0-10 4.476562-10 10v40c0 13.035156-8.359375 24.152344-20 28.28125v-68.28125c0-5.523438-4.476562-10-10-10s-10 4.476562-10 10v68.296875c-11.390625-4.023437-20-14.972656-20-28.296875v-40c0-5.523438-4.476562-10-10-10s-10 4.476562-10 10v40c0 24.382812 17.382812 44.429688 40 49v41h-10c-5.523438 0-10 4.476562-10 10v60c0 16.542969 13.457031 30 30 30s30-13.457031 30-30v-60c0-5.523438-4.476562-10-10-10h-10v-41.007812c22.796875-4.644532 40-24.84375 40-48.992188v-40c0-5.523438-4.476562-10-10-10zm-30 210c0 5.515625-4.484375 10-10 10s-10-4.484375-10-10v-50h20zm0 0"/></svg>