<svg xmlns="http://www.w3.org/2000/svg" xmlns:xlink="http://www.w3.org/1999/xlink" width="234" height="56" viewBox="0 0 234 56">
  <defs>
    <clipPath id="clip-footer-logo-light">
      <rect width="234" height="56"/>
    </clipPath>
  </defs>
  <g id="footer-logo-light" clip-path="url(#clip-footer-logo-light)">
    <g id="Group_6912" data-name="Group 6912" transform="translate(1 -0.808)">
      <g id="logo" transform="translate(0 4.808)">
        <path id="Path_755" data-name="Path 755" d="M201.167,180.3c12.905,4.4,22.824,1.575,23.25,1.439l4.315-1.27-1.235-4.393h-7.4v-2.832a35.021,35.021,0,0,1-16.826-1.943c-13.271-4.812-28-1.168-28.625-1.016l-4.378,1.117,2.183,8.913,4.378-1.092A50.914,50.914,0,0,1,191.6,178.17c-3.029,8.061-7.319,15.932-9.358,17.079a62.8,62.8,0,0,1-10.975,1.14h-4.823v10.158h4.827a71.109,71.109,0,0,0,13.013-1.369c7.539-1.586,13.791-16.208,16.846-24.782Z" transform="translate(-132.793 -158.297)" fill="#c9cbd3"/>
        <path id="Path_756" data-name="Path 756" d="M254.518,150.314a5.035,5.035,0,0,0,4.989-5.079,5.15,5.15,0,0,0-.164-1.27H262V142.7h-3.167a4.958,4.958,0,0,0-9.2,1.516,5.173,5.173,0,0,0-.1,1.024A5.035,5.035,0,0,0,254.518,150.314Z" transform="translate(-185.918 -140.156)" fill="#c9cbd3"/>
        <g id="Group_5406" data-name="Group 5406" transform="translate(63.777 26.848)">
          <path id="Path_757" data-name="Path 757" d="M288.354,231.981c.305-.249.42-.5.33-.772a1.93,1.93,0,0,0-.849-.867q-.078-.049-.2-.121l-.257-.145c-.087-.05-.171-.1-.25-.138s-.144-.075-.2-.1q-.93.786-1.762,1.628c.038.021.1.054.176.1l.244.145.242.146c.076.048.134.082.172.1a3.092,3.092,0,0,0,1.244.471,1.444,1.444,0,0,0,1.036-.4Z" transform="translate(-272.483 -223.768)" fill="#c9cbd3"/>
          <path id="Path_758" data-name="Path 758" d="M272.386,222.8c-5.383-6.85-14.5-8.962-17.6-9.5a82.594,82.594,0,0,1-4.8,9.775l2.584.329c2.1.267,8.8,1.917,11.89,5.85l3.169,4.033,7.925-6.453Zm-17.077-.217a.313.313,0,0,1-.184.024q-.54-.11-1.094-.2a.165.165,0,0,1-.127-.081.144.144,0,0,1,0-.145A29.69,29.69,0,0,1,257.8,216.6q-1.058-.3-2.164-.519a.2.2,0,0,1-.14-.082.11.11,0,0,1,.021-.136q.3-.368.608-.73a.362.362,0,0,1,.184-.107.45.45,0,0,1,.223-.01,30.29,30.29,0,0,1,5.86,1.97.181.181,0,0,1,.109.112.126.126,0,0,1-.049.132q-.333.3-.654.6a.275.275,0,0,1-.171.072.391.391,0,0,1-.194-.028q-.965-.413-1.984-.765a28.8,28.8,0,0,0-4,5.354A.283.283,0,0,1,255.309,222.579Zm8.95.4c-.242.985-.442,2.182-.629,3.172a.127.127,0,0,1-.034.068.114.114,0,0,1-.169.022c-.326-.221-.654-.552-1-.758a.115.115,0,0,1-.065-.106,1.055,1.055,0,0,1,.016-.147c.131-.915.264-1.92.442-2.832l-.13-.072c-.126-.069-.266-.151-.425-.246s-.291-.172-.4-.232a25.243,25.243,0,0,0-1.736,2.144.249.249,0,0,1-.134.091.236.236,0,0,1-.162-.007q-.474-.205-.965-.392a.165.165,0,0,1-.1-.1.148.148,0,0,1,.02-.14,26.986,26.986,0,0,1,4.888-5.425.41.41,0,0,1,.273-.106.893.893,0,0,1,.32.073,10.439,10.439,0,0,1,1.007.466,12.119,12.119,0,0,1,1.082.641,4.931,4.931,0,0,1,.941.8,2.2,2.2,0,0,1,.5.852,1.281,1.281,0,0,1-.049.851,2.036,2.036,0,0,1-.693.815l-.073.056a2.871,2.871,0,0,1-1.327.6A3.447,3.447,0,0,1,264.259,222.979Zm9.055,3.376a21.33,21.33,0,0,0-3.825.415,2.078,2.078,0,0,1-.565.058,1.023,1.023,0,0,1-.385-.1,25.428,25.428,0,0,0-2.165,1.848.181.181,0,0,1-.126.053.161.161,0,0,1-.125-.048q-.323-.321-.666-.631a.157.157,0,0,1-.055-.123.176.176,0,0,1,.051-.128,26.127,26.127,0,0,1,2.144-1.933.746.746,0,0,1-.054-.36,1.385,1.385,0,0,1,.164-.5q.775-1.557,1.7-3.064a.3.3,0,0,1,.054-.058.2.2,0,0,1,.127-.027.228.228,0,0,1,.137.065q.45.417.873.848a.143.143,0,0,1,.047.118.2.2,0,0,1-.045.11q-.876,1.216-1.641,2.482a.317.317,0,0,0-.065.16.119.119,0,0,0,.024.074.171.171,0,0,0,.086.043.492.492,0,0,0,.2-.022,22.2,22.2,0,0,1,3.313-.525.373.373,0,0,1,.143.011.215.215,0,0,1,.12.08q.344.46.663.93a.154.154,0,0,1,.032.124.115.115,0,0,1-.07.079A.352.352,0,0,1,273.314,226.355Z" transform="translate(-249.988 -213.297)" fill="#c9cbd3"/>
        </g>
        <path id="Path_764" data-name="Path 764" d="M86.109,205.354h17.55a1.225,1.225,0,0,0,0-2.45H86.109a1.225,1.225,0,0,0,0,2.45Z" transform="translate(-80.655 -179.871)" fill="#c9cbd3"/>
        <path id="Path_765" data-name="Path 765" d="M125.125,221.368a1.246,1.246,0,0,0,1.235,1.258h17.486a1.258,1.258,0,0,0,0-2.515H126.36A1.246,1.246,0,0,0,125.125,221.368Z" transform="translate(-106.372 -190.761)" fill="#c9cbd3"/>
        <path id="Path_766" data-name="Path 766" d="M93.074,258.943a1.278,1.278,0,0,0-1.267-1.29H74.385a1.29,1.29,0,0,0,0,2.58H91.807A1.278,1.278,0,0,0,93.074,258.943Z" transform="translate(-73.118 -214.522)" fill="#c9cbd3"/>
        <path id="Path_767" data-name="Path 767" d="M330.588,150.5v12.633H318.179V150.5h5.076v3.732h1.974V150.5Z" transform="translate(-229.814 -146.704)" fill="#c9cbd3"/>
      </g>
      <g id="Group_6908" data-name="Group 6908" transform="translate(110.339 7.573)">
        <path id="Path_759" data-name="Path 759" d="M81.273,283.525l5.994.04v23.814h5.767V283.564h6.014v-5.755l-17.775-.038Z" transform="translate(-81.273 -267.471)" fill="#c9cbd3"/>
        <path id="Path_760" data-name="Path 760" d="M143.992,248.908a3.5,3.5,0,0,0-2.38-1.023,3.4,3.4,0,0,0-1.414.256,3.686,3.686,0,0,0-1.964,1.886,3.427,3.427,0,0,0-.323,1.353,3.073,3.073,0,0,0,.251,1.417,3.706,3.706,0,0,0,.811,1.183,3.859,3.859,0,0,0,1.185.8,3.184,3.184,0,0,0,1.373.266,3.5,3.5,0,0,0,1.362-.32,3.551,3.551,0,0,0,1.133-.809,3.79,3.79,0,0,0,.748-1.173,3.4,3.4,0,0,0,.25-1.405,3.554,3.554,0,0,0-.291-1.343A3.509,3.509,0,0,0,143.992,248.908Z" transform="translate(-118.734 -247.884)" fill="#c9cbd3"/>
        <rect id="Rectangle_6219" data-name="Rectangle 6219" width="5.332" height="29.312" transform="translate(20.085 10.557)" fill="#c9cbd3"/>
        <path id="Path_761" data-name="Path 761" d="M185.345,282.621a10.445,10.445,0,0,0-5.457-5.561,10.226,10.226,0,0,0-4.027-.871,10.343,10.343,0,0,0-4.358.8,10.611,10.611,0,0,0-3.538,2.423,11.419,11.419,0,0,0-2.364,3.7,12.423,12.423,0,0,0-.861,4.658V306.3h5.77V295.7a12.054,12.054,0,0,0,1.35.919,8.341,8.341,0,0,0,1.335.631,6.877,6.877,0,0,0,1.427.358,10.249,10.249,0,0,0,1.655.086,8.909,8.909,0,0,0,3.821-.978,10.741,10.741,0,0,0,3.177-2.44,11.84,11.84,0,0,0,2.155-3.488,10.389,10.389,0,0,0,.757-4.1A10.882,10.882,0,0,0,185.345,282.621Zm-5.24,6.259a5.325,5.325,0,0,1-1.019,1.647,4.816,4.816,0,0,1-1.551,1.135,4.74,4.74,0,0,1-1.92.437,4.392,4.392,0,0,1-1.978-.377,5.127,5.127,0,0,1-1.626-1.135,5.485,5.485,0,0,1-1.1-1.677,4.684,4.684,0,0,1-.368-2.005,5.172,5.172,0,0,1,1.427-3.507,4.94,4.94,0,0,1,3.376-1.512,4.808,4.808,0,0,1,1.938.358,5.031,5.031,0,0,1,1.618,1.067,5.143,5.143,0,0,1,1.1,1.607,5.3,5.3,0,0,1,.445,1.986A5.024,5.024,0,0,1,180.1,288.88Z" transform="translate(-136.484 -266.432)" fill="#c9cbd3"/>
        <path id="Path_762" data-name="Path 762" d="M250.115,277.809l-17.775-.038v5.754l5.994.04v23.814H244.1V283.564h6.014Z" transform="translate(-181.199 -267.471)" fill="#c9cbd3"/>
        <path id="Path_763" data-name="Path 763" d="M396.135,282.621a10.446,10.446,0,0,0-5.457-5.561,10.228,10.228,0,0,0-4.028-.871,10.36,10.36,0,0,0-4.358.8,10.61,10.61,0,0,0-3.537,2.423,11.421,11.421,0,0,0-2.364,3.7,12.416,12.416,0,0,0-.858,4.658V306.3H381.3V295.7a11.892,11.892,0,0,0,1.353.919,8.452,8.452,0,0,0,1.332.631,6.928,6.928,0,0,0,1.427.358,10.26,10.26,0,0,0,1.655.086,8.9,8.9,0,0,0,3.821-.978,10.746,10.746,0,0,0,3.177-2.44,11.847,11.847,0,0,0,2.155-3.488,10.387,10.387,0,0,0,.757-4.1A10.891,10.891,0,0,0,396.135,282.621Zm-5.24,6.259a5.287,5.287,0,0,1-1.019,1.647,4.788,4.788,0,0,1-1.552,1.135,4.737,4.737,0,0,1-1.919.437,4.374,4.374,0,0,1-1.975-.377,5.1,5.1,0,0,1-1.626-1.135,5.492,5.492,0,0,1-1.1-1.677,4.673,4.673,0,0,1-.368-2.005,5.2,5.2,0,0,1,.4-1.927,5.106,5.106,0,0,1,1.03-1.579,4.94,4.94,0,0,1,3.376-1.512,4.809,4.809,0,0,1,1.938.358,5.035,5.035,0,0,1,1.618,1.067,5.2,5.2,0,0,1,1.107,1.607,5.393,5.393,0,0,1,.445,1.986A5.082,5.082,0,0,1,390.9,288.88Z" transform="translate(-275.917 -266.432)" fill="#c9cbd3"/>
        <path id="Path_768" data-name="Path 768" d="M300.823,276.188c-7.99,0-13.28,5.232-13.28,13.415s12.867,19.551,12.867,19.551,13.126-10.75,13.126-20.017C313.536,281.525,308.452,276.188,300.823,276.188Zm-.354,20.486a6.735,6.735,0,0,1-7.05-7.15c0-4.485,2.894-7.353,7.274-7.353a6.689,6.689,0,0,1,6.968,7.094C307.663,294.347,304.123,296.674,300.47,296.674Z" transform="translate(-217.714 -266.434)" fill="#c9cbd3"/>
      </g>
    </g>
  </g>
</svg>
