<svg xmlns="http://www.w3.org/2000/svg" xmlns:xlink="http://www.w3.org/1999/xlink" width="284" height="68" viewBox="0 0 284 68">
  <defs>
    <clipPath id="clip-logo-dark">
      <rect width="284" height="68"/>
    </clipPath>
  </defs>
  <g id="logo-dark" clip-path="url(#clip-logo-dark)">
    <g id="Group_6913" data-name="Group 6913" transform="translate(2 0.192)">
      <g id="logo" transform="translate(0 4.808)">
        <path id="Path_755" data-name="Path 755" d="M208.46,182.708c15.616,5.319,27.617,1.906,28.134,1.741l5.222-1.536-1.494-5.316h-8.95V174.17a42.376,42.376,0,0,1-20.36-2.351c-16.058-5.823-33.882-1.413-34.636-1.229l-5.3,1.352,2.641,10.785,5.3-1.321a61.607,61.607,0,0,1,17.868-1.272c-3.665,9.754-8.856,19.278-11.323,20.666a76,76,0,0,1-13.28,1.379h-5.836v12.291h5.841a86.043,86.043,0,0,0,15.747-1.656c9.123-1.919,16.687-19.612,20.385-29.987Z" transform="translate(-125.725 -156.087)" fill="#fec63b"/>
        <path id="Path_756" data-name="Path 756" d="M255.566,152.447A6.092,6.092,0,0,0,261.6,146.3a6.233,6.233,0,0,0-.2-1.536h3.216v-1.536h-3.833a6,6,0,0,0-11.137,1.834,6.26,6.26,0,0,0-.123,1.239A6.092,6.092,0,0,0,255.566,152.447Z" transform="translate(-172.558 -140.156)" fill="#293351"/>
        <g id="Group_5406" data-name="Group 5406" transform="translate(77.171 32.487)">
          <path id="Path_757" data-name="Path 757" d="M289.023,232.431c.369-.3.509-.61.4-.934a2.335,2.335,0,0,0-1.028-1.049q-.094-.059-.246-.147t-.311-.176c-.105-.06-.207-.115-.3-.167s-.174-.091-.237-.117q-1.125.951-2.132,1.97c.046.025.118.065.213.121s.193.114.3.175.2.119.292.177.162.1.208.127a3.74,3.74,0,0,0,1.505.57,1.748,1.748,0,0,0,1.253-.479Z" transform="translate(-269.818 -222.493)" fill="#293351"/>
          <path id="Path_758" data-name="Path 758" d="M277.09,224.792c-6.513-8.289-17.551-10.844-21.3-11.495a99.944,99.944,0,0,1-5.805,11.827l3.126.4c2.544.323,10.646,2.319,14.387,7.079l3.835,4.88,9.589-7.809Zm-20.663-.263a.378.378,0,0,1-.223.028q-.654-.133-1.324-.238a.2.2,0,0,1-.154-.1.175.175,0,0,1,0-.175,35.925,35.925,0,0,1,4.709-6.758q-1.28-.358-2.619-.628a.243.243,0,0,1-.169-.1.133.133,0,0,1,.025-.164q.36-.445.736-.883a.438.438,0,0,1,.223-.13.545.545,0,0,1,.269-.012A36.65,36.65,0,0,1,265,217.757a.219.219,0,0,1,.132.136.152.152,0,0,1-.059.16q-.4.36-.791.729a.332.332,0,0,1-.206.087.473.473,0,0,1-.235-.033q-1.168-.5-2.4-.926a34.843,34.843,0,0,0-4.84,6.478A.343.343,0,0,1,256.426,224.529Zm10.83.484c-.293,1.191-.535,2.64-.761,3.838a.154.154,0,0,1-.041.083.138.138,0,0,1-.2.026c-.395-.267-.792-.668-1.209-.918a.139.139,0,0,1-.079-.128,1.276,1.276,0,0,1,.019-.177c.159-1.107.32-2.323.535-3.427l-.158-.088c-.152-.083-.322-.183-.514-.3s-.352-.208-.479-.281a30.542,30.542,0,0,0-2.1,2.594.3.3,0,0,1-.162.11.285.285,0,0,1-.2-.008q-.574-.249-1.168-.474a.2.2,0,0,1-.125-.124.179.179,0,0,1,.024-.17,32.653,32.653,0,0,1,5.915-6.565.5.5,0,0,1,.33-.129,1.081,1.081,0,0,1,.388.088,12.635,12.635,0,0,1,1.219.564,14.66,14.66,0,0,1,1.31.775,5.965,5.965,0,0,1,1.139.965,2.664,2.664,0,0,1,.605,1.031,1.55,1.55,0,0,1-.059,1.029,2.464,2.464,0,0,1-.839.986l-.089.068a3.474,3.474,0,0,1-1.605.728A4.171,4.171,0,0,1,267.257,225.013Zm10.957,4.085a25.807,25.807,0,0,0-4.629.5,2.514,2.514,0,0,1-.684.071,1.237,1.237,0,0,1-.466-.117,30.765,30.765,0,0,0-2.619,2.236.219.219,0,0,1-.152.064.194.194,0,0,1-.152-.058q-.391-.388-.805-.764a.19.19,0,0,1-.066-.149.213.213,0,0,1,.062-.155,31.611,31.611,0,0,1,2.595-2.339.9.9,0,0,1-.065-.435,1.676,1.676,0,0,1,.2-.6q.938-1.884,2.051-3.708a.361.361,0,0,1,.065-.071.245.245,0,0,1,.154-.032.276.276,0,0,1,.166.079q.544.5,1.057,1.026a.173.173,0,0,1,.057.143.248.248,0,0,1-.055.133q-1.06,1.471-1.986,3a.383.383,0,0,0-.079.194.144.144,0,0,0,.029.089.208.208,0,0,0,.1.052.6.6,0,0,0,.237-.027,26.866,26.866,0,0,1,4.009-.636.451.451,0,0,1,.173.013.26.26,0,0,1,.146.1q.417.556.8,1.125a.186.186,0,0,1,.039.15.139.139,0,0,1-.084.1A.427.427,0,0,1,278.213,229.1Z" transform="translate(-249.988 -213.297)" fill="#293351"/>
        </g>
        <path id="Path_764" data-name="Path 764" d="M86.361,205.869H107.6a1.483,1.483,0,0,0,0-2.965H86.361a1.483,1.483,0,0,0,0,2.965Z" transform="translate(-79.762 -175.033)" fill="#293351"/>
        <path id="Path_765" data-name="Path 765" d="M125.125,221.632a1.508,1.508,0,0,0,1.494,1.522h21.158a1.522,1.522,0,0,0,0-3.043H126.619A1.508,1.508,0,0,0,125.125,221.632Z" transform="translate(-102.434 -184.597)" fill="#293351"/>
        <path id="Path_766" data-name="Path 766" d="M97.265,259.214a1.547,1.547,0,0,0-1.533-1.561H74.651a1.561,1.561,0,0,0,0,3.122H95.733A1.547,1.547,0,0,0,97.265,259.214Z" transform="translate(-73.118 -205.464)" fill="#293351"/>
        <path id="Path_767" data-name="Path 767" d="M333.194,150.5v15.286H318.179V150.5h6.143v4.516h2.389V150.5Z" transform="translate(-211.255 -145.906)" fill="#293351"/>
      </g>
      <g id="Group_6908" data-name="Group 6908" transform="translate(131.403 -20.209)">
        <path id="Path_759" data-name="Path 759" d="M81.273,284.733l7.253.048V313.6H95.5V284.781h7.277v-6.964l-21.509-.047Z" transform="translate(-79.164 -236.944)" fill="#293351"/>
        <path id="Path_760" data-name="Path 760" d="M145.271,249.123a4.238,4.238,0,0,0-2.88-1.237,4.114,4.114,0,0,0-1.711.309,4.46,4.46,0,0,0-2.377,2.282,4.147,4.147,0,0,0-.391,1.637,3.719,3.719,0,0,0,.3,1.714,4.484,4.484,0,0,0,.981,1.431,4.669,4.669,0,0,0,1.433.967,3.853,3.853,0,0,0,1.661.322,4.235,4.235,0,0,0,1.648-.387,4.3,4.3,0,0,0,1.371-.979,4.586,4.586,0,0,0,.905-1.419,4.113,4.113,0,0,0,.3-1.7,4.3,4.3,0,0,0-.353-1.625A4.246,4.246,0,0,0,145.271,249.123Z" transform="translate(-112.598 -219.521)" fill="#293351"/>
        <rect id="Rectangle_6219" data-name="Rectangle 6219" width="6.452" height="35.468" transform="translate(26.413 41.138)" fill="#293351"/>
        <path id="Path_761" data-name="Path 761" d="M189.673,283.973a12.639,12.639,0,0,0-6.6-6.728,12.374,12.374,0,0,0-4.873-1.054,12.514,12.514,0,0,0-5.274.972,12.84,12.84,0,0,0-4.281,2.932,13.818,13.818,0,0,0-2.861,4.478,15.032,15.032,0,0,0-1.041,5.636v22.417h6.981V299.8a14.587,14.587,0,0,0,1.634,1.112,10.1,10.1,0,0,0,1.615.763,8.321,8.321,0,0,0,1.727.434,12.4,12.4,0,0,0,2,.1,10.78,10.78,0,0,0,4.623-1.184,13,13,0,0,0,3.844-2.952,14.326,14.326,0,0,0,2.608-4.22,12.57,12.57,0,0,0,.916-4.961A13.167,13.167,0,0,0,189.673,283.973Zm-6.341,7.573a6.443,6.443,0,0,1-1.233,1.993,5.828,5.828,0,0,1-1.877,1.373,5.736,5.736,0,0,1-2.323.528,5.314,5.314,0,0,1-2.393-.457,6.2,6.2,0,0,1-1.967-1.373,6.637,6.637,0,0,1-1.326-2.029,5.667,5.667,0,0,1-.445-2.427,6.258,6.258,0,0,1,1.727-4.243,5.978,5.978,0,0,1,4.085-1.83,5.818,5.818,0,0,1,2.345.434,6.089,6.089,0,0,1,1.958,1.292,6.224,6.224,0,0,1,1.336,1.944,6.411,6.411,0,0,1,.538,2.4A6.079,6.079,0,0,1,183.332,291.546Z" transform="translate(-128.44 -236.02)" fill="#293351"/>
        <path id="Path_762" data-name="Path 762" d="M253.848,277.817l-21.509-.047v6.963l7.253.048V313.6h6.978V284.781h7.277Z" transform="translate(-168.349 -236.944)" fill="#293351"/>
        <path id="Path_763" data-name="Path 763" d="M400.462,283.973a12.64,12.64,0,0,0-6.6-6.728,12.377,12.377,0,0,0-4.873-1.054,12.535,12.535,0,0,0-5.274.972,12.839,12.839,0,0,0-4.28,2.932,13.82,13.82,0,0,0-2.861,4.478,15.023,15.023,0,0,0-1.038,5.636v22.417h6.978V299.8a14.389,14.389,0,0,0,1.637,1.112,10.233,10.233,0,0,0,1.612.763,8.383,8.383,0,0,0,1.727.434,12.415,12.415,0,0,0,2,.1,10.77,10.77,0,0,0,4.624-1.184,13,13,0,0,0,3.844-2.952,14.334,14.334,0,0,0,2.608-4.22,12.569,12.569,0,0,0,.916-4.961A13.178,13.178,0,0,0,400.462,283.973Zm-6.34,7.573a6.4,6.4,0,0,1-1.233,1.993,5.794,5.794,0,0,1-1.878,1.373,5.733,5.733,0,0,1-2.323.528,5.294,5.294,0,0,1-2.39-.457,6.166,6.166,0,0,1-1.967-1.373,6.646,6.646,0,0,1-1.33-2.029,5.655,5.655,0,0,1-.445-2.427,6.294,6.294,0,0,1,.481-2.332,6.179,6.179,0,0,1,1.246-1.911,5.978,5.978,0,0,1,4.085-1.83,5.82,5.82,0,0,1,2.345.434,6.093,6.093,0,0,1,1.958,1.292,6.287,6.287,0,0,1,1.339,1.944,6.526,6.526,0,0,1,.538,2.4A6.149,6.149,0,0,1,394.122,291.546Z" transform="translate(-252.886 -236.02)" fill="#293351"/>
        <path id="Path_768" data-name="Path 768" d="M303.612,276.188c-9.668,0-16.069,6.331-16.069,16.232s15.57,23.657,15.57,23.657S319,303.07,319,291.857C319,282.646,312.843,276.188,303.612,276.188Zm-.428,24.789c-4.823,0-8.53-3.229-8.53-8.652s3.5-8.9,8.8-8.9c5.059,0,8.432,3.538,8.432,8.584C311.888,298.161,307.606,300.977,303.184,300.977Z" transform="translate(-200.94 -236.022)" fill="#293351"/>
      </g>
    </g>
  </g>
</svg>
